<svg width="295" height="116" viewBox="0 0 295 116" fill="none" xmlns="http://www.w3.org/2000/svg">
<path d="M41.9102 6.467V113.607" stroke="#A87C51" stroke-width="1.5" stroke-miterlimit="10"/>
<path d="M27.4702 40.267H55.4002" stroke="#A87C51" stroke-width="1.5" stroke-miterlimit="10"/>
<path d="M48.4102 69.317H34.4502L27.4702 76.317H55.4002L48.4102 69.317Z" fill="#EC8C25"/>
<path d="M27.4702 76.807L34.4502 83.807H48.4102L55.4002 76.807H27.4702Z" fill="#F05A2A"/>
<path d="M48.4102 55.047H34.4502L27.4702 62.057H55.4002L48.4102 55.047Z" fill="#EC8C25"/>
<path d="M27.4702 62.537L34.4502 69.547H48.4102L55.4002 62.537H27.4702Z" fill="#F05A2A"/>
<path d="M48.4102 83.327H34.4502L27.4702 90.327H55.4002L48.4102 83.327Z" fill="#EC8C25"/>
<path d="M48.4102 97.337H34.4502L27.4702 104.337H55.4002L48.4102 97.337Z" fill="#EC8C25"/>
<path d="M27.4702 90.817L34.4502 97.817H48.4102L55.4002 90.817H27.4702Z" fill="#F05A2A"/>
<path d="M27.4702 104.337L34.4502 111.347H48.4102L55.4002 104.337H27.4702Z" fill="#F05A2A"/>
<path d="M48.8902 24.757H34.9302L27.9502 31.757H55.8802L48.8902 24.757Z" fill="#E22D2C"/>
<path d="M27.9502 32.247L34.9302 39.257H48.8902L55.8802 32.247H27.9502Z" fill="#AA2023"/>
<path d="M27.4702 104.337H55.4002" stroke="white" stroke-miterlimit="10"/>
<path d="M8.62988 9.737V31.837" stroke="#7CAB41" stroke-width="2" stroke-miterlimit="10"/>
<path d="M2 29.227H15.27L8.63 35.867L2 29.227Z" fill="#7CAB41" stroke="#7CAB41" stroke-miterlimit="10"/>
<path fill-rule="evenodd" clip-rule="evenodd" d="M74.1797 20.067C74.1497 20.077 74.1297 20.087 74.0997 20.107L73.8497 20.217L73.6897 19.997C71.9297 17.527 72.4697 15.017 75.1797 13.687L75.0897 13.447C74.8997 12.947 74.9597 12.257 75.0797 11.747C75.2697 10.967 75.6797 10.257 76.2797 9.72701C82.1197 4.57701 96.6097 1.48701 102.89 7.19701C106.63 10.597 107.85 14.937 107.54 19.907C107.15 26.347 104.08 32.797 99.2997 37.127C97.1297 39.097 93.3997 41.457 90.5697 42.227C88.5597 42.767 86.4097 42.357 85.3398 40.417C84.7397 39.337 84.6597 38.017 85.0898 36.857C85.5798 35.497 86.6797 34.537 88.0297 34.067C89.4997 33.547 92.3997 32.817 93.4897 31.797C94.0697 31.247 95.5197 29.707 95.1497 28.797C94.7097 27.717 91.7498 28.157 90.9498 28.297C81.9598 29.817 74.1997 38.727 64.7797 37.077C59.8197 36.207 58.6897 28.227 63.7897 28.267C66.3297 28.287 69.1797 27.637 71.6197 26.937C72.7297 26.617 73.8397 26.267 74.9397 25.887C74.0297 25.597 73.2197 24.967 72.8197 24.087C72.1697 22.667 72.8097 21.257 73.8697 20.247L73.8997 20.217L73.9397 20.197C74.0297 20.147 74.0997 20.107 74.1797 20.067Z" fill="#C7713E"/>
<path fill-rule="evenodd" clip-rule="evenodd" d="M102.66 7.42701C105.75 10.237 107.56 14.097 107.21 19.867C106.82 26.207 103.8 32.587 99.08 36.867C97.08 38.677 93.32 41.127 90.49 41.887C84.73 43.447 83.17 36.107 88.15 34.357C89.56 33.857 92.6 33.077 93.73 32.017C96.21 29.687 96.9 26.937 90.91 27.947C81.76 29.487 74.14 38.357 64.85 36.727C60.27 35.927 59.13 28.537 63.8 28.577C70.04 28.627 80.22 24.367 82.4 23.047C82.74 22.847 82.74 22.837 82.37 22.967C80.88 23.507 78.84 24.307 75.58 25.667C73.29 25.337 71.69 22.767 74.11 20.467C75.33 19.787 80.1 17.577 81.91 16.477C82.02 16.407 82.04 16.407 81.9 16.447C80.21 17.037 77.75 18.067 73.96 19.777C72.39 17.567 72.66 15.157 75.51 13.867C75.84 13.717 79.98 11.647 82.19 10.717C82.47 10.597 82.47 10.597 82.19 10.707C79.39 11.717 77.3 12.327 75.4 13.297C75.17 12.667 75.27 11.027 76.5 9.94701C82.32 4.82701 96.6 1.91701 102.66 7.42701ZM87.2 38.887C85.2 39.877 87.24 42.117 89.72 41.667C90.55 41.517 91.35 41.107 91.41 40.677C91.12 40.977 90.53 41.247 89.88 41.427C87.98 41.957 85.86 39.677 87.63 38.947C88.21 38.707 88.94 38.577 89.53 38.597C88.89 38.387 87.87 38.557 87.2 38.887ZM92.14 40.537C91.06 40.187 90.3 39.237 90.44 38.597C89.74 39.217 90.7 40.377 92.14 40.537ZM62.59 29.557C60.69 30.587 61.71 34.237 63.86 34.077C64.57 34.027 65.34 33.597 65.51 32.987C65.19 33.357 64.63 33.627 64.06 33.757C62.37 34.147 61.29 30.417 62.93 29.717C63.47 29.487 64.1 29.447 64.57 29.587C64.1 29.167 63.23 29.217 62.59 29.557ZM66.03 32.617C65.25 31.897 64.9 30.377 65.19 29.467C64.46 30.217 64.91 32.087 66.03 32.617ZM82.86 9.83701C82.07 9.09701 81.87 7.857 82.14 7.137C81.43 7.657 81.75 9.20701 82.86 9.83701ZM88.37 26.607C87.03 26.287 85.77 24.007 86.2 22.667C85.17 23.827 86.71 26.877 88.37 26.607ZM85.6 20.757C84.23 20.047 83.83 17.887 84.24 16.607C83.35 17.947 83.93 20.517 85.6 20.757ZM84.11 14.767C82.9 13.697 82.72 11.657 82.99 10.757C82.12 11.727 82.45 14.187 84.11 14.767Z" fill="#FAB888"/>
</svg>
