<svg width="242" height="116" viewBox="0 0 242 116" fill="none" xmlns="http://www.w3.org/2000/svg">
<path d="M34.2998 1.0321V108.172" stroke="#A87C51" stroke-width="1.5" stroke-miterlimit="10"/>
<path d="M19.8599 34.8321H47.7899" stroke="#A87C51" stroke-width="1.5" stroke-miterlimit="10"/>
<path d="M40.8099 63.8821H26.8399L19.8599 70.8921H47.7899L40.8099 63.8821Z" fill="#EC8C25"/>
<path d="M19.8599 71.3721L26.8399 78.3821H40.8099L47.7899 71.3721H19.8599Z" fill="#F05A2A"/>
<path d="M40.8099 49.6221H26.8399L19.8599 56.6221H47.7899L40.8099 49.6221Z" fill="#EC8C25"/>
<path d="M19.8599 57.1121L26.8399 64.1121H40.8099L47.7899 57.1121H19.8599Z" fill="#F05A2A"/>
<path d="M40.8099 77.8921H26.8399L19.8599 84.9021H47.7899L40.8099 77.8921Z" fill="#EC8C25"/>
<path d="M40.8099 91.9021H26.8399L19.8599 98.9121H47.7899L40.8099 91.9021Z" fill="#EC8C25"/>
<path d="M19.8599 85.3821L26.8399 92.3921H40.8099L47.7899 85.3821H19.8599Z" fill="#F05A2A"/>
<path d="M19.8599 98.9121L26.8399 105.922H40.8099L47.7899 98.9121H19.8599Z" fill="#F05A2A"/>
<path d="M41.2798 3.32208H27.3198L20.3398 10.3321H48.2698L41.2798 3.32208Z" fill="#E22D2C"/>
<path d="M20.3398 10.8121L27.3198 17.8221H41.2798L48.2698 10.8121H20.3398Z" fill="#AA2023"/>
<path d="M19.8599 98.9121H47.7899" stroke="white" stroke-miterlimit="10"/>
<path d="M8.64014 31.4721V9.3721" stroke="#7CAB41" stroke-width="2" stroke-miterlimit="10"/>
<path d="M15.27 11.9821H2L8.64 5.3421L15.27 11.9821Z" fill="#7CAB41" stroke="#7CAB41" stroke-miterlimit="10"/>
<path fill-rule="evenodd" clip-rule="evenodd" d="M55.4703 17.4821L55.4603 17.4521C54.8803 14.3721 56.4503 12.1721 59.4703 11.9621C59.5303 11.3721 59.8803 10.7221 60.2403 10.2621C60.7803 9.58212 61.5103 9.07212 62.3403 8.82212C69.9703 6.53212 84.5803 9.86213 87.9703 17.8321C89.9803 22.5721 89.2703 27.1321 86.8703 31.6121C83.7803 37.3721 78.2303 42.0121 71.9903 43.9721C69.1403 44.8721 64.7203 45.4621 61.7803 44.9621C59.5703 44.5921 57.6803 43.1921 57.5103 40.8321C57.4203 39.5021 57.9303 38.1821 58.8603 37.2321C59.9503 36.1321 61.4403 35.6921 62.9703 35.8321C64.4503 35.9721 67.4103 36.5121 68.7503 36.0721C69.4003 35.8521 70.1203 35.5521 70.6703 35.1421C70.8903 34.9821 71.2803 34.6421 71.2903 34.3421C71.3003 34.0521 70.9303 33.7521 70.7303 33.6121C69.9703 33.0721 68.8203 32.7121 67.9303 32.4721C59.0903 30.0721 48.4003 34.9921 40.3903 29.4621C38.8003 28.3621 38.0203 26.5121 38.0903 24.6121C38.1503 22.9921 38.8703 21.1721 40.3903 20.4021C41.4003 19.8921 42.5003 20.0021 43.5003 20.4721C45.7703 21.5421 48.6103 22.1321 51.0703 22.5121C51.9303 22.6421 52.8003 22.7621 53.6703 22.8521C53.2403 22.2421 52.9703 21.5121 52.9803 20.7521C52.9803 19.1421 54.0803 18.0421 55.4703 17.4821Z" fill="#9D4222"/>
<path fill-rule="evenodd" clip-rule="evenodd" d="M56.2001 17.6521C56.1701 17.6521 56.1401 17.6521 56.1101 17.6521H55.8401L55.7901 17.3821C55.2301 14.4021 56.7701 12.3421 59.7801 12.2721L59.8001 12.0121C59.8401 11.4821 60.1801 10.8721 60.5001 10.4621C61.0001 9.8321 61.6701 9.3621 62.4401 9.1321C69.9001 6.8921 84.3501 10.1521 87.6701 17.9621C89.6401 22.6121 88.9401 27.0621 86.5801 31.4521C83.5301 37.1321 78.0501 41.7121 71.8901 43.6521C69.0901 44.5321 64.7201 45.1221 61.8301 44.6321C59.7801 44.2821 58.0001 43.0121 57.8401 40.8021C57.7501 39.5721 58.2301 38.3421 59.1001 37.4621C60.1201 36.4321 61.5201 36.0221 62.9401 36.1621C64.4901 36.3121 67.4401 36.8621 68.8501 36.3821C69.6101 36.1321 71.5701 35.3321 71.6101 34.3521C71.6701 33.1821 68.7901 32.3521 68.0001 32.1421C59.2001 29.7621 48.4201 34.6121 40.5601 29.1821C36.4101 26.3221 38.7301 18.5921 43.3401 20.7621C45.6401 21.8421 48.5001 22.4421 51.0101 22.8321C52.1501 23.0121 53.3101 23.1521 54.4701 23.2621C53.7601 22.6221 53.2901 21.7121 53.3001 20.7421C53.3101 19.1821 54.4701 18.1621 55.8601 17.6921L55.9001 17.6821H55.9401C56.0301 17.6721 56.1101 17.6621 56.2001 17.6521Z" fill="#C7713E"/>
<path fill-rule="evenodd" clip-rule="evenodd" d="M87.3603 18.0921C88.9903 21.9421 89.0203 26.2021 86.2903 31.2921C83.2803 36.8921 77.8803 41.4221 71.8003 43.3321C69.2303 44.1421 64.7903 44.7921 61.9003 44.3021C56.0203 43.3121 57.6703 35.9921 62.9203 36.4821C64.4103 36.6221 67.5003 37.1821 68.9703 36.6921C72.2003 35.6121 73.9803 33.4021 68.1103 31.8221C59.1603 29.3921 48.5203 34.2621 40.7703 28.9021C36.9503 26.2621 39.0003 19.0721 43.2303 21.0521C48.8803 23.7121 59.9003 24.0921 62.4403 23.8121C62.8303 23.7721 62.8303 23.7621 62.4503 23.7321C60.8803 23.6021 58.6803 23.4721 55.1503 23.3421C53.2103 22.0821 52.8303 19.0821 55.9903 18.0021C57.3803 17.8921 62.6403 17.8821 64.7403 17.6421C64.8703 17.6321 64.8903 17.6321 64.7503 17.6121C62.9603 17.4421 60.3003 17.3521 56.1403 17.3221C55.6403 14.6621 56.8903 12.5821 60.0203 12.6021C60.3803 12.6021 65.0103 12.4521 67.4003 12.5321C67.7003 12.5421 67.7003 12.5421 67.4003 12.5221C64.4403 12.2721 62.2803 11.9421 60.1503 12.0421C60.2003 11.3721 60.9803 9.93213 62.5503 9.45213C69.9703 7.22213 84.1603 10.5521 87.3603 18.0921ZM60.1603 40.2021C57.9303 40.2621 58.8403 43.1521 61.2903 43.7821C62.1003 43.9921 63.0003 43.9521 63.2403 43.5921C62.8503 43.7421 62.2003 43.7421 61.5403 43.6321C59.6003 43.3221 58.6303 40.3621 60.5303 40.4321C61.1603 40.4521 61.8803 40.6521 62.4003 40.9021C61.9003 40.4521 60.9003 40.1821 60.1603 40.2021ZM63.9503 43.7721C63.1103 43.0021 62.8203 41.8221 63.2103 41.2921C62.3203 41.5621 62.7103 43.0121 63.9503 43.7721ZM41.7103 21.4421C39.5503 21.5821 38.9503 25.3221 40.9703 26.0821C41.6403 26.3321 42.5203 26.2621 42.9303 25.7821C42.4803 25.9821 41.8603 26.0021 41.2903 25.8821C39.5903 25.5221 40.1703 21.6921 41.9503 21.7321C42.5403 21.7521 43.1203 21.9821 43.4903 22.3021C43.2403 21.7121 42.4203 21.3921 41.7103 21.4421ZM43.5503 25.6521C43.1403 24.6721 43.4603 23.1421 44.1103 22.4421C43.1203 22.8121 42.7503 24.7021 43.5503 25.6521ZM68.3603 12.0021C67.9503 11.0021 68.2803 9.79212 68.8303 9.24212C67.9803 9.42212 67.6203 10.9621 68.3603 12.0021ZM66.3503 29.5421C65.2603 28.6921 65.0803 26.0921 66.0303 25.0621C64.6103 25.6721 64.7303 29.0921 66.3503 29.5421ZM66.2803 23.0621C65.3403 21.8421 65.8703 19.7121 66.7803 18.7321C65.4103 19.5721 64.8703 22.1521 66.2803 23.0621ZM67.4403 17.0021C66.7903 15.5221 67.4803 13.5921 68.1003 12.8921C66.9003 13.4121 66.1703 15.7821 67.4403 17.0021Z" fill="#FAB888"/>
</svg>
