<?xml version="1.0" encoding="utf-8"?>
<!-- Generator: Adobe Illustrator 24.1.2, SVG Export Plug-In . SVG Version: 6.00 Build 0)  -->
<svg version="1.1" xmlns="http://www.w3.org/2000/svg" xmlns:xlink="http://www.w3.org/1999/xlink" x="0px" y="0px"
	 viewBox="0 0 3710 3710" style="enable-background:new 0 0 3710 3710;" xml:space="preserve">
<style type="text/css">
	.st0{opacity:0.3;fill:url(#SVGID_1_);}
	.st1{fill:url(#SVGID_2_);}
	.st2{opacity:0.5;fill:#FFFFFF;}
	.st3{fill:url(#SVGID_3_);}
	.st4{fill:url(#SVGID_4_);}
	.st5{opacity:0.45;fill:#FFFFFF;}
	.st6{fill:url(#SVGID_5_);}
	.st7{opacity:0.43;fill:url(#SVGID_6_);}
	.st8{fill:url(#SVGID_7_);}
	.st9{opacity:0.33;fill:#FFFFFF;}
	.st10{fill:#FFFFFF;}
	.st11{fill:url(#SVGID_8_);}
	.st12{fill:#77160C;}
	.st13{fill:#630E0A;}
	.st14{opacity:0.2;}
	.st15{opacity:0.1;}
	.st16{fill:#D44613;}
	.st17{opacity:0.3;}
	.st18{opacity:0.07;}
	.st19{opacity:0.15;}
	.st20{fill:#C1380E;}
	.st21{fill:#FCE0D9;}
	.st22{fill:#4D0F05;}
	.st23{fill:#BF340A;}
	.st24{fill:#EFC3BD;}
	.st25{opacity:0.5;}
	.st26{fill:#ECECEC;}
	.st27{fill:url(#SVGID_9_);}
	.st28{fill:url(#SVGID_10_);}
	.st29{fill:url(#SVGID_11_);}
	.st30{fill:url(#SVGID_12_);}
	.st31{fill:url(#SVGID_13_);}
	.st32{fill:url(#SVGID_14_);}
</style>
<g id="Background">
</g>
<g id="Illustration">
	<g>
		<linearGradient id="SVGID_1_" gradientUnits="userSpaceOnUse" x1="3204.6489" y1="4031.2349" x2="722.4891" y2="948.548">
			<stop  offset="0" style="stop-color:#B37CFF"/>
			<stop  offset="1" style="stop-color:#F895E7"/>
		</linearGradient>
		<path class="st0" d="M2521.79,2815.53c-57.01,60.02-110.96,98.73-153.58,129.31c-501.01,359.48-1093.84,254.69-1219.84,229.1
			c-186.05-37.79-545.69-110.83-805.7-416.6c-393.37-462.6-332.12-1191.41-26.99-1672.51c55.81-88,350.63-576.43,949.85-654.76
			c362.64-47.4,785.36,48.2,1091.48,304.67C2999.59,1273.11,2953.84,2360.68,2521.79,2815.53z"/>
		<g>
			<g>
				
					<linearGradient id="SVGID_2_" gradientUnits="userSpaceOnUse" x1="3293.0247" y1="2783.158" x2="3996.6199" y2="1427.8121" gradientTransform="matrix(0.6578 -0.2772 0.1622 0.9602 -347.7994 211.9609)">
					<stop  offset="0" style="stop-color:#B37CFF"/>
					<stop  offset="1" style="stop-color:#F895E7"/>
				</linearGradient>
				<path class="st1" d="M2021.45,2029.99c0,0,66.18-993.04,408.81-1593.84c23.03-40.39,76.18-36.77,93.63,6.51
					C2640.56,732.09,2912.16,1625.85,2021.45,2029.99z"/>
				<path class="st2" d="M2097.21,1952.18c-1.75,2.68,1.5,5.75,3.55,3.36c75.5-88.17,356.78-504.13,379.97-1229.59
					c0.07-2.33-2.99-2.62-3.24-0.31C2458.88,896.36,2373.62,1529.03,2097.21,1952.18z"/>
			</g>
			<g>
				
					<linearGradient id="SVGID_3_" gradientUnits="userSpaceOnUse" x1="1351.4115" y1="2338.1631" x2="1085.1833" y2="2762.1563" gradientTransform="matrix(0.9081 -0.4187 0.4187 0.9081 332.3942 -602.8023)">
					<stop  offset="0" style="stop-color:#A737D5"/>
					<stop  offset="1" style="stop-color:#EF497A"/>
				</linearGradient>
				<path class="st3" d="M2005.39,2284.8c0,0,228.16-918,685.48-1415.17c30.74-33.42,86.25-19.8,97.76,24.13
					C2865.58,1187.48,3009.65,2077.45,2005.39,2284.8z"/>
				<path class="st2" d="M2097.73,2226.46c-2.27,2.17,0.67,5.68,3.21,3.83c93.72-68.11,456.84-403.84,596.98-1079.32
					c0.45-2.17-2.74-3.03-3.37-0.91C2647.69,1306.48,2456.86,1883.05,2097.73,2226.46z"/>
			</g>
		</g>
		<g>
			<g>
				
					<linearGradient id="SVGID_4_" gradientUnits="userSpaceOnUse" x1="4407.8003" y1="8141.7544" x2="4903.605" y2="8141.7544" gradientTransform="matrix(-0.793 0.6093 0.4871 0.634 104.0129 -5741.3726)">
					<stop  offset="0" style="stop-color:#B37CFF"/>
					<stop  offset="1" style="stop-color:#F895E7"/>
				</linearGradient>
				<path class="st4" d="M821.82,2890.16c0,0,49.87-214.41-116.77-437.31c-154.61-206.82-542.06-686.07-593.1-947.02
					c-2.26-11.56-20.54-8.66-23.85,3.82c-35.43,133.79-97.14,469.85,55.77,809.74C341.08,2757.69,821.82,2890.16,821.82,2890.16z"/>
				<path class="st5" d="M131.19,1747.51c-3.74,27.03-3.86,54.46-2.39,81.71c1.19,27.32,4.71,54.47,9.1,81.5
					c9.37,53.98,25.28,106.77,45.72,157.65c39.79,102.46,102.82,194.68,171.48,278.96c17.06,21.24,34.43,42.24,51.81,63.23
					c17.57,20.82,35.21,41.59,53.21,62.02c17.84,20.59,36.02,40.85,54.13,61.17l55.15,60.16c36.82,40.01,73.66,79.93,108.83,121.08
					c17.75,20.46,34.41,41.72,50.14,63.65c7.32,11.28,15.22,22.28,21.55,34.15c7.16,11.46,12.44,23.81,18.23,36.01l0.07,0.16
					c0.61,1.29,2.15,1.84,3.44,1.23c1.21-0.58,1.77-1.99,1.32-3.22c-9.46-25.81-22.35-50.22-37.04-73.38
					c-15.06-22.88-31.11-45.11-48.16-66.42c-33.99-42.77-70.38-83.3-106.15-124.24l-53.69-61.33
					c-17.84-20.47-35.78-40.84-53.33-61.53c-35.3-41.22-69.97-82.94-104-125.19c-16.69-21.33-34.19-42.26-49.79-64.13l-24.04-32.49
					c-7.6-11.11-14.73-22.54-22.12-33.8l-11-16.95c-3.84-5.55-6.74-11.65-10.21-17.41l-20.08-35.06
					c-6.31-11.89-12.04-24.08-18.09-36.11c-2.93-6.06-6.12-12.01-8.84-18.17l-7.92-18.58c-21.53-49.36-38.83-100.72-50.49-153.47
					c-2.43-13.26-5.66-26.42-7.76-39.77c-2.05-13.35-4.37-26.7-5.56-40.18c-1.66-13.44-2.41-26.97-3.06-40.5
					c-0.46-13.53-0.81-27.13,0.18-40.66c0.02-0.18-0.1-0.34-0.28-0.36C131.38,1747.21,131.22,1747.34,131.19,1747.51z"/>
			</g>
			<g>
				
					<linearGradient id="SVGID_5_" gradientUnits="userSpaceOnUse" x1="-958.0369" y1="513.6724" x2="-2595.7676" y2="2583.1702" gradientTransform="matrix(-0.9024 -0.431 -0.431 0.9024 -262.2111 -29.1307)">
					<stop  offset="0" style="stop-color:#A737D5"/>
					<stop  offset="1" style="stop-color:#EF497A"/>
				</linearGradient>
				<path class="st6" d="M249.6,680.55c3.59-17.43,28.22-18.46,33.18-1.37c47.98,165.24,187.35,594.59,397.88,821.19
					c342.8,368.96,574.16,971.02,359.56,1285.88C1040.22,2786.24-141.82,2579.78,249.6,680.55z"/>
				
					<linearGradient id="SVGID_6_" gradientUnits="userSpaceOnUse" x1="240.8982" y1="1952.6689" x2="765.53" y2="1952.6689" gradientTransform="matrix(0.996 -0.089 0.089 0.996 -51.161 -144.3962)">
					<stop  offset="0" style="stop-color:#A737D5"/>
					<stop  offset="1" style="stop-color:#EF497A"/>
				</linearGradient>
				<path class="st7" d="M285.5,916.63c0.49,5.17,1.34,9.68,2.04,14.44l2.38,14.08l5.07,28.08c3.49,18.7,7.17,37.36,10.91,56
					c7.58,37.27,15.63,74.45,24.01,111.55c16.88,74.18,35.69,147.91,55.65,221.32c19.89,73.44,41.69,146.36,64.98,218.8l8.69,27.18
					l9.04,27.07c6.11,18.02,11.88,36.15,18.29,54.06l18.86,53.87l19.67,53.59c53.2,142.61,113.89,282.57,184.28,417.64
					c4.28,8.5,8.84,16.86,13.45,25.19l13.73,25.04l13.73,25.03c4.68,8.29,9.58,16.45,14.36,24.68
					c9.71,16.38,19.03,32.98,29.05,49.17l30.34,48.39c41.66,63.74,86.12,125.68,134.71,184.29c0.68,0.82,1.89,0.93,2.71,0.25
					c0.81-0.67,0.93-1.86,0.29-2.67l-0.02-0.02c-47-59.66-90.52-121.93-130.96-186.14l-29.73-48.53
					c-9.82-16.23-18.94-32.88-28.44-49.3c-4.68-8.25-9.48-16.43-14.05-24.74l-13.43-25.09l-13.43-25.09
					c-4.51-8.34-8.96-16.72-13.14-25.24l-25.66-50.8c-8.45-16.99-16.43-34.21-24.67-51.3c-4.06-8.57-8.24-17.09-12.21-25.71
					l-11.71-25.94l-11.71-25.94c-3.94-8.63-7.81-17.29-11.47-26.05c-30.45-69.54-58.14-140.25-85.13-211.2
					c-53.44-142.15-99.57-286.99-141.11-433.09c-20.65-73.09-39.86-146.6-57.7-220.44c-8.96-36.91-17.59-73.91-25.75-111
					c-4.03-18.56-8-37.13-11.78-55.74l-5.51-27.94l-2.6-13.99c-0.78-4.63-1.69-9.46-2.21-13.74l-0.05-0.42
					c-0.13-1.05-1.08-1.8-2.13-1.67C286.14,914.68,285.4,915.61,285.5,916.63z"/>
			</g>
		</g>
		<g>
			<g>
				<g>
					<linearGradient id="SVGID_7_" gradientUnits="userSpaceOnUse" x1="2466.9033" y1="1160.7831" x2="-1478.2587" y2="3112.6001">
						<stop  offset="0" style="stop-color:#FDF53F"/>
						<stop  offset="1" style="stop-color:#D93C65"/>
					</linearGradient>
					<path class="st8" d="M2289.78,2824.88H393.56c-19.75,0-35.75-16.01-35.75-35.75V645.83c0-19.75,16.01-35.75,35.75-35.75
						h1896.21c19.75,0,35.75,16.01,35.75,35.75v2143.29C2325.53,2808.87,2309.52,2824.88,2289.78,2824.88z"/>
					<path class="st9" d="M2228.73,2760.11H453.39c-19.75,0-35.75-16.01-35.75-35.75V717.11c0-19.75,16.01-35.75,35.75-35.75
						h1775.34c19.75,0,35.75,16.01,35.75,35.75v2007.25C2264.49,2744.1,2248.48,2760.11,2228.73,2760.11z"/>
				</g>
				<g>
					<path class="st10" d="M2102.47,2666.65H579.81c-22.6,0-40.98-18.39-40.98-40.98V807.11c0-22.6,18.39-40.98,40.98-40.98h1522.65
						c22.6,0,40.98,18.39,40.98,40.98v1818.55C2143.45,2648.26,2125.07,2666.65,2102.47,2666.65z M579.81,783.06
						c-13.26,0-24.05,10.79-24.05,24.05v1818.55c0,13.26,10.79,24.05,24.05,24.05h1522.65c13.26,0,24.05-10.79,24.05-24.05V807.11
						c0-13.26-10.79-24.05-24.05-24.05H579.81z"/>
					<rect x="547.94" y="1141.55" class="st10" width="1588.49" height="10.16"/>
					<rect x="544.55" y="962.04" class="st10" width="1585.1" height="10.16"/>
					<rect x="547.94" y="1524.28" class="st10" width="1588.49" height="10.16"/>
					<rect x="541.16" y="1324.44" class="st10" width="1585.1" height="10.16"/>
					<rect x="547.94" y="1893.45" class="st10" width="1581.72" height="10.16"/>
					<rect x="547.94" y="1717.33" class="st10" width="1581.72" height="10.16"/>
					<rect x="547.94" y="2272.8" class="st10" width="1581.72" height="10.16"/>
					<rect x="544.55" y="2455.69" class="st10" width="1578.33" height="10.16"/>
					<rect x="551.32" y="2086.51" class="st10" width="1581.72" height="10.16"/>
					<rect x="744.38" y="772.37" class="st10" width="10.16" height="1886.54"/>
					<rect x="940.82" y="768.98" class="st10" width="10.16" height="1886.54"/>
					<rect x="1137.27" y="779.14" class="st10" width="10.16" height="1886.54"/>
					<rect x="1330.33" y="775.75" class="st10" width="10.16" height="1886.54"/>
					<rect x="1526.77" y="779.14" class="st10" width="10.16" height="1886.54"/>
					<rect x="1726.6" y="775.75" class="st10" width="10.16" height="1886.54"/>
					<rect x="1919.66" y="779.14" class="st10" width="10.16" height="1886.54"/>
					<rect x="745.67" y="1338.68" class="st10" width="203.47" height="182.31"/>
					<rect x="745.67" y="964.49" class="st10" width="203.47" height="182.31"/>
					<rect x="937.75" y="1146.8" class="st10" width="203.47" height="182.31"/>
					<rect x="1334.92" y="1719.77" class="st10" width="203.47" height="182.31"/>
					<rect x="1134.71" y="1902.08" class="st10" width="203.47" height="188.82"/>
					<rect x="1535.14" y="1530.95" class="st10" width="203.47" height="188.82"/>
					<rect x="1925.8" y="1327.48" class="st10" width="203.47" height="203.47"/>
					<rect x="1334.92" y="770.27" class="st10" width="203.47" height="203.47"/>
					<rect x="1722.7" y="964.49" class="st10" width="203.47" height="182.31"/>
					<rect x="937.75" y="2092.53" class="st10" width="203.47" height="188.82"/>
					<rect x="544.89" y="2091.99" class="st10" width="203.47" height="188.82"/>
					<rect x="1730.47" y="2460.4" class="st10" width="195.33" height="195.33"/>
					<rect x="1929.87" y="1899.73" class="st10" width="205.91" height="195.33"/>
					<rect x="1535.14" y="2279.72" class="st10" width="195.33" height="177.43"/>
				</g>
			</g>
			<g>
				<g>
					<linearGradient id="SVGID_8_" gradientUnits="userSpaceOnUse" x1="2027.1317" y1="920.5771" x2="222.7915" y2="5285.4932">
						<stop  offset="0" style="stop-color:#53D8FF"/>
						<stop  offset="1" style="stop-color:#3840F7"/>
					</linearGradient>
					<path class="st11" d="M2552.62,3071.98H644.2c-19.75,0-35.75-16.01-35.75-35.75V879.19c0-19.75,16.01-35.75,35.75-35.75
						h1908.42c19.75,0,35.75,16.01,35.75,35.75v2157.04C2588.38,3055.97,2572.37,3071.98,2552.62,3071.98z"/>
					<path class="st9" d="M2491.2,3006.81H704.4c-19.75,0-35.75-16.01-35.75-35.75V950.91c0-19.75,16.01-35.75,35.75-35.75h1786.8
						c19.75,0,35.75,16.01,35.75,35.75v2020.14C2526.95,2990.8,2510.94,3006.81,2491.2,3006.81z"/>
				</g>
				<g>
					<path class="st10" d="M2364.13,2912.72H831.62c-22.6,0-40.98-18.39-40.98-40.98V1041.49c0-22.6,18.38-40.98,40.98-40.98
						h1532.51c22.6,0,40.98,18.39,40.98,40.98v1830.24C2405.11,2894.33,2386.73,2912.72,2364.13,2912.72z M831.62,1017.44
						c-13.26,0-24.05,10.79-24.05,24.05v1830.24c0,13.26,10.79,24.05,24.05,24.05h1532.51c13.26,0,24.05-10.79,24.05-24.05V1041.49
						c0-13.26-10.79-24.05-24.05-24.05H831.62z"/>
					<rect x="798.57" y="1378.64" class="st10" width="1598.65" height="10.16"/>
					<rect x="795.18" y="1199.13" class="st10" width="1595.26" height="10.16"/>
					<rect x="798.57" y="1764.75" class="st10" width="1598.65" height="10.16"/>
					<rect x="791.8" y="1561.53" class="st10" width="1595.26" height="10.16"/>
					<rect x="798.57" y="2133.93" class="st10" width="1591.88" height="10.16"/>
					<rect x="798.57" y="1957.81" class="st10" width="1591.88" height="10.16"/>
					<rect x="798.57" y="2516.66" class="st10" width="1591.88" height="10.16"/>
					<rect x="795.18" y="2702.94" class="st10" width="1588.49" height="10.16"/>
					<rect x="801.96" y="2326.99" class="st10" width="1591.88" height="10.16"/>
					<rect x="998.4" y="1009.46" class="st10" width="10.16" height="1893.32"/>
					<rect x="1194.85" y="1006.07" class="st10" width="10.16" height="1896.7"/>
					<rect x="1394.68" y="1012.84" class="st10" width="10.16" height="1896.7"/>
					<rect x="1587.74" y="1009.46" class="st10" width="10.16" height="1896.7"/>
					<rect x="1787.57" y="1012.84" class="st10" width="10.16" height="1896.7"/>
					<rect x="1987.4" y="1009.46" class="st10" width="10.16" height="1896.7"/>
					<rect x="2180.46" y="1012.84" class="st10" width="10.16" height="1896.7"/>
					<rect x="798.9" y="1383.49" class="st10" width="204.73" height="183.44"/>
					<rect x="998.72" y="1200.05" class="st10" width="204.73" height="183.44"/>
					<rect x="1191.98" y="1383.49" class="st10" width="204.73" height="183.44"/>
					<rect x="1591.62" y="1960.01" class="st10" width="204.73" height="183.44"/>
					<rect x="1390.16" y="2143.45" class="st10" width="204.73" height="189.99"/>
					<rect x="1793.08" y="1770.02" class="st10" width="204.73" height="189.99"/>
					<rect x="2186.16" y="1565.29" class="st10" width="204.73" height="204.73"/>
					<rect x="1789.8" y="1200.05" class="st10" width="204.73" height="183.44"/>
					<rect x="1981.81" y="1200.05" class="st10" width="204.73" height="183.44"/>
					<rect x="1191.98" y="2335.08" class="st10" width="204.73" height="189.99"/>
					<rect x="806.38" y="2335.08" class="st10" width="204.73" height="189.99"/>
					<rect x="1989.62" y="2705.24" class="st10" width="196.54" height="196.54"/>
					<rect x="2190.26" y="2141.09" class="st10" width="207.19" height="196.54"/>
					<rect x="1793.08" y="2523.44" class="st10" width="196.54" height="178.53"/>
				</g>
			</g>
		</g>
		<g>
			<g>
				<g>
					<g>
						<path class="st12" d="M2132.89,2296.95c-76.69,96.57-165.17,183.76-262.85,259.01c-7.65,5.89-15.98,12.75-17.16,22.33
							c-1.18,9.58,10.73,19.7,18,13.34c-8.14,1.51-10.48,13.9-7.51,21.63c2.97,7.73,13.57,11.31,20.62,6.98
							c-9.27,3.51-4.79,19.49,3.46,25c8.25,5.51,19.12,4.24,28.88,2.51c168.27-29.73,321.65-135.26,409.55-281.8
							C2260.22,2342.95,2198.54,2319.95,2132.89,2296.95z"/>
					</g>
					<g>
						<path class="st13" d="M2088.95,2413.39c2.35-6.24-6.59-10.38-10.32-5.11c-10.24,14.46-20.64,26.34-34.84,37.06
							c-6.39,4.82,0.83,16.26,7.76,11.92C2067.91,2447.02,2082.09,2431.64,2088.95,2413.39z"/>
					</g>
					<g>
						<path class="st13" d="M2148.43,2411.67c-12.03,10.64-22.5,23.38-33.13,35.39c-6.42,7.26,6.18,15.74,12.54,8.48
							c10.13-11.58,20.92-23.11,29.58-35.85C2161.22,2414.08,2153.62,2407.08,2148.43,2411.67z"/>
					</g>
					<g>
						<path class="st13" d="M2068.31,2479.46c-15.24,13.21-31.55,24.49-49.45,33.81c-8.75,4.55-2.2,18.29,6.63,13.83
							c19.16-9.68,36.57-21.98,51.79-37.14C2083.51,2483.76,2075.11,2473.58,2068.31,2479.46z"/>
					</g>
					<g class="st14">
						<path d="M1976.81,2507.38c84.59-64.89,203.36-104.75,310.15-84.67c14.06-18.13,27.1-37.06,38.91-56.76
							c-65.65-23-127.33-46.01-192.99-69.01c-76.68,96.57-165.17,183.76-262.85,259.01c-7.65,5.89-15.98,12.75-17.16,22.33
							c-0.99,8.01,7.16,16.35,14.11,15.18c1.11-0.91,2.4-1.56,3.89-1.84c-1.2,1.05-2.52,1.61-3.89,1.84
							c-4.92,4.06-6.04,13.48-3.61,19.79c2.75,7.17,12.07,10.76,19.03,7.79c0.48-0.31,1.01-0.59,1.59-0.81
							c-0.58,0.22-1.11,0.49-1.59,0.81c-7.1,4.68-2.68,19.03,5.05,24.19c8.25,5.51,19.12,4.24,28.88,2.51
							c0.17-0.03,0.33-0.07,0.5-0.1C1917.54,2594.18,1931.04,2539.87,1976.81,2507.38z"/>
					</g>
					<g class="st15">
						<path d="M2040.29,2529.8c56.91-53.81,149.09-97.23,228.54-84.86c6.22-7.26,12.27-14.67,18.13-22.22
							c-106.79-20.08-225.56,19.78-310.15,84.67c-45.77,32.49-59.27,86.79-59.99,140.27c28.88-5.13,57.3-12.52,85.04-21.94
							C2000.88,2590.57,2011.65,2556.45,2040.29,2529.8z"/>
					</g>
				</g>
				<g>
					<g>
						<path class="st16" d="M3619.45,2223.96c9.54,17.52,17.5,35.72,23.97,54.4l0.02,0.02c17.01,49.05,23.64,101.5,20.92,153.93
							c-3.4,67.03-22.06,134.01-53.91,193.72l-0.02,0.02c-5.97,11.28-12.42,22.3-19.34,32.99c-24.99,38.7-55.24,73.49-89.37,104.16
							c-60.62,54.47-133.53,95.92-211.1,123.07c-24.12,8.46-48.69,15.51-73.49,21.16c-4.36,0.99-8.72,1.94-13.07,2.85
							c-62.27,12.93-125.75,17.66-189.22,15.74c-27.42-0.81-54.85-2.88-82.18-6.07c-57.12-6.66-113.78-18.16-169.02-33.37
							c-39.99-73.28-85.74-164.92-121.48-240.41c61.33,6.25,123.87-1.8,182.32-22.03c31.17-10.77,61.18-24.99,89.22-42.32
							c34.56-21.41,66.16-47.56,93.26-77.86c2.69-2.99,5.35-6.03,7.94-9.12c22.09-26.25,40.91-54.89,58.17-84.53
							c15.81-27.02,30.35-54.87,45.03-82.49c1.83-3.41,3.64-6.84,5.47-10.25c14.91-27.81,30.34-55.53,47.6-81.93
							c16.5-25.25,34.71-49.25,55.7-70.98c1.64-1.71,3.32-3.41,5.02-5.1l0.02-0.02c28.65-28.41,62.97-52.21,100.38-66.29
							c21.41-8.06,43.81-12.92,66.76-13.65C3492.01,2076.68,3575.35,2142.88,3619.45,2223.96z"/>
					</g>
					<g>
						<path class="st12" d="M2913.7,2581.81c60.26,104.16,94.45,223.62,101.14,344.21c-27.42-0.81-54.85-2.88-82.18-6.07
							c-10.05-105.62-47.63-208.71-108.18-295.82C2855.65,2613.36,2885.66,2599.14,2913.7,2581.81z"/>
					</g>
					<g>
						<path class="st12" d="M3290.61,2886.27c-24.12,8.46-48.69,15.51-73.49,21.16c-4.36,0.99-8.72,1.94-13.07,2.85
							c-18.65-152.02-89.15-297.7-197.1-406.34c2.69-2.99,5.35-6.03,7.94-9.12c22.09-26.25,40.91-54.89,58.17-84.53
							C3197.9,2534.59,3275.14,2709.34,3290.61,2886.27z"/>
					</g>
					<g>
						<path class="st12" d="M3610.45,2626.04l-0.02,0.02c-5.97,11.28-12.42,22.3-19.34,32.99c-24.99,38.7-55.24,73.49-89.37,104.16
							c-31.42-96.16-81.74-186.16-147.59-263.01c-64.21-74.89-143.03-137.15-230.55-182.64c14.91-27.81,30.34-55.53,47.6-81.93
							c101.95,29.17,197.74,81.04,274.86,152.99C3516.95,2454.8,3573.17,2536.51,3610.45,2626.04z"/>
					</g>
					<g>
						<path class="st12" d="M3643.42,2278.36l0.02,0.02c17.01,49.05,23.64,101.5,20.92,153.93
							c-49.85-58.55-107.5-110.43-171.1-153.63c-79.58-54.01-168.4-94.38-261.34-119.15c28.65-28.41,62.97-52.21,100.38-66.29
							c73.3,25.53,143.22,61.38,208.91,105.13C3577.26,2222.38,3611.44,2249.16,3643.42,2278.36z"/>
					</g>
					<g class="st14">
						<path d="M3139.12,2651.77c-79.89-4.28-155.56-30.82-219.7-73.65c-1.91,1.22-3.79,2.49-5.72,3.68
							c-28.04,17.34-58.05,31.55-89.22,42.32c-15.08,5.22-30.43,9.61-45.96,13.17c99.03,88,221.23,143.58,368.29,132.35
							c141.84-11.49,271.35-54.18,392.32-127.44c36.84-22.04,69.83-48.46,98.74-78.28c15.17-42.44,24.22-87.01,26.49-131.62
							c2.72-52.43-3.91-104.88-20.92-153.93l-0.02-0.02c-1.19-3.44-2.45-6.85-3.74-10.25
							C3571.95,2485.53,3377.43,2664.1,3139.12,2651.77z"/>
					</g>
					<g class="st15">
						<path d="M3453.93,2085.88c36.78,58.56,56.65,126.91,50.78,200.8c-10.9,124.52-107.9,217.3-225.75,248.31
							c-91.35,22.98-184.33,3.11-259.56-45.68c-1.5,1.84-2.97,3.69-4.5,5.51c-2.59,3.09-5.25,6.13-7.94,9.12
							c-25.58,28.61-55.22,53.47-87.54,74.18c64.14,42.82,139.81,69.37,219.7,73.65c238.31,12.33,432.83-166.24,500.56-383.65
							c-5.73-15.1-12.45-29.86-20.23-44.16C3584.25,2159.25,3524.05,2104.07,3453.93,2085.88z"/>
					</g>
					<g class="st17">
						<path d="M3539.12,2642.21c-120.97,73.26-250.48,115.94-392.32,127.44c-147.06,11.23-269.26-44.35-368.29-132.35
							c-44.68,10.24-90.85,13.5-136.36,8.86c35.74,75.5,81.49,167.13,121.48,240.41c55.24,15.21,111.9,26.71,169.02,33.37
							c27.32,3.18,54.75,5.26,82.18,6.07c63.47,1.92,126.95-2.8,189.22-15.74c4.35-0.91,8.7-1.86,13.07-2.85
							c24.8-5.65,49.37-12.7,73.49-21.16c77.57-27.15,150.48-68.6,211.1-123.07c34.13-30.67,64.38-65.47,89.37-104.16
							c6.92-10.69,13.37-21.71,19.34-32.99l0.02-0.02c10.65-19.97,19.79-40.77,27.42-62.1
							C3608.96,2593.75,3575.96,2620.18,3539.12,2642.21z"/>
					</g>
					<g class="st14">
						<path class="st10" d="M3299.73,2160.07c-34.8,31.49-60.03,72.03-82.85,113.04c-22.82,41.01-43.86,83.31-72.21,120.71
							c-6.99,9.22-14.77,19.08-14.9,30.66c-0.17,14.74,13.16,27.18,27.66,29.84c14.5,2.65,29.41-2.57,42.05-10.16
							c28.27-16.99,47.92-45.14,64.16-73.85c16.25-28.71,30.15-59.06,50.93-84.67c32.85-40.47,80.52-66.24,116.25-104.19
							c21.62-22.96,34.49-77.13-13.25-73.95C3373.95,2110.4,3331.78,2131.08,3299.73,2160.07z"/>
					</g>
				</g>
				<g>
					<g>
						<path class="st12" d="M2755.37,2694.35c1.56,6.47,3.1,12.97,4.57,19.46c15.05,66.25,25.87,133.4,25.4,201.17
							c-0.65,93.3-24.18,188.82-81.16,262.71c-7.65,9.92-16.13,19.61-27.13,25.55c-11.01,5.94-25.22,6.04-35.98-0.37
							c-2.49,7.4-9.22,13.19-16.89,14.52c-7.67,1.36-15.28-3.21-20.12-9.33c-0.17,8.27-9.22,14.45-17.46,13.46
							c-8.21-0.97-14.98-7.4-18.66-14.8c-3.67-7.43-4.84-15.79-6.05-23.99c-8.29-55.9-21.19-110.92-35.48-165.64
							c-6.02-23.19-12.32-46.29-18.58-69.4c63.82-86.4,128.22-168.58,192.01-255c11.33-15.36,23.76-33.62,36.93-48.22
							C2744.43,2660.59,2750.74,2677.3,2755.37,2694.35z"/>
					</g>
					<g>
						<path class="st13" d="M2683.07,3114.81c-4.45,8.22-8.73,16.52-13.01,24.83c-3.57,6.95-9.29,15.14-8.71,23.21
							c0.26,3.59,4.06,5.22,7.02,3.51c6.99-4.02,10.61-13.55,14.36-20.38c4.51-8.19,9-16.39,13.34-24.67
							C2700.43,3113,2687.52,3106.59,2683.07,3114.81z"/>
					</g>
					<g>
						<path class="st13" d="M2706.44,3028c-2.89,16.63-6.41,33.13-9.3,49.76c-1.11,6.37,8.62,10.49,11.19,3.9
							c6.37-16.34,10.23-33.24,12.6-50.61C2722.2,3021.69,2708.08,3018.53,2706.44,3028z"/>
					</g>
					<g>
						<path class="st13" d="M2656.61,3058.57c-0.66,9.43-1.99,18.79-3.99,28.02c-1.77,8.15-5.01,16.13-5.36,24.49
							c-0.2,4.71,6.26,6.27,9.06,3.14c12.38-13.81,14.69-38.73,15.21-56.45C2671.81,3048.03,2657.26,3049.21,2656.61,3058.57z"/>
					</g>
					<g class="st18">
						<path d="M2754.84,3086.44c-48.68-57.94-145.22-72.63-225.35-57.4c3.58,13.92,7.03,27.87,10.35,41.85
							c70.09-13.84,145.31,8.71,182.41,79.56c0.12,0.25,0.21,0.51,0.33,0.76C2735.43,3130.75,2746.16,3109.04,2754.84,3086.44z"/>
					</g>
					<g class="st19">
						<path d="M2736.76,2644.48c-13.17,14.6-25.6,32.86-36.93,48.22c-63.79,86.42-128.18,168.6-192.01,255
							c6.27,23.11,12.56,46.21,18.58,69.4c1.04,3.98,2.05,7.96,3.07,11.94c80.14-15.23,176.68-0.55,225.35,57.4
							c20.79-54.15,30.11-113.23,30.51-171.45c0.47-67.78-10.35-134.93-25.4-201.17c-1.48-6.49-3.02-13-4.57-19.46
							C2750.74,2677.3,2744.43,2660.59,2736.76,2644.48z"/>
					</g>
				</g>
				<g>
					<g>
						<path class="st12" d="M2436.48,2821.74c-3.46,5.68-6.97,11.37-10.51,17.01c-36.13,57.53-75.89,112.71-124.09,160.37
							c-66.36,65.6-150.47,116.61-242.99,128.67c-12.43,1.62-25.27,2.5-37.25-1.07c-11.99-3.57-22.12-13.53-25.21-25.67
							c-6.99,3.48-15.84,2.83-22.22-1.65c-6.39-4.45-8.55-13.06-7.66-20.82c-5.96,5.73-16.73,3.72-21.87-2.8
							c-5.12-6.48-5.38-15.82-2.76-23.66c2.65-7.86,7.72-14.6,12.66-21.26c33.61-45.43,63.34-93.5,91.86-142.32
							c12.11-20.67,23.97-41.47,35.86-62.26c106.21-16.1,209.83-28.8,316.03-44.94c18.87-2.87,40.56-7.02,60.2-8.06
							C2452.57,2790.1,2445.24,2806.39,2436.48,2821.74z"/>
					</g>
					<g>
						<path class="st13" d="M2088.35,3068.35c-8.96,2.68-17.85,5.53-26.75,8.39c-7.43,2.39-17.27,4.16-22.56,10.28
							c-2.36,2.73-0.81,6.56,2.49,7.45c7.79,2.09,17.08-2.11,24.56-4.29c8.98-2.62,17.94-5.25,26.87-8.04
							C2101.92,3079.33,2097.3,3065.67,2088.35,3068.35z"/>
					</g>
					<g>
						<path class="st13" d="M2166.2,3023.39c-13.79,9.73-27.94,18.93-41.73,28.66c-5.29,3.73-1.31,13.52,5.17,10.67
							c16.05-7.07,30.72-16.31,44.66-26.93C2181.82,3030.06,2174.05,3017.85,2166.2,3023.39z"/>
					</g>
					<g>
						<path class="st13" d="M2109.33,3009.84c-7.12,6.21-14.68,11.9-22.62,17.02c-7.01,4.52-14.94,7.88-21.1,13.55
							c-3.47,3.19,0,8.86,4.2,8.63c18.52-1.03,37.76-17.05,50.63-29.22C2127.54,3013.12,2116.4,3003.68,2109.33,3009.84z"/>
					</g>
					<g class="st18">
						<path d="M2159.2,3098.95c6.46-75.4-51.52-153.98-119.01-199.79c-7.3,12.38-14.7,24.7-22.23,36.94
							c59.4,39.7,96.72,108.79,72.95,185.15c-0.09,0.26-0.21,0.51-0.3,0.77C2114.16,3116.62,2137.09,3108.82,2159.2,3098.95z"/>
					</g>
					<g class="st19">
						<path d="M2458.52,2773.29c-19.63,1.03-41.33,5.19-60.2,8.06c-106.19,16.14-209.82,28.84-316.03,44.94
							c-11.88,20.79-23.74,41.58-35.86,62.26c-2.07,3.55-4.17,7.08-6.26,10.62c67.49,45.81,125.47,124.39,119.01,199.79
							c52.96-23.66,101.28-58.9,142.69-99.83c48.2-47.65,87.96-102.83,124.09-160.37c3.54-5.64,7.04-11.33,10.51-17.01
							C2445.24,2806.39,2452.57,2790.1,2458.52,2773.29z"/>
					</g>
				</g>
				<g>
					<path class="st16" d="M2888.35,2747.7c-0.34,6.68-0.99,13.31-1.81,19.91c-4.84,36.59-17.42,71.46-39.77,100.89
						c-22.83,30.11-53.11,51.58-87.15,67.35c-46.82,21.7-100.72,32.6-152.16,40.3c-12.75,1.9-25.55,3.71-38.35,5.38
						c-63.39,8.33-127.54,13.48-191.13,11.92c-48.52-1.16-96.7-6.23-143.94-16.8c-10-2.24-19.97-4.73-29.88-7.48
						c-44.35-12.26-89.42-31.21-117.74-67.5c-33.45-42.85-37.33-101.43-34.89-155.75c7.28-164.65,58.83-323.69,109.92-480.37
						c9.6-2.49,19.2-4.87,28.78-7.14c161.36-38.44,316.04-47.53,483.57-45.01c11.64,78.4,51.63,149.44,93.19,216.93
						c41.55,67.5,86.02,134.77,108.37,210.79c5.1,17.31,8.86,35.24,11.1,53.36C2888.64,2712.21,2889.34,2730.05,2888.35,2747.7z"/>
				</g>
				<g class="st14">
					<path d="M2519.88,2710.82c1.01-0.96,1.79-2.17,2.2-3.7C2520.99,2708.18,2520.28,2709.45,2519.88,2710.82z"/>
				</g>
				<g class="st14">
					<path d="M2548.09,2725.03c0.32-0.5,0.62-1.01,0.87-1.56C2548.6,2723.98,2548.31,2724.5,2548.09,2725.03z"/>
				</g>
				<g>
					<path class="st12" d="M2422.51,2896.28c-5.61,38.83-16.8,69.54-31.53,93.92c-4.3,1.19-8.64,2.27-13,3.26
						c-48.52-1.16-96.7-6.23-143.94-16.8c-10-2.24-19.97-4.73-29.88-7.48c-44.35-12.26-89.42-31.21-117.74-67.5
						c-33.45-42.85-37.33-101.43-34.89-155.75c7.28-164.65,58.83-323.69,109.92-480.37c9.6-2.49,19.2-4.87,28.78-7.14
						c28.49,6.15,55,17.56,72.85,37.64c33.31,37.5,54.66,83.9,74.04,130.15c20.9,49.96,40.08,100.63,58.03,151.67
						C2426.3,2666.38,2435.93,2803.35,2422.51,2896.28z"/>
				</g>
				<g>
					<path class="st13" d="M2094.56,2831.77c-5.65-15.14-6.11-29.49-6.79-45.4c-0.25-5.95-8.23-6.88-10.17-1.38
						c-5.67,16.12-2.67,34.97,3.58,50.46C2084.46,2843.57,2097.72,2840.24,2094.56,2831.77z"/>
				</g>
				<g>
					<path class="st13" d="M2123.94,2719.58c-0.76-4.98-7.83-4.02-9.15,0c-4.69,14.27-3.45,30.9-2.17,45.63
						c0.77,8.9,14.82,8.91,13.94,0C2125.07,2750.1,2126.23,2734.55,2123.94,2719.58z"/>
				</g>
				<g>
					<path class="st13" d="M2137.86,2894.47c-5.21-16.83-9.05-33.55-10.49-51.15c-0.58-7.13-10.96-7.31-11.22,0
						c-0.67,18.61,1.92,37.32,8.65,54.75C2127.87,2906.03,2140.49,2902.96,2137.86,2894.47z"/>
				</g>
				<g>
					<path class="st20" d="M2811.49,2755.7c2.05,16.03-0.79,30.11-3.76,45.75c-1.11,5.85,6.45,8.58,9.59,3.66
						c9.21-14.4,10.59-33.43,8.04-49.95C2824.02,2746.51,2810.34,2746.73,2811.49,2755.7z"/>
				</g>
				<g>
					<path class="st20" d="M2757.26,2858.21c-0.4,5.02,6.71,5.7,8.91,2.09c7.83-12.82,10.41-29.3,12.53-43.93
						c1.28-8.84-12.39-12.05-13.57-3.18C2763.14,2828.24,2758.45,2843.12,2757.26,2858.21z"/>
				</g>
				<g>
					<path class="st20" d="M2783.66,2684.76c1.23,17.57,1.15,34.73-1.47,52.19c-1.06,7.07,9,9.62,10.92,2.56
						c4.9-17.97,6.66-36.77,4.09-55.28C2796.02,2675.8,2783.03,2675.9,2783.66,2684.76z"/>
				</g>
				<g class="st17">
					<path d="M2766.97,2430.35c-41.55-67.5-81.54-138.53-93.19-216.93c-177.48-2.66-340.51,7.68-512.35,52.14
						c-14.98,45.94-29.99,92.07-43.92,138.49c213.44,8.87,424.93,50.24,623.54,139.93c46.16,19.78,90.46,46.32,128.65,79.61
						C2846.06,2554.69,2805.3,2492.61,2766.97,2430.35z"/>
				</g>
				<g class="st19">
					<path d="M2886.44,2694.5c-2.24-18.13-6.01-36.06-11.1-53.36c-1.73-5.9-3.65-11.74-5.64-17.54
						c-38.18-33.29-82.49-59.83-128.65-79.61c-198.61-89.69-410.1-131.06-623.54-139.93c-7.85,26.15-15.33,52.39-22.28,78.73
						c185.57-2.3,376.64,40.53,529.69,154.67c45.32,33.99,84.97,93.47,65.15,150.12c-36.82,99.13-150.12,127.46-249.25,144.45
						c-105.94,16.62-214.92,24.06-316.9,3.4c24.13,15.67,52.31,26.04,80.23,33.76c9.91,2.75,19.88,5.24,29.88,7.48
						c109.19,24.39,223.33,19.54,335.07,4.87c12.8-1.67,25.6-3.48,38.35-5.38c51.44-7.7,105.34-18.61,152.16-40.31
						c34.05-15.78,64.32-37.25,87.15-67.35c22.35-29.43,34.95-64.3,39.77-100.89c0.85-6.6,1.47-13.23,1.81-19.91
						C2889.33,2730.05,2888.62,2712.2,2886.44,2694.5z"/>
				</g>
				<g>
					<g>
						<g>
							<path class="st21" d="M2573.64,1301.67c35.66,27.24,69.51,55.87,101.62,85.86c82.99,77.28,154.85,163.55,218.54,258.39
								c15.87,23.53,31.19,47.64,46.06,72.24c-1.69-2.79,44.61-64.54,48.09-72.4c58.86-132.51,89.23-250.34,94.17-340.06
								c1.96-35.72,11.39-153.99-47.75-152.08c-79.19,2.54-164.52,26.81-239.11,51.82
								C2640.46,1257.36,2578.2,1305.16,2573.64,1301.67z"/>
						</g>
						<g>
							<path class="st22" d="M2675.26,1387.53c82.99,77.28,154.85,163.55,218.54,258.39c52.74-113.54,102.61-272.37,107.94-327.5
								c1.24-13.02,2.25-27.12-4.7-38.21c-6.73-10.74-19.8-16.23-32.47-16.84c-12.68-0.64-25.14,2.87-37.26,6.64
								C2838.46,1297.69,2755.54,1340.05,2675.26,1387.53z"/>
						</g>
						<g class="st17">
							<path d="M2573.64,1301.67c7.29,5.55,14.5,11.18,21.59,16.88c31.01-16.81,91.12-48.18,189.85-81.29
								c72.71-24.4,155.88-48.04,233.07-50.51c57.65-1.87,48.47,113.42,46.55,148.24c-4.8,87.45-34.42,202.32-91.8,331.49
								c-2.15,4.83-21.05,30.76-34.2,49.81l1.14,1.89c-1.69-2.79,44.61-64.54,48.09-72.4c58.86-132.51,89.23-250.34,94.17-340.06
								c1.96-35.72,11.39-153.99-47.75-152.08c-79.19,2.54-164.52,26.81-239.11,51.82
								C2640.46,1257.36,2578.2,1305.16,2573.64,1301.67z"/>
						</g>
						<g class="st17">
							<path d="M2675.26,1387.53c24.8-14.67,49.86-28.84,75.26-42.25c36.49,45.28,81.76,75.29,146.62,58.68
								c36.6-7.8,70.08-26.73,98.69-51.32c-15.62,71.05-57.81,198.07-102.04,293.29
								C2830.11,1551.08,2758.25,1464.81,2675.26,1387.53z"/>
						</g>
					</g>
					<g>
						<g>
							<path class="st21" d="M2069.93,1518.63c21.48-22.83,43.6-44,66.36-63.6c58.67-50.68,121.58-91.15,188.84-123.8
								c16.7-8.15,33.68-15.77,50.93-22.96c-1.96,0.82-34.84-45.89-39.32-49.97c-75.6-68.87-145.55-113.1-201.08-132.7
								c-22.11-7.8-94.94-35.89-101.1,10.24c-8.26,61.77-3.67,132.11,2.71,194.26C2050.51,1459.1,2072.68,1515.72,2069.93,1518.63z"
								/>
						</g>
						<g>
							<path class="st22" d="M2136.28,1455.04c58.67-50.68,121.58-91.15,188.84-123.8c-64.49-60.8-157.67-127.33-191.51-141.15
								c-7.99-3.25-16.69-6.51-24.49-3.08c-7.55,3.33-12.62,12.48-14.57,22.18c-1.97,9.7-1.33,19.97-0.47,30.02
								C2100.35,1312.87,2116.55,1384.53,2136.28,1455.04z"/>
						</g>
						<g class="st17">
							<path d="M2069.93,1518.63c4.38-4.67,8.8-9.27,13.24-13.75c-6.66-26.96-18.83-79.03-27.27-161.3
								c-6.23-60.59-10.69-129.15-2.64-189.35c6-44.97,76.99-17.6,98.54-9.99c54.12,19.09,122.32,62.22,196.01,129.35
								c2.76,2.51,16.63,21.71,26.92,35.24l1.32-0.55c-1.96,0.82-34.84-45.89-39.32-49.97c-75.6-68.87-145.55-113.1-201.08-132.7
								c-22.11-7.8-94.94-35.89-101.1,10.24c-8.26,61.77-3.67,132.11,2.71,194.26C2050.51,1459.1,2072.68,1515.72,2069.93,1518.63z"
								/>
						</g>
						<g class="st17">
							<path d="M2136.28,1455.04c-6.1-21.79-11.85-43.68-17.09-65.71c32.87-20.29,57.27-50.08,54.94-103.22
								c-0.33-29.71-8.01-58.96-19.85-85.44c42.52,24.58,116.75,79.58,170.84,130.57
								C2257.86,1363.89,2194.95,1404.36,2136.28,1455.04z"/>
						</g>
					</g>
					<g>
						<path class="st16" d="M3082.37,2207.71c-12.58,28.32-40.9,43.76-67.64,56.19c-10.28,4.76-20.59,9.38-30.96,13.85
							c-72.08,31.04-146.77,54.81-222.85,71.38c-24.59,5.35-49.31,9.94-74.12,13.77c-83.81,13-168.84,17.42-253.5,13.34
							c-87.72-4.22-175.04-17.56-260.3-39.97c-40.9-10.73-76.5-23.34-107.49-37.42c-104.57-47.41-156.55-111.14-181.02-174.02
							c-19.09-48.97-21.53-97.43-19.15-137.23c0.79-13.77,2.18-26.48,3.65-37.84c8.7-67.27,37.64-250.18,103.35-369.06
							c58.77-106.33,129.7-206.28,232.96-262.96c68.23-37.44,144.76-55.32,221.27-55.6c64.66-0.28,129.35,12.04,189.06,35.74
							c40.36,16.03,78.97,36.62,114.66,61.01c90.69,62.03,156.69,145.75,206.25,241.09c70.36,135.39,107.6,294.23,135.22,447.86
							c4.53,25.26,8.81,50.39,12.94,75.23C3089.42,2151.35,3093.9,2181.82,3082.37,2207.71z"/>
					</g>
					<g>
						<path class="st21" d="M2686.8,2362.9c-83.81,13-168.84,17.42-253.5,13.34c-31.58-82.37-59.76-168.02-79.17-260.52
							c-7.85-37.42-13.91-81.01-2.04-115.16c9.86-28.41,30.25-42.37,49.54-42.12c19.32,0.31,37.81,12.63,55.35,26.54
							C2555.12,2062.97,2637.09,2198.59,2686.8,2362.9z"/>
					</g>
					<g>
						<path class="st23" d="M2126.16,1396.8c-10.09,9.6-19.73,19.67-29.4,29.68c-6.82,7.07,5.56,16.28,12.29,9.18
							c9.12-9.63,18.27-19.26,26.98-29.27C2141.14,1400.52,2131.87,1391.37,2126.16,1396.8z"/>
					</g>
					<g>
						<path class="st23" d="M2254.73,1353.09c-15.54,10.03-29.37,23.75-43.25,35.92c-7.54,6.61,2.13,18.87,9.68,12.23
							c14.36-12.61,30.11-24.88,42.49-39.49C2268.57,1355.97,2260.31,1349.49,2254.73,1353.09z"/>
					</g>
					<g>
						<path class="st23" d="M2145.29,1489.17c-14.87,16.11-28.31,33.7-41.97,50.83c-6.14,7.7,6.12,16.81,12.24,9.14
							c13.65-17.12,27.79-34.11,40.17-52.18C2160.55,1489.92,2150.88,1483.12,2145.29,1489.17z"/>
					</g>
					<g>
						<path class="st23" d="M2031.93,1535.84c-11.52,13.72-19.9,31.1-28.9,46.55c-4.82,8.28,7.13,17.38,12.08,9.02
							c9.41-15.9,20.94-32.32,27.52-49.63C2045.17,1535.1,2036.35,1530.57,2031.93,1535.84z"/>
					</g>
					<g>
						<path class="st23" d="M2141.03,1590.65c-14.69,12.01-26.25,29.8-38.12,44.52c-6.21,7.7,6.11,16.84,12.29,9.18
							c11.92-14.76,26.62-29.73,35.31-46.68C2153.35,1592.12,2145.46,1587.03,2141.03,1590.65z"/>
					</g>
					<g>
						<path class="st23" d="M2025.64,1624.06c-12.95,18.51-24.16,38.44-35.36,58.04c-4.71,8.24,7.18,17.18,12.03,8.85
							c11.69-20.03,23.72-40.29,33.55-61.32C2038.69,1623.6,2029.4,1618.69,2025.64,1624.06z"/>
					</g>
					<g>
						<path class="st23" d="M2053.84,1698.26c-10.83,13.25-20.64,26.9-30.19,41.1c-5.1,7.58,6.32,16.11,11.39,8.5
							c9.78-14.68,18.88-29.4,27.26-44.91C2065.02,1697.92,2057.15,1694.2,2053.84,1698.26z"/>
					</g>
					<g>
						<path class="st23" d="M1994.48,1747.27c-6.02,13.45-11.74,27.03-17.34,40.67c-3.6,8.77,9.62,15.44,13.25,6.62
							c5.61-13.66,11.08-27.37,16.27-41.2C2009.67,1745.33,1998.12,1739.14,1994.48,1747.27z"/>
					</g>
					<g>
						<path class="st23" d="M2256.57,1457.77c-11.47,14.14-27.76,29.86-34.78,46.78c-2.11,5.08,4.06,8.82,8.14,6.02
							c7.61-5.22,13.28-13.3,19.18-20.33c6.54-7.79,13.02-15.63,19.43-23.53C2274.61,1459.23,2262.61,1450.32,2256.57,1457.77z"/>
					</g>
					<g>
						<path class="st23" d="M2378.14,1366.59c-18.6,9.04-36.14,21.82-48.8,38.33c-4.52,5.89,4.04,14.79,9.58,9.32
							c13.76-13.57,27.88-25.16,45.3-33.79C2392.92,1376.13,2386.93,1362.31,2378.14,1366.59z"/>
					</g>
					<g class="st15">
						<path d="M2889.85,1861.68c-141.34,243.59-424.01,342.83-685.67,339.83c-108.06,0-220.5-26.43-319.69-76.67
							c-19.09-48.97-21.53-97.43-19.15-137.23c115.82,54.86,246.45,79.22,374.92,66.53c216.54-24.05,387.95-237.55,387.95-451.09
							c0-126.3-69.17-234.58-165.41-312.75c-11.56-9.57-23.68-19.03-36.23-28.15c64.66-0.28,129.35,12.04,189.06,35.74
							c40.36,16.03,78.97,36.62,114.66,61.01c90.69,62.03,156.69,145.75,206.25,241.09
							C2949.82,1687.6,2936.96,1778.77,2889.85,1861.68z"/>
					</g>
					<g class="st14">
						<path d="M3071.78,2047.85c-262,254.18-658.62,282.93-1006.26,251.01c-104.57-47.41-156.55-111.14-181.02-174.02
							c99.19,50.25,211.64,76.67,319.69,76.67c261.66,3,544.33-96.24,685.67-339.83c47.1-82.9,59.96-174.08,46.71-261.68
							C3006.92,1735.38,3044.16,1894.22,3071.78,2047.85z"/>
					</g>
					<g class="st17">
						<path d="M3082.37,2207.71c-12.58,28.32-40.9,43.76-67.64,56.19c-10.28,4.76-20.59,9.38-30.96,13.85
							c-72.08,31.04-146.77,54.81-222.85,71.38c-193.48,42.09-395.97,37.56-587.92-12.86c-40.9-10.73-76.5-23.34-107.49-37.42
							c347.65,31.92,744.27,3.17,1006.26-251.01c4.53,25.26,8.81,50.39,12.94,75.23C3089.42,2151.35,3093.9,2181.82,3082.37,2207.71
							z"/>
					</g>
					<g class="st19">
						<path class="st10" d="M2246.48,1320.32c-34.49,12.91-65.75,33.3-94.66,56.12c-41.6,32.83-79.15,71.28-107.87,115.81
							c-28.73,44.54-48.46,95.34-53.62,148.09c-1.55,15.83-1.17,33.56,9.62,45.25c11.58,12.54,31.84,13.5,47.54,6.8
							c15.7-6.7,27.86-19.48,39.43-32.04c91.22-99.02,174.6-204.93,257.88-310.72c15.36-19.51,16.62-40.34-11.56-42.72
							C2303.88,1304.44,2273.94,1310.04,2246.48,1320.32z"/>
					</g>
					<g>
						<g>
							<path class="st21" d="M2148.53,1721.61c2.83,8.83,4.62,18.17,3.59,27.39c-1.03,9.22-5.14,18.35-12.43,24.09
								c-9.31,7.33-22.66,8.1-33.78,4.03c-11.13-4.07-20.25-12.38-27.57-21.7c-11.92-15.17-19.75-33.52-22.46-52.63
								c-3.13-22.03,10.81-57.82,39-46.8C2120.57,1666.03,2140.5,1696.52,2148.53,1721.61z"/>
						</g>
						<g>
							<path class="st24" d="M2094.87,1655.99c0.14,0.05,0.28,0.13,0.42,0.19c-9.55,9.16-16.22,22.93-18.6,36.02
								c-5.92,32.58,7.26,68.07,32.68,85.97c-1.17-0.31-2.33-0.64-3.46-1.05c-11.13-4.07-20.25-12.38-27.57-21.7
								c-11.92-15.17-19.75-33.52-22.46-52.63C2052.75,1680.76,2066.68,1644.97,2094.87,1655.99z"/>
						</g>
					</g>
					<g>
						<g>
							<path class="st21" d="M1891.2,1650.19c-5.62,8.36-10.3,17.55-12.01,27.47c-1.71,9.92-0.18,20.69,5.69,28.87
								c7.49,10.45,21.18,15.29,34.01,14.4c12.83-0.89,24.86-6.79,35.3-14.3c17.01-12.22,30.72-28.99,39.31-48.09
								c9.91-22.02,6.19-63.55-26.54-60.57C1937.14,1600.69,1907.15,1626.46,1891.2,1650.19z"/>
						</g>
						<g>
							<path class="st24" d="M1966.96,1597.98c-0.16,0.01-0.33,0.05-0.49,0.07c7.19,12.44,9.99,28.81,8.52,43.18
								c-3.66,35.76-28.13,68.78-60.04,79.77c1.31,0.03,2.63,0.04,3.93-0.05c12.83-0.89,24.86-6.79,35.3-14.3
								c17.01-12.22,30.72-28.99,39.31-48.09C2003.41,1636.53,1999.69,1595,1966.96,1597.98z"/>
						</g>
					</g>
					<g>
						<g>
							<path class="st22" d="M2015.04,1839.74c0.66,4.73,2.52,9.76,6.69,12.09c3.62,2.02,8.28,1.47,11.86-0.61
								c3.58-2.08,6.21-5.49,8.24-9.11c3.67-6.56,5.63-14.07,5.62-21.58c-0.01-9.74-7.22-21.55-18.24-16.27
								C2017.69,1809.77,2013.45,1828.41,2015.04,1839.74z"/>
						</g>
						<g class="st17">
							<path d="M2047.44,1820.53c-0.01-4.07-1.28-8.49-3.56-11.89c1.33,17-10.15,33.58-25.99,39.49c0.98,1.52,2.23,2.81,3.83,3.7
								c3.62,2.02,8.28,1.47,11.86-0.61c3.58-2.08,6.21-5.49,8.24-9.11C2045.5,1835.55,2047.45,1828.04,2047.44,1820.53z"/>
						</g>
					</g>
					<g>
						<g>
							<path class="st22" d="M1913.8,1816.6c0.66,4.73,2.52,9.76,6.69,12.09c3.62,2.02,8.28,1.47,11.86-0.61
								c3.58-2.08,6.21-5.49,8.24-9.11c3.67-6.56,5.63-14.07,5.62-21.58c-0.01-9.74-7.22-21.55-18.24-16.27
								C1916.45,1786.63,1912.21,1805.26,1913.8,1816.6z"/>
						</g>
						<g class="st17">
							<path d="M1946.2,1797.39c-0.01-4.07-1.28-8.49-3.55-11.89c1.33,17-10.15,33.58-25.99,39.49c0.98,1.52,2.23,2.81,3.83,3.7
								c3.62,2.02,8.28,1.47,11.86-0.61c3.58-2.08,6.21-5.49,8.24-9.11C1944.26,1812.41,1946.21,1804.9,1946.2,1797.39z"/>
						</g>
					</g>
					<g>
						<path class="st21" d="M1892.15,1857.19c0,0-67.98,28.93-80.99,150.42c-13.02,121.49,131.62,277.69,244.43,271.91
							C2168.4,2273.74,2070.05,1766.08,1892.15,1857.19z"/>
					</g>
					<g class="st25">
						<path class="st24" d="M1975.53,1857.35c-25.05-13.81-53.05-15.68-83.37-0.15c0,0-20.97,8.96-41.84,37.7
							c3.51,5.89,7.7,10.74,13.28,13.52c99.13,48.15,175.61,164.28,93.47,263.41c-15.78,20.17-34.55,31.09-54.87,35.91
							c12.26,11.83,25.26,22.64,38.69,32.05c33.41-2.44,67.05-15.54,78.49-45.3C2061.56,2087.78,2045.03,1950.64,1975.53,1857.35z"
							/>
					</g>
					<g>
						<path class="st24" d="M1975.53,1857.35c69.51,93.29,86.03,230.43,43.84,337.14c-11.44,29.75-45.08,42.86-78.49,45.3
							c37.2,26.07,77.67,41.63,114.71,39.73C2149.17,2274.72,2097.44,1924.55,1975.53,1857.35z"/>
					</g>
					<g>
						<path class="st22" d="M2001.08,2038.08c1.94,19.88-9.56,38.96-30.75,41.23c-14.8,1.59-28.01-7.4-41.88-10.89
							c-4.93-1.24-9.78-1.76-14.55-1.36c-6.59-25.78-12.27-51.45-14.84-78.02c-2.75-28.47-2.16-56.91-1.21-85.45
							c0.11-3.25-4.4-3.56-4.97-0.43c-9.8,53.88-4.46,113.67,11.89,165.9c-1.2,0.44-2.4,0.94-3.59,1.53
							c-12.64,6.29-25.57,22.9-40.74,12.58c-2.06-1.4-5.26,0.97-3.87,3.33c6.48,10.97,19.94,9.91,30.15,4.82
							c11.11-5.53,18.84-15.59,32.48-14.61c9.59,0.69,18.51,5.58,27.46,8.66c15.97,5.49,32.55,5.8,46.79-4.64
							c13.93-10.2,20.26-27.6,17.21-44.42C2009.52,2030.07,2000.48,2031.94,2001.08,2038.08z"/>
					</g>
					<g>
						<g>
							<path class="st22" d="M1914.61,1855.62c-15.37-2.11-31.09-0.77-45.07,7.03c-10.01,5.58-18.13,15.59-15.33,25.38
								c7.09,24.81,54.96,28.25,78.49,23.35c18.03-3.75,48.86-18.48,30.51-36.9C1952.25,1863.49,1930.87,1857.85,1914.61,1855.62z"
								/>
						</g>
						<g class="st15">
							<path d="M1924.43,1870.64c-19.21,17.06-48.16,17.91-66.98,2.63c-0.67,0.97-1.29,1.95-1.8,2.97
								c3.94,4.53,8.57,8.65,13.81,12.18c21.33,11.78,43.83,9.17,62.22-4.36c7.73-5.05,13.42-11.56,17.42-18.94
								c-4.93-2.31-10.34-4.17-15.8-5.67C1930.98,1863.4,1928.1,1867.16,1924.43,1870.64z"/>
						</g>
						<g class="st14">
							<path d="M1963.2,1874.48c-3.7-3.71-8.61-6.8-14.09-9.37c-4,7.38-9.7,13.89-17.42,18.94c-18.39,13.54-40.9,16.15-62.22,4.36
								c-5.25-3.54-9.87-7.65-13.81-12.18c-1.89,3.76-2.59,7.79-1.44,11.79c0.76,2.68,2.03,5.09,3.66,7.29
								c29.22,15.63,66.9,14.16,96.98-8.25c3.89-3.11,7.35-6.57,10.37-10.3C1964.62,1876.02,1963.97,1875.25,1963.2,1874.48z"/>
						</g>
						<g class="st17">
							<path d="M1965.22,1876.77c-3.03,3.73-6.48,7.19-10.37,10.3c-30.08,22.41-67.76,23.88-96.98,8.25
								c13.5,18.15,53.84,20.43,74.82,16.06C1949.97,1907.79,1978.97,1894.11,1965.22,1876.77z"/>
						</g>
						<g class="st17">
							<path class="st26" d="M1875.96,1862.08c-1.62,0.57-3.25,1.22-4.54,2.35c-1.29,1.13-2.19,2.85-1.92,4.54
								c0.39,2.4,2.85,3.86,5.16,4.61c4.96,1.63,10.31,1.56,15.52,1.2c10.3-0.7,20.77-2.55,29.72-7.71
								c1.17-0.68,2.41-1.53,2.76-2.83c0.32-1.18-0.18-2.46-1-3.37c-2.19-2.45-6.4-2.35-9.44-2.74c-4.01-0.51-8.06-0.71-12.1-0.59
								C1891.9,1857.79,1883.72,1859.33,1875.96,1862.08z"/>
						</g>
					</g>
				</g>
			</g>
			<g>
				<g>
					<linearGradient id="SVGID_9_" gradientUnits="userSpaceOnUse" x1="1409.5027" y1="2502.1753" x2="3294.2539" y2="2319.2883">
						<stop  offset="0" style="stop-color:#FDF53F"/>
						<stop  offset="1" style="stop-color:#D93C65"/>
					</linearGradient>
					<path class="st27" d="M2805.42,2555.94l-1276.97-454.16l-67.56,187.67l1276.53,466.84c27.11,9.92,57.37-1.08,71.9-26.03
						c14.92-25.63,29.18-65.66,30.04-125.64C2839.67,2582.82,2825.96,2563.25,2805.42,2555.94z"/>
					<g>
						<linearGradient id="SVGID_10_" gradientUnits="userSpaceOnUse" x1="1123.4186" y1="2109.9265" x2="1309.7854" y2="2109.9265">
							<stop  offset="0" style="stop-color:#CB236D"/>
							<stop  offset="1" style="stop-color:#4C246D"/>
						</linearGradient>
						<path class="st28" d="M1133.39,2053.28l176.39,21.66c-0.19,24.28-8.14,55.69-35.05,91.72l-147.31-97.18
							C1119.61,2064.32,1124.09,2052.13,1133.39,2053.28z"/>
						<linearGradient id="SVGID_11_" gradientUnits="userSpaceOnUse" x1="1714.6188" y1="1951.3859" x2="1171.0369" y2="2332.4006">
							<stop  offset="0" style="stop-color:#FDF53F"/>
							<stop  offset="1" style="stop-color:#D93C65"/>
						</linearGradient>
						<path class="st29" d="M1528.45,2101.78c8.08,117.61-67.56,187.67-67.56,187.67l-186.15-122.8
							c26.91-36.03,34.86-67.44,35.05-91.72L1528.45,2101.78z"/>
					</g>
				</g>
				
					<linearGradient id="SVGID_12_" gradientUnits="userSpaceOnUse" x1="-3921.1289" y1="5882.9512" x2="-3519.7932" y2="5115.8413" gradientTransform="matrix(-1 0 0 1 83.0112 0)">
					<stop  offset="0" style="stop-color:#FDF53F"/>
					<stop  offset="1" style="stop-color:#D93C65"/>
				</linearGradient>
				<path class="st30" d="M2789.58,2613.49c1.55,0,2.99-0.96,3.54-2.5c0.69-1.95-0.33-4.1-2.29-4.79l-1221.72-431.76
					c-1.96-0.69-4.1,0.33-4.79,2.29c-0.69,1.95,0.33,4.1,2.29,4.79l1221.72,431.76C2788.74,2613.42,2789.16,2613.49,2789.58,2613.49
					z"/>
				
					<linearGradient id="SVGID_13_" gradientUnits="userSpaceOnUse" x1="-3874.3401" y1="5907.4292" x2="-3473.0042" y2="5140.3184" gradientTransform="matrix(-1 0 0 1 83.0112 0)">
					<stop  offset="0" style="stop-color:#FDF53F"/>
					<stop  offset="1" style="stop-color:#D93C65"/>
				</linearGradient>
				<path class="st31" d="M2768.5,2687.11c1.55,0,2.99-0.96,3.54-2.5c0.69-1.95-0.33-4.1-2.29-4.79l-1221.72-431.77
					c-1.96-0.69-4.1,0.33-4.79,2.29c-0.69,1.95,0.33,4.1,2.29,4.79l1221.72,431.77C2767.66,2687.04,2768.09,2687.11,2768.5,2687.11z
					"/>
			</g>
			
				<linearGradient id="SVGID_14_" gradientUnits="userSpaceOnUse" x1="-2170.2354" y1="2326.886" x2="-2374.1362" y2="2507.4448" gradientTransform="matrix(-1 0 0 1 83.0112 0)">
				<stop  offset="0" style="stop-color:#F9B776"/>
				<stop  offset="1" style="stop-color:#F47960"/>
			</linearGradient>
			<path class="st32" d="M2372.84,2376.69l-73.91-6.02l-32.01,29.5c0,0,7.57,10.47,31.25,4.45c23.67-6.02,56.1-7.49,56.1-7.49
				s32.68,14.73,33.08-12.83L2372.84,2376.69z"/>
			<g>
				<g>
					<path class="st12" d="M2374.59,2374.14c-41.69,116.05-97.55,227-165.96,329.6c-5.36,8.03-11.05,17.2-9.1,26.66
						c1.95,9.46,16.48,15.22,21.33,6.87c-7.23,4.04-5.47,16.52-0.18,22.89c5.29,6.37,16.48,6.37,21.77,0
						c-7.66,6.3,1.71,20,11.29,22.57c9.58,2.57,19.46-2.11,28.16-6.88c149.86-82.1,261.32-231.23,297.61-398.21
						C2509.95,2376.9,2444.15,2374.88,2374.59,2374.14z"/>
				</g>
				<g>
					<path class="st13" d="M2370.3,2498.52c0.23-6.67-9.57-7.72-11.41-1.54c-5.07,16.98-11.11,31.57-21.12,46.27
						c-4.51,6.62,6,15.13,11.17,8.8C2361.14,2537.12,2369.64,2518,2370.3,2498.52z"/>
				</g>
				<g>
					<path class="st13" d="M2426.08,2477.83c-7.98,13.94-13.82,29.36-20.04,44.15c-3.76,8.93,10.9,12.93,14.59,4.01
						c5.89-14.21,12.41-28.6,16.52-43.44C2438.97,2476.01,2429.52,2471.82,2426.08,2477.83z"/>
				</g>
				<g>
					<path class="st13" d="M2371.92,2567.72c-10.21,17.4-22.03,33.31-36.01,47.87c-6.83,7.12,3.78,18.03,10.71,10.97
						c15.05-15.31,27.6-32.54,37.16-51.78C2387.69,2566.92,2376.47,2559.97,2371.92,2567.72z"/>
				</g>
				<g class="st14">
					<path d="M2294.2,2623.5c59.33-88.58,159.06-164.41,266.65-179.61c7.51-21.68,13.79-43.79,18.67-66.24
						c-69.56-0.74-135.36-2.76-204.92-3.51c-41.69,116.05-97.55,227-165.96,329.6c-5.36,8.03-11.05,17.2-9.1,26.66
						c1.63,7.9,12.02,13.19,18.23,9.86c0.75-1.22,1.77-2.25,3.1-2.99c-0.8,1.38-1.88,2.33-3.1,2.99c-3.36,5.43-1.4,14.7,2.92,19.9
						c4.91,5.91,14.88,6.32,20.52,1.28c0.35-0.45,0.77-0.88,1.25-1.28c-0.48,0.4-0.9,0.82-1.25,1.28
						c-5.23,6.71,3.56,18.89,12.54,21.3c9.58,2.57,19.46-2.11,28.16-6.88c0.15-0.08,0.29-0.17,0.44-0.25
						C2265.87,2724.71,2261.26,2668.95,2294.2,2623.5z"/>
				</g>
				<g class="st15">
					<path d="M2361.52,2624.39c36.66-69.22,110.06-139.89,189.28-153.64c3.56-8.87,6.92-17.83,10.05-26.86
						c-107.59,15.21-207.32,91.03-266.65,179.61c-32.94,45.45-28.32,101.21-11.86,152.1c25.71-14.11,50.26-30.23,73.52-48.04
						C2343.67,2694.58,2342.93,2658.8,2361.52,2624.39z"/>
				</g>
			</g>
		</g>
	</g>
</g>
</svg>
