<?xml version="1.0" encoding="utf-8"?>
<!-- Generator: Adobe Illustrator 24.1.2, SVG Export Plug-In . SVG Version: 6.00 Build 0)  -->
<svg version="1.1" xmlns="http://www.w3.org/2000/svg" xmlns:xlink="http://www.w3.org/1999/xlink" x="0px" y="0px"
	 viewBox="0 0 1000 1000" style="enable-background:new 0 0 1000 1000;" xml:space="preserve">
<style type="text/css">
	.st0{display:none;}
	.st1{display:inline;fill:url(#SVGID_1_);}
	.st2{display:inline;}
	.st3{fill:#D44613;}
	.st4{opacity:0.15;}
	.st5{fill:#77160C;}
	.st6{opacity:0.3;}
	.st7{opacity:0.1;}
	.st8{opacity:0.2;}
	.st9{fill:#630E0A;}
	.st10{fill:#C1380E;}
	.st11{fill:#FCE0D9;}
	.st12{fill:#4D0F05;}
	.st13{fill:#BF340A;}
	.st14{fill:#FFFFFF;}
	.st15{fill:#EFC3BD;}
	.st16{opacity:0.5;}
	.st17{fill:#ECECEC;}
	.st18{fill:url(#SVGID_2_);}
</style>
<g id="Layer_1" class="st0">
	<linearGradient id="SVGID_1_" gradientUnits="userSpaceOnUse" x1="500.2643" y1="0.25" x2="500.2643" y2="1000.25">
		<stop  offset="0" style="stop-color:#00FFFF"/>
		<stop  offset="0.1129" style="stop-color:#01FAFC"/>
		<stop  offset="0.2425" style="stop-color:#02ECF3"/>
		<stop  offset="0.3802" style="stop-color:#05D5E4"/>
		<stop  offset="0.5238" style="stop-color:#08B5CE"/>
		<stop  offset="0.6718" style="stop-color:#0D8CB3"/>
		<stop  offset="0.8236" style="stop-color:#135991"/>
		<stop  offset="0.9758" style="stop-color:#1A1E6B"/>
		<stop  offset="1" style="stop-color:#1B1464"/>
	</linearGradient>
	<circle class="st1" cx="500.26" cy="500.25" r="500"/>
	<g class="st2">
		<g>
			<g>
				<path class="st3" d="M339.98,662.06c2.01,17.81,3.23,37.83,5.24,55.64c-7.05-0.28-13.36,2.41-18.08,6.62l-32.99-39.68
					C307.15,674.38,322.68,666.46,339.98,662.06z"/>
			</g>
			<g class="st4">
				<path d="M339.98,662.06c0.49,4.38,0.94,8.89,1.36,13.46c-8.08,4.09-15.45,9.58-21.81,16.59c-3.46,3.93-6.46,8.02-9.02,12.22
					l-16.37-19.69C307.15,674.38,322.68,666.46,339.98,662.06z"/>
			</g>
		</g>
		<g>
			<g>
				<path class="st5" d="M579.05,773.69c3.83-16.87,10.38-32.96,19.17-47.33c3.19-5.21,8.75-16.49,14.08-19.09
					c5.17-2.52,12.77,1.87,18.03,3.24c33.31,8.68,67.76,12,101.96,9.78c2.72-0.18,5.52-0.38,8.12,0.55c2.6,0.92,4.98,3.26,5.29,6.29
					c0.31,3.03-2.25,6.29-4.9,5.58c2.98-1.12,6.95,1.98,7.38,5.45c0.44,3.48-2.41,7.01-5.54,6.88c3.21,2.27,4.41,6.88,3.31,10.95
					s-3.89,7.33-6.93,9.91c-9.1,7.73-20.72,10.59-32.01,12.47c-40.9,6.8-83.1,3.34-122.59-10.06L579.05,773.69z"/>
			</g>
			<g class="st6">
				<path d="M740.78,732.71c0.63-0.23,1.3-0.27,1.97-0.17C742.14,732.81,741.46,732.89,740.78,732.71z"/>
			</g>
			<g class="st7">
				<path d="M706.04,720.89c1.79,5.82,4.16,11.53,8,17.06c7.81,10.49,19.94,16.28,32.13,16.87c-0.06,0.39-0.13,0.79-0.23,1.18
					c-1.1,4.08-3.89,7.33-6.93,9.91c-0.82,0.7-1.67,1.35-2.54,1.97c-13.73-1.81-26.95-8.72-36.65-20.88
					c-6.3-8.23-10.32-17.42-12.45-26.98C693.58,720.49,699.81,720.77,706.04,720.89z"/>
			</g>
			<g class="st8">
				<path d="M687.37,720.02c2.13,9.56,6.15,18.75,12.45,26.98c9.7,12.16,22.92,19.07,36.65,20.88c-7.56,5.46-16.53,8.08-25.51,9.79
					c-10.78-5.27-20.06-13.39-26.46-25.15c-5.72-10.83-8.99-22.21-9.7-33.69C678.99,719.31,683.18,719.7,687.37,720.02z"/>
			</g>
			<g class="st6">
				<path d="M598.21,726.36c3.19-5.21,8.75-16.49,14.08-19.09c5.17-2.52,12.77,1.87,18.03,3.24c14.65,3.82,29.52,6.6,44.49,8.33
					c0.71,11.47,3.98,22.86,9.7,33.69c6.4,11.77,15.68,19.89,26.46,25.15c-1.32,0.25-2.65,0.49-3.96,0.71
					c-40.9,6.8-83.1,3.34-122.59-10.06l-5.36,5.38C582.87,756.82,589.42,740.73,598.21,726.36z"/>
			</g>
		</g>
		<g>
			<g>
				<path class="st5" d="M631.59,514.12c40.13,31.28,84.09,57.64,130.57,78.34c3.64,1.62,7.65,3.56,9.05,7.29
					c1.41,3.73-2.39,8.94-5.92,7.1c3.41-0.19,5.55,4.56,5.11,7.94c-0.44,3.39-4.34,5.86-7.59,4.8c4.06,0.51,3.81,7.35,1.04,10.36
					c-2.77,3.01-7.25,3.56-11.34,3.81c-70.37,4.42-142.13-23-191.61-73.22C585,544.94,607.5,529.73,631.59,514.12z"/>
			</g>
			<g>
				<path class="st9" d="M660.52,556.55c-1.55-2.27,1.63-4.8,3.64-3.05c5.51,4.8,10.84,8.56,17.57,11.48
					c3.03,1.31,1.25,6.6-1.95,5.53C672.23,567.99,665.05,563.2,660.52,556.55z"/>
			</g>
			<g>
				<path class="st9" d="M636.51,561.64c5.86,3.1,11.3,7.19,16.73,10.98c3.28,2.29-0.95,6.91-4.2,4.62
					c-5.19-3.66-10.63-7.24-15.34-11.5C631.61,563.85,633.98,560.3,636.51,561.64z"/>
			</g>
			<g>
				<path class="st9" d="M675.22,581.04c7.4,3.81,15.03,6.76,23.11,8.75c3.95,0.98,2.66,7.12-1.32,6.19
					c-8.62-2.02-16.8-5.26-24.38-9.86C669.54,584.24,671.92,579.34,675.22,581.04z"/>
			</g>
			<g class="st8">
				<path d="M714.63,583.35c-40.23-17.8-91.73-22.25-132.6-3.82c-7.4-5.91-14.47-12.23-21.12-18.98
					c24.09-15.6,46.59-30.82,70.69-46.42c40.13,31.28,84.09,57.64,130.57,78.34c3.64,1.62,7.65,3.56,9.05,7.29
					c1.17,3.11-1.28,7.25-4.18,7.46c-0.53-0.26-1.11-0.39-1.74-0.36c0.58,0.3,1.17,0.4,1.74,0.36c2.37,1.15,3.73,4.82,3.37,7.58
					c-0.41,3.14-3.79,5.49-6.87,4.97c-0.22-0.08-0.46-0.14-0.72-0.17c0.26,0.03,0.49,0.09,0.72,0.17c3.3,1.19,2.92,7.37,0.33,10.19
					c-2.77,3.01-7.25,3.56-11.34,3.81c-0.07,0-0.14,0.01-0.21,0.01C746.83,612.4,736.14,591.93,714.63,583.35z"/>
			</g>
			<g class="st7">
				<path d="M691.35,598.51c-28.05-16.05-69.23-24.51-99.89-11.83c-3.2-2.31-6.35-4.69-9.43-7.15
					c40.87-18.43,92.37-13.98,132.6,3.82c21.51,8.58,32.2,29.05,37.68,50.43c-12.08,0.75-24.19,0.54-36.23-0.54
					C713.05,619.05,705.42,606.41,691.35,598.51z"/>
			</g>
		</g>
		<g>
			<g>
				<path class="st3" d="M321.76,710.52c0.08,2.76,0.29,5.5,0.57,8.23c1.68,15.14,6.56,29.63,15.52,41.97
					c9.15,12.62,21.46,21.74,35.36,28.55c19.12,9.36,41.26,14.33,62.42,17.96c5.24,0.89,10.51,1.75,15.77,2.56
					c26.08,3.99,52.5,6.68,78.74,6.59c20.03-0.05,39.94-1.72,59.53-5.67c4.14-0.84,8.28-1.78,12.39-2.82
					c18.4-4.67,37.16-12.09,49.16-26.81c14.17-17.39,16.29-41.51,15.76-63.95c-1.56-67.98-21.43-134.04-41.14-199.13
					c-3.94-1.11-7.88-2.18-11.81-3.2c-66.23-17.27-129.96-22.37-199.09-22.8c-5.49,32.24-22.61,61.19-40.34,88.67
					c-17.73,27.48-36.67,54.84-46.55,86.01c-2.25,7.09-3.97,14.46-5.05,21.92C321.96,695.87,321.51,703.23,321.76,710.52z"/>
			</g>
			<g class="st8">
				<path d="M474.09,698.53c-0.41-0.4-0.72-0.91-0.87-1.55C473.65,697.43,473.94,697.96,474.09,698.53z"/>
			</g>
			<g class="st8">
				<path d="M462.32,704.14c-0.13-0.21-0.25-0.42-0.34-0.65C462.13,703.71,462.24,703.92,462.32,704.14z"/>
			</g>
			<g>
				<path class="st5" d="M512.63,775.89c1.97,16.07,6.32,28.83,12.18,39.02c1.77,0.53,3.54,1.01,5.33,1.46
					c20.03-0.05,39.94-1.72,59.53-5.67c4.14-0.84,8.28-1.78,12.39-2.82c18.4-4.67,37.16-12.09,49.16-26.81
					c14.17-17.39,16.29-41.51,15.76-63.95c-1.56-67.98-21.43-134.04-41.14-199.13c-3.94-1.11-7.88-2.18-11.81-3.2
					c-11.81,2.29-22.84,6.76-30.38,14.89c-14.07,15.18-29.34-9.33-37.74,9.58c-9.06,20.43-24.01,81.75-27.29,104.48
					C512.57,685.8,507.91,737.44,512.63,775.89z"/>
			</g>
			<g>
				<path class="st9" d="M648.48,752.15c2.46-6.2,2.78-12.11,3.2-18.67c0.16-2.45,3.46-2.77,4.21-0.48c2.2,6.7,0.8,14.45-1.92,20.79
					C652.55,757.11,647.1,755.61,648.48,752.15z"/>
			</g>
			<g>
				<path class="st9" d="M637.35,705.61c0.36-2.05,3.27-1.59,3.78,0.08c1.81,5.93,1.15,12.78,0.49,18.84
					c-0.4,3.66-6.19,3.54-5.75-0.12C636.61,718.19,636.27,711.77,637.35,705.61z"/>
			</g>
			<g>
				<path class="st9" d="M630.07,777.64c2.3-6.9,4.03-13.76,4.77-21.01c0.3-2.93,4.58-2.92,4.63,0.1
					c0.11,7.68-1.12,15.38-4.05,22.51C634.09,782.49,628.91,781.11,630.07,777.64z"/>
			</g>
			<g>
				<path class="st10" d="M353.4,714.49c-0.98,6.59,0.06,12.43,1.15,18.91c0.41,2.42-2.73,3.48-3.99,1.43
					c-3.67-6.02-4.07-13.89-2.88-20.68C348.31,710.59,353.95,710.8,353.4,714.49z"/>
			</g>
			<g>
				<path class="st10" d="M374.87,757.25c0.12,2.08-2.82,2.29-3.69,0.78c-3.12-5.36-4.04-12.18-4.79-18.23
					c-0.45-3.66,5.22-4.86,5.63-1.19C372.71,744.84,374.51,751.02,374.87,757.25z"/>
			</g>
			<g>
				<path class="st10" d="M365.5,685.47c-0.66,7.24-0.78,14.32,0.15,21.54c0.38,2.93-3.8,3.89-4.53,0.96
					c-1.86-7.46-2.42-15.23-1.2-22.84C360.48,681.66,365.84,681.82,365.5,685.47z"/>
			</g>
			<g class="st6">
				<path d="M374.61,580.67c17.73-27.48,34.85-56.43,40.34-88.67c73.24,0.46,140.4,6.15,210.9,26
					c5.78,19.08,11.56,38.24,16.91,57.52c-88.13,1.79-175.73,17-258.45,52.27c-19.21,7.76-37.72,18.32-53.77,31.72
					C340.9,631.27,358.26,606.01,374.61,580.67z"/>
			</g>
			<g class="st4">
				<path d="M323.02,688.59c1.08-7.46,2.79-14.82,5.05-21.92c0.77-2.42,1.61-4.81,2.48-7.19c16.04-13.4,34.55-23.96,53.77-31.72
					c82.71-35.26,170.32-50.48,258.45-52.27c3.01,10.85,5.86,21.74,8.5,32.67c-76.53-2.57-155.72,13.42-219.86,59.17
					c-18.99,13.62-35.87,37.81-28.19,61.36c14.32,41.22,60.81,53.89,101.56,61.77c43.56,7.78,88.45,11.81,130.7,4.18
					c-10.09,6.25-21.81,10.29-33.39,13.23c-4.11,1.05-8.25,1.99-12.39,2.82c-45.26,9.1-92.3,6.11-138.27-0.92
					c-5.27-0.8-10.53-1.66-15.77-2.56c-21.15-3.63-43.29-8.6-62.41-17.96c-13.91-6.81-26.21-15.93-35.36-28.55
					c-8.96-12.34-13.86-26.83-15.52-41.97c-0.29-2.73-0.49-5.47-0.57-8.23C321.51,703.23,321.96,695.87,323.02,688.59z"/>
			</g>
		</g>
		<g>
			<g>
				<path class="st5" d="M543.29,561.3c19.14,47.14,44.04,91.95,73.96,133.09c2.34,3.22,4.84,6.91,4.2,10.84
					c-0.64,3.93-6.54,6.55-8.68,3.19c3.05,1.54,2.53,6.72,0.46,9.43c-2.07,2.71-6.69,2.9-8.98,0.37c3.26,2.47-0.37,8.27-4.27,9.5
					s-8.06-0.54-11.73-2.36c-63.16-31.33-111.63-90.93-129.4-159.16C487.53,564.71,514.62,562.78,543.29,561.3z"/>
			</g>
			<g>
				<path class="st9" d="M547.15,612.51c-0.21-2.74,3.81-3.34,4.68-0.83c2.37,6.92,5.11,12.83,9.49,18.72
					c1.97,2.65-2.22,6.34-4.46,3.82C551.58,628.27,547.75,620.53,547.15,612.51z"/>
			</g>
			<g>
				<path class="st9" d="M523.81,604.91c3.53,5.61,6.19,11.87,9.01,17.86c1.7,3.62-4.28,5.51-5.95,1.9
					c-2.67-5.76-5.6-11.58-7.54-17.63C518.46,604.38,522.28,602.49,523.81,604.91z"/>
			</g>
			<g>
				<path class="st9" d="M547.65,641.06c4.5,7,9.64,13.36,15.65,19.13c2.93,2.82-1.25,7.5-4.23,4.7
					c-6.46-6.06-11.92-12.95-16.19-20.72C541.13,641,545.64,637.94,547.65,641.06z"/>
			</g>
			<g class="st8">
				<path d="M580.63,662.75c-25.95-35.52-68.34-65.1-112.95-69.56c-3.46-8.81-6.42-17.82-8.81-26.99
					c28.67-1.48,55.76-3.42,84.43-4.89c19.14,47.14,44.04,91.95,73.96,133.09c2.34,3.22,4.84,6.91,4.2,10.84
					c-0.54,3.28-4.73,5.64-7.35,4.37c-0.33-0.49-0.77-0.9-1.33-1.18c0.35,0.55,0.81,0.93,1.33,1.18c1.48,2.18,0.82,6.04-0.87,8.25
					c-1.92,2.52-6.03,2.86-8.44,0.87c-0.15-0.18-0.33-0.35-0.54-0.5c0.21,0.16,0.38,0.32,0.54,0.5c2.27,2.68-1.15,7.85-4.81,8.99
					c-3.9,1.22-8.06-0.54-11.73-2.36c-0.06-0.03-0.12-0.06-0.19-0.1C594.01,704,594.97,680.93,580.63,662.75z"/>
			</g>
			<g class="st7">
				<path d="M552.89,664.25c-16.28-27.92-47.73-55.82-80.62-60.16c-1.62-3.6-3.15-7.23-4.59-10.91c44.61,4.46,87,34.04,112.95,69.56
					c14.34,18.18,13.38,41.25,7.45,62.51c-10.84-5.39-21.23-11.62-31.12-18.57C561.43,692.89,561.13,678.13,552.89,664.25z"/>
			</g>
		</g>
		<g>
			<g>
				<g>
					<path class="st11" d="M375.91,151.7c-10.85,15-20.82,30.34-29.94,46.01c-23.6,40.4-41.73,83.03-55.62,128.08
						c-3.47,11.19-6.66,22.53-9.61,34.02c0.34-1.3-25.3-20.2-27.61-22.89c-39.01-45.36-65.03-88.3-77.65-123.16
						c-5.02-13.88-22.81-59.49,0.78-65.77c31.59-8.42,68.19-8.97,100.64-7.96C344.24,142.14,374.52,153.62,375.91,151.7z"/>
				</g>
				<g>
					<path class="st12" d="M345.97,197.71c-23.6,40.4-41.73,83.03-55.62,128.08c-34.34-38.59-72.93-95.41-81.59-116.56
						c-2.04-5-4.11-10.45-2.69-15.66c1.38-5.04,5.89-8.77,10.82-10.51c4.93-1.76,10.27-1.85,15.51-1.81
						C270.8,181.62,308.6,188.5,345.97,197.71z"/>
				</g>
				<g class="st6">
					<path d="M375.91,151.7c-2.22,3.06-4.4,6.14-6.53,9.24c-14.25-2.95-41.73-8.2-84.68-9.54c-31.63-0.99-67.3-0.44-98.09,7.76
						c-23,6.12-5.66,50.58-0.76,64.11c12.3,33.98,37.66,75.85,75.69,120.06c1.42,1.65,11.98,9.65,19.44,15.61l-0.23,0.88
						c0.34-1.3-25.3-20.2-27.61-22.89c-39.01-45.36-65.03-88.3-77.65-123.16c-5.02-13.88-22.81-59.49,0.78-65.77
						c31.59-8.42,68.19-8.97,100.64-7.96C344.24,142.14,374.52,153.62,375.91,151.7z"/>
				</g>
				<g class="st6">
					<path d="M345.97,197.71c-11.54-2.85-23.13-5.47-34.76-7.74c-9.03,22.23-23.35,39.47-50.95,40.62
						c-15.39,1.27-30.87-2.23-45.1-8.54c14.62,26.21,46.39,71.39,75.19,103.75C304.24,280.74,322.37,238.11,345.97,197.71z"/>
				</g>
			</g>
			<g>
				<g>
					<path class="st11" d="M600.73,177.52c-11.2-6.47-22.46-12.2-33.78-17.24c-29.21-13.05-58.88-21.56-89.33-26.46
						c-7.57-1.23-15.18-2.23-22.85-3.02c0.87,0.09,8.31-22.27,9.59-24.42c21.68-36.2,44.06-62,63.67-76.34
						c7.81-5.71,33.24-25.47,41.16-7.98c10.61,23.42,17.16,51.76,22.03,77.08C601.32,151.69,599.3,176.69,600.73,177.52z"/>
				</g>
				<g>
					<path class="st12" d="M566.95,160.28c-29.21-13.05-58.88-21.56-89.33-26.46c18.25-31.69,47.15-69.06,58.88-78.54
						c2.77-2.24,5.82-4.56,9.31-4.13c3.38,0.42,6.47,3.43,8.39,7.03c1.93,3.6,2.9,7.73,3.76,11.8
						C564.24,99.84,566.36,130.08,566.95,160.28z"/>
				</g>
				<g class="st6">
					<path d="M600.73,177.52c-2.29-1.32-4.58-2.61-6.87-3.86c-0.57-11.45-1.96-33.46-8.41-66.97c-4.74-24.68-11.14-52.3-21.47-75.13
						c-7.72-17.05-32.51,2.2-40.12,7.77c-19.11,13.98-40.93,39.13-62.06,74.42c-0.79,1.32-3.99,10.55-6.44,17.12l-0.59-0.06
						c0.87,0.09,8.31-22.27,9.59-24.42c21.68-36.2,44.06-62,63.67-76.34c7.81-5.71,33.24-25.47,41.16-7.98
						c10.61,23.42,17.16,51.76,22.03,77.08C601.32,151.69,599.3,176.69,600.73,177.52z"/>
				</g>
				<g class="st6">
					<path d="M566.95,160.28c-0.18-9.33-0.51-18.67-1.06-27.99c-15.4-4.11-28.58-12.98-33.98-34.25
						c-3.4-11.78-3.85-24.25-2.32-36.12c-13.87,14.77-36.67,45.33-51.97,71.9C508.07,138.73,537.74,147.24,566.95,160.28z"/>
				</g>
			</g>
			<g>
				<path class="st3" d="M282.65,570.18c8.34,9.7,21.36,12.43,33.41,14.16c4.63,0.66,9.25,1.26,13.88,1.79
					c32.17,3.69,64.51,4.2,96.54,1.7c10.35-0.81,20.67-1.94,30.92-3.38c34.66-4.83,68.78-13.2,101.75-24.88
					c34.16-12.1,67.07-27.75,98.09-46.75c14.88-9.11,27.45-18.32,38.02-27.57c35.68-31.17,48.64-62.53,50.83-90.28
					c1.72-21.62-3.08-41.06-8.75-56.5c-1.95-5.34-4.01-10.2-5.94-14.52c-11.44-25.54-44.63-94.37-84.73-133.53
					c-35.87-35.02-75.77-66.08-123.32-76.19c-31.41-6.68-63.77-4.64-94.04,4.35c-25.58,7.58-49.68,20.14-70.45,36.61
					c-14.04,11.13-26.85,23.86-38.05,37.74c-28.46,35.29-44.57,76.22-52.82,119.79c-11.7,61.86-7.52,129.05-0.17,193.03
					c1.21,10.52,2.51,20.96,3.83,31.26C273.16,548.75,275.02,561.32,282.65,570.18z"/>
			</g>
			<g>
				<path class="st11" d="M457.4,584.45c34.66-4.83,68.78-13.2,101.75-24.88c2.68-36.3,3.63-73.49,0.3-112.35
					c-1.35-15.72-4.14-33.66-12.89-45.74c-7.27-10.05-16.99-13.14-24.58-10.75c-7.59,2.42-13.44,9.49-18.71,17.07
					C473.76,450.29,457.5,513.62,457.4,584.45z"/>
			</g>
			<g>
				<path class="st13" d="M564.02,136.07c5.13,2.59,10.14,5.42,15.15,8.23c3.53,1.98-0.26,7.1-3.77,5.09
					c-4.75-2.72-9.51-5.43-14.14-8.36C558.55,139.32,561.12,134.6,564.02,136.07z"/>
			</g>
			<g>
				<path class="st13" d="M508.02,134.09c7.33,2.12,14.43,5.89,21.36,9.05c3.76,1.72,1.4,7.71-2.37,5.99
					c-7.17-3.27-14.85-6.25-21.48-10.55C502.9,136.87,505.39,133.33,508.02,134.09z"/>
			</g>
			<g>
				<path class="st13" d="M567.45,174.84c7.79,4.6,15.19,9.95,22.63,15.09c3.34,2.31-0.42,7.37-3.75,5.07
					c-7.43-5.14-15.04-10.17-22.08-15.84C561.51,176.95,564.52,173.11,567.45,174.84z"/>
			</g>
			<g>
				<path class="st13" d="M617.79,179.8c6.18,4.05,11.56,9.92,16.95,14.96c2.89,2.7-0.75,7.71-3.7,5
					c-5.61-5.16-12.12-10.28-16.78-16.34C612.47,181.08,615.42,178.24,617.79,179.8z"/>
			</g>
			<g>
				<path class="st13" d="M581.2,214.43c7.23,3,13.91,8.65,20.36,13.05c3.37,2.3-0.41,7.38-3.77,5.09
					c-6.46-4.42-14.05-8.58-19.5-14.24C576.51,216.47,579.02,213.53,581.2,214.43z"/>
			</g>
			<g>
				<path class="st13" d="M630.76,213.91c7.32,5.77,14.12,12.32,20.87,18.73c2.84,2.69-0.79,7.64-3.7,4.93
					c-7-6.52-14.16-13.1-20.55-20.24C625.56,215.28,628.64,212.23,630.76,213.91z"/>
			</g>
			<g>
				<path class="st13" d="M628.45,246.58c5.85,3.95,11.35,8.17,16.82,12.65c2.91,2.39-0.58,7.12-3.49,4.71
					c-5.61-4.64-10.95-9.37-16.11-14.5C623.99,247.77,626.66,245.37,628.45,246.58z"/>
			</g>
			<g>
				<path class="st13" d="M657.73,258.89c3.98,4.6,7.85,9.28,11.69,14.01c2.47,3.04-1.97,7.24-4.45,4.19
					c-3.84-4.73-7.64-9.5-11.33-14.34C651.49,259.92,655.32,256.1,657.73,258.89z"/>
			</g>
			<g>
				<path class="st13" d="M519.75,175.67c6.21,4.22,14.52,8.5,19.3,14.35c1.44,1.76-0.55,3.97-2.5,3.35
					c-3.63-1.16-6.83-3.68-10-5.75c-3.51-2.3-7-4.63-10.48-6.99C512.79,178.39,516.48,173.44,519.75,175.67z"/>
			</g>
			<g>
				<path class="st13" d="M460.87,154.1c8.42,1.36,16.87,4.32,23.84,9.34c2.48,1.79,0.16,6.32-2.68,4.82
					c-7.05-3.72-14.01-6.63-21.91-7.96C456.17,159.63,456.89,153.45,460.87,154.1z"/>
			</g>
			<g class="st7">
				<path d="M317.57,410.57c84.81,79.43,208.3,85.03,311.32,52.73c42.69-12.85,83.98-36.66,117.19-68.31
					c1.72-21.62-3.08-41.06-8.75-56.5c-39.23,35.45-87.95,60.61-140.22,70.87c-88.41,16.25-181.53-47.72-206.93-132.09
					c-15.02-49.9-0.57-100.91,28.16-143.24c3.43-5.16,7.09-10.34,10.97-15.43c-25.58,7.58-49.68,20.14-70.45,36.61
					c-14.04,11.13-26.85,23.86-38.05,37.74c-28.46,35.29-44.57,76.22-52.82,119.79C273.17,348.92,289.1,383.41,317.57,410.57z"/>
			</g>
			<g class="st8">
				<path d="M267.83,505.76c133.74,69.27,293.87,33.46,427.43-20.49c35.68-31.17,48.64-62.53,50.83-90.28
					c-33.22,31.65-74.5,55.46-117.19,68.31C525.87,495.6,402.38,490,317.57,410.57c-28.47-27.15-44.39-61.65-49.57-97.84
					C256.3,374.59,260.47,441.77,267.83,505.76z"/>
			</g>
			<g class="st6">
				<path d="M282.65,570.18c8.34,9.7,21.36,12.43,33.41,14.16c4.63,0.66,9.25,1.26,13.88,1.79c32.17,3.69,64.51,4.2,96.54,1.7
					c81.45-6.38,160.92-32.25,230.76-75c14.88-9.11,27.45-18.32,38.02-27.57c-133.56,53.95-293.69,89.76-427.43,20.49
					c1.21,10.52,2.51,20.96,3.83,31.26C273.16,548.75,275.02,561.32,282.65,570.18z"/>
			</g>
			<g class="st4">
				<path class="st14" d="M507.39,120.16c15.16,1,29.94,5.34,44.08,10.91c20.34,8.03,39.75,18.75,56.39,32.93
					s30.48,31.91,38.8,52.13c2.49,6.07,4.45,13.12,1.58,19.02c-3.08,6.33-10.97,9.12-17.97,8.34c-7-0.78-13.33-4.39-19.39-7.97
					c-47.82-28.28-93.36-60.2-138.84-92.1c-8.39-5.88-11.36-13.96-0.51-18.25C482.82,120.71,495.32,119.36,507.39,120.16z"/>
			</g>
			<g>
				<g>
					<path class="st11" d="M572.62,270.88c-1.02,4.15-1.54,8.49-0.77,12.69c0.77,4.2,2.94,8.26,6.47,10.66
						c4.51,3.07,10.66,3,15.64,0.77c4.98-2.22,8.9-6.33,11.96-10.84c4.99-7.34,8-16.02,8.63-24.87
						c0.73-10.21-6.81-26.19-19.39-20.24C583.68,244.48,575.5,259.11,572.62,270.88z"/>
				</g>
				<g>
					<path class="st15" d="M595.15,239.05c-0.06,0.03-0.12,0.07-0.19,0.1c4.68,3.9,8.18,10.01,9.69,15.94
						c3.76,14.76-1.16,31.48-12.26,40.5c0.53-0.18,1.05-0.37,1.56-0.59c4.98-2.22,8.9-6.33,11.96-10.84
						c4.99-7.34,8-16.02,8.63-24.87C615.28,249.08,607.74,233.09,595.15,239.05z"/>
				</g>
			</g>
			<g>
				<g>
					<path class="st11" d="M693.15,213.73c3.21,2.63,6.16,5.71,8.01,9.43c1.86,3.72,2.53,8.15,1.19,12.08
						c-1.72,5.02-6.55,8.56-11.73,9.74c-5.18,1.18-10.63,0.27-15.65-1.45c-8.17-2.81-15.58-7.8-21.25-14.33
						c-6.53-7.52-10-24.37,3.28-27.09C669.11,199.64,684.03,206.25,693.15,213.73z"/>
				</g>
				<g>
					<path class="st15" d="M657.01,202.11c0.07-0.01,0.14-0.02,0.2-0.03c-1.36,5.77-0.52,12.57,1.77,18.07
						c5.7,13.69,19.29,23.83,33.21,24.38c-0.52,0.17-1.03,0.33-1.56,0.45c-5.17,1.18-10.63,0.27-15.65-1.45
						c-8.17-2.81-15.58-7.8-21.25-14.33C647.19,221.68,643.73,204.83,657.01,202.11z"/>
				</g>
			</g>
			<g>
				<path class="st11" d="M709.33,290.9c0,0,30.3,3.35,49.89,49.8c19.59,46.45-18.98,125.37-64.24,136.5
					C649.72,488.33,628.21,276.06,709.33,290.9z"/>
			</g>
			<g class="st16">
				<path class="st15" d="M676.41,300.88c8.25-8.43,19.1-12.51,32.92-9.98c0,0,9.35,1.04,21.02,9.92c-0.69,2.74-1.77,5.16-3.64,6.92
					c-33.44,30.81-49.85,85.79-5.6,115.19c8.63,6.09,17.35,8.17,25.95,7.66c-3.44,6.13-7.29,11.95-11.48,17.27
					c-13.49,3.01-28.34,1.83-36.4-8.56C669.82,402.15,660.04,346,676.41,300.88z"/>
			</g>
			<g>
				<path class="st15" d="M676.41,300.88c-16.37,45.13-6.59,101.28,22.77,138.42c8.06,10.4,22.91,11.57,36.4,8.56
					c-11.6,14.72-25.74,25.69-40.6,29.34C657.44,486.44,636.23,341.93,676.41,300.88z"/>
			</g>
			<g>
				<path class="st12" d="M686.18,381.73c2.18,8.57,9.84,14.78,19.01,12.54c6.4-1.57,10.55-7.3,15.8-10.84
					c1.87-1.26,3.81-2.2,5.85-2.76c-1.14-11.73-2.63-23.27-5.56-34.72c-3.14-12.27-7.67-24.02-12.36-35.76
					c-0.53-1.34,1.3-2.15,2.01-0.93c12.19,20.96,18.97,46.66,20.02,70.87c0.57,0,1.14,0.03,1.72,0.1
					c6.21,0.72,14.09,5.69,18.86-0.89c0.65-0.89,2.34-0.39,2.11,0.8c-1.05,5.54-6.81,7.12-11.83,6.54
					c-5.46-0.63-10.19-3.66-15.72-1.2c-3.89,1.73-6.87,5.11-10.13,7.74c-5.82,4.69-12.68,7.31-20.18,5.11
					c-7.34-2.15-12.59-8.44-13.85-15.9C681.46,379.66,685.5,379.08,686.18,381.73z"/>
			</g>
			<g>
				<g>
					<path class="st12" d="M700.27,292.95c5.82-2.66,12.19-4,18.64-2.58c4.62,1.01,9.02,4,9.08,8.21
						c0.15,10.65-18.36,17.7-28.23,18.56c-7.57,0.66-21.5-1.49-16.44-10.95C686.34,300.54,694.11,295.77,700.27,292.95z"/>
				</g>
				<g class="st7">
					<path d="M698.18,300.05c9.62,4.46,21.16,1.35,26.78-6.93c0.38,0.3,0.74,0.62,1.07,0.96c-1.02,2.26-2.36,4.43-4.01,6.46
						c-7.02,7.19-16.23,8.84-25.1,5.68c-3.65-1.08-6.68-2.97-9.14-5.41c1.67-1.5,3.59-2.88,5.57-4.12
						C694.73,297.97,696.32,299.11,698.18,300.05z"/>
				</g>
				<g class="st8">
					<path d="M683.32,306.18c1.02-1.91,2.59-3.71,4.45-5.38c2.46,2.44,5.48,4.33,9.14,5.41c8.88,3.16,18.08,1.52,25.1-5.68
						c1.65-2.02,2.99-4.2,4.01-6.46c1.19,1.26,1.95,2.77,1.97,4.49c0.02,1.15-0.2,2.25-0.58,3.32c-9.69,9.65-24.75,13.55-39.3,8.27
						c-1.91-0.77-3.68-1.72-5.32-2.83C682.94,306.96,683.1,306.58,683.32,306.18z"/>
				</g>
				<g class="st6">
					<path d="M682.79,307.33c1.64,1.11,3.42,2.07,5.32,2.83c14.55,5.28,29.61,1.38,39.3-8.27c-3.17,8.78-18.84,14.47-27.65,15.25
						C692.51,317.77,679.42,315.81,682.79,307.33z"/>
				</g>
				<g class="st6">
					<path class="st17" d="M716.31,290.91c0.71,0.03,1.43,0.09,2.07,0.39c0.64,0.29,1.2,0.86,1.3,1.57
						c0.13,0.99-0.67,1.86-1.49,2.44c-1.77,1.23-3.89,1.84-5.99,2.32c-4.15,0.95-8.51,1.46-12.66,0.49
						c-0.54-0.13-1.13-0.32-1.43-0.79c-0.27-0.43-0.22-0.99-0.01-1.45c0.57-1.23,2.25-1.69,3.4-2.2c1.52-0.68,3.1-1.24,4.71-1.67
						C709.5,291.11,712.92,290.74,716.31,290.91z"/>
				</g>
			</g>
			<g>
				<g>
					<path class="st12" d="M645.85,308.52c-0.47,2.02-2.04,3.69-4.12,4.04c-4.95,0.84-8.56-5.92-9.89-9.74
						c-1.25-3.6,0.02-7.82,4.55-7.45c3.96,0.32,7.02,4.22,8.63,7.51C645.87,304.61,646.29,306.64,645.85,308.52z"/>
				</g>
				<g class="st6">
					<path d="M638.54,299.39c-0.86-1.31-1.66-2.67-2.48-4.03c0.11,0,0.21,0,0.33,0.01c3.96,0.32,7.02,4.22,8.63,7.51
						c0.85,1.74,1.27,3.77,0.83,5.64c-0.47,2.02-2.04,3.69-4.12,4.04c-0.69,0.12-1.36,0.07-2-0.08
						C640.99,308.31,640.66,303.81,638.54,299.39z"/>
				</g>
			</g>
			<g>
				<g>
					<path class="st12" d="M690.18,282.24c-0.47,2.02-2.04,3.69-4.12,4.04c-4.95,0.84-8.56-5.92-9.89-9.74
						c-1.25-3.6,0.02-7.82,4.55-7.45c3.96,0.32,7.02,4.22,8.63,7.51C690.2,278.33,690.62,280.37,690.18,282.24z"/>
				</g>
				<g class="st6">
					<path d="M682.87,273.11c-0.86-1.31-1.66-2.67-2.48-4.03c0.11,0,0.21,0,0.33,0.01c3.96,0.32,7.02,4.22,8.63,7.51
						c0.85,1.74,1.27,3.77,0.83,5.64c-0.47,2.02-2.04,3.69-4.12,4.04c-0.69,0.12-1.36,0.07-2-0.08
						C685.32,282.03,684.99,277.54,682.87,273.11z"/>
				</g>
			</g>
		</g>
		<g>
			<g>
				<path class="st5" d="M479.84,811.1c0.27,0.11,0.56,0.23,0.83,0.34c1.09,0.44,2.18,0.87,3.27,1.3c2.35,0.92,4.7,1.8,7.08,2.65
					c2.03,0.73,4.09,1.45,6.15,2.13c1.05,0.36,2.12,0.71,3.18,1.06c0.07,0.02,0.14,0.03,0.19,0.06c1.1,0.35,2.21,0.69,3.31,1.04
					c1.12,0.34,2.25,0.69,3.37,1.01c1.12,0.34,2.25,0.66,3.38,0.98c0.09,0.03,0.18,0.05,0.27,0.07c2.34,0.66,4.69,1.31,7.05,1.9
					c1.22,0.31,2.45,0.62,3.67,0.91c2.45,0.58,4.92,1.14,7.39,1.68c0.13,0.02,0.27,0.05,0.39,0.09c3.58,0.76,7.16,1.45,10.76,2.08
					c2.49,0.42,4.98,0.83,7.48,1.19c1.25,0.19,2.49,0.36,3.75,0.53c1.25,0.17,2.51,0.33,3.76,0.49c2.51,0.32,5.02,0.59,7.53,0.82
					c4.81,0.47,9.62,0.82,14.44,1.03c38.64,1.82,77.61-3.99,113.75-17.9c3.23-1.25,6.65-2.73,8.45-5.68c1.79-2.97,0.8-7.76-2.59-8.5
					c3.68-0.35,6.84-3.61,7.18-7.26c0.01-0.03,0.02-0.07,0.02-0.1c0.01-0.19,0.03-0.37,0.03-0.55c0-3.93-3.31-7.56-7.21-7.92
					c0.04-0.01,0.07-0.03,0.11-0.04c1.08-0.4,1.88-1.07,2.42-1.88c0.08-0.11,0.16-0.23,0.23-0.37c0.2-0.31,0.33-0.66,0.42-1
					c0.05-0.21,0.1-0.43,0.14-0.65c0.13-0.85,0.05-1.72-0.22-2.53c-0.08-0.23-0.17-0.46-0.27-0.68c-0.71-1.44-2.07-2.59-3.99-2.85
					c-1.6-0.21-3.22-0.43-4.82-0.66c-0.44-0.07-0.88-0.12-1.32-0.2c-1.61-0.23-3.21-0.47-4.81-0.73c-1.82-0.28-3.65-0.59-5.47-0.9
					c-1.51-0.26-3.02-0.53-4.52-0.8c-0.53-0.1-1.06-0.2-1.6-0.3c-1.27-0.24-2.54-0.48-3.81-0.74c-0.51-0.11-1.02-0.2-1.54-0.31
					c-1.58-0.32-3.15-0.64-4.73-0.99c-0.07-0.02-0.14-0.02-0.2-0.04c-1.63-0.35-3.25-0.71-4.88-1.09c-2.06-0.46-4.13-0.95-6.18-1.45
					c-1.57-0.38-3.12-0.77-4.67-1.17c-0.23-0.05-0.45-0.11-0.68-0.18c-1.59-0.4-3.16-0.83-4.74-1.26c-0.12-0.02-0.23-0.05-0.34-0.09
					c-1.49-0.4-2.98-0.82-4.47-1.24c-2.26-0.64-4.52-1.31-6.77-2c-1.53-0.46-3.05-0.93-4.57-1.42c-1.17-0.36-2.35-0.74-3.52-1.13
					c-1.17-0.39-2.34-0.77-3.5-1.16c-1.17-0.39-2.32-0.78-3.49-1.19c-1.58-0.54-3.17-1.1-4.74-1.68c-0.38-0.12-0.76-0.25-1.12-0.41
					c-1.21-0.42-2.41-0.87-3.62-1.32c-0.73-0.27-1.46-0.55-2.18-0.83c-0.29-0.1-0.56-0.2-0.83-0.32c-1.03-0.39-2.05-0.79-3.08-1.19
					c-1.72-0.67-3.43-1.35-5.14-2.06c-1.37-0.55-2.72-1.12-4.08-1.68c-2.17-0.91-4.35-1.84-6.49-2.8c-1.35-0.6-2.7-1.2-4.06-1.81
					c-3.76-1.71-7.49-3.47-11.18-5.27c-1.31-0.65-2.63-1.3-3.94-1.96c-0.44-0.22-0.86-0.44-1.29-0.65c-1.14-0.57-2.27-1.16-3.4-1.75
					c-2.98-1.55-5.95-3.14-8.9-4.76c-0.68-0.38-1.35-0.75-2.02-1.13c-0.33-0.18-0.65-0.36-0.98-0.55c-1.03-0.58-2.05-1.15-3.06-1.74
					c-1.72-0.99-3.45-1.99-5.14-3c-1.56-0.93-3.11-1.86-4.65-2.81c-1.47-0.9-2.93-1.81-4.39-2.72c-0.11-0.07-0.21-0.13-0.31-0.2
					c-22.3-14.06-51.48-9.67-68.83,10.17c-0.3,0.34-0.6,0.68-0.9,1.03C436.2,753.68,445.96,796.93,479.84,811.1z"/>
			</g>
			<g class="st7">
				<path d="M699.68,781.83c-0.49,1.15-1.41,2.14-2.84,2.67c-0.04,0.01-0.08,0.03-0.11,0.04c3.9,0.37,7.21,4,7.21,7.92
					c0,0.22-0.01,0.44-0.03,0.65c-43.57-6.74-89.31-5.41-120.87,30.32c-2.61,2.92-4.53,5.94-5.92,9.03
					c-22.47-1.06-44.84-4.68-66.49-10.79C556.52,777.9,633.45,775.54,699.68,781.83z"/>
			</g>
			<g class="st8">
				<path d="M479.84,811.1c0.27,0.11,0.56,0.23,0.83,0.34c1.09,0.44,2.18,0.87,3.27,1.3c2.35,0.92,4.7,1.8,7.08,2.65
					c2.03,0.73,4.09,1.45,6.15,2.13c1.05,0.36,2.12,0.71,3.18,1.06c0.07,0.02,0.14,0.03,0.19,0.06c1.1,0.35,2.21,0.69,3.31,1.04
					c1.12,0.34,2.25,0.69,3.37,1.01c1.12,0.34,2.25,0.66,3.38,0.98c45.9-43.77,122.84-46.13,189.08-39.83
					c0.08-0.18,0.14-0.38,0.22-0.58c0.05-0.21,0.1-0.43,0.14-0.65c0.12-0.85,0.04-1.72-0.22-2.53c-0.08-0.23-0.17-0.46-0.27-0.68
					c-0.71-1.44-2.07-2.59-3.99-2.85c-1.6-0.21-3.22-0.43-4.82-0.66c-0.44-0.07-0.88-0.12-1.32-0.2c-1.61-0.22-3.21-0.47-4.81-0.73
					c-1.82-0.28-3.65-0.59-5.47-0.9c-1.51-0.26-3.02-0.53-4.52-0.8c-0.53-0.1-1.06-0.2-1.6-0.3c-1.27-0.24-2.54-0.48-3.81-0.74
					c-0.51-0.11-1.02-0.2-1.54-0.31c-1.58-0.32-3.15-0.64-4.73-0.99c-0.07-0.02-0.14-0.02-0.2-0.04c-1.63-0.35-3.25-0.71-4.88-1.09
					c-2.06-0.46-4.13-0.95-6.18-1.45c-1.57-0.38-3.12-0.77-4.67-1.17c-0.23-0.05-0.45-0.11-0.68-0.18c-1.58-0.4-3.16-0.82-4.74-1.26
					c-0.12-0.02-0.23-0.05-0.34-0.09c-1.49-0.4-2.98-0.82-4.47-1.24c-2.26-0.64-4.52-1.31-6.77-2c-1.53-0.46-3.05-0.93-4.57-1.42
					c-1.17-0.36-2.35-0.74-3.52-1.13c-1.17-0.38-2.34-0.76-3.5-1.16c-1.17-0.39-2.32-0.78-3.49-1.19c-1.58-0.54-3.17-1.1-4.74-1.68
					c-0.38-0.12-0.76-0.25-1.12-0.41c-1.21-0.42-2.41-0.87-3.62-1.32c-0.73-0.27-1.46-0.55-2.18-0.83c-0.29-0.1-0.56-0.2-0.83-0.32
					c-1.03-0.39-2.05-0.79-3.08-1.19c-1.72-0.67-3.43-1.35-5.14-2.06c-1.37-0.55-2.72-1.12-4.08-1.68c-2.17-0.91-4.35-1.84-6.49-2.8
					c-1.35-0.6-2.7-1.2-4.06-1.81c-3.76-1.71-7.49-3.47-11.18-5.27c-1.31-0.65-2.63-1.3-3.94-1.96c-0.44-0.22-0.86-0.44-1.29-0.65
					c-1.14-0.57-2.27-1.16-3.4-1.75c-2.98-1.55-5.95-3.14-8.9-4.76c-0.68-0.38-1.35-0.75-2.02-1.13c-0.33-0.18-0.65-0.36-0.98-0.55
					c-1.03-0.58-2.05-1.15-3.06-1.74c-1.72-0.99-3.45-1.99-5.14-3c-1.56-0.93-3.11-1.86-4.65-2.81c-1.47-0.9-2.93-1.8-4.39-2.72
					c-0.11-0.07-0.21-0.13-0.31-0.2c-22.3-14.06-51.48-9.67-68.83,10.17c-0.3,0.34-0.6,0.68-0.9,1.03
					C436.2,753.68,445.96,796.93,479.84,811.1z"/>
			</g>
		</g>
		<g>
			<g>
				<path class="st3" d="M255.41,741.9c1.79-6.85,4.4-13.58,7.74-20.06c7.19-13.97,17.79-26.79,31-37.2l32.99,39.68
					c-0.17,0.15-0.34,0.3-0.51,0.46c-5.68,5.32-8.86,12.9-7.92,20.01c0.45,3.49,1.62,6.81,3.35,9.96
					c4.36,8.01,12.24,14.86,20.95,20.3c0.72,0.44,1.44,0.88,2.17,1.31c11.16,6.59,23.74,11.49,36.94,14.6
					c19.75,4.65,40.92,5.3,60.95,1.57c2.34-0.43,4.66-0.92,6.96-1.48c11.36-2.73,22.01-6.75,32.3-11.47
					c20.05-9.18,38.69-20.98,58.36-30.88c1.1-0.56,2.22-1.11,3.34-1.65c10.95-5.36,22.4-10.15,34.2-14.18
					c16.9-5.77,34.53-9.96,52.49-11.97c10.17-1.14,20.44-1.57,30.74-1.18c4.44,0.17,8.88,0.5,13.3,1
					c37.94,4.27,74.4,20.71,94.31,47.42c15.42,20.68,19.85,46.05,14.92,70.05v0.01c-1.12,5.51-2.75,10.93-4.84,16.22
					c-4.3,10.89-10.46,21.18-18.04,30.76c-12.15,15.37-27.97,28.9-45.7,40.09c-6.23,3.94-12.7,7.6-19.37,10.98
					c-17.19,8.72-35.71,15.6-55,20.67c-30.13,7.92-62.12,11.42-93.75,10.56c-11.4-0.31-22.76-1.17-34.02-2.53
					c-26.24-3.15-51.98-9.04-76.7-17.15c-20.27-6.64-39.85-14.77-58.45-24.1c-23.34-11.7-45.44-25.47-64.48-41.53
					c-12.32-10.38-23.37-21.71-32.65-34.08c-1.96-2.61-3.84-5.28-5.63-7.99c-14.1-21.32-22.65-45.34-23.25-69.4
					C251.88,761.06,252.93,751.4,255.41,741.9z"/>
			</g>
			<g>
				<path class="st5" d="M630.72,720.89c5.65,33.93,19.43,67.61,42.26,95.53c22.79,27.85,53.17,51.45,88.14,68.75
					c7.58-9.57,13.73-19.86,18.04-30.76c2.09-5.29,3.71-10.72,4.84-16.22v-0.01c-50.85-27.73-90.04-69.88-109.24-117.47
					c-4.42-0.5-8.86-0.83-13.3-1C651.16,719.33,640.89,719.76,630.72,720.89z"/>
			</g>
			<g>
				<path class="st5" d="M561,878.97c17.98,31.04,46,58,80.06,77.94c19.29-5.07,37.81-11.95,55-20.67
					c-38.51-22.7-70.04-53.42-90.54-88.54c-20.76-35.55-30.16-75.49-27.28-114.84c-11.8,4.03-23.25,8.83-34.2,14.18
					C532.02,790.96,537.54,838.44,561,878.97z"/>
			</g>
			<g>
				<path class="st5" d="M423.52,886.16c0.97,20.91,5.43,41.69,13.07,61.64c24.72,8.1,50.46,13.99,76.7,17.15
					c-33.5-57.08-44.75-123.01-30.95-185.37c-10.29,4.72-20.94,8.75-32.3,11.47c-2.3,0.56-4.62,1.05-6.96,1.48
					C428.88,822.23,422.03,854.11,423.52,886.16z"/>
			</g>
			<g>
				<path class="st5" d="M275.37,840.11c1.79,2.71,3.67,5.37,5.63,7.99c9.29,12.36,20.33,23.7,32.65,34.08
					c15.59-33.57,38.95-64.71,68.46-91.22c-13.2-3.11-25.78-8.01-36.94-14.6c-0.73-0.43-1.45-0.87-2.17-1.31
					C315.24,792.53,291.94,814.86,275.37,840.11z"/>
			</g>
			<g>
				<path class="st5" d="M252.12,770.71c22.62-7.6,45.45-12.8,69.94-15.96c-1.72-3.15-2.89-6.47-3.35-9.96
					c-0.94-7.12,2.24-14.69,7.92-20.01c-20.37-5.36-42.45-6.29-63.48-2.94c-3.34,6.48-5.95,13.21-7.74,20.06
					C252.93,751.4,251.88,761.06,252.12,770.71z"/>
			</g>
			<g class="st6">
				<path d="M255.41,741.9c1.79-6.85,4.4-13.58,7.74-20.06c4.12-8,9.35-15.61,15.55-22.62c-17.7,71.48,11.8,149.68,77.06,184.55
					c60.77,32.72,126.22,50.25,194,45.58c82.63-5.97,168.64-31.48,232.77-85.13c-0.94,3.44-2.05,6.85-3.37,10.19
					c-4.3,10.89-10.46,21.18-18.04,30.76c-12.15,15.37-27.97,28.9-45.7,40.09c-6.23,3.94-12.7,7.6-19.37,10.98
					c-17.19,8.72-35.71,15.6-55,20.67c-30.13,7.92-62.12,11.42-93.75,10.56c-11.4-0.31-22.76-1.17-34.02-2.53
					c-26.24-3.15-51.98-9.04-76.7-17.15c-20.27-6.64-39.85-14.77-58.45-24.1c-23.34-11.7-45.44-25.47-64.48-41.53
					c-12.32-10.38-23.37-21.71-32.65-34.08c-1.96-2.61-3.84-5.28-5.63-7.99c-14.1-21.32-22.65-45.34-23.25-69.4
					C251.88,761.06,252.93,751.4,255.41,741.9z"/>
			</g>
			<g class="st4">
				<path d="M278.71,699.22c4.63-5.23,9.8-10.13,15.44-14.58l16.37,19.69c-29.4,48.24-0.98,112.14,45.25,144.39
					c73.63,51.42,162.45,50.25,247.76,37.4c38.57-4.67,71.29-26.88,99.34-53.76c24.37-22.34,37.76-56.83,37.22-90.08
					c11.5,7.07,21.44,15.72,28.99,25.86c15.42,20.68,19.85,46.05,14.92,70.05v0.01c-0.41,2.02-0.92,4.03-1.46,6.03
					c-64.13,53.66-150.14,79.16-232.77,85.13c-67.78,4.67-133.23-12.86-194-45.58C290.51,848.9,261.01,770.7,278.71,699.22z"/>
			</g>
			<g class="st6">
				<path class="st14" d="M642.28,748.54c7.7-0.14,15.65,0.43,22.56,3.84c6.91,3.41,12.59,10.19,12.76,17.89
					c0.17,7.6-4.82,14.32-10.2,19.68c-14.01,13.97-32.04,23.22-50.4,30.58c-27.59,11.05-56.69,18.34-86.23,21.59
					c-14.88,1.64-30.01,2.25-44.78-0.21c-14.77-2.46-29.25-8.14-40.56-17.95c-3.85-3.34-10.61-10.98-6.69-16.59
					c2.97-4.26,9.9-1.96,14.25-2.05c15.42-0.31,31.53-5.8,45.96-10.85c30.69-10.74,59.62-26,90.55-36.1
					C606.56,752.8,624.27,748.88,642.28,748.54z"/>
			</g>
		</g>
	</g>
</g>
<g id="Layer_1_copy">
	<linearGradient id="SVGID_2_" gradientUnits="userSpaceOnUse" x1="500.2643" y1="0.25" x2="500.2643" y2="1000.25">
		<stop  offset="0" style="stop-color:#ED1E79"/>
		<stop  offset="0.1268" style="stop-color:#E81E7A"/>
		<stop  offset="0.2722" style="stop-color:#DA207B"/>
		<stop  offset="0.4268" style="stop-color:#C3227E"/>
		<stop  offset="0.5879" style="stop-color:#A32583"/>
		<stop  offset="0.754" style="stop-color:#7A2988"/>
		<stop  offset="0.9218" style="stop-color:#482E8F"/>
		<stop  offset="1" style="stop-color:#2E3192"/>
	</linearGradient>
	<circle class="st18" cx="500.26" cy="500.25" r="500"/>
	<g>
		<g>
			<g>
				<path class="st3" d="M339.98,662.06c2.01,17.81,3.23,37.83,5.24,55.64c-7.05-0.28-13.36,2.41-18.08,6.62l-32.99-39.68
					C307.15,674.38,322.68,666.46,339.98,662.06z"/>
			</g>
			<g class="st4">
				<path d="M339.98,662.06c0.49,4.38,0.94,8.89,1.36,13.46c-8.08,4.09-15.45,9.58-21.81,16.59c-3.46,3.93-6.46,8.02-9.02,12.22
					l-16.37-19.69C307.15,674.38,322.68,666.46,339.98,662.06z"/>
			</g>
		</g>
		<g>
			<g>
				<path class="st5" d="M579.05,773.69c3.83-16.87,10.38-32.96,19.17-47.33c3.19-5.21,8.75-16.49,14.08-19.09
					c5.17-2.52,12.77,1.87,18.03,3.24c33.31,8.68,67.76,12,101.96,9.78c2.72-0.18,5.52-0.38,8.12,0.55c2.6,0.92,4.98,3.26,5.29,6.29
					c0.31,3.03-2.25,6.29-4.9,5.58c2.98-1.12,6.95,1.98,7.38,5.45c0.44,3.48-2.41,7.01-5.54,6.88c3.21,2.27,4.41,6.88,3.31,10.95
					s-3.89,7.33-6.93,9.91c-9.1,7.73-20.72,10.59-32.01,12.47c-40.9,6.8-83.1,3.34-122.59-10.06L579.05,773.69z"/>
			</g>
			<g class="st6">
				<path d="M740.78,732.71c0.63-0.23,1.3-0.27,1.97-0.17C742.14,732.81,741.46,732.89,740.78,732.71z"/>
			</g>
			<g class="st7">
				<path d="M706.04,720.89c1.79,5.82,4.16,11.53,8,17.06c7.81,10.49,19.94,16.28,32.13,16.87c-0.06,0.39-0.13,0.79-0.23,1.18
					c-1.1,4.08-3.89,7.33-6.93,9.91c-0.82,0.7-1.67,1.35-2.54,1.97c-13.73-1.81-26.95-8.72-36.65-20.88
					c-6.3-8.23-10.32-17.42-12.45-26.98C693.58,720.49,699.81,720.77,706.04,720.89z"/>
			</g>
			<g class="st8">
				<path d="M687.37,720.02c2.13,9.56,6.15,18.75,12.45,26.98c9.7,12.16,22.92,19.07,36.65,20.88c-7.56,5.46-16.53,8.08-25.51,9.79
					c-10.78-5.27-20.06-13.39-26.46-25.15c-5.72-10.83-8.99-22.21-9.7-33.69C678.99,719.31,683.18,719.7,687.37,720.02z"/>
			</g>
			<g class="st6">
				<path d="M598.21,726.36c3.19-5.21,8.75-16.49,14.08-19.09c5.17-2.52,12.77,1.87,18.03,3.24c14.65,3.82,29.52,6.6,44.49,8.33
					c0.71,11.47,3.98,22.86,9.7,33.69c6.4,11.77,15.68,19.89,26.46,25.15c-1.32,0.25-2.65,0.49-3.96,0.71
					c-40.9,6.8-83.1,3.34-122.59-10.06l-5.36,5.38C582.87,756.82,589.42,740.73,598.21,726.36z"/>
			</g>
		</g>
		<g>
			<g>
				<path class="st5" d="M631.59,514.12c40.13,31.28,84.09,57.64,130.57,78.34c3.64,1.62,7.65,3.56,9.05,7.29
					c1.41,3.73-2.39,8.94-5.92,7.1c3.41-0.19,5.55,4.56,5.11,7.94c-0.44,3.39-4.34,5.86-7.59,4.8c4.06,0.51,3.81,7.35,1.04,10.36
					c-2.77,3.01-7.25,3.56-11.34,3.81c-70.37,4.42-142.13-23-191.61-73.22C585,544.94,607.5,529.73,631.59,514.12z"/>
			</g>
			<g>
				<path class="st9" d="M660.52,556.55c-1.55-2.27,1.63-4.8,3.64-3.05c5.51,4.8,10.84,8.56,17.57,11.48
					c3.03,1.31,1.25,6.6-1.95,5.53C672.23,567.99,665.05,563.2,660.52,556.55z"/>
			</g>
			<g>
				<path class="st9" d="M636.51,561.64c5.86,3.1,11.3,7.19,16.73,10.98c3.28,2.29-0.95,6.91-4.2,4.62
					c-5.19-3.66-10.63-7.24-15.34-11.5C631.61,563.85,633.98,560.3,636.51,561.64z"/>
			</g>
			<g>
				<path class="st9" d="M675.22,581.04c7.4,3.81,15.03,6.76,23.11,8.75c3.95,0.98,2.66,7.12-1.32,6.19
					c-8.62-2.02-16.8-5.26-24.38-9.86C669.54,584.24,671.92,579.34,675.22,581.04z"/>
			</g>
			<g class="st8">
				<path d="M714.63,583.35c-40.23-17.8-91.73-22.25-132.6-3.82c-7.4-5.91-14.47-12.23-21.12-18.98
					c24.09-15.6,46.59-30.82,70.69-46.42c40.13,31.28,84.09,57.64,130.57,78.34c3.64,1.62,7.65,3.56,9.05,7.29
					c1.17,3.11-1.28,7.25-4.18,7.46c-0.53-0.26-1.11-0.39-1.74-0.36c0.58,0.3,1.17,0.4,1.74,0.36c2.37,1.15,3.73,4.82,3.37,7.58
					c-0.41,3.14-3.79,5.49-6.87,4.97c-0.22-0.08-0.46-0.14-0.72-0.17c0.26,0.03,0.49,0.09,0.72,0.17c3.3,1.19,2.92,7.37,0.33,10.19
					c-2.77,3.01-7.25,3.56-11.34,3.81c-0.07,0-0.14,0.01-0.21,0.01C746.83,612.4,736.14,591.93,714.63,583.35z"/>
			</g>
			<g class="st7">
				<path d="M691.35,598.51c-28.05-16.05-69.23-24.51-99.89-11.83c-3.2-2.31-6.35-4.69-9.43-7.15
					c40.87-18.43,92.37-13.98,132.6,3.82c21.51,8.58,32.2,29.05,37.68,50.43c-12.08,0.75-24.19,0.54-36.23-0.54
					C713.05,619.05,705.42,606.41,691.35,598.51z"/>
			</g>
		</g>
		<g>
			<g>
				<path class="st3" d="M321.76,710.52c0.08,2.76,0.29,5.5,0.57,8.23c1.68,15.14,6.56,29.63,15.52,41.97
					c9.15,12.62,21.46,21.74,35.36,28.55c19.12,9.36,41.26,14.33,62.42,17.96c5.24,0.89,10.51,1.75,15.77,2.56
					c26.08,3.99,52.5,6.68,78.74,6.59c20.03-0.05,39.94-1.72,59.53-5.67c4.14-0.84,8.28-1.78,12.39-2.82
					c18.4-4.67,37.16-12.09,49.16-26.81c14.17-17.39,16.29-41.51,15.76-63.95c-1.56-67.98-21.43-134.04-41.14-199.13
					c-3.94-1.11-7.88-2.18-11.81-3.2c-66.23-17.27-129.96-22.37-199.09-22.8c-5.49,32.24-22.61,61.19-40.34,88.67
					c-17.73,27.48-36.67,54.84-46.55,86.01c-2.25,7.09-3.97,14.46-5.05,21.92C321.96,695.87,321.51,703.23,321.76,710.52z"/>
			</g>
			<g class="st8">
				<path d="M474.09,698.53c-0.41-0.4-0.72-0.91-0.87-1.55C473.65,697.43,473.94,697.96,474.09,698.53z"/>
			</g>
			<g class="st8">
				<path d="M462.32,704.14c-0.13-0.21-0.25-0.42-0.34-0.65C462.13,703.71,462.24,703.92,462.32,704.14z"/>
			</g>
			<g>
				<path class="st5" d="M512.63,775.89c1.97,16.07,6.32,28.83,12.18,39.02c1.77,0.53,3.54,1.01,5.33,1.46
					c20.03-0.05,39.94-1.72,59.53-5.67c4.14-0.84,8.28-1.78,12.39-2.82c18.4-4.67,37.16-12.09,49.16-26.81
					c14.17-17.39,16.29-41.51,15.76-63.95c-1.56-67.98-21.43-134.04-41.14-199.13c-3.94-1.11-7.88-2.18-11.81-3.2
					c-11.81,2.29-22.84,6.76-30.38,14.89c-14.07,15.18-29.34-9.33-37.74,9.58c-9.06,20.43-24.01,81.75-27.29,104.48
					C512.57,685.8,507.91,737.44,512.63,775.89z"/>
			</g>
			<g>
				<path class="st9" d="M648.48,752.15c2.46-6.2,2.78-12.11,3.2-18.67c0.16-2.45,3.46-2.77,4.21-0.48c2.2,6.7,0.8,14.45-1.92,20.79
					C652.55,757.11,647.1,755.61,648.48,752.15z"/>
			</g>
			<g>
				<path class="st9" d="M637.35,705.61c0.36-2.05,3.27-1.59,3.78,0.08c1.81,5.93,1.15,12.78,0.49,18.84
					c-0.4,3.66-6.19,3.54-5.75-0.12C636.61,718.19,636.27,711.77,637.35,705.61z"/>
			</g>
			<g>
				<path class="st9" d="M630.07,777.64c2.3-6.9,4.03-13.76,4.77-21.01c0.3-2.93,4.58-2.92,4.63,0.1
					c0.11,7.68-1.12,15.38-4.05,22.51C634.09,782.49,628.91,781.11,630.07,777.64z"/>
			</g>
			<g>
				<path class="st10" d="M353.4,714.49c-0.98,6.59,0.06,12.43,1.15,18.91c0.41,2.42-2.73,3.48-3.99,1.43
					c-3.67-6.02-4.07-13.89-2.88-20.68C348.31,710.59,353.95,710.8,353.4,714.49z"/>
			</g>
			<g>
				<path class="st10" d="M374.87,757.25c0.12,2.08-2.82,2.29-3.69,0.78c-3.12-5.36-4.04-12.18-4.79-18.23
					c-0.45-3.66,5.22-4.86,5.63-1.19C372.71,744.84,374.51,751.02,374.87,757.25z"/>
			</g>
			<g>
				<path class="st10" d="M365.5,685.47c-0.66,7.24-0.78,14.32,0.15,21.54c0.38,2.93-3.8,3.89-4.53,0.96
					c-1.86-7.46-2.42-15.23-1.2-22.84C360.48,681.66,365.84,681.82,365.5,685.47z"/>
			</g>
			<g class="st6">
				<path d="M374.61,580.67c17.73-27.48,34.85-56.43,40.34-88.67c73.24,0.46,140.4,6.15,210.9,26
					c5.78,19.08,11.56,38.24,16.91,57.52c-88.13,1.79-175.73,17-258.45,52.27c-19.21,7.76-37.72,18.32-53.77,31.72
					C340.9,631.27,358.26,606.01,374.61,580.67z"/>
			</g>
			<g class="st4">
				<path d="M323.02,688.59c1.08-7.46,2.79-14.82,5.05-21.92c0.77-2.42,1.61-4.81,2.48-7.19c16.04-13.4,34.55-23.96,53.77-31.72
					c82.71-35.26,170.32-50.48,258.45-52.27c3.01,10.85,5.86,21.74,8.5,32.67c-76.53-2.57-155.72,13.42-219.86,59.17
					c-18.99,13.62-35.87,37.81-28.19,61.36c14.32,41.22,60.81,53.89,101.56,61.77c43.56,7.78,88.45,11.81,130.7,4.18
					c-10.09,6.25-21.81,10.29-33.39,13.23c-4.11,1.05-8.25,1.99-12.39,2.82c-45.26,9.1-92.3,6.11-138.27-0.92
					c-5.27-0.8-10.53-1.66-15.77-2.56c-21.15-3.63-43.29-8.6-62.41-17.96c-13.91-6.81-26.21-15.93-35.36-28.55
					c-8.96-12.34-13.86-26.83-15.52-41.97c-0.29-2.73-0.49-5.47-0.57-8.23C321.51,703.23,321.96,695.87,323.02,688.59z"/>
			</g>
		</g>
		<g>
			<g>
				<path class="st5" d="M543.29,561.3c19.14,47.14,44.04,91.95,73.96,133.09c2.34,3.22,4.84,6.91,4.2,10.84
					c-0.64,3.93-6.54,6.55-8.68,3.19c3.05,1.54,2.53,6.72,0.46,9.43c-2.07,2.71-6.69,2.9-8.98,0.37c3.26,2.47-0.37,8.27-4.27,9.5
					s-8.06-0.54-11.73-2.36c-63.16-31.33-111.63-90.93-129.4-159.16C487.53,564.71,514.62,562.78,543.29,561.3z"/>
			</g>
			<g>
				<path class="st9" d="M547.15,612.51c-0.21-2.74,3.81-3.34,4.68-0.83c2.37,6.92,5.11,12.83,9.49,18.72
					c1.97,2.65-2.22,6.34-4.46,3.82C551.58,628.27,547.75,620.53,547.15,612.51z"/>
			</g>
			<g>
				<path class="st9" d="M523.81,604.91c3.53,5.61,6.19,11.87,9.01,17.86c1.7,3.62-4.28,5.51-5.95,1.9
					c-2.67-5.76-5.6-11.58-7.54-17.63C518.46,604.38,522.28,602.49,523.81,604.91z"/>
			</g>
			<g>
				<path class="st9" d="M547.65,641.06c4.5,7,9.64,13.36,15.65,19.13c2.93,2.82-1.25,7.5-4.23,4.7
					c-6.46-6.06-11.92-12.95-16.19-20.72C541.13,641,545.64,637.94,547.65,641.06z"/>
			</g>
			<g class="st8">
				<path d="M580.63,662.75c-25.95-35.52-68.34-65.1-112.95-69.56c-3.46-8.81-6.42-17.82-8.81-26.99
					c28.67-1.48,55.76-3.42,84.43-4.89c19.14,47.14,44.04,91.95,73.96,133.09c2.34,3.22,4.84,6.91,4.2,10.84
					c-0.54,3.28-4.73,5.64-7.35,4.37c-0.33-0.49-0.77-0.9-1.33-1.18c0.35,0.55,0.81,0.93,1.33,1.18c1.48,2.18,0.82,6.04-0.87,8.25
					c-1.92,2.52-6.03,2.86-8.44,0.87c-0.15-0.18-0.33-0.35-0.54-0.5c0.21,0.16,0.38,0.32,0.54,0.5c2.27,2.68-1.15,7.85-4.81,8.99
					c-3.9,1.22-8.06-0.54-11.73-2.36c-0.06-0.03-0.12-0.06-0.19-0.1C594.01,704,594.97,680.93,580.63,662.75z"/>
			</g>
			<g class="st7">
				<path d="M552.89,664.25c-16.28-27.92-47.73-55.82-80.62-60.16c-1.62-3.6-3.15-7.23-4.59-10.91c44.61,4.46,87,34.04,112.95,69.56
					c14.34,18.18,13.38,41.25,7.45,62.51c-10.84-5.39-21.23-11.62-31.12-18.57C561.43,692.89,561.13,678.13,552.89,664.25z"/>
			</g>
		</g>
		<g>
			<g>
				<g>
					<path class="st11" d="M375.91,151.7c-10.85,15-20.82,30.34-29.94,46.01c-23.6,40.4-41.73,83.03-55.62,128.08
						c-3.47,11.19-6.66,22.53-9.61,34.02c0.34-1.3-25.3-20.2-27.61-22.89c-39.01-45.36-65.03-88.3-77.65-123.16
						c-5.02-13.88-22.81-59.49,0.78-65.77c31.59-8.42,68.19-8.97,100.64-7.96C344.24,142.14,374.52,153.62,375.91,151.7z"/>
				</g>
				<g>
					<path class="st12" d="M345.97,197.71c-23.6,40.4-41.73,83.03-55.62,128.08c-34.34-38.59-72.93-95.41-81.59-116.56
						c-2.04-5-4.11-10.45-2.69-15.66c1.38-5.04,5.89-8.77,10.82-10.51c4.93-1.76,10.27-1.85,15.51-1.81
						C270.8,181.62,308.6,188.5,345.97,197.71z"/>
				</g>
				<g class="st6">
					<path d="M375.91,151.7c-2.22,3.06-4.4,6.14-6.53,9.24c-14.25-2.95-41.73-8.2-84.68-9.54c-31.63-0.99-67.3-0.44-98.09,7.76
						c-23,6.12-5.66,50.58-0.76,64.11c12.3,33.98,37.66,75.85,75.69,120.06c1.42,1.65,11.98,9.65,19.44,15.61l-0.23,0.88
						c0.34-1.3-25.3-20.2-27.61-22.89c-39.01-45.36-65.03-88.3-77.65-123.16c-5.02-13.88-22.81-59.49,0.78-65.77
						c31.59-8.42,68.19-8.97,100.64-7.96C344.24,142.14,374.52,153.62,375.91,151.7z"/>
				</g>
				<g class="st6">
					<path d="M345.97,197.71c-11.54-2.85-23.13-5.47-34.76-7.74c-9.03,22.23-23.35,39.47-50.95,40.62
						c-15.39,1.27-30.87-2.23-45.1-8.54c14.62,26.21,46.39,71.39,75.19,103.75C304.24,280.74,322.37,238.11,345.97,197.71z"/>
				</g>
			</g>
			<g>
				<g>
					<path class="st11" d="M600.73,177.52c-11.2-6.47-22.46-12.2-33.78-17.24c-29.21-13.05-58.88-21.56-89.33-26.46
						c-7.57-1.23-15.18-2.23-22.85-3.02c0.87,0.09,8.31-22.27,9.59-24.42c21.68-36.2,44.06-62,63.67-76.34
						c7.81-5.71,33.24-25.47,41.16-7.98c10.61,23.42,17.16,51.76,22.03,77.08C601.32,151.69,599.3,176.69,600.73,177.52z"/>
				</g>
				<g>
					<path class="st12" d="M566.95,160.28c-29.21-13.05-58.88-21.56-89.33-26.46c18.25-31.69,47.15-69.06,58.88-78.54
						c2.77-2.24,5.82-4.56,9.31-4.13c3.38,0.42,6.47,3.43,8.39,7.03c1.93,3.6,2.9,7.73,3.76,11.8
						C564.24,99.84,566.36,130.08,566.95,160.28z"/>
				</g>
				<g class="st6">
					<path d="M600.73,177.52c-2.29-1.32-4.58-2.61-6.87-3.86c-0.57-11.45-1.96-33.46-8.41-66.97c-4.74-24.68-11.14-52.3-21.47-75.13
						c-7.72-17.05-32.51,2.2-40.12,7.77c-19.11,13.98-40.93,39.13-62.06,74.42c-0.79,1.32-3.99,10.55-6.44,17.12l-0.59-0.06
						c0.87,0.09,8.31-22.27,9.59-24.42c21.68-36.2,44.06-62,63.67-76.34c7.81-5.71,33.24-25.47,41.16-7.98
						c10.61,23.42,17.16,51.76,22.03,77.08C601.32,151.69,599.3,176.69,600.73,177.52z"/>
				</g>
				<g class="st6">
					<path d="M566.95,160.28c-0.18-9.33-0.51-18.67-1.06-27.99c-15.4-4.11-28.58-12.98-33.98-34.25
						c-3.4-11.78-3.85-24.25-2.32-36.12c-13.87,14.77-36.67,45.33-51.97,71.9C508.07,138.73,537.74,147.24,566.95,160.28z"/>
				</g>
			</g>
			<g>
				<path class="st3" d="M282.65,570.18c8.34,9.7,21.36,12.43,33.41,14.16c4.63,0.66,9.25,1.26,13.88,1.79
					c32.17,3.69,64.51,4.2,96.54,1.7c10.35-0.81,20.67-1.94,30.92-3.38c34.66-4.83,68.78-13.2,101.75-24.88
					c34.16-12.1,67.07-27.75,98.09-46.75c14.88-9.11,27.45-18.32,38.02-27.57c35.68-31.17,48.64-62.53,50.83-90.28
					c1.72-21.62-3.08-41.06-8.75-56.5c-1.95-5.34-4.01-10.2-5.94-14.52c-11.44-25.54-44.63-94.37-84.73-133.53
					c-35.87-35.02-75.77-66.08-123.32-76.19c-31.41-6.68-63.77-4.64-94.04,4.35c-25.58,7.58-49.68,20.14-70.45,36.61
					c-14.04,11.13-26.85,23.86-38.05,37.74c-28.46,35.29-44.57,76.22-52.82,119.79c-11.7,61.86-7.52,129.05-0.17,193.03
					c1.21,10.52,2.51,20.96,3.83,31.26C273.16,548.75,275.02,561.32,282.65,570.18z"/>
			</g>
			<g>
				<path class="st11" d="M457.4,584.45c34.66-4.83,68.78-13.2,101.75-24.88c2.68-36.3,3.63-73.49,0.3-112.35
					c-1.35-15.72-4.14-33.66-12.89-45.74c-7.27-10.05-16.99-13.14-24.58-10.75c-7.59,2.42-13.44,9.49-18.71,17.07
					C473.76,450.29,457.5,513.62,457.4,584.45z"/>
			</g>
			<g>
				<path class="st13" d="M564.02,136.07c5.13,2.59,10.14,5.42,15.15,8.23c3.53,1.98-0.26,7.1-3.77,5.09
					c-4.75-2.72-9.51-5.43-14.14-8.36C558.55,139.32,561.12,134.6,564.02,136.07z"/>
			</g>
			<g>
				<path class="st13" d="M508.02,134.09c7.33,2.12,14.43,5.89,21.36,9.05c3.76,1.72,1.4,7.71-2.37,5.99
					c-7.17-3.27-14.85-6.25-21.48-10.55C502.9,136.87,505.39,133.33,508.02,134.09z"/>
			</g>
			<g>
				<path class="st13" d="M567.45,174.84c7.79,4.6,15.19,9.95,22.63,15.09c3.34,2.31-0.42,7.37-3.75,5.07
					c-7.43-5.14-15.04-10.17-22.08-15.84C561.51,176.95,564.52,173.11,567.45,174.84z"/>
			</g>
			<g>
				<path class="st13" d="M617.79,179.8c6.18,4.05,11.56,9.92,16.95,14.96c2.89,2.7-0.75,7.71-3.7,5
					c-5.61-5.16-12.12-10.28-16.78-16.34C612.47,181.08,615.42,178.24,617.79,179.8z"/>
			</g>
			<g>
				<path class="st13" d="M581.2,214.43c7.23,3,13.91,8.65,20.36,13.05c3.37,2.3-0.41,7.38-3.77,5.09
					c-6.46-4.42-14.05-8.58-19.5-14.24C576.51,216.47,579.02,213.53,581.2,214.43z"/>
			</g>
			<g>
				<path class="st13" d="M630.76,213.91c7.32,5.77,14.12,12.32,20.87,18.73c2.84,2.69-0.79,7.64-3.7,4.93
					c-7-6.52-14.16-13.1-20.55-20.24C625.56,215.28,628.64,212.23,630.76,213.91z"/>
			</g>
			<g>
				<path class="st13" d="M628.45,246.58c5.85,3.95,11.35,8.17,16.82,12.65c2.91,2.39-0.58,7.12-3.49,4.71
					c-5.61-4.64-10.95-9.37-16.11-14.5C623.99,247.77,626.66,245.37,628.45,246.58z"/>
			</g>
			<g>
				<path class="st13" d="M657.73,258.89c3.98,4.6,7.85,9.28,11.69,14.01c2.47,3.04-1.97,7.24-4.45,4.19
					c-3.84-4.73-7.64-9.5-11.33-14.34C651.49,259.92,655.32,256.1,657.73,258.89z"/>
			</g>
			<g>
				<path class="st13" d="M519.75,175.67c6.21,4.22,14.52,8.5,19.3,14.35c1.44,1.76-0.55,3.97-2.5,3.35
					c-3.63-1.16-6.83-3.68-10-5.75c-3.51-2.3-7-4.63-10.48-6.99C512.79,178.39,516.48,173.44,519.75,175.67z"/>
			</g>
			<g>
				<path class="st13" d="M460.87,154.1c8.42,1.36,16.87,4.32,23.84,9.34c2.48,1.79,0.16,6.32-2.68,4.82
					c-7.05-3.72-14.01-6.63-21.91-7.96C456.17,159.63,456.89,153.45,460.87,154.1z"/>
			</g>
			<g class="st7">
				<path d="M317.57,410.57c84.81,79.43,208.3,85.03,311.32,52.73c42.69-12.85,83.98-36.66,117.19-68.31
					c1.72-21.62-3.08-41.06-8.75-56.5c-39.23,35.45-87.95,60.61-140.22,70.87c-88.41,16.25-181.53-47.72-206.93-132.09
					c-15.02-49.9-0.57-100.91,28.16-143.24c3.43-5.16,7.09-10.34,10.97-15.43c-25.58,7.58-49.68,20.14-70.45,36.61
					c-14.04,11.13-26.85,23.86-38.05,37.74c-28.46,35.29-44.57,76.22-52.82,119.79C273.17,348.92,289.1,383.41,317.57,410.57z"/>
			</g>
			<g class="st8">
				<path d="M267.83,505.76c133.74,69.27,293.87,33.46,427.43-20.49c35.68-31.17,48.64-62.53,50.83-90.28
					c-33.22,31.65-74.5,55.46-117.19,68.31C525.87,495.6,402.38,490,317.57,410.57c-28.47-27.15-44.39-61.65-49.57-97.84
					C256.3,374.59,260.47,441.77,267.83,505.76z"/>
			</g>
			<g class="st6">
				<path d="M282.65,570.18c8.34,9.7,21.36,12.43,33.41,14.16c4.63,0.66,9.25,1.26,13.88,1.79c32.17,3.69,64.51,4.2,96.54,1.7
					c81.45-6.38,160.92-32.25,230.76-75c14.88-9.11,27.45-18.32,38.02-27.57c-133.56,53.95-293.69,89.76-427.43,20.49
					c1.21,10.52,2.51,20.96,3.83,31.26C273.16,548.75,275.02,561.32,282.65,570.18z"/>
			</g>
			<g class="st4">
				<path class="st14" d="M507.39,120.16c15.16,1,29.94,5.34,44.08,10.91c20.34,8.03,39.75,18.75,56.39,32.93
					s30.48,31.91,38.8,52.13c2.49,6.07,4.45,13.12,1.58,19.02c-3.08,6.33-10.97,9.12-17.97,8.34c-7-0.78-13.33-4.39-19.39-7.97
					c-47.82-28.28-93.36-60.2-138.84-92.1c-8.39-5.88-11.36-13.96-0.51-18.25C482.82,120.71,495.32,119.36,507.39,120.16z"/>
			</g>
			<g>
				<g>
					<path class="st11" d="M572.62,270.88c-1.02,4.15-1.54,8.49-0.77,12.69c0.77,4.2,2.94,8.26,6.47,10.66
						c4.51,3.07,10.66,3,15.64,0.77c4.98-2.22,8.9-6.33,11.96-10.84c4.99-7.34,8-16.02,8.63-24.87
						c0.73-10.21-6.81-26.19-19.39-20.24C583.68,244.48,575.5,259.11,572.62,270.88z"/>
				</g>
				<g>
					<path class="st15" d="M595.15,239.05c-0.06,0.03-0.12,0.07-0.19,0.1c4.68,3.9,8.18,10.01,9.69,15.94
						c3.76,14.76-1.16,31.48-12.26,40.5c0.53-0.18,1.05-0.37,1.56-0.59c4.98-2.22,8.9-6.33,11.96-10.84
						c4.99-7.34,8-16.02,8.63-24.87C615.28,249.08,607.74,233.09,595.15,239.05z"/>
				</g>
			</g>
			<g>
				<g>
					<path class="st11" d="M693.15,213.73c3.21,2.63,6.16,5.71,8.01,9.43c1.86,3.72,2.53,8.15,1.19,12.08
						c-1.72,5.02-6.55,8.56-11.73,9.74c-5.18,1.18-10.63,0.27-15.65-1.45c-8.17-2.81-15.58-7.8-21.25-14.33
						c-6.53-7.52-10-24.37,3.28-27.09C669.11,199.64,684.03,206.25,693.15,213.73z"/>
				</g>
				<g>
					<path class="st15" d="M657.01,202.11c0.07-0.01,0.14-0.02,0.2-0.03c-1.36,5.77-0.52,12.57,1.77,18.07
						c5.7,13.69,19.29,23.83,33.21,24.38c-0.52,0.17-1.03,0.33-1.56,0.45c-5.17,1.18-10.63,0.27-15.65-1.45
						c-8.17-2.81-15.58-7.8-21.25-14.33C647.19,221.68,643.73,204.83,657.01,202.11z"/>
				</g>
			</g>
			<g>
				<path class="st11" d="M709.33,290.9c0,0,30.3,3.35,49.89,49.8c19.59,46.45-18.98,125.37-64.24,136.5
					C649.72,488.33,628.21,276.06,709.33,290.9z"/>
			</g>
			<g class="st16">
				<path class="st15" d="M676.41,300.88c8.25-8.43,19.1-12.51,32.92-9.98c0,0,9.35,1.04,21.02,9.92c-0.69,2.74-1.77,5.16-3.64,6.92
					c-33.44,30.81-49.85,85.79-5.6,115.19c8.63,6.09,17.35,8.17,25.95,7.66c-3.44,6.13-7.29,11.95-11.48,17.27
					c-13.49,3.01-28.34,1.83-36.4-8.56C669.82,402.15,660.04,346,676.41,300.88z"/>
			</g>
			<g>
				<path class="st15" d="M676.41,300.88c-16.37,45.13-6.59,101.28,22.77,138.42c8.06,10.4,22.91,11.57,36.4,8.56
					c-11.6,14.72-25.74,25.69-40.6,29.34C657.44,486.44,636.23,341.93,676.41,300.88z"/>
			</g>
			<g>
				<path class="st12" d="M686.18,381.73c2.18,8.57,9.84,14.78,19.01,12.54c6.4-1.57,10.55-7.3,15.8-10.84
					c1.87-1.26,3.81-2.2,5.85-2.76c-1.14-11.73-2.63-23.27-5.56-34.72c-3.14-12.27-7.67-24.02-12.36-35.76
					c-0.53-1.34,1.3-2.15,2.01-0.93c12.19,20.96,18.97,46.66,20.02,70.87c0.57,0,1.14,0.03,1.72,0.1
					c6.21,0.72,14.09,5.69,18.86-0.89c0.65-0.89,2.34-0.39,2.11,0.8c-1.05,5.54-6.81,7.12-11.83,6.54
					c-5.46-0.63-10.19-3.66-15.72-1.2c-3.89,1.73-6.87,5.11-10.13,7.74c-5.82,4.69-12.68,7.31-20.18,5.11
					c-7.34-2.15-12.59-8.44-13.85-15.9C681.46,379.66,685.5,379.08,686.18,381.73z"/>
			</g>
			<g>
				<g>
					<path class="st12" d="M700.27,292.95c5.82-2.66,12.19-4,18.64-2.58c4.62,1.01,9.02,4,9.08,8.21
						c0.15,10.65-18.36,17.7-28.23,18.56c-7.57,0.66-21.5-1.49-16.44-10.95C686.34,300.54,694.11,295.77,700.27,292.95z"/>
				</g>
				<g class="st7">
					<path d="M698.18,300.05c9.62,4.46,21.16,1.35,26.78-6.93c0.38,0.3,0.74,0.62,1.07,0.96c-1.02,2.26-2.36,4.43-4.01,6.46
						c-7.02,7.19-16.23,8.84-25.1,5.68c-3.65-1.08-6.68-2.97-9.14-5.41c1.67-1.5,3.59-2.88,5.57-4.12
						C694.73,297.97,696.32,299.11,698.18,300.05z"/>
				</g>
				<g class="st8">
					<path d="M683.32,306.18c1.02-1.91,2.59-3.71,4.45-5.38c2.46,2.44,5.48,4.33,9.14,5.41c8.88,3.16,18.08,1.52,25.1-5.68
						c1.65-2.02,2.99-4.2,4.01-6.46c1.19,1.26,1.95,2.77,1.97,4.49c0.02,1.15-0.2,2.25-0.58,3.32c-9.69,9.65-24.75,13.55-39.3,8.27
						c-1.91-0.77-3.68-1.72-5.32-2.83C682.94,306.96,683.1,306.58,683.32,306.18z"/>
				</g>
				<g class="st6">
					<path d="M682.79,307.33c1.64,1.11,3.42,2.07,5.32,2.83c14.55,5.28,29.61,1.38,39.3-8.27c-3.17,8.78-18.84,14.47-27.65,15.25
						C692.51,317.77,679.42,315.81,682.79,307.33z"/>
				</g>
				<g class="st6">
					<path class="st17" d="M716.31,290.91c0.71,0.03,1.43,0.09,2.07,0.39c0.64,0.29,1.2,0.86,1.3,1.57
						c0.13,0.99-0.67,1.86-1.49,2.44c-1.77,1.23-3.89,1.84-5.99,2.32c-4.15,0.95-8.51,1.46-12.66,0.49
						c-0.54-0.13-1.13-0.32-1.43-0.79c-0.27-0.43-0.22-0.99-0.01-1.45c0.57-1.23,2.25-1.69,3.4-2.2c1.52-0.68,3.1-1.24,4.71-1.67
						C709.5,291.11,712.92,290.74,716.31,290.91z"/>
				</g>
			</g>
			<g>
				<g>
					<path class="st12" d="M645.85,308.52c-0.47,2.02-2.04,3.69-4.12,4.04c-4.95,0.84-8.56-5.92-9.89-9.74
						c-1.25-3.6,0.02-7.82,4.55-7.45c3.96,0.32,7.02,4.22,8.63,7.51C645.87,304.61,646.29,306.64,645.85,308.52z"/>
				</g>
				<g class="st6">
					<path d="M638.54,299.39c-0.86-1.31-1.66-2.67-2.48-4.03c0.11,0,0.21,0,0.33,0.01c3.96,0.32,7.02,4.22,8.63,7.51
						c0.85,1.74,1.27,3.77,0.83,5.64c-0.47,2.02-2.04,3.69-4.12,4.04c-0.69,0.12-1.36,0.07-2-0.08
						C640.99,308.31,640.66,303.81,638.54,299.39z"/>
				</g>
			</g>
			<g>
				<g>
					<path class="st12" d="M690.18,282.24c-0.47,2.02-2.04,3.69-4.12,4.04c-4.95,0.84-8.56-5.92-9.89-9.74
						c-1.25-3.6,0.02-7.82,4.55-7.45c3.96,0.32,7.02,4.22,8.63,7.51C690.2,278.33,690.62,280.37,690.18,282.24z"/>
				</g>
				<g class="st6">
					<path d="M682.87,273.11c-0.86-1.31-1.66-2.67-2.48-4.03c0.11,0,0.21,0,0.33,0.01c3.96,0.32,7.02,4.22,8.63,7.51
						c0.85,1.74,1.27,3.77,0.83,5.64c-0.47,2.02-2.04,3.69-4.12,4.04c-0.69,0.12-1.36,0.07-2-0.08
						C685.32,282.03,684.99,277.54,682.87,273.11z"/>
				</g>
			</g>
		</g>
		<g>
			<g>
				<path class="st5" d="M479.84,811.1c0.27,0.11,0.56,0.23,0.83,0.34c1.09,0.44,2.18,0.87,3.27,1.3c2.35,0.92,4.7,1.8,7.08,2.65
					c2.03,0.73,4.09,1.45,6.15,2.13c1.05,0.36,2.12,0.71,3.18,1.06c0.07,0.02,0.14,0.03,0.19,0.06c1.1,0.35,2.21,0.69,3.31,1.04
					c1.12,0.34,2.25,0.69,3.37,1.01c1.12,0.34,2.25,0.66,3.38,0.98c0.09,0.03,0.18,0.05,0.27,0.07c2.34,0.66,4.69,1.31,7.05,1.9
					c1.22,0.31,2.45,0.62,3.67,0.91c2.45,0.58,4.92,1.14,7.39,1.68c0.13,0.02,0.27,0.05,0.39,0.09c3.58,0.76,7.16,1.45,10.76,2.08
					c2.49,0.42,4.98,0.83,7.48,1.19c1.25,0.19,2.49,0.36,3.75,0.53c1.25,0.17,2.51,0.33,3.76,0.49c2.51,0.32,5.02,0.59,7.53,0.82
					c4.81,0.47,9.62,0.82,14.44,1.03c38.64,1.82,77.61-3.99,113.75-17.9c3.23-1.25,6.65-2.73,8.45-5.68c1.79-2.97,0.8-7.76-2.59-8.5
					c3.68-0.35,6.84-3.61,7.18-7.26c0.01-0.03,0.02-0.07,0.02-0.1c0.01-0.19,0.03-0.37,0.03-0.55c0-3.93-3.31-7.56-7.21-7.92
					c0.04-0.01,0.07-0.03,0.11-0.04c1.08-0.4,1.88-1.07,2.42-1.88c0.08-0.11,0.16-0.23,0.23-0.37c0.2-0.31,0.33-0.66,0.42-1
					c0.05-0.21,0.1-0.43,0.14-0.65c0.13-0.85,0.05-1.72-0.22-2.53c-0.08-0.23-0.17-0.46-0.27-0.68c-0.71-1.44-2.07-2.59-3.99-2.85
					c-1.6-0.21-3.22-0.43-4.82-0.66c-0.44-0.07-0.88-0.12-1.32-0.2c-1.61-0.23-3.21-0.47-4.81-0.73c-1.82-0.28-3.65-0.59-5.47-0.9
					c-1.51-0.26-3.02-0.53-4.52-0.8c-0.53-0.1-1.06-0.2-1.6-0.3c-1.27-0.24-2.54-0.48-3.81-0.74c-0.51-0.11-1.02-0.2-1.54-0.31
					c-1.58-0.32-3.15-0.64-4.73-0.99c-0.07-0.02-0.14-0.02-0.2-0.04c-1.63-0.35-3.25-0.71-4.88-1.09c-2.06-0.46-4.13-0.95-6.18-1.45
					c-1.57-0.38-3.12-0.77-4.67-1.17c-0.23-0.05-0.45-0.11-0.68-0.18c-1.59-0.4-3.16-0.83-4.74-1.26c-0.12-0.02-0.23-0.05-0.34-0.09
					c-1.49-0.4-2.98-0.82-4.47-1.24c-2.26-0.64-4.52-1.31-6.77-2c-1.53-0.46-3.05-0.93-4.57-1.42c-1.17-0.36-2.35-0.74-3.52-1.13
					c-1.17-0.39-2.34-0.77-3.5-1.16c-1.17-0.39-2.32-0.78-3.49-1.19c-1.58-0.54-3.17-1.1-4.74-1.68c-0.38-0.12-0.76-0.25-1.12-0.41
					c-1.21-0.42-2.41-0.87-3.62-1.32c-0.73-0.27-1.46-0.55-2.18-0.83c-0.29-0.1-0.56-0.2-0.83-0.32c-1.03-0.39-2.05-0.79-3.08-1.19
					c-1.72-0.67-3.43-1.35-5.14-2.06c-1.37-0.55-2.72-1.12-4.08-1.68c-2.17-0.91-4.35-1.84-6.49-2.8c-1.35-0.6-2.7-1.2-4.06-1.81
					c-3.76-1.71-7.49-3.47-11.18-5.27c-1.31-0.65-2.63-1.3-3.94-1.96c-0.44-0.22-0.86-0.44-1.29-0.65c-1.14-0.57-2.27-1.16-3.4-1.75
					c-2.98-1.55-5.95-3.14-8.9-4.76c-0.68-0.38-1.35-0.75-2.02-1.13c-0.33-0.18-0.65-0.36-0.98-0.55c-1.03-0.58-2.05-1.15-3.06-1.74
					c-1.72-0.99-3.45-1.99-5.14-3c-1.56-0.93-3.11-1.86-4.65-2.81c-1.47-0.9-2.93-1.81-4.39-2.72c-0.11-0.07-0.21-0.13-0.31-0.2
					c-22.3-14.06-51.48-9.67-68.83,10.17c-0.3,0.34-0.6,0.68-0.9,1.03C436.2,753.68,445.96,796.93,479.84,811.1z"/>
			</g>
			<g class="st7">
				<path d="M699.68,781.83c-0.49,1.15-1.41,2.14-2.84,2.67c-0.04,0.01-0.08,0.03-0.11,0.04c3.9,0.37,7.21,4,7.21,7.92
					c0,0.22-0.01,0.44-0.03,0.65c-43.57-6.74-89.31-5.41-120.87,30.32c-2.61,2.92-4.53,5.94-5.92,9.03
					c-22.47-1.06-44.84-4.68-66.49-10.79C556.52,777.9,633.45,775.54,699.68,781.83z"/>
			</g>
			<g class="st8">
				<path d="M479.84,811.1c0.27,0.11,0.56,0.23,0.83,0.34c1.09,0.44,2.18,0.87,3.27,1.3c2.35,0.92,4.7,1.8,7.08,2.65
					c2.03,0.73,4.09,1.45,6.15,2.13c1.05,0.36,2.12,0.71,3.18,1.06c0.07,0.02,0.14,0.03,0.19,0.06c1.1,0.35,2.21,0.69,3.31,1.04
					c1.12,0.34,2.25,0.69,3.37,1.01c1.12,0.34,2.25,0.66,3.38,0.98c45.9-43.77,122.84-46.13,189.08-39.83
					c0.08-0.18,0.14-0.38,0.22-0.58c0.05-0.21,0.1-0.43,0.14-0.65c0.12-0.85,0.04-1.72-0.22-2.53c-0.08-0.23-0.17-0.46-0.27-0.68
					c-0.71-1.44-2.07-2.59-3.99-2.85c-1.6-0.21-3.22-0.43-4.82-0.66c-0.44-0.07-0.88-0.12-1.32-0.2c-1.61-0.22-3.21-0.47-4.81-0.73
					c-1.82-0.28-3.65-0.59-5.47-0.9c-1.51-0.26-3.02-0.53-4.52-0.8c-0.53-0.1-1.06-0.2-1.6-0.3c-1.27-0.24-2.54-0.48-3.81-0.74
					c-0.51-0.11-1.02-0.2-1.54-0.31c-1.58-0.32-3.15-0.64-4.73-0.99c-0.07-0.02-0.14-0.02-0.2-0.04c-1.63-0.35-3.25-0.71-4.88-1.09
					c-2.06-0.46-4.13-0.95-6.18-1.45c-1.57-0.38-3.12-0.77-4.67-1.17c-0.23-0.05-0.45-0.11-0.68-0.18c-1.58-0.4-3.16-0.82-4.74-1.26
					c-0.12-0.02-0.23-0.05-0.34-0.09c-1.49-0.4-2.98-0.82-4.47-1.24c-2.26-0.64-4.52-1.31-6.77-2c-1.53-0.46-3.05-0.93-4.57-1.42
					c-1.17-0.36-2.35-0.74-3.52-1.13c-1.17-0.38-2.34-0.76-3.5-1.16c-1.17-0.39-2.32-0.78-3.49-1.19c-1.58-0.54-3.17-1.1-4.74-1.68
					c-0.38-0.12-0.76-0.25-1.12-0.41c-1.21-0.42-2.41-0.87-3.62-1.32c-0.73-0.27-1.46-0.55-2.18-0.83c-0.29-0.1-0.56-0.2-0.83-0.32
					c-1.03-0.39-2.05-0.79-3.08-1.19c-1.72-0.67-3.43-1.35-5.14-2.06c-1.37-0.55-2.72-1.12-4.08-1.68c-2.17-0.91-4.35-1.84-6.49-2.8
					c-1.35-0.6-2.7-1.2-4.06-1.81c-3.76-1.71-7.49-3.47-11.18-5.27c-1.31-0.65-2.63-1.3-3.94-1.96c-0.44-0.22-0.86-0.44-1.29-0.65
					c-1.14-0.57-2.27-1.16-3.4-1.75c-2.98-1.55-5.95-3.14-8.9-4.76c-0.68-0.38-1.35-0.75-2.02-1.13c-0.33-0.18-0.65-0.36-0.98-0.55
					c-1.03-0.58-2.05-1.15-3.06-1.74c-1.72-0.99-3.45-1.99-5.14-3c-1.56-0.93-3.11-1.86-4.65-2.81c-1.47-0.9-2.93-1.8-4.39-2.72
					c-0.11-0.07-0.21-0.13-0.31-0.2c-22.3-14.06-51.48-9.67-68.83,10.17c-0.3,0.34-0.6,0.68-0.9,1.03
					C436.2,753.68,445.96,796.93,479.84,811.1z"/>
			</g>
		</g>
		<g>
			<g>
				<path class="st3" d="M255.41,741.9c1.79-6.85,4.4-13.58,7.74-20.06c7.19-13.97,17.79-26.79,31-37.2l32.99,39.68
					c-0.17,0.15-0.34,0.3-0.51,0.46c-5.68,5.32-8.86,12.9-7.92,20.01c0.45,3.49,1.62,6.81,3.35,9.96
					c4.36,8.01,12.24,14.86,20.95,20.3c0.72,0.44,1.44,0.88,2.17,1.31c11.16,6.59,23.74,11.49,36.94,14.6
					c19.75,4.65,40.92,5.3,60.95,1.57c2.34-0.43,4.66-0.92,6.96-1.48c11.36-2.73,22.01-6.75,32.3-11.47
					c20.05-9.18,38.69-20.98,58.36-30.88c1.1-0.56,2.22-1.11,3.34-1.65c10.95-5.36,22.4-10.15,34.2-14.18
					c16.9-5.77,34.53-9.96,52.49-11.97c10.17-1.14,20.44-1.57,30.74-1.18c4.44,0.17,8.88,0.5,13.3,1
					c37.94,4.27,74.4,20.71,94.31,47.42c15.42,20.68,19.85,46.05,14.92,70.05v0.01c-1.12,5.51-2.75,10.93-4.84,16.22
					c-4.3,10.89-10.46,21.18-18.04,30.76c-12.15,15.37-27.97,28.9-45.7,40.09c-6.23,3.94-12.7,7.6-19.37,10.98
					c-17.19,8.72-35.71,15.6-55,20.67c-30.13,7.92-62.12,11.42-93.75,10.56c-11.4-0.31-22.76-1.17-34.02-2.53
					c-26.24-3.15-51.98-9.04-76.7-17.15c-20.27-6.64-39.85-14.77-58.45-24.1c-23.34-11.7-45.44-25.47-64.48-41.53
					c-12.32-10.38-23.37-21.71-32.65-34.08c-1.96-2.61-3.84-5.28-5.63-7.99c-14.1-21.32-22.65-45.34-23.25-69.4
					C251.88,761.06,252.93,751.4,255.41,741.9z"/>
			</g>
			<g>
				<path class="st5" d="M630.72,720.89c5.65,33.93,19.43,67.61,42.26,95.53c22.79,27.85,53.17,51.45,88.14,68.75
					c7.58-9.57,13.73-19.86,18.04-30.76c2.09-5.29,3.71-10.72,4.84-16.22v-0.01c-50.85-27.73-90.04-69.88-109.24-117.47
					c-4.42-0.5-8.86-0.83-13.3-1C651.16,719.33,640.89,719.76,630.72,720.89z"/>
			</g>
			<g>
				<path class="st5" d="M561,878.97c17.98,31.04,46,58,80.06,77.94c19.29-5.07,37.81-11.95,55-20.67
					c-38.51-22.7-70.04-53.42-90.54-88.54c-20.76-35.55-30.16-75.49-27.28-114.84c-11.8,4.03-23.25,8.83-34.2,14.18
					C532.02,790.96,537.54,838.44,561,878.97z"/>
			</g>
			<g>
				<path class="st5" d="M423.52,886.16c0.97,20.91,5.43,41.69,13.07,61.64c24.72,8.1,50.46,13.99,76.7,17.15
					c-33.5-57.08-44.75-123.01-30.95-185.37c-10.29,4.72-20.94,8.75-32.3,11.47c-2.3,0.56-4.62,1.05-6.96,1.48
					C428.88,822.23,422.03,854.11,423.52,886.16z"/>
			</g>
			<g>
				<path class="st5" d="M275.37,840.11c1.79,2.71,3.67,5.37,5.63,7.99c9.29,12.36,20.33,23.7,32.65,34.08
					c15.59-33.57,38.95-64.71,68.46-91.22c-13.2-3.11-25.78-8.01-36.94-14.6c-0.73-0.43-1.45-0.87-2.17-1.31
					C315.24,792.53,291.94,814.86,275.37,840.11z"/>
			</g>
			<g>
				<path class="st5" d="M252.12,770.71c22.62-7.6,45.45-12.8,69.94-15.96c-1.72-3.15-2.89-6.47-3.35-9.96
					c-0.94-7.12,2.24-14.69,7.92-20.01c-20.37-5.36-42.45-6.29-63.48-2.94c-3.34,6.48-5.95,13.21-7.74,20.06
					C252.93,751.4,251.88,761.06,252.12,770.71z"/>
			</g>
			<g class="st6">
				<path d="M255.41,741.9c1.79-6.85,4.4-13.58,7.74-20.06c4.12-8,9.35-15.61,15.55-22.62c-17.7,71.48,11.8,149.68,77.06,184.55
					c60.77,32.72,126.22,50.25,194,45.58c82.63-5.97,168.64-31.48,232.77-85.13c-0.94,3.44-2.05,6.85-3.37,10.19
					c-4.3,10.89-10.46,21.18-18.04,30.76c-12.15,15.37-27.97,28.9-45.7,40.09c-6.23,3.94-12.7,7.6-19.37,10.98
					c-17.19,8.72-35.71,15.6-55,20.67c-30.13,7.92-62.12,11.42-93.75,10.56c-11.4-0.31-22.76-1.17-34.02-2.53
					c-26.24-3.15-51.98-9.04-76.7-17.15c-20.27-6.64-39.85-14.77-58.45-24.1c-23.34-11.7-45.44-25.47-64.48-41.53
					c-12.32-10.38-23.37-21.71-32.65-34.08c-1.96-2.61-3.84-5.28-5.63-7.99c-14.1-21.32-22.65-45.34-23.25-69.4
					C251.88,761.06,252.93,751.4,255.41,741.9z"/>
			</g>
			<g class="st4">
				<path d="M278.71,699.22c4.63-5.23,9.8-10.13,15.44-14.58l16.37,19.69c-29.4,48.24-0.98,112.14,45.25,144.39
					c73.63,51.42,162.45,50.25,247.76,37.4c38.57-4.67,71.29-26.88,99.34-53.76c24.37-22.34,37.76-56.83,37.22-90.08
					c11.5,7.07,21.44,15.72,28.99,25.86c15.42,20.68,19.85,46.05,14.92,70.05v0.01c-0.41,2.02-0.92,4.03-1.46,6.03
					c-64.13,53.66-150.14,79.16-232.77,85.13c-67.78,4.67-133.23-12.86-194-45.58C290.51,848.9,261.01,770.7,278.71,699.22z"/>
			</g>
			<g class="st6">
				<path class="st14" d="M642.28,748.54c7.7-0.14,15.65,0.43,22.56,3.84c6.91,3.41,12.59,10.19,12.76,17.89
					c0.17,7.6-4.82,14.32-10.2,19.68c-14.01,13.97-32.04,23.22-50.4,30.58c-27.59,11.05-56.69,18.34-86.23,21.59
					c-14.88,1.64-30.01,2.25-44.78-0.21c-14.77-2.46-29.25-8.14-40.56-17.95c-3.85-3.34-10.61-10.98-6.69-16.59
					c2.97-4.26,9.9-1.96,14.25-2.05c15.42-0.31,31.53-5.8,45.96-10.85c30.69-10.74,59.62-26,90.55-36.1
					C606.56,752.8,624.27,748.88,642.28,748.54z"/>
			</g>
		</g>
	</g>
</g>
</svg>
