<?xml version="1.0" encoding="utf-8"?>
<!-- Generator: Adobe Illustrator 24.1.2, SVG Export Plug-In . SVG Version: 6.00 Build 0)  -->
<svg version="1.1" xmlns="http://www.w3.org/2000/svg" xmlns:xlink="http://www.w3.org/1999/xlink" x="0px" y="0px"
	 viewBox="0 0 3710 3710" style="enable-background:new 0 0 3710 3710;" xml:space="preserve">
<style type="text/css">
	.st0{fill:#FFFFFF;}
	.st1{opacity:0.3;fill:url(#SVGID_1_);}
	.st2{fill:url(#SVGID_2_);}
	.st3{fill:url(#SVGID_3_);}
	.st4{fill:url(#SVGID_4_);}
	.st5{fill:url(#SVGID_5_);}
	.st6{fill:url(#SVGID_6_);}
	.st7{fill:url(#SVGID_7_);}
	.st8{fill:url(#SVGID_8_);}
	.st9{fill:url(#SVGID_9_);}
	.st10{fill:url(#SVGID_10_);}
	.st11{fill:url(#SVGID_11_);}
	.st12{fill:url(#SVGID_12_);}
	.st13{filter:url(#Adobe_OpacityMaskFilter);}
	.st14{filter:url(#Adobe_OpacityMaskFilter_1_);}
	.st15{mask:url(#SVGID_13_);fill:url(#SVGID_14_);}
	.st16{fill:url(#SVGID_15_);}
	.st17{fill:#D44613;}
	.st18{opacity:0.15;}
	.st19{opacity:0.2;}
	.st20{fill:#77160C;}
	.st21{fill:#630E0A;}
	.st22{opacity:0.3;}
	.st23{opacity:0.1;}
	.st24{fill:#FCE0D9;}
	.st25{fill:#4D0F05;}
	.st26{fill:#BF340A;}
	.st27{fill:#EFC3BD;}
	.st28{opacity:0.5;}
	.st29{fill:#A02924;}
	.st30{opacity:0.07;}
</style>
<g id="Background">
	<g>
		<g>
			<rect class="st0" width="3710" height="3710"/>
		</g>
	</g>
</g>
<g id="Illustration">
	<g>
		<linearGradient id="SVGID_1_" gradientUnits="userSpaceOnUse" x1="3507.1248" y1="3700.2979" x2="1537.3507" y2="1603.442">
			<stop  offset="0" style="stop-color:#B37CFF"/>
			<stop  offset="1" style="stop-color:#F895E7"/>
		</linearGradient>
		<path class="st1" d="M2915.7,2859.05c-72.72,74.95-137.78,119.01-187.59,152.28c-485.84,324.4-1041.2,230.9-1212.91,198.94
			c-277.02-51.56-510.87-87.93-711.79-269.45C346.87,2528.34,369.08,1667.9,717.93,1134.9c41.36-63.2,389.69-579.53,946.26-652.28
			c13.61-1.78,23.77-2.79,32.67-3.73c86.1-9.12,619.64-57.23,1054.69,307.26c62.28,52.17,162.49,146.28,255.43,289.81
			C3346.79,1600.77,3347.86,2413.59,2915.7,2859.05z"/>
		<g>
			
				<linearGradient id="SVGID_2_" gradientUnits="userSpaceOnUse" x1="6423.8647" y1="654.7496" x2="7698.5596" y2="654.7496" gradientTransform="matrix(0.9241 0.3823 -0.3823 0.9241 -5471.54 -1929.6399)">
				<stop  offset="0" style="stop-color:#B37CFF"/>
				<stop  offset="1" style="stop-color:#F895E7"/>
			</linearGradient>
			<path class="st2" d="M497.14,454.07c-3.16-13.44,15.75-22.37,27.32-12.98c117.54,95.32,399.97,380.75,329.58,879.55
				c-88.31,625.83,62.67,854.19,250.59,993.48c0,0-258.08-65.51-420.46-297.23C285.51,1447.98,553.27,693.01,497.14,454.07z"/>
			<path class="st0" d="M586.59,649.55c14.7,69.67,27.81,139.55,37.94,209.75c10.55,70.14,18.64,140.52,24.17,211.02
				c5.22,70.51,8.91,141.1,9.12,211.71c0.58,70.61-2.36,141.17-5.59,212c-2.77,70.8-6.04,142.12-0.85,213.94
				c5.1,71.67,20.18,143.97,50.12,211.75c7.48,16.89,15.35,33.73,24.29,50c8.59,16.42,18.03,32.52,27.8,48.46
				c19.73,31.81,41.93,62.55,66.68,91.72c49.67,58.25,109.57,109.92,175.57,153.65c6.95,4.6,16.9,3.47,22.23-2.53
				c5.23-5.89,4.06-14.28-2.56-18.94l-0.05-0.03c-15.7-11.03-31.24-22.2-46.15-33.93c-7.56-5.76-14.81-11.8-22.19-17.72
				c-7.11-6.15-14.5-12.07-21.39-18.41c-28.02-24.94-53.98-51.55-77.53-79.69c-47.37-56.01-85.3-118.42-114.03-183.13
				c-13.95-32.5-25.1-65.83-33.24-99.79c-8.11-33.97-13.21-68.52-16.03-103.36c-5.65-69.71-3.1-140.32-0.91-211.13
				c2.08-70.83,3.6-142.03,1.74-213.17c-0.82-35.57-2.39-71.12-4.69-106.62c-1.03-17.76-2.46-35.5-3.85-53.23
				c-1.59-17.73-3.29-35.44-5.16-53.14c-7.63-70.79-17.76-141.35-30.45-211.53c-13.08-70.13-28.32-139.94-46.64-209.12
				c-0.52-1.98-2.8-3.21-5.09-2.76C587.61,645.75,586.19,647.63,586.59,649.55z"/>
		</g>
		<g>
			
				<linearGradient id="SVGID_3_" gradientUnits="userSpaceOnUse" x1="7628.0532" y1="41.7776" x2="8902.748" y2="41.7776" gradientTransform="matrix(-0.9803 0.0888 0.0769 0.9944 10787.9756 600.3536)">
				<stop  offset="0" style="stop-color:#B37CFF"/>
				<stop  offset="1" style="stop-color:#F895E7"/>
			</linearGradient>
			<path class="st3" d="M3254.64,589.84c7.03-11.86-7.93-26.01-21.61-20.51c-138.87,55.78-489.67,243.55-575.32,739.78
				c-107.46,622.6-318,795.17-536.04,871.88c0,0,261.25,14.51,483.47-157.87C3150.74,1599.89,3129.59,800.77,3254.64,589.84z"/>
			<path class="st0" d="M3111.63,749.42c-34.91,62-68.39,124.67-99.18,188.54c-31.17,63.68-60.1,128.33-86.69,193.85
				c-26.29,65.63-51.18,131.78-72.82,199c-21.98,67.11-40.66,135.2-59.15,203.65c-18.91,68.29-37.51,137.21-64.17,204.09
				c-26.53,66.77-62.6,131.16-111.18,186.81c-12.13,13.86-24.6,27.56-37.9,40.4c-13.02,13.08-26.74,25.61-40.72,37.89
				c-28.11,24.43-58.21,47.1-90.21,67.52c-64.14,40.69-135.85,72.07-210.84,94.06c-7.89,2.31-16.86-1.73-20.02-9.03
				c-3.11-7.17,0.54-14.82,8.14-17.28l0.05-0.02c18.03-5.83,35.96-11.84,53.46-18.57c8.82-3.24,17.44-6.83,26.14-10.27
				c8.52-3.74,17.23-7.18,25.59-11.17c33.78-15.41,66.14-33.03,96.71-52.81c61.31-39.24,115.73-87.41,162.25-140.49
				c22.91-26.81,43.46-55.24,61.39-85.17c17.9-29.95,33.17-61.35,46.38-93.7c26.45-64.73,45.51-132.77,64.97-200.89
				c19.57-68.11,39.76-136.4,63.11-203.62c11.57-33.64,23.83-67.05,36.76-100.19c6.36-16.61,13.08-33.09,19.77-49.57
				c6.87-16.42,13.84-32.79,20.97-49.09c28.63-65.18,59.53-129.38,92.72-192.47c33.53-62.92,68.98-124.89,107.12-185.34
				c1.09-1.73,3.6-2.23,5.6-1.11C3111.84,745.5,3112.59,747.71,3111.63,749.42z"/>
		</g>
		<g>
			<g>
				
					<linearGradient id="SVGID_4_" gradientUnits="userSpaceOnUse" x1="-963.7315" y1="3956.5581" x2="258.773" y2="3956.5581" gradientTransform="matrix(0.6312 -0.7758 0.7758 0.6312 -1946.3445 -1491.1105)">
					<stop  offset="0" style="stop-color:#B37CFF"/>
					<stop  offset="1" style="stop-color:#F895E7"/>
				</linearGradient>
				<path class="st4" d="M801.63,1952.05c-14.41,15.29-39.76,10.89-48.43-8.25c-47.84-105.61-156.09-416.45,22.69-774.56
					c150.98-302.4,204.11-480.73,222.62-563.35c3.91-17.47,27.86-19.79,35.08-3.41C1113.34,783.22,1323.87,1397.96,801.63,1952.05z"
					/>
				<path class="st0" d="M775.46,1940.91c-0.51,0.09-1.04,0.14-1.58,0.13c-4.53-0.07-8.15-3.8-8.08-8.33
					c0.08-5.14,10.07-518.49,201.01-948.44c1.84-4.14,6.68-6,10.83-4.17c4.14,1.84,6.01,6.69,4.17,10.83
					c-189.54,426.82-199.52,936.93-199.6,942.03C782.14,1936.95,779.24,1940.23,775.46,1940.91z"/>
			</g>
		</g>
		<g>
			<linearGradient id="SVGID_5_" gradientUnits="userSpaceOnUse" x1="1888.2786" y1="4522.2041" x2="1853.1301" y2="1276.7944">
				<stop  offset="0" style="stop-color:#CB236D"/>
				<stop  offset="1" style="stop-color:#4C246D"/>
			</linearGradient>
			<path class="st5" d="M512.6,1991.74l28.56,888.15c4.98,154.87,132.07,278.11,287.75,279.03l2126.82,12.54
				c104.04,0.61,192.68-74.99,207.87-177.44c33.26-224.29,75.63-625.6,27.92-1002.27H512.6z"/>
			<path class="st0" d="M2911.71,3120.65c-3.4,0-6.21-2.69-6.34-6.11c-0.13-3.5,2.6-6.45,6.11-6.58c12.3-0.46,24.58-2.09,36.49-4.87
				c3.39-0.79,6.82,1.34,7.62,4.75c0.8,3.41-1.33,6.83-4.74,7.62c-12.69,2.95-25.78,4.7-38.89,5.19
				C2911.87,3120.65,2911.79,3120.65,2911.71,3120.65z M2822.87,3120.31c-0.01,0-0.02,0-0.04,0l-38.08-0.22
				c-3.51-0.03-6.33-2.88-6.31-6.38c0.02-3.5,2.86-6.31,6.35-6.31c0.01,0,0.03,0,0.04,0l38.08,0.22c3.51,0.02,6.33,2.88,6.31,6.38
				C2829.19,3117.5,2826.36,3120.31,2822.87,3120.31z M2695.93,3119.57c-0.01,0-0.02,0-0.04,0l-38.07-0.22
				c-3.51-0.03-6.33-2.88-6.31-6.38c0.02-3.5,2.86-6.31,6.35-6.31c0.01,0,0.03,0,0.04,0l38.07,0.22c3.51,0.02,6.33,2.88,6.31,6.38
				C2702.26,3116.75,2699.42,3119.57,2695.93,3119.57z M2569.01,3118.81c-0.01,0-0.02,0-0.04,0l-38.08-0.22
				c-3.51-0.02-6.33-2.88-6.31-6.38c0.02-3.5,2.86-6.31,6.35-6.31c0.01,0,0.03,0,0.04,0l38.08,0.22c3.51,0.03,6.33,2.88,6.31,6.38
				C2575.34,3116,2572.5,3118.81,2569.01,3118.81z M2442.08,3118.07c-0.01,0-0.02,0-0.04,0l-38.08-0.22
				c-3.51-0.02-6.33-2.88-6.31-6.38c0.02-3.51,3.4-6.35,6.38-6.31l38.08,0.22c3.51,0.03,6.33,2.88,6.31,6.38
				C2448.41,3115.25,2445.57,3118.07,2442.08,3118.07z M2315.14,3117.32c-0.01,0-0.02,0-0.04,0l-38.07-0.22
				c-3.51-0.02-6.33-2.88-6.31-6.38c0.02-3.5,2.86-6.31,6.35-6.31c0.01,0,0.03,0,0.04,0l38.07,0.22c3.51,0.03,6.33,2.88,6.31,6.38
				C2321.47,3114.51,2318.63,3117.32,2315.14,3117.32z M2188.22,3116.57c-0.01,0-0.02,0-0.04,0l-38.08-0.22
				c-3.51-0.03-6.33-2.88-6.31-6.38c0.02-3.5,2.86-6.31,6.35-6.31c0.01,0,0.03,0,0.04,0l38.08,0.22c3.51,0.03,6.33,2.88,6.31,6.38
				C2194.55,3113.75,2191.71,3116.57,2188.22,3116.57z M2061.29,3115.83c-0.01,0-0.02,0-0.04,0l-38.08-0.22
				c-3.51-0.03-6.33-2.88-6.31-6.38c0.02-3.49,2.86-6.31,6.35-6.31c0.01,0,0.03,0,0.04,0l38.08,0.22c3.51,0.02,6.33,2.88,6.31,6.38
				C2067.62,3113.01,2064.78,3115.83,2061.29,3115.83z M1934.36,3115.08c-0.01,0-0.02,0-0.04,0l-38.08-0.22
				c-3.51-0.03-6.33-2.88-6.31-6.38c0.02-3.49,2.86-6.31,6.35-6.31c0.01,0,0.03,0,0.04,0l38.08,0.22c3.51,0.02,6.33,2.88,6.31,6.38
				C1940.69,3112.27,1937.85,3115.08,1934.36,3115.08z M1807.43,3114.32c-0.01,0-0.02,0-0.04,0l-38.08-0.22
				c-3.51-0.02-6.33-2.88-6.31-6.38c0.02-3.5,2.86-6.31,6.35-6.31c0.01,0,0.03,0,0.04,0l38.08,0.22c3.51,0.02,6.33,2.88,6.31,6.38
				C1813.76,3111.51,1810.92,3114.32,1807.43,3114.32z M1680.5,3113.58c-0.01,0-0.02,0-0.04,0l-38.08-0.22
				c-3.51-0.02-6.33-2.88-6.31-6.38c0.02-3.5,2.86-6.31,6.35-6.31c0.01,0,0.03,0,0.04,0l38.08,0.22c3.51,0.02,6.33,2.88,6.31,6.38
				C1686.83,3110.77,1683.99,3113.58,1680.5,3113.58z M1553.57,3112.84c-0.01,0-0.03,0-0.04,0l-38.08-0.22
				c-3.51-0.02-6.33-2.88-6.31-6.38c0.02-3.5,2.86-6.31,6.35-6.31c0.01,0,0.02,0,0.04,0l38.08,0.22c3.51,0.03,6.33,2.88,6.31,6.38
				C1559.9,3110.02,1557.06,3112.84,1553.57,3112.84z M1426.64,3112.08c-0.01,0-0.03,0-0.04,0l-38.08-0.22
				c-3.51-0.03-6.33-2.88-6.31-6.38c0.02-3.5,2.86-6.31,6.35-6.31c0.01,0,0.02,0,0.04,0l38.08,0.22c3.51,0.03,6.33,2.88,6.31,6.38
				C1432.97,3109.27,1430.13,3112.08,1426.64,3112.08z M1299.71,3111.34c-0.01,0-0.03,0-0.04,0l-38.08-0.22
				c-3.51-0.03-6.33-2.88-6.31-6.38c0.02-3.5,2.86-6.31,6.35-6.31c0.01,0,0.02,0,0.04,0l38.08,0.22c3.51,0.03,6.33,2.88,6.31,6.38
				C1306.04,3108.52,1303.2,3111.34,1299.71,3111.34z M1172.78,3110.59c-0.01,0-0.03,0-0.04,0l-38.08-0.22
				c-3.51-0.03-6.33-2.88-6.31-6.38c0.02-3.51,3.31-5.88,6.38-6.31l38.08,0.22c3.51,0.03,6.33,2.88,6.31,6.38
				C1179.11,3107.78,1176.27,3110.59,1172.78,3110.59z M1045.85,3109.84c-0.01,0-0.03,0-0.04,0l-38.08-0.22
				c-3.51-0.03-6.33-2.88-6.31-6.38c0.02-3.5,2.86-6.31,6.35-6.31c0.01,0,0.02,0,0.04,0l38.08,0.22c3.51,0.02,6.33,2.88,6.31,6.38
				C1052.18,3107.02,1049.34,3109.84,1045.85,3109.84z M918.92,3109.09c-0.01,0-0.03,0-0.04,0l-38.08-0.22
				c-3.51-0.03-6.33-2.88-6.31-6.38c0.02-3.5,2.86-6.31,6.35-6.31c0.01,0,0.02,0,0.04,0l38.08,0.22c3.51,0.02,6.33,2.88,6.31,6.38
				C925.25,3106.28,922.41,3109.09,918.92,3109.09z M793.5,3094.91c-0.66,0-1.33-0.1-1.99-0.32c-12.24-4.04-24.36-9-36.02-14.75
				c-3.14-1.55-4.44-5.36-2.89-8.49c1.56-3.14,5.35-4.42,8.5-2.89c11.12,5.48,22.7,10.21,34.38,14.08c3.33,1.1,5.14,4.69,4.03,8.02
				C798.64,3093.23,796.16,3094.91,793.5,3094.91z M3028.67,3077.16c-1.87,0-3.71-0.82-4.96-2.38c-2.19-2.74-1.75-6.73,0.98-8.93
				c9.61-7.68,18.49-16.31,26.41-25.62c2.26-2.68,6.25-3.01,8.94-0.73c2.67,2.27,3,6.27,0.72,8.95
				c-8.44,9.93-17.91,19.13-28.14,27.32C3031.46,3076.7,3030.06,3077.16,3028.67,3077.16z M686.28,3029.2
				c-1.61,0-3.23-0.61-4.46-1.83c-9.24-9.14-17.89-18.96-25.73-29.22c-2.13-2.78-1.6-6.77,1.18-8.9c2.78-2.12,6.78-1.6,8.89,1.19
				c7.49,9.78,15.76,19.18,24.58,27.9c2.49,2.47,2.52,6.48,0.05,8.97C689.56,3028.57,687.92,3029.2,686.28,3029.2z M3096.56,2972.53
				c-0.53,0-1.07-0.06-1.6-0.2c-3.39-0.88-5.43-4.35-4.55-7.74c1.69-6.54,3.06-13.25,4.04-19.94l2.47-16.85
				c0.5-3.47,3.66-5.91,7.19-5.38c3.47,0.51,5.88,3.73,5.37,7.19l-2.47,16.9c-1.05,7.13-2.5,14.28-4.31,21.26
				C3101.96,2970.63,3099.38,2972.53,3096.56,2972.53z M619.41,2922.62c-2.64,0-5.11-1.66-6.01-4.3
				c-4.17-12.21-7.51-24.88-9.93-37.63c-0.66-3.44,1.61-6.77,5.05-7.42c3.42-0.63,6.77,1.61,7.42,5.04
				c2.31,12.19,5.5,24.27,9.48,35.92c1.13,3.31-0.64,6.92-3.95,8.06C620.78,2922.51,620.1,2922.62,619.41,2922.62z M3115.02,2846.97
				c-0.26,0-0.52-0.01-0.79-0.05c-3.48-0.43-5.95-3.59-5.52-7.08c1.52-12.28,3.03-24.87,4.52-37.76c0.4-3.48,3.59-5.97,7.03-5.58
				c3.48,0.41,5.97,3.56,5.57,7.04c-1.49,12.92-3.01,25.55-4.54,37.86C3120.92,2844.62,3118.18,2846.97,3115.02,2846.97z
				 M603.54,2797.35c-3.41,0-6.23-2.7-6.33-6.15l-1.23-38.07c-0.12-3.5,2.63-6.43,6.14-6.54c3.21-0.16,6.43,2.63,6.54,6.15
				l1.23,38.07c0.12,3.5-2.63,6.43-6.14,6.54C603.68,2797.35,603.62,2797.35,603.54,2797.35z M3128.89,2720.79
				c-0.2,0-0.4-0.01-0.61-0.03c-3.49-0.33-6.05-3.43-5.71-6.93c1.18-12.43,2.34-25.06,3.46-37.87c0.3-3.5,3.33-5.89,6.87-5.78
				c3.49,0.3,6.07,3.38,5.77,6.87c-1.12,12.85-2.27,25.51-3.47,37.99C3134.89,2718.33,3132.13,2720.79,3128.89,2720.79z
				 M599.46,2670.48c-3.41,0-6.23-2.72-6.33-6.15l-1.22-38.05c-0.12-3.5,2.63-6.43,6.14-6.55c3.43-0.05,6.43,2.64,6.54,6.15
				l1.22,38.06c0.12,3.5-2.63,6.43-6.14,6.54C599.6,2670.48,599.53,2670.48,599.46,2670.48z M3139.14,2594.25
				c-0.14,0-0.28,0-0.43-0.01c-3.49-0.24-6.14-3.26-5.91-6.76c0.83-12.52,1.61-25.18,2.33-37.96c0.19-3.5,3.21-6.27,6.69-5.97
				c3.5,0.2,6.18,3.19,5.98,6.69c-0.72,12.8-1.5,25.51-2.33,38.08C3145.25,2591.67,3142.46,2594.25,3139.14,2594.25z
				 M595.38,2543.61c-3.41,0-6.23-2.72-6.33-6.15l-1.22-38.05c-0.12-3.5,2.63-6.43,6.14-6.55c3.4-0.25,6.44,2.65,6.54,6.15
				l1.22,38.05c0.12,3.5-2.63,6.43-6.14,6.55C595.52,2543.61,595.45,2543.61,595.38,2543.61z M3145.52,2467.47
				c-0.07,0-0.15,0-0.22,0c-3.5-0.12-6.25-3.06-6.12-6.56c0.42-12.59,0.79-25.26,1.1-38c0.09-3.52,3.45-6.07,6.5-6.2
				c3.51,0.09,6.28,2.99,6.2,6.5c-0.3,12.79-0.68,25.51-1.11,38.13C3151.74,2464.77,3148.92,2467.47,3145.52,2467.47z
				 M591.3,2416.76c-3.41,0-6.23-2.71-6.33-6.15l-1.22-38.07c-0.12-3.5,2.63-6.43,6.14-6.54c3.37,0.19,6.44,2.65,6.54,6.15
				l1.22,38.07c0.12,3.5-2.63,6.43-6.14,6.54C591.44,2416.76,591.37,2416.76,591.3,2416.76z M3147.65,2340.54
				c-3.5,0-6.34-2.84-6.35-6.33c-0.02-12.62-0.11-25.29-0.27-38.02c-0.04-3.5,2.76-6.37,6.27-6.42c3.11,0.04,6.38,2.75,6.43,6.27
				c0.16,12.76,0.25,25.47,0.27,38.14C3154,2337.68,3151.16,2340.54,3147.65,2340.54L3147.65,2340.54z M587.22,2289.89
				c-3.41,0-6.23-2.7-6.33-6.15l-1.23-38.07c-0.12-3.5,2.64-6.43,6.14-6.54c2.98-0.07,6.44,2.61,6.55,6.15l1.23,38.07
				c0.12,3.5-2.63,6.43-6.14,6.54C587.37,2289.89,587.3,2289.89,587.22,2289.89z M3144.97,2213.65c-3.38,0-6.19-2.67-6.33-6.09
				c-0.53-12.63-1.13-25.29-1.83-37.94c-0.2-3.5,2.49-6.49,5.99-6.68c3.47-0.3,6.48,2.48,6.68,5.99
				c0.71,12.71,1.31,25.41,1.84,38.12c0.15,3.5-2.57,6.46-6.07,6.61C3145.15,2213.65,3145.06,2213.65,3144.97,2213.65z
				 M583.14,2163.02c-3.41,0-6.23-2.7-6.34-6.15l-1.23-38.05c-0.12-3.5,2.63-6.43,6.14-6.54c2.99-0.36,6.44,2.63,6.54,6.15
				l1.23,38.04c0.12,3.51-2.63,6.45-6.14,6.56C583.29,2163.02,583.22,2163.02,583.14,2163.02z M3136.81,2086.98
				c-3.25,0-6.02-2.48-6.31-5.79c-1.12-12.61-2.33-25.23-3.64-37.81c-0.37-3.48,2.16-6.61,5.65-6.97c3.49-0.35,6.61,2.17,6.97,5.65
				c1.31,12.66,2.53,25.32,3.66,38c0.31,3.48-2.27,6.57-5.76,6.88C3137.19,2086.97,3137,2086.98,3136.81,2086.98z M579.06,2036.15
				c-3.41,0-6.23-2.72-6.33-6.15l-1.22-38.05c-0.12-3.5,2.63-6.43,6.14-6.55c3.01-0.04,6.43,2.63,6.54,6.15l1.22,38.06
				c0.12,3.49-2.63,6.43-6.14,6.54C579.2,2036.15,579.13,2036.15,579.06,2036.15z M3089.76,1998.09h-38.08
				c-3.51,0-6.35-2.84-6.35-6.35c0-3.51,2.84-6.35,6.35-6.35h38.08c3.51,0,6.35,2.84,6.35,6.35
				C3096.11,1995.25,3093.27,1998.09,3089.76,1998.09z M2962.83,1998.09h-38.08c-3.51,0-6.35-2.84-6.35-6.35
				c0-3.51,2.84-6.35,6.35-6.35h38.08c3.51,0,6.35,2.84,6.35,6.35C2969.18,1995.25,2966.34,1998.09,2962.83,1998.09z
				 M2835.9,1998.09h-38.08c-3.51,0-6.35-2.84-6.35-6.35c0-3.51,2.84-6.35,6.35-6.35h38.08c3.51,0,6.35,2.84,6.35,6.35
				C2842.25,1995.25,2839.41,1998.09,2835.9,1998.09z M2708.97,1998.09h-38.08c-3.51,0-6.35-2.84-6.35-6.35
				c0-3.51,2.84-6.35,6.35-6.35h38.08c3.51,0,6.35,2.84,6.35,6.35C2715.32,1995.25,2712.48,1998.09,2708.97,1998.09z
				 M2582.04,1998.09h-38.08c-3.51,0-6.35-2.84-6.35-6.35c0-3.51,2.84-6.35,6.35-6.35h38.08c3.51,0,6.35,2.84,6.35,6.35
				C2588.38,1995.25,2585.55,1998.09,2582.04,1998.09z M2455.1,1998.09h-38.08c-3.51,0-6.35-2.84-6.35-6.35
				c0-3.51,2.84-6.35,6.35-6.35h38.08c3.51,0,6.35,2.84,6.35,6.35C2461.45,1995.25,2458.61,1998.09,2455.1,1998.09z
				 M2328.17,1998.09h-38.08c-3.51,0-6.35-2.84-6.35-6.35c0-3.51,2.84-6.35,6.35-6.35h38.08c3.51,0,6.35,2.84,6.35,6.35
				C2334.52,1995.25,2331.68,1998.09,2328.17,1998.09z M2201.24,1998.09h-38.08c-3.51,0-6.35-2.84-6.35-6.35
				c0-3.51,2.84-6.35,6.35-6.35h38.08c3.51,0,6.35,2.84,6.35,6.35C2207.59,1995.25,2204.75,1998.09,2201.24,1998.09z
				 M2074.31,1998.09h-38.08c-3.51,0-6.35-2.84-6.35-6.35c0-3.51,2.84-6.35,6.35-6.35h38.08c3.51,0,6.35,2.84,6.35,6.35
				C2080.66,1995.25,2077.82,1998.09,2074.31,1998.09z M1947.38,1998.09h-38.08c-3.51,0-6.35-2.84-6.35-6.35
				c0-3.51,2.84-6.35,6.35-6.35h38.08c3.51,0,6.35,2.84,6.35,6.35C1953.72,1995.25,1950.89,1998.09,1947.38,1998.09z
				 M1820.45,1998.09h-38.08c-3.51,0-6.35-2.84-6.35-6.35c0-3.51,2.84-6.35,6.35-6.35h38.08c3.51,0,6.35,2.84,6.35,6.35
				C1826.79,1995.25,1823.95,1998.09,1820.45,1998.09z M1693.51,1998.09h-38.08c-3.51,0-6.35-2.84-6.35-6.35
				c0-3.51,2.84-6.35,6.35-6.35h38.08c3.51,0,6.35,2.84,6.35,6.35C1699.86,1995.25,1697.02,1998.09,1693.51,1998.09z
				 M1566.58,1998.09h-38.08c-3.51,0-6.35-2.84-6.35-6.35c0-3.51,2.84-6.35,6.35-6.35h38.08c3.51,0,6.35,2.84,6.35,6.35
				C1572.93,1995.25,1570.09,1998.09,1566.58,1998.09z M1439.65,1998.09h-38.08c-3.51,0-6.35-2.84-6.35-6.35
				c0-3.51,2.84-6.35,6.35-6.35h38.08c3.51,0,6.35,2.84,6.35,6.35C1446,1995.25,1443.16,1998.09,1439.65,1998.09z M1312.72,1998.09
				h-38.08c-3.51,0-6.35-2.84-6.35-6.35c0-3.51,2.84-6.35,6.35-6.35h38.08c3.51,0,6.35,2.84,6.35,6.35
				C1319.06,1995.25,1316.23,1998.09,1312.72,1998.09z M1185.79,1998.09h-38.08c-3.51,0-6.35-2.84-6.35-6.35
				c0-3.51,2.84-6.35,6.35-6.35h38.08c3.51,0,6.35,2.84,6.35,6.35C1192.13,1995.25,1189.29,1998.09,1185.79,1998.09z
				 M1058.85,1998.09h-38.08c-3.51,0-6.35-2.84-6.35-6.35c0-3.51,2.84-6.35,6.35-6.35h38.08c3.51,0,6.35,2.84,6.35,6.35
				C1065.2,1995.25,1062.36,1998.09,1058.85,1998.09z M931.92,1998.09h-38.08c-3.51,0-6.35-2.84-6.35-6.35
				c0-3.51,2.84-6.35,6.35-6.35h38.08c3.51,0,6.35,2.84,6.35,6.35C938.27,1995.25,935.43,1998.09,931.92,1998.09z M804.99,1998.09
				h-38.08c-3.51,0-6.35-2.84-6.35-6.35c0-3.51,2.84-6.35,6.35-6.35h38.08c3.51,0,6.35,2.84,6.35,6.35
				C811.34,1995.25,808.5,1998.09,804.99,1998.09z M678.06,1998.09h-38.08c-3.51,0-6.35-2.84-6.35-6.35c0-3.51,2.84-6.35,6.35-6.35
				h38.08c3.51,0,6.35,2.84,6.35,6.35C684.4,1995.25,681.57,1998.09,678.06,1998.09z"/>
			<linearGradient id="SVGID_6_" gradientUnits="userSpaceOnUse" x1="1326.9402" y1="1524.6025" x2="1311.3184" y2="1145.7776">
				<stop  offset="0" style="stop-color:#CB236D"/>
				<stop  offset="1" style="stop-color:#4C246D"/>
			</linearGradient>
			<path class="st6" d="M1135.9,1346.99l6.4-68.5c7.22-16.35,22.22-27.93,39.94-30.75c66.26-10.55,230.59-29.09,309.71,30.04
				l11.82,79.6L1135.9,1346.99z"/>
			<linearGradient id="SVGID_7_" gradientUnits="userSpaceOnUse" x1="1307.1626" y1="955.8441" x2="1385.2708" y2="2041.55">
				<stop  offset="0" style="stop-color:#CB236D"/>
				<stop  offset="1" style="stop-color:#4C246D"/>
			</linearGradient>
			<path class="st7" d="M1342.88,1281.09c-15.25,3.72-30.54,3.71-45.85-0.05c-18.52-4.55-31.59-21.13-31.59-40.12l0-214.48h109.15
				l0,214.32C1374.59,1259.83,1361.49,1276.54,1342.88,1281.09z"/>
			<linearGradient id="SVGID_8_" gradientUnits="userSpaceOnUse" x1="2382.3533" y1="1481.08" x2="2366.7314" y2="1102.2549">
				<stop  offset="0" style="stop-color:#CB236D"/>
				<stop  offset="1" style="stop-color:#4C246D"/>
			</linearGradient>
			<path class="st8" d="M2193.1,1346.99l6.4-68.5c7.22-16.35,22.22-27.93,39.94-30.75c66.26-10.55,230.59-29.09,309.71,30.04
				l11.82,79.6L2193.1,1346.99z"/>
			<linearGradient id="SVGID_9_" gradientUnits="userSpaceOnUse" x1="2359.7361" y1="880.1197" x2="2437.844" y2="1965.8243">
				<stop  offset="0" style="stop-color:#CB236D"/>
				<stop  offset="1" style="stop-color:#4C246D"/>
			</linearGradient>
			<path class="st9" d="M2400.08,1281.09c-15.26,3.72-30.54,3.71-45.85-0.05c-18.53-4.55-31.59-21.13-31.59-40.12l0-237.08h109.15
				l0,236.92C2431.8,1259.83,2418.7,1276.54,2400.08,1281.09z"/>
			<linearGradient id="SVGID_10_" gradientUnits="userSpaceOnUse" x1="1926.1959" y1="351.4151" x2="1820.7487" y2="1124.6915">
				<stop  offset="0" style="stop-color:#CB236D"/>
				<stop  offset="1" style="stop-color:#4C246D"/>
			</linearGradient>
			<path class="st10" d="M1254.35,1079.01l1173.85-38.86c26.76-0.89,49.47-20.19,54.07-46.45c6.43-36.75,12.1-91.76,3.65-148.79
				c-9.61-64.85-65.4-113.03-131.24-114.59c-218.98-5.21-776.46-5.05-1083.71,116.48c-32.5,12.85-56.6,40.63-64.83,74.46
				c-7.85,32.26-13.06,75.35-2.81,119.2C1208.77,1063.75,1230.33,1079.8,1254.35,1079.01z"/>
			<path class="st0" d="M1234.02,1025.53c-6.44,0-11.96-4.87-12.62-11.42c-0.19-1.92-4.6-47.39,7.25-91.18
				c9.42-34.79,36.93-62.76,71.81-73c65.73-19.29,191.39-52.07,294.36-54.98c7.05-0.17,12.85,5.34,13.04,12.33
				c0.2,7.02-5.32,12.85-12.33,13.05c-100.11,2.8-223.36,35.01-287.92,53.96c-26.46,7.76-47.32,28.93-54.45,55.26
				c-10.64,39.32-6.54,81.58-6.49,82c0.7,6.98-4.38,13.2-11.35,13.91C1234.87,1025.5,1234.44,1025.53,1234.02,1025.53z"/>
			<linearGradient id="SVGID_11_" gradientUnits="userSpaceOnUse" x1="1957.9999" y1="953.6334" x2="1571.3636" y2="4562.2407">
				<stop  offset="0" style="stop-color:#CB236D"/>
				<stop  offset="1" style="stop-color:#4C246D"/>
			</linearGradient>
			<path class="st11" d="M591.27,1320.31c379.23-4.85,2019.77-22.09,2496.31,35.41c41.03,4.95,74.51,34.97,83.4,75.14
				c28.16,127.3,84.81,423.02,78.09,716.16c-0.91,39.89-30.16,73.55-69.55,81l-1087.78,205.79h-386.4L546.29,2203.42
				c-40.85-8.12-70.97-42.72-73.08-84.13c-7.53-147.48-19.31-493.51,20.57-716.25C502.26,1355.71,542.97,1320.92,591.27,1320.31z"/>
			<path class="st0" d="M1714.57,2346.42c-0.41,0-0.83-0.04-1.25-0.12l-37.35-7.43c-3.43-0.68-5.67-4.02-4.98-7.46
				c0.69-3.42,3.98-5.74,7.46-4.98l37.01,7.36c0.28-0.04,0.56-0.06,0.85-0.06h38.08c3.51,0,6.35,2.84,6.35,6.35
				c0,3.51-2.84,6.35-6.35,6.35h-38.08c-0.3,0-0.59-0.02-0.87-0.06C1715.16,2346.4,1714.87,2346.42,1714.57,2346.42z
				 M2008.27,2346.42h-38.08c-3.51,0-6.35-2.84-6.35-6.35c0-3.51,2.84-6.35,6.35-6.35h38.08c3.51,0,6.35,2.84,6.35,6.35
				C2014.61,2343.59,2011.77,2346.42,2008.27,2346.42z M1881.33,2346.42h-38.08c-3.51,0-6.35-2.84-6.35-6.35
				c0-3.51,2.84-6.35,6.35-6.35h38.08c3.51,0,6.35,2.84,6.35,6.35C1887.68,2343.59,1884.84,2346.42,1881.33,2346.42z
				 M2096.86,2343.8c-2.99,0-5.65-2.12-6.23-5.17c-0.65-3.45,1.61-6.77,5.06-7.41l37.42-7.08c3.48-0.62,6.77,1.61,7.41,5.06
				c0.65,3.45-1.61,6.77-5.06,7.41l-37.42,7.08C2097.65,2343.76,2097.25,2343.8,2096.86,2343.8z M1590.08,2321.68
				c-0.41,0-0.83-0.04-1.25-0.12l-37.35-7.42c-3.43-0.68-5.67-4.03-4.98-7.46c0.68-3.42,3.96-5.67,7.46-4.98l37.35,7.43
				c3.43,0.68,5.67,4.02,4.98,7.46C1595.69,2319.59,1593.05,2321.68,1590.08,2321.68z M2221.58,2320.19c-2.99,0-5.65-2.12-6.23-5.17
				c-0.65-3.45,1.61-6.77,5.06-7.41l37.42-7.08c3.43-0.66,6.76,1.61,7.41,5.06c0.65,3.45-1.61,6.77-5.06,7.41l-37.42,7.08
				C2222.37,2320.16,2221.97,2320.19,2221.58,2320.19z M1465.58,2296.93c-0.41,0-0.83-0.04-1.25-0.12l-37.35-7.42
				c-3.43-0.68-5.67-4.02-4.98-7.46c0.68-3.42,3.99-5.69,7.46-4.98l37.35,7.43c3.43,0.68,5.67,4.02,4.98,7.46
				C1471.2,2294.83,1468.55,2296.93,1465.58,2296.93z M2346.3,2296.61c-2.99,0-5.65-2.12-6.23-5.17c-0.65-3.45,1.61-6.77,5.06-7.41
				l37.42-7.08c3.44-0.6,6.76,1.61,7.41,5.06c0.65,3.45-1.61,6.77-5.06,7.41l-37.42,7.08
				C2347.09,2296.57,2346.69,2296.61,2346.3,2296.61z M2471.02,2273c-2.99,0-5.65-2.12-6.23-5.17c-0.65-3.45,1.61-6.77,5.06-7.41
				l37.42-7.08c3.45-0.62,6.76,1.61,7.41,5.06c0.65,3.45-1.61,6.77-5.06,7.41l-37.42,7.08
				C2471.81,2272.97,2471.41,2273,2471.02,2273z M1341.09,2272.19c-0.41,0-0.83-0.04-1.25-0.12l-37.35-7.42
				c-3.43-0.68-5.67-4.02-4.98-7.46c0.69-3.43,3.97-5.71,7.46-4.98l37.35,7.42c3.43,0.68,5.67,4.03,4.98,7.46
				C1346.7,2270.09,1344.05,2272.19,1341.09,2272.19z M2595.74,2249.41c-2.99,0-5.65-2.12-6.23-5.17c-0.65-3.45,1.61-6.77,5.06-7.41
				l37.42-7.08c3.45-0.67,6.76,1.62,7.41,5.06c0.65,3.45-1.61,6.77-5.06,7.41l-37.42,7.08
				C2596.53,2249.38,2596.13,2249.41,2595.74,2249.41z M1216.59,2247.43c-0.41,0-0.83-0.04-1.24-0.12l-37.35-7.41
				c-3.44-0.68-5.67-4.02-4.99-7.46c0.68-3.42,4.05-5.74,7.46-4.98l37.35,7.41c3.44,0.68,5.68,4.02,4.99,7.46
				C1222.21,2245.34,1219.56,2247.43,1216.59,2247.43z M2720.46,2225.81c-2.99,0-5.65-2.12-6.23-5.17
				c-0.65-3.45,1.61-6.77,5.06-7.41l37.42-7.08c3.46-0.59,6.76,1.61,7.41,5.06c0.65,3.45-1.61,6.77-5.06,7.41l-37.42,7.08
				C2721.25,2225.78,2720.85,2225.81,2720.46,2225.81z M1092.09,2222.69c-0.41,0-0.83-0.04-1.25-0.12l-37.35-7.43
				c-3.43-0.68-5.67-4.02-4.98-7.46c0.69-3.42,3.97-5.67,7.46-4.98l37.35,7.42c3.43,0.68,5.67,4.02,4.98,7.46
				C1097.71,2220.59,1095.06,2222.69,1092.09,2222.69z M2845.18,2202.23c-2.99,0-5.65-2.12-6.23-5.17
				c-0.65-3.45,1.61-6.77,5.06-7.41l37.42-7.08c3.47-0.64,6.76,1.61,7.41,5.06c0.65,3.45-1.61,6.77-5.06,7.41l-37.42,7.08
				C2845.97,2202.19,2845.57,2202.23,2845.18,2202.23z M967.6,2197.95c-0.41,0-0.82-0.04-1.25-0.12L929,2190.4
				c-3.43-0.68-5.67-4.02-4.98-7.46c0.68-3.43,4-5.69,7.46-4.98l37.35,7.42c3.43,0.68,5.67,4.03,4.98,7.46
				C973.21,2195.85,970.57,2197.95,967.6,2197.95z M2969.9,2178.62c-2.99,0-5.65-2.12-6.23-5.17c-0.65-3.45,1.61-6.77,5.06-7.41
				l37.42-7.08c3.47-0.57,6.77,1.62,7.41,5.06c0.65,3.45-1.61,6.77-5.06,7.41l-37.42,7.08
				C2970.69,2178.59,2970.29,2178.62,2969.9,2178.62z M843.1,2173.19c-0.41,0-0.82-0.04-1.25-0.12l-37.35-7.43
				c-3.43-0.68-5.67-4.02-4.98-7.46c0.69-3.43,3.98-5.7,7.46-4.98l37.35,7.42c3.43,0.68,5.67,4.02,4.98,7.46
				C848.72,2171.1,846.07,2173.19,843.1,2173.19z M3094.62,2155.03c-2.99,0-5.65-2.12-6.23-5.17c-0.65-3.45,1.61-6.77,5.06-7.41
				l37.42-7.08c3.48-0.61,6.77,1.61,7.41,5.06c0.65,3.45-1.61,6.77-5.06,7.41l-37.42,7.08
				C3095.4,2155,3095.01,2155.03,3094.62,2155.03z M718.6,2148.45c-0.41,0-0.82-0.04-1.25-0.12l-37.35-7.43
				c-3.43-0.68-5.67-4.02-4.98-7.46c0.68-3.42,4.01-5.74,7.46-4.98l37.35,7.43c3.43,0.68,5.67,4.02,4.98,7.46
				C724.22,2146.36,721.57,2148.45,718.6,2148.45z M594.11,2123.71c-0.41,0-0.82-0.04-1.25-0.12l-32.26-6.42l-0.76-15.09
				c-0.17-3.5,2.53-6.47,6.04-6.63c3.41-0.71,6.48,2.52,6.64,6.04l0.26,5.17l22.56,4.49c3.43,0.68,5.67,4.03,4.98,7.46
				C599.72,2121.63,597.08,2123.71,594.11,2123.71z M3155.73,2078.55c-3.47,0-6.3-2.79-6.35-6.27c-0.16-12.68-0.43-25.34-0.8-37.96
				c-0.1-3.51,2.66-6.42,6.16-6.53c3.31,0.1,6.43,2.64,6.53,6.16c0.37,12.69,0.64,25.42,0.8,38.18c0.04,3.5-2.76,6.37-6.27,6.42
				C3155.78,2078.55,3155.75,2078.55,3155.73,2078.55z M562.53,2019.34c-3.4,0-6.22-2.7-6.33-6.14
				c-0.41-12.22-0.81-24.95-1.17-38.11c-0.09-3.51,2.67-6.42,6.17-6.52c3.43,0.3,6.42,2.67,6.52,6.17
				c0.36,13.13,0.74,25.83,1.15,38.03c0.12,3.5-2.63,6.43-6.13,6.56C562.68,2019.34,562.6,2019.34,562.53,2019.34z M3150.73,1951.76
				c-3.32,0-6.11-2.58-6.33-5.94c-0.82-12.73-1.73-25.36-2.72-37.92c-0.27-3.5,2.34-6.55,5.83-6.82c3.45-0.42,6.55,2.34,6.82,5.82
				c0.98,12.61,1.9,25.31,2.73,38.09c0.22,3.5-2.43,6.52-5.93,6.74C3151.01,1951.76,3150.86,1951.76,3150.73,1951.76z
				 M559.63,1892.42c-3.47,0-6.31-2.79-6.35-6.27c-0.14-12.52-0.25-25.25-0.3-38.13c-0.01-3.51,2.81-6.36,6.32-6.37
				c0.01,0,0.02,0,0.02,0c3.5,0,6.34,2.83,6.35,6.32c0.06,12.85,0.16,25.53,0.3,38.03c0.04,3.51-2.77,6.38-6.27,6.42
				C559.68,1892.42,559.65,1892.42,559.63,1892.42z M3139.73,1825.23c-3.2,0-5.95-2.41-6.3-5.66c-1.38-12.76-2.82-25.35-4.32-37.77
				c-0.42-3.47,2.06-6.63,5.54-7.05c3.55-0.48,6.65,2.06,7.07,5.54c1.5,12.47,2.95,25.11,4.33,37.92c0.38,3.48-2.15,6.62-5.63,6.99
				C3140.18,1825.22,3139.95,1825.23,3139.73,1825.23z M559.79,1765.48c-0.03,0-0.06,0-0.1,0c-3.5-0.05-6.3-2.94-6.25-6.45
				c0.19-12.67,0.45-25.4,0.77-38.14c0.09-3.51,3.01-6.07,6.51-6.19c3.5,0.09,6.27,3,6.19,6.51c-0.32,12.69-0.58,25.39-0.77,38.02
				C566.08,1762.7,563.26,1765.48,559.79,1765.48z M3123.62,1699.29c-3.1,0-5.81-2.27-6.27-5.43c-1.89-12.83-3.81-25.38-5.73-37.6
				c-0.55-3.46,1.82-6.72,5.27-7.26c3.43-0.52,6.71,1.82,7.26,5.28c1.94,12.27,3.87,24.87,5.76,37.74c0.51,3.46-1.89,6.68-5.36,7.2
				C3124.24,1699.27,3123.93,1699.29,3123.62,1699.29z M563.94,1638.58c-0.11,0-0.22,0-0.33-0.01c-3.5-0.17-6.19-3.16-6.01-6.67
				c0.67-12.78,1.42-25.5,2.26-38.1c0.24-3.51,3.25-6.27,6.76-5.91c3.5,0.23,6.14,3.26,5.91,6.76c-0.84,12.56-1.59,25.2-2.24,37.93
				C570.09,1635.95,567.29,1638.58,563.94,1638.58z M3102.93,1573.99c-3.01,0-5.68-2.14-6.23-5.21c-2.41-13.1-4.77-25.57-7.06-37.36
				c-0.67-3.45,1.58-6.78,5.02-7.45c3.43-0.68,6.77,1.59,7.44,5.02c2.3,11.84,4.68,24.36,7.08,37.51c0.63,3.45-1.65,6.76-5.09,7.39
				C3103.69,1573.95,3103.31,1573.99,3102.93,1573.99z M573.89,1512.03c-0.23,0-0.47-0.01-0.7-0.04c-3.48-0.38-6-3.52-5.62-7
				c1.43-12.92,2.98-25.6,4.65-37.97c0.48-3.47,3.67-6.07,7.14-5.43c3.48,0.47,5.91,3.66,5.44,7.14
				c-1.66,12.27-3.2,24.83-4.61,37.65C579.83,1509.63,577.08,1512.03,573.89,1512.03z M3072.39,1454.63c-0.24,0-0.49-0.01-0.74-0.04
				c-11.75-1.38-24.34-2.74-37.75-4.05c-3.49-0.35-6.04-3.46-5.7-6.94c0.34-3.5,3.35-5.84,6.94-5.7c13.49,1.34,26.15,2.7,37.98,4.08
				c3.48,0.41,5.97,3.56,5.56,7.04C3078.31,1452.25,3075.57,1454.63,3072.39,1454.63z M2945.98,1443.2c-0.16,0-0.31,0-0.46-0.01
				c-12.2-0.88-24.85-1.74-37.94-2.57c-3.5-0.22-6.16-3.24-5.93-6.73c0.22-3.52,3.26-6.17,6.74-5.94
				c13.12,0.83,25.81,1.69,38.05,2.57c3.5,0.26,6.12,3.3,5.87,6.79C2952.06,1440.65,2949.27,1443.2,2945.98,1443.2z
				 M2819.26,1435.62c-0.11,0-0.22,0-0.33-0.01c-12.38-0.63-25.05-1.24-38.01-1.84c-3.5-0.16-6.21-3.12-6.05-6.62
				c0.16-3.49,3.2-6.28,6.63-6.05c12.99,0.6,25.67,1.2,38.07,1.83c3.5,0.17,6.2,3.16,6.02,6.66
				C2825.42,1433,2822.61,1435.62,2819.26,1435.62z M2692.44,1430.07c-0.08,0-0.16,0-0.25,0l-38.04-1.38
				c-3.51-0.12-6.25-3.06-6.12-6.57c0.12-3.48,3.25-6.08,6.56-6.12l38.09,1.38c3.5,0.14,6.23,3.09,6.1,6.58
				C2698.65,1427.38,2695.84,1430.07,2692.44,1430.07z M2565.57,1425.84c-0.07,0-0.13,0-0.19,0l-38.05-1.08
				c-3.5-0.1-6.27-3.01-6.17-6.52c0.09-3.51,2.53-6.09,6.52-6.17l38.08,1.08c3.51,0.11,6.26,3.04,6.16,6.53
				C2571.8,1423.13,2568.98,1425.84,2565.57,1425.84z M2438.67,1422.56c-0.05,0-0.1,0-0.15,0l-38.07-0.84
				c-3.5-0.07-6.28-2.97-6.21-6.48c0.07-3.46,2.9-6.21,6.35-6.21c0.04,0,0.09,0,0.14,0l38.08,0.84c3.51,0.09,6.28,2.99,6.2,6.5
				C2444.93,1419.81,2442.11,1422.56,2438.67,1422.56z M2311.75,1420.01c-0.04,0-0.08,0-0.12,0l-38.07-0.66
				c-3.5-0.06-6.3-2.95-6.24-6.45c0.06-3.47,2.89-6.25,6.35-6.25c0.03,0,0.07,0,0.11,0l38.09,0.66c3.51,0.06,6.29,2.96,6.23,6.47
				C2318.03,1417.24,2315.21,1420.01,2311.75,1420.01z M623.26,1419.99c-3.47,0-6.3-2.79-6.35-6.26c-0.04-3.51,2.76-6.38,6.27-6.43
				l38.11-0.46c0.03,0,0.05,0,0.07,0c3.47,0,6.3,2.79,6.35,6.27c0.04,3.51-2.76,6.38-6.27,6.42l-38.1,0.46
				C623.31,1419.99,623.28,1419.99,623.26,1419.99z M750.25,1418.54c-3.48,0-6.31-2.8-6.35-6.28c-0.04-3.51,2.78-6.37,6.28-6.41
				l38.1-0.38c0.02,0,0.04,0,0.06,0c3.48,0,6.31,2.8,6.35,6.28c0.03,3.51-2.78,6.37-6.29,6.41l-38.1,0.38
				C750.29,1418.54,750.27,1418.54,750.25,1418.54z M2184.82,1418.01c-0.02,0-0.06,0-0.09,0l-38.07-0.5
				c-3.5-0.05-6.31-2.93-6.27-6.42c0.04-3.48,2.88-6.27,6.35-6.27c0.03,0,0.05,0,0.08,0l38.08,0.5c3.51,0.05,6.31,2.93,6.26,6.43
				C2191.12,1415.22,2188.29,1418.01,2184.82,1418.01z M877.24,1417.32c-3.48,0-6.32-2.8-6.35-6.29c-0.03-3.51,2.78-6.37,6.29-6.41
				l38.1-0.34c0.02,0,0.04,0,0.06,0c3.48,0,6.32,2.8,6.35,6.3c0.03,3.5-2.79,6.37-6.29,6.4l-38.1,0.34
				C877.28,1417.32,877.26,1417.32,877.24,1417.32z M2057.9,1416.51c-0.02,0-0.04,0-0.06,0l-38.07-0.36c-3.5-0.03-6.32-2.9-6.29-6.4
				c0.03-3.49,2.86-6.3,6.35-6.3c0.02,0,0.04,0,0.06,0l38.09,0.36c3.51,0.04,6.32,2.9,6.28,6.41
				C2064.21,1413.71,2061.37,1416.51,2057.9,1416.51z M1004.21,1416.29c-3.48,0-6.32-2.81-6.35-6.3c-0.02-3.51,2.79-6.37,6.3-6.4
				l38.08-0.27c0.02,0,0.03,0,0.05,0c3.48,0,6.32,2.81,6.35,6.3c0.03,3.51-2.79,6.37-6.3,6.4l-38.09,0.27
				C1004.25,1416.29,1004.23,1416.29,1004.21,1416.29z M1930.96,1415.43c-0.01,0-0.03,0-0.04,0l-38.07-0.25
				c-3.5-0.03-6.33-2.88-6.31-6.38c0.02-3.5,2.86-6.31,6.35-6.31c0.01,0,0.03,0,0.04,0l38.08,0.25c3.51,0.03,6.33,2.89,6.3,6.4
				C1937.29,1412.62,1934.45,1415.43,1930.96,1415.43z M1131.19,1415.43c-3.49,0-6.33-2.81-6.35-6.31c-0.02-3.51,2.8-6.36,6.31-6.38
				l38.1-0.21c0.01,0,0.02,0,0.03,0c3.49,0,6.33,2.83,6.35,6.32c0.02,3.49-2.81,6.36-6.32,6.37l-38.08,0.21
				C1131.21,1415.43,1131.2,1415.43,1131.19,1415.43z M1258.16,1414.8c-3.49,0-6.33-2.83-6.35-6.32c-0.01-3.51,2.81-6.36,6.32-6.37
				l38.09-0.15c0.01,0,0.02,0,0.02,0c3.5,0,6.34,2.83,6.35,6.32c0.01,3.51-2.81,6.36-6.32,6.37l-38.09,0.15
				C1258.19,1414.8,1258.17,1414.8,1258.16,1414.8z M1804.03,1414.7c-0.01,0-0.02,0-0.02,0l-38.09-0.15
				c-3.51-0.01-6.33-2.86-6.32-6.37c0.01-3.5,2.85-6.32,6.35-6.32c0,0,0.02,0,0.03,0l38.08,0.15c3.51,0.01,6.33,2.86,6.32,6.37
				C1810.36,1411.87,1807.52,1414.7,1804.03,1414.7z M1385.13,1414.37c-3.5,0-6.33-2.83-6.35-6.32c-0.01-3.51,2.82-6.36,6.33-6.37
				l38.09-0.09c3.25-0.26,6.35,2.84,6.36,6.33c0.01,3.51-2.83,6.35-6.33,6.36l-38.08,0.09H1385.13z M1677.08,1414.29
				C1677.08,1414.29,1677.08,1414.29,1677.08,1414.29l-38.09-0.06c-3.51,0-6.35-2.85-6.34-6.36c0.01-3.5,2.84-6.33,6.35-6.33h0.01
				l38.08,0.06c3.51,0.01,6.34,2.85,6.34,6.36C1683.42,1411.45,1680.58,1414.29,1677.08,1414.29z M1512.07,1414.17
				c-3.5,0-6.34-2.84-6.35-6.33c-0.01-3.51,2.83-6.36,6.34-6.36h37.96c3.5,0,6.41,2.85,6.4,6.35c0,3.51-2.78,6.35-6.28,6.35H1512.07
				L1512.07,1414.17z"/>
			<linearGradient id="SVGID_12_" gradientUnits="userSpaceOnUse" x1="1986.0562" y1="1398.9834" x2="1833.7439" y2="2605.76">
				<stop  offset="0" style="stop-color:#CB236D"/>
				<stop  offset="1" style="stop-color:#4C246D"/>
			</linearGradient>
			<path class="st12" d="M2055.36,2596.04h-338.52c-44.36,0-81.72-33.01-86.98-76.85l-39.11-325.74
				c-6.23-51.89,34.48-97.54,86.98-97.54h406.67c51.44,0,91.81,43.9,87.26,94.9l-29.04,325.74
				C2138.61,2561.54,2100.74,2596.04,2055.36,2596.04z"/>
			<defs>
				<filter id="Adobe_OpacityMaskFilter" filterUnits="userSpaceOnUse" x="1659.62" y="2155.47" width="442.89" height="380.65">
					<feFlood  style="flood-color:white;flood-opacity:1" result="back"/>
					<feBlend  in="SourceGraphic" in2="back" mode="normal"/>
				</filter>
			</defs>
			<mask maskUnits="userSpaceOnUse" x="1659.62" y="2155.47" width="442.89" height="380.65" id="SVGID_13_">
				<g class="st13">
					<defs>
						
							<filter id="Adobe_OpacityMaskFilter_1_" filterUnits="userSpaceOnUse" x="1659.62" y="2155.47" width="442.89" height="380.65">
							<feFlood  style="flood-color:white;flood-opacity:1" result="back"/>
							<feBlend  in="SourceGraphic" in2="back" mode="normal"/>
						</filter>
					</defs>
					<mask maskUnits="userSpaceOnUse" x="1659.62" y="2155.47" width="442.89" height="380.65" id="SVGID_13_">
						<g class="st14">
						</g>
					</mask>
					<linearGradient id="SVGID_14_" gradientUnits="userSpaceOnUse" x1="1659.6239" y1="2345.8003" x2="2102.509" y2="2345.8003">
						<stop  offset="0" style="stop-color:#FFFFFF"/>
						<stop  offset="1" style="stop-color:#000000"/>
					</linearGradient>
					<path class="st15" d="M2013.72,2536.13h-257.65c-33.76,0-62.2-25.12-66.21-58.49l-29.77-247.93
						c-4.74-39.49,26.24-74.24,66.2-74.24h309.52c39.15,0,69.87,33.41,66.41,72.23l-22.11,247.92
						C2077.08,2509.87,2048.26,2536.13,2013.72,2536.13z"/>
				</g>
			</mask>
			<linearGradient id="SVGID_15_" gradientUnits="userSpaceOnUse" x1="2078.9922" y1="1864.4822" x2="1568.6171" y2="3039.9641">
				<stop  offset="0" style="stop-color:#CB236D"/>
				<stop  offset="1" style="stop-color:#4C246D"/>
			</linearGradient>
			<path class="st16" d="M2013.72,2536.13h-257.65c-33.76,0-62.2-25.12-66.21-58.49l-29.77-247.93
				c-4.74-39.49,26.24-74.24,66.2-74.24h309.52c39.15,0,69.87,33.41,66.41,72.23l-22.11,247.92
				C2077.08,2509.87,2048.26,2536.13,2013.72,2536.13z"/>
		</g>
	</g>
	<g>
		<g>
			<g>
				<g>
					<path class="st17" d="M3147.44,2882.44c-3.51,31.12-5.64,66.09-9.16,97.21c12.31-0.48,23.34,4.22,31.59,11.57l57.64-69.33
						C3204.79,2903.97,3177.66,2890.12,3147.44,2882.44z"/>
				</g>
				<g class="st18">
					<path d="M3147.44,2882.44c-0.86,7.64-1.64,15.52-2.38,23.52c14.11,7.15,27,16.74,38.09,28.98c6.05,6.87,11.28,14,15.75,21.34
						l28.59-34.39C3204.79,2903.97,3177.66,2890.12,3147.44,2882.44z"/>
				</g>
			</g>
			<g>
				<path class="st17" d="M3166.96,2989.95c-0.59,4.79-1.38,9.52-2.33,14.22c-5.35,26.06-16.22,50.48-33.81,70.48
					c-17.97,20.47-40.85,34.34-66.14,43.92c-34.78,13.18-74.1,18.23-111.48,21.11c-9.26,0.71-18.56,1.35-27.85,1.89
					c-81.1,4.77-163.42,2.35-240.66-20.83c-7.07-2.13-14.11-4.43-21.1-6.92c-31.26-11.11-62.68-27.07-81.16-54.62
					c-21.83-32.54-21.59-74.86-17.03-113.79c13.75-118,59.04-229.68,103.88-339.69c125.85-23.08,243.6-22.08,371.07-10.99
					c4.31,56.97,29.4,110.11,55.78,160.79c26.38,50.68,54.88,101.34,67.01,157.16c2.77,12.71,4.55,25.79,5.22,38.94
					C3169,2964.45,3168.59,2977.32,3166.96,2989.95z"/>
			</g>
			<g class="st19">
				<path d="M2903.95,2944.39c0.77-0.64,1.4-1.47,1.77-2.55C2904.89,2942.55,2904.31,2943.42,2903.95,2944.39z"/>
			</g>
			<g class="st19">
				<path d="M2923.5,2956.06c0.26-0.34,0.5-0.7,0.7-1.08C2923.92,2955.33,2923.69,2955.69,2923.5,2956.06z"/>
			</g>
			<g>
				<path class="st20" d="M3064.67,3118.58c-34.78,13.18-74.1,18.23-111.48,21.11c-9.26,0.71-18.56,1.35-27.85,1.89
					c-81.1,4.77-163.42,2.35-240.66-20.83c-16.46-13.02-30.43-28.92-40.27-47.42c-26-48.91-20.33-108.09-11.08-162.69
					c13.87-81.9,35.18-164.87,83.22-232.65c24.49-34.55,58.87-66.04,100.98-70.58c35.94-3.88,81.99-2.98,108.4,21.68
					c26.43,24.66,44.9,56.51,61.93,88.4c18.38,34.44,35.57,69.5,51.92,104.92c28.36,61.4,44.53,159.04,41.18,226.65
					C3079.56,3077.29,3073.6,3100.08,3064.67,3118.58z"/>
			</g>
			<g>
				<path class="st21" d="M2721.45,2995.67c-3.28-11.18-2.87-21.52-2.53-32.99c0.13-4.29-5.56-5.37-7.24-1.52
					c-4.91,11.3-3.73,25-0.04,36.47C2713.58,3003.64,2723.29,3001.92,2721.45,2995.67z"/>
			</g>
			<g>
				<path class="st21" d="M2748.38,2916.53c-0.29-3.62-5.42-3.29-6.58-0.47c-4.11,10.02-4.08,22.04-3.92,32.69
					c0.09,6.44,10.19,7.17,10.02,0.72C2747.61,2938.53,2749.25,2927.41,2748.38,2916.53z"/>
			</g>
			<g>
				<path class="st21" d="M2749.34,3043c-2.88-12.37-4.77-24.59-4.89-37.32c-0.05-5.15-7.5-5.82-8.07-0.58
					c-1.44,13.35-0.55,26.93,3.38,39.81C2741.56,3050.78,2750.79,3049.24,2749.34,3043z"/>
			</g>
			<g class="st22">
				<path d="M3096.11,2755.51c-26.38-50.68-51.46-103.82-55.78-160.79c-127.47-11.09-245.22-12.09-371.07,10.99
					c-13.15,32.25-26.32,64.65-38.74,97.3c153,17.41,302.92,58.1,441.08,132.86c32.16,16.61,62.65,37.99,88.38,63.89
					C3146.55,2849,3120.45,2802.26,3096.11,2755.51z"/>
			</g>
			<g class="st18">
				<path d="M3168.35,2951.61c-0.67-13.15-2.45-26.23-5.22-38.94c-0.94-4.33-2.01-8.63-3.15-12.9
					c-25.73-25.91-56.21-47.28-88.38-63.89c-138.16-74.76-288.07-115.44-441.08-132.86c-6.99,18.39-13.73,36.87-20.09,55.45
					c133.54,7.94,268.7,48.62,372.84,138.6c30.82,26.78,56.26,71.6,39.07,111.3c-31.6,69.37-114.52,83.88-186.68,90.97
					c-77.03,6.47-155.77,6.18-228.02-13.95c16.54,12.51,36.27,21.43,55.94,28.42c6.99,2.49,14.02,4.8,21.1,6.92
					c77.24,23.18,159.56,25.6,240.66,20.83c9.29-0.54,18.59-1.18,27.85-1.89c37.38-2.88,76.7-7.93,111.48-21.11
					c25.29-9.58,48.17-23.45,66.14-43.92c17.59-20,28.45-44.42,33.81-70.48c0.95-4.7,1.74-9.43,2.33-14.22
					C3168.59,2977.32,3169,2964.45,3168.35,2951.61z"/>
			</g>
			<g>
				<g>
					<path class="st20" d="M2926.96,2664.32c7.01,88.61,3.2,178.07-11.33,265.77c-1.14,6.87-2.16,14.58,1.92,20.21
						c4.08,5.64,15.34,5.12,16.05-1.81c-3.55,4.79,1.3,12.48,6.67,15.09c5.36,2.62,12.71-0.7,14.3-6.45
						c-3.17,6.41,7.05,12.63,14.11,11.48c7.05-1.15,12.16-7.16,16.46-12.87c74.13-98.37,103.16-229.4,77.5-349.87
						C3016.71,2626.01,2972.88,2644.19,2926.96,2664.32z"/>
				</g>
				<g>
					<path class="st21" d="M2961.01,2747.32c-1.83-4.45-8.57-2.24-7.95,2.37c1.71,12.66,2.06,24.04-0.16,36.67
						c-1,5.68,8.43,8.16,9.95,2.47C2966.44,2775.4,2966.35,2760.32,2961.01,2747.32z"/>
				</g>
				<g>
					<path class="st21" d="M2991.53,2717.19c-1.11,11.52-0.38,23.39-0.08,34.95c0.18,6.98,11,5.26,10.78-1.69
						c-0.35-11.08-0.33-22.47-2.02-33.44C2999.46,2712.17,2992.01,2712.22,2991.53,2717.19z"/>
				</g>
				<g>
					<path class="st21" d="M2982.59,2792.31c-1.55,14.46-4.6,28.42-9.47,42.13c-2.38,6.7,7.83,10.73,10.29,4.03
						c5.35-14.52,8.49-29.56,9.06-45.04C2992.72,2787.11,2983.28,2785.86,2982.59,2792.31z"/>
				</g>
				<g class="st19">
					<path d="M2948.06,2852c12.72-75.79,55.77-155.18,121.96-197.07c-1.5-16.47-3.92-32.86-7.37-49.06
						c-45.93,20.13-89.76,38.31-135.69,58.45c7.01,88.61,3.2,178.07-11.33,265.77c-1.14,6.87-2.16,14.58,1.92,20.21
						c3.41,4.71,11.81,5.1,14.9,1.07c0.13-1.02,0.5-2,1.15-2.88c-0.12,1.14-0.54,2.09-1.15,2.88c-0.6,4.56,3.44,10.07,7.82,12.21
						c4.97,2.43,11.65-0.25,13.86-5.24c0.1-0.4,0.24-0.8,0.44-1.21c-0.2,0.4-0.34,0.81-0.44,1.21c-1.45,5.96,7.94,11.35,14.55,10.28
						c7.05-1.15,12.16-7.16,16.46-12.87c0.07-0.1,0.14-0.2,0.22-0.3C2959.45,2926.9,2939.89,2891.62,2948.06,2852z"/>
				</g>
				<g class="st23">
					<path d="M2992.56,2832.63c3.57-56.35,30.84-124.54,78.82-157.06c-0.29-6.89-0.74-13.77-1.36-20.63
						c-66.19,41.89-109.23,121.27-121.96,197.07c-8.17,39.63,11.39,74.9,37.3,103.45c12.71-16.89,24.06-34.76,34.06-53.36
						C3001.64,2884.04,2990.55,2860.75,2992.56,2832.63z"/>
				</g>
			</g>
			<g>
				<g>
					<path class="st20" d="M2793.14,2629.6c0.41,88.89,11.68,177.72,33.49,263.89c1.71,6.75,3.37,14.35-0.23,20.3
						c-3.6,5.96-14.86,6.38-16.14-0.46c3.94,4.48-0.26,12.54-5.38,15.6c-5.13,3.05-12.73,0.36-14.79-5.23
						c3.69,6.12-5.97,13.18-13.1,12.62c-7.13-0.56-12.72-6.12-17.48-11.45c-82.09-91.83-121.95-219.98-106.45-342.18
						C2700.5,2598.92,2745.7,2613.37,2793.14,2629.6z"/>
				</g>
				<g>
					<path class="st21" d="M2766.14,2715.15c1.45-4.58,8.36-2.94,8.12,1.7c-0.64,12.76-0.04,24.12,3.22,36.52
						c1.47,5.58-7.72,8.84-9.71,3.29C2763.08,2743.58,2761.9,2728.55,2766.14,2715.15z"/>
				</g>
				<g>
					<path class="st21" d="M2733.21,2687.67c2.07,11.39,2.33,23.28,3,34.82c0.4,6.97-10.52,6.16-10.88-0.78
						c-0.58-11.07-1.55-22.42-0.78-33.49C2724.89,2683.33,2732.32,2682.76,2733.21,2687.67z"/>
				</g>
				<g>
					<path class="st21" d="M2748.39,2761.78c2.75,14.28,6.96,27.93,12.95,41.19c2.93,6.48-6.9,11.34-9.92,4.88
						c-6.54-14.02-10.93-28.75-12.79-44.12C2737.86,2757.45,2747.16,2755.42,2748.39,2761.78z"/>
				</g>
				<g class="st19">
					<path d="M2787.79,2818.38c-19.01-74.46-68.54-149.98-137.99-186.19c0.12-16.54,1.17-33.07,3.25-49.5
						c47.45,16.23,92.65,30.68,140.09,46.91c0.41,88.89,11.68,177.72,33.49,263.89c1.71,6.75,3.37,14.34-0.23,20.3
						c-3.01,4.98-11.34,6.07-14.76,2.32c-0.22-1.01-0.66-1.95-1.39-2.78c0.21,1.13,0.71,2.04,1.39,2.78
						c0.98,4.5-2.59,10.33-6.77,12.82c-4.75,2.83-11.63,0.72-14.25-4.07c-0.13-0.39-0.31-0.78-0.54-1.17
						c0.23,0.39,0.41,0.78,0.54,1.17c1.94,5.81-6.96,11.98-13.64,11.46c-7.13-0.56-12.72-6.12-17.48-11.45
						c-0.08-0.09-0.16-0.19-0.24-0.28C2782.69,2893.97,2799.24,2857.19,2787.79,2818.38z"/>
				</g>
				<g class="st23">
					<path d="M2741.83,2802.79c-8.26-55.85-41.14-121.53-91.66-149.93c-0.29-6.89-0.41-13.78-0.37-20.67
						c69.45,36.21,118.98,111.73,137.99,186.19c11.45,38.8-5.1,75.59-28.53,106.21c-14.07-15.77-26.88-32.63-38.4-50.33
						C2737.08,2854.79,2746.18,2830.65,2741.83,2802.79z"/>
				</g>
			</g>
			<g>
				<g>
					<g>
						<path class="st24" d="M2654.06,1946.66c-19.68,25.68-37.83,51.98-54.51,78.9c-43.17,69.41-76.9,142.98-103.33,220.98
							c-6.6,19.37-12.72,39.02-18.42,58.95c0.65-2.26-43.21-36.49-47.11-41.3c-65.93-81.1-109.28-157.35-129.63-218.84
							c-8.1-24.48-36.96-104.99,4.54-114.81c55.58-13.17,119.52-12.37,176.13-9.03C2599.22,1928.43,2651.55,1949.95,2654.06,1946.66
							z"/>
					</g>
					<g>
						<path class="st25" d="M2599.55,2025.56c-43.17,69.41-76.9,142.98-103.33,220.98c-58.1-69.05-122.74-170.15-136.84-207.5
							c-3.32-8.83-6.68-18.45-3.93-27.47c2.66-8.74,10.71-15.03,19.41-17.84c8.7-2.83,18.03-2.74,27.17-2.4
							C2469.06,1993.82,2534.74,2007.67,2599.55,2025.56z"/>
					</g>
					<g class="st22">
						<path d="M2654.06,1946.66c-4.02,5.24-7.98,10.51-11.84,15.81c-24.74-5.85-72.48-16.34-147.42-20.76
							c-55.18-3.27-117.51-4.03-171.68,8.8c-40.46,9.57-12.34,88.05-4.44,111.92c19.83,59.94,62.09,134.28,126.37,213.32
							c2.41,2.96,20.45,17.43,33.18,28.21l-0.44,1.53c0.65-2.26-43.21-36.49-47.11-41.3c-65.93-81.1-109.28-157.35-129.63-218.84
							c-8.1-24.48-36.96-104.99,4.54-114.81c55.58-13.17,119.52-12.37,176.13-9.03C2599.22,1928.43,2651.55,1949.95,2654.06,1946.66
							z"/>
					</g>
					<g class="st22">
						<path d="M2599.55,2025.56c-20.02-5.53-40.13-10.67-60.33-15.21c-16.85,38.38-42.69,67.79-90.95,68.47
							c-26.93,1.47-53.79-5.38-78.34-17.1c24.26,46.49,77.56,126.91,126.29,184.82C2522.65,2168.54,2556.38,2094.97,2599.55,2025.56
							z"/>
					</g>
				</g>
				<g>
					<g>
						<path class="st24" d="M3123.23,1980.18c20.63,24.92,39.76,50.51,57.45,76.79c45.75,67.74,82.23,139.98,111.58,216.93
							c7.33,19.1,14.18,38.52,20.63,58.21c-0.74-2.24,41.8-38.1,45.52-43.05c62.83-83.52,103.28-161.35,121.3-223.57
							c7.17-24.77,32.98-106.31-8.87-114.56c-56.03-11.07-119.9-7.86-176.35-2.39C3177.35,1959.9,3125.87,1983.37,3123.23,1980.18z"
							/>
					</g>
					<g>
						<path class="st25" d="M3180.68,2056.97c45.75,67.74,82.23,139.98,111.58,216.93c55.46-71.19,116.24-174.65,128.93-212.51
							c2.99-8.94,5.98-18.69,2.89-27.6c-2.99-8.63-11.27-14.61-20.07-17.09c-8.8-2.5-18.12-2.06-27.25-1.38
							C3309.88,2020.34,3244.77,2036.65,3180.68,2056.97z"/>
					</g>
					<g class="st22">
						<path d="M3123.23,1980.18c4.22,5.08,8.37,10.21,12.43,15.36c24.5-6.78,71.81-19.06,146.53-26.3
							c55.02-5.34,117.28-8.46,171.89,2.32c40.79,8.04,15.65,87.52,8.65,111.67c-17.56,60.64-56.99,136.52-118.24,217.93
							c-2.29,3.05-19.78,18.19-32.1,29.44l0.5,1.51c-0.74-2.24,41.8-38.1,45.52-43.05c62.83-83.52,103.28-161.35,121.3-223.57
							c7.17-24.77,32.98-106.31-8.87-114.56c-56.03-11.07-119.9-7.86-176.35-2.39C3177.35,1959.9,3125.87,1983.37,3123.23,1980.18z"
							/>
					</g>
					<g class="st22">
						<path d="M3180.68,2056.97c19.8-6.28,39.7-12.17,59.72-17.47c18.28,37.72,45.21,66.14,93.46,65
							c26.97,0.46,53.55-7.41,77.64-20.04c-22.49,47.37-72.73,129.74-119.24,189.44
							C3262.91,2196.95,3226.44,2124.71,3180.68,2056.97z"/>
					</g>
				</g>
				<g>
					<path class="st17" d="M3374.25,2548.22c-9.86,20.15-31.66,31.09-52.36,39.85c-0.2,0.08-0.39,0.16-0.59,0.24
						c-8,3.37-16.05,6.62-24.17,9.8c-48.35,18.86-98.17,33.83-148.86,44.94c-8.27,1.82-16.6,3.54-24.91,5.15
						c-150.79,29.17-308.32,24.64-457.39-12.81c-41.92-10.53-83.42-23.69-123.05-40.78c-27.74-11.96-54.56-25.85-80.05-42.16
						c-15.3-9.82-30.54-21.06-42.58-34.57c-8.64-9.66-15.65-20.48-19.9-32.76c-10.62-30.67-2.25-64.3,6.14-95.63
						c27.54-102.45,56.55-206.25,107.54-299.95c42.55-78.16,102.06-147.91,182.74-188.14c98.34-49.03,218.24-49.93,319.37-11.83
						c31.32,11.8,61.25,26.87,88.89,44.67c186.23,120.07,236.56,349.08,271.5,552.97
						C3380.05,2507.63,3383.36,2529.62,3374.25,2548.22z"/>
				</g>
				<g>
					<path class="st24" d="M2655.45,2424.26c-0.19,13.62-4.82,26.81-10.78,39.06c-24.24,49.94-69.21,86.44-101.76,131.29
						c-27.74-11.95-54.56-25.84-80.04-42.15c-15.32-9.82-30.54-21.06-42.59-34.57c28.27-40.55,63.25-76.48,103.09-105.8
						c22.49-16.55,47.53-31.36,75.28-34.49c14.67-1.66,30.64,0.46,41.86,10.06C2650.84,2396.52,2655.63,2410.67,2655.45,2424.26z"/>
				</g>
				<g>
					<path class="st24" d="M3321.89,2588.08c-0.2,0.08-0.39,0.16-0.59,0.24c-8,3.37-16.05,6.62-24.17,9.8
						c-48.35,18.86-98.17,33.83-148.86,44.94c-38.77-55.11-75.65-111.89-97.82-175.26c-6.3-17.97-11.1-38.87-1.25-55.15
						c8.19-13.52,24.92-20.07,40.72-19.84c15.82,0.27,30.92,6.28,45.23,13.06C3215.18,2443.79,3281.77,2509.16,3321.89,2588.08z"/>
				</g>
				<g>
					<path class="st26" d="M2820.22,1925.57c-11.95,11.98-19.26,29.54-24.28,45.44c-2.16,6.84,8.47,9.81,10.68,3.03
						c5.11-15.64,13.43-28.34,20.92-42.74C2829.92,1926.72,2824.13,1921.65,2820.22,1925.57z"/>
				</g>
				<g>
					<path class="st26" d="M2892.47,1898.08c-8.99,8.68-15.18,19.68-19.51,31.32c-2.48,6.66,7.99,9.46,10.54,2.99
						c4.09-10.34,9.86-19.57,16.07-28.75C2902.51,1899.29,2896.12,1894.56,2892.47,1898.08z"/>
				</g>
				<g>
					<path class="st26" d="M2845.21,2001.62c-4.33,9.06-8.24,18.32-12.17,27.55c-2.78,6.51,7.93,9.54,10.64,3.02
						c3.67-8.83,7.36-17.66,10.65-26.64C2856.25,2000.28,2847.66,1996.49,2845.21,2001.62z"/>
				</g>
				<g>
					<path class="st26" d="M2930.19,1942.91c-7.89,10.75-13.68,23.54-19.9,35.31c-3.38,6.39,6.28,12.16,9.67,5.75
						c6.44-12.18,13.88-24.49,18.47-37.51C2940.25,1941.3,2933.02,1939.06,2930.19,1942.91z"/>
				</g>
				<g>
					<path class="st26" d="M2891.45,2062.68c-5.87,14.67-10.41,29.97-15.21,45.02c-2.16,6.76,8.44,9.75,10.59,3.01
						c4.79-15.03,9.95-30.11,13.64-45.46C2901.92,2059.26,2893.66,2057.17,2891.45,2062.68z"/>
				</g>
				<g>
					<path class="st26" d="M2827.09,2123.24c-4.23,12.2-5.41,26.06-7.5,38.78c-1.12,6.81,9.27,9.87,10.45,2.97
						c2.25-13.12,5.8-27.15,5.78-40.5C2835.82,2119.34,2828.72,2118.56,2827.09,2123.24z"/>
				</g>
				<g>
					<path class="st26" d="M2914.65,2132.12c-6.81,11.87-10.02,26.82-14.24,39.78c-2.21,6.78,8.44,9.77,10.64,3.02
						c4.23-13.01,10.29-26.86,11.79-40.51C2923.33,2129.94,2916.71,2128.54,2914.65,2132.12z"/>
				</g>
				<g>
					<path class="st26" d="M2864.11,2187.67c-4.08,15.77-6.61,32.05-9.23,48.11c-1.1,6.75,9.18,9.79,10.36,2.94
						c2.84-16.47,5.85-33.19,7.18-49.87C2872.81,2184.07,2865.3,2183.09,2864.11,2187.67z"/>
				</g>
				<g>
					<path class="st26" d="M2890.12,2246.08c-3.89,11.7-6.99,23.42-9.77,35.44c-1.49,6.41,8.39,9.23,9.85,2.8
						c2.82-12.4,5.16-24.65,6.82-37.25C2897.56,2242.98,2891.31,2242.5,2890.12,2246.08z"/>
				</g>
				<g>
					<path class="st26" d="M2848.44,2295.25c-2.46,10.33-4.7,20.72-6.84,31.12c-1.38,6.7,8.88,9.65,10.27,2.92
						c2.15-10.43,4.19-20.87,6.02-31.36C2858.94,2291.83,2849.93,2289,2848.44,2295.25z"/>
				</g>
				<g>
					<path class="st26" d="M2958.32,2012.94c-4.09,12.47-11.02,27.24-11.4,40.44c-0.11,3.96,5,4.9,7.03,1.96
						c3.78-5.47,5.53-12.37,7.69-18.62c2.4-6.93,4.75-13.88,7.04-20.84C2970.85,2009.29,2960.48,2006.37,2958.32,2012.94z"/>
				</g>
				<g>
					<path class="st26" d="M3016.77,1920.29c-10.2,10.87-18.73,23.98-23.02,38.36c-1.53,5.13,6.52,8.92,8.85,3.81
						c5.78-12.67,12.31-24.11,21.82-34.39C3029.18,1922.92,3021.59,1915.15,3016.77,1920.29z"/>
				</g>
				<g class="st23">
					<path d="M3226.45,2049.79c-32.46-44.47-72.18-83.81-121.39-115.54c-27.63-17.79-57.57-32.87-88.88-44.67
						c-46.78-17.61-97.57-26.87-148.38-26.91c19.86,11.95,38.54,25.88,55.52,40.15c64.92,53.59,111.31,127.45,110.65,213.2
						c-1.12,144.96-118.62,289.01-265.74,304.21c-122.03,11.08-246.56-27-342.11-101.81c-5.69,19.88-11.15,39.81-16.51,59.7
						c82.75,90.89,211.94,141.02,333.35,141.96c177.61,3.42,370.04-62.47,467.28-227.1
						C3254.84,2215.87,3255.49,2127.79,3226.45,2049.79z"/>
				</g>
				<g class="st19">
					<path d="M3226.45,2049.79c29.03,78,28.39,166.08-16.22,243.2c-97.24,164.63-289.67,230.52-467.28,227.1
						c-121.4-0.94-250.59-51.06-333.35-141.96c-1.02,3.79-2.05,7.59-3.06,11.37c-8.41,31.34-16.78,64.96-6.15,95.63
						c3.02,8.73,7.45,16.71,12.85,24.07c70.52,38.69,146.37,66.51,227.12,75.43c249.57,25.91,538.57,7.12,718.82-191.41
						C3334.44,2271.47,3298.2,2148.09,3226.45,2049.79z"/>
				</g>
				<g class="st22">
					<path d="M3376.56,2487.22c-5.3-30.91-10.95-62.4-17.37-94c-180.26,198.53-469.26,217.32-718.82,191.41
						c-80.75-8.91-156.6-36.74-227.12-75.43c2.2,3,4.54,5.9,7.05,8.69c12.04,13.51,27.27,24.75,42.59,34.57
						c25.48,16.31,52.3,30.2,80.04,42.15c39.64,17.11,81.13,30.25,123.05,40.79c149.09,37.46,306.61,41.99,457.4,12.81
						c59.28-11.49,117.52-28.16,173.77-50.11c8.11-3.16,16.16-6.43,24.17-9.8c20.87-8.8,43.01-19.76,52.95-40.1
						C3383.35,2529.62,3380.05,2507.63,3376.56,2487.22z"/>
				</g>
				<g class="st18">
					<path class="st0" d="M2779.94,1903.57c-27.87,6.31-54.04,18.71-78.66,33.22c-35.43,20.88-68.32,46.5-95.07,77.73
						c-26.75,31.23-47.25,68.22-56.75,108.23c-2.85,12.01-4.42,25.68,2.65,35.79c7.58,10.86,23.06,13.72,35.83,10.21
						c12.77-3.51,23.46-12.06,33.67-20.5c80.51-66.56,155.72-139.24,230.83-211.84c13.85-13.39,17-29.27-4.41-34.06
						C2825.73,1897.38,2802.12,1898.55,2779.94,1903.57z"/>
				</g>
				<g>
					<g>
						<path class="st24" d="M2745.3,2251.16c-4.26,5.16-7.95,10.93-9.73,17.37c-1.77,6.45-1.47,13.66,1.88,19.45
							c4.27,7.39,13,11.48,21.54,11.73c8.54,0.25,16.87-2.87,24.26-7.15c12.03-6.97,22.18-17.16,29.11-29.22
							c7.98-13.91,8.22-41.59-13.6-41.76C2778.88,2221.43,2757.38,2236.51,2745.3,2251.16z"/>
					</g>
					<g>
						<path class="st27" d="M2798.76,2221.58c-0.11,0-0.22,0.01-0.33,0.01c3.94,8.69,4.73,19.69,2.82,29.09
							c-4.75,23.39-23.06,43.63-44.86,48.81c0.87,0.1,1.73,0.2,2.6,0.22c8.54,0.25,16.87-2.87,24.26-7.15
							c12.03-6.97,22.18-17.16,29.11-29.22C2820.34,2249.42,2820.58,2221.74,2798.76,2221.58z"/>
					</g>
				</g>
				<g>
					<g>
						<path class="st24" d="M2981.52,2257.12c4.18,5.22,7.78,11.05,9.46,17.52c1.67,6.47,1.25,13.68-2.18,19.42
							c-4.39,7.33-13.18,11.28-21.72,11.4c-8.54,0.12-16.82-3.13-24.14-7.53c-11.93-7.16-21.92-17.5-28.65-29.67
							c-7.77-14.03-7.58-41.72,14.24-41.54C2948.41,2226.87,2969.67,2242.29,2981.52,2257.12z"/>
					</g>
					<g>
						<path class="st27" d="M2928.53,2226.71c0.11,0,0.22,0.02,0.33,0.02c-4.08,8.63-5.03,19.61-3.27,29.04
							c4.38,23.46,22.38,43.98,44.1,49.5c-0.87,0.09-1.74,0.17-2.6,0.18c-8.54,0.12-16.82-3.13-24.14-7.53
							c-11.93-7.16-21.92-17.5-28.65-29.67C2906.52,2254.22,2906.71,2226.54,2928.53,2226.71z"/>
					</g>
				</g>
				<g>
					<g>
						<path class="st24" d="M2786.32,2390.57c-24.11,20.66-42.3,50.5-49.66,77.3c-4.89,17.81-6.8,36.63-3.81,54.85
							c11.65,70.85,98.29,86.19,157.21,74.42c0.82-0.16,1.64-0.33,2.45-0.51c31.9-6.85,65.17-24.79,79.11-55.72
							c14.93-33.11,4.46-69.28-14.01-98.63c-17.53-27.85-42.62-54.48-73.1-67.94c-22.56-9.97-47.63-11.06-70.48-1.29
							c-2.47,1.06-4.9,2.22-7.28,3.48C2799.45,2380.41,2792.61,2385.18,2786.32,2390.57z"/>
					</g>
					<g class="st28">
						<path class="st27" d="M2939.74,2417.75c-15.29-18.17-33.93-34-55.21-43.4c-3.44-1.52-6.94-2.8-10.47-3.9
							c17.09,10.8,31.03,26.12,38.44,43.14c18.04,43.02-6.8,87.74-45.79,111.94c-36.91,20.13-87.98,23.82-116.29-11.11
							c-7.39-8.39-13.25-17.9-17.59-28.08c-1.74,12.08-1.94,24.36,0.04,36.39c3.38,20.58,13.13,36.45,26.66,48.36
							c10.17,4.04,20.8,6.93,31.23,8.97c57.09,10.65,110.38-15.48,141.38-64.24C2951.13,2484.69,2952.05,2448.65,2939.74,2417.75z"
							/>
					</g>
					<g>
						<path class="st27" d="M2957.63,2442.29c-5.29-8.4-11.28-16.69-17.88-24.54c12.3,30.9,11.39,66.94-7.62,98.07
							c-31,48.76-84.29,74.89-141.38,64.24c-10.43-2.04-21.06-4.93-31.23-8.97c33.03,29.08,88.76,34.4,130.55,26.06
							c0.82-0.16,1.64-0.33,2.45-0.51c31.9-6.85,65.17-24.79,79.11-55.72C2986.56,2507.8,2976.1,2471.64,2957.63,2442.29z"/>
					</g>
					<g>
						<path class="st25" d="M2935.57,2486.06c-7.25,16.5-23.26,24.16-40.45,17.78c-15.94-5.92-26.95-21.29-43.25-26.06
							c-1.53-0.45-3-0.69-4.43-0.82c-0.84-11.71-2.29-23.32-2.65-35.08c-0.38-12.38,0-24.74,0.8-37.1c0.16-2.44-3.58-2.43-3.78-0.03
							c-1.05,12.67-1.28,25.4-0.85,38.11c0.38,11.28,0.95,22.9,3.02,34.05c-10.49,0.78-18.61,9.2-28.05,14.35
							c-16.54,9.01-35.85,1.28-44.43-14.72c-0.45-0.85-1.94-0.28-1.59,0.66c4.16,11.34,13.91,19.46,25.94,21.26
							c13.71,2.04,23.38-4.79,34.18-12.02c6.35-4.25,13.07-7.21,20.79-4.94c7.6,2.23,14.07,7.66,20.31,12.31
							c11.25,8.37,23.98,17.27,38.72,16.4c13.49-0.8,24.23-10.54,29.25-22.63C2939.92,2485.57,2936.45,2484.06,2935.57,2486.06z"/>
					</g>
					<g>
						<g>
							<path class="st25" d="M2821.3,2385.51c-1.9,0.84-3.79,1.79-5.26,3.25c-1.47,1.47-2.46,3.54-2.16,5.6
								c0.25,1.73,1.36,3.21,2.57,4.47c5.25,5.44,12.89,7.96,20.4,8.81c13.19,1.5,26.88-1.69,38.05-8.87
								c2.47-1.59,4.93-3.51,5.98-6.25c3.96-10.33-18.87-12.33-25.01-12.8C2844.1,2378.8,2832.1,2380.73,2821.3,2385.51z"/>
						</g>
						<g class="st23">
							<path d="M2860.51,2380.16c-3.36,5.28-8.35,9.59-15.23,12.48c-9.56,3.1-20.31,1.23-28.42-4.59c-0.28,0.23-0.57,0.45-0.82,0.71
								c-0.6,0.6-1.11,1.3-1.5,2.06c19.37,11.29,44.3,8.9,56.35-8.75C2867.38,2381.11,2863.58,2380.52,2860.51,2380.16z"/>
						</g>
						<g class="st19">
							<path d="M2870.89,2382.07c-12.05,17.66-36.98,20.05-56.35,8.75c-0.56,1.1-0.84,2.32-0.67,3.53c0.1,0.7,0.37,1.36,0.71,1.98
								c11.08,6.36,25.36,7.81,38.79,6.58c11.68-1.08,20.06-8.19,25.13-17.52C2876.57,2383.95,2873.83,2382.88,2870.89,2382.07z"/>
						</g>
						<g class="st22">
							<path d="M2878.5,2385.4c-5.07,9.32-13.45,16.44-25.13,17.52c-13.44,1.24-27.71-0.21-38.79-6.58
								c0.49,0.91,1.15,1.74,1.86,2.49c5.25,5.44,12.89,7.96,20.4,8.81c13.19,1.5,26.88-1.69,38.05-8.87
								c2.47-1.59,4.93-3.51,5.98-6.25C2882.03,2389.48,2880.87,2387.17,2878.5,2385.4z"/>
						</g>
						<g class="st22">
							<path class="st0" d="M2835.17,2382.79c-3.13,0.76-6.24,1.77-8.93,3.54c-0.69,0.46-1.43,1.16-1.25,1.97
								c0.14,0.66,0.83,1.03,1.47,1.24c1.55,0.51,3.22,0.56,4.86,0.52c6.72-0.14,13.42-1.56,19.62-4.16
								c1.34-0.56,2.73-1.23,3.57-2.42c0.3-0.42,0.52-0.93,0.47-1.44c-0.13-1.3-1.58-1.11-2.51-1.13c-1.42-0.03-2.84-0.02-4.26,0.04
								c-2.82,0.12-5.63,0.41-8.41,0.88C2838.25,2382.1,2836.71,2382.41,2835.17,2382.79z"/>
						</g>
					</g>
				</g>
				<g>
					<path class="st25" d="M2802.19,2319.79c-7.19,1.55-12.79,9.56-16.13,15.57c-4.12,7.41-6.38,15.8-6.03,24.3
						c0.19,4.48,6.6,4.42,6.92,0c0.74-10.2,4.15-24.81,13.69-30.68c11.96-7.36,13.09,22.08,14.43,28.9
						c0.58,2.96,4.52,1.86,4.83-0.65C2821.21,2346.52,2819.69,2316.02,2802.19,2319.79z"/>
				</g>
				<g>
					<path class="st25" d="M2913.5,2324.26c-18.81-1.98-25.59,21.48-28.12,35.66c-0.49,2.77,3.27,4.81,4.81,2.03
						c5.28-9.56,6.69-29.87,21.06-30.06c15.19-0.2,14.99,21.73,15.3,32.29c0.14,4.64,7.09,4.65,7.21,0
						C2934.11,2350,2931.82,2326.19,2913.5,2324.26z"/>
				</g>
			</g>
			<g>
				<g>
					<path class="st20" d="M2716.1,2941.65c-1.37-4.62-2.94-9.2-4.75-13.73c-4.62-11.59-11.75-22.55-24.56-25.5
						c-10.76-2.47-24.75,0.48-28.71,12.16c-5.66-9.98-18.41-15.33-29.5-12.38c-11.09,2.95-19.49,13.93-19.45,25.41
						c-10.48-12.56-28.86-15.44-40.4-3.85c-22.79,22.88-23.28,103.64,30.51,162.54c20.2,22.12,49.56,44.73,81.1,43.81
						c35.04-1.02,55.06-31.71,54.35-64.35c-0.44-20.13-4.93-40.46-7.52-60.36C2724.39,2984.01,2722.27,2962.41,2716.1,2941.65z"/>
				</g>
				<g>
					<g>
						<path class="st29" d="M2681.06,3007.81c-21.46-7.44-44.92-0.12-56.84,19.68c-10.55,17.51-7.91,40.12,2.96,56.82
							c6.94,10.66,17.52,19.33,29.94,22.07c20.61,4.55,42.53-7.54,53.04-25.14c8.07-13.51,10.38-30.82,3.51-45.21
							C2707.31,3022.71,2694.9,3012.61,2681.06,3007.81z"/>
					</g>
					<g class="st30">
						<path d="M2690.21,3011.89c-2.94-1.61-6.01-2.99-9.15-4.08c-0.57-0.2-1.15-0.34-1.73-0.52c4.9,4.45,9,9.76,11.35,16.58
							c5.37,18.2,1.56,40.2-17.12,52.22c-18.52,9.8-38.14,3.94-52.86-8.26c-0.5-0.5-0.93-1.05-1.4-1.57
							c1.62,6.4,4.28,12.55,7.87,18.06c1.83,2.82,3.93,5.49,6.24,7.96c23.01,7.64,51.33,0.54,62.78-21.24
							C2706.64,3050.51,2702.55,3028.39,2690.21,3011.89z"/>
					</g>
					<g class="st18">
						<path d="M2713.67,3036.04c-4.91-10.3-13.45-18.66-23.46-24.15c12.34,16.5,16.43,38.62,6,59.15
							c-11.46,21.78-39.77,28.88-62.78,21.24c6.43,6.86,14.57,12.09,23.7,14.11c20.61,4.55,42.53-7.54,53.04-25.14
							C2718.23,3067.74,2720.54,3050.44,2713.67,3036.04z"/>
					</g>
				</g>
				<g>
					<g>
						<path class="st29" d="M2565.65,2949.12c-4.79,13.27-3.51,30.01,10.85,36.6c4.55,2.09,9.92,2.51,14.61,0.76
							c17.46-6.5,18.45-33.35,10.2-47.19c-2.55-4.28-6.77-8.55-11.38-10.58c-10.26-4.5-17.85,6.29-21.68,14.27
							C2567.29,2944.94,2566.41,2947,2565.65,2949.12z"/>
					</g>
					<g class="st18">
						<path d="M2605.44,2950.64c-0.71,6.89-3.43,13.62-8.9,19.69c-7.9,7.98-19.36,9.65-29.75,6.86c2.15,3.53,5.3,6.51,9.7,8.53
							c4.55,2.09,9.92,2.51,14.61,0.76C2604.5,2981.49,2608.18,2964.52,2605.44,2950.64z"/>
					</g>
					<g class="st30">
						<path d="M2601.3,2939.29c-0.55-0.92-1.19-1.83-1.88-2.73c2.74,6.27,2.82,13.22-1.92,20.47c-9,10.86-23.41,12.81-34.35,6.55
							c0.09,4.88,1.21,9.6,3.64,13.61c10.39,2.78,21.85,1.12,29.75-6.86c5.46-6.07,8.18-12.8,8.9-19.69
							C2604.61,2946.44,2603.22,2942.51,2601.3,2939.29z"/>
					</g>
				</g>
				<g>
					<g>
						<path class="st29" d="M2617.06,2939.26c-2.71,13.84,1.11,30.2,16.3,34.52c4.81,1.37,10.19,0.96,14.56-1.48
							c16.26-9.08,13.15-35.78,2.88-48.19c-3.18-3.84-8-7.42-12.87-8.72c-10.83-2.89-16.68,8.94-19.25,17.41
							C2618.05,2934.89,2617.49,2937.05,2617.06,2939.26z"/>
					</g>
					<g class="st18">
						<path d="M2656.62,2934.7c0.35,6.92-1.32,13.98-5.79,20.81c-6.59,9.09-17.67,12.49-28.36,11.32c2.66,3.16,6.23,5.62,10.89,6.95
							c4.81,1.37,10.19,0.96,14.56-1.48C2660.4,2965.33,2661.44,2948,2656.62,2934.7z"/>
					</g>
					<g class="st30">
						<path d="M2650.8,2924.11c-0.68-0.82-1.45-1.63-2.27-2.41c3.66,5.78,4.8,12.64,1.22,20.53c-7.24,12.1-21.18,16.23-32.95,11.71
							c0.83,4.81,2.66,9.31,5.68,12.89c10.69,1.17,21.77-2.23,28.36-11.32c4.47-6.83,6.13-13.9,5.79-20.81
							C2655.16,2930.67,2653.19,2927,2650.8,2924.11z"/>
					</g>
				</g>
				<g>
					<g>
						<path class="st29" d="M2664.44,2934.86c-1.1,14.06,4.59,29.86,20.18,32.4c4.94,0.8,10.23-0.22,14.29-3.15
							c15.1-10.9,8.93-37.06-2.71-48.2c-3.6-3.45-8.8-6.45-13.79-7.17c-11.09-1.62-15.54,10.81-17.11,19.52
							C2664.92,2930.4,2664.62,2932.62,2664.44,2934.86z"/>
					</g>
					<g class="st18">
						<path d="M2703.21,2925.76c1.14,6.83,0.31,14.04-3.34,21.34c-5.5,9.79-16.11,14.44-26.86,14.52c3.01,2.84,6.84,4.87,11.62,5.64
							c4.94,0.8,10.23-0.22,14.29-3.15C2710.5,2955.75,2709.54,2938.42,2703.21,2925.76z"/>
					</g>
					<g class="st30">
						<path d="M2696.2,2915.92c-0.77-0.74-1.63-1.45-2.53-2.13c4.3,5.32,6.23,12,3.59,20.25c-5.79,12.86-19.16,18.56-31.38,15.44
							c1.38,4.68,3.72,8.94,7.13,12.15c10.76-0.08,21.36-4.73,26.86-14.52c3.65-7.3,4.49-14.51,3.34-21.34
							C2701.3,2921.93,2698.91,2918.51,2696.2,2915.92z"/>
					</g>
				</g>
				<g class="st22">
					<path d="M2734.69,3065.75c-0.44-20.13-4.93-40.46-7.52-60.36c-2.78-21.39-4.9-42.98-11.07-63.74
						c-1.37-4.61-2.94-9.2-4.75-13.73c-4.62-11.59-11.75-22.55-24.56-25.5c-1-0.23-2.03-0.4-3.07-0.53
						c33.24,64.19,46.79,150-9.85,200.94c-11.29,10.59-25.52,14.04-40.14,12.89c14.28,8.92,30.15,14.86,46.61,14.38
						C2715.38,3129.08,2735.4,3098.4,2734.69,3065.75z"/>
				</g>
				<g class="st18">
					<path d="M2683.72,2901.9c-10.2-1.3-22.05,2.09-25.64,12.69c-5.66-9.98-18.41-15.33-29.5-12.38
						c-11.09,2.95-19.49,13.93-19.45,25.41c-10.48-12.56-28.86-15.44-40.4-3.85c-3.3,3.31-6.11,7.86-8.38,13.35
						c8.77,2.23,17.32,5.31,24.65,7.89c19.62,5.87,36.57-12.96,54.77-18.33c29.6-9.01,38.13,27.24,38.75,49.56
						c-0.18,33.39-2.88,71.06-28.85,91.46c-20.35,17.62-41.94,16.24-61.48,5.17c3.4,4.57,7.06,9.07,11.05,13.44
						c9.66,10.57,21.41,21.25,34.49,29.43c14.63,1.15,28.86-2.3,40.14-12.89C2730.52,3051.9,2716.96,2966.08,2683.72,2901.9z"/>
				</g>
			</g>
			<g>
				<g>
					<path class="st20" d="M3002.37,2939.65c2.8-4.29,5.78-8.49,9.01-12.57c8.23-10.42,18.82-19.44,32.77-18.56
						c11.72,0.74,25.1,7.99,25.59,21.11c8.8-8.46,23.43-10.06,33.84-3.69c10.41,6.37,15.66,20.12,12.13,31.81
						c14.49-9.64,34.11-7,42.37,8.32c16.31,30.24-7.67,112.75-80.37,156.52c-27.31,16.44-64.1,30.59-95.99,20.1
						c-35.42-11.66-46.54-49.03-35.92-82.1c6.55-20.4,17.3-39.77,25.96-59.28C2981.08,2980.33,2989.79,2958.96,3002.37,2939.65z"/>
				</g>
				<g>
					<g>
						<path class="st29" d="M3018.05,3017.75c24.14-1.08,45.84,13.49,52.01,37.3c5.45,21.06-4.09,43.31-20.24,57.06
							c-10.3,8.77-23.73,14.4-37.22,13.43c-22.4-1.61-41.09-20.58-46.47-41.71c-4.14-16.22-1.25-34.57,10.12-47.17
							C2986.76,3024.98,3002.49,3018.45,3018.05,3017.75z"/>
					</g>
					<g class="st30">
						<path d="M3007.49,3019.13c3.49-0.75,7.03-1.23,10.57-1.39c0.64-0.03,1.28,0,1.92-0.01c-6.35,3.05-12.13,7.23-16.6,13.47
							c-11,16.94-13.78,40.53,1.63,58.45c15.92,15.61,37.71,15.58,56.41,7.6c0.66-0.36,1.27-0.79,1.9-1.18
							c-3.59,6.03-8.17,11.5-13.49,16.03c-2.73,2.32-5.67,4.41-8.78,6.23c-25.79,0.81-52.51-15.01-57.59-40.69
							C2979.03,3053.54,2989.91,3032.22,3007.49,3019.13z"/>
					</g>
					<g class="st18">
						<path d="M2976.24,3036.65c8.13-9.02,19.38-14.95,31.25-17.51c-17.58,13.08-28.46,34.41-24.04,58.5
							c5.08,25.68,31.8,41.51,57.59,40.69c-8.64,5.05-18.52,7.92-28.44,7.2c-22.4-1.61-41.09-20.58-46.47-41.71
							C2961.98,3067.6,2964.87,3049.25,2976.24,3036.65z"/>
					</g>
				</g>
				<g>
					<g>
						<path class="st29" d="M3153.55,2992.86c0.87,14.98-5.52,31.67-22.15,34.04c-5.27,0.75-10.88-0.45-15.13-3.65
							c-15.84-11.92-8.71-39.61,3.9-51.22c3.9-3.59,9.5-6.67,14.82-7.34c11.83-1.49,16.3,11.83,17.79,21.13
							C3153.14,2988.11,3153.41,2990.47,3153.55,2992.86z"/>
					</g>
					<g class="st18">
						<path d="M3112.5,2982.36c-1.36,7.24-0.63,14.93,3.1,22.77c5.64,10.53,16.82,15.71,28.27,16.02
							c-3.26,2.95-7.38,5.03-12.48,5.76c-5.27,0.75-10.88-0.45-15.13-3.65C3104.11,3014.11,3105.51,2995.69,3112.5,2982.36z"/>
					</g>
					<g class="st30">
						<path d="M3120.17,2972.03c0.84-0.77,1.77-1.51,2.74-2.21c-4.69,5.56-6.88,12.63-4.24,21.46c5.89,13.8,19.99,20.16,33.05,17.09
							c-1.57,4.95-4.14,9.43-7.84,12.78c-11.44-0.31-22.63-5.48-28.27-16.02c-3.73-7.84-4.47-15.53-3.1-22.77
							C3114.62,2978.32,3117.23,2974.73,3120.17,2972.03z"/>
					</g>
				</g>
				<g>
					<g>
						<path class="st29" d="M3104.1,2967.23c-1.43,14.94-10.29,30.46-27.09,30.26c-5.32-0.06-10.68-2.11-14.4-5.92
							c-13.83-14.19-2.57-40.48,11.67-50.02c4.4-2.95,10.4-5.14,15.76-4.99c11.92,0.34,14.3,14.17,14.36,23.59
							C3104.42,2962.47,3104.33,2964.84,3104.1,2967.23z"/>
					</g>
					<g class="st18">
						<path d="M3065.14,2950.59c-2.45,6.95-2.9,14.66-0.4,22.98c3.97,11.27,14.23,18.09,25.49,20.14
							c-3.67,2.42-8.06,3.85-13.21,3.79c-5.32-0.06-10.68-2.11-14.4-5.92C3052,2980.68,3056.19,2962.69,3065.14,2950.59z"/>
					</g>
					<g class="st30">
						<path d="M3074.28,2941.55c0.95-0.63,1.98-1.22,3.05-1.77c-5.48,4.78-8.73,11.44-7.47,20.56
							c3.71,14.53,16.68,22.97,30.06,21.93c-2.31,4.65-5.53,8.69-9.7,11.43c-11.26-2.05-21.52-8.87-25.49-20.14
							c-2.49-8.32-2.04-16.03,0.4-22.98C3067.85,2946.92,3070.98,2943.77,3074.28,2941.55z"/>
					</g>
				</g>
				<g>
					<g>
						<path class="st29" d="M3057.11,2948.39c-3.15,14.68-13.74,29.07-30.4,26.93c-5.28-0.68-10.37-3.32-13.62-7.54
							c-12.1-15.69,2.13-40.5,17.37-48.34c4.71-2.43,10.93-3.91,16.23-3.14c11.8,1.71,12.57,15.73,11.54,25.09
							C3057.98,2943.69,3057.62,2946.04,3057.11,2948.39z"/>
					</g>
					<g class="st18">
						<path d="M3020.33,2927.35c-3.24,6.62-4.57,14.23-3.06,22.78c2.64,11.65,12.05,19.61,22.99,22.95
							c-3.93,1.98-8.45,2.89-13.56,2.23c-5.28-0.68-10.37-3.32-13.62-7.54C3003.81,2955.73,3010.04,2938.34,3020.33,2927.35z"/>
					</g>
					<g class="st30">
						<path d="M3030.46,2919.44c1.01-0.52,2.1-0.99,3.23-1.41c-6,4.12-9.99,10.35-9.79,19.56c2.01,14.87,13.92,24.74,27.32,25.26
							c-2.83,4.35-6.5,7.99-10.95,10.23c-10.95-3.34-20.36-11.3-22.99-22.95c-1.51-8.55-0.18-16.16,3.06-22.78
							C3023.45,2924.02,3026.92,2921.26,3030.46,2919.44z"/>
					</g>
				</g>
				<g class="st22">
					<path d="M2945.8,3060.58c6.55-20.4,17.3-39.77,25.96-59.28c9.31-20.97,18.02-42.35,30.61-61.65c2.8-4.29,5.78-8.49,9.01-12.57
						c8.23-10.42,18.82-19.44,32.77-18.56c1.09,0.07,2.19,0.21,3.29,0.39c-53.35,55.39-93.19,138.8-50.86,207.92
						c8.3,14.22,21.77,22.05,37.04,25.31c-17.27,4.77-35.25,6.02-51.89,0.54C2946.3,3131.02,2935.18,3093.66,2945.8,3060.58z"/>
				</g>
				<g class="st18">
					<path d="M3047.44,2908.92c10.8,1.76,21.85,8.82,22.3,20.71c8.8-8.46,23.43-10.06,33.84-3.69
						c10.41,6.37,15.66,20.12,12.13,31.81c14.49-9.64,34.11-7,42.37,8.32c2.36,4.37,3.85,9.87,4.49,16.16
						c-9.62-0.38-19.28,0.17-27.53,0.57c-21.79,0.04-33.36-24.3-50.3-35.3c-27.46-18.16-47.14,16.23-54.54,38.8
						c-9.94,34.11-18.59,73.35,1.7,102.03c15.42,24.14,37.85,29.27,61.14,23.9c-4.86,3.63-9.95,7.11-15.34,10.36
						c-13.05,7.86-28.28,15.19-44.09,19.56c-15.27-3.26-28.74-11.09-37.04-25.31C2954.26,3047.72,2994.09,2964.31,3047.44,2908.92z"
						/>
				</g>
			</g>
			<g>
				<g>
					<path class="st17" d="M3295.18,3021.92c-3.13-11.97-7.69-23.72-13.52-35.05c-12.56-24.4-31.08-46.79-54.15-64.99l-57.64,69.33
						c0.3,0.27,0.6,0.53,0.89,0.8c9.92,9.3,15.48,22.53,13.84,34.97c-0.79,6.09-2.84,11.9-5.85,17.39
						c-7.62,13.99-21.39,25.96-36.6,35.47c-1.25,0.78-2.52,1.54-3.79,2.29c-19.5,11.51-41.47,20.07-64.53,25.5
						c-34.5,8.12-71.49,9.26-106.49,2.75c-4.09-0.75-8.14-1.61-12.17-2.58c-19.85-4.76-38.46-11.8-56.44-20.04
						c-35.03-16.03-67.59-36.64-101.96-53.95c-1.93-0.97-3.87-1.94-5.83-2.89c-19.13-9.36-39.13-17.74-59.75-24.78
						c-29.52-10.08-60.32-17.41-91.7-20.9c-17.76-1.99-35.7-2.73-53.7-2.07c-7.76,0.29-15.51,0.87-23.23,1.75
						c-66.29,7.47-129.97,36.19-164.77,82.84c-26.93,36.13-34.67,80.45-26.07,122.38v0.01c1.96,9.62,4.8,19.1,8.45,28.34
						c7.52,19.03,18.27,37.01,31.51,53.73c21.22,26.84,48.87,50.48,79.84,70.04c10.88,6.88,22.19,13.27,33.85,19.18
						c30.03,15.24,62.39,27.26,96.08,36.12c52.64,13.84,108.52,19.95,163.79,18.45c19.92-0.54,39.76-2.04,59.43-4.41
						c45.84-5.51,90.81-15.8,134-29.95c35.42-11.6,69.62-25.8,102.11-42.1c40.77-20.45,79.38-44.5,112.65-72.55
						c21.53-18.13,40.82-37.94,57.05-59.53c3.43-4.57,6.71-9.22,9.83-13.95c24.64-37.24,39.57-79.22,40.62-121.25
						C3301.34,3055.39,3299.52,3038.51,3295.18,3021.92z"/>
				</g>
				<g>
					<path class="st20" d="M2639.51,2985.22c-9.87,59.28-33.95,118.12-73.82,166.89c-39.81,48.65-92.89,89.88-153.99,120.11
						c-13.25-16.73-23.99-34.7-31.51-53.73c-3.65-9.24-6.49-18.72-8.45-28.34v-0.01c88.83-48.44,157.3-122.08,190.84-205.22
						c7.72-0.87,15.48-1.46,23.23-1.75C2603.8,2982.49,2621.75,2983.24,2639.51,2985.22z"/>
				</g>
				<g>
					<path class="st20" d="M2761.32,3261.39c-31.41,54.23-80.36,101.33-139.86,136.17c-33.69-8.86-66.05-20.88-96.08-36.12
						c67.29-39.66,122.35-93.32,158.18-154.68c36.26-62.1,52.69-131.88,47.65-200.63c20.61,7.04,40.62,15.42,59.75,24.78
						C2811.95,3107.64,2802.3,3190.59,2761.32,3261.39z"/>
				</g>
				<g>
					<path class="st20" d="M3001.5,3273.95c-1.69,36.53-9.48,72.83-22.83,107.68c-43.19,14.16-88.15,24.44-134,29.95
						c58.53-99.72,78.18-214.9,54.07-323.85c17.98,8.24,36.58,15.28,56.44,20.04c4.02,0.97,8.08,1.83,12.17,2.58
						C2992.14,3162.26,3004.1,3217.96,3001.5,3273.95z"/>
				</g>
				<g>
					<path class="st20" d="M3260.32,3193.5c-3.13,4.73-6.4,9.38-9.83,13.95c-16.22,21.6-35.52,41.41-57.05,59.53
						c-27.24-58.65-68.05-113.04-119.6-159.36c23.06-5.43,45.03-13.99,64.53-25.5c1.27-0.75,2.53-1.51,3.79-2.29
						C3190.67,3110.37,3231.37,3149.39,3260.32,3193.5z"/>
				</g>
				<g>
					<path class="st20" d="M3300.94,3072.26c-39.52-13.28-79.4-22.36-122.19-27.89c3.01-5.5,5.05-11.3,5.85-17.39
						c1.64-12.44-3.92-25.67-13.84-34.97c35.59-9.36,74.16-10.99,110.9-5.14c5.83,11.33,10.39,23.08,13.52,35.05
						C3299.52,3038.51,3301.34,3055.39,3300.94,3072.26z"/>
				</g>
				<g class="st22">
					<path d="M3295.18,3021.92c-3.13-11.97-7.69-23.72-13.52-35.05c-7.19-13.97-16.34-27.28-27.17-39.52
						c30.92,124.87-20.62,261.49-134.62,322.42c-106.17,57.17-220.5,87.79-338.92,79.63c-144.36-10.44-294.62-54.99-406.66-148.73
						c1.64,6.01,3.59,11.96,5.9,17.81c7.52,19.03,18.27,37,31.51,53.73c21.22,26.84,48.87,50.48,79.84,70.04
						c10.88,6.88,22.19,13.27,33.85,19.18c30.03,15.24,62.38,27.26,96.08,36.12c52.64,13.84,108.52,19.95,163.79,18.45
						c19.92-0.54,39.76-2.04,59.43-4.41c45.84-5.51,90.81-15.8,134-29.95c35.42-11.6,69.62-25.8,102.11-42.1
						c40.77-20.45,79.38-44.5,112.66-72.55c21.53-18.13,40.82-37.93,57.05-59.53c3.43-4.57,6.71-9.22,9.83-13.95
						c24.64-37.24,39.57-79.22,40.62-121.25C3301.34,3055.39,3299.52,3038.51,3295.18,3021.92z"/>
				</g>
				<g class="st18">
					<path d="M3254.49,2947.36c-8.09-9.14-17.12-17.69-26.98-25.47l-28.59,34.39c51.37,84.27,1.71,195.9-79.05,252.25
						c-128.63,89.83-283.8,87.79-432.84,65.33c-67.38-8.17-124.54-46.96-173.54-93.92c-42.57-39.03-65.96-99.28-65.02-157.37
						c-20.08,12.36-37.45,27.47-50.65,45.17c-26.93,36.13-34.67,80.45-26.07,122.38v0.01c0.72,3.53,1.6,7.04,2.55,10.54
						c112.04,93.74,262.29,138.29,406.66,148.73c118.42,8.17,232.75-22.46,338.92-79.63
						C3233.87,3208.85,3285.41,3072.23,3254.49,2947.36z"/>
				</g>
				<g class="st22">
					<path class="st0" d="M2619.33,3033.53c-13.46-0.25-27.35,0.75-39.42,6.71c-12.07,5.95-22,17.8-22.3,31.25
						c-0.3,13.28,8.42,25.01,17.83,34.39c24.48,24.41,55.97,40.57,88.06,53.43c48.2,19.31,99.04,32.04,150.65,37.71
						c26,2.86,52.42,3.92,78.23-0.37c25.8-4.3,51.1-14.22,70.86-31.37c6.73-5.84,18.53-19.18,11.7-28.98
						c-5.18-7.44-17.3-3.43-24.89-3.58c-26.94-0.54-55.09-10.13-80.29-18.95c-53.62-18.76-104.15-45.43-158.2-63.07
						C2681.72,3040.97,2650.79,3034.11,2619.33,3033.53z"/>
				</g>
			</g>
		</g>
	</g>
</g>
<g id="Layer_3">
</g>
</svg>
