<?xml version="1.0" encoding="utf-8"?>
<!-- Generator: Adobe Illustrator 24.1.2, SVG Export Plug-In . SVG Version: 6.00 Build 0)  -->
<svg version="1.1" xmlns="http://www.w3.org/2000/svg" xmlns:xlink="http://www.w3.org/1999/xlink" x="0px" y="0px"
	 viewBox="0 0 3710 3710" style="enable-background:new 0 0 3710 3710;" xml:space="preserve">
<style type="text/css">
	.st0{opacity:0.3;fill:url(#SVGID_1_);}
	.st1{fill:url(#SVGID_2_);}
	.st2{fill:#FFFFFF;}
	.st3{fill:url(#SVGID_3_);}
	.st4{fill:url(#SVGID_4_);}
	.st5{fill:url(#SVGID_5_);}
	.st6{fill:url(#SVGID_6_);}
	.st7{opacity:0.6;fill:#FFFFFF;}
	.st8{opacity:0.72;fill:#FFFFFF;}
	.st9{fill:url(#SVGID_7_);}
	.st10{fill:url(#SVGID_8_);}
	.st11{fill:url(#SVGID_9_);}
	.st12{fill:url(#SVGID_10_);}
	.st13{fill:url(#SVGID_11_);}
	.st14{fill:url(#SVGID_12_);}
	.st15{fill:url(#SVGID_13_);}
	.st16{fill:url(#SVGID_14_);}
	.st17{fill:url(#SVGID_15_);}
	.st18{fill:url(#SVGID_16_);}
	.st19{fill:url(#SVGID_17_);}
	.st20{fill:url(#SVGID_18_);}
	.st21{fill:url(#SVGID_19_);}
	.st22{fill:url(#SVGID_20_);}
	.st23{fill:url(#SVGID_21_);}
	.st24{fill:url(#SVGID_22_);}
	.st25{fill:url(#SVGID_23_);}
	.st26{display:none;}
	.st27{display:inline;fill:url(#SVGID_24_);}
	.st28{display:inline;fill:url(#SVGID_25_);}
	.st29{display:inline;fill:url(#SVGID_26_);}
	.st30{display:inline;fill:url(#SVGID_27_);}
	.st31{display:inline;opacity:0.49;fill:#FFFFFF;}
	.st32{display:inline;fill:url(#SVGID_28_);}
	.st33{display:inline;fill:url(#SVGID_29_);}
	.st34{display:inline;fill:url(#SVGID_30_);}
	.st35{display:inline;fill:url(#SVGID_31_);}
	.st36{display:inline;fill:url(#SVGID_32_);}
	.st37{display:inline;fill:url(#SVGID_33_);}
	.st38{display:inline;fill:url(#SVGID_34_);}
	.st39{display:inline;fill:url(#SVGID_35_);}
	.st40{display:inline;fill:url(#SVGID_36_);}
	.st41{display:inline;fill:url(#SVGID_37_);}
	.st42{display:inline;fill:url(#SVGID_38_);}
	.st43{display:inline;fill:url(#SVGID_39_);}
	.st44{display:inline;}
	.st45{display:inline;fill:url(#SVGID_40_);}
	.st46{fill:url(#SVGID_41_);}
	.st47{fill:url(#SVGID_42_);}
</style>
<g id="Background">
</g>
<g id="Illustration">
	<g>
		<linearGradient id="SVGID_1_" gradientUnits="userSpaceOnUse" x1="3458.5103" y1="3608.6287" x2="1536.084" y2="1562.1755">
			<stop  offset="0" style="stop-color:#B37CFF"/>
			<stop  offset="1" style="stop-color:#F895E7"/>
		</linearGradient>
		<path class="st0" d="M2889.74,2781.01c-172.21,165.56-395.4,282.68-627.97,339.15c-596.1,144.73-1415.29,2.93-1697.45-596.52
			c-73.26-155.63-97.35-326.67-100.04-496.7c-9.86-622.24,351.32-1265.96,973.09-1476.67c332.84-112.8,711.39-90.23,1027.72,61.28
			c673.18,322.42,980.08,1226.12,643.13,1879.42C3052.39,2599.21,2977.71,2696.43,2889.74,2781.01z"/>
		<g>
			
				<linearGradient id="SVGID_2_" gradientUnits="userSpaceOnUse" x1="1226.8173" y1="1678.0027" x2="664.6589" y2="513.5303" gradientTransform="matrix(0.9896 -0.1436 0.1436 0.9896 -483.3565 234.5377)">
				<stop  offset="0" style="stop-color:#B37CFF"/>
				<stop  offset="1" style="stop-color:#F895E7"/>
			</linearGradient>
			<path class="st1" d="M580.97,505.35c-3.69-15.03,17.4-25.26,30.48-14.87c132.86,105.52,452.74,422.3,379.51,982.31
				c-91.87,702.62,79.98,956.91,292.25,1110.94c0,0-290.08-70.5-474.76-328.43C355.03,1622.03,646.62,772.58,580.97,505.35z"/>
			<path class="st2" d="M683.48,723.48c17.28,77.94,32.77,156.14,44.92,234.72c12.63,78.51,22.5,157.33,29.5,236.3
				c6.66,78.99,11.59,158.08,12.63,237.25c1.45,79.16-1.04,158.29-3.86,237.73c-2.3,79.41-5.15,159.4,1.48,239.85
				c6.53,80.29,24.27,161.18,58.6,236.82c8.58,18.85,17.6,37.64,27.81,55.78c9.82,18.31,20.59,36.25,31.72,54.01
				c22.48,35.44,47.72,69.64,75.8,102.07c56.35,64.73,124.09,121.98,198.58,170.25c7.84,5.08,18.98,3.7,24.89-3.09
				c5.8-6.66,4.39-16.06-3.08-21.21l-0.05-0.04c-17.73-12.18-35.27-24.53-52.12-37.51c-8.55-6.38-16.74-13.06-25.08-19.62
				c-8.04-6.82-16.4-13.37-24.18-20.4c-31.7-27.64-61.11-57.18-87.83-88.45c-53.75-62.25-96.98-131.79-129.93-204
				c-16.01-36.28-28.89-73.52-38.4-111.5c-9.48-37.99-15.59-76.67-19.15-115.69c-7.13-78.09-5.07-157.27-3.43-236.69
				c1.52-79.44,2.42-159.27-0.48-239c-1.33-39.86-3.49-79.7-6.47-119.48c-1.36-19.9-3.16-39.77-4.93-59.64
				c-1.98-19.85-4.09-39.7-6.39-59.52c-9.36-79.28-21.52-158.27-36.55-236.8c-15.47-78.47-33.34-156.56-54.68-233.91
				c-0.61-2.21-3.18-3.57-5.74-3.04C684.57,719.21,683.01,721.33,683.48,723.48z"/>
		</g>
		<g>
			<g>
				<linearGradient id="SVGID_3_" gradientUnits="userSpaceOnUse" x1="2617.6282" y1="357.9129" x2="289.7863" y2="3612.2031">
					<stop  offset="0" style="stop-color:#CB236D"/>
					<stop  offset="1" style="stop-color:#4C246D"/>
				</linearGradient>
				<path class="st3" d="M769.52,862.28c15.97-14.95,37.55-22.39,59.35-20.43c233.1,20.96,668.01-91.32,952.25-382.15
					c19.74-20.19,55.71-8.78,78.34,8.13c316.11,236.26,840.1,285.19,1022.01,295.19c37.63,2.07,68.16,31.26,72.04,68.74
					c165.42,1597.71-874.83,2176.66-1090.58,2278.85c-23.58,11.17-51.35,9.55-73.5-4.25
					C714.12,2436.59,760.12,1565.56,745.24,920.17C744.74,898.3,753.55,877.24,769.52,862.28z"/>
				<path class="st2" d="M1833.82,2991.01c-4.14,0-8.28-1.16-11.87-3.46c-411.56-263.09-679.78-577.55-819.98-961.36
					c-125.26-342.92-131.4-692.35-136.81-1000.64c-0.24-13.8-0.48-27.52-0.73-41.14c-0.11-5.9,2.11-11.46,6.24-15.67
					c4.17-4.25,9.77-6.59,15.76-6.59c0,0,0,0,0.01,0c135.74,0,296.21-31.52,452.06-88.75c178.5-65.55,340.97-161.24,469.86-276.72
					c7.43-6.66,18.42-7.45,26.74-1.94c26.33,17.47,50.74,33.67,73.57,48.67c-25.84-14.42-51.05-29.7-75.42-45.88
					c-7.05-4.67-16.36-4-22.65,1.64c-129.2,115.77-292.04,211.68-470.93,277.37c-156.21,57.36-317.09,88.95-453,88.95
					c0,0,0,0-0.01,0c-5.3,0-10.05,1.98-13.59,5.59c-3.49,3.56-5.37,8.27-5.28,13.26c0.25,13.62,0.49,27.34,0.73,41.14
					c5.41,308.03,11.54,657.15,136.61,999.55c139.94,383.09,407.72,697.01,818.64,959.69c5.57,3.57,12.67,3.91,18.51,0.91l0.76,1.49
					l-0.76-1.49c106.99-54.99,380.77-216.33,611.72-526.07c309.33-414.87,438.54-940.43,384.05-1562.09
					c-0.8-9.13-7.99-16.24-17.11-16.91c-42.88-3.16-92.59-7.73-147.08-14.33c44.98,3.44,93.88,7.05,147.32,10.99
					c10.76,0.79,19.25,9.19,20.19,19.95c54.56,622.51-74.87,1148.84-384.7,1564.39c-231.37,310.3-505.68,471.95-612.87,527.04l0,0
					C1840.67,2990.22,1837.24,2991.01,1833.82,2991.01z"/>
			</g>
		</g>
		<g>
			
				<linearGradient id="SVGID_4_" gradientUnits="userSpaceOnUse" x1="-1180.2618" y1="1825.7212" x2="-1209.881" y2="2928.4387" gradientTransform="matrix(-1 0 0 1 -588.4281 0)">
				<stop  offset="0" style="stop-color:#2B3582"/>
				<stop  offset="1" style="stop-color:#150E42"/>
			</linearGradient>
			<path class="st4" d="M471.4,3018.89c26.56-267.88,93.01-933.22,107.52-1030.46c18.24-122.23,168.01-95.25,168.01-95.25
				l32.07,1236.88H570.18c-28.07,0-54.83-12.1-73.64-33.31C477.73,3075.53,468.58,3047.33,471.4,3018.89z"/>
			
				<linearGradient id="SVGID_5_" gradientUnits="userSpaceOnUse" x1="-3400.1821" y1="1253.6937" x2="-4992.3701" y2="3344.988" gradientTransform="matrix(-0.0212 -0.9997 -0.9997 0.0212 3402.7639 -1525.9956)">
				<stop  offset="0" style="stop-color:#2B3582"/>
				<stop  offset="1" style="stop-color:#150E42"/>
			</linearGradient>
			<path class="st5" d="M2160.92,3161.23c65.21-1.38,116.95-55.37,115.57-120.58l-21.3-1004.14
				c-1.18-55.4-45.56-100.16-100.94-101.8l-1457.38-43.24c-43.34-1.29-79.14,33.57-79.01,76.93l3.5,1151.31
				c0.12,40.74,33.64,73.46,74.38,72.59L2160.92,3161.23z"/>
			<g>
				
					<linearGradient id="SVGID_6_" gradientUnits="userSpaceOnUse" x1="-4793.4395" y1="3164.937" x2="-3621.9851" y2="1436.6301" gradientTransform="matrix(-0.0212 -0.9997 -0.9997 0.0212 3402.7639 -1525.9956)">
					<stop  offset="0" style="stop-color:#A737D5"/>
					<stop  offset="1" style="stop-color:#EF497A"/>
				</linearGradient>
				<path class="st6" d="M2254.85,3076.94c20.87-0.32,36.63-19.01,33.38-39.63c-21.5-136.73-89.02-607.04-67.36-997.53
					c0.99-17.81-12.81-32.95-30.64-33.52l-1463.95-46.7c-20.07-0.64-36.89,15.03-37.66,35.1c-6.22,164.17-29.41,840.23,0.92,1080.56
					c1.85,14.63,14.42,25.49,29.17,25.27L2254.85,3076.94z"/>
				<path class="st7" d="M2217.86,3061.56c20.08-0.31,35.25-18.29,32.13-38.13c-20.69-131.58-85.67-584.18-64.82-959.97
					c0.95-17.14-12.33-31.71-29.48-32.26l-1408.82-44.94c-19.32-0.62-35.51,14.47-36.24,33.78
					c-5.99,157.99-28.31,808.6,0.89,1039.87c1.78,14.08,13.88,24.53,28.07,24.31L2217.86,3061.56z"/>
			</g>
			<path class="st8" d="M1351.96,2269.94l2.15,101.46c0.33,15.49-12.09,28.24-27.58,28.33l-104.07,0.59
				c-15.15,0.09-27.57-12-27.89-27.15l-2.26-106.67c-0.34-16.03,12.94-29.01,28.97-28.3l104.18,4.62
				C1340.06,2243.47,1351.65,2255.33,1351.96,2269.94z"/>
			<linearGradient id="SVGID_7_" gradientUnits="userSpaceOnUse" x1="1643.6351" y1="2362.9609" x2="1939.2073" y2="1790.006">
				<stop  offset="0" style="stop-color:#FDF53F"/>
				<stop  offset="1" style="stop-color:#D93C65"/>
			</linearGradient>
			<path class="st9" d="M1715.82,2398.88l-104.07,0.59c-15.15,0.08-27.57-12-27.89-27.15l-1.92-90.72
				c-0.34-15.94,12.8-28.89,28.73-28.31l104.16,3.74c14.7,0.53,26.43,12.43,26.74,27.14l1.83,86.4
				C1743.73,2386.04,1731.31,2398.8,1715.82,2398.88z"/>
			<path class="st8" d="M1624.64,2850.83l99-0.96c16.58-0.16,30.21,13.05,30.56,29.63l1.97,92.71
				c0.35,16.47-12.53,30.19-28.99,30.89l-98.93,4.19c-16.96,0.72-31.19-12.64-31.55-29.61l-2.04-95.93
				C1594.31,2864.89,1607.78,2850.99,1624.64,2850.83z"/>
			<path class="st8" d="M1791.19,2969.97l-1.92-90.64c-0.35-16.56,12.89-30.22,29.46-30.39l100.03-0.97
				c16.3-0.16,29.69,12.83,30.04,29.12l1.85,87.38c0.34,16.18-12.32,29.67-28.49,30.36l-99.96,4.23
				C1805.53,2999.78,1791.54,2986.65,1791.19,2969.97z"/>
			<path class="st8" d="M1782.51,2560.76l-1.58-74.41c-0.38-17.97,14.1-32.73,32.07-32.7l95.53,0.17
				c17.4,0.03,31.59,13.95,31.96,31.34l1.51,71.11c0.37,17.54-13.44,32.11-30.97,32.68l-95.46,3.12
				C1797.75,2592.67,1782.88,2578.58,1782.51,2560.76z"/>
			<path class="st8" d="M1787.09,2776.99l-2.41-113.81c-0.35-16.3,12.48-29.84,28.78-30.37l97.69-3.2
				c17.82-0.58,32.68,13.5,33.06,31.32l2.43,114.78c0.35,16.68-13.07,30.38-29.75,30.39l-100.05,0.01
				C1800.66,2806.12,1787.44,2793.17,1787.09,2776.99z"/>
			<path class="st8" d="M1521.19,2399.98l-104.07,0.59c-15.15,0.09-27.57-12-27.89-27.15l-2.1-98.82
				c-0.34-15.94,12.8-28.88,28.73-28.31l104.16,3.74c14.7,0.53,26.43,12.43,26.74,27.14l2,94.49
				C1549.1,2387.14,1536.68,2399.9,1521.19,2399.98z"/>
			<linearGradient id="SVGID_8_" gradientUnits="userSpaceOnUse" x1="1893.1144" y1="2353.7393" x2="1315.611" y2="3313.2119">
				<stop  offset="0" style="stop-color:#B37CFF"/>
				<stop  offset="1" style="stop-color:#F895E7"/>
			</linearGradient>
			<path class="st10" d="M1592.43,2776.5l-2.26-106.44c-0.35-16.58,12.7-30.36,29.28-30.9l98.95-3.24
				c16.85-0.55,30.9,12.76,31.26,29.62l2.33,109.67c0.36,16.97-13.29,30.91-30.26,30.92l-99.02,0.01
				C1606.23,2806.14,1592.78,2792.97,1592.43,2776.5z"/>
			<linearGradient id="SVGID_9_" gradientUnits="userSpaceOnUse" x1="1549.6" y1="2248.8181" x2="1322.2372" y2="3067.325">
				<stop  offset="0" style="stop-color:#A737D5"/>
				<stop  offset="1" style="stop-color:#EF497A"/>
			</linearGradient>
			<path class="st11" d="M1414.41,2452.93l113.65,0.21c12.48,0.02,22.65,10,22.92,22.47l2.17,102.35
				c0.27,12.58-9.63,23.02-22.21,23.44l-113.56,3.72c-12.78,0.42-23.44-9.68-23.71-22.46l-2.25-106.28
				C1391.14,2463.49,1401.52,2452.91,1414.41,2452.93z"/>
			<path class="st8" d="M1356.44,2481.02l2.07,97.48c0.34,15.81-12.11,28.94-27.91,29.46l-101.78,3.33
				c-16.06,0.53-29.46-12.17-29.8-28.23l-2.14-100.99c-0.34-16.2,12.71-29.5,28.9-29.47l101.85,0.18
				C1343.32,2452.8,1356.11,2465.34,1356.44,2481.02z"/>
			<linearGradient id="SVGID_10_" gradientUnits="userSpaceOnUse" x1="1729.472" y1="2298.7834" x2="1502.109" y2="3117.291">
				<stop  offset="0" style="stop-color:#A737D5"/>
				<stop  offset="1" style="stop-color:#EF497A"/>
			</linearGradient>
			<path class="st12" d="M1725.46,2595.03l-113.57,3.72c-12.78,0.42-23.44-9.68-23.71-22.46l-2.11-99.56
				c-0.27-12.89,10.11-23.47,23-23.45l113.65,0.2c12.48,0.02,22.65,10,22.92,22.47l2.03,95.63
				C1747.93,2584.17,1738.03,2594.62,1725.46,2595.03z"/>
			<linearGradient id="SVGID_11_" gradientUnits="userSpaceOnUse" x1="1751.6888" y1="2268.616" x2="1174.1857" y2="3228.0879">
				<stop  offset="0" style="stop-color:#B37CFF"/>
				<stop  offset="1" style="stop-color:#F895E7"/>
			</linearGradient>
			<path class="st13" d="M1424.94,2645.53l98.95-3.24c16.85-0.55,30.9,12.76,31.26,29.62l2.19,103.33
				c0.36,16.97-13.29,30.91-30.26,30.92l-99.02,0.01c-16.47,0-29.92-13.16-30.27-29.63l-2.12-100.1
				C1395.31,2659.84,1408.36,2646.07,1424.94,2645.53z"/>
			<linearGradient id="SVGID_12_" gradientUnits="userSpaceOnUse" x1="1610.2906" y1="2183.5076" x2="1032.7871" y2="3142.9802">
				<stop  offset="0" style="stop-color:#B37CFF"/>
				<stop  offset="1" style="stop-color:#F895E7"/>
			</linearGradient>
			<path class="st14" d="M1227,2652l105.88-3.47c14.92-0.49,27.36,11.3,27.68,26.23l2.21,104.02c0.32,15.02-11.77,27.38-26.8,27.38
				l-105.95,0.01c-14.59,0-26.5-11.66-26.81-26.24l-2.13-100.57C1200.76,2664.68,1212.32,2652.48,1227,2652z"/>
			<linearGradient id="SVGID_13_" gradientUnits="userSpaceOnUse" x1="1796.8575" y1="2442.0042" x2="2092.4294" y2="1869.0497">
				<stop  offset="0" style="stop-color:#FDF53F"/>
				<stop  offset="1" style="stop-color:#D93C65"/>
			</linearGradient>
			<path class="st15" d="M1895.89,2396.52l-78.99,0.45c-21.01,0.12-38.23-16.64-38.67-37.65l-1.38-65.17
				c-0.42-19.69,15.81-35.68,35.49-34.97l87.91,3.16c19.94,0.72,35.87,16.87,36.29,36.83l1.16,54.42
				C1938.19,2377.06,1919.37,2396.39,1895.89,2396.52z"/>
			<path class="st8" d="M1983.92,2879.74c-0.38-17.83,13.87-32.53,31.7-32.7l34.41-0.33c26.15-0.25,47.53,17.03,47.99,38.8l1.34,63
				c0.46,21.59-19.84,39.68-45.76,40.78l-36.94,1.56c-16.66,0.71-30.65-12.42-31.01-29.1L1983.92,2879.74z"/>
			<path class="st8" d="M877.49,2858.08l67.67-0.66c16.6-0.16,30.23,13.06,30.59,29.66l2.5,118.04
				c0.35,16.48-12.54,30.22-29.01,30.92l-67.36,2.85c-26.86,1.14-49.39-16.37-49.87-38.75l-2.15-101.22
				C829.4,2876.71,850.83,2858.34,877.49,2858.08z"/>
			<path class="st8" d="M2047.3,2806.09l-33.59,0c-17.42,0-31.65-13.92-32.02-31.34l-2.45-115.7
				c-0.37-17.54,13.43-32.11,30.97-32.68l33.81-1.11c26.66-0.87,48.85,16.57,49.32,38.77l2.15,101.22
				C2095.96,2787.63,2074.18,2806.08,2047.3,2806.09z"/>
			<path class="st8" d="M2044.48,2584.59l-42.28,1.38c-13.48,0.44-24.72-10.21-25-23.69l-1.77-83.57
				c-0.29-13.59,10.66-24.76,24.25-24.73l42.7,0.08c25.89,0.05,46.88,17.25,47.33,38.8l1.08,50.92
				C2091.24,2565.56,2070.61,2583.73,2044.48,2584.59z"/>
			<path class="st8" d="M866.69,2225.22l67.86,2.44c15.29,0.55,27.49,12.93,27.82,28.23l2.47,116.59
				c0.34,16.11-12.57,29.38-28.69,29.47l-69.87,0.4c-26.06,0.15-47.3-17.11-47.76-38.8l-2.07-97.53
				C815.95,2242.95,839.02,2224.22,866.69,2225.22z"/>
			<linearGradient id="SVGID_14_" gradientUnits="userSpaceOnUse" x1="1596.2377" y1="2712.4346" x2="936.8856" y2="3967.4792">
				<stop  offset="0" style="stop-color:#53D8FF"/>
				<stop  offset="1" style="stop-color:#3840F7"/>
			</linearGradient>
			<path class="st16" d="M1430.03,2852.72l99-0.96c16.58-0.16,30.21,13.05,30.56,29.63l2.1,99.05
				c0.35,16.47-12.53,30.19-28.99,30.89l-98.93,4.19c-16.96,0.72-31.19-12.64-31.55-29.6l-2.17-102.28
				C1399.7,2866.78,1413.17,2852.88,1430.03,2852.72z"/>
			<path class="st8" d="M869.54,2451.95l68.78,0.12c15.68,0.03,28.47,12.57,28.8,28.25l2.35,110.91
				c0.34,15.81-12.11,28.94-27.91,29.46l-69.06,2.26c-26.65,0.87-48.84-16.57-49.32-38.77l-1.94-91.4
				C820.78,2470.36,842.62,2451.9,869.54,2451.95z"/>
			<path class="st8" d="M872.05,2663.62l71.79-2.35c14.92-0.49,27.36,11.3,27.68,26.23l1.94,91.33
				c0.32,15.02-11.77,27.38-26.8,27.38l-72.13,0.01c-25.94,0-46.98-17.21-47.44-38.8l-1.34-63
				C825.28,2682.65,845.91,2664.48,872.05,2663.62z"/>
			<path class="st8" d="M1166.03,2681.13l2.07,97.68c0.32,15.02-11.77,27.38-26.8,27.38l-105.95,0.01
				c-14.59,0-26.5-11.66-26.81-26.24l-2-94.23c-0.31-14.68,11.25-26.88,25.93-27.36l105.88-3.47
				C1153.27,2654.42,1165.72,2666.21,1166.03,2681.13z"/>
			<path class="st8" d="M1040.83,2856.49l98.95-0.96c16.6-0.16,30.24,13.06,30.59,29.66l2.37,111.69
				c0.35,16.48-12.54,30.22-29.01,30.92l-98.88,4.18c-16.97,0.72-31.21-12.65-31.57-29.63l-2.44-114.92
				C1010.47,2870.57,1023.96,2856.66,1040.83,2856.49z"/>
			<path class="st8" d="M2038.91,2395.71l-41.41,0.23c-13.23,0.08-24.07-10.48-24.35-23.7l-1.73-81.73
				c-0.3-13.92,11.17-25.22,25.08-24.72l43.86,1.57c25.1,0.9,44.93,17.84,45.38,38.77l1.03,48.75
				C2087.25,2377.16,2065.67,2395.56,2038.91,2395.71z"/>
			<linearGradient id="SVGID_15_" gradientUnits="userSpaceOnUse" x1="1445.8583" y1="2633.4319" x2="786.506" y2="3888.4771">
				<stop  offset="0" style="stop-color:#53D8FF"/>
				<stop  offset="1" style="stop-color:#3840F7"/>
			</linearGradient>
			<path class="st17" d="M1235.44,2854.6l97.28-0.94c17.52-0.17,31.92,13.79,32.29,31.3l2.2,103.68
				c0.35,16.48-12.54,30.22-29.01,30.92l-98.88,4.19c-16.97,0.72-31.21-12.65-31.57-29.63l-2.3-108.57
				C1205.08,2868.68,1218.57,2854.77,1235.44,2854.6z"/>
			<path class="st8" d="M1157.16,2262.88l2.3,108.49c0.34,16.11-12.58,29.38-28.69,29.47l-101.84,0.58
				c-15.76,0.09-28.68-12.49-29.02-28.25l-2.39-112.73c-0.35-16.58,13.31-30.05,29.89-29.45l101.93,3.66
				C1144.63,2235.2,1156.84,2247.58,1157.16,2262.88z"/>
			<path class="st8" d="M1161.78,2480.67l2.21,104.2c0.34,15.81-12.11,28.94-27.91,29.46l-101.78,3.33
				c-16.06,0.53-29.45-12.17-29.8-28.23l-2.29-107.71c-0.34-16.19,12.71-29.5,28.9-29.47l101.85,0.18
				C1148.66,2452.45,1161.45,2464.99,1161.78,2480.67z"/>
			<path class="st2" d="M2050.21,2179.48l-4.69,34.36c-1.5,11-10.78,19.28-21.88,19.51l-1.62,0.03
				c-12.46,0.26-22.78-9.62-23.04-22.08l-0.75-35.17c-0.29-13.63,11.48-24.4,25.03-22.91l7.06,0.78
				C2042.93,2155.38,2051.93,2166.9,2050.21,2179.48z"/>
			<path class="st2" d="M1890.73,2170.63l-4.69,34.36c-1.5,11-10.78,19.28-21.88,19.51l-1.62,0.04
				c-12.46,0.26-22.78-9.62-23.04-22.09l-0.75-35.17c-0.29-13.63,11.48-24.4,25.03-22.91l7.06,0.78
				C1883.46,2146.53,1892.45,2158.05,1890.73,2170.63z"/>
			<path class="st2" d="M1694.52,2173.33l-4.69,34.36c-1.5,11-10.78,19.28-21.88,19.51l-1.62,0.03
				c-12.46,0.26-22.78-9.62-23.04-22.09l-0.75-35.17c-0.29-13.63,11.48-24.4,25.03-22.91l7.06,0.78
				C1687.25,2149.24,1696.24,2160.75,1694.52,2173.33z"/>
			<path class="st2" d="M1503.35,2164.77l-4.69,34.36c-1.5,11-10.78,19.28-21.88,19.51l-1.62,0.03
				c-12.46,0.27-22.78-9.62-23.04-22.08l-0.75-35.17c-0.29-13.63,11.48-24.4,25.03-22.91l7.06,0.78
				C1496.08,2140.67,1505.07,2152.19,1503.35,2164.77z"/>
			<path class="st2" d="M1307,2139.8l-4.69,34.36c-1.5,11-10.78,19.28-21.88,19.51l-1.62,0.03c-12.46,0.26-22.78-9.62-23.04-22.09
				l-0.75-35.17c-0.29-13.63,11.48-24.4,25.03-22.91l7.06,0.78C1299.73,2115.71,1308.72,2127.23,1307,2139.8z"/>
			<path class="st2" d="M1099,2144.22l-4.69,34.36c-1.5,11-10.78,19.28-21.88,19.51l-1.62,0.03c-12.46,0.26-22.78-9.62-23.04-22.08
				l-0.75-35.17c-0.29-13.63,11.48-24.4,25.03-22.91l7.06,0.78C1091.73,2120.12,1100.72,2131.64,1099,2144.22z"/>
			<path class="st2" d="M923.43,2140.54l-4.69,34.36c-1.5,11-10.78,19.28-21.88,19.51l-1.62,0.03
				c-12.46,0.26-22.78-9.62-23.04-22.09l-0.75-35.17c-0.29-13.63,11.48-24.4,25.03-22.91l7.06,0.78
				C916.16,2116.44,925.15,2127.96,923.43,2140.54z"/>
			<g>
				<path class="st2" d="M617.87,3110.99c2.03,0,3.68-1.64,3.69-3.67l4.49-648.28c0.01-2.04-1.63-3.71-3.67-3.72
					c-0.01,0-0.02,0-0.03,0c-2.03,0-3.68,1.64-3.69,3.67l-4.49,648.28c-0.01,2.04,1.63,3.71,3.67,3.72
					C617.85,3110.99,617.86,3110.99,617.87,3110.99z"/>
				<path class="st2" d="M623.39,2313.85c2.03,0,3.68-1.64,3.69-3.67l1.57-226.42c0.01-2.04-1.63-3.71-3.67-3.72
					c-0.01,0-0.02,0-0.03,0c-2.03,0-3.68,1.64-3.69,3.67l-1.57,226.42c-0.01,2.04,1.63,3.71,3.67,3.72
					C623.37,2313.85,623.38,2313.85,623.39,2313.85z"/>
			</g>
			
				<linearGradient id="SVGID_16_" gradientUnits="userSpaceOnUse" x1="-2545.9778" y1="1980.7207" x2="-2641.2163" y2="2165.4832" gradientTransform="matrix(-1 0 0 1 -588.4281 0)">
				<stop  offset="0" style="stop-color:#A737D5"/>
				<stop  offset="1" style="stop-color:#EF497A"/>
			</linearGradient>
			<circle class="st18" cx="2010.92" cy="2084.26" r="39.5"/>
			
				<linearGradient id="SVGID_17_" gradientUnits="userSpaceOnUse" x1="-2222.3394" y1="1977.6818" x2="-2317.5779" y2="2162.4441" gradientTransform="matrix(-1 0 0 1 -588.4281 0)">
				<stop  offset="0" style="stop-color:#A737D5"/>
				<stop  offset="1" style="stop-color:#EF497A"/>
			</linearGradient>
			<circle class="st19" cx="1687.28" cy="2081.22" r="39.5"/>
			
				<linearGradient id="SVGID_18_" gradientUnits="userSpaceOnUse" x1="-1895.6624" y1="1967.0459" x2="-1990.9006" y2="2151.8081" gradientTransform="matrix(-1 0 0 1 -588.4281 0)">
				<stop  offset="0" style="stop-color:#A737D5"/>
				<stop  offset="1" style="stop-color:#EF497A"/>
			</linearGradient>
			<circle class="st20" cx="1360.6" cy="2070.58" r="39.5"/>
			
				<linearGradient id="SVGID_19_" gradientUnits="userSpaceOnUse" x1="-1572.0238" y1="1951.8514" x2="-1667.2623" y2="2136.6138" gradientTransform="matrix(-1 0 0 1 -588.4281 0)">
				<stop  offset="0" style="stop-color:#A737D5"/>
				<stop  offset="1" style="stop-color:#EF497A"/>
			</linearGradient>
			<circle class="st21" cx="1036.96" cy="2055.39" r="39.5"/>
			<g>
				
					<linearGradient id="SVGID_20_" gradientUnits="userSpaceOnUse" x1="-1403.1281" y1="1549.4958" x2="-1748.8584" y2="2220.2119" gradientTransform="matrix(-1 0 0 1 -588.4281 0)">
					<stop  offset="0" style="stop-color:#B37CFF"/>
					<stop  offset="1" style="stop-color:#F895E7"/>
				</linearGradient>
				<path class="st22" d="M1006.92,1781.68c66.47,14.5,60.2,189.38,54.85,260.38c-1.26,16.71-15.17,29.59-31.93,29.59
					c-4.65,0-9.08-2-12.19-5.46c-3.11-3.46-4.59-8.09-4.1-12.72c5.74-53.66,17.96-208.19-30.98-216.46c0,0-35.1-6.21-41.01,61.78
					H903.6C903.6,1898.8,923.35,1763.45,1006.92,1781.68z"/>
				
					<linearGradient id="SVGID_21_" gradientUnits="userSpaceOnUse" x1="-1726.746" y1="1558.3907" x2="-2072.5815" y2="2229.311" gradientTransform="matrix(-1 0 0 1 -588.4281 0)">
					<stop  offset="0" style="stop-color:#B37CFF"/>
					<stop  offset="1" style="stop-color:#F895E7"/>
				</linearGradient>
				<path class="st23" d="M1330.56,1790.67c66.47,14.5,60.2,189.44,54.85,260.44c-1.26,16.71-15.17,29.63-31.93,29.63
					c-4.65,0-9.08-1.99-12.19-5.45c-3.11-3.46-4.59-8.08-4.1-12.71c5.74-53.66,17.96-208.31-30.98-216.58c0,0-35.1-4.85-41.01,61.66
					h-37.98C1227.24,1907.66,1246.99,1772.44,1330.56,1790.67z"/>
				
					<linearGradient id="SVGID_22_" gradientUnits="userSpaceOnUse" x1="-2050.3708" y1="1567.3617" x2="-2396.2756" y2="2238.4163" gradientTransform="matrix(-1 0 0 1 -588.4281 0)">
					<stop  offset="0" style="stop-color:#B37CFF"/>
					<stop  offset="1" style="stop-color:#F895E7"/>
				</linearGradient>
				<path class="st24" d="M1654.2,1799.71c66.47,14.5,60.2,189.48,54.85,260.48c-1.26,16.71-15.17,29.65-31.93,29.65
					c-4.65,0-9.08-1.98-12.19-5.44c-3.11-3.46-4.59-8.08-4.1-12.7c5.74-53.66,17.96-208.39-30.98-216.65c0,0-35.09-3.95-40.99,62.9
					l-37.99-1.32C1550.88,1916.62,1570.63,1781.48,1654.2,1799.71z"/>
				
					<linearGradient id="SVGID_23_" gradientUnits="userSpaceOnUse" x1="-2373.9785" y1="1577.663" x2="-2720.0422" y2="2249.0256" gradientTransform="matrix(-1 0 0 1 -588.4281 0)">
					<stop  offset="0" style="stop-color:#B37CFF"/>
					<stop  offset="1" style="stop-color:#F895E7"/>
				</linearGradient>
				<path class="st25" d="M1977.84,1810.16c66.47,14.5,60.2,189.57,54.85,260.57c-1.26,16.71-15.17,29.69-31.93,29.69
					c-4.65,0-9.08-1.95-12.19-5.42c-3.11-3.46-4.59-8.07-4.1-12.69c5.74-53.66,17.96-208.57-30.98-216.84c0,0-35.1-5.11-41.01,61.4
					h-37.98C1874.52,1926.88,1894.27,1791.93,1977.84,1810.16z"/>
			</g>
		</g>
		<g class="st26">
			<linearGradient id="SVGID_24_" gradientUnits="userSpaceOnUse" x1="2879.0684" y1="1001.2869" x2="2889.667" y2="1001.2869">
				<stop  offset="0" style="stop-color:#9CFFFB"/>
				<stop  offset="1" style="stop-color:#9BFFFA"/>
			</linearGradient>
			<polygon class="st27" points="2889.67,1401.38 2879.07,1401.38 2879.07,654.19 2889.67,601.2 			"/>
			<linearGradient id="SVGID_25_" gradientUnits="userSpaceOnUse" x1="2889.2693" y1="1382.6179" x2="2752.4565" y2="1950.3923">
				<stop  offset="0" style="stop-color:#53D8FF"/>
				<stop  offset="1" style="stop-color:#3840F7"/>
			</linearGradient>
			<path class="st28" d="M2937.36,1475.57h-105.98l6.85-171.28c0.61-15.33,13.22-27.44,28.56-27.44h35.16
				c15.34,0,27.95,12.11,28.56,27.44L2937.36,1475.57z"/>
			<linearGradient id="SVGID_26_" gradientUnits="userSpaceOnUse" x1="3076.915" y1="723.7112" x2="2538.7439" y2="4780.1748">
				<stop  offset="0" style="stop-color:#53D8FF"/>
				<stop  offset="1" style="stop-color:#3840F7"/>
			</linearGradient>
			<path class="st29" d="M3060.57,2861.31h-352.4V1490.47c0-14.08,11.42-25.5,25.5-25.5h301.4c14.08,0,25.5,11.42,25.5,25.5V2861.31
				z"/>
			
				<linearGradient id="SVGID_27_" gradientUnits="userSpaceOnUse" x1="-48.4073" y1="3670.5581" x2="1332.0396" y2="3670.5581" gradientTransform="matrix(0 -1 1 0 -786.1905 2823.5044)">
				<stop  offset="0" style="stop-color:#53D8FF"/>
				<stop  offset="1" style="stop-color:#3840F7"/>
			</linearGradient>
			<path class="st30" d="M2734.66,2871.91V1506.96c0-8.56,6.94-15.5,15.5-15.5h268.41c8.56,0,15.5,6.94,15.5,15.5v1364.95H2734.66z"
				/>
			<path class="st31" d="M2733.12,2869.83V1504.89c0-8.56,6.94-15.5,15.5-15.5h268.41c8.56,0,15.5,6.94,15.5,15.5v1364.95H2733.12z"
				/>
			<linearGradient id="SVGID_28_" gradientUnits="userSpaceOnUse" x1="2915.073" y1="1641.7161" x2="2653.8035" y2="2828.3203">
				<stop  offset="0" style="stop-color:#FDF53F"/>
				<stop  offset="1" style="stop-color:#D93C65"/>
			</linearGradient>
			<path class="st32" d="M2734.66,2057.08v-550.11c0-8.56,6.94-15.5,15.5-15.5h268.41c8.56,0,15.5,6.94,15.5,15.5v550.11H2734.66z"
				/>
			<linearGradient id="SVGID_29_" gradientUnits="userSpaceOnUse" x1="2912.2385" y1="3540.2656" x2="2862.1375" y2="1900.6299">
				<stop  offset="0" style="stop-color:#53D8FF"/>
				<stop  offset="1" style="stop-color:#3840F7"/>
			</linearGradient>
			<rect x="2864.5" y="2066.43" class="st33" width="39.74" height="1123.43"/>
			<linearGradient id="SVGID_30_" gradientUnits="userSpaceOnUse" x1="2734.6221" y1="2050.5327" x2="3035.0144" y2="2050.5327">
				<stop  offset="0" style="stop-color:#2B3582"/>
				<stop  offset="1" style="stop-color:#150E42"/>
			</linearGradient>
			<rect x="2734.62" y="2029.34" class="st34" width="300.39" height="42.39"/>
			<linearGradient id="SVGID_31_" gradientUnits="userSpaceOnUse" x1="3033.844" y1="2530.0024" x2="2599.4622" y2="3538.9995">
				<stop  offset="0" style="stop-color:#53D8FF"/>
				<stop  offset="1" style="stop-color:#3840F7"/>
			</linearGradient>
			<path class="st35" d="M3098.99,2898.41h-429.24c-11.71,0-21.2-9.49-21.2-21.2l0,0c0-11.71,9.49-21.2,21.2-21.2h429.24
				c11.71,0,21.2,9.49,21.2,21.2l0,0C3120.18,2888.92,3110.69,2898.41,3098.99,2898.41z"/>
			<linearGradient id="SVGID_32_" gradientUnits="userSpaceOnUse" x1="2894.9961" y1="3540.7939" x2="2844.895" y2="1901.1575">
				<stop  offset="0" style="stop-color:#53D8FF"/>
				<stop  offset="1" style="stop-color:#3840F7"/>
			</linearGradient>
			<path class="st36" d="M3099.14,3210.17l-429.48,0.89c-11.71,0-21.2-9.49-21.2-21.2l0,0c0-11.71,9.49-21.2,21.2-21.2h429.24
				c11.71,0,21.2,9.49,21.2,21.2l0,0C3120.09,3201.57,3110.84,3210.17,3099.14,3210.17z"/>
		</g>
		<g class="st26">
			<linearGradient id="SVGID_33_" gradientUnits="userSpaceOnUse" x1="1962.2805" y1="2345.4458" x2="2718.0525" y2="2345.4458">
				<stop  offset="0" style="stop-color:#53EAC9"/>
				<stop  offset="0.9964" style="stop-color:#45AED8"/>
			</linearGradient>
			<path class="st37" d="M2600.43,1533.84v-64.29H2079.9v64.29c0,40.73-20.29,78.17-52.97,102.48
				c-39.23,29.18-64.65,75.88-64.65,128.54v1296.32c0,88.46,71.71,160.16,160.16,160.16h435.44c88.46,0,160.16-71.71,160.16-160.16
				V1764.85c0-52.66-25.42-99.36-64.65-128.54C2620.72,1612.01,2600.43,1574.56,2600.43,1533.84z"/>
			<linearGradient id="SVGID_34_" gradientUnits="userSpaceOnUse" x1="2360.7766" y1="1747.8453" x2="2290.5093" y2="4001.4521">
				<stop  offset="0" style="stop-color:#53D8FF"/>
				<stop  offset="1" style="stop-color:#3840F7"/>
			</linearGradient>
			<path class="st38" d="M2600.65,1533.84v-64.29h-520.53v64.29c0,40.73-22.27,75.71-52.97,102.48
				c-43.04,37.53-68.83,85.03-64.65,128.54v1296.32c0,88.46,71.71,160.16,160.16,160.16h435.44c88.46,0,160.16-71.71,160.16-160.16
				V1764.85c0-52.66-25.42-99.36-64.65-128.54C2620.94,1612.01,2600.65,1574.56,2600.65,1533.84z"/>
			<linearGradient id="SVGID_35_" gradientUnits="userSpaceOnUse" x1="2360.9143" y1="1747.8512" x2="2290.6472" y2="4001.4487">
				<stop  offset="0" style="stop-color:#53D8FF"/>
				<stop  offset="1" style="stop-color:#3840F7"/>
			</linearGradient>
			<path class="st39" d="M1962.28,1764.85v1296.32c0,88.46,71.71,160.16,160.16,160.16h435.44c88.46,0,160.16-71.71,160.16-160.16
				V1764.85c0-5.07-0.31-10.07-0.77-15.02h-754.24C1962.59,1754.79,1962.28,1759.78,1962.28,1764.85z"/>
			<linearGradient id="SVGID_36_" gradientUnits="userSpaceOnUse" x1="2438.7273" y1="2001.4535" x2="1622.2361" y2="5327.6396">
				<stop  offset="0" style="stop-color:#FDF53F"/>
				<stop  offset="1" style="stop-color:#D93C65"/>
			</linearGradient>
			<path class="st40" d="M2001.48,1763.3v1261.94c0,79.28,64.27,143.55,143.55,143.55h390.27c79.28,0,143.55-64.27,143.55-143.55
				V1763.3c0-4.55-64.24-81.6-64.65-86.03h-556.97C2056.81,1681.7,2001.48,1758.75,2001.48,1763.3z"/>
			<linearGradient id="SVGID_37_" gradientUnits="userSpaceOnUse" x1="2886.4155" y1="1454.9851" x2="1875.8411" y2="3074.5813">
				<stop  offset="0" style="stop-color:#53D8FF"/>
				<stop  offset="0.2367" style="stop-color:#4AA6FC"/>
				<stop  offset="0.4773" style="stop-color:#427AFA"/>
				<stop  offset="0.6935" style="stop-color:#3D5AF8"/>
				<stop  offset="0.875" style="stop-color:#3947F7"/>
				<stop  offset="1" style="stop-color:#3840F7"/>
			</linearGradient>
			<rect x="1962.28" y="1839.93" class="st41" width="755.77" height="981"/>
			<linearGradient id="SVGID_38_" gradientUnits="userSpaceOnUse" x1="1907.3734" y1="1958.7985" x2="2495.2395" y2="1185.4745">
				<stop  offset="0" style="stop-color:#53D8FF"/>
				<stop  offset="1" style="stop-color:#3840F7"/>
			</linearGradient>
			<path class="st42" d="M2644.87,1509.59h-609.4c-7.25,0-13.13-5.88-13.13-13.13v-214c0-7.25,5.88-13.13,13.13-13.13h609.4
				c7.25,0,13.13,5.88,13.13,13.13v214C2657.99,1503.72,2652.11,1509.59,2644.87,1509.59z"/>
			<linearGradient id="SVGID_39_" gradientUnits="userSpaceOnUse" x1="2022.3419" y1="2045.139" x2="2657.9912" y2="2045.139">
				<stop  offset="0" style="stop-color:#2B3582"/>
				<stop  offset="1" style="stop-color:#150E42"/>
			</linearGradient>
			<path class="st43" d="M2647.49,2160.26h-614.65c-5.8,0-10.5-4.7-10.5-10.5v-209.24c0-5.8,4.7-10.5,10.5-10.5h614.65
				c5.8,0,10.5,4.7,10.5,10.5v209.24C2657.99,2155.56,2653.29,2160.26,2647.49,2160.26z"/>
			<g class="st44">
				<path class="st2" d="M2131.76,2115.01l-26.46-125.38h20.46l10.04,53.02c2.82,14.88,5.39,29.21,7.35,44.83h0.37
					c2.08-15.07,4.66-29.95,7.47-44.28l10.54-53.57h19.84l-27.81,125.38H2131.76z"/>
				<path class="st2" d="M2202.8,2082.83l-5.88,32.18h-19.36l25.24-125.38h24.5l25.6,125.38h-20.09l-6.37-32.18H2202.8z
					 M2223.75,2061.62l-5.14-26.6c-1.47-7.44-2.94-16.74-4.16-24.18h-0.24c-1.23,7.44-2.45,16.93-3.8,24.18l-4.9,26.6H2223.75z"/>
				<path class="st2" d="M2321.49,2111.48c-3.43,2.6-11.15,5.4-21.19,5.4c-28.54,0-43.25-26.98-43.25-62.69
					c0-42.79,20.09-66.6,45.08-66.6c9.68,0,17.03,2.98,20.34,5.58l-3.8,22.51c-3.8-2.42-9.06-4.65-15.68-4.65
					c-14.82,0-26.34,13.58-26.34,41.48c0,25.11,9.8,40.93,26.46,40.93c5.64,0,11.88-1.86,15.56-4.09L2321.49,2111.48z"/>
				<path class="st2" d="M2390.7,2111.48c-3.43,2.6-11.15,5.4-21.19,5.4c-28.54,0-43.24-26.98-43.24-62.69
					c0-42.79,20.09-66.6,45.08-66.6c9.68,0,17.03,2.98,20.34,5.58l-3.8,22.51c-3.8-2.42-9.06-4.65-15.68-4.65
					c-14.82,0-26.34,13.58-26.34,41.48c0,25.11,9.8,40.93,26.46,40.93c5.64,0,11.88-1.86,15.56-4.09L2390.7,2111.48z"/>
				<path class="st2" d="M2421.68,1989.63v125.38h-18.74v-125.38H2421.68z"/>
				<path class="st2" d="M2437.84,2115.01v-125.38h21.81l17.15,45.95c4.9,13.21,9.8,28.83,13.48,42.97h0.37
					c-1.22-16.56-1.59-33.49-1.59-52.28v-36.65h17.15v125.38h-19.6l-17.64-48.36c-4.9-13.39-10.29-29.58-14.33-44.28l-0.37,0.19
					c0.49,16.55,0.74,34.23,0.74,54.69v37.76H2437.84z"/>
				<path class="st2" d="M2571.48,2061.99h-30.38v29.77h33.93v23.25h-52.68v-125.38h50.96v23.25h-32.22v26.05h30.38V2061.99z"/>
			</g>
			<rect x="2104.24" y="1306.88" class="st31" width="150.15" height="160.16"/>
			<linearGradient id="SVGID_40_" gradientUnits="userSpaceOnUse" x1="2024.1553" y1="2440.543" x2="2679.8252" y2="2440.543">
				<stop  offset="0" style="stop-color:#2B3582"/>
				<stop  offset="1" style="stop-color:#150E42"/>
			</linearGradient>
			<rect x="2024.16" y="2413.01" class="st45" width="655.67" height="55.06"/>
		</g>
	</g>
	<g>
		<linearGradient id="SVGID_41_" gradientUnits="userSpaceOnUse" x1="1141.9252" y1="1555.2935" x2="1760.9622" y2="1197.8922">
			<stop  offset="0" style="stop-color:#5EB130"/>
			<stop  offset="1" style="stop-color:#E8C52B"/>
		</linearGradient>
		<path class="st46" d="M1682.77,1406.15c0,66.64-27.5,138.61-82.5,215.92s-126.17,143.95-213.5,199.94c-30.67-20-60-42.31-88-66.97
			c-36.67-31.98-71.67-68.64-105-109.95c58.66-29.98,108.33-65.3,149-105.95c51.33-51.97,77-103.28,77-153.92
			c0-22.66-5.5-39.81-16.5-51.47s-24.84-17.5-41.5-17.5c-8.67,0-17.67,2-27,5.98l35-54.97h-18l-59-2v-40c0-38.66,1.33-69.5,4-92.5
			c2.66-23,9.33-51.83,20-86.5c17.33,0,47.83-0.66,91.5-2c43.66-1.33,67.83-2,72.5-2c42.66,0,76.5,0.84,101.5,2.5
			c25,1.67,57.5,5.84,97.5,12.5c-14.67,45.31-30.34,84.64-47,117.95c-10,20-23.67,43.67-41,70.98c25.33,14.66,45.33,31.98,60,51.98
			C1672.43,1327.51,1682.77,1363.5,1682.77,1406.15z"/>
		<linearGradient id="SVGID_42_" gradientUnits="userSpaceOnUse" x1="1792.8712" y1="1579.5037" x2="2446.667" y2="1202.0345">
			<stop  offset="0" style="stop-color:#5EB130"/>
			<stop  offset="1" style="stop-color:#E8C52B"/>
		</linearGradient>
		<path class="st47" d="M2495.77,1390.76c0,104.53-36.5,193.25-109.5,266.16s-161.84,109.34-266.5,109.34
			c-104.67,0-193.5-36.44-266.5-109.34s-109.5-161.63-109.5-266.16s36.5-193.23,109.5-266.14s161.83-109.36,266.5-109.36
			c104.66,0,193.5,36.45,266.5,109.36S2495.77,1286.23,2495.77,1390.76z M2303.77,1527.26c0-21.33-7.5-39.5-22.5-54.5
			s-33.5-22.5-55.5-22.5s-40.34,7.34-55,22c-14.67,14.67-22,33-22,55s7.5,40.5,22.5,55.5s33.16,22.5,54.5,22.5
			c22,0,40.5-7.5,55.5-22.5S2303.77,1549.26,2303.77,1527.26z"/>
	</g>
</g>
</svg>
