<?xml version="1.0" encoding="utf-8"?>
<!-- Generator: Adobe Illustrator 24.1.2, SVG Export Plug-In . SVG Version: 6.00 Build 0)  -->
<svg version="1.1" xmlns="http://www.w3.org/2000/svg" xmlns:xlink="http://www.w3.org/1999/xlink" x="0px" y="0px"
	 viewBox="0 0 3710 3710" style="enable-background:new 0 0 3710 3710;" xml:space="preserve">
<style type="text/css">
	.st0{fill:#FFFFFF;}
	.st1{opacity:0.3;fill:url(#SVGID_1_);}
	.st2{fill:url(#SVGID_2_);}
	.st3{fill:url(#SVGID_3_);}
	.st4{fill:url(#SVGID_4_);}
	.st5{opacity:0.72;fill:#FFFFFF;}
	.st6{fill:url(#SVGID_5_);}
	.st7{fill:url(#SVGID_6_);}
	.st8{fill:url(#SVGID_7_);}
	.st9{fill:url(#SVGID_8_);}
	.st10{fill:url(#SVGID_9_);}
	.st11{fill:url(#SVGID_10_);}
	.st12{fill:url(#SVGID_11_);}
	.st13{fill:url(#SVGID_12_);}
	.st14{fill:url(#SVGID_13_);}
	.st15{fill:url(#SVGID_14_);}
	.st16{fill:url(#SVGID_15_);}
	.st17{fill:url(#SVGID_16_);}
	.st18{fill:url(#SVGID_17_);}
	.st19{fill:url(#SVGID_18_);}
	.st20{fill:url(#SVGID_19_);}
	.st21{fill:url(#SVGID_20_);}
	.st22{fill:url(#SVGID_21_);}
	.st23{fill:url(#SVGID_22_);}
	.st24{fill:url(#SVGID_23_);}
	.st25{fill:url(#SVGID_24_);}
	.st26{fill:url(#SVGID_25_);}
	.st27{fill:url(#SVGID_26_);}
	.st28{fill:url(#SVGID_27_);}
	.st29{fill:url(#SVGID_28_);}
	.st30{fill:url(#SVGID_29_);}
	.st31{fill:url(#SVGID_30_);}
	.st32{fill:url(#SVGID_31_);}
	.st33{fill:url(#SVGID_32_);}
	.st34{fill:url(#SVGID_33_);}
	.st35{fill:url(#SVGID_34_);}
	.st36{fill:url(#SVGID_35_);}
	.st37{display:none;}
	.st38{display:inline;fill:url(#SVGID_36_);}
	.st39{display:inline;fill:url(#SVGID_37_);}
	.st40{display:inline;fill:url(#SVGID_38_);}
	.st41{display:inline;fill:url(#SVGID_39_);}
	.st42{display:inline;fill:url(#SVGID_40_);}
	.st43{display:inline;fill:url(#SVGID_41_);}
	.st44{display:inline;fill:url(#SVGID_42_);}
	.st45{display:inline;fill:url(#SVGID_43_);}
	.st46{display:inline;fill:url(#SVGID_44_);}
	.st47{display:inline;fill:url(#SVGID_45_);}
	.st48{display:inline;fill:url(#SVGID_46_);}
	.st49{display:inline;opacity:0.6;fill:#FFFFFF;}
	.st50{display:inline;opacity:0.72;fill:#FFFFFF;}
	.st51{display:inline;fill:url(#SVGID_47_);}
	.st52{display:inline;fill:url(#SVGID_48_);}
	.st53{fill:url(#SVGID_49_);}
	.st54{fill:url(#SVGID_50_);}
	.st55{opacity:0.63;fill:#FFFFFF;}
	.st56{opacity:0.2;fill:#FFFFFF;}
	.st57{fill:url(#SVGID_51_);}
	.st58{fill:url(#SVGID_52_);}
	.st59{fill:url(#SVGID_53_);}
	.st60{fill:url(#SVGID_54_);}
	.st61{fill:url(#SVGID_55_);}
	.st62{fill:url(#SVGID_56_);}
	.st63{fill:url(#SVGID_57_);}
	.st64{fill:url(#SVGID_58_);}
	.st65{fill:url(#SVGID_59_);}
	.st66{fill:url(#SVGID_60_);}
	.st67{fill:url(#SVGID_61_);}
	.st68{fill:url(#SVGID_62_);}
	.st69{fill:url(#SVGID_63_);}
	.st70{fill:url(#SVGID_64_);}
	.st71{fill:url(#SVGID_65_);}
	.st72{fill:url(#SVGID_66_);}
	.st73{fill:url(#SVGID_67_);}
	.st74{fill:url(#SVGID_68_);}
	.st75{fill:url(#SVGID_69_);}
	.st76{fill:url(#SVGID_70_);}
	.st77{display:inline;fill:url(#SVGID_71_);}
	.st78{display:inline;fill:url(#SVGID_72_);}
	.st79{display:inline;fill:url(#SVGID_73_);}
	.st80{display:inline;fill:url(#SVGID_74_);}
	.st81{display:inline;fill:url(#SVGID_75_);}
	.st82{display:inline;fill:url(#SVGID_76_);}
	.st83{display:inline;fill:url(#SVGID_77_);}
	.st84{display:inline;fill:url(#SVGID_78_);}
	.st85{display:inline;fill:url(#SVGID_79_);}
	.st86{display:inline;fill:url(#SVGID_80_);}
	.st87{display:inline;}
	.st88{fill:url(#SVGID_81_);}
	.st89{fill:url(#SVGID_82_);}
	.st90{fill:url(#SVGID_83_);}
	.st91{display:inline;fill:url(#SVGID_84_);}
	.st92{display:inline;fill:url(#SVGID_85_);}
	.st93{fill:url(#SVGID_86_);}
	.st94{fill:url(#SVGID_87_);}
	.st95{display:inline;fill:url(#SVGID_88_);}
	.st96{fill:#77160C;}
	.st97{fill:#630E0A;}
	.st98{opacity:0.1;}
	.st99{opacity:0.2;}
	.st100{fill:#D44613;}
	.st101{opacity:0.3;}
	.st102{opacity:0.07;}
	.st103{opacity:0.15;}
	.st104{fill:#FCE0D9;}
	.st105{fill:#4D0F05;}
	.st106{fill:#BF340A;}
	.st107{fill:#EFC3BD;}
	.st108{opacity:0.5;}
	.st109{fill:#ED0A0A;}
	.st110{fill:#C60000;}
	.st111{fill:#EAE8E8;}
</style>
<g id="Background">
	<g>
		<g>
			<rect class="st0" width="3710" height="3710"/>
		</g>
	</g>
</g>
<g id="Illustration">
	<g>
		<linearGradient id="SVGID_1_" gradientUnits="userSpaceOnUse" x1="3264.8013" y1="3646.9155" x2="1343.5822" y2="1601.7473">
			<stop  offset="0" style="stop-color:#B37CFF"/>
			<stop  offset="1" style="stop-color:#F895E7"/>
		</linearGradient>
		<path class="st1" d="M2687.96,2826.4c-70.92,73.11-134.38,116.08-182.97,148.52c-473.86,316.4-1015.54,225.21-1183.01,194.04
			c-270.2-50.29-498.28-85.77-694.24-262.81c-445.29-402.3-423.63-1241.53-83.38-1761.4c40.34-61.64,380.08-565.24,922.93-636.2
			c13.28-1.74,23.18-2.72,31.86-3.64c83.98-8.89,604.37-55.82,1028.69,299.68c60.74,50.89,158.49,142.68,249.13,282.67
			C3108.42,1599.14,3109.47,2391.93,2687.96,2826.4z"/>
		<g>
			
				<linearGradient id="SVGID_2_" gradientUnits="userSpaceOnUse" x1="493.0574" y1="2584.9226" x2="1756.9681" y2="2584.9226" gradientTransform="matrix(0.9202 0.3914 -0.3914 0.9202 859.9825 -1376.187)">
				<stop  offset="0" style="stop-color:#A737D5"/>
				<stop  offset="1" style="stop-color:#EF497A"/>
			</linearGradient>
			<path class="st2" d="M613.49,469.6c-2.73-14.2,14.58-23.45,25.02-13.45c106.06,101.6,360.3,405.21,290.98,930.7
				c-86.97,659.31,48.14,901.53,217.85,1050.15c0,0-234.37-71.42-379.84-317.3C410.34,1516.02,662.11,722.12,613.49,469.6z"/>
			<path class="st0" d="M692.91,676.58c12.66,73.62,23.87,147.45,32.36,221.58c8.88,74.08,15.51,148.39,19.81,222.8
				c4.02,74.42,6.64,148.91,6.09,223.39c-0.21,74.48-3.62,148.88-7.31,223.55c-3.27,74.66-6.98,149.85-3.01,225.65
				c3.89,75.64,16.88,152.04,43.44,223.8c6.64,17.88,13.63,35.72,21.6,52.96c7.66,17.4,16.08,34.46,24.82,51.37
				c17.63,33.73,37.54,66.35,59.77,97.35c44.63,61.88,98.65,116.92,158.3,163.64c6.28,4.92,15.35,3.81,20.27-2.46
				c4.83-6.16,3.85-15.03-2.13-20l-0.04-0.04c-14.19-11.77-28.22-23.7-41.67-36.2c-6.83-6.15-13.37-12.58-20.03-18.89
				c-6.41-6.56-13.08-12.86-19.28-19.61c-25.26-26.56-48.63-54.86-69.78-84.75c-42.56-59.51-76.45-125.68-101.94-194.18
				c-12.36-34.41-22.17-69.67-29.23-105.56c-7.03-35.9-11.32-72.4-13.52-109.16c-4.42-73.58-1.35-148.03,1.38-222.7
				c2.63-74.7,4.77-149.77,3.81-224.82c-0.38-37.52-1.43-75.03-3.15-112.5c-0.75-18.74-1.87-37.46-2.95-56.18
				c-1.26-18.71-2.63-37.41-4.15-56.1c-6.21-74.74-14.7-149.25-25.52-223.39c-11.18-74.09-24.33-147.86-40.3-220.99
				c-0.46-2.09-2.52-3.42-4.61-2.96C693.87,672.58,692.57,674.55,692.91,676.58z"/>
		</g>
		<g>
			<g>
				
					<linearGradient id="SVGID_3_" gradientUnits="userSpaceOnUse" x1="-2671.0559" y1="293.004" x2="-1120.5236" y2="293.004" gradientTransform="matrix(0.2227 -0.975 0.975 0.2227 687.8748 -333.9847)">
					<stop  offset="0" style="stop-color:#CE1567"/>
					<stop  offset="1" style="stop-color:#7A1DBC"/>
				</linearGradient>
				<path class="st3" d="M816.03,2399.9c-7.81,25.48-39.1,34.7-59.71,17.8c-113.68-93.27-411.24-386.05-408.86-893.67
					c2.01-428.66-37.64-661.29-62.95-765.65c-5.35-22.07,20.58-38.14,37.99-23.57C514.6,895.62,1099.04,1476.64,816.03,2399.9z"/>
				<path class="st0" d="M780,2401.92c-0.53,0.39-1.11,0.74-1.73,1.03c-5.19,2.46-11.4,0.25-13.86-4.94
					c-2.79-5.89-279.51-595.35-303.64-1191.5c-0.23-5.74,4.23-10.58,9.98-10.82c5.74-0.23,10.58,4.23,10.82,9.98
					c23.95,591.81,298.88,1177.57,301.65,1183.42C785.38,2393.66,783.92,2399.02,780,2401.92z"/>
			</g>
		</g>
		<g>
			<linearGradient id="SVGID_4_" gradientUnits="userSpaceOnUse" x1="2922.8945" y1="70.1527" x2="-208.0194" y2="5119.3472">
				<stop  offset="0" style="stop-color:#FDF53F"/>
				<stop  offset="1" style="stop-color:#D93C65"/>
			</linearGradient>
			<path class="st4" d="M2838.27,3044.45H700.63c-25.04,0-45.33-20.3-45.33-45.33V861.48c0-25.04,20.3-45.33,45.33-45.33h2137.64
				c25.04,0,45.33,20.3,45.33,45.33v2137.64C2883.61,3024.15,2863.31,3044.45,2838.27,3044.45z"/>
			<path class="st5" d="M2784.78,2972.86H741.57c-25.04,0-45.33-20.3-45.33-45.33V905.58c0-25.04,20.3-45.33,45.33-45.33h2043.21
				c25.04,0,45.33,20.3,45.33,45.33v2021.95C2830.11,2952.57,2809.81,2972.86,2784.78,2972.86z"/>
			<g>
				
					<linearGradient id="SVGID_5_" gradientUnits="userSpaceOnUse" x1="1622.0035" y1="-294.4765" x2="1708.7223" y2="552.6938" gradientTransform="matrix(0.9977 -0.0683 -0.1421 1.0217 -14.279 189.7413)">
					<stop  offset="0" style="stop-color:#B37CFF"/>
					<stop  offset="1" style="stop-color:#F895E7"/>
				</linearGradient>
				<polygon class="st6" points="1439.64,1302.21 1709.73,1288.94 1742.01,1046.94 1471.14,1063.27 				"/>
				
					<linearGradient id="SVGID_6_" gradientUnits="userSpaceOnUse" x1="2293.2532" y1="304.7949" x2="1157.5721" y2="3946.9714" gradientTransform="matrix(0.9977 -0.0683 -0.1421 1.0217 -14.279 189.7413)">
					<stop  offset="0" style="stop-color:#FDF53F"/>
					<stop  offset="1" style="stop-color:#D93C65"/>
				</linearGradient>
				<polygon class="st7" points="1753.33,1046.26 1721.02,1288.38 1998.33,1274.75 2031.46,1029.49 				"/>
				
					<linearGradient id="SVGID_7_" gradientUnits="userSpaceOnUse" x1="2162.7749" y1="264.1089" x2="1027.0963" y2="3906.2778" gradientTransform="matrix(0.9977 -0.0683 -0.1421 1.0217 -14.279 189.7413)">
					<stop  offset="0" style="stop-color:#FDF53F"/>
					<stop  offset="1" style="stop-color:#D93C65"/>
				</linearGradient>
				<path class="st8" d="M1647.67,1754.24l32.1-240.69l-239.13,9.28c-10.21,0.4-20.37,1.34-30.45,2.78l-31.88,241.87
					c9.89-4.01,20.31-6.35,30.92-6.64L1647.67,1754.24z"/>
				
					<linearGradient id="SVGID_8_" gradientUnits="userSpaceOnUse" x1="2431.8542" y1="826.819" x2="459.7947" y2="4311.0034" gradientTransform="matrix(0.9977 -0.0683 -0.1421 1.0217 -14.279 189.7413)">
					<stop  offset="0" style="stop-color:#B37CFF"/>
					<stop  offset="1" style="stop-color:#F895E7"/>
				</linearGradient>
				<polygon class="st9" points="1665.22,1513.11 1633.09,1753.93 1908.84,1746.3 1941.79,1502.38 				"/>
				
					<linearGradient id="SVGID_9_" gradientUnits="userSpaceOnUse" x1="1539.3862" y1="-285.9981" x2="1626.1052" y2="561.1747" gradientTransform="matrix(0.9977 -0.0683 -0.1421 1.0217 -14.279 189.7413)">
					<stop  offset="0" style="stop-color:#B37CFF"/>
					<stop  offset="1" style="stop-color:#F895E7"/>
				</linearGradient>
				<path class="st10" d="M1590.18,2185.23l31.94-239.48l-237.89,4.47c-10.58,0.2-20.44-1.66-29.32-5.23l-31.73,240.69
					c9.72,0.97,19.66,1.45,29.79,1.37L1590.18,2185.23z"/>
				
					<linearGradient id="SVGID_10_" gradientUnits="userSpaceOnUse" x1="2844.4341" y1="1060.3405" x2="872.3867" y2="4544.5034" gradientTransform="matrix(0.9977 -0.0683 -0.1421 1.0217 -14.279 189.7413)">
					<stop  offset="0" style="stop-color:#B37CFF"/>
					<stop  offset="1" style="stop-color:#F895E7"/>
				</linearGradient>
				<polygon class="st11" points="1861.33,2182.96 2143.05,2180.81 2176.69,1934.85 1894.13,1940.16 				"/>
				
					<linearGradient id="SVGID_11_" gradientUnits="userSpaceOnUse" x1="2981.908" y1="519.5087" x2="1846.2279" y2="4161.6826" gradientTransform="matrix(0.9977 -0.0683 -0.1421 1.0217 -14.279 189.7413)">
					<stop  offset="0" style="stop-color:#FDF53F"/>
					<stop  offset="1" style="stop-color:#D93C65"/>
				</linearGradient>
				<polygon class="st12" points="1809.98,2753.97 2089.75,2759.19 2123.16,2514.9 1842.57,2512.79 				"/>
				
					<linearGradient id="SVGID_12_" gradientUnits="userSpaceOnUse" x1="2548.7505" y1="384.452" x2="1413.0686" y2="4026.6316" gradientTransform="matrix(0.9977 -0.0683 -0.1421 1.0217 -14.279 189.7413)">
					<stop  offset="0" style="stop-color:#FDF53F"/>
					<stop  offset="1" style="stop-color:#D93C65"/>
				</linearGradient>
				<polygon class="st13" points="1908.44,1940.38 1633.32,1945.54 1601.35,2185.15 1875.67,2183.05 				"/>
				
					<linearGradient id="SVGID_13_" gradientUnits="userSpaceOnUse" x1="1572.295" y1="80.0038" x2="436.626" y2="3722.1423" gradientTransform="matrix(0.9977 -0.0683 -0.1421 1.0217 -14.279 189.7413)">
					<stop  offset="0" style="stop-color:#FDF53F"/>
					<stop  offset="1" style="stop-color:#D93C65"/>
				</linearGradient>
				<path class="st14" d="M1154.79,1316.21l30.69-235.73l-81.56,4.92c-58.69,3.54-112.78,58.74-121.12,123.28
					c-8.32,64.49,32.14,114.41,90.66,111.53L1154.79,1316.21z"/>
				
					<linearGradient id="SVGID_14_" gradientUnits="userSpaceOnUse" x1="2458.2075" y1="841.7333" x2="486.1547" y2="4325.9058" gradientTransform="matrix(0.9977 -0.0683 -0.1421 1.0217 -14.279 189.7413)">
					<stop  offset="0" style="stop-color:#B37CFF"/>
					<stop  offset="1" style="stop-color:#F895E7"/>
				</linearGradient>
				<path class="st15" d="M1984.12,1274.18l266.87-13.12c6.14-0.3,12.05,0.04,17.72,0.92l34.18-249.9
					c-5.92,0.03-11.91,0.21-17.95,0.57l-267.66,16.13L1984.12,1274.18z"/>
				
					<linearGradient id="SVGID_15_" gradientUnits="userSpaceOnUse" x1="2003.2295" y1="214.3736" x2="867.5624" y2="3856.5056" gradientTransform="matrix(0.9977 -0.0683 -0.1421 1.0217 -14.279 189.7413)">
					<stop  offset="0" style="stop-color:#FDF53F"/>
					<stop  offset="1" style="stop-color:#D93C65"/>
				</linearGradient>
				<path class="st16" d="M999.86,2506.44l-28.56-0.22c-57.98-0.44-111.43,50.83-119.66,114.47
					c-8.23,63.59,31.74,115.97,89.56,117.05l28.48,0.53L999.86,2506.44z"/>
				
					<linearGradient id="SVGID_16_" gradientUnits="userSpaceOnUse" x1="2443.7766" y1="351.7182" x2="1308.1016" y2="3993.8752" gradientTransform="matrix(0.9977 -0.0683 -0.1421 1.0217 -14.279 189.7413)">
					<stop  offset="0" style="stop-color:#FDF53F"/>
					<stop  offset="1" style="stop-color:#D93C65"/>
				</linearGradient>
				<polygon class="st17" points="1546.79,2510.56 1280.62,2508.55 1249.65,2743.5 1515.05,2748.46 				"/>
				
					<linearGradient id="SVGID_17_" gradientUnits="userSpaceOnUse" x1="2412.1008" y1="815.6392" x2="440.0479" y2="4299.812" gradientTransform="matrix(0.9977 -0.0683 -0.1421 1.0217 -14.279 189.7413)">
					<stop  offset="0" style="stop-color:#B37CFF"/>
					<stop  offset="1" style="stop-color:#F895E7"/>
				</linearGradient>
				<polygon class="st18" points="1213.04,2743.3 1243.98,2508.47 984.62,2506.52 954.41,2738.47 				"/>
				
					<linearGradient id="SVGID_18_" gradientUnits="userSpaceOnUse" x1="2150.5688" y1="-348.5833" x2="2237.2874" y2="498.5862" gradientTransform="matrix(0.9977 -0.0683 -0.1421 1.0217 -14.279 189.7413)">
					<stop  offset="0" style="stop-color:#B37CFF"/>
					<stop  offset="1" style="stop-color:#F895E7"/>
				</linearGradient>
				<path class="st19" d="M2245.29,1491.61l-266.14,10.32l-32.98,244.04l265.36-7.34c5.99-0.17,11.97-0.51,17.93-1l33.99-248.52
					C2257.49,1490.51,2251.42,1491.37,2245.29,1491.61z"/>
				
					<linearGradient id="SVGID_19_" gradientUnits="userSpaceOnUse" x1="1821.9132" y1="481.5869" x2="-150.1449" y2="3965.7688" gradientTransform="matrix(0.9977 -0.0683 -0.1421 1.0217 -14.279 189.7413)">
					<stop  offset="0" style="stop-color:#B37CFF"/>
					<stop  offset="1" style="stop-color:#F895E7"/>
				</linearGradient>
				<polygon class="st20" points="1165.51,1315.69 1428.65,1302.75 1460.12,1063.93 1196.23,1079.84 				"/>
				
					<linearGradient id="SVGID_20_" gradientUnits="userSpaceOnUse" x1="2856.3179" y1="1067.0684" x2="884.2651" y2="4551.2407" gradientTransform="matrix(0.9977 -0.0683 -0.1421 1.0217 -14.279 189.7413)">
					<stop  offset="0" style="stop-color:#B37CFF"/>
					<stop  offset="1" style="stop-color:#F895E7"/>
				</linearGradient>
				<polygon class="st21" points="1805.34,2512.7 1532.1,2510.64 1500.34,2748.67 1772.78,2753.75 				"/>
				<g>
					
						<linearGradient id="SVGID_21_" gradientUnits="userSpaceOnUse" x1="1301.0048" y1="-261.6591" x2="1387.7262" y2="585.5378" gradientTransform="matrix(0.9977 -0.0683 -0.1421 1.0217 -14.279 189.7413)">
						<stop  offset="0" style="stop-color:#B37CFF"/>
						<stop  offset="1" style="stop-color:#F895E7"/>
					</linearGradient>
					<path class="st22" d="M1312.77,1842.57c8.26-29.67,28.58-55.15,53.91-69.45l32.37-245.69
						c-146.98,26.64-275.11,161.01-302.34,320.32L1312.77,1842.57z"/>
					
						<linearGradient id="SVGID_22_" gradientUnits="userSpaceOnUse" x1="2155.7776" y1="670.5526" x2="183.7189" y2="4154.7358" gradientTransform="matrix(0.9977 -0.0683 -0.1421 1.0217 -14.279 189.7413)">
						<stop  offset="0" style="stop-color:#B37CFF"/>
						<stop  offset="1" style="stop-color:#F895E7"/>
					</linearGradient>
					<path class="st23" d="M1283.85,1857.6c0.04-0.27,0.09-0.54,0.13-0.82l-215.21,5.01c-0.04,0.27-0.08,0.54-0.11,0.81
						c-21.55,165.47,73.35,301.37,218.02,321.78l32.22-244.51C1293.63,1924.5,1279.12,1893.57,1283.85,1857.6z"/>
				</g>
				<g>
					
						<linearGradient id="SVGID_23_" gradientUnits="userSpaceOnUse" x1="2861.0615" y1="481.8473" x2="1725.3921" y2="4123.9868" gradientTransform="matrix(0.9977 -0.0683 -0.1421 1.0217 -14.279 189.7413)">
						<stop  offset="0" style="stop-color:#FDF53F"/>
						<stop  offset="1" style="stop-color:#D93C65"/>
					</linearGradient>
					<path class="st24" d="M2358.37,1355.69l-0.56,4.1l242.02-10.78l0.57-4.15c25.45-183.59-90.43-326.95-259.89-332.6
						l-34.54,252.38C2342.04,1275.92,2364.39,1311.87,2358.37,1355.69z"/>
					
						<linearGradient id="SVGID_24_" gradientUnits="userSpaceOnUse" x1="2841.6387" y1="1058.7584" x2="869.5814" y2="4542.939" gradientTransform="matrix(0.9977 -0.0683 -0.1421 1.0217 -14.279 189.7413)">
						<stop  offset="0" style="stop-color:#B37CFF"/>
						<stop  offset="1" style="stop-color:#F895E7"/>
					</linearGradient>
					<path class="st25" d="M2329.96,1374.72l-1.93,14.05c-6.01,43.79-38.51,82.08-78.06,96.64l-34.35,251
						c172.36-20.58,328.96-174.97,354.35-358.1l1.97-14.2L2329.96,1374.72z"/>
				</g>
				<g>
					
						<linearGradient id="SVGID_25_" gradientUnits="userSpaceOnUse" x1="3084.6331" y1="551.5623" x2="1948.9698" y2="4193.6821" gradientTransform="matrix(0.9977 -0.0683 -0.1421 1.0217 -14.279 189.7413)">
						<stop  offset="0" style="stop-color:#FDF53F"/>
						<stop  offset="1" style="stop-color:#D93C65"/>
					</linearGradient>
					<path class="st26" d="M2247.42,2240.18l222.66-131.59c-41.67-102.5-136.71-171.55-255.81-173.72l-33.75,246.64
						C2213.69,2185.68,2238.85,2208.65,2247.42,2240.18z"/>
					
						<linearGradient id="SVGID_26_" gradientUnits="userSpaceOnUse" x1="3260.0684" y1="1295.5891" x2="1288.0018" y2="4779.7861" gradientTransform="matrix(0.9977 -0.0683 -0.1421 1.0217 -14.279 189.7413)">
						<stop  offset="0" style="stop-color:#B37CFF"/>
						<stop  offset="1" style="stop-color:#F895E7"/>
					</linearGradient>
					<path class="st27" d="M2223.85,2278.41l-19.11,139.15c-1,7.25-2.75,14.31-5.13,21.12l188.54,132.6
						c28.57-45.99,48.29-97.94,55.93-152.97l19.51-140.66c7.78-56.11,2.16-109.1-14.33-155.89l-224.97,132.79
						C2225.08,2262.18,2224.98,2270.17,2223.85,2278.41z"/>
					
						<linearGradient id="SVGID_27_" gradientUnits="userSpaceOnUse" x1="3232.7095" y1="597.7282" x2="2097.0364" y2="4239.8794" gradientTransform="matrix(0.9977 -0.0683 -0.1421 1.0217 -14.279 189.7413)">
						<stop  offset="0" style="stop-color:#FDF53F"/>
						<stop  offset="1" style="stop-color:#D93C65"/>
					</linearGradient>
					<path class="st28" d="M2219.16,2453.24c-16.87,32.7-49.02,56.69-84.16,60.95l-33.52,244.97
						c120.02-2.17,234.36-71.67,303.95-174.76L2219.16,2453.24z"/>
				</g>
			</g>
		</g>
		<g>
			<g>
				<linearGradient id="SVGID_28_" gradientUnits="userSpaceOnUse" x1="1647.351" y1="2701.7354" x2="1609.5493" y2="3253.1936">
					<stop  offset="0" style="stop-color:#53D8FF"/>
					<stop  offset="1" style="stop-color:#3840F7"/>
				</linearGradient>
				<ellipse class="st29" cx="1621.16" cy="3083.88" rx="325.59" ry="38.32"/>
				<linearGradient id="SVGID_29_" gradientUnits="userSpaceOnUse" x1="1641.4076" y1="2701.3279" x2="1603.606" y2="3252.7856">
					<stop  offset="0" style="stop-color:#53D8FF"/>
					<stop  offset="1" style="stop-color:#3840F7"/>
				</linearGradient>
				<rect x="1295.56" y="2909.66" class="st30" width="651.19" height="174.22"/>
			</g>
			<linearGradient id="SVGID_30_" gradientUnits="userSpaceOnUse" x1="1895.196" y1="2506.6628" x2="1441.5768" y2="3173.75">
				<stop  offset="0" style="stop-color:#53D8FF"/>
				<stop  offset="1" style="stop-color:#3840F7"/>
			</linearGradient>
			<ellipse class="st31" cx="1621.16" cy="2909.66" rx="325.59" ry="38.32"/>
			<linearGradient id="SVGID_31_" gradientUnits="userSpaceOnUse" x1="1838.0227" y1="2121.5601" x2="1322.7249" y2="3477.3425">
				<stop  offset="0" style="stop-color:#53D8FF"/>
				<stop  offset="1" style="stop-color:#3840F7"/>
			</linearGradient>
			<path class="st32" d="M1621.16,1977.36L1621.16,1977.36c-36.47,0-67.79,25.9-74.65,61.71l-166.69,870.59
				c0,9.73,108.05,17.61,241.34,17.61c133.29,0,241.34-7.89,241.34-17.61l-166.69-870.59
				C1688.95,2003.25,1657.62,1977.36,1621.16,1977.36z"/>
		</g>
		<g>
			<g>
				<linearGradient id="SVGID_32_" gradientUnits="userSpaceOnUse" x1="1673.2064" y1="3126.8657" x2="2324.3926" y2="3126.8657">
					<stop  offset="0" style="stop-color:#CB236D"/>
					<stop  offset="1" style="stop-color:#4C246D"/>
				</linearGradient>
				<ellipse class="st33" cx="1998.8" cy="3126.87" rx="325.59" ry="38.32"/>
				<linearGradient id="SVGID_33_" gradientUnits="userSpaceOnUse" x1="1673.2064" y1="3039.7554" x2="2324.3926" y2="3039.7554">
					<stop  offset="0" style="stop-color:#CB236D"/>
					<stop  offset="1" style="stop-color:#4C246D"/>
				</linearGradient>
				<rect x="1673.21" y="2952.65" class="st34" width="651.19" height="174.22"/>
			</g>
			<linearGradient id="SVGID_34_" gradientUnits="userSpaceOnUse" x1="2043.712" y1="2780.7388" x2="1960.6055" y2="3098.8362">
				<stop  offset="0" style="stop-color:#CB236D"/>
				<stop  offset="1" style="stop-color:#4C246D"/>
			</linearGradient>
			<ellipse class="st35" cx="1998.8" cy="2952.65" rx="325.59" ry="38.32"/>
			<linearGradient id="SVGID_35_" gradientUnits="userSpaceOnUse" x1="1757.4615" y1="2495.2976" x2="2240.1389" y2="2495.2976">
				<stop  offset="0" style="stop-color:#CB236D"/>
				<stop  offset="1" style="stop-color:#4C246D"/>
			</linearGradient>
			<path class="st36" d="M1998.8,2020.34L1998.8,2020.34c-36.47,0-67.79,25.9-74.65,61.71l-166.69,870.59
				c0,9.73,108.05,17.61,241.34,17.61c133.29,0,241.34-7.89,241.34-17.61l-166.69-870.59
				C2066.59,2046.24,2035.27,2020.34,1998.8,2020.34z"/>
		</g>
		<g class="st37">
			
				<linearGradient id="SVGID_36_" gradientUnits="userSpaceOnUse" x1="2133.5562" y1="761.0934" x2="2073.9375" y2="956.9833" gradientTransform="matrix(-0.9244 -0.3814 -0.3814 0.9244 4809.7065 839.3183)">
				<stop  offset="0" style="stop-color:#C4421B"/>
				<stop  offset="1" style="stop-color:#5C0E16"/>
			</linearGradient>
			<path class="st38" d="M2565.25,852.51c0,0,31.24-60.82,1.91-79.06c-29.33-18.24-52.82,8.92-64.56,22.5
				c-11.75,13.58,27.75,66.73,38.24,71.06C2551.34,871.34,2565.25,852.51,2565.25,852.51z"/>
			
				<linearGradient id="SVGID_37_" gradientUnits="userSpaceOnUse" x1="29.4903" y1="1615.2333" x2="-463.3553" y2="894.5631" gradientTransform="matrix(-0.9687 0.2484 0.2484 0.9687 2054.8313 -173.1156)">
				<stop  offset="0" style="stop-color:#C4421B"/>
				<stop  offset="1" style="stop-color:#5C0E16"/>
			</linearGradient>
			<path class="st39" d="M2533.32,841.99c0,0,102.11,268.45-75.54,374.07c-25.14,14.95-32.17,48.1-16.16,72.57
				c3.45,5.27,7.31,10.58,11.62,15.75c20.57,24.67,58.32,24.78,79.18,0.36c57-66.7,153.3-226.65,30.27-454.01L2533.32,841.99z"/>
			
				<linearGradient id="SVGID_38_" gradientUnits="userSpaceOnUse" x1="-349.4323" y1="3682.3303" x2="-70.951" y2="2965.4207" gradientTransform="matrix(-0.718 0.6961 0.6961 0.718 145.844 -115.6586)">
				<stop  offset="0" style="stop-color:#C4421B"/>
				<stop  offset="1" style="stop-color:#5C0E16"/>
			</linearGradient>
			<path class="st40" d="M2359.06,1942.12l131.41-36.8l32.93,188.73c0,0,53.43,0.83,97.54,28.23
				c44.11,27.41,199.69,171.21,199.69,171.21l27.23-6.26l10.49,6.64l15.16,115.57l-43.53-61.48c-6.91-9.76-25.87-24.76-25.5-25.81
				c-83.98-39.76-285.99-155.17-339.61-185.96c-8.65-4.97-15.61-12.38-20.05-21.32L2359.06,1942.12z"/>
			
				<linearGradient id="SVGID_39_" gradientUnits="userSpaceOnUse" x1="1399.7959" y1="4925.936" x2="2340.0061" y2="-6062.7759" gradientTransform="matrix(-1 0 0 1 4026.741 0)">
				<stop  offset="0" style="stop-color:#C4421B"/>
				<stop  offset="1" style="stop-color:#5C0E16"/>
			</linearGradient>
			<path class="st41" d="M2367.56,2494.79c1.09-0.02,2.16,0.07,3.26,0c-4.87-60.74-27.12-328.08-49.39-428.28
				c-25.19-113.36,37.78-340.07,37.78-340.07l113.36,113.36l-62.98,214.12c43.16,64.73-7.04,443.84-5.96,443.68l-0.07,0.84
				l16.43,22.59l-2,12.25l-100.38,59.24l39.5-64.14C2363.38,2518.19,2366.85,2506.65,2367.56,2494.79z"/>
			
				<linearGradient id="SVGID_40_" gradientUnits="userSpaceOnUse" x1="-1305.7682" y1="2368.4146" x2="-1411.2813" y2="2546.9753" gradientTransform="matrix(1 0 0 1 3800.6943 0)">
				<stop  offset="0" style="stop-color:#53D8FF"/>
				<stop  offset="1" style="stop-color:#3840F7"/>
			</linearGradient>
			<path class="st42" d="M2311,2601.8h32.04c6,0,11.65-2.75,15.31-7.5c9.99-12.98,30.68-38.29,40.57-38.95
				c13.32-0.89,11.61,46.46,11.61,46.46h7.47l9.46-58.84c2.38-14.8-4.98-29.47-18.28-36.4l0,0c0,0-3.04,22.52-19.55,32.47
				c-16.51,9.96-67.18,45.63-67.18,45.63s-6.21-0.89-13.02,0.35C2299.32,2586.84,2300.73,2601.8,2311,2601.8z"/>
			
				<linearGradient id="SVGID_41_" gradientUnits="userSpaceOnUse" x1="-1372.8499" y1="3185.0659" x2="-1478.3528" y2="3363.6096" gradientTransform="matrix(0.3919 -0.9201 0.9201 0.3919 344.2506 -352.8903)">
				<stop  offset="0" style="stop-color:#53D8FF"/>
				<stop  offset="1" style="stop-color:#3840F7"/>
			</linearGradient>
			<path class="st43" d="M2879.46,2419.16l12.55-29.47c2.35-5.52,2.03-11.8-0.9-17.03c-8.02-14.27-23.21-43.23-19.94-52.59
				c4.4-12.6,47.29,7.52,47.29,7.52l2.93-6.87l-50.42-31.76c-12.69-7.99-29.06-6.96-40.65,2.55l0,0c0,0,19.52,11.63,22.21,30.72
				c2.69,19.09,15.65,79.69,15.65,79.69s-3.25,5.36-4.78,12.11C2861.11,2424.05,2875.43,2428.61,2879.46,2419.16z"/>
			
				<linearGradient id="SVGID_42_" gradientUnits="userSpaceOnUse" x1="1479.3573" y1="1756.6605" x2="1724.9133" y2="1756.6605" gradientTransform="matrix(-1 0 0 1 4026.741 0)">
				<stop  offset="0" style="stop-color:#2B3582"/>
				<stop  offset="1" style="stop-color:#150E42"/>
			</linearGradient>
			<path class="st44" d="M2330.34,1534.77c0,0,3.7,22.7-1.72,85.12c-5.43,62.41-31.37,208.95-26.09,349.15
				c0,0,73.75,17.19,201.88,9.05c0,0,54.07-218.9,40.9-302.12c-13.17-83.22-84.63-142.92-84.63-142.92L2330.34,1534.77z"/>
			
				<linearGradient id="SVGID_43_" gradientUnits="userSpaceOnUse" x1="1565.2781" y1="1142.8025" x2="1650.9171" y2="1142.8025" gradientTransform="matrix(-1 0 0 1 4026.741 0)">
				<stop  offset="0" style="stop-color:#C4421B"/>
				<stop  offset="1" style="stop-color:#5C0E16"/>
			</linearGradient>
			<polygon class="st45" points="2384.84,1117.71 2375.82,1223.7 2461.46,1223.7 2440.17,1061.91 			"/>
			<linearGradient id="SVGID_44_" gradientUnits="userSpaceOnUse" x1="2539.0151" y1="1117.5336" x2="1918.5624" y2="2158.2952">
				<stop  offset="0" style="stop-color:#53D8FF"/>
				<stop  offset="1" style="stop-color:#3840F7"/>
			</linearGradient>
			<path class="st46" d="M2486.83,1209.04c-29.56-1.63-95.64-4.65-142.45-2.1c-24.65,1.34-45.29,19.03-50.34,43.19l-11.42,54.72
				c-4.25,20.38-3.62,41.48,1.85,61.57l45.86,168.35c0,0,40.79,24.51,130.34-1.72c0,0,78.64-187.54,46.45-307.5
				C2504.64,1216.23,2496.46,1209.57,2486.83,1209.04z"/>
			
				<linearGradient id="SVGID_45_" gradientUnits="userSpaceOnUse" x1="1707.9148" y1="1142.7681" x2="1541.4961" y2="899.42" gradientTransform="matrix(-1 0 0 1 4026.741 0)">
				<stop  offset="0" style="stop-color:#C4421B"/>
				<stop  offset="1" style="stop-color:#5C0E16"/>
			</linearGradient>
			<path class="st47" d="M2348.58,995.3c-3.06,1.8-27.15,86.78-6.96,122.41c20.19,35.63,81.84-4.28,98.55-55.8
				C2456.88,1010.39,2430.03,947.26,2348.58,995.3z"/>
			
				<linearGradient id="SVGID_46_" gradientUnits="userSpaceOnUse" x1="1162.4741" y1="1209.7572" x2="1704.7113" y2="1209.7572" gradientTransform="matrix(-1 0 0 1 4026.741 0)">
				<stop  offset="0" style="stop-color:#2B3582"/>
				<stop  offset="1" style="stop-color:#150E42"/>
			</linearGradient>
			<path class="st48" d="M2508.37,1061.91c13.83,67.76,59.65,49.21,92.1,79.36c52.6,48.86,127.84-1.51,200.99,44.79
				c52.81,33.42,78.25,118.93,52.91,187.97c-35.1,95.62-155.05,134.95-217.21,105.82c-59.41-27.83-50.95-111.2-130.88-143.42
				c-33.94-13.68-50.69-4.79-71.01-25.06c-35.58-35.49-25.98-104.35-22.28-130.88c8.03-57.57,27.33-67.99,18.1-93.29
				c-17.94-49.21-101.63-39.06-108.61-73.8c-6.35-31.64,54.31-91.6,111.39-82.15C2522.2,945.87,2502.21,1031.72,2508.37,1061.91z"/>
			<path class="st49" d="M2828.01,1357.83c1.05,0,1.99-0.71,2.25-1.77c11.31-46.94,6.18-85.44-15.26-114.43
				c-35.57-48.11-104.69-52.87-105.39-52.91c-1.09-0.18-2.37,0.89-2.45,2.17c-0.08,1.27,0.89,2.37,2.17,2.45
				c0.67,0.04,67.71,4.69,101.97,51.07c20.57,27.83,25.43,65.04,14.46,110.57c-0.3,1.24,0.47,2.49,1.71,2.79
				C2827.65,1357.81,2827.83,1357.83,2828.01,1357.83z"/>
			<path class="st50" d="M2601.6,1400.81c0.09,0,0.19-0.01,0.29-0.04c0.61-0.16,0.98-0.79,0.83-1.41
				c-11.01-42.26-30.34-71.61-57.44-87.24c-19.71-11.37-38.17-12.43-54.46-13.36c-15.7-0.9-29.26-1.69-40.18-11.39
				c-22.56-20.06-21.26-68.3,3.88-143.38c0.2-0.61-0.13-1.26-0.73-1.46c-0.61-0.2-1.26,0.13-1.46,0.73
				c-25.46,76.04-26.54,125.1-3.22,145.84c11.52,10.24,25.45,11.05,41.58,11.97c16.03,0.92,34.2,1.96,53.43,13.06
				c26.54,15.3,45.5,44.18,56.35,85.82C2600.62,1400.47,2601.08,1400.81,2601.6,1400.81z"/>
			<path class="st50" d="M2475.66,1045.09c0.12,0,0.24-0.02,0.37-0.06c0.6-0.2,0.93-0.86,0.73-1.47
				c-8.76-26.05-33.98-22.18-60.71-18.07c-16.92,2.6-34.41,5.28-49.24,0.89c-11.07-3.28-17.64-8.37-19.55-15.12
				c-3.25-11.49,8.12-24.31,8.24-24.44c0.43-0.47,0.39-1.21-0.08-1.63c-0.47-0.43-1.21-0.39-1.63,0.09
				c-0.51,0.56-12.33,13.88-8.75,26.61c2.13,7.56,9.24,13.19,21.12,16.71c15.34,4.54,33.09,1.82,50.25-0.82
				c26.83-4.12,50.03-7.69,58.17,16.52C2474.72,1044.79,2475.17,1045.09,2475.66,1045.09z"/>
			
				<linearGradient id="SVGID_47_" gradientUnits="userSpaceOnUse" x1="3718.01" y1="1656.3735" x2="3658.3928" y2="1852.2585" gradientTransform="matrix(0.8007 -0.5991 0.5991 0.8007 -1840.9602 1665.1215)">
				<stop  offset="0" style="stop-color:#C4421B"/>
				<stop  offset="1" style="stop-color:#5C0E16"/>
			</linearGradient>
			<path class="st51" d="M2141.52,887.92c0,0-45.37-51.15-21.49-76.11c23.87-24.96,53.38-4.48,68.13,5.75
				c14.75,10.24-10.3,71.53-19.39,78.33C2159.67,902.7,2141.52,887.92,2141.52,887.92z"/>
			
				<linearGradient id="SVGID_48_" gradientUnits="userSpaceOnUse" x1="1835.2731" y1="1382.9543" x2="1342.4054" y2="662.2519" gradientTransform="matrix(1 0 0 1 575.4047 0)">
				<stop  offset="0" style="stop-color:#C4421B"/>
				<stop  offset="1" style="stop-color:#5C0E16"/>
			</linearGradient>
			<path class="st52" d="M2169.83,869.8c0,0-32.22,285.4,166.1,343.58c28.06,8.23,43.11,38.6,33.68,66.28
				c-2.03,5.96-4.45,12.06-7.35,18.14c-13.8,29-50.33,38.49-76.61,20.02c-71.78-50.45-204.8-181.47-142.1-432.26L2169.83,869.8z"/>
		</g>
		<g>
			<linearGradient id="SVGID_49_" gradientUnits="userSpaceOnUse" x1="-276.3997" y1="3641.7041" x2="1244.4805" y2="2335.9497">
				<stop  offset="0" style="stop-color:#53D8FF"/>
				<stop  offset="0.8422" style="stop-color:#3C58F8"/>
				<stop  offset="1" style="stop-color:#3840F7"/>
			</linearGradient>
			<path class="st53" d="M488.26,3137.63h318.69c36.86,0,67.55-25.5,70.57-58.63l41.03-450.75c3.39-37.2-29.18-69.08-70.57-69.08
				H488.26c-39.1,0-70.8,28.59-70.8,63.85v450.75C417.45,3109.04,449.15,3137.63,488.26,3137.63z"/>
			
				<linearGradient id="SVGID_50_" gradientUnits="userSpaceOnUse" x1="1309.5674" y1="2695.8079" x2="2034.463" y2="3163.0967" gradientTransform="matrix(-1 0 0 1 1898.4368 0)">
				<stop  offset="0" style="stop-color:#53D8FF"/>
				<stop  offset="1" style="stop-color:#3840F7"/>
			</linearGradient>
			<path class="st54" d="M192.81,3137.63H511.5c36.86,0,67.55-25.5,70.56-58.63l41.03-450.75c3.39-37.2-29.18-69.08-70.57-69.08
				H192.81c-39.1,0-70.8,28.59-70.8,63.85v450.75C122.01,3109.04,153.71,3137.63,192.81,3137.63z"/>
			<path class="st55" d="M207.95,3100.37h277.64c32.11,0,58.85-22.22,61.47-51.08l35.74-392.68c2.95-32.41-25.42-60.18-61.48-60.18
				H207.95c-34.07,0-61.68,24.91-61.68,55.63v392.68C146.26,3075.47,173.88,3100.37,207.95,3100.37z"/>
			<path class="st56" d="M655.36,3095.96l155.45,7.33c17.98,0.85,34-20.64,36.83-49.4l38.51-391.3c3.18-32.3-11.4-60.78-31.59-61.74
				l-175.47-8.27c-19.07-0.9-35.71,23.25-37.16,53.94l-18.49,392.25C621.99,3069.45,636.28,3095.06,655.36,3095.96z"/>
			<linearGradient id="SVGID_51_" gradientUnits="userSpaceOnUse" x1="165.0073" y1="3025.2671" x2="265.3988" y2="3025.2671">
				<stop  offset="0" style="stop-color:#2C759E"/>
				<stop  offset="1" style="stop-color:#051042"/>
			</linearGradient>
			<circle class="st57" cx="215.2" cy="3025.27" r="50.2"/>
			<linearGradient id="SVGID_52_" gradientUnits="userSpaceOnUse" x1="165.0073" y1="2665.9714" x2="265.3988" y2="2665.9714">
				<stop  offset="0" style="stop-color:#2C759E"/>
				<stop  offset="1" style="stop-color:#051042"/>
			</linearGradient>
			<circle class="st58" cx="215.2" cy="2665.97" r="50.2"/>
			<linearGradient id="SVGID_53_" gradientUnits="userSpaceOnUse" x1="453.8533" y1="2665.9714" x2="554.2443" y2="2665.9714">
				<stop  offset="0" style="stop-color:#2C759E"/>
				<stop  offset="1" style="stop-color:#051042"/>
			</linearGradient>
			<circle class="st59" cx="504.05" cy="2665.97" r="50.2"/>
			<linearGradient id="SVGID_54_" gradientUnits="userSpaceOnUse" x1="298.8628" y1="2835.0518" x2="399.2543" y2="2835.0518">
				<stop  offset="0" style="stop-color:#2C759E"/>
				<stop  offset="1" style="stop-color:#051042"/>
			</linearGradient>
			<circle class="st60" cx="349.06" cy="2835.05" r="50.2"/>
			<linearGradient id="SVGID_55_" gradientUnits="userSpaceOnUse" x1="422.1507" y1="3025.2671" x2="522.5421" y2="3025.2671">
				<stop  offset="0" style="stop-color:#2C759E"/>
				<stop  offset="1" style="stop-color:#051042"/>
			</linearGradient>
			<circle class="st61" cx="472.35" cy="3025.27" r="50.2"/>
			<linearGradient id="SVGID_56_" gradientUnits="userSpaceOnUse" x1="719.426" y1="2833.584" x2="795.0145" y2="2833.584">
				<stop  offset="0" style="stop-color:#2C759E"/>
				<stop  offset="1" style="stop-color:#051042"/>
			</linearGradient>
			<ellipse class="st62" cx="757.22" cy="2833.58" rx="37.79" ry="41.1"/>
			<linearGradient id="SVGID_57_" gradientUnits="userSpaceOnUse" x1="758.3004" y1="3044.9346" x2="833.8887" y2="3044.9346">
				<stop  offset="0" style="stop-color:#2C759E"/>
				<stop  offset="1" style="stop-color:#051042"/>
			</linearGradient>
			<ellipse class="st63" cx="796.09" cy="3044.93" rx="37.79" ry="41.1"/>
			<linearGradient id="SVGID_58_" gradientUnits="userSpaceOnUse" x1="654.6359" y1="2657.4585" x2="730.2244" y2="2657.4585">
				<stop  offset="0" style="stop-color:#2C759E"/>
				<stop  offset="1" style="stop-color:#051042"/>
			</linearGradient>
			<ellipse class="st64" cx="692.43" cy="2657.46" rx="37.79" ry="41.1"/>
		</g>
		<g>
			<linearGradient id="SVGID_59_" gradientUnits="userSpaceOnUse" x1="1902.1221" y1="1467.577" x2="1054.9204" y2="3475.5105">
				<stop  offset="0" style="stop-color:#53D8FF"/>
				<stop  offset="1" style="stop-color:#3840F7"/>
			</linearGradient>
			<path class="st65" d="M1160.17,3137.63h318.69c36.86,0,67.55-25.5,70.57-58.63l41.03-450.75c3.39-37.2-29.18-69.08-70.57-69.08
				h-359.72c-39.1,0-70.8,28.59-70.8,63.85v450.75C1089.37,3109.04,1121.07,3137.63,1160.17,3137.63z"/>
			
				<linearGradient id="SVGID_60_" gradientUnits="userSpaceOnUse" x1="637.6508" y1="2695.8079" x2="1362.5465" y2="3163.0967" gradientTransform="matrix(-1 0 0 1 1898.4368 0)">
				<stop  offset="0" style="stop-color:#53D8FF"/>
				<stop  offset="1" style="stop-color:#3840F7"/>
			</linearGradient>
			<path class="st66" d="M864.73,3137.63h318.69c36.86,0,67.55-25.5,70.56-58.63l41.03-450.75c3.39-37.2-29.18-69.08-70.57-69.08
				H864.73c-39.1,0-70.8,28.59-70.8,63.85v450.75C793.93,3109.04,825.63,3137.63,864.73,3137.63z"/>
			<path class="st55" d="M879.86,3100.37h277.64c32.11,0,58.85-22.22,61.47-51.08l35.74-392.68c2.95-32.41-25.42-60.18-61.48-60.18
				H879.86c-34.07,0-61.68,24.91-61.68,55.63v392.68C818.18,3075.47,845.8,3100.37,879.86,3100.37z"/>
			<path class="st56" d="M1327.27,3095.96l155.45,7.33c17.98,0.85,34-20.64,36.83-49.4l38.51-391.3
				c3.18-32.3-11.4-60.78-31.59-61.74l-175.47-8.27c-19.07-0.9-35.71,23.25-37.16,53.94l-18.49,392.25
				C1293.91,3069.45,1308.2,3095.06,1327.27,3095.96z"/>
			<linearGradient id="SVGID_61_" gradientUnits="userSpaceOnUse" x1="836.9238" y1="3025.2671" x2="937.3153" y2="3025.2671">
				<stop  offset="0" style="stop-color:#2C759E"/>
				<stop  offset="1" style="stop-color:#051042"/>
			</linearGradient>
			<circle class="st67" cx="887.12" cy="3025.27" r="50.2"/>
			<linearGradient id="SVGID_62_" gradientUnits="userSpaceOnUse" x1="836.9238" y1="2665.9714" x2="937.3153" y2="2665.9714">
				<stop  offset="0" style="stop-color:#2C759E"/>
				<stop  offset="1" style="stop-color:#051042"/>
			</linearGradient>
			<circle class="st68" cx="887.12" cy="2665.97" r="50.2"/>
			<linearGradient id="SVGID_63_" gradientUnits="userSpaceOnUse" x1="1125.7699" y1="2665.9714" x2="1226.1609" y2="2665.9714">
				<stop  offset="0" style="stop-color:#2C759E"/>
				<stop  offset="1" style="stop-color:#051042"/>
			</linearGradient>
			<circle class="st69" cx="1175.97" cy="2665.97" r="50.2"/>
			<linearGradient id="SVGID_64_" gradientUnits="userSpaceOnUse" x1="831.325" y1="2835.0518" x2="931.7164" y2="2835.0518">
				<stop  offset="0" style="stop-color:#2C759E"/>
				<stop  offset="1" style="stop-color:#051042"/>
			</linearGradient>
			<circle class="st70" cx="881.52" cy="2835.05" r="50.2"/>
			<linearGradient id="SVGID_65_" gradientUnits="userSpaceOnUse" x1="1093.3301" y1="2835.0518" x2="1193.7217" y2="2835.0518">
				<stop  offset="0" style="stop-color:#2C759E"/>
				<stop  offset="1" style="stop-color:#051042"/>
			</linearGradient>
			<circle class="st71" cx="1143.53" cy="2835.05" r="50.2"/>
			<linearGradient id="SVGID_66_" gradientUnits="userSpaceOnUse" x1="1094.0673" y1="3025.2671" x2="1194.4586" y2="3025.2671">
				<stop  offset="0" style="stop-color:#2C759E"/>
				<stop  offset="1" style="stop-color:#051042"/>
			</linearGradient>
			<circle class="st72" cx="1144.26" cy="3025.27" r="50.2"/>
			<linearGradient id="SVGID_67_" gradientUnits="userSpaceOnUse" x1="1471.6344" y1="2664.5483" x2="1547.2229" y2="2664.5483">
				<stop  offset="0" style="stop-color:#2C759E"/>
				<stop  offset="1" style="stop-color:#051042"/>
			</linearGradient>
			<ellipse class="st73" cx="1509.43" cy="2664.55" rx="37.79" ry="41.1"/>
			<linearGradient id="SVGID_68_" gradientUnits="userSpaceOnUse" x1="1430.2169" y1="3044.9346" x2="1505.8054" y2="3044.9346">
				<stop  offset="0" style="stop-color:#2C759E"/>
				<stop  offset="1" style="stop-color:#051042"/>
			</linearGradient>
			<ellipse class="st74" cx="1468.01" cy="3044.93" rx="37.79" ry="41.1"/>
			<linearGradient id="SVGID_69_" gradientUnits="userSpaceOnUse" x1="1320.3436" y1="3032.2571" x2="1395.9323" y2="3032.2571">
				<stop  offset="0" style="stop-color:#2C759E"/>
				<stop  offset="1" style="stop-color:#051042"/>
			</linearGradient>
			<ellipse class="st75" cx="1358.14" cy="3032.26" rx="37.79" ry="41.1"/>
			<linearGradient id="SVGID_70_" gradientUnits="userSpaceOnUse" x1="1326.5524" y1="2657.4585" x2="1402.141" y2="2657.4585">
				<stop  offset="0" style="stop-color:#2C759E"/>
				<stop  offset="1" style="stop-color:#051042"/>
			</linearGradient>
			<ellipse class="st76" cx="1364.35" cy="2657.46" rx="37.79" ry="41.1"/>
		</g>
		<g class="st37">
			
				<linearGradient id="SVGID_71_" gradientUnits="userSpaceOnUse" x1="1013.9451" y1="2252.9114" x2="1181.7719" y2="2252.9114" gradientTransform="matrix(1 0 0 1 -439.9463 0)">
				<stop  offset="0" style="stop-color:#F9B776"/>
				<stop  offset="1" style="stop-color:#F47960"/>
			</linearGradient>
			<path class="st77" d="M634.4,2166.42c-17.22,18.38-42.57,34.26-60.41,44.16c26.64,32.93,62.69,65.91,110.41,98.18l13.66,30.65
				l43.76-52.45C741.83,2286.96,663.3,2247.88,634.4,2166.42z"/>
			
				<linearGradient id="SVGID_72_" gradientUnits="userSpaceOnUse" x1="1182.6931" y1="3116.3452" x2="1308.5372" y2="3116.3452" gradientTransform="matrix(1 0 0 1 -439.9463 0)">
				<stop  offset="0" style="stop-color:#2B3582"/>
				<stop  offset="1" style="stop-color:#150E42"/>
			</linearGradient>
			<path class="st78" d="M868.59,3161.15c0.01-0.94-0.05-1.89-0.29-2.84c-14.17-56.19-84.52-91.19-84.52-91.19l-27.88,2.18
				c-16.03,49.53-13.97,79.9-11.39,93.43c0.07,0.38,0.19,0.74,0.29,1.11C767.79,3165.9,815.12,3167.24,868.59,3161.15z"/>
			
				<linearGradient id="SVGID_73_" gradientUnits="userSpaceOnUse" x1="1258.7269" y1="2492.7612" x2="1247.6089" y2="3108.7053" gradientTransform="matrix(1 0 0 1 -439.9463 0)">
				<stop  offset="0" style="stop-color:#53D8FF"/>
				<stop  offset="1" style="stop-color:#3840F7"/>
			</linearGradient>
			<path class="st79" d="M744.79,3163.84c1.24,4.52,4.58,8.04,8.85,8.93c32.71,6.88,84.7,1.34,106.53-1.51
				c4.82-0.63,8.34-5.08,8.42-10.11C815.12,3167.24,767.79,3165.9,744.79,3163.84z"/>
			
				<linearGradient id="SVGID_74_" gradientUnits="userSpaceOnUse" x1="1217.6888" y1="2973.0771" x2="1193.6504" y2="3182.8682" gradientTransform="matrix(1 0 0 1 -439.9463 0)">
				<stop  offset="0" style="stop-color:#F9B776"/>
				<stop  offset="1" style="stop-color:#F47960"/>
			</linearGradient>
			<path class="st80" d="M744.69,3027.78l11.81,56.84c0.87,4.16,4.07,7.28,7.94,7.65c4.74,0.45,11.5,0.71,18.29-0.29
				c6.09-0.9,10.33-7.08,9.25-13.73l-8.21-50.47H744.69z"/>
			
				<linearGradient id="SVGID_75_" gradientUnits="userSpaceOnUse" x1="1477.2377" y1="2496.7092" x2="1466.1196" y2="3112.6499" gradientTransform="matrix(1 0 0 1 -439.9463 0)">
				<stop  offset="0" style="stop-color:#53D8FF"/>
				<stop  offset="1" style="stop-color:#3840F7"/>
			</linearGradient>
			<path class="st81" d="M989.32,3163.27c-30.79-0.86-46.71-4.49-54.94-7.85c-0.02,3.06,0,6.18,0.1,9.4c0.11,3.45,2.66,6.2,5.8,6.18
				l169.04-1.09c5.39-0.04,8.55-6.29,6.21-11.24C1093.36,3160.51,1036.91,3164.6,989.32,3163.27z"/>
			
				<linearGradient id="SVGID_76_" gradientUnits="userSpaceOnUse" x1="1374.3201" y1="3119.6921" x2="1555.4702" y2="3119.6921" gradientTransform="matrix(1 0 0 1 -439.9463 0)">
				<stop  offset="0" style="stop-color:#2B3582"/>
				<stop  offset="1" style="stop-color:#150E42"/>
			</linearGradient>
			<path class="st82" d="M1115.52,3158.68c-0.2-0.43-0.38-0.87-0.67-1.27c-14.93-20.86-52.95-62.4-128.09-80.41l-36.04-1.14
				c0,0-16.05,27.9-16.35,79.57c8.23,3.36,24.16,6.99,54.94,7.85C1036.91,3164.6,1093.36,3160.51,1115.52,3158.68z"/>
			
				<linearGradient id="SVGID_77_" gradientUnits="userSpaceOnUse" x1="1413.4993" y1="2995.5142" x2="1389.4609" y2="3205.3037" gradientTransform="matrix(1 0 0 1 -439.9463 0)">
				<stop  offset="0" style="stop-color:#F9B776"/>
				<stop  offset="1" style="stop-color:#F47960"/>
			</linearGradient>
			<path class="st83" d="M944.04,3021.23c0.4,2.69,5.34,43.52,7.25,59.35c0.45,3.76,3.18,6.67,6.62,7.08
				c6.14,0.73,16.07,1.4,24.76-0.38c4.69-0.96,8.08-5.46,8.08-10.7v-64.1L944.04,3021.23z"/>
			
				<linearGradient id="SVGID_78_" gradientUnits="userSpaceOnUse" x1="1699.1165" y1="2036.1813" x2="930.2817" y2="3229.2021" gradientTransform="matrix(1 0 0 1 -439.9463 0)">
				<stop  offset="0" style="stop-color:#2B3582"/>
				<stop  offset="1" style="stop-color:#150E42"/>
			</linearGradient>
			<path class="st84" d="M915.13,2276.03c0,0,86.93,330.38,85.36,746.14c-0.03,7.58-5.35,14.12-12.77,15.68
				c-10.93,2.3-27,5.04-40.3,4.66c-7.1-0.2-13.04-5.47-14.23-12.47c-12.19-71.48-82.14-474.19-122-539.57
				c0,0-26.22,358.67-17.84,544.75c0.21,4.63-3.18,8.64-7.78,9.17c-6.98,0.81-18.14,1.42-32.35-0.09
				c-5.39-0.57-9.75-4.65-10.52-10.02c-8.68-60.5-58.66-420.61-56.53-680.02c0.12-14.63,38.69-78.24,38.69-78.24H915.13z"/>
			
				<linearGradient id="SVGID_79_" gradientUnits="userSpaceOnUse" x1="1331.2794" y1="1790.4678" x2="604.1566" y2="2630.9954" gradientTransform="matrix(-1 0 0 1 1926.5311 0)">
				<stop  offset="0" style="stop-color:#53D8FF"/>
				<stop  offset="1" style="stop-color:#3840F7"/>
			</linearGradient>
			<path class="st85" d="M1036.03,1876.19c-14.11-17.69-26.47-36.64-36.81-56.18c-14.44-27.28-1.16,17.66-5.11-13.15
				c-108.14-78.04-270.97-38.54-333.96-30.6c-20.65,2.6-39.54,12.78-53.15,28.53c-53.97,62.46-172.41,233.47-33.01,405.78
				c17.84-9.9,43.19-25.78,60.41-44.16c-15.42-43.48-16.69-99.03,15.64-167.16c1.1,5.4,2.47,10.75,4.13,16.01
				c44.55,141.13,46.93,258.58,46.83,285.65c-0.01,3.68,2.19,6.98,5.61,8.35c58.63,23.49,171.49,9.51,209.38,3.87
				c6.95-1.04,11.62-7.5,10.66-14.46c-18.59-134.71,76.83-356.31,102.04-411.82C1030.49,1882.85,1033,1879.26,1036.03,1876.19z"/>
			
				<linearGradient id="SVGID_80_" gradientUnits="userSpaceOnUse" x1="1270.7944" y1="1631.9431" x2="1179.0114" y2="2028.5771" gradientTransform="matrix(1 0 0 1 -439.9463 0)">
				<stop  offset="0" style="stop-color:#F9B776"/>
				<stop  offset="1" style="stop-color:#F47960"/>
			</linearGradient>
			<path class="st86" d="M761.49,1662.83l-11.3,115.45c0,0,64.95,19.56,112.18-13.77l-33.21-104.93L761.49,1662.83z"/>
			<g class="st87">
				
					<linearGradient id="SVGID_81_" gradientUnits="userSpaceOnUse" x1="-237.5228" y1="92.5465" x2="-400.3584" y2="307.9647" gradientTransform="matrix(0.6854 -0.7281 0.7281 0.6854 911.0528 1318.7853)">
					<stop  offset="0" style="stop-color:#F9B776"/>
					<stop  offset="1" style="stop-color:#F47960"/>
				</linearGradient>
				<path class="st88" d="M836.85,1531.25c1.56,1.47,65.97,127.95,65.97,127.95l-73,35.24l-78.85-110.81
					C750.97,1583.63,810.69,1506.61,836.85,1531.25z"/>
				
					<linearGradient id="SVGID_82_" gradientUnits="userSpaceOnUse" x1="-361.883" y1="144.2793" x2="-167.3737" y2="144.2793" gradientTransform="matrix(0.6854 -0.7281 0.7281 0.6854 911.0528 1318.7853)">
					<stop  offset="0" style="stop-color:#2B3582"/>
					<stop  offset="1" style="stop-color:#150E42"/>
				</linearGradient>
				<path class="st89" d="M783.27,1586.7c-1.3,3.37-0.98,7.13,0.88,10.23l36.41,60.69c0.55,0.92,1.21,1.75,2,2.49
					c4.33,4.03,19.16,15.77,30.63-0.21c9.77-13.62,18.94-25.99,28.76-31.1c5.74-2.98,12.8-0.6,15.71,5.17
					c6,11.89,17.62,36.12,24.92,59.11c1.83,5.76-1.14,11.94-6.75,14.21c-14.78,5.99-44,16.82-69.92,20.4
					c-4.26,0.59-8.47-1.21-11.01-4.68c-11.15-15.28-42.59-57.98-53.32-68.67c-9.97-9.93-28.36-6.18-36.65-3.8
					c-3.15,0.9-6.5,0.47-9.3-1.22c-8.41-5.07-23.09-17.68-9.66-39.04c3.34-5.31,1.64-12.38-3.6-15.83
					c-9.39-6.18-19.58-17.77-9.87-36.55c9.83-19.01,27.38-20.71,39.33-19.25c5.29,0.65,10.66-2.13,12.69-7.05
					c0.9-2.19,2.69-4.06,6.01-4.73c6.26-1.27,10.38-7,9.15-13.27c-2.11-10.76-0.52-24.73,16.65-34.17
					c31.5-17.32,59.09,10.9,66.1,34.72c7.02,23.82-28.2,40.65-50.35,43.46C795.78,1559.66,786.86,1577.41,783.27,1586.7z"/>
				
					<linearGradient id="SVGID_83_" gradientUnits="userSpaceOnUse" x1="-476.0123" y1="263.1407" x2="-345.4055" y2="129.1416" gradientTransform="matrix(0.6854 -0.7281 0.7281 0.6854 911.0528 1318.7853)">
					<stop  offset="0" style="stop-color:#F9B776"/>
					<stop  offset="1" style="stop-color:#F47960"/>
				</linearGradient>
				<path class="st90" d="M795.25,1676.62c0,0-14.01-40.98-31.93-39.48c-17.93,1.5-32.04,19.36-9.82,39.44
					C781.13,1701.56,795.25,1676.62,795.25,1676.62z"/>
			</g>
			
				<linearGradient id="SVGID_84_" gradientUnits="userSpaceOnUse" x1="1759.6113" y1="1595.2682" x2="819.0695" y2="2235.6362" gradientTransform="matrix(-1 0 0 1 1926.5311 0)">
				<stop  offset="0" style="stop-color:#53D8FF"/>
				<stop  offset="1" style="stop-color:#3840F7"/>
			</linearGradient>
			<path class="st91" d="M644.13,1988.7c-23.63-64.67-15.06-142.76-14.97-143.54l6.51,0.74c-0.09,0.77-8.48,77.36,14.62,140.55
				L644.13,1988.7z"/>
			
				<linearGradient id="SVGID_85_" gradientUnits="userSpaceOnUse" x1="1267.9354" y1="2356.5208" x2="1203.4679" y2="2471.2512" gradientTransform="matrix(1 0 0 1 -439.9463 0)">
				<stop  offset="0" style="stop-color:#2B3582"/>
				<stop  offset="1" style="stop-color:#150E42"/>
			</linearGradient>
			<path class="st92" d="M807.99,2482.06c-1.46,0-2.79-0.98-3.17-2.46c-7.21-27.81-61.19-58.36-61.74-58.67
				c-1.58-0.89-2.14-2.88-1.25-4.46c0.89-1.58,2.87-2.14,4.46-1.26c2.32,1.3,56.97,32.24,64.87,62.74c0.45,1.75-0.6,3.54-2.35,3.99
				C808.55,2482.03,808.27,2482.06,807.99,2482.06z"/>
			<g class="st87">
				
					<linearGradient id="SVGID_86_" gradientUnits="userSpaceOnUse" x1="1110.2294" y1="1599.2419" x2="383.1061" y2="2439.77" gradientTransform="matrix(-1 0 0 1 1926.5311 0)">
					<stop  offset="0" style="stop-color:#53D8FF"/>
					<stop  offset="1" style="stop-color:#3840F7"/>
				</linearGradient>
				<path class="st93" d="M1255.53,1912.5c-122.3,18.35-202.02-58.82-261.42-105.63c-78.42-61.8-139.45-31.74-139.45-31.74
					l83.64,159.62c124.9,117.76,252.96,91.61,333.69,53.45C1273.23,1957.37,1264.99,1931.56,1255.53,1912.5z"/>
				
					<linearGradient id="SVGID_87_" gradientUnits="userSpaceOnUse" x1="1223.8741" y1="1622.252" x2="662.2106" y2="2340.8511" gradientTransform="matrix(1 0 0 1 327.8223 0)">
					<stop  offset="0" style="stop-color:#F9B776"/>
					<stop  offset="1" style="stop-color:#F47960"/>
				</linearGradient>
				<path class="st94" d="M1427.43,1839.53l-40.56,21.83c-48.64,29.62-92.17,45.26-131.34,51.14c9.46,19.07,17.7,44.87,16.45,75.7
					c51.39-24.29,83.61-53.45,83.61-53.45C1447.48,1879.96,1427.43,1839.53,1427.43,1839.53z"/>
			</g>
			
				<linearGradient id="SVGID_88_" gradientUnits="userSpaceOnUse" x1="1299.0432" y1="1681.0024" x2="737.3782" y2="2399.6038" gradientTransform="matrix(1 0 0 1 327.8223 0)">
				<stop  offset="0" style="stop-color:#F9B776"/>
				<stop  offset="1" style="stop-color:#F47960"/>
			</linearGradient>
			<path class="st95" d="M1546.92,1896.68c-2.62-8.7-9.05-15.75-17.49-19.14l-82.31-33.1c0,0-1.24-10.56,17.39-17.73
				c18.64-7.17,14.28-28.04,14.28-28.04s-25.46,11.61-62.73,30.03c-21.31,10.53-33.27,29.13-39.62,43.13l21.19,27.87
				c50.73,15.24,102.07,18.15,153.84,12.11L1546.92,1896.68z"/>
		</g>
		<g>
			<g>
				<g>
					<path class="st96" d="M2502.15,2424.63c-98.46,6.07-197.73,0.98-294.93-15.13c-7.61-1.26-16.16-2.41-22.46,1.72
						c-6.3,4.13-5.85,15.73,1.83,16.55c-5.28-3.72-13.87,1.18-16.83,6.67c-2.96,5.49,0.63,13.1,7,14.81
						c-7.08-3.34-14.11,7.1-12.91,14.38c1.2,7.28,7.81,12.62,14.1,17.12c108.37,77.61,253.51,109.2,387.55,84.35
						C2543.67,2517.55,2523.98,2472.18,2502.15,2424.63z"/>
				</g>
				<g>
					<path class="st97" d="M2409.61,2458.61c4.96-1.82,2.58-8.8-2.54-8.22c-14.07,1.59-26.71,1.81-40.7-0.65
						c-6.3-1.1-9.16,8.57-2.86,10.21C2378.38,2463.83,2395.13,2463.94,2409.61,2458.61z"/>
				</g>
				<g>
					<path class="st97" d="M2442.72,2490.43c-12.78-1.3-25.96-0.69-38.8-0.54c-7.75,0.09-5.97,11.25,1.75,11.12
						c12.31-0.21,24.95-0.04,37.15-1.65C2448.21,2498.66,2448.24,2490.99,2442.72,2490.43z"/>
				</g>
				<g>
					<path class="st97" d="M2359.43,2480.25c-16.03-1.78-31.5-5.11-46.67-10.29c-7.41-2.53-12,7.92-4.6,10.55
						c16.06,5.7,32.72,9.12,49.9,9.92C2365.08,2490.74,2366.57,2481.04,2359.43,2480.25z"/>
				</g>
				<g class="st98">
					<path d="M2265.13,2431.26c80.51,3.19,157.65,9.73,238.84-2.62c0.94,2.05,1.86,4.08,2.79,6.12
						c-73.92,15.04-168.87-3.46-236.83,23.37c-23.33,8.12,34.24,76.07,291.21,97.42c1.45,3.18,2.89,6.35,4.36,9.54
						c-11.95,2.22-23.99,3.96-36.08,5.29c-22.67-0.15-45.65-1.71-69.22-4.74c-89.44-11.58-202.25-33.01-242.24-113.48
						C2207.03,2431.24,2245.76,2431.25,2265.13,2431.26z"/>
				</g>
				<g class="st99">
					<path d="M2186.58,2427.77c-1.26-0.14-2.31-0.58-3.19-1.22C2184.53,2426.7,2185.61,2427.09,2186.58,2427.77z"/>
				</g>
				<g class="st99">
					<path d="M2163.84,2463.63c-1.2-7.28,5.83-17.72,12.91-14.38c-6.37-1.71-9.97-9.32-7-14.81c2.42-4.48,8.59-8.57,13.64-7.89
						c0.88,0.64,1.92,1.09,3.19,1.22c-0.97-0.68-2.05-1.07-3.19-1.22c-4.44-3.24-3.9-11.87,1.36-15.33
						c6.3-4.13,14.85-2.98,22.46-1.72c97.19,16.1,196.47,21.2,294.93,15.13c0.62,1.34,1.22,2.67,1.83,4.01
						c-81.19,12.35-158.33,5.8-238.84,2.62c-19.37,0-58.1-0.01-47.17,20.91c39.99,80.47,152.8,101.9,242.24,113.48
						c23.57,3.03,46.55,4.59,69.22,4.74c-123.55,13.54-252.76-18.95-351.47-89.64C2171.66,2476.24,2165.04,2470.91,2163.84,2463.63z
						"/>
				</g>
			</g>
			<g>
				<g>
					<path class="st100" d="M3553.66,2270.86c8.72,12.77,16.28,26.2,22.72,40.11l0.01,0.02c16.93,36.52,26.11,76.46,28.09,117.12
						c2.58,51.97-6.61,105.09-26.54,153.62l-0.02,0.01c-3.73,9.16-7.85,18.16-12.36,26.95c-16.27,31.79-36.9,60.98-60.85,87.29
						c-42.53,46.72-95.55,84.36-153.28,111.33c-17.95,8.4-36.35,15.75-55.05,22.03c-3.29,1.1-6.57,2.17-9.86,3.21
						c-47.03,14.81-95.64,23.39-144.74,26.83c-21.22,1.5-42.54,2.03-63.86,1.7c-44.58-0.7-89.18-5.17-132.97-12.62
						c-36.54-53.43-78.95-120.56-112.38-176.02c47.8,0.06,95.41-11.01,138.93-31.15c23.21-10.73,45.25-24.03,65.54-39.58
						c25-19.2,47.34-41.83,65.89-67.31c1.84-2.52,3.66-5.07,5.42-7.65c15-21.97,27.29-45.52,38.31-69.72
						c10.09-22.07,19.15-44.69,28.33-67.13c1.15-2.77,2.28-5.56,3.42-8.33c9.34-22.61,19.09-45.2,30.35-66.89
						c10.77-20.76,22.95-40.69,37.45-59.08c1.14-1.45,2.3-2.89,3.48-4.32l0.02-0.01c19.89-24.14,44.52-45.17,72.28-58.93
						c15.89-7.88,32.79-13.37,50.44-15.71C3443.91,2167.15,3513.34,2211.74,3553.66,2270.86z"/>
				</g>
				<g>
					<path class="st96" d="M3037.03,2601.71c54.57,75.67,90.22,165.16,104.75,257.67c-21.22,1.5-42.54,2.03-63.86,1.7
						c-15.95-80.7-52.95-157.3-106.42-219.79C2994.7,2630.56,3016.75,2617.26,3037.03,2601.71z"/>
				</g>
				<g>
					<path class="st96" d="M3351.43,2807.31c-17.95,8.4-36.35,15.75-55.05,22.03c-3.29,1.1-6.57,2.17-9.86,3.21
						c-26.19-115.82-91.89-222.72-183.6-298.14c1.84-2.52,3.66-5.07,5.42-7.65c15-21.97,27.29-45.52,38.31-69.72
						C3252.6,2543.22,3325.75,2672.02,3351.43,2807.31z"/>
				</g>
				<g>
					<path class="st96" d="M3577.94,2581.73l-0.02,0.01c-3.73,9.16-7.85,18.16-12.36,26.95c-16.27,31.79-36.9,60.98-60.85,87.29
						c-31.7-71.74-77.51-137.25-134.27-191.42c-55.35-52.78-120.98-94.69-192.03-122.99c9.34-22.61,19.09-45.2,30.35-66.89
						c80.91,14.58,158.83,47.16,223.91,96.67C3492.51,2456.9,3542.23,2515.56,3577.94,2581.73z"/>
				</g>
				<g>
					<path class="st96" d="M3576.37,2310.97l0.01,0.02c16.93,36.52,26.11,76.46,28.09,117.12c-43-41.3-91.5-76.84-143.92-105.23
						c-65.58-35.48-137.23-59.72-210.85-71.62c19.89-24.14,44.52-45.17,72.28-58.93c58.53,14,115.24,36.23,169.32,64.87
						C3520.99,2272.92,3549.44,2290.93,3576.37,2310.97z"/>
				</g>
				<g class="st99">
					<path d="M3216.35,2638.18c-61.96,2.91-122.39-11.7-175.2-39.75c-1.38,1.09-2.73,2.21-4.13,3.29
						c-20.28,15.55-42.33,28.85-65.54,39.58c-11.22,5.2-22.73,9.78-34.43,13.73c83.23,60.19,181.8,93.57,294.38,73.49
						c108.52-19.88,205.11-62.87,292.74-128.77c26.7-19.86,50.11-42.81,70.09-68.05c8.41-33.91,11.93-69,10.21-103.59
						c-1.98-40.66-11.16-80.6-28.09-117.12l-0.01-0.02c-1.18-2.56-2.42-5.09-3.68-7.62
						C3537.33,2476.32,3401.14,2629.18,3216.35,2638.18z"/>
				</g>
				<g class="st98">
					<path d="M3415.25,2177.2c32.92,42.32,53.55,93.5,54.77,150.96c1.26,96.9-66.36,176-154.86,209.08
						c-68.68,24.82-141.95,16.71-203.77-15.08c-1.01,1.53-2.01,3.08-3.04,4.6c-1.76,2.58-3.58,5.13-5.42,7.65
						c-17.51,24.06-38.44,45.53-61.76,64.02c52.8,28.05,113.24,42.66,175.2,39.75c184.79-9,320.97-161.85,356.34-334.82
						c-5.59-11.2-11.92-22.07-19.04-32.49C3521.48,2223.68,3470.76,2185.79,3415.25,2177.2z"/>
				</g>
				<g class="st101">
					<path d="M3524.17,2599.74c-87.63,65.9-184.22,108.89-292.74,128.77c-112.57,20.08-211.15-13.3-294.38-73.49
						c-33.67,11.37-69.03,17.47-104.5,17.42c33.43,55.46,75.84,122.59,112.38,176.02c43.79,7.44,88.39,11.92,132.97,12.62
						c21.32,0.33,42.64-0.2,63.86-1.7c49.11-3.45,97.71-12.02,144.74-26.83c3.28-1.04,6.57-2.11,9.86-3.21
						c18.69-6.28,37.1-13.63,55.05-22.03c57.73-26.97,110.75-64.6,153.28-111.33c23.95-26.31,44.58-55.5,60.85-87.29
						c4.51-8.78,8.63-17.79,12.36-26.95l0.02-0.01c6.67-16.24,12.1-32.99,16.33-50.04
						C3574.28,2556.94,3550.88,2579.88,3524.17,2599.74z"/>
				</g>
				<g class="st99">
					<path class="st0" d="M3302.06,2246.41c-24.4,26.99-40.71,60.22-55.13,93.63s-27.36,67.67-46.33,98.72
						c-4.68,7.66-9.91,15.87-9.11,24.81c1.01,11.39,12.26,19.94,23.66,20.87c11.39,0.92,22.49-4.26,31.65-11.1
						c20.49-15.3,33.46-38.55,43.76-61.95c10.3-23.41,18.67-47.9,32.71-69.27c22.2-33.77,56.97-57.35,81.58-89.4
						c14.89-19.39,20.61-62.18-15.97-56.02C3355.46,2202.33,3324.54,2221.56,3302.06,2246.41z"/>
				</g>
			</g>
			<g>
				<g>
					<path class="st96" d="M2645.16,2936.5c-52.21,30.95-104.59,62-159.41,87.1c-54.83,25.11-112.48,44.26-169.92,49.88
						c-7.46,0.73-15.46,1.1-21.01-2.69c-5.55-3.79-6.58-13.38-0.15-17.97c-7.34,3.51-17.16,2.06-22.23-2.61
						c-5.08-4.66-6.17-12.89-2.65-19.91c-8.58,3.64-17.71-5.8-16.59-14.24c1.12-8.44,7.77-16.03,14.06-22.93
						c44.91-49.2,89.82-98.41,134.73-147.61C2479.56,2882.97,2559.61,2913.49,2645.16,2936.5z"/>
				</g>
				<g>
					<path class="st97" d="M2365.03,3039.24c8.61-3.58,17.63-7.52,26.59-9.4c3.57-0.75,5.21,3.93,1.99,6.05
						c-7.92,5.22-17,8.92-25.59,12.58C2361.32,3051.32,2358.3,3042.04,2365.03,3039.24z"/>
				</g>
				<g>
					<path class="st97" d="M2422.95,2993.38c11.83-5.15,22.89-11.8,34.53-17.35c5.16-2.46,7.59,3.85,3.64,7.17
						c-10.21,8.58-22.99,14.77-34.98,20.08C2419.01,3006.44,2415.78,2996.5,2422.95,2993.38z"/>
				</g>
				<g>
					<path class="st97" d="M2356.16,3003.63c12.35-6.23,24.81-12.11,37.35-17.85c5.37-2.46,7.23,4.53,2.35,7.28
						c-12.14,6.84-24.32,13.53-36.69,19.9C2352.63,3016.33,2349.57,3006.95,2356.16,3003.63z"/>
				</g>
				<g class="st102">
					<path d="M2385.04,3060.6c-22.97,6.15-46.11,10.62-69.21,12.88c-7.46,0.73-15.46,1.1-21.01-2.69s-6.58-13.38-0.15-17.97
						c-3.92,1.87-8.54,2.32-12.77,1.63c44.88-36.83,64.5-92.09,57.8-140.68c7.63-8.36,15.27-16.72,22.9-25.09
						C2395.12,2935.78,2408.22,2998.22,2385.04,3060.6z"/>
				</g>
				<g class="st103">
					<path d="M2402,2845.53c77.56,37.43,157.61,67.96,243.17,90.97c-52.21,30.95-104.59,62-159.41,87.1
						c-32.78,15.01-66.56,27.86-100.71,37c23.18-62.39,10.08-124.82-22.44-171.91C2375.73,2874.31,2388.87,2859.92,2402,2845.53z"/>
				</g>
			</g>
			<g>
				<g>
					<path class="st96" d="M3014.74,2825.83c-0.42,4.92-0.86,9.86-1.34,14.78c-4.94,50.18-13.08,100.01-29.31,147.62
						c-22.35,65.55-61.32,127.29-118.78,165.96c-7.72,5.19-15.96,10.03-25.1,11.63c-9.15,1.6-19.17-1.66-25.25-8.7
						c-3.49,4.63-9.59,7.13-15.3,6.26c-5.72-0.84-10.01-5.84-11.98-11.29c-2.06,5.78-9.88,8.01-15.45,5.38
						c-5.55-2.61-8.81-8.72-9.67-14.8c-0.84-6.1,0.29-12.26,1.37-18.31c7.27-41.31,11.1-83.08,13.88-124.96
						c1.2-17.74,2.19-35.49,3.2-53.23c65.21-45.87,129.84-88.63,195.03-134.53c11.58-8.16,24.62-18.1,37.32-25.29
						C3014.95,2799.49,3015.48,2812.74,3014.74,2825.83z"/>
				</g>
				<g>
					<path class="st97" d="M2865.19,3104.96c-5.06,4.75-10.03,9.58-14.99,14.43c-4.15,4.05-10.1,8.48-11.58,14.3
						c-0.66,2.59,1.63,4.63,4.12,4.12c5.87-1.19,10.65-7.06,14.9-10.98c5.1-4.71,10.18-9.43,15.18-14.24
						C2877.84,3107.75,2870.25,3100.21,2865.19,3104.96z"/>
				</g>
				<g>
					<path class="st97" d="M2902.01,3049.3c-5.94,11.03-12.29,21.83-18.22,32.85c-2.28,4.23,3.61,9.41,6.97,5.37
						c8.32-10.01,15-21.01,20.75-32.68C2914.59,3048.56,2905.39,3043.02,2902.01,3049.3z"/>
				</g>
				<g>
					<path class="st97" d="M2859.75,3059.14c-2.68,6.48-5.81,12.77-9.38,18.8c-3.16,5.33-7.31,10.18-9.52,15.99
						c-1.24,3.27,2.94,5.88,5.65,4.34c11.96-6.82,19.43-23.83,23.95-36.18C2872.93,3055.29,2862.4,3052.7,2859.75,3059.14z"/>
				</g>
				<g class="st102">
					<path d="M2922.38,3101.81c-20.68-52.22-85.22-85.21-145.23-93.28c-0.75,10.64-1.58,21.28-2.53,31.9
						c52.6,6.69,100.28,40.22,109.78,98.82c0.03,0.21,0.03,0.41,0.06,0.61C2898.32,3128.46,2910.97,3115.69,2922.38,3101.81z"/>
				</g>
				<g class="st103">
					<path d="M3013.34,2786.35c-12.7,7.19-25.73,17.13-37.32,25.29c-65.19,45.89-129.82,88.65-195.03,134.53
						c-1.01,17.74-2,35.49-3.2,53.23c-0.2,3.04-0.42,6.09-0.64,9.13c60,8.07,124.54,41.06,145.23,93.28
						c27.34-33.25,47.76-72.67,61.71-113.58c16.23-47.62,24.37-97.44,29.31-147.62c0.48-4.92,0.92-9.86,1.34-14.78
						C3015.48,2812.74,3014.95,2799.49,3013.34,2786.35z"/>
				</g>
			</g>
			<g>
				<path class="st100" d="M3014.75,2825.82c-0.25,4.96-0.71,9.88-1.35,14.78c-0.63,4.79-1.45,9.54-2.44,14.23
					c-4.67,21.93-13.41,42.66-27.08,60.65c-16.94,22.35-39.42,38.28-64.69,49.99c-34.75,16.1-74.76,24.2-112.94,29.92
					c-4.08,0.61-8.16,1.2-12.24,1.79c-5.4,0.78-10.83,1.51-16.23,2.21c-43.37,5.7-87.2,9.4-130.76,9.06
					c-39.75-0.34-79.26-4.04-117.94-12.68c-7.42-1.66-14.82-3.51-22.18-5.55c-32.92-9.1-66.37-23.17-87.39-50.1
					c-2.19-2.8-4.2-5.7-6.05-8.66c-19.24-30.78-21.49-70.18-19.85-106.94c5.4-122.21,43.66-240.25,81.59-356.55
					c51.61-13.37,102.17-22.58,152.8-28.68c27.27-3.28,54.58-5.68,82.07-7.32c47.57-2.84,95.74-3.45,145.42-2.71
					c8.64,58.19,38.32,110.92,69.17,161.02c30.84,50.1,63.85,100.03,80.43,156.45c3.78,12.87,6.58,26.15,8.24,39.63
					C3014.96,2799.49,3015.49,2812.72,3014.75,2825.82z"/>
			</g>
			<g class="st99">
				<path d="M2741.27,2798.46c0.75-0.71,1.33-1.61,1.63-2.75C2742.09,2796.51,2741.57,2797.44,2741.27,2798.46z"/>
			</g>
			<g class="st99">
				<path d="M2762.21,2809.01c0.24-0.37,0.46-0.75,0.64-1.16C2762.59,2808.23,2762.38,2808.61,2762.21,2809.01z"/>
			</g>
			<g>
				<path class="st96" d="M2889.96,2603.37c-36.79-57.64-85.73-113.13-113.04-173.99c-22.46,0.44-44.72,1.26-66.83,2.58
					c-27.5,1.64-54.81,4.04-82.07,7.32c-50.62,6.1-101.18,15.3-152.8,28.68c-37.92,116.3-76.19,234.34-81.59,356.55
					c-1.64,36.77,0.61,76.17,19.85,106.94c1.85,2.96,3.87,5.87,6.05,8.66c21.02,26.93,54.47,40.99,87.39,50.1
					c7.36,2.04,14.76,3.89,22.18,5.55c38.68,8.64,78.18,12.34,117.94,12.68c48.31-0.4,96.83-4.71,144.89-10.99
					c0.69-0.08,1.41-0.19,2.1-0.27c4.08-0.59,8.16-1.18,12.24-1.79c6.42-0.96,12.9-2,19.39-3.12c6.91-4.37,13.65-9.22,20.15-14.68
					C2957.23,2885.08,2965.64,2723.2,2889.96,2603.37z"/>
			</g>
			<g>
				<path class="st97" d="M2497.51,2894.68c-4.2-11.24-4.54-21.89-5.04-33.7c-0.19-4.42-6.11-5.11-7.55-1.02
					c-4.21,11.97-1.98,25.96,2.66,37.46C2490.01,2903.44,2499.86,2900.96,2497.51,2894.68z"/>
			</g>
			<g>
				<path class="st97" d="M2519.31,2811.41c-0.57-3.7-5.81-2.98-6.79,0c-3.48,10.59-2.56,22.94-1.61,33.87c0.57,6.6,11,6.61,10.35,0
					C2520.15,2834.06,2521.01,2822.52,2519.31,2811.41z"/>
			</g>
			<g>
				<path class="st97" d="M2529.65,2941.22c-3.87-12.49-6.72-24.9-7.78-37.97c-0.43-5.29-8.13-5.42-8.33,0
					c-0.49,13.82,1.42,27.7,6.42,40.64C2522.23,2949.79,2531.6,2947.52,2529.65,2941.22z"/>
			</g>
			<g class="st101">
				<path d="M2924.67,2590.29c-30.84-50.1-60.53-102.82-69.17-161.02c-131.73-1.98-252.74,5.7-380.29,38.7
					c-11.12,34.09-22.26,68.34-32.6,102.8c158.43,6.58,315.4,37.29,462.81,103.86c34.26,14.68,67.14,34.38,95.49,59.09
					C2983.37,2682.57,2953.12,2636.5,2924.67,2590.29z"/>
			</g>
			<g class="st103">
				<path d="M3013.35,2786.35c-1.66-13.45-4.46-26.76-8.24-39.61c-1.29-4.38-2.71-8.71-4.18-13.02
					c-28.34-24.71-61.23-44.41-95.49-59.09c-147.41-66.57-304.39-97.28-462.81-103.86c-5.82,19.41-11.38,38.88-16.54,58.43
					c137.73-1.71,279.55,30.08,393.16,114.8c33.64,25.23,63.07,69.38,48.35,111.42c-27.33,73.58-111.42,94.6-185,107.22
					c-78.63,12.33-159.52,17.86-235.22,2.52c17.91,11.63,38.83,19.33,59.55,25.06c7.36,2.04,14.76,3.89,22.18,5.55
					c81.04,18.1,165.77,14.51,248.7,3.62c9.5-1.24,19.01-2.59,28.47-3.99c38.18-5.72,78.18-13.81,112.94-29.92
					c25.27-11.71,47.74-27.65,64.69-49.99c16.59-21.84,25.94-47.72,29.52-74.88c0.63-4.9,1.09-9.82,1.35-14.78
					C3015.49,2812.73,3014.96,2799.49,3013.35,2786.35z"/>
			</g>
			<g>
				<g>
					<path class="st96" d="M2736.89,2469.11c-65.03,74.17-138.56,141.07-218.44,198.73c-6.25,4.52-13.09,9.77-14.6,17.16
						c-1.51,7.39,7.04,15.23,13.03,10.36c-6.36,1.13-8.93,10.68-7.12,16.65c1.81,5.97,9.75,8.78,15.45,5.46
						c-7.36,2.67-4.9,15.01,1.11,19.29c6.01,4.28,14.46,3.34,22.08,2.05c131.42-22.29,256.06-103.08,332.82-215.74
						C2832.1,2505.07,2786.02,2487.09,2736.89,2469.11z"/>
				</g>
				<g>
					<path class="st97" d="M2695.85,2558.73c2.2-4.8-4.43-8.03-7.63-3.98c-8.78,11.11-17.53,20.23-29.12,28.44
						c-5.22,3.69-0.37,12.54,5.24,9.22C2677.56,2584.58,2689.43,2572.77,2695.85,2558.73z"/>
				</g>
				<g>
					<path class="st97" d="M2741.75,2557.63c-9.92,8.16-18.78,17.94-27.71,27.17c-5.39,5.57,3.79,12.16,9.13,6.59
						c8.52-8.89,17.54-17.74,24.99-27.53C2751.46,2559.54,2746.03,2554.11,2741.75,2557.63z"/>
				</g>
				<g>
					<path class="st97" d="M2675.86,2609.6c-12.56,10.13-25.81,18.76-40.17,25.88c-7.02,3.48-2.83,14.09,4.25,10.69
						c15.35-7.39,29.52-16.81,42.18-28.44C2687.3,2612.98,2681.46,2605.09,2675.86,2609.6z"/>
				</g>
				<g class="st98">
					<path d="M2574.68,2642.04c58.96-54.92,117.93-105.07,166.35-171.41c2.12,0.78,4.21,1.56,6.31,2.33
						c-41.38,63.08-121.38,117.45-150.2,184.6c-10.67,22.28,78.11,29.26,274.25-138.14c3.28,1.21,6.54,2.42,9.84,3.63
						c-6.84,10.04-14.08,19.82-21.66,29.34c-16.07,15.99-33.36,31.2-52.11,45.8c-71.21,55.34-165.87,120.34-251.16,92.06
						C2533.75,2683.29,2561.03,2655.79,2574.68,2642.04z"/>
				</g>
				<g class="st99">
					<path d="M2516.88,2695.35c-0.99,0.8-2.04,1.23-3.11,1.4C2514.68,2696.06,2515.72,2695.56,2516.88,2695.35z"/>
				</g>
				<g class="st99">
					<path d="M2526.33,2736.75c-6.01-4.28-8.47-16.62-1.11-19.29c-5.7,3.32-13.64,0.51-15.45-5.46c-1.48-4.88-0.03-12.13,4.01-15.24
						c1.07-0.17,2.13-0.6,3.11-1.4c-1.17,0.21-2.2,0.7-3.11,1.4c-5.42,0.87-11.18-5.59-9.92-11.76c1.5-7.38,8.34-12.64,14.6-17.16
						c79.88-57.66,153.41-124.56,218.44-198.73c1.39,0.51,2.75,1.02,4.13,1.52c-48.41,66.34-107.38,116.5-166.35,171.41
						c-13.64,13.75-40.93,41.24-18.38,48.22c85.29,28.28,179.95-36.72,251.16-92.06c18.75-14.6,36.04-29.81,52.11-45.8
						c-77.39,97.25-191.46,166.1-311.16,186.4C2540.78,2740.09,2532.34,2741.03,2526.33,2736.75z"/>
				</g>
			</g>
			<g>
				<g>
					<g>
						<path class="st104" d="M2486.21,1735.28c-23.27,23.83-45.06,48.49-65.43,73.96c-52.66,65.66-96.19,136.72-132.79,213.21
							c-9.13,18.99-17.8,38.33-26.08,58c0.94-2.23-39.69-42.62-43.09-48.01c-57.44-91.01-92.38-174.29-105.63-239.66
							c-5.27-26.02-24.88-111.87,18.76-116.82c58.44-6.63,123.71,2.05,181.17,12.42C2432.38,1709.9,2483.23,1738.33,2486.21,1735.28
							z"/>
					</g>
					<g>
						<path class="st105" d="M2420.78,1809.24c-52.66,65.66-96.19,136.72-132.79,213.21c-50.91-77.74-104.57-189.03-114.4-228.95
							c-2.31-9.43-4.56-19.68-0.64-28.57c3.79-8.61,12.8-14.05,22.04-15.85c9.24-1.83,18.77-0.58,28.08,0.88
							C2291.28,1760.76,2356.73,1782.98,2420.78,1809.24z"/>
					</g>
					<g class="st101">
						<path d="M2486.21,1735.28c-4.76,4.86-9.45,9.77-14.05,14.71c-24.58-9.02-72.09-25.62-148.16-39.34
							c-56.01-10.12-119.64-18.57-176.59-12.11c-42.54,4.81-23.44,88.5-18.29,113.87c12.91,63.71,46.98,144.91,102.97,233.61
							c2.1,3.32,18.76,20.33,30.46,32.92l-0.64,1.51c0.94-2.23-39.69-42.62-43.09-48.01c-57.44-91.01-92.38-174.29-105.63-239.66
							c-5.27-26.02-24.88-111.87,18.76-116.82c58.44-6.63,123.71,2.05,181.17,12.42C2432.38,1709.9,2483.23,1738.33,2486.21,1735.28
							z"/>
					</g>
					<g class="st101">
						<path d="M2420.78,1809.24c-19.79-8.11-39.71-15.84-59.81-22.96c-21.94,37.17-51.98,64.06-101.39,58.82
							c-27.72-1.8-54.33-12.11-77.99-27.11c19.09,50.51,63.7,139.27,106.39,204.46C2324.6,1945.96,2368.12,1874.9,2420.78,1809.24z"
							/>
					</g>
				</g>
				<g>
					<g>
						<path class="st104" d="M2961.74,1827.2c18.03,28.01,34.44,56.53,49.29,85.56c38.45,74.87,66.86,153.21,87.41,235.48
							c5.14,20.43,9.76,41.12,13.94,62.05c-0.48-2.38,47.42-33.81,51.83-38.41c74.5-77.67,125.41-152.26,151.48-213.65
							c10.38-24.44,46.78-104.63,5.02-118.21c-55.92-18.2-121.61-22.77-179.99-24.11
							C3019.55,1813.12,2964.04,1830.79,2961.74,1827.2z"/>
					</g>
					<g>
						<path class="st105" d="M3011.03,1912.77c38.45,74.87,66.86,153.21,87.41,235.48c65.45-65.97,140.3-164.27,157.93-201.41
							c4.15-8.78,8.41-18.37,6.35-27.86c-1.99-9.19-9.73-16.32-18.42-19.94c-8.69-3.64-18.27-4.33-27.68-4.76
							C3147.61,1891.2,3079.05,1899.86,3011.03,1912.77z"/>
					</g>
					<g class="st101">
						<path d="M2961.74,1827.2c3.69,5.71,7.31,11.46,10.82,17.23c25.88-3.91,75.76-10.66,153.03-8.88
							c56.91,1.3,120.94,5.77,175.44,23.5c40.71,13.23,5.24,91.4-4.88,115.22c-25.4,59.84-75.04,132.57-147.66,208.26
							c-2.72,2.83-22.45,16.17-36.43,26.15l0.32,1.61c-0.48-2.38,47.42-33.81,51.83-38.41c74.5-77.67,125.41-152.26,151.48-213.65
							c10.38-24.44,46.78-104.63,5.02-118.21c-55.92-18.2-121.61-22.77-179.99-24.11
							C3019.55,1813.12,2964.04,1830.79,2961.74,1827.2z"/>
					</g>
					<g class="st101">
						<path d="M3011.03,1912.77c21.01-3.99,42.08-7.56,63.2-10.52c14.05,40.81,38.1,73.17,87.56,77.93
							c27.51,3.78,55.66-0.99,81.84-10.95c-28.82,45.66-90.29,123.7-145.18,179.02C3077.89,2065.98,3049.48,1987.64,3011.03,1912.77
							z"/>
					</g>
				</g>
				<g>
					<path class="st100" d="M3148.55,2438.76c-2.59,4.01-5.65,7.56-9.09,10.71c-13.33,12.26-32.15,18.67-49.97,23.78
						c-8.6,2.46-17.23,4.81-25.91,7.05c-33.45,8.62-67.31,15.5-101.41,20.67c-27.32,4.17-54.82,7.22-82.4,9.2
						c-157.74,11.29-318.22-12.7-466.03-69.31c-41.56-15.92-82.36-34.46-120.78-56.82c-26.89-15.63-52.6-33.12-76.64-52.93
						c-14.45-11.92-28.64-25.29-39.29-40.58c-7.65-10.92-13.48-22.86-16.32-35.94c-7.09-32.66,5.59-66.01,18.04-97.01
						c1.5-3.75,3.02-7.5,4.53-11.25c4.2-10.42,8.42-20.86,12.69-31.27c1.78-4.33,3.57-8.68,5.37-13c1.51-3.69,3.06-7.37,4.59-11.03
						c0.52-1.23,1.04-2.47,1.56-3.7c32.72-77.77,69.11-154.33,118.05-223.17c53.1-74.67,122.53-138.67,209.93-169.89
						c71.85-25.64,151.02-27.73,225.24-10.62c2,0.47,3.99,0.94,5.96,1.44c1.99,0.49,3.97,0.97,5.95,1.5
						c3.92,1.03,7.85,2.09,11.73,3.22c3.88,1.13,7.76,2.31,11.63,3.55c1.04,0.34,2.08,0.67,3.13,1.02c2.52,0.83,5.04,1.68,7.56,2.56
						c0,0,0.02,0,0.04,0.03c2.66,0.91,5.31,1.87,7.94,2.84c2.2,0.83,4.41,1.67,6.61,2.52s4.4,1.73,6.57,2.62
						c0.71,0.28,1.41,0.58,2.11,0.86c2.29,0.95,4.57,1.92,6.83,2.91c0.66,0.28,1.3,0.57,1.97,0.87c2.57,1.11,5.13,2.29,7.67,3.46
						c2.52,1.17,5,2.36,7.49,3.57c0.72,0.35,1.46,0.72,2.17,1.06c2.47,1.23,4.92,2.47,7.34,3.74c5.11,2.67,10.16,5.41,15.16,8.24
						c3.28,1.86,6.55,3.76,9.78,5.7c21.32,12.73,41.58,27.03,60.43,42.65c6.86,5.69,13.49,11.52,19.89,17.49
						c1.29,1.2,2.55,2.4,3.82,3.61c0.58,0.56,1.19,1.13,1.78,1.69c1.17,1.13,2.32,2.25,3.47,3.39c4.74,4.68,9.35,9.42,13.84,14.23
						c0.91,0.99,1.8,1.97,2.72,2.95c6.95,7.61,13.6,15.41,19.94,23.35c1.09,1.39,2.15,2.73,3.22,4.12c1.11,1.41,2.2,2.83,3.27,4.23
						c1.09,1.43,2.18,2.86,3.24,4.29c4.27,5.74,8.38,11.54,12.37,17.44c1,1.48,2,2.95,2.97,4.43c0.98,1.48,1.95,2.98,2.9,4.46
						c0.97,1.5,1.93,3,2.88,4.5c0.95,1.5,1.88,3,2.81,4.51c1.86,3.01,3.67,6.07,5.49,9.12c0.88,1.53,1.79,3.07,2.65,4.6
						c0.88,1.53,1.77,3.07,2.63,4.62c0.01,0.07,0.04,0.15,0.06,0.22c77.09,137.66,91.82,308.95,99.65,465.42
						C3159.47,2397.98,3160.14,2420.88,3148.55,2438.76z"/>
				</g>
				<g>
					<path class="st104" d="M2428.93,2223.71c-1.86,13.9-8.22,26.82-15.82,38.6c-30.91,48.07-81.38,79.87-120.16,121.72
						c-26.89-15.63-52.6-33.12-76.64-52.93c-14.45-11.92-28.64-25.29-39.29-40.58c33.88-37.99,74.07-70.42,118.4-95.49
						c25.02-14.15,52.45-26.22,81.2-26.01c15.2,0.1,31.27,4.24,41.56,15.43C2427.63,2194.78,2430.79,2209.83,2428.93,2223.71z"/>
				</g>
				<g>
					<path class="st104" d="M3139.46,2449.47c-13.33,12.26-32.15,18.67-49.97,23.78c-8.6,2.46-17.23,4.81-25.91,7.05
						c-33.45,8.62-67.31,15.5-101.41,20.67c-33.56-62.18-65.16-125.87-80.32-194.64c-4.23-19.13-6.56-41.09,5.5-56.52
						c10.04-12.83,27.95-17.47,44.07-15.28c16.14,2.22,30.84,10.22,44.63,18.9C3049.22,2299.53,3106.99,2369.37,3139.46,2449.47z"/>
				</g>
				<g>
					<path class="st106" d="M2695.62,1691.14c-13.69,10.78-23.32,27.83-30.41,43.47c-3.05,6.72,7.45,11.07,10.55,4.41
						c7.15-15.36,17.21-27.32,26.64-41.12C2705.41,1693.52,2700.1,1687.62,2695.62,1691.14z"/>
				</g>
				<g>
					<path class="st106" d="M2772.62,1686.61c-4.89,6.05-9.38,12.36-13.13,19.3c-1.55,2.85-4.55,3.55-7.02,2.87l-0.02-0.02
						c-1.96-0.55-3.58-1.96-3.95-3.88c0-0.02-0.02-0.02-0.02-0.02c-0.17-0.98-0.03-2.1,0.59-3.32c3.27-6.32,7.1-12.38,11.61-17.86
						c0,0,0,0,0.02,0c0,0,0,0,0-0.02c2,0.47,3.99,0.94,5.96,1.44C2768.66,1685.59,2770.63,1686.08,2772.62,1686.61z"/>
				</g>
				<g>
					<path class="st106" d="M2711.83,1771.97c-5.54,8.73-10.67,17.71-15.83,26.67c-3.64,6.32,6.93,10.73,10.5,4.4
						c4.83-8.58,9.69-17.15,14.16-25.93C2723.28,1771.95,2714.96,1767.03,2711.83,1771.97z"/>
				</g>
				<g>
					<path class="st106" d="M2805.92,1722.39c-9.38,10.02-16.88,22.39-24.68,33.65c-4.24,6.12,4.93,13.2,9.17,7.07
						c8.08-11.66,17.2-23.33,23.49-36.08C2816.4,1721.98,2809.29,1718.8,2805.92,1722.39z"/>
				</g>
				<g>
					<path class="st106" d="M2751.6,1840.08c-7.81,14.28-14.33,29.36-21.08,44.16c-3.04,6.65,7.43,11,10.46,4.38
						c6.75-14.78,13.87-29.56,19.53-44.8C2762.72,1837.87,2754.53,1834.71,2751.6,1840.08z"/>
				</g>
				<g>
					<path class="st106" d="M2678.36,1894.08c-5.82,11.95-8.73,25.97-12.44,38.72c-1.98,6.83,8.26,11.23,10.32,4.32
						c3.92-13.14,9.26-27.04,10.89-40.69C2687.76,1891.16,2680.59,1889.49,2678.36,1894.08z"/>
				</g>
				<g>
					<path class="st106" d="M2766.79,1913.92c-8.42,11.29-13.54,26.18-19.44,38.91c-3.09,6.66,7.43,11.03,10.5,4.4
						c5.92-12.78,13.82-26.2,17.03-39.97C2775.92,1912.76,2769.33,1910.51,2766.79,1913.92z"/>
				</g>
				<g>
					<path class="st106" d="M2708.29,1964.49c-6.11,15.62-10.7,31.96-15.35,48.05c-1.95,6.77,8.18,11.13,10.23,4.28
						c4.93-16.49,10.06-33.22,13.47-50.1C2717.62,1961.88,2710.06,1959.96,2708.29,1964.49z"/>
				</g>
				<g>
					<path class="st106" d="M2727.7,2027.4c-5.41,11.49-10.02,23.08-14.35,35.03c-2.31,6.37,7.45,10.47,9.73,4.07
						c4.4-12.33,8.3-24.56,11.55-37.24C2735.69,2025.15,2729.35,2023.89,2727.7,2027.4z"/>
				</g>
				<g>
					<path class="st106" d="M2679.04,2072.54c-3.79,10.26-7.35,20.6-10.82,30.98c-2.23,6.68,7.9,10.95,10.14,4.24
						c3.48-10.4,6.85-20.82,10-31.32C2690.2,2070.35,2681.33,2066.34,2679.04,2072.54z"/>
				</g>
				<g>
					<path class="st106" d="M2826.08,1797.44c-5.72,12.25-14.62,26.49-16.63,39.95c-0.6,4.03,4.51,5.62,6.95,2.87
						c4.54-5.13,7.17-11.97,10.15-18.09c3.31-6.79,6.56-13.6,9.76-20.44C2839.33,1795.24,2829.09,1790.99,2826.08,1797.44z"/>
				</g>
				<g>
					<path class="st106" d="M2888.37,1735.37c-3.89,5.01-7.42,10.3-10.83,15.91c-3.01,4.94-10.77,0.06-8.58-4.98
						c2.55-5.88,5.83-11.44,9.63-16.63C2881.87,1731.52,2885.15,1733.43,2888.37,1735.37z"/>
				</g>
				<g class="st98">
					<path d="M3012.23,2157.68c-119.64,156.35-324.47,200.06-505.62,174.74c-123.99-15.88-249.92-83-323.34-186.09
						c4.2-10.42,8.42-20.86,12.69-31.27c1.78-4.33,3.57-8.68,5.37-13c1.51-3.69,3.06-7.37,4.59-11.03c0.52-1.23,1.04-2.47,1.56-3.7
						c88.49,88.21,211.1,142.44,337.23,146.11c152.28,2.55,290.1-130.28,309.06-278.34c9.34-72.9-15.66-141.38-58.78-198.49
						c-2.46-3.26-4.99-6.51-7.6-9.7c-6.49-8.04-13.36-15.83-20.53-23.36c-4.64-4.98-9.45-9.92-14.41-14.77l-0.02-0.02
						c-1.29-1.33-2.63-2.63-3.95-3.88c0-0.02-0.02-0.02-0.02-0.02c-10.52-10.19-21.7-20.03-33.44-29.17
						c15.34,1.86,30.6,4.53,45.65,7.99c0,0,0,0,0.02,0c2,0.45,3.97,0.93,5.96,1.42c1.99,0.49,3.97,0.97,5.95,1.5
						c3.92,1.03,7.85,2.09,11.73,3.22c3.88,1.13,7.76,2.31,11.63,3.55c1.04,0.34,2.08,0.67,3.13,1.02c2.52,0.83,5.04,1.68,7.56,2.56
						c0,0,0.02,0,0.04,0.03c2.66,0.91,5.31,1.87,7.94,2.84c2.2,0.83,4.41,1.67,6.61,2.52s4.4,1.73,6.57,2.62
						c0.71,0.28,1.41,0.58,2.11,0.86c2.29,0.95,4.57,1.92,6.83,2.91c0.66,0.28,1.3,0.57,1.97,0.87c2.57,1.11,5.13,2.29,7.67,3.46
						c2.52,1.17,5,2.36,7.49,3.57c0.72,0.35,1.46,0.72,2.17,1.06c2.47,1.23,4.92,2.47,7.34,3.74c5.11,2.67,10.16,5.41,15.16,8.24
						c3.28,1.86,6.55,3.76,9.78,5.7c21.32,12.73,41.58,27.03,60.43,42.65c6.86,5.69,13.49,11.52,19.89,17.49
						c1.29,1.2,2.55,2.4,3.82,3.61c0.58,0.56,1.19,1.13,1.78,1.69c1.17,1.13,2.32,2.25,3.47,3.39c4.74,4.68,9.35,9.42,13.84,14.23
						c0.91,0.99,1.8,1.97,2.72,2.95c6.95,7.61,13.6,15.41,19.94,23.35c1.09,1.39,2.15,2.73,3.22,4.12c1.11,1.41,2.2,2.83,3.27,4.23
						c1.09,1.43,2.18,2.86,3.24,4.29c4.27,5.74,8.38,11.54,12.37,17.44c1,1.48,2,2.95,2.97,4.43c0.98,1.48,1.95,2.98,2.9,4.46
						c0.97,1.5,1.93,3,2.88,4.5c0.95,1.5,1.88,3,2.81,4.51c1.86,3.01,3.67,6.07,5.49,9.12c0.88,1.53,1.79,3.07,2.65,4.6
						c0.88,1.53,1.77,3.07,2.63,4.62c0.01,0.07,0.04,0.15,0.06,0.22C3078.78,1994.53,3067.28,2084.38,3012.23,2157.68z"/>
				</g>
				<g class="st99">
					<path d="M3058.7,1911.05c20.1,83.31,8.61,173.28-46.47,246.64c-119.64,156.35-324.47,200.06-505.62,174.74
						c-123.99-15.88-249.91-83-323.34-186.09c-1.51,3.75-3.02,7.5-4.53,11.25c-12.45,31-25.13,64.35-18.04,97.01
						c2.02,9.29,5.56,18,10.18,26.19c67.34,48.22,141.47,85.99,222.92,105.02c251.95,57.16,549.71,73.47,758.39-107.34
						C3141.85,2150.95,3119.97,2020.36,3058.7,1911.05z"/>
				</g>
				<g class="st101">
					<path d="M3158.4,2376.7c-1.61-32.25-3.53-65.14-6.21-98.24c-208.68,180.81-506.44,164.5-758.39,107.34
						c-81.45-19.04-155.58-56.81-222.92-105.02c1.88,3.33,3.92,6.59,6.13,9.75c10.65,15.29,24.84,28.66,39.29,40.58
						c24.04,19.8,49.76,37.3,76.64,52.93c38.42,22.36,79.22,40.9,120.78,56.82c147.81,56.62,308.3,80.6,466.03,69.31
						c62.01-4.46,123.6-14.35,183.81-29.87c8.68-2.24,17.31-4.59,25.91-7.05c22.42-6.43,46.4-14.91,59.06-34.49
						C3160.14,2420.88,3159.47,2397.99,3158.4,2376.7z"/>
				</g>
				<g class="st103">
					<path class="st0" d="M2620.19,1706.69c-29.27,3.03-57.55,12.48-84.5,24.29c-38.78,16.99-75.56,39.14-106.75,67.78
						c-31.19,28.64-56.69,63.94-71.31,103.67c-4.39,11.93-7.67,25.71-1.69,36.92c6.42,12.03,21.89,16.86,35.38,14.84
						s25.47-9.44,36.94-16.82c90.49-58.15,176.3-123.21,262.02-188.2c15.81-11.98,20.98-27.84-0.32-35.36
						C2667.76,1705.99,2643.49,1704.28,2620.19,1706.69z"/>
				</g>
				<g>
					<g>
						<path class="st104" d="M2564.14,2026.38c-4.98,4.75-9.47,10.19-12.08,16.57c-2.61,6.37-3.18,13.78-0.47,20.11
							c3.46,8.08,11.88,13.34,20.58,14.64c8.7,1.3,17.6-0.86,25.68-4.33c13.16-5.65,24.79-14.82,33.35-26.3
							c9.87-13.24,13.52-41.51-8.77-44.36C2602.12,2000.11,2578.29,2012.89,2564.14,2026.38z"/>
					</g>
					<g>
						<path class="st107" d="M2622.43,2002.71c-0.11-0.01-0.23-0.01-0.34-0.03c2.96,9.37,2.42,20.71-0.69,30.09
							c-7.73,23.33-28.94,41.76-51.86,44.39c0.87,0.21,1.75,0.41,2.63,0.55c8.7,1.3,17.6-0.86,25.68-4.33
							c13.16-5.65,24.79-14.82,33.35-26.3C2641.06,2033.83,2644.71,2005.55,2622.43,2002.71z"/>
					</g>
				</g>
				<g>
					<g>
						<path class="st104" d="M2819.79,2049.92c3.63,5.85,6.6,12.25,7.51,19.08s-0.4,14.14-4.62,19.58
							c-5.39,6.95-14.86,9.91-23.6,8.98c-8.74-0.93-16.81-5.27-23.76-10.66c-11.31-8.78-20.25-20.59-25.64-33.85
							c-6.21-15.3-2.62-43.58,19.66-40.72C2789.65,2014.93,2809.49,2033.3,2819.79,2049.92z"/>
					</g>
					<g>
						<path class="st107" d="M2769.34,2012.32c0.11,0.01,0.22,0.04,0.33,0.06c-5.23,8.32-7.56,19.43-6.91,29.29
							c1.6,24.52,17.48,47.71,39,56.02c-0.9-0.01-1.8-0.04-2.68-0.14c-8.74-0.93-16.81-5.27-23.76-10.66
							c-11.31-8.78-20.25-20.59-25.64-33.85C2743.46,2037.74,2747.06,2009.46,2769.34,2012.32z"/>
					</g>
				</g>
				<g>
					<g>
						<path class="st104" d="M2603.83,2162.36c-27.19,18.16-49.45,46.43-60.26,72.92c-7.19,17.61-11.46,36.61-10.63,55.61
							c3.2,73.86,89.89,100.19,151.57,95.4c0.86-0.07,1.71-0.14,2.57-0.22c33.46-3.08,69.67-17.34,87.73-47.24
							c19.33-32.02,13.08-70.27-2.2-102.55c-14.5-30.63-36.88-60.93-66.38-78.44c-21.84-12.96-47.34-17.16-71.89-9.98
							c-2.66,0.78-5.29,1.67-7.87,2.66C2618.5,2153.59,2610.92,2157.63,2603.83,2162.36z"/>
					</g>
					<g class="st108">
						<path class="st107" d="M2757.33,2209.01c-13.4-20.46-30.51-38.93-51.11-51.16c-3.33-1.97-6.75-3.72-10.23-5.28
							c16.14,13.15,28.52,30.52,34,48.83c13.16,46.19-17.74,88.87-60.56,108.81c-40.21,16.05-92.87,13.54-117.53-25.65
							c-6.52-9.48-11.35-19.93-14.54-30.87c-3.27,12.14-4.98,24.67-4.43,37.21c0.93,21.46,8.94,38.88,21.31,52.72
							c9.9,5.38,20.41,9.64,30.82,13.01c57.05,17.9,114.74-2.26,152.43-48.3C2760.75,2278.84,2766.11,2242.1,2757.33,2209.01z"/>
					</g>
					<g>
						<path class="st107" d="M2772.6,2236.29c-4.37-9.24-9.48-18.45-15.27-27.28c8.78,33.1,3.41,69.84-19.84,99.32
							c-37.69,46.04-95.38,66.2-152.43,48.3c-10.41-3.37-20.93-7.63-30.82-13.01c30.19,33.79,86.51,46.08,130.26,42.68
							c0.86-0.07,1.71-0.14,2.57-0.22c33.46-3.08,69.67-17.34,87.73-47.24C2794.13,2306.82,2787.88,2268.56,2772.6,2236.29z"/>
					</g>
					<g>
						<path class="st105" d="M2747.87,2278.73c-9.44,15.98-26.75,21.84-43.54,13.2c-15.57-8.01-24.93-25.08-41.02-31.96
							c-1.51-0.65-2.98-1.07-4.43-1.38c0.58-12.07,0.53-24.12,1.6-36.18c1.14-12.71,3.05-25.3,5.37-37.84
							c0.46-2.47-3.36-2.93-3.86-0.49c-2.63,12.82-4.43,25.81-5.55,38.85c-1,11.58-1.85,23.53-1.1,35.18
							c-10.82-0.49-20.15,7.12-30.44,11.23c-18.02,7.18-36.81-3.09-43.61-20.51c-0.36-0.92-1.95-0.53-1.71,0.48
							c2.86,12.11,11.82,21.61,23.91,24.92c13.77,3.77,24.49-2.02,36.42-8.09c7.01-3.57,14.25-5.76,21.86-2.49
							c7.49,3.22,13.44,9.56,19.25,15.08c10.47,9.94,22.39,20.61,37.57,21.53c13.89,0.84,26.06-7.8,32.68-19.54
							C2752.37,2278.77,2749.01,2276.8,2747.87,2278.73z"/>
					</g>
					<g>
						<g>
							<path class="st105" d="M2640.21,2161.49c-2.04,0.62-4.1,1.36-5.78,2.68c-1.68,1.32-2.95,3.32-2.9,5.46
								c0.04,1.8,0.99,3.45,2.08,4.88c4.7,6.2,12.2,9.72,19.77,11.52c13.3,3.16,27.68,1.58,39.99-4.39
								c2.72-1.32,5.47-2.98,6.88-5.65c5.32-10.07-17.77-14.92-24-16.16C2664.34,2157.43,2651.83,2157.93,2640.21,2161.49z"/>
						</g>
						<g class="st98">
							<path d="M2680.95,2160.84c-4.09,4.98-9.72,8.78-17.1,10.89c-10.16,2-20.91-1.24-28.49-8.18c-0.32,0.2-0.63,0.39-0.93,0.62
								c-0.69,0.54-1.3,1.2-1.79,1.93c18.41,13.93,44.2,14.55,58.69-2.02C2687.86,2162.65,2684.05,2161.59,2680.95,2160.84z"/>
						</g>
						<g class="st99">
							<path d="M2691.33,2164.07c-14.49,16.57-40.27,15.95-58.69,2.02c-0.71,1.06-1.14,2.27-1.11,3.53
								c0.02,0.73,0.21,1.43,0.48,2.11c10.54,7.87,24.96,11.1,38.85,11.49c12.07,0.33,21.51-5.91,27.84-14.82
								C2696.9,2166.69,2694.23,2165.26,2691.33,2164.07z"/>
						</g>
						<g class="st101">
							<path d="M2698.7,2168.4c-6.33,8.91-15.77,15.15-27.84,14.82c-13.89-0.39-28.31-3.62-38.85-11.49
								c0.39,0.99,0.96,1.92,1.6,2.77c4.7,6.2,12.2,9.72,19.77,11.52c13.3,3.16,27.68,1.58,39.99-4.39
								c2.72-1.32,5.47-2.98,6.88-5.65C2701.81,2173.01,2700.9,2170.5,2698.7,2168.4z"/>
						</g>
						<g class="st101">
							<path class="st0" d="M2654.73,2160.41c-3.29,0.39-6.6,1.04-9.56,2.53c-0.76,0.38-1.6,1.01-1.52,1.86
								c0.07,0.69,0.73,1.16,1.35,1.45c1.53,0.71,3.22,0.96,4.9,1.13c6.89,0.68,13.91,0.05,20.57-1.85
								c1.44-0.41,2.94-0.93,3.95-2.04c0.36-0.39,0.65-0.88,0.66-1.42c0.02-1.34-1.48-1.33-2.43-1.46c-1.45-0.21-2.9-0.37-4.36-0.48
								c-2.9-0.23-5.8-0.27-8.7-0.13C2657.96,2160.08,2656.34,2160.22,2654.73,2160.41z"/>
						</g>
					</g>
				</g>
				<g>
					<g>
						<path class="st109" d="M2594.09,2302.65c2.43,2.77,5.01,5.4,7.76,7.84c18.35,16.27,42.94,24.87,67.46,25.24
							c18.62,0.29,37.49-4.1,53.31-13.93c8.49-5.28,16.03-12.19,21.96-20.22C2701.16,2273,2638.79,2275.88,2594.09,2302.65z"/>
					</g>
					<g>
						<path class="st110" d="M2755.93,2278.57c-2.3,8.31-6.22,16.07-11.33,23.01c-43.43-28.58-105.79-25.69-150.49,1.06
							c-13.8-15.68-22.2-36.17-21.97-57.01c0.08-6.72,1.23-17.01,10.5-18.48c5.99-0.94,11.6,0.78,19.13,3.48
							c5.22,1.88,11.36,4.21,19.22,6.46c15.75,4.54,38.33,8.68,73.99,7.86c2.01-0.05,3.93-0.15,5.73-0.3
							c6.87-0.56,12.41-1.78,17.07-3.09c11.35-3.25,17.5-7.14,24.75-3.87c7.13,3.21,12.16,10.17,14.17,17.72
							C2758.7,2262.96,2757.98,2271.05,2755.93,2278.57z"/>
					</g>
					<g>
						<path class="st0" d="M2608.93,2257.24c2.21-1,6.22-8.23,9.72-15.32c-5.32-1.21-10.6-2.5-15.82-3.84
							C2604.4,2248.06,2606.6,2258.3,2608.93,2257.24z"/>
					</g>
					<g>
						<path class="st111" d="M2601.76,2230.64c0.31,2.33,0.67,4.88,1.08,7.45c5.22,1.33,10.5,2.63,15.82,3.84
							c0.81-1.64,1.6-3.28,2.32-4.82C2613.12,2234.85,2606.98,2232.52,2601.76,2230.64z"/>
					</g>
					<g>
						<path class="st111" d="M2717.77,2241.57c-4.66,1.3-10.2,2.52-17.07,3.09c0.48,1.26,0.99,2.56,1.51,3.86
							c4.82-0.65,9.6-1.55,14.34-2.71C2716.97,2244.37,2717.38,2242.95,2717.77,2241.57z"/>
					</g>
					<g>
						<path class="st0" d="M2702.21,2248.52c2.93,7.37,6.26,14.84,7.66,14.57c1.39-0.26,4.22-8.89,6.68-17.28
							C2711.82,2246.96,2707.03,2247.87,2702.21,2248.52z"/>
					</g>
					<g class="st101">
						<path d="M2755.93,2278.57c-2.3,8.31-6.22,16.07-11.33,23.01c-5.95,8.04-13.48,14.94-21.95,20.22
							c-4.36,2.71-8.94,4.99-13.68,6.88c3.13-1.41,6.17-3.03,9.1-4.85c8.08-5.03,15.27-11.62,20.92-19.28
							c4.88-6.62,8.61-14.01,10.8-21.93c1.97-7.18,2.66-14.88,0.73-22.05c-1.91-7.21-6.7-13.84-13.49-16.9
							c-6.93-3.13-12.79,0.6-23.6,3.69c-4.45,1.23-9.73,2.41-16.26,2.93c-1.72,0.16-3.56,0.24-5.48,0.3
							c-33.98,0.79-55.5-3.17-70.52-7.49c-7.48-2.14-13.33-4.37-18.31-6.17c-7.18-2.58-12.52-4.21-18.23-3.32
							c-8.82,1.42-9.91,11.21-10,17.63c-0.13,12.4,2.92,24.69,8.46,35.81c-7.1-12.65-11.09-26.95-10.94-41.42
							c0.08-6.72,1.23-17.01,10.5-18.48c5.99-0.94,11.6,0.78,19.13,3.48c5.22,1.88,11.36,4.21,19.22,6.46
							c15.75,4.54,38.33,8.68,73.99,7.86c2.01-0.05,3.93-0.15,5.73-0.3c6.87-0.56,12.41-1.78,17.07-3.09
							c11.35-3.25,17.5-7.14,24.75-3.87c7.13,3.21,12.16,10.17,14.17,17.72C2758.7,2262.96,2757.98,2271.05,2755.93,2278.57z"/>
					</g>
				</g>
				<g>
					<path class="st105" d="M2635.97,2131.97c1.4-11.79,1.04-42.53-15.41-43.46c-19.21-1.08-22.11,29.04-22.53,42.11
						c-0.16,4.83,7.19,5.95,7.59,0.97c0.76-9.28,1.12-33.75,13.84-33.39c5.39,0.15,5.28,2.9,6.52,7.53c0.79,2.95,1.4,5.93,1.86,8.95
						c0.91,5.93,1.02,11.85,1.33,17.82C2629.4,2136.87,2636.19,2135.63,2635.97,2131.97z"/>
				</g>
				<g>
					<path class="st105" d="M2732.36,2105.99c-7.18-1.84-13.07,4.6-17.17,9.55c-6.64,8.01-11.36,17.78-12.86,28.09
						c-0.55,3.75,5.45,5.56,6.6,1.77c1.57-5.14,3.15-10.24,5.64-15.02c1.43-2.74,8.06-14.94,11.93-15.36
						c4.29-0.47,7.3,4.02,7.58,7.47c0.28,3.36,0.24,6.73-0.11,10.08c-0.75,7.17-3.03,13.74-5.9,20.3c-2.03,4.65,4.94,7.42,7.18,3.01
						C2740.61,2145.39,2750.49,2110.63,2732.36,2105.99z"/>
				</g>
			</g>
		</g>
	</g>
</g>
</svg>
