<?xml version="1.0" encoding="utf-8"?>
<!-- Generator: Adobe Illustrator 24.1.2, SVG Export Plug-In . SVG Version: 6.00 Build 0)  -->
<svg version="1.1" xmlns="http://www.w3.org/2000/svg" xmlns:xlink="http://www.w3.org/1999/xlink" x="0px" y="0px"
	 viewBox="0 0 3710 3710" style="enable-background:new 0 0 3710 3710;" xml:space="preserve">
<style type="text/css">
	.st0{opacity:0.3;fill:url(#SVGID_1_);}
	.st1{opacity:0.82;}
	.st2{fill:url(#SVGID_2_);}
	.st3{opacity:0.6;fill:#FFFFFF;}
	.st4{opacity:0.83;}
	.st5{fill:url(#SVGID_3_);}
	.st6{fill:url(#SVGID_4_);}
	.st7{fill:url(#SVGID_5_);}
	.st8{fill:url(#SVGID_6_);}
	.st9{display:none;fill:url(#SVGID_7_);}
	.st10{fill:url(#SVGID_8_);}
	.st11{display:none;}
	.st12{display:inline;fill:url(#SVGID_9_);}
	.st13{display:inline;fill:url(#SVGID_10_);}
	.st14{display:inline;fill:url(#SVGID_11_);}
	.st15{display:inline;fill:url(#SVGID_12_);}
	.st16{display:inline;fill:url(#SVGID_13_);}
	.st17{display:inline;fill:url(#SVGID_14_);}
	.st18{display:inline;fill:url(#SVGID_15_);}
	.st19{display:inline;fill:url(#SVGID_16_);}
	.st20{display:inline;fill:url(#SVGID_17_);}
	.st21{display:inline;}
	.st22{fill:url(#SVGID_18_);}
	.st23{fill:url(#SVGID_19_);}
	.st24{fill:url(#SVGID_20_);}
	.st25{display:inline;fill:url(#SVGID_21_);}
	.st26{display:inline;fill:url(#SVGID_22_);}
	.st27{display:inline;fill:url(#SVGID_23_);}
	.st28{display:inline;fill:url(#SVGID_24_);}
	.st29{display:inline;fill:url(#SVGID_25_);}
	.st30{display:inline;fill:url(#SVGID_26_);}
	.st31{fill:url(#SVGID_27_);}
	.st32{fill:url(#SVGID_28_);}
	.st33{fill:url(#SVGID_29_);}
	.st34{fill:url(#SVGID_30_);}
	.st35{display:inline;fill:url(#SVGID_31_);}
	.st36{display:inline;fill:url(#SVGID_32_);}
	.st37{display:inline;fill:url(#SVGID_33_);}
	.st38{fill:url(#SVGID_34_);}
	.st39{fill:url(#SVGID_35_);}
	.st40{fill:url(#SVGID_36_);}
	.st41{fill:#FFFFFF;}
	.st42{fill:url(#SVGID_37_);}
	.st43{fill:url(#SVGID_38_);}
	.st44{fill:url(#SVGID_39_);}
	.st45{fill:#D44613;}
	.st46{opacity:0.15;}
	.st47{fill:#77160C;}
	.st48{opacity:0.3;}
	.st49{opacity:0.1;}
	.st50{opacity:0.2;}
	.st51{fill:#630E0A;}
	.st52{fill:#C1380E;}
	.st53{fill:#FCE0D9;}
	.st54{fill:#4D0F05;}
	.st55{fill:#BF340A;}
	.st56{fill:#EFC3BD;}
	.st57{opacity:0.5;}
	.st58{fill:#ECECEC;}
</style>
<g id="Illustration">
	<g>
		<linearGradient id="SVGID_1_" gradientUnits="userSpaceOnUse" x1="3591.4817" y1="4046.6946" x2="1145.5259" y2="1008.9711">
			<stop  offset="0" style="stop-color:#B37CFF"/>
			<stop  offset="1" style="stop-color:#F895E7"/>
		</linearGradient>
		<path class="st0" d="M2920.84,2847.17c-56.31,59.06-109.58,97.15-151.68,127.24c-494.79,353.73-1080.26,250.62-1204.69,225.44
			c-183.74-37.18-538.91-109.06-795.69-409.93c-388.49-455.2-328-1172.35-26.66-1645.75c55.12-86.59,346.28-567.2,938.05-644.28
			c358.14-46.64,775.61,47.43,1077.93,299.8C3392.7,1329.43,3347.53,2399.59,2920.84,2847.17z"/>
		<g class="st1">
			
				<linearGradient id="SVGID_2_" gradientUnits="userSpaceOnUse" x1="4348.9375" y1="2644.1206" x2="5731.9019" y2="1007.4759" gradientTransform="matrix(-0.9583 -0.2857 -0.2857 0.9583 6491.1851 1518.887)">
				<stop  offset="0" style="stop-color:#53D8FF"/>
				<stop  offset="1" style="stop-color:#3840F7"/>
			</linearGradient>
			<path class="st2" d="M1531.66,2772.65c0,0,98.54-302.88-79.44-706.7C1287.08,1691.28,866.98,811.17,843.5,397.07
				c-1.04-18.34-24.97-21.41-31.22-3.95c-67.02,187.23-200.37,668.65-58.84,1243.22C935.94,2377.26,1531.66,2772.65,1531.66,2772.65
				z"/>
			<path class="st3" d="M829.37,769.31c-9.37,42.97-13.66,86.83-15.61,130.56c-0.27,5.47-0.65,10.95-0.84,16.42l-0.26,16.41
				l-0.5,32.84l0.8,32.78c0.36,10.92,0.29,21.9,1.3,32.75c5.24,87.15,17.24,173.71,36.45,258.21c3.97,21.38,10.1,42.09,15.45,63.05
				c5.68,20.84,10.45,42.03,17.36,62.43l19.39,61.71c3.01,10.38,7.07,20.32,10.74,30.42l11.24,30.21l11.24,30.21l5.66,15.08
				l6.33,14.76l25.31,59.06c4.29,9.8,8.28,19.79,12.82,29.43l13.57,28.93l27.15,57.85c36.85,76.77,74.23,153.25,113.41,228.64
				c19.31,37.86,39.21,75.36,58.92,112.97l60.26,112.08c40.24,74.64,80.58,149.18,118.47,225.04c9.73,18.83,18.53,38.14,27.66,57.29
				c4.68,9.52,8.71,19.35,12.97,29.08c4.16,9.77,8.58,19.43,12.53,29.31c7.48,19.92,15.68,39.57,21.8,60.05
				c7.21,20.1,11.92,41.02,17.27,61.79l0.04,0.14c0.35,1.36,1.7,2.12,3,1.7c1.25-0.4,2.02-1.76,1.77-3.07
				c-8.24-42.67-20.84-84.1-35.87-124.34c-3.74-10.07-7.95-19.9-11.9-29.87c-4.05-9.92-7.89-19.95-12.36-29.64
				c-8.71-19.5-17.11-39.2-26.41-58.36c-36.41-77.14-76.19-152.17-115.26-227.53l-58.66-112.97
				c-19.44-37.71-39.09-75.29-58.13-113.22c-38.48-75.63-75.81-151.91-112.55-228.52l-27.05-57.74l-13.52-28.87
				c-4.52-9.62-8.54-19.43-12.84-29.13l-25.4-58.38l-6.35-14.6l-5.69-14.91l-11.29-29.86c-31.11-79.21-55.72-161.3-76.21-244.55
				c-20.83-83.21-34.54-168.66-41.59-254.96c-1.23-10.75-1.35-21.62-2.13-32.43l-1.88-32.48l-0.59-32.58l-0.29-16.3
				c0.01-5.44,0.2-10.88,0.29-16.32c0.31-10.88,0.29-21.77,0.86-32.66l1.95-32.66c1.95-21.73,3.73-43.56,7.77-65.09
				c0.04-0.17-0.06-0.34-0.22-0.38C829.58,769.02,829.42,769.14,829.37,769.31z"/>
		</g>
		<g class="st4">
			
				<linearGradient id="SVGID_3_" gradientUnits="userSpaceOnUse" x1="5963.8545" y1="788.4802" x2="4676.3057" y2="2232.4612" gradientTransform="matrix(-0.9711 -0.2385 -0.2385 0.9711 6816.3081 957.1533)">
				<stop  offset="0" style="stop-color:#53D8FF"/>
				<stop  offset="1" style="stop-color:#3840F7"/>
			</linearGradient>
			<path class="st5" d="M1241.43,196.36c6.19-13.47,25.12-9.8,25.51,4.96c3.75,142.71,24.68,516.21,139.92,738.41
				c187.63,361.78,244.3,892.11,18.69,1108.04C1425.55,2047.76,567.4,1664.11,1241.43,196.36z"/>
			<path class="st3" d="M1222.03,394.3c-0.65,4.26-0.89,8.08-1.3,12.06l-0.97,11.85l-1.7,23.69c-1.05,15.79-1.93,31.59-2.78,47.39
				c-1.61,31.6-2.84,63.2-3.8,94.8c-1.84,63.21-2.13,126.41-1.48,189.56c0.59,63.16,2.73,126.25,6.09,189.23l1.22,23.62l1.52,23.59
				c1.08,15.72,1.88,31.47,3.2,47.17l3.67,47.11l4.34,47.03c12.21,125.31,30.62,249.85,57.38,372.21c0.84,3.82,1.61,7.66,2.49,11.47
				l2.74,11.4l5.48,22.81l5.48,22.8c1.92,7.57,4.03,15.09,6.03,22.63l6.08,22.62c2.09,7.52,3.91,15.12,6.26,22.55l13.47,44.77
				c19.03,59.29,40.55,117.63,65.86,174.04c0.34,0.75,1.19,1.05,1.91,0.67c0.71-0.37,1.02-1.27,0.71-2.01l-0.01-0.02
				c-23.96-56.95-44.74-115.37-62.81-174.81l-13.01-44.78c-2.27-7.43-4.02-15.04-6.03-22.55l-5.85-22.61
				c-1.93-7.54-3.96-15.05-5.79-22.63l-5.25-22.8l-5.25-22.79l-2.62-11.4c-0.85-3.81-1.58-7.64-2.38-11.47l-9.46-45.88
				c-3.06-15.31-5.72-30.73-8.6-46.09c-1.39-7.69-2.88-15.36-4.19-23.07l-3.76-23.17l-3.77-23.17c-1.28-7.72-2.51-15.45-3.57-23.21
				c-9.39-61.94-16.44-124.32-22.91-186.77c-12.47-125-18.86-250.85-21.47-376.88c-1.21-63.03-1.25-126.12-0.16-189.24
				c0.51-31.56,1.29-63.12,2.45-94.69c0.62-15.78,1.28-31.56,2.1-47.34l1.36-23.66l0.8-11.82c0.33-3.89,0.59-7.97,1.05-11.56
				l0.04-0.33c0.11-0.83-0.44-1.57-1.22-1.66C1222.86,392.9,1222.15,393.49,1222.03,394.3z"/>
		</g>
		<linearGradient id="SVGID_4_" gradientUnits="userSpaceOnUse" x1="2983.0735" y1="696.8732" x2="1956.6134" y2="3576.2952">
			<stop  offset="0" style="stop-color:#53D8FF"/>
			<stop  offset="1" style="stop-color:#3840F7"/>
		</linearGradient>
		<path class="st6" d="M2855.15,2092.95c24.32,38.95,49.8,94.58,43.62,150.22c-11.29,101.58-167.09,146.73-303.63,90.29
			c-97.34-40.23-55.9-172.22-24.08-244.71c10.08-22.97-6.59-48.74-31.68-48.74H2187.7v-396.13c0-34.59,36.61-56.83,67.27-40.83
			c36.74,19.18,85.05,39.53,135.89,47.56c107.22,16.93,214.45-101.58,203.16-214.45c-11.29-112.86-118.51-197.52-231.38-191.87
			c-39.04,1.95-71.52,18.27-97.32,38.8c-29.7,23.62-73.65,1.14-73.65-36.82V900.05c0,0,649.77,0,668.45,0h304.4
			c30.95,0,56.11,24.95,56.34,55.9c1.28,168.59,4.98,662.09,4.82,687.99l-2.44,396.07h-338.99
			C2857.06,2040.01,2840.75,2069.89,2855.15,2092.95z"/>
		<linearGradient id="SVGID_5_" gradientUnits="userSpaceOnUse" x1="1787.9419" y1="3424.3708" x2="3695.5908" y2="1643.1986">
			<stop  offset="0" style="stop-color:#A737D5"/>
			<stop  offset="1" style="stop-color:#EF497A"/>
		</linearGradient>
		<path class="st7" d="M2495.66,3123.54H2187.7v-331.89c0-33.22-33.9-55.34-64.5-42.43c-33.44,14.11-78.88,27.55-133.91,30.07
			c-123.27,5.64-217.11-95.94-198.4-237.02c18.7-141.09,138.7-174.95,197.21-158.02c30.55,8.84,83.6,42.73,127.33,73.11
			c30.53,21.21,72.27-0.67,72.27-37.84v-379.51h351.67c25.09,0,41.76,25.77,31.68,48.74c-31.82,72.49-73.26,204.48,24.08,244.71
			c136.55,56.44,292.35,11.29,303.63-90.29c6.18-55.64-19.3-111.27-43.62-150.22c-14.39-23.06,1.92-52.94,29.1-52.94h338.99
			c0,0,8.09,687.39,7.84,728.7l-1.77,295.31c-0.2,32.93-26.95,59.52-59.88,59.52h-240.59
			C2889.5,3123.54,2533.12,3123.54,2495.66,3123.54z"/>
		<linearGradient id="SVGID_6_" gradientUnits="userSpaceOnUse" x1="2251.6262" y1="1908.2273" x2="491.799" y2="3988.02">
			<stop  offset="0" style="stop-color:#FDF53F"/>
			<stop  offset="1" style="stop-color:#D93C65"/>
		</linearGradient>
		<path class="st8" d="M1514.03,3125.29h-258.18c-40.7,0-73.69-32.99-73.69-73.69v-244.18c0-36,0.71-370.33,0.71-406.94v-368.92
			h340.62c28.07,0,44.54-31.92,27.94-54.56c-79.72-108.74-10.16-263.49,49.36-289.68c70.54-31.04,214.45-39.51,256.78,118.51
			c22.04,82.3,1.82,142.4-22.63,181.1c-14.56,23.05,1.55,53.1,28.82,53.1l323.94,0v379.51c0,37.17-41.74,59.05-72.27,37.84
			c-43.73-30.38-96.78-64.27-127.33-73.11c-58.51-16.93-178.51,16.93-197.21,158.02c-18.7,141.08,75.14,242.66,198.4,237.02
			c55.03-2.52,100.46-15.96,133.91-30.07c30.6-12.91,64.5,9.21,64.5,42.43v331.89h-301.89
			C1847.09,3123.54,1554.47,3125.29,1514.03,3125.29z"/>
		<g>
			
				<linearGradient id="SVGID_7_" gradientUnits="userSpaceOnUse" x1="-635.7288" y1="647.5363" x2="-400.657" y2="1182.3776" gradientTransform="matrix(-0.92 -0.392 -0.392 0.92 1017.703 669.7761)">
				<stop  offset="0" style="stop-color:#FEBBBA"/>
				<stop  offset="1" style="stop-color:#FF928E"/>
			</linearGradient>
			<path class="st9" d="M1514.37,1402.72c0,0-242.68,258.21-474.73,272.35c0,0,19.4,131.02,49.95,151.47
				c0,0,315.8-174.47,427.94-379.87L1514.37,1402.72z"/>
			<linearGradient id="SVGID_8_" gradientUnits="userSpaceOnUse" x1="1216.1855" y1="2043.3357" x2="2833.4441" y2="-264.094">
				<stop  offset="0" style="stop-color:#CB236D"/>
				<stop  offset="1" style="stop-color:#4C246D"/>
			</linearGradient>
			<path class="st10" d="M1854.78,1763.1c21.97-34.78,40.14-88.79,20.33-162.75c-38.04-142-167.36-134.39-230.75-106.5
				c-53.49,23.53-116,162.61-44.36,260.32c14.92,20.35,0.12,49.03-25.11,49.03h-306.09l-9.51-989.34
				c-0.19-19.67,15.8-35.67,35.48-35.49l842.2,7.68c21.26,0.19,38.4,17.49,38.4,38.75v272.73c0,34.45,39.75,53.94,66.8,32.6
				c23.08-18.21,52.07-32.64,86.84-34.38c101.43-5.07,197.78,71,207.93,172.42c10.14,101.43-86.21,207.93-182.57,192.71
				c-45.69-7.21-89.1-25.5-122.12-42.74c-27.55-14.39-60.45,5.61-60.45,36.69v355.97l-291.11,0
				C1856.17,1810.82,1841.69,1783.82,1854.78,1763.1z"/>
			<g class="st11">
				
					<linearGradient id="SVGID_9_" gradientUnits="userSpaceOnUse" x1="-389.3895" y1="1219.7792" x2="-262.1453" y2="1538.9685" gradientTransform="matrix(-1 0 0 1 620.9663 0)">
					<stop  offset="0" style="stop-color:#2B3582"/>
					<stop  offset="1" style="stop-color:#150E42"/>
				</linearGradient>
				<path class="st12" d="M934.91,1391.48c0,0-42.9,20.87-50.78,44.83c-6.33,19.23-53.76,21.71-58.45,59.54
					c-2.42,19.53-16.87,35.17-36.32,38.15c-48.44,7.43-123.1,32.58-135.05,116.69c-9.12,64.2,23.61,88.55,57.96,96.97
					c25.23,6.19,41.99,30.73,36.89,56.2c-4.89,24.43,2.4,52.67,44.73,75c94.84,50.04,189.55-118.56,189.55-118.56l19.41-294.39
					L934.91,1391.48z"/>
				
					<linearGradient id="SVGID_10_" gradientUnits="userSpaceOnUse" x1="75.7612" y1="3263.2634" x2="183.6593" y2="3263.2634" gradientTransform="matrix(-1 0 0 1 620.9663 0)">
					<stop  offset="0" style="stop-color:#A737D5"/>
					<stop  offset="1" style="stop-color:#EF497A"/>
				</linearGradient>
				<path class="st13" d="M545.08,3237.39l-6.14,50.45c-1.16,9.57-8.7,17.14-18.28,18.23c-16.17,1.85-42.13,3.74-67.52,1.06
					c-11.15-1.18-18.38-12.47-14.99-23.15c6.19-19.48,17.52-48.71,33.85-65.92h55.97C538.31,3218.06,546.33,3227.11,545.08,3237.39z
					"/>
				
					<linearGradient id="SVGID_11_" gradientUnits="userSpaceOnUse" x1="-380.1649" y1="3688.7551" x2="-224.8915" y2="1873.9965" gradientTransform="matrix(-1 0 0 1 620.9663 0)">
					<stop  offset="0" style="stop-color:#FEBBBA"/>
					<stop  offset="1" style="stop-color:#FF928E"/>
				</linearGradient>
				<path class="st14" d="M983.43,2646.37l9.45,55.57c0,0-31.63,320.43-37.26,448.6c-0.88,20.09,4.32,39.95,14.86,57.08l55.01,89.33
					l-139.8-82.49l-2.78-17.06l22.89-31.47l-29.98-358.96c-1.76-21.09,2.59-42.24,12.53-60.91l28.92-54.32L983.43,2646.37z"/>
				
					<linearGradient id="SVGID_12_" gradientUnits="userSpaceOnUse" x1="-425.5249" y1="3243.5642" x2="-250.9373" y2="3243.5642" gradientTransform="matrix(-1 0 0 1 620.9663 0)">
					<stop  offset="0" style="stop-color:#A737D5"/>
					<stop  offset="1" style="stop-color:#EF497A"/>
				</linearGradient>
				<path class="st15" d="M1034.69,3309.88h-44.61c-8.35,0-16.23-3.83-21.32-10.45c-13.91-18.07-42.72-53.33-56.5-54.25
					c-18.55-1.24-16.18,64.7-16.18,64.7h-10.4l-13.17-81.94c-3.31-20.62,6.94-41.04,25.45-50.7l0,0c0,0,4.24,31.36,27.23,45.23
					c22.99,13.87,93.55,63.54,93.55,63.54s8.64-1.23,18.13,0.48C1050.96,3289.04,1049,3309.88,1034.69,3309.88z"/>
				
					<linearGradient id="SVGID_13_" gradientUnits="userSpaceOnUse" x1="-67.8227" y1="3715.7585" x2="87.4917" y2="1900.5205" gradientTransform="matrix(-1 0 0 1 620.9663 0)">
					<stop  offset="0" style="stop-color:#FEBBBA"/>
					<stop  offset="1" style="stop-color:#FF928E"/>
				</linearGradient>
				<path class="st16" d="M791.96,2672.76c0,0-185.32,351.54-214.78,431.8c-29.46,80.26-39.78,147.22-40.17,153.56
					c-0.62,9.91-12.94,19.41-46.91,19.41c-17.53,0-26.12-7.03-30.32-13.83c-3.59-5.8-3.77-13.06-0.75-19.18
					c10.72-21.69,44.74-91.03,57.34-122.47c15.04-37.54,47.4-207.69,65.15-266.85c17.75-59.16,37.81-123.33,115.09-182.44
					C696.6,2672.76,749.65,2620.8,791.96,2672.76z"/>
				<linearGradient id="SVGID_14_" gradientUnits="userSpaceOnUse" x1="1093.212" y1="1824.5979" x2="1953.7909" y2="1065.7247">
					<stop  offset="0" style="stop-color:#FDF53F"/>
					<stop  offset="1" style="stop-color:#D93C65"/>
				</linearGradient>
				<path class="st17" d="M909.03,2096.75c47.8-202.57-73.3-317.14-73.3-317.14c76.41-73.35,215.64-106.73,215.64-106.73
					s132.85,97.13,117.09,173.15c-9.24,44.56-93.38,266.89-93.38,266.89S997.27,2149.74,909.03,2096.75z"/>
				
					<linearGradient id="SVGID_15_" gradientUnits="userSpaceOnUse" x1="-498.6488" y1="1679.7139" x2="37.1742" y2="3540.2102" gradientTransform="matrix(-1 0 0 1 620.9663 0)">
					<stop  offset="0" style="stop-color:#2B3582"/>
					<stop  offset="1" style="stop-color:#150E42"/>
				</linearGradient>
				<path class="st18" d="M803.04,2197.03c19.45-58.61,105.99-100.29,105.99-100.29c88.24,53,166.05,16.17,166.05,16.17
					s17.45,66.7,5.41,128.68c-12.04,61.98-87.6,460.33-87.6,460.33c-119.06,24.12-302.17-24.27-302.17-24.27
					C766.55,2543.03,783.58,2255.64,803.04,2197.03z"/>
				
					<linearGradient id="SVGID_16_" gradientUnits="userSpaceOnUse" x1="-397.1932" y1="1899.9462" x2="-368.0255" y2="1686.5631" gradientTransform="matrix(-1 0 0 1 620.9663 0)">
					<stop  offset="0" style="stop-color:#FEBBBA"/>
					<stop  offset="1" style="stop-color:#FF928E"/>
				</linearGradient>
				<path class="st19" d="M964.52,1539.02l-38.87,174.58c-3.72,15.38,10.3,12.86,25.84,9.93c25.46-4.8,58.28-14.69,69.25-34.5
					c1.12-2.02,1.67-4.3,1.99-6.58l16.7-121.06c1.32-9.6-3.87-18.93-12.73-22.86l-32.22-14.29
					C982.07,1518.75,967.71,1525.83,964.52,1539.02z"/>
				
					<linearGradient id="SVGID_17_" gradientUnits="userSpaceOnUse" x1="6812.0518" y1="4806.3394" x2="7181.5894" y2="4806.3394" gradientTransform="matrix(0.447 0.8946 0.8946 -0.447 -6266.7466 -2292.5178)">
					<stop  offset="0" style="stop-color:#FEBBBA"/>
					<stop  offset="1" style="stop-color:#FF928E"/>
				</linearGradient>
				<path class="st20" d="M814.24,1833.53c0,0,355.52,434.11,621.13-60.18c0,0,5.1-12.63,1.91-30.88
					c-1.61-9.21,4.48-41.88,7.83-58.57c1.08-5.37-2.74-10.44-8.19-10.96l0,0c-4.27-0.41-8.45,1.38-11.1,4.75l-48.52,61.78
					c-3.62,12.23,2.21,25.28,13.74,30.75l0,0c7.35,3.49,9.67,12.83,4.74,19.3c-202,264.79-539.86-25.77-546.04-22.36
					C827.8,1779.27,802.46,1792.65,814.24,1833.53z"/>
				<g class="st21">
					
						<linearGradient id="SVGID_18_" gradientUnits="userSpaceOnUse" x1="-470.8134" y1="1624.8303" x2="-216.324" y2="1171.9249" gradientTransform="matrix(-1 0 0 1 620.9663 0)">
						<stop  offset="0" style="stop-color:#FEBBBA"/>
						<stop  offset="1" style="stop-color:#FF928E"/>
					</linearGradient>
					<path class="st22" d="M1010.12,1372.79c0,0,46.03,19.44,77.33,85.95c31.3,66.52,7.93,97.23-21.43,101.44
						c-29.36,4.22-73.26,3.57-119.71-39.39C899.87,1477.83,950.28,1349.75,1010.12,1372.79z"/>
					
						<linearGradient id="SVGID_19_" gradientUnits="userSpaceOnUse" x1="-416.0856" y1="1230.4205" x2="-288.8412" y2="1549.6102" gradientTransform="matrix(-1 0 0 1 620.9663 0)">
						<stop  offset="0" style="stop-color:#2B3582"/>
						<stop  offset="1" style="stop-color:#150E42"/>
					</linearGradient>
					<path class="st23" d="M977.53,1485.28c0,0-34.73-97.32,51.55-98.47l20.3,14.19c0,0,31.66-53.96-20.3-79.71
						c-51.96-25.76-112.77-4.48-134.88,65.52c-22.11,70-25.89,116.86,10.9,150.35c36.79,33.49,51.95-4.48,51.95-4.48
						s-20.03-31.33-11.88-48.09c8.16-16.76,26.97,3.47,26.97,3.47L977.53,1485.28z"/>
					
						<linearGradient id="SVGID_20_" gradientUnits="userSpaceOnUse" x1="-416.6427" y1="1655.2701" x2="-162.1531" y2="1202.364" gradientTransform="matrix(-1 0 0 1 620.9663 0)">
						<stop  offset="0" style="stop-color:#FEBBBA"/>
						<stop  offset="1" style="stop-color:#FF928E"/>
					</linearGradient>
					<path class="st24" d="M967.85,1496.12c0,0-17.56-50.13-40.98-30.17c-23.42,19.96,19.04,46.31,35.66,54.84L967.85,1496.12z"/>
				</g>
			</g>
		</g>
		<g class="st11">
			
				<linearGradient id="SVGID_21_" gradientUnits="userSpaceOnUse" x1="10017.1475" y1="3025.4197" x2="9321.3701" y2="3782.2307" gradientTransform="matrix(-1 9.500000e-03 9.500000e-03 1 12543.6113 -63.4747)">
				<stop  offset="0" style="stop-color:#2B3582"/>
				<stop  offset="1" style="stop-color:#150E42"/>
			</linearGradient>
			<path class="st25" d="M2775.68,3111.39c0,0,7.59,40.73,11.51,81.07c1.53,15.77-10.5,29.59-26.33,30.4
				c-53.75,2.75-168.74,8.21-210.04,6.76c-6.21-0.22-10.33-6.53-8.08-12.32c1.88-4.85,5.55-8.8,10.26-11.02l189.17-89.14
				L2775.68,3111.39z"/>
			
				<linearGradient id="SVGID_22_" gradientUnits="userSpaceOnUse" x1="9791.3076" y1="3081.6218" x2="9853.1113" y2="3081.6218" gradientTransform="matrix(-1 9.500000e-03 9.500000e-03 1 12543.6113 -63.4747)">
				<stop  offset="0" style="stop-color:#F9B776"/>
				<stop  offset="1" style="stop-color:#F47960"/>
			</linearGradient>
			<path class="st26" d="M2781.35,3087.36l-5.32,48.85c0,0-33.14,15.81-56.03-1.42l13.27-54.51L2781.35,3087.36z"/>
			
				<linearGradient id="SVGID_23_" gradientUnits="userSpaceOnUse" x1="10071.9707" y1="2169.4893" x2="9479.8896" y2="2971.978" gradientTransform="matrix(-1 9.500000e-03 9.500000e-03 1 12543.6113 -63.4747)">
				<stop  offset="0" style="stop-color:#2B3582"/>
				<stop  offset="1" style="stop-color:#150E42"/>
			</linearGradient>
			<path class="st27" d="M2768.25,2170.04c2.62,12.72,19.49,635.75-44.46,915.64c-1.04,4.57,1.31,9.24,5.66,10.97
				c10.26,4.08,30.34,9.93,54.35,10.51c7.44,0.18,14.05-4.72,16.08-11.87c18.42-64.97,106.56-390.46,115.5-700.67
				c9.99-346.63-0.11-11.8-0.11-11.8l-9.84-214.11L2768.25,2170.04z"/>
			
				<linearGradient id="SVGID_24_" gradientUnits="userSpaceOnUse" x1="9861.0605" y1="2881.896" x2="9165.2539" y2="3638.739" gradientTransform="matrix(-1 9.500000e-03 9.500000e-03 1 12543.6113 -63.4747)">
				<stop  offset="0" style="stop-color:#2B3582"/>
				<stop  offset="1" style="stop-color:#150E42"/>
			</linearGradient>
			<path class="st28" d="M2994.45,3130.58c0,0,11.67,20.48,23.29,75.1c2.1,9.86-4.72,19.39-14.74,20.47
				c-17.74,1.92-45.05,4.42-66.95,4.48c-10.09,0.03-18.06-8.69-16.94-18.72c2.23-20,9.48-52.84,32.58-78.61L2994.45,3130.58z"/>
			
				<linearGradient id="SVGID_25_" gradientUnits="userSpaceOnUse" x1="9568.5654" y1="3078.4436" x2="9621.9248" y2="3078.4436" gradientTransform="matrix(-1 9.500000e-03 9.500000e-03 1 12543.6113 -63.4747)">
				<stop  offset="0" style="stop-color:#F9B776"/>
				<stop  offset="1" style="stop-color:#F47960"/>
			</linearGradient>
			<path class="st29" d="M3003.93,3067.73l-12.82,73.92c0,0-13.28,10.08-39.81,3.12l5.7-79.46L3003.93,3067.73z"/>
			
				<linearGradient id="SVGID_26_" gradientUnits="userSpaceOnUse" x1="9966.4453" y1="2091.6345" x2="9374.3721" y2="2894.1138" gradientTransform="matrix(-1 9.500000e-03 9.500000e-03 1 12543.6113 -63.4747)">
				<stop  offset="0" style="stop-color:#2B3582"/>
				<stop  offset="1" style="stop-color:#150E42"/>
			</linearGradient>
			<path class="st30" d="M3032.07,2186.65c57.61,328.25-4.06,812.7-25.52,907.61c-1.31,5.81-5.95,10.3-11.82,11.33
				c-9.96,1.75-26.38,3.26-42.63-1.29c-5.6-1.57-9.57-6.56-9.85-12.37c-3.73-76.53-2.81-546.57-55.35-731.83
				c-2.66-9.39-8.49-17.54-16.5-23.12l-99.19-69.1l-8.63-113.14L3032.07,2186.65z"/>
			<g class="st21">
				<linearGradient id="SVGID_27_" gradientUnits="userSpaceOnUse" x1="2705.9541" y1="1951.1624" x2="3140.4231" y2="1501.0366">
					<stop  offset="0" style="stop-color:#CB236D"/>
					<stop  offset="1" style="stop-color:#4C246D"/>
				</linearGradient>
				<path class="st31" d="M2679,1567c163.23-4.25,343.8,39.59,343.8,39.59c51.37,283.49,14.34,611.39,14.34,611.39
					c-126.07,34.35-269.16-17.7-269.16-17.7c-22.14-118.48-123.34-451.57-123.34-451.57c-79.86-9.14-145.79-31.53-200.2-61.44
					c40.82-48.24,59.7-109.31,67.81-145.38C2570.15,1559.29,2628.65,1568.31,2679,1567z"/>
				
					<linearGradient id="SVGID_28_" gradientUnits="userSpaceOnUse" x1="10045.6973" y1="1469.2269" x2="10361.4551" y2="1469.2269" gradientTransform="matrix(-1 9.500000e-03 9.500000e-03 1 12543.6113 -63.4747)">
					<stop  offset="0" style="stop-color:#F9B776"/>
					<stop  offset="1" style="stop-color:#F47960"/>
				</linearGradient>
				<path class="st32" d="M2194.47,1331.13c15.85-19.52,36.24-10.55,36.24-10.55c24.99,101.25,151.75,182.34,281.55,221.32
					c-8.11,36.07-26.99,97.14-67.81,145.38C2228.52,1568.56,2194.47,1331.13,2194.47,1331.13z"/>
			</g>
			<g class="st21">
				
					<linearGradient id="SVGID_29_" gradientUnits="userSpaceOnUse" x1="155.6161" y1="1415.3738" x2="367.4921" y2="1897.4396" gradientTransform="matrix(1 -9.500000e-03 9.500000e-03 1 2096.8855 36.7017)">
					<stop  offset="0" style="stop-color:#F9B776"/>
					<stop  offset="1" style="stop-color:#F47960"/>
				</linearGradient>
				<path class="st33" d="M2198.41,1336.02c-1.63,5.35,17.88,13.29,29.12-8.64c0.3-10.46,6.23-55.32-0.1-63.78
					c-33.71-45.05-98.78-101.31-98.78-101.31c-10.8,10.86-1.72,21.35-1.72,21.35l31.61,32.31c-6.43,11.89-14.32,21.96-17.93,36.3
					c-2.73,10.86-0.89,22.43,4.68,32.24c5.59,9.85,13.21,22.64,20.39,32.64C2179.28,1336.06,2198.41,1336.02,2198.41,1336.02z"/>
				
					<linearGradient id="SVGID_30_" gradientUnits="userSpaceOnUse" x1="10359.9414" y1="1255.7611" x2="10448.3496" y2="1119.8331" gradientTransform="matrix(-1 9.500000e-03 9.500000e-03 1 12543.6113 -63.4747)">
					<stop  offset="0" style="stop-color:#F9B776"/>
					<stop  offset="1" style="stop-color:#F47960"/>
				</linearGradient>
				<path class="st34" d="M2172.44,1236.97l28.75,23.91l9.18,23.99l-25.16,28.45c0,0-9.01-47.69-15.46-57.96
					C2163.3,1245.08,2166.55,1240.05,2172.44,1236.97z"/>
			</g>
			<linearGradient id="SVGID_31_" gradientUnits="userSpaceOnUse" x1="2802.6338" y1="2044.4794" x2="3237.105" y2="1594.3514">
				<stop  offset="0" style="stop-color:#CB236D"/>
				<stop  offset="1" style="stop-color:#4C246D"/>
			</linearGradient>
			<path class="st35" d="M2961.69,1765.27l61.11-158.68c0,0,153.48,102.16,179.81,233.29c-28.79,2.4-81.15,10.39-132.23,36.79
				C3058.52,1814.75,2961.69,1765.27,2961.69,1765.27z"/>
			
				<linearGradient id="SVGID_32_" gradientUnits="userSpaceOnUse" x1="9354.7578" y1="1916.4462" x2="9754.3389" y2="1916.4462" gradientTransform="matrix(-1 9.500000e-03 9.500000e-03 1 12543.6113 -63.4747)">
				<stop  offset="0" style="stop-color:#F9B776"/>
				<stop  offset="1" style="stop-color:#F47960"/>
			</linearGradient>
			<path class="st36" d="M2829.85,1915.29c0,0,172.13,95.13,229.11,11.95c11.83-17.27,14.54-34.35,11.43-50.57
				c51.07-26.4,103.43-34.4,132.23-36.79c7.94,39.53,4.34,81.69-18.52,124.48c-99.43,186.07-376.5-6.64-376.5-6.64L2829.85,1915.29z
				"/>
			
				<linearGradient id="SVGID_33_" gradientUnits="userSpaceOnUse" x1="9661.5947" y1="1489.2775" x2="9819.582" y2="1489.2775" gradientTransform="matrix(-1 9.500000e-03 9.500000e-03 1 12543.6113 -63.4747)">
				<stop  offset="0" style="stop-color:#F9B776"/>
				<stop  offset="1" style="stop-color:#F47960"/>
			</linearGradient>
			<path class="st37" d="M2843.1,1432.88l53.38,149.73c0.88,2.48-0.11,5.25-2.4,6.54c-14.09,7.96-64.88,31.08-126.74-7.31
				c-6.44-4-10.87-10.58-11.91-18.09l-18.06-129.86L2843.1,1432.88z"/>
			<g class="st21">
				<g>
					
						<linearGradient id="SVGID_34_" gradientUnits="userSpaceOnUse" x1="9574.9893" y1="1687.9467" x2="9795.4775" y2="2606.6501" gradientTransform="matrix(-1 0 0 1 12275.3223 0)">
						<stop  offset="0" style="stop-color:#2B3582"/>
						<stop  offset="1" style="stop-color:#150E42"/>
					</linearGradient>
					<path class="st38" d="M2865.03,2065.63l-93.77-327.46c-1.06-3.72-4.24-6.43-8.08-6.88c-16.99-1.98-66.22-7.55-123.06-12.35
						c-68.46-5.79-147.97-10.48-195.48-6.49c-6.75,0.57-10.84,7.71-7.83,13.79c27.02,54.66,138.15,277,193.8,349.84
						c1.84,2.41,4.7,3.82,7.73,3.8l217.56-2.02C2862.24,2077.78,2866.77,2071.71,2865.03,2065.63z"/>
					
						<linearGradient id="SVGID_35_" gradientUnits="userSpaceOnUse" x1="9423.9043" y1="1930.9923" x2="9548.8281" y2="1930.9923" gradientTransform="matrix(-1 0 0 1 12275.3223 0)">
						<stop  offset="0" style="stop-color:#F9B776"/>
						<stop  offset="1" style="stop-color:#F47960"/>
					</linearGradient>
					<path class="st39" d="M2842.37,1986.51c0,0,13.06-53.71,7.79-72.77c-5.27-19.06-15.48-43.56-49.5-38.11
						c-34.03,5.44-74.17,19.78-74.17,19.78s2.03,24.82,27.89,16.81l-16.04,12.41c0,0,2.29,19.87,24.14,9.26l-14.92,16.46
						c0,0,9.38,16.32,25.45,5.85S2796.8,1992.98,2842.37,1986.51z"/>
				</g>
				<linearGradient id="SVGID_36_" gradientUnits="userSpaceOnUse" x1="2611.4727" y1="1785.9333" x2="2644.4246" y2="1923.2339">
					<stop  offset="0" style="stop-color:#53D8FF"/>
					<stop  offset="1" style="stop-color:#3840F7"/>
				</linearGradient>
				<path class="st40" d="M2646.38,1816.69c0,15.2-12.32,27.53-27.53,27.53s-27.53-12.32-27.53-27.53
					c0-15.2,12.32-27.53,27.53-27.53S2646.38,1801.49,2646.38,1816.69z"/>
				<path class="st41" d="M2760.41,1834.91l-19.09-64.76c-2.32-7.86-8.65-13.76-16.5-15.4c-59.8-12.48-223.58-15.13-225.22-15.15
					l0.13-7.83c6.75,0.1,166.16,2.68,226.7,15.31c10.67,2.24,19.26,10.22,22.4,20.85l19.09,64.77L2760.41,1834.91z"/>
			</g>
			<g class="st21">
				
					<linearGradient id="SVGID_37_" gradientUnits="userSpaceOnUse" x1="2153.6917" y1="2548.2444" x2="1946.687" y2="2822.0945" gradientTransform="matrix(-0.7645 -0.6445 -0.6445 0.7645 6051.2144 732.3934)">
					<stop  offset="0" style="stop-color:#F9B776"/>
					<stop  offset="1" style="stop-color:#F47960"/>
				</linearGradient>
				<path class="st42" d="M2732.09,1265.38c-1.76,2.09-64.61,171.21-64.61,171.21l97.33,33.83l83.39-151.45
					C2848.19,1318.98,2761.53,1230.44,2732.09,1265.38z"/>
				
					<linearGradient id="SVGID_38_" gradientUnits="userSpaceOnUse" x1="1995.6011" y1="2614.0093" x2="2242.8728" y2="2614.0093" gradientTransform="matrix(-0.7645 -0.6445 -0.6445 0.7645 6051.2144 732.3934)">
					<stop  offset="0" style="stop-color:#2B3582"/>
					<stop  offset="1" style="stop-color:#150E42"/>
				</linearGradient>
				<path class="st43" d="M2807.85,1327.57c2.14,4.06,2.28,8.86,0.39,13.04l-37.11,81.96c-0.56,1.24-1.27,2.39-2.16,3.43
					c-4.88,5.73-21.89,22.71-38.71,4.21c-14.33-15.77-27.71-30.06-40.86-35.07c-7.68-2.93-16.25,1.11-19.08,8.83
					c-5.84,15.89-16.97,48.19-22.83,78.28c-1.47,7.54,3.19,14.92,10.59,16.96c19.54,5.4,58.01,14.81,91.27,15.54
					c5.46,0.12,10.52-2.76,13.22-7.52c11.85-20.92,45.31-79.44,57.3-94.5c11.14-14,34.91-11.96,45.73-10.16
					c4.11,0.68,8.27-0.36,11.57-2.9c9.88-7.63,26.57-25.7,6.5-50.71c-4.99-6.22-3.88-15.4,2.24-20.52
					c10.95-9.17,22.13-25.3,7.13-47.59c-15.19-22.57-37.6-22.16-52.48-18.57c-6.58,1.59-13.77-1.13-17.05-7.05
					c-1.46-2.64-3.99-4.73-8.28-5.1c-8.1-0.69-14.13-7.32-13.49-15.42c1.09-13.89-2.96-31.3-26.02-40.72
					c-42.3-17.27-73.02,22.4-78.4,53.5c-5.38,31.1,41.55,47.22,69.94,47.53C2788.1,1295.25,2801.96,1316.37,2807.85,1327.57z"/>
				
					<linearGradient id="SVGID_39_" gradientUnits="userSpaceOnUse" x1="1850.5087" y1="2765.1123" x2="2016.5459" y2="2594.7625" gradientTransform="matrix(-0.7645 -0.6445 -0.6445 0.7645 6051.2144 732.3934)">
					<stop  offset="0" style="stop-color:#F9B776"/>
					<stop  offset="1" style="stop-color:#F47960"/>
				</linearGradient>
				<path class="st44" d="M2805.87,1442.87c0,0,11.7-53.8,34.56-54.52c22.86-0.72,43.29,19.77,18.16,48.37
					C2827.34,1472.3,2805.87,1442.87,2805.87,1442.87z"/>
			</g>
		</g>
	</g>
</g>
<g id="Background">
	<g>
		<g>
			<g>
				<path class="st45" d="M575.36,2482.55c4.99,44.18,8.01,93.81,13,137.98c-17.48-0.68-33.13,5.98-44.84,16.42l-81.81-98.41
					C493.96,2513.12,532.47,2493.46,575.36,2482.55z"/>
			</g>
			<g class="st46">
				<path d="M575.36,2482.55c1.23,10.85,2.33,22.04,3.38,33.38c-20.03,10.15-38.33,23.76-54.07,41.14
					c-8.59,9.75-16.01,19.88-22.36,30.29l-40.59-48.82C493.96,2513.12,532.47,2493.46,575.36,2482.55z"/>
			</g>
		</g>
		<g>
			<g>
				<path class="st47" d="M1069.83,2880.71c41.86-9.33,84.88-11.74,126.43-7.3c15.07,1.61,46.26,2.1,57.74,11.28
					c11.14,8.9,9.37,30.61,11.88,43.85c15.9,83.88,45.04,164.61,86.32,238.88c3.29,5.92,6.71,11.97,7.4,18.77
					c0.68,6.8-2.03,14.62-8.49,18.53c-6.46,3.91-16.48,1.64-17.71-5.05c5.67,5.5,2.94,17.67-4.38,22.34
					c-7.33,4.67-18.25,2.04-21.31-5.12c-1.68,9.6-10.72,17.19-21.03,19.04c-10.31,1.85-20.56-0.94-29.56-5.01
					c-27-12.19-45.73-35.19-61.92-58.49c-58.67-84.45-95.71-182.7-107.6-285.43L1069.83,2880.71z"/>
			</g>
			<g class="st48">
				<path d="M1333.39,3199.67c1.19,1.16,1.99,2.62,2.48,4.23C1334.6,3202.8,1333.71,3201.38,1333.39,3199.67z"/>
			</g>
			<g class="st49">
				<path d="M1322.99,3109.24c-11.14,10.19-21.43,21.56-29.74,36.05c-15.23,28.64-15.31,61.98-3.71,89.92
					c-0.95,0.28-1.91,0.55-2.89,0.73c-10.31,1.85-20.56-0.94-29.56-5.01c-2.44-1.1-4.8-2.32-7.11-3.59
					c-10.51-32.7-9.06-69.65,7.89-104.31c11.76-22.87,28.08-41.62,47.25-56.55C1310.66,3080.91,1316.63,3095.17,1322.99,3109.24z"/>
			</g>
			<g class="st50">
				<path d="M1305.12,3066.48c-19.17,14.93-35.49,33.68-47.25,56.55c-16.95,34.66-18.41,71.61-7.89,104.31
					c-20.25-11.14-35.65-28.46-49.02-46.77c0.36-29.75,8.7-59.18,28.28-86c18.2-24.32,40.24-43.73,65.2-57.5
					C1297.8,3046.95,1301.38,3056.75,1305.12,3066.48z"/>
			</g>
			<g class="st48">
				<path d="M1196.26,2873.41c15.07,1.61,46.26,2.1,57.74,11.28c11.14,8.9,9.37,30.61,11.88,43.85
					c6.99,36.88,16.55,73.16,28.57,108.55c-24.96,13.77-47,33.18-65.2,57.5c-19.58,26.83-27.92,56.25-28.28,86
					c-1.97-2.7-3.9-5.41-5.79-8.14c-58.67-84.45-95.71-182.7-107.6-285.43l-17.74-6.3
					C1111.69,2871.37,1154.71,2868.97,1196.26,2873.41z"/>
			</g>
		</g>
		<g>
			<g>
				<path class="st47" d="M1275.53,1931.43c122.85-28.78,242.18-72.57,354.48-130.09c8.79-4.5,18.78-9.22,28.16-6.13
					c9.38,3.09,13.54,18.53,4.49,22.48c4.95-6.88,17.44-3.62,23.29,2.5c5.85,6.12,4.54,17.5-2.55,22.13
					c7.3-7.05,20.13,4.08,21.62,14.12c1.49,10.04-4.43,19.54-10.29,27.82c-101.01,142.72-265.66,238.55-439.64,255.88
					C1262.48,2069.35,1268.14,2002.23,1275.53,1931.43z"/>
			</g>
			<g>
				<path class="st51" d="M1402.47,1941.64c-6.8-0.55-6.73-10.63-0.23-11.78c17.85-3.16,33.39-7.59,49.51-16.05
					c7.25-3.81,14.68,7.87,7.64,12.39C1442.78,1936.85,1422.35,1943.25,1402.47,1941.64z"/>
			</g>
			<g>
				<path class="st51" d="M1374.9,1995.92c15.1-6.48,31.47-10.61,47.22-15.2c9.52-2.77,11.86,12.6,2.37,15.3
					c-15.14,4.32-30.52,9.26-46.09,11.71C1371.54,2008.81,1368.39,1998.72,1374.9,1995.92z"/>
			</g>
			<g>
				<path class="st51" d="M1472.62,1951.4c18.88-8.34,36.44-18.5,52.88-30.99c8.04-6.11,17.88,5.95,9.9,12.18
					c-17.32,13.5-36.31,24.24-56.99,31.7C1469.96,1967.34,1464.21,1955.11,1472.62,1951.4z"/>
			</g>
			<g class="st50">
				<path d="M1538.43,1878.92c-96.99,49.93-185.75,142.42-213.81,250.01c-22.92,5.09-46.13,8.89-69.52,11.22
					c7.39-70.8,13.05-137.92,20.44-208.72c122.85-28.78,242.18-72.57,354.48-130.09c8.79-4.5,18.78-9.21,28.16-6.13
					c7.84,2.58,12,13.76,7.89,19.68c-1.33,0.62-2.49,1.54-3.4,2.8c1.49-0.65,2.59-1.63,3.4-2.8c5.91-2.78,15.11,0.3,19.89,5.3
					c5.43,5.68,4.69,15.86-1.11,21.01c-0.5,0.31-0.98,0.68-1.44,1.12c0.46-0.44,0.94-0.81,1.44-1.12
					c7.43-4.53,18.78,5.83,20.18,15.24c1.49,10.04-4.43,19.54-10.29,27.82c-0.1,0.14-0.21,0.28-0.31,0.42
					C1644.63,1861.99,1588.48,1850.76,1538.43,1878.92z"/>
			</g>
			<g class="st49">
				<path d="M1531.44,1947.46c-74.65,29.16-155.09,95.49-178.35,174.41c-9.44,2.58-18.93,4.95-28.48,7.07
					c28.06-107.59,116.82-200.08,213.81-250.01c50.05-28.16,106.2-16.94,156,5.76c-17.36,24.48-36.62,47.55-57.45,69.1
					C1604.89,1937.54,1568.61,1932.6,1531.44,1947.46z"/>
			</g>
		</g>
		<g>
			<g>
				<path class="st45" d="M530.19,2602.72c0.2,6.85,0.73,13.64,1.42,20.41c4.16,37.54,16.27,73.48,38.49,104.07
					c22.7,31.3,53.21,53.92,87.7,70.8c47.43,23.21,102.33,35.54,154.78,44.54c13,2.22,26.06,4.35,39.12,6.34
					c64.67,9.89,130.18,16.56,195.27,16.35c49.66-0.14,99.06-4.27,147.62-14.06c10.28-2.07,20.53-4.41,30.73-7
					c45.64-11.58,92.15-29.99,121.92-66.49c35.15-43.11,40.39-102.95,39.08-158.58c-3.87-168.59-53.16-332.41-102.02-493.81
					c-9.77-2.76-19.54-5.4-29.28-7.93c-164.24-42.82-322.28-55.48-493.72-56.54c-13.61,79.95-56.07,151.75-100.04,219.9
					c-43.97,68.15-90.93,136-115.44,213.28c-5.59,17.59-9.83,35.85-12.52,54.35C530.67,2566.41,529.56,2584.65,530.19,2602.72z"/>
			</g>
			<g class="st50">
				<path d="M907.95,2573c-1.01-1-1.79-2.26-2.17-3.84C906.86,2570.28,907.56,2571.58,907.95,2573z"/>
			</g>
			<g class="st50">
				<path d="M878.77,2586.92c-0.32-0.52-0.61-1.05-0.85-1.62C878.28,2585.83,878.56,2586.37,878.77,2586.92z"/>
			</g>
			<g>
				<path class="st47" d="M1003.53,2764.84c4.89,39.85,15.67,71.5,30.21,96.77c4.38,1.31,8.79,2.51,13.23,3.61
					c49.66-0.14,99.06-4.27,147.62-14.06c10.28-2.07,20.53-4.41,30.73-7c45.64-11.58,92.15-29.99,121.92-66.49
					c35.15-43.11,40.39-102.95,39.08-158.58c-3.87-168.59-53.16-332.41-102.02-493.81c-9.77-2.76-19.54-5.4-29.28-7.93
					c-29.28,5.67-56.65,16.77-75.34,36.93c-34.89,37.64-72.76-23.14-93.58,23.76c-22.47,50.66-59.54,202.74-67.67,259.09
					C1003.37,2541.42,991.81,2669.48,1003.53,2764.84z"/>
			</g>
			<g>
				<path class="st51" d="M1340.42,2705.97c6.11-15.36,6.89-30.04,7.93-46.3c0.39-6.08,8.57-6.86,10.44-1.19
					c5.45,16.62,1.97,35.83-4.76,51.55C1350.5,2718.26,1337,2714.56,1340.42,2705.97z"/>
			</g>
			<g>
				<path class="st51" d="M1312.8,2590.56c0.89-5.08,8.1-3.94,9.36,0.2c4.49,14.7,2.85,31.69,1.23,46.73
					c-0.98,9.09-15.35,8.79-14.26-0.3C1310.99,2621.76,1310.13,2605.82,1312.8,2590.56z"/>
			</g>
			<g>
				<path class="st51" d="M1294.77,2769.17c5.7-17.1,9.99-34.13,11.84-52.1c0.75-7.28,11.37-7.24,11.48,0.24
					c0.28,19.06-2.77,38.14-10.03,55.82C1304.73,2781.21,1291.89,2777.8,1294.77,2769.17z"/>
			</g>
			<g>
				<path class="st52" d="M608.65,2612.58c-2.44,16.35,0.15,30.82,2.85,46.88c1.01,6.01-6.78,8.64-9.89,3.54
					c-9.1-14.93-10.11-34.43-7.14-51.27C596.03,2602.91,610.02,2603.43,608.65,2612.58z"/>
			</g>
			<g>
				<path class="st52" d="M661.89,2718.63c0.3,5.15-6.99,5.69-9.16,1.95c-7.73-13.29-10.02-30.2-11.87-45.21
					c-1.12-9.07,12.94-12.06,13.95-2.96C656.54,2687.84,661.01,2703.16,661.89,2718.63z"/>
			</g>
			<g>
				<path class="st52" d="M638.66,2540.62c-1.64,17.95-1.93,35.51,0.37,53.43c0.93,7.25-9.41,9.64-11.23,2.38
					c-4.62-18.49-6.01-37.76-2.98-56.64C626.21,2531.18,639.49,2531.56,638.66,2540.62z"/>
			</g>
			<g class="st48">
				<path d="M661.25,2280.71c43.97-68.15,86.43-139.95,100.04-219.9c181.62,1.13,348.18,15.24,523.01,64.47
					c14.33,47.32,28.68,94.84,41.92,142.64c-218.55,4.44-435.8,42.17-640.93,129.61c-47.65,19.23-93.55,45.43-133.34,78.65
					C577.65,2406.19,620.7,2343.57,661.25,2280.71z"/>
			</g>
			<g class="st46">
				<path d="M533.3,2548.34c2.68-18.5,6.93-36.76,12.52-54.35c1.9-6,3.98-11.93,6.15-17.82c39.79-33.23,85.69-59.42,133.34-78.65
					c205.12-87.45,422.38-125.18,640.93-129.61c7.46,26.92,14.54,53.92,21.08,81.02c-189.79-6.38-386.18,33.28-545.24,146.73
					c-47.1,33.79-88.96,93.78-69.9,152.16c35.52,102.21,150.8,133.65,251.85,153.19c108.02,19.3,219.35,29.28,324.12,10.36
					c-25.02,15.5-54.08,25.51-82.81,32.8c-10.2,2.6-20.45,4.93-30.73,7c-112.23,22.58-228.9,15.14-342.89-2.29
					c-13.06-1.99-26.12-4.12-39.12-6.34c-52.45-9-107.36-21.32-154.78-44.54c-34.49-16.88-64.99-39.5-87.7-70.8
					c-22.22-30.59-34.36-66.53-38.49-104.07c-0.73-6.77-1.22-13.56-1.42-20.41C529.57,2584.65,530.68,2566.41,533.3,2548.34z"/>
			</g>
		</g>
		<g>
			<g>
				<path class="st47" d="M1079.55,2232.68c47.46,116.91,109.2,228.02,183.42,330.06c5.81,7.99,12.01,17.12,10.41,26.87
					c-1.6,9.75-16.21,16.25-21.52,7.91c7.56,3.82,6.28,16.66,1.14,23.4c-5.14,6.73-16.58,7.2-22.26,0.91
					c8.09,6.12-0.91,20.52-10.6,23.55c-9.68,3.03-19.99-1.35-29.08-5.86c-156.64-77.68-276.82-225.5-320.89-394.71
					C941.28,2241.15,1008.46,2236.34,1079.55,2232.68z"/>
			</g>
			<g>
				<path class="st51" d="M1089.13,2359.67c-0.51-6.81,9.46-8.29,11.6-2.05c5.89,17.15,12.67,31.81,23.53,46.43
					c4.88,6.58-5.5,15.72-11.05,9.47C1100.1,2398.75,1090.62,2379.56,1089.13,2359.67z"/>
			</g>
			<g>
				<path class="st51" d="M1031.23,2340.84c8.74,13.92,15.36,29.44,22.33,44.3c4.21,8.98-10.61,13.67-14.75,4.71
					c-6.61-14.28-13.88-28.72-18.71-43.72C1017.98,2339.52,1027.46,2334.84,1031.23,2340.84z"/>
			</g>
			<g>
				<path class="st51" d="M1090.36,2430.49c11.16,17.36,23.92,33.14,38.81,47.44c7.28,6.99-3.11,18.59-10.5,11.67
					c-16.02-15.02-29.57-32.12-40.15-51.39C1074.2,2430.33,1085.38,2422.75,1090.36,2430.49z"/>
			</g>
			<g class="st50">
				<path d="M1172.15,2484.27c-64.35-88.09-169.48-161.45-280.11-172.51c-8.58-21.85-15.92-44.2-21.85-66.94
					c71.09-3.66,138.28-8.47,209.37-12.14c47.46,116.91,109.2,228.02,183.42,330.06c5.81,7.99,12.01,17.12,10.41,26.87
					c-1.34,8.14-11.74,13.99-18.22,10.84c-0.82-1.22-1.91-2.23-3.29-2.93c0.87,1.37,2.02,2.31,3.29,2.93
					c3.66,5.41,2.04,14.97-2.16,20.47c-4.77,6.24-14.95,7.09-20.93,2.16c-0.38-0.45-0.82-0.87-1.33-1.25
					c0.51,0.39,0.95,0.8,1.33,1.25c5.62,6.64-2.85,19.46-11.93,22.3c-9.68,3.03-19.99-1.35-29.08-5.86
					c-0.16-0.08-0.31-0.16-0.46-0.24C1205.33,2586.57,1207.72,2529.36,1172.15,2484.27z"/>
			</g>
			<g class="st49">
				<path d="M1103.36,2487.99c-40.37-69.24-118.36-138.43-199.93-149.19c-4.01-8.92-7.82-17.94-11.39-27.04
					c110.63,11.06,215.76,84.42,280.11,172.51c35.57,45.09,33.18,102.3,18.47,155.01c-26.87-13.36-52.65-28.81-77.17-46.05
					C1124.54,2559.01,1123.8,2522.4,1103.36,2487.99z"/>
			</g>
		</g>
		<g>
			<g>
				<g>
					<path class="st53" d="M664.46,1216.91c-26.91,37.21-51.63,75.24-74.25,114.1c-58.53,100.19-103.49,205.91-137.93,317.62
						c-8.61,27.74-16.51,55.87-23.82,84.37c0.83-3.23-62.75-50.08-68.47-56.75c-96.75-112.48-161.26-218.97-192.55-305.43
						c-12.46-34.42-56.58-147.52,1.93-163.1c78.34-20.87,169.11-22.25,249.57-19.74C585.93,1193.2,661.02,1221.68,664.46,1216.91z"
						/>
				</g>
				<g>
					<path class="st54" d="M590.22,1331.01c-58.53,100.19-103.49,205.91-137.93,317.62c-85.17-95.7-180.86-236.61-202.34-289.05
						c-5.06-12.39-10.2-25.91-6.66-38.83c3.43-12.5,14.61-21.74,26.84-26.07c12.23-4.36,25.48-4.6,38.47-4.48
						C403.81,1291.11,497.55,1308.17,590.22,1331.01z"/>
				</g>
				<g class="st48">
					<path d="M664.46,1216.91c-5.5,7.59-10.91,15.23-16.18,22.9c-35.34-7.32-103.49-20.34-210-23.66
						c-78.43-2.46-166.91-1.1-243.26,19.24c-57.04,15.17-14.05,125.42-1.9,158.98c30.5,84.27,93.39,188.09,187.7,297.72
						c3.53,4.1,29.7,23.93,48.2,38.72l-0.57,2.19c0.83-3.23-62.75-50.08-68.47-56.75c-96.75-112.48-161.26-218.97-192.55-305.43
						c-12.46-34.42-56.58-147.52,1.93-163.1c78.34-20.87,169.11-22.25,249.57-19.74C585.93,1193.2,661.02,1221.68,664.46,1216.91z"
						/>
				</g>
				<g class="st48">
					<path d="M590.22,1331.01c-28.63-7.06-57.36-13.56-86.21-19.21c-22.4,55.13-57.91,97.88-126.36,100.74
						c-38.16,3.15-76.54-5.52-111.83-21.18c36.26,65.01,115.05,177.03,186.47,257.28C486.73,1536.93,531.69,1431.21,590.22,1331.01z
						"/>
				</g>
			</g>
			<g>
				<g>
					<path class="st53" d="M1222,1280.95c-27.78-16.03-55.69-30.26-83.77-42.74c-72.43-32.35-146.01-53.46-221.54-65.61
						c-18.76-3.06-37.65-5.52-56.67-7.48c2.16,0.23,20.6-55.24,23.79-60.56c53.77-89.78,109.26-153.75,157.89-189.32
						c19.36-14.16,82.44-63.17,102.07-19.79c26.31,58.09,42.56,128.36,54.64,191.14C1223.47,1216.89,1218.44,1278.9,1222,1280.95z"
						/>
				</g>
				<g>
					<path class="st54" d="M1138.22,1238.21c-72.43-32.35-146.01-53.46-221.54-65.61c45.26-78.59,116.94-171.26,146.01-194.78
						c6.87-5.54,14.44-11.3,23.09-10.24c8.38,1.03,16.04,8.5,20.82,17.43c4.79,8.93,7.19,19.17,9.32,29.27
						C1131.51,1088.31,1136.76,1163.3,1138.22,1238.21z"/>
				</g>
				<g class="st48">
					<path d="M1222,1280.95c-5.67-3.28-11.35-6.48-17.03-9.57c-1.42-28.39-4.86-82.98-20.85-166.09
						c-11.76-61.2-27.62-129.7-53.25-186.31c-19.14-42.29-80.63,5.46-99.5,19.27c-47.4,34.67-101.5,97.04-153.9,184.55
						c-1.96,3.28-9.89,26.17-15.98,42.47l-1.46-0.15c2.16,0.23,20.6-55.24,23.79-60.56c53.77-89.78,109.26-153.75,157.89-189.32
						c19.36-14.16,82.44-63.17,102.07-19.79c26.31,58.09,42.56,128.36,54.64,191.14C1223.47,1216.89,1218.44,1278.9,1222,1280.95z"
						/>
				</g>
				<g class="st48">
					<path d="M1138.22,1238.21c-0.45-23.14-1.27-46.29-2.64-69.42c-38.19-10.19-70.88-32.18-84.27-84.93
						c-8.44-29.21-9.54-60.13-5.75-89.57c-34.41,36.63-90.93,112.41-128.88,178.32C992.22,1184.75,1065.8,1205.86,1138.22,1238.21z"
						/>
				</g>
			</g>
			<g>
				<path class="st45" d="M433.2,2254.7c20.68,24.04,52.98,30.82,82.85,35.11c11.48,1.63,22.94,3.11,34.42,4.44
					c79.78,9.16,159.98,10.42,239.4,4.21c25.67-2.01,51.25-4.8,76.69-8.37c85.95-11.98,170.57-32.73,252.32-61.69
					c84.71-30.01,166.33-68.83,243.26-115.92c36.91-22.58,68.08-45.43,94.28-68.36c88.48-77.3,120.61-155.07,126.04-223.9
					c4.26-53.61-7.64-101.82-21.71-140.11c-4.84-13.25-9.95-25.31-14.74-36c-28.36-63.35-110.67-234.03-210.11-331.13
					c-88.94-86.85-187.91-163.87-305.81-188.95c-77.9-16.57-158.16-11.51-233.2,10.78c-63.44,18.79-123.19,49.94-174.71,90.78
					c-34.82,27.61-66.57,59.17-94.35,93.59c-70.57,87.52-110.54,189.02-130.99,297.06c-29.01,153.41-18.66,320.02-0.41,478.7
					c3.01,26.09,6.23,51.97,9.5,77.53C409.67,2201.56,414.27,2232.74,433.2,2254.7z"/>
			</g>
			<g>
				<path class="st53" d="M866.56,2290.1c85.95-11.98,170.57-32.73,252.32-61.69c6.65-90.02,9.01-182.25,0.74-278.61
					c-3.35-38.97-10.26-83.47-31.97-113.44c-18.03-24.93-42.14-32.6-60.96-26.66c-18.83,6-33.32,23.53-46.4,42.33
					C907.13,1957.4,866.81,2114.45,866.56,2290.1z"/>
			</g>
			<g>
				<path class="st55" d="M1130.96,1178.16c12.71,6.43,25.13,13.45,37.56,20.42c8.77,4.91-0.65,17.59-9.34,12.61
					c-11.78-6.75-23.58-13.48-35.06-20.72C1117.39,1186.22,1123.77,1174.52,1130.96,1178.16z"/>
			</g>
			<g>
				<path class="st55" d="M992.1,1173.25c18.18,5.25,35.79,14.61,52.97,22.45c9.33,4.26,3.48,19.11-5.88,14.84
					c-17.79-8.11-36.83-15.49-53.28-26.16C979.4,1180.15,985.57,1171.37,992.1,1173.25z"/>
			</g>
			<g>
				<path class="st55" d="M1139.46,1274.31c19.32,11.4,37.68,24.67,56.12,37.43c8.29,5.73-1.04,18.27-9.3,12.56
					c-18.42-12.75-37.29-25.23-54.74-39.28C1124.74,1279.54,1132.2,1270.02,1139.46,1274.31z"/>
			</g>
			<g>
				<path class="st55" d="M1264.3,1286.6c15.33,10.05,28.67,24.6,42.05,37.09c7.17,6.69-1.86,19.13-9.18,12.4
					c-13.91-12.8-30.05-25.5-41.6-40.51C1251.11,1289.78,1258.42,1282.75,1264.3,1286.6z"/>
			</g>
			<g>
				<path class="st55" d="M1173.57,1372.48c17.94,7.44,34.51,21.46,50.48,32.37c8.36,5.71-1.02,18.3-9.34,12.62
					c-16.03-10.95-34.85-21.28-48.36-35.33C1161.93,1377.55,1168.16,1370.24,1173.57,1372.48z"/>
			</g>
			<g>
				<path class="st55" d="M1296.48,1371.19c18.15,14.31,35.01,30.54,51.76,46.45c7.04,6.68-1.96,18.95-9.18,12.22
					c-17.36-16.17-35.12-32.49-50.95-50.19C1283.56,1374.59,1291.21,1367.03,1296.48,1371.19z"/>
			</g>
			<g>
				<path class="st55" d="M1290.73,1452.2c14.51,9.79,28.16,20.27,41.7,31.37c7.23,5.92-1.44,17.65-8.65,11.69
					c-13.92-11.5-27.16-23.24-39.95-35.96C1279.68,1455.17,1286.29,1449.21,1290.73,1452.2z"/>
			</g>
			<g>
				<path class="st55" d="M1363.35,1482.73c9.86,11.41,19.48,23.02,28.98,34.73c6.12,7.54-4.88,17.96-11.03,10.39
					c-9.52-11.73-18.93-23.55-28.09-35.57C1347.89,1485.3,1357.38,1475.83,1363.35,1482.73z"/>
			</g>
			<g>
				<path class="st55" d="M1021.17,1276.36c15.41,10.47,36,21.07,47.87,35.58c3.56,4.35-1.37,9.84-6.2,8.3
					c-9-2.87-16.93-9.12-24.79-14.27c-8.71-5.71-17.37-11.48-25.98-17.33C1003.92,1283.1,1013.06,1270.84,1021.17,1276.36z"/>
			</g>
			<g>
				<path class="st55" d="M875.17,1222.86c20.89,3.37,41.85,10.72,59.12,23.17c6.16,4.44,0.41,15.68-6.64,11.95
					c-17.48-9.23-34.74-16.43-54.35-19.75C863.5,1236.58,865.29,1221.27,875.17,1222.86z"/>
			</g>
			<g class="st49">
				<path d="M519.78,1858.88c210.32,196.99,516.56,210.87,772.05,130.76c105.88-31.87,208.26-90.92,290.63-169.41
					c4.26-53.61-7.64-101.82-21.71-140.11c-97.3,87.91-218.11,150.3-347.74,175.76c-219.26,40.3-450.18-118.35-513.16-327.57
					c-37.25-123.75-1.41-250.24,69.84-355.22c8.5-12.79,17.59-25.63,27.19-38.27c-63.44,18.79-123.19,49.94-174.71,90.78
					c-34.82,27.61-66.57,59.17-94.35,93.59c-70.57,87.52-110.54,189.02-130.99,297.06C409.69,1705.99,449.18,1791.54,519.78,1858.88
					z"/>
			</g>
			<g class="st50">
				<path d="M396.43,2094.95c331.67,171.78,728.77,82.98,1059.98-50.82c88.48-77.3,120.61-155.07,126.04-223.9
					c-82.37,78.49-184.75,137.54-290.63,169.41c-255.49,80.11-561.73,66.23-772.05-130.76c-70.6-67.34-110.09-152.88-122.94-242.63
					C367.84,1769.65,378.19,1936.27,396.43,2094.95z"/>
			</g>
			<g class="st48">
				<path d="M433.2,2254.7c20.68,24.04,52.98,30.82,82.85,35.11c11.48,1.63,22.94,3.11,34.42,4.44
					c79.78,9.16,159.98,10.42,239.4,4.21c201.99-15.82,399.05-79.98,572.26-185.98c36.91-22.58,68.08-45.43,94.28-68.36
					c-331.22,133.8-728.31,222.6-1059.98,50.82c3.01,26.09,6.23,51.97,9.5,77.53C409.67,2201.56,414.27,2232.74,433.2,2254.7z"/>
			</g>
			<g class="st46">
				<path class="st41" d="M990.52,1138.7c37.61,2.48,74.25,13.24,109.3,27.07c50.45,19.9,98.57,46.5,139.85,81.66
					c41.28,35.17,75.6,79.13,96.21,129.29c6.19,15.05,11.04,32.54,3.92,47.17c-7.64,15.7-27.22,22.62-44.57,20.68
					c-17.36-1.94-33.05-10.87-48.08-19.76c-118.58-70.12-231.52-149.3-344.31-228.39c-20.8-14.59-28.18-34.63-1.28-45.27
					C929.6,1140.07,960.59,1136.73,990.52,1138.7z"/>
			</g>
			<g>
				<g>
					<path class="st53" d="M1152.28,1512.47c-2.52,10.28-3.82,21.05-1.92,31.46c1.9,10.41,7.3,20.48,16.05,26.44
						c11.18,7.6,26.43,7.43,38.78,1.91c12.34-5.51,22.07-15.69,29.67-26.88c12.37-18.21,19.83-39.72,21.4-61.68
						c1.81-25.32-16.88-64.96-48.1-50.18C1179.72,1446.99,1159.44,1483.28,1152.28,1512.47z"/>
				</g>
				<g>
					<path class="st56" d="M1208.17,1433.53c-0.16,0.07-0.3,0.17-0.46,0.24c11.59,9.67,20.28,24.82,24.02,39.53
						c9.32,36.62-2.88,78.06-30.4,100.44c1.31-0.45,2.61-0.91,3.86-1.47c12.34-5.51,22.07-15.69,29.67-26.88
						c12.37-18.21,19.83-39.72,21.4-61.68C1258.08,1458.4,1239.39,1418.76,1208.17,1433.53z"/>
				</g>
			</g>
			<g>
				<g>
					<path class="st53" d="M1451.2,1370.76c7.97,6.53,15.27,14.16,19.87,23.38c4.6,9.22,6.28,20.21,2.94,29.96
						c-4.26,12.45-16.24,21.23-29.08,24.14c-12.83,2.92-26.36,0.67-38.81-3.6c-20.27-6.96-38.65-19.35-52.7-35.53
						c-16.2-18.66-24.8-60.44,8.14-67.18C1391.59,1335.8,1428.58,1352.21,1451.2,1370.76z"/>
				</g>
				<g>
					<path class="st56" d="M1361.57,1341.94c0.16-0.03,0.34-0.05,0.5-0.08c-3.38,14.31-1.3,31.17,4.39,44.82
						c14.14,33.96,47.84,59.1,82.35,60.46c-1.28,0.41-2.56,0.81-3.87,1.11c-12.83,2.92-26.36,0.67-38.81-3.6
						c-20.27-6.96-38.65-19.35-52.7-35.53C1337.23,1390.46,1328.63,1348.67,1361.57,1341.94z"/>
				</g>
			</g>
			<g>
				<path class="st53" d="M1491.32,1562.13c0,0,75.14,8.3,123.72,123.5c48.58,115.2-47.06,310.91-159.31,338.51
					C1343.49,2051.73,1290.14,1525.31,1491.32,1562.13z"/>
			</g>
			<g class="st57">
				<path class="st56" d="M1409.68,1586.86c20.47-20.92,47.36-31.01,81.65-24.74c0,0,23.19,2.59,52.12,24.6
					c-1.7,6.8-4.38,12.79-9.02,17.17c-82.93,76.41-123.62,212.75-13.9,285.66c21.41,15.1,43.02,20.27,64.36,19
					c-8.53,15.21-18.07,29.63-28.46,42.82c-33.46,7.46-70.28,4.54-90.27-21.24C1393.34,1838.02,1369.09,1698.77,1409.68,1586.86z"/>
			</g>
			<g>
				<path class="st56" d="M1409.68,1586.86c-40.59,111.91-16.34,251.16,56.47,343.27c19.99,25.78,56.81,28.7,90.27,21.24
					c-28.76,36.51-63.82,63.7-100.68,72.76C1362.62,2047.03,1310.04,1688.67,1409.68,1586.86z"/>
			</g>
			<g>
				<path class="st54" d="M1433.9,1787.37c5.42,21.26,24.41,36.66,47.14,31.1c15.87-3.88,26.17-18.1,39.18-26.87
					c4.63-3.12,9.45-5.46,14.52-6.83c-2.82-29.08-6.53-57.71-13.8-86.1c-7.79-30.43-19.01-59.57-30.64-88.69
					c-1.33-3.32,3.22-5.32,4.97-2.3c30.23,51.98,47.03,115.71,49.65,175.74c1.41,0.01,2.83,0.08,4.27,0.24
					c15.4,1.78,34.95,14.1,46.76-2.22c1.6-2.22,5.8-0.96,5.24,1.99c-2.6,13.75-16.89,17.67-29.34,16.23
					c-13.54-1.57-25.28-9.07-38.99-2.96c-9.64,4.3-17.03,12.67-25.12,19.19c-14.44,11.63-31.44,18.13-50.04,12.68
					c-18.19-5.34-31.22-20.94-34.35-39.44C1422.2,1782.24,1432.23,1780.79,1433.9,1787.37z"/>
			</g>
			<g>
				<g>
					<path class="st54" d="M1468.85,1567.2c14.44-6.6,30.24-9.92,46.24-6.41c11.45,2.51,22.36,9.93,22.51,20.35
						c0.37,26.4-45.52,43.89-70.02,46.03c-18.77,1.64-53.33-3.69-40.77-27.16C1434.3,1586.02,1453.58,1574.19,1468.85,1567.2z"/>
				</g>
				<g class="st49">
					<path d="M1463.66,1584.81c23.85,11.05,52.47,3.35,66.4-17.17c0.94,0.75,1.84,1.53,2.64,2.37c-2.53,5.6-5.84,11-9.94,16.01
						c-17.42,17.84-40.24,21.92-62.26,14.08c-9.06-2.67-16.56-7.37-22.66-13.42c4.15-3.72,8.91-7.14,13.8-10.21
						C1455.11,1579.65,1459.04,1582.49,1463.66,1584.81z"/>
				</g>
				<g class="st50">
					<path d="M1426.81,1600.02c2.53-4.73,6.43-9.2,11.04-13.34c6.1,6.05,13.59,10.75,22.66,13.42c22.01,7.84,44.84,3.76,62.26-14.08
						c4.1-5.01,7.42-10.41,9.94-16.01c2.96,3.13,4.83,6.87,4.89,11.13c0.04,2.85-0.49,5.59-1.44,8.22
						c-24.02,23.94-61.37,33.6-97.45,20.52c-4.73-1.9-9.14-4.27-13.2-7.03C1425.87,1601.94,1426.28,1601,1426.81,1600.02z"/>
				</g>
				<g class="st48">
					<path d="M1425.5,1602.86c4.07,2.76,8.47,5.13,13.2,7.03c36.08,13.08,73.43,3.42,97.45-20.52
						c-7.87,21.77-46.73,35.89-68.58,37.81C1449.59,1628.75,1417.15,1623.9,1425.5,1602.86z"/>
				</g>
				<g class="st48">
					<path class="st58" d="M1508.63,1562.14c1.75,0.08,3.54,0.23,5.14,0.96c1.6,0.73,2.98,2.14,3.22,3.88
						c0.33,2.46-1.65,4.62-3.69,6.04c-4.38,3.06-9.64,4.57-14.85,5.76c-10.3,2.35-21.11,3.63-31.39,1.21
						c-1.35-0.32-2.81-0.78-3.54-1.96c-0.66-1.06-0.55-2.47-0.02-3.6c1.42-3.04,5.58-4.19,8.44-5.47c3.78-1.69,7.69-3.07,11.68-4.14
						C1491.75,1562.64,1500.22,1561.73,1508.63,1562.14z"/>
				</g>
			</g>
			<g>
				<g>
					<path class="st54" d="M1333.9,1605.8c-1.18,5-5.05,9.14-10.22,10.02c-12.26,2.08-21.22-14.69-24.51-24.15
						c-3.1-8.92,0.06-19.38,11.28-18.48c9.81,0.79,17.41,10.45,21.4,18.62C1333.95,1596.13,1334.99,1601.17,1333.9,1605.8z"/>
				</g>
				<g class="st48">
					<path d="M1315.78,1583.18c-2.13-3.24-4.11-6.63-6.14-10.01c0.27,0.01,0.53-0.01,0.81,0.02c9.81,0.79,17.41,10.45,21.4,18.62
						c2.11,4.32,3.15,9.36,2.06,14c-1.18,5-5.05,9.14-10.22,10.02c-1.72,0.29-3.36,0.18-4.95-0.2
						C1321.83,1605.29,1321.01,1594.15,1315.78,1583.18z"/>
				</g>
			</g>
			<g>
				<g>
					<path class="st54" d="M1443.83,1540.64c-1.18,5-5.05,9.14-10.22,10.02c-12.26,2.08-21.22-14.69-24.51-24.15
						c-3.1-8.92,0.06-19.38,11.28-18.48c9.81,0.79,17.41,10.46,21.4,18.62C1443.88,1530.96,1444.93,1536,1443.83,1540.64z"/>
				</g>
				<g class="st48">
					<path d="M1425.71,1518.01c-2.13-3.24-4.11-6.63-6.14-10.01c0.27,0.01,0.53-0.01,0.81,0.02c9.81,0.79,17.41,10.45,21.4,18.62
						c2.11,4.32,3.15,9.36,2.06,14c-1.18,5-5.05,9.14-10.22,10.02c-1.72,0.29-3.36,0.18-4.95-0.2
						C1431.77,1540.12,1430.95,1528.98,1425.71,1518.01z"/>
				</g>
			</g>
		</g>
		<g>
			<g>
				<path class="st47" d="M818.67,2826.38c0.04,0.73,0.08,1.49,0.12,2.22c0.17,2.92,0.36,5.8,0.57,8.71
					c0.44,6.24,0.97,12.44,1.57,18.68c0.53,5.33,1.1,10.71,1.75,16.05c0.32,2.74,0.65,5.5,1.01,8.26c0.04,0.17,0.07,0.34,0.07,0.5
					c0.39,2.83,0.79,5.69,1.18,8.53c0.44,2.88,0.85,5.77,1.32,8.63c0.44,2.88,0.9,5.74,1.4,8.6c0.04,0.23,0.08,0.45,0.12,0.67
					c1,5.95,2.05,11.9,3.23,17.81c0.6,3.06,1.22,6.15,1.85,9.2c1.3,6.12,2.66,12.25,4.08,18.35c0.09,0.31,0.16,0.65,0.22,0.97
					c2.11,8.82,4.35,17.59,6.76,26.33c1.7,6.03,3.42,12.04,5.27,18.04c0.89,3.01,1.83,5.97,2.78,8.96c0.95,2.99,1.92,5.97,2.9,8.95
					c1.95,5.96,4.01,11.87,6.15,17.76c4.05,11.27,8.38,22.43,13.03,33.46c36.95,88.53,91.33,169.69,160.88,235.91
					c6.23,5.91,13.18,12,21.71,12.9c8.55,0.86,18.24-6.44,16.3-14.83c4.69,7.88,15.34,11.5,23.9,8.38c0.09,0,0.17-0.04,0.25-0.07
					c0.43-0.17,0.86-0.34,1.26-0.52c8.79-4.18,13.42-15.44,10.1-24.57c0.06,0.07,0.14,0.13,0.2,0.2c2.05,2,4.4,3.07,6.78,3.42
					c0.33,0.06,0.69,0.1,1.07,0.11c0.91,0.11,1.82,0.04,2.69-0.12c0.52-0.11,1.06-0.23,1.6-0.37c2.03-0.61,3.9-1.71,5.45-3.18
					c0.43-0.42,0.85-0.86,1.23-1.32c2.49-3.12,3.62-7.39,2.14-11.97c-1.24-3.81-2.46-7.66-3.64-11.49c-0.32-1.06-0.67-2.1-0.96-3.17
					c-1.19-3.86-2.35-7.7-3.48-11.55c-1.3-4.38-2.56-8.8-3.79-13.21c-1.02-3.65-2.02-7.33-3.01-10.99c-0.35-1.29-0.67-2.6-1.02-3.89
					c-0.81-3.11-1.62-6.21-2.4-9.33c-0.3-1.25-0.63-2.49-0.94-3.77c-0.96-3.89-1.9-7.75-2.81-11.66c-0.04-0.17-0.1-0.34-0.12-0.48
					c-0.95-4.02-1.87-8.05-2.73-12.1c-1.16-5.12-2.26-10.25-3.3-15.39c-0.81-3.91-1.59-7.81-2.33-11.72
					c-0.13-0.57-0.22-1.13-0.32-1.71c-0.78-3.99-1.49-7.97-2.21-11.96c-0.08-0.28-0.13-0.57-0.15-0.87
					c-0.69-3.77-1.32-7.54-1.97-11.34c-0.97-5.75-1.86-11.53-2.71-17.3c-0.59-3.91-1.16-7.82-1.67-11.76
					c-0.43-3.01-0.84-6.05-1.21-9.08c-0.37-3.03-0.75-6.06-1.12-9.08c-0.37-3.03-0.71-6.04-1.03-9.09
					c-0.46-4.12-0.89-8.27-1.27-12.42c-0.13-0.97-0.24-1.96-0.28-2.94c-0.33-3.17-0.6-6.33-0.88-9.52
					c-0.16-1.93-0.32-3.86-0.45-5.77c-0.08-0.75-0.14-1.47-0.18-2.2c-0.22-2.71-0.41-5.44-0.6-8.16c-0.32-4.57-0.61-9.13-0.84-13.71
					c-0.21-3.65-0.39-7.28-0.56-10.92c-0.26-5.84-0.49-11.69-0.62-17.52c-0.09-3.67-0.19-7.33-0.25-11.01
					c-0.17-10.23-0.18-20.46-0.05-30.66c0.07-3.64,0.12-7.26,0.22-10.91c0.02-1.22,0.06-2.39,0.09-3.58
					c0.07-3.17,0.18-6.32,0.31-9.49c0.3-8.33,0.71-16.67,1.23-24.99c0.12-1.91,0.25-3.83,0.38-5.72c0.05-0.92,0.12-1.85,0.19-2.78
					c0.2-2.91,0.4-5.82,0.64-8.71c0.39-4.91,0.8-9.83,1.26-14.71c0.43-4.49,0.86-8.95,1.36-13.41c0.46-4.25,0.95-8.49,1.44-12.73
					c0.03-0.32,0.07-0.62,0.11-0.91c7.83-64.91-32.98-125.64-95.87-143.46c-1.09-0.32-2.17-0.62-3.26-0.94
					C901.04,2667.62,814.47,2735.4,818.67,2826.38z"/>
			</g>
			<g class="st49">
				<path d="M1117.68,3288c-3.1,0.13-6.3-0.89-9.01-3.53c-0.07-0.07-0.14-0.14-0.21-0.21c3.32,9.13-1.31,20.41-10.09,24.57
					c-0.49,0.23-0.99,0.43-1.5,0.62c-31.16-104.8-82.7-205.9-196.28-238.7c-9.32-2.74-18.13-3.85-26.52-3.68
					c-21.49-51.49-37.13-105.47-46.41-160.48C974.49,2962.98,1061.45,3132.89,1117.68,3288z"/>
			</g>
			<g class="st50">
				<path d="M818.67,2826.38c0.04,0.73,0.08,1.49,0.12,2.22c0.17,2.92,0.36,5.8,0.57,8.71c0.44,6.24,0.97,12.44,1.57,18.68
					c0.53,5.33,1.1,10.71,1.75,16.05c0.32,2.74,0.65,5.5,1.01,8.26c0.04,0.17,0.07,0.34,0.07,0.5c0.39,2.83,0.79,5.69,1.18,8.53
					c0.44,2.88,0.85,5.77,1.32,8.63c0.44,2.88,0.9,5.74,1.4,8.6c146.83,56.41,233.8,226.34,290.02,381.45
					c0.49-0.01,1-0.08,1.54-0.13c0.52-0.11,1.06-0.23,1.6-0.37c2.02-0.63,3.89-1.74,5.45-3.18c0.43-0.42,0.85-0.86,1.23-1.32
					c2.49-3.12,3.62-7.39,2.14-11.97c-1.24-3.81-2.46-7.66-3.64-11.49c-0.32-1.06-0.67-2.1-0.96-3.17
					c-1.22-3.85-2.35-7.7-3.48-11.55c-1.3-4.38-2.56-8.8-3.79-13.21c-1.02-3.65-2.02-7.33-3.01-10.99c-0.35-1.29-0.67-2.6-1.02-3.89
					c-0.81-3.11-1.62-6.21-2.4-9.33c-0.3-1.25-0.63-2.49-0.94-3.77c-0.96-3.89-1.9-7.75-2.81-11.66c-0.04-0.17-0.1-0.34-0.12-0.48
					c-0.95-4.02-1.87-8.05-2.73-12.1c-1.16-5.12-2.26-10.25-3.3-15.39c-0.81-3.91-1.59-7.81-2.33-11.72
					c-0.13-0.57-0.22-1.13-0.32-1.71c-0.77-3.96-1.52-7.96-2.21-11.96c-0.08-0.28-0.13-0.57-0.15-0.87
					c-0.69-3.77-1.32-7.54-1.97-11.34c-0.97-5.75-1.86-11.53-2.71-17.3c-0.59-3.91-1.16-7.82-1.67-11.76
					c-0.43-3.01-0.84-6.05-1.21-9.08c-0.4-3.02-0.77-6.04-1.12-9.08c-0.37-3.03-0.71-6.04-1.03-9.09
					c-0.46-4.12-0.89-8.27-1.27-12.42c-0.13-0.97-0.24-1.96-0.28-2.94c-0.33-3.17-0.6-6.33-0.88-9.52
					c-0.16-1.93-0.32-3.86-0.45-5.77c-0.08-0.75-0.14-1.47-0.18-2.2c-0.22-2.71-0.41-5.44-0.6-8.16c-0.32-4.57-0.61-9.13-0.84-13.71
					c-0.21-3.65-0.39-7.28-0.56-10.92c-0.26-5.84-0.49-11.69-0.62-17.52c-0.09-3.67-0.19-7.33-0.25-11.01
					c-0.17-10.23-0.18-20.46-0.05-30.66c0.07-3.64,0.12-7.26,0.22-10.91c0.02-1.22,0.06-2.39,0.09-3.58
					c0.07-3.17,0.18-6.32,0.31-9.49c0.3-8.33,0.71-16.67,1.23-24.99c0.12-1.91,0.25-3.83,0.38-5.72c0.05-0.92,0.12-1.85,0.19-2.78
					c0.2-2.91,0.4-5.82,0.64-8.71c0.39-4.91,0.8-9.83,1.26-14.71c0.43-4.49,0.86-8.95,1.36-13.41c0.46-4.25,0.92-8.48,1.44-12.73
					c0.03-0.32,0.07-0.62,0.11-0.91c7.83-64.91-32.98-125.64-95.87-143.46c-1.09-0.32-2.17-0.62-3.26-0.94
					C901.04,2667.62,814.47,2735.4,818.67,2826.38z"/>
			</g>
		</g>
		<g>
			<g>
				<path class="st45" d="M372.02,2667.62c4.1-15.68,10.07-31.08,17.71-45.92c16.46-31.98,40.72-61.31,70.95-85.15l75.52,90.83
					c-0.39,0.35-0.79,0.69-1.17,1.05c-13,12.18-20.28,29.52-18.13,45.81c1.04,7.98,3.72,15.59,7.66,22.79
					c9.98,18.33,28.03,34.01,47.95,46.47c1.64,1.02,3.3,2.02,4.96,3c25.55,15.08,54.33,26.3,84.55,33.41
					c45.21,10.64,93.67,12.13,139.52,3.6c5.36-0.98,10.67-2.11,15.94-3.38c26.01-6.24,50.39-15.46,73.95-26.26
					c45.9-21,88.56-48.01,133.59-70.69c2.52-1.27,5.07-2.55,7.64-3.78c25.06-12.26,51.27-23.24,78.28-32.46
					c38.68-13.2,79.04-22.81,120.15-27.39c23.27-2.6,46.78-3.58,70.36-2.71c10.16,0.38,20.32,1.15,30.44,2.29
					c86.85,9.78,170.3,47.41,215.88,108.54c35.29,47.34,45.43,105.41,34.16,160.35v0.02c-2.57,12.6-6.29,25.03-11.07,37.14
					c-9.85,24.93-23.93,48.49-41.29,70.4c-27.81,35.17-64.03,66.14-104.61,91.77c-14.26,9.02-29.07,17.39-44.35,25.13
					c-39.34,19.97-81.74,35.72-125.88,47.32c-68.96,18.13-142.18,26.13-214.6,24.17c-26.1-0.71-52.09-2.67-77.86-5.78
					c-60.06-7.22-118.98-20.7-175.57-39.25c-46.4-15.2-91.21-33.81-133.79-55.16c-53.42-26.79-104.01-58.31-147.6-95.06
					c-28.21-23.75-53.49-49.7-74.74-78c-4.49-5.98-8.79-12.08-12.88-18.28c-32.28-48.79-51.85-103.79-53.22-158.86
					C363.94,2711.47,366.33,2689.36,372.02,2667.62z"/>
			</g>
			<g>
				<path class="st47" d="M1231.09,2619.54c12.93,77.68,44.48,154.77,96.73,218.66c52.16,63.74,121.7,117.76,201.76,157.37
					c17.36-21.92,31.44-45.47,41.29-70.4c4.78-12.11,8.5-24.53,11.07-37.14v-0.02c-116.39-63.47-206.1-159.95-250.04-268.89
					c-10.12-1.15-20.28-1.91-30.44-2.29C1277.88,2615.95,1254.36,2616.94,1231.09,2619.54z"/>
			</g>
			<g>
				<path class="st47" d="M1071.49,2981.38c41.16,71.05,105.29,132.76,183.25,178.41c44.15-11.6,86.54-27.35,125.88-47.32
					c-88.16-51.96-160.31-122.27-207.25-202.67c-47.51-81.37-69.03-172.79-62.43-262.87c-27.01,9.22-53.22,20.21-78.28,32.46
					C1005.16,2779.93,1017.8,2888.61,1071.49,2981.38z"/>
			</g>
			<g>
				<path class="st47" d="M756.8,2997.84c2.21,47.87,12.42,95.42,29.91,141.09c56.59,18.55,115.5,32.03,175.57,39.25
					c-76.69-130.65-102.44-281.57-70.85-424.31c-23.56,10.8-47.93,20.02-73.95,26.26c-5.27,1.27-10.58,2.4-15.94,3.38
					C769.07,2851.49,753.39,2924.47,756.8,2997.84z"/>
			</g>
			<g>
				<path class="st47" d="M417.69,2892.43c4.1,6.2,8.39,12.29,12.88,18.28c21.25,28.3,46.54,54.25,74.74,78
					c35.69-76.84,89.16-148.11,156.7-208.8c-30.22-7.11-59-18.33-84.55-33.41c-1.66-0.98-3.32-1.98-4.96-3
					C508.95,2783.51,455.61,2834.63,417.69,2892.43z"/>
			</g>
			<g>
				<path class="st47" d="M364.47,2733.57c51.78-17.41,104.03-29.3,160.09-36.54c-3.94-7.2-6.62-14.8-7.66-22.79
					c-2.15-16.3,5.14-33.63,18.13-45.81c-46.63-12.26-97.17-14.4-145.3-6.73c-7.64,14.84-13.62,30.24-17.71,45.92
					C366.33,2689.36,363.94,2711.47,364.47,2733.57z"/>
			</g>
			<g class="st48">
				<path d="M372.02,2667.62c4.1-15.68,10.07-31.08,17.71-45.92c9.42-18.3,21.41-35.74,35.6-51.77
					c-40.51,163.61,27.02,342.61,176.39,422.44c139.1,74.9,288.91,115.03,444.07,104.33c189.15-13.67,386.02-72.05,532.81-194.87
					c-2.15,7.88-4.7,15.67-7.72,23.33c-9.85,24.93-23.93,48.48-41.29,70.4c-27.81,35.17-64.03,66.14-104.61,91.77
					c-14.26,9.02-29.07,17.39-44.35,25.13c-39.34,19.97-81.74,35.72-125.88,47.32c-68.96,18.13-142.18,26.13-214.6,24.17
					c-26.1-0.71-52.09-2.67-77.86-5.78c-60.06-7.22-118.98-20.7-175.57-39.25c-46.4-15.2-91.21-33.81-133.79-55.16
					c-53.42-26.79-104.01-58.31-147.6-95.06c-28.21-23.75-53.49-49.7-74.74-78c-4.49-5.98-8.79-12.08-12.88-18.28
					c-32.28-48.79-51.85-103.79-53.22-158.86C363.94,2711.47,366.33,2689.36,372.02,2667.62z"/>
			</g>
			<g class="st46">
				<path d="M425.33,2569.93c10.6-11.98,22.43-23.18,35.35-33.38l37.47,45.06c-67.3,110.42-2.25,256.68,103.57,330.5
					c168.53,117.7,371.84,115.03,567.12,85.6c88.28-10.7,163.18-61.53,227.38-123.05c55.78-51.13,86.43-130.08,85.19-206.19
					c26.32,16.19,49.07,35.99,66.37,59.18c35.29,47.34,45.43,105.41,34.16,160.35v0.02c-0.94,4.63-2.1,9.23-3.35,13.8
					c-146.79,122.82-343.67,181.19-532.81,194.87c-155.16,10.7-304.96-29.43-444.07-104.33
					C452.35,2912.53,384.82,2733.54,425.33,2569.93z"/>
			</g>
			<g class="st48">
				<path class="st41" d="M1257.54,2682.83c17.63-0.32,35.83,0.99,51.64,8.79c15.81,7.8,28.82,23.32,29.22,40.95
					c0.39,17.4-11.03,32.77-23.36,45.06c-32.08,31.98-73.33,53.16-115.38,70c-63.15,25.3-129.76,41.98-197.39,49.41
					c-34.07,3.75-68.69,5.14-102.5-0.49c-33.81-5.63-66.95-18.64-92.84-41.1c-8.82-7.66-24.28-25.12-15.32-37.97
					c6.79-9.74,22.67-4.49,32.61-4.69c35.3-0.71,72.18-13.27,105.2-24.83c70.26-24.58,136.47-59.52,207.28-82.63
					C1175.78,2692.58,1216.31,2683.59,1257.54,2682.83z"/>
			</g>
		</g>
	</g>
</g>
</svg>
