<svg width="84" height="80" viewBox="0 0 84 80" fill="none" xmlns="http://www.w3.org/2000/svg">
<path opacity="0.3" d="M75.0341 69.4095C73.4893 71.0295 72.0278 72.0742 70.8729 72.8997C57.2982 82.6023 41.2357 79.774 37.822 79.0832C32.7809 78.0634 23.0369 76.0919 15.992 67.839C5.33358 55.3534 6.9933 35.6824 15.2607 22.6974C16.7728 20.3221 24.7607 7.13923 40.9963 5.02514C50.8216 3.74601 62.2752 6.32637 70.5695 13.2486C87.9799 27.7791 86.7404 57.133 75.0341 69.4095Z" fill="url(#paint0_linear)"/>
<path d="M24.655 0.196042C24.8752 -0.177778 25.5117 0.0222039 25.5123 0.466098C25.5182 4.75654 25.9092 16.0385 29.6131 23.2395C35.6443 34.964 37.1096 51.1113 29.3067 56.5022C29.3067 56.5019 0.647141 40.9314 24.655 0.196042Z" fill="url(#paint1_linear)"/>
<path opacity="0.43" d="M23.9482 6.06882C23.9321 6.16881 23.9194 6.29549 23.9057 6.41165L23.8704 6.76795L23.8085 7.48244C23.7694 7.95894 23.7336 8.43599 23.701 8.91303C23.6361 9.86739 23.5877 10.8231 23.5454 11.7785C23.4622 13.6899 23.4137 15.6027 23.4086 17.5152C23.4051 19.4277 23.432 21.3402 23.5029 23.2511C23.575 25.1617 23.6854 27.0706 23.8475 28.9753C24.0193 30.8789 24.2153 32.7801 24.4749 34.6734C24.7431 36.5652 25.067 38.4486 25.4491 40.3201C25.8417 42.1892 26.2937 44.0464 26.8358 45.8783L27.2631 47.2459C27.3369 47.4728 27.4009 47.7035 27.4831 47.9277L27.7224 48.6029C28.0275 49.509 28.3956 50.3906 28.7429 51.2819L28.7443 51.2848C28.7588 51.3223 28.7405 51.3646 28.7031 51.3789C28.6665 51.3932 28.6255 51.3759 28.6099 51.3401L28.0367 50.0203L27.8948 49.6896C27.8468 49.5793 27.8075 49.4661 27.7636 49.3546L27.506 48.6824L27.2483 48.0102C27.1602 47.7868 27.0899 47.5574 27.01 47.331C26.8568 46.8764 26.6944 46.4241 26.5482 45.967C25.9747 44.1343 25.4913 42.2746 25.0673 40.4017C24.8702 39.4622 24.6741 38.5221 24.5137 37.5756C24.4291 37.1031 24.3419 36.6309 24.2727 36.1561L24.0527 34.7333C23.7859 32.8321 23.5651 30.9247 23.4097 29.012C23.2554 27.0989 23.1531 25.1827 23.0893 23.2653C23.0766 22.7859 23.0586 22.3067 23.0502 21.8272L23.0273 20.3888V18.9501C23.0292 18.4706 23.0384 17.9912 23.0435 17.5117C23.0766 15.5941 23.1437 13.6773 23.2627 11.7634C23.3262 10.8067 23.3957 9.85068 23.4816 8.89578C23.5255 8.41847 23.5699 7.94116 23.6219 7.46438L23.7051 6.74962L23.7511 6.39251C23.7697 6.2715 23.781 6.15965 23.8098 6.02435C23.8182 5.98554 23.8564 5.96048 23.8952 5.96883C23.9329 5.97692 23.9574 6.01303 23.9512 6.05076L23.9482 6.06882Z" fill="white"/>
<path d="M29.2012 66.4856C29.2012 66.4856 31.3236 59.1894 25.7725 48.9092C20.6219 39.3708 7.6513 16.9076 6.26727 6.65004C6.20586 6.19572 5.55217 6.07721 5.41433 6.49662C3.93721 10.996 1.19457 22.6351 6.06653 37.0627C12.349 55.6675 29.2012 66.4856 29.2012 66.4856Z" fill="url(#paint2_linear)"/>
<path opacity="0.45" d="M6.5731 15.8117C6.53551 16.0878 6.51484 16.3666 6.50067 16.6449C6.49248 16.784 6.48961 16.9238 6.48417 17.063L6.47754 17.4811C6.47206 18.0385 6.48854 18.5963 6.52439 19.1521C6.58914 20.2647 6.73538 21.3708 6.9179 22.4688C7.10153 23.5668 7.34108 24.6547 7.61949 25.7322C7.8989 26.8092 8.21463 27.8767 8.57705 28.9287C9.2941 31.0351 10.1547 33.0915 11.131 35.0909L11.4982 35.8403L11.8826 36.5809C12.1339 37.0774 12.408 37.562 12.6744 38.0501C13.2162 39.0237 13.7693 39.9949 14.3262 40.9616C15.4437 42.894 16.5867 44.8118 17.7466 46.7199C18.3261 47.6742 18.9135 48.6237 19.5025 49.5726L21.2713 52.4191C21.863 53.367 22.4532 54.3163 23.0353 55.2712C23.6166 56.2265 24.1972 57.1833 24.7483 58.1582C25.2998 59.1327 25.8347 60.1182 26.3157 61.1318C26.5551 61.639 26.7822 62.1526 26.9864 62.6758C27.1861 63.2007 27.3662 63.7331 27.514 64.2753C27.5236 64.3106 27.5029 64.347 27.4675 64.3568C27.4328 64.3663 27.3974 64.3465 27.3868 64.3126L27.3866 64.3118C27.222 63.7807 27.0259 63.26 26.8107 62.7473C26.5914 62.2361 26.3567 61.7317 26.1062 61.2348C25.604 60.2413 25.0481 59.2747 24.4748 58.3182C23.3275 56.4055 22.1089 54.5335 20.9078 52.6493C18.49 48.8904 16.1198 45.094 13.8849 41.2177C13.3273 40.2475 12.7681 39.2802 12.2303 38.2971C11.9641 37.8034 11.6908 37.3135 11.44 36.8112L11.0565 36.0621L10.6905 35.3043C10.441 34.8018 10.2175 34.2867 9.98387 33.7763C9.8696 33.5201 9.76416 33.2598 9.65371 33.002C9.54476 32.7434 9.43326 32.4859 9.33296 32.2238L9.02394 31.4409L8.73203 30.6513L8.58761 30.2559L8.45168 29.8576C8.36269 29.5915 8.26648 29.3278 8.18471 29.0592C7.50101 26.9215 6.96855 24.7325 6.65632 22.5098L6.5986 22.0932C6.57949 21.9544 6.56672 21.8146 6.55025 21.6753L6.50486 21.2573L6.46751 20.8382C6.4397 20.5594 6.42718 20.2788 6.40666 19.9995C6.39476 19.7194 6.37668 19.4399 6.37266 19.1594C6.34364 18.0401 6.37145 16.9142 6.55676 15.8092C6.55756 15.8047 6.56167 15.8017 6.5662 15.8025C6.5709 15.8028 6.57364 15.8072 6.5731 15.8117Z" fill="white"/>
<path opacity="0.6" d="M80.6931 65.764C80.6931 67.8739 72.2348 69.5787 61.7985 69.5787C51.3621 69.5787 42.9038 67.8739 42.9038 65.764C42.9038 63.6541 51.3621 61.9493 61.7985 61.9493C72.2348 61.9493 80.6931 63.6541 80.6931 65.764Z" fill="#C5C6C8"/>
<path d="M54.3389 55.29C54.4613 55.29 55.5822 55.2994 55.7047 55.3088C57.9558 55.4972 58.7282 57.381 58.7282 59.6793H49.959C49.9496 57.2491 51.9182 55.29 54.3389 55.29Z" fill="#3A5B9B"/>
<path d="M55.6382 55.29C58.0589 55.29 60.0275 57.2491 60.0275 59.6793H51.2583C51.2489 57.2491 53.2175 55.29 55.6382 55.29Z" fill="#138CCD"/>
<path opacity="0.5" d="M59.7545 59.4721C59.7545 59.4721 59.7639 59.3684 59.7451 59.1989C59.7262 59.0199 59.698 58.775 59.6132 58.4736C59.5661 58.3324 59.519 58.1722 59.4531 58.0121C59.3871 57.852 59.3118 57.6824 59.2082 57.5223C59.114 57.3528 59.001 57.1926 58.8785 57.0325C58.8126 56.9572 58.7467 56.8724 58.6807 56.8065C58.643 56.7688 58.6148 56.7311 58.5771 56.6934L58.4641 56.5898C58.3887 56.5145 58.304 56.458 58.2286 56.392C58.1438 56.3261 58.0591 56.2696 57.9837 56.2131C57.8989 56.1565 57.8142 56.1094 57.7294 56.0624C57.6446 56.0153 57.5598 55.9682 57.4751 55.9305C57.3903 55.8928 57.3055 55.8551 57.2208 55.8175C57.136 55.7892 57.0512 55.7515 56.9664 55.7233C56.8817 55.695 56.8063 55.6762 56.7216 55.6479C56.6462 55.6197 56.5708 55.6008 56.4955 55.582C56.4201 55.5631 56.3542 55.5443 56.2789 55.5349C56.2129 55.5255 56.147 55.516 56.0811 55.5066C55.9586 55.4878 55.855 55.469 55.7702 55.4595C55.5913 55.4407 55.4971 55.4313 55.4971 55.4313C55.4971 55.4313 55.6007 55.4501 55.7702 55.4784C55.855 55.4878 55.9586 55.516 56.0811 55.5443C56.2035 55.5631 56.3354 55.6008 56.4767 55.6479C56.552 55.6668 56.6274 55.6856 56.7027 55.7138C56.7781 55.7421 56.8628 55.7609 56.9382 55.7986C57.0135 55.8269 57.0983 55.8646 57.1831 55.8928C57.2679 55.9305 57.3526 55.9682 57.4374 56.0058C57.5222 56.0529 57.6069 56.0906 57.6917 56.1377C57.7765 56.1848 57.8518 56.2413 57.9366 56.2884C58.012 56.3449 58.0967 56.4014 58.1721 56.4674C58.2474 56.5333 58.3322 56.5898 58.3981 56.6652L58.5112 56.7688C58.5489 56.8065 58.5771 56.8441 58.6148 56.8724C58.6901 56.9383 58.7467 57.0231 58.8126 57.0985C58.935 57.2492 59.0481 57.4093 59.1423 57.5694C59.2364 57.7295 59.3212 57.8897 59.3871 58.0498C59.4625 58.2099 59.5096 58.3606 59.5567 58.5019C59.6415 58.7845 59.698 59.0388 59.7262 59.2083C59.7545 59.3684 59.7545 59.4721 59.7545 59.4721Z" fill="white"/>
<path d="M56.1 59.6699H49.1958V66.574H56.1V59.6699Z" fill="#742F8F"/>
<path d="M60.4896 59.6699H53.5854V66.574H60.4896V59.6699Z" fill="#9D4298"/>
<path opacity="0.5" d="M60.3197 62.6651C60.3291 62.2036 60.3386 61.7326 60.348 61.2711C60.348 60.8096 60.3668 60.3386 60.3668 59.8771V59.83H60.3197L58.8692 59.8206L57.4187 59.83C56.9383 59.83 56.4485 59.8394 55.9681 59.8488C55.7232 59.8488 55.4877 59.8582 55.2428 59.8582L54.5176 59.8771L55.2428 59.8959C55.4877 59.9053 55.7232 59.9053 55.9681 59.9053C56.4485 59.9147 56.9383 59.9147 57.4187 59.9242L58.8692 59.9336L60.3197 59.9242L60.2821 59.8677C60.2821 60.3292 60.2915 60.8001 60.3009 61.2617C60.3009 61.7326 60.3103 62.2036 60.3197 62.6651Z" fill="white"/>
<path d="M73.2052 59.5756H71.5098V66.3008H73.2052V59.5756Z" fill="#80B141"/>
<path d="M71.5946 59.5756H70.5962V66.3008H71.5946V59.5756Z" fill="#35A348"/>
<path d="M69.7482 62.2318H65.7168V66.2632H69.7482V62.2318Z" fill="#A82123"/>
<path d="M69.7482 58.1911H65.7168V62.2225H69.7482V58.1911Z" fill="#144982"/>
<path d="M70.9635 62.2318H66.9321V66.2632H70.9635V62.2318Z" fill="#EE3430"/>
<path d="M65.274 62.2507H61.2144V66.3103H65.274V62.2507Z" fill="#1288CA"/>
<path d="M65.274 58.1911H61.2144V62.2507H65.274V58.1911Z" fill="#F5B01B"/>
<path d="M66.4981 62.2507H62.4385V66.3103H66.4981V62.2507Z" fill="#10B0E7"/>
<path d="M66.4981 58.1911H62.4385V62.2507H66.4981V58.1911Z" fill="#FEDA00"/>
<path d="M68.6457 51.3622C64.8781 51.3622 61.8169 54.414 61.8169 58.1911H68.6457L70.1905 51.3622H68.6457Z" fill="#099E4B"/>
<path d="M62.2878 55.7044C61.9864 56.4768 61.8169 57.3151 61.8169 58.191H68.6457L69.2109 55.7044H62.2878Z" fill="#05AD4D"/>
<path d="M70.1906 51.3622C66.423 51.3622 63.3618 54.414 63.3618 58.1911H70.1906V51.3622Z" fill="#066333"/>
<path opacity="0.5" d="M69.9174 51.7013C69.9174 51.7013 69.9174 51.7955 69.9079 51.965C69.9079 52.1346 69.8985 52.37 69.8891 52.662C69.8891 52.9446 69.8797 53.2837 69.8703 53.6416C69.8703 53.9995 69.8608 54.3857 69.8608 54.7625C69.8608 55.1487 69.8608 55.5254 69.8703 55.8834C69.8703 56.2413 69.8797 56.5804 69.8891 56.8629C69.8891 57.1455 69.9079 57.3904 69.9079 57.56C69.9174 57.7295 69.9174 57.8237 69.9174 57.8237C69.9174 57.8237 69.9174 57.7295 69.9268 57.56C69.9268 57.3904 69.9456 57.1549 69.9456 56.8629C69.9456 56.5804 69.955 56.2413 69.9645 55.8834C69.9645 55.5254 69.9739 55.1393 69.9739 54.7625C69.9739 54.3763 69.9645 53.9995 69.9645 53.6416C69.9645 53.2837 69.955 52.9446 69.9456 52.662C69.9456 52.3795 69.9362 52.1346 69.9268 51.965C69.9174 51.7955 69.9174 51.7013 69.9174 51.7013Z" fill="white"/>
<path d="M78.7058 59.5757L72.3291 54.1409V59.5757H78.7058Z" fill="#FCC294"/>
<path d="M77.302 59.5757L72.3287 54.1409H70.9253V59.5757H77.302Z" fill="#843993"/>
<path d="M78.7058 59.5757L72.3291 54.1409V59.5757H78.7058Z" fill="#AC68AA"/>
<path opacity="0.5" d="M77.9523 59.246C77.9523 59.246 77.8675 59.1707 77.7356 59.0482C77.5944 58.9258 77.3966 58.7374 77.1517 58.5302C76.9068 58.3135 76.6242 58.0686 76.3228 57.8049C76.0119 57.5412 75.6917 57.2586 75.362 56.976C75.0324 56.7029 74.7027 56.4203 74.3919 56.1566C74.081 55.8928 73.789 55.6574 73.5347 55.4501C73.2898 55.2429 73.0732 55.0734 72.9225 54.9604C72.7718 54.8473 72.687 54.772 72.687 54.772C72.687 54.772 72.7624 54.8473 72.9037 54.9698C73.0449 55.0922 73.2427 55.2806 73.4876 55.4878C73.7325 55.7045 74.0151 55.9494 74.3259 56.2131C74.6368 56.4768 74.957 56.7594 75.2867 57.042C75.6163 57.3151 75.946 57.5977 76.2568 57.8614C76.5677 58.1252 76.8597 58.3606 77.1046 58.5679C77.3589 58.7751 77.5661 58.9446 77.7168 59.0577C77.8675 59.1801 77.9523 59.246 77.9523 59.246Z" fill="white"/>
<path d="M78.1029 59.5756H74.7026V66.3008H78.1029V59.5756Z" fill="#6DB7CA"/>
<path d="M74.7027 59.5756H73.855V66.3008H74.7027V59.5756Z" fill="#00A5C7"/>
<path opacity="0.5" d="M77.8295 59.8676L77.8107 60.6306C77.8012 60.8849 77.8012 61.1392 77.8012 61.3935L77.7918 62.1659V62.9288C77.7918 63.4374 77.7824 63.9461 77.7918 64.4547L77.8012 65.9806L77.8389 65.9429L76.6804 65.9618L76.1058 65.9712L75.5312 65.99L76.1058 66.0089L76.6804 66.0183L77.8389 66.0371H77.8766V65.9994L77.886 64.4735C77.886 63.9649 77.886 63.4563 77.886 62.9477V62.1847L77.8766 61.4218C77.8766 61.1674 77.8672 60.9131 77.8672 60.6588L77.8295 59.8676Z" fill="white"/>
<path d="M68.1753 65.3496C68.1753 66.6871 69.2585 67.7609 70.5866 67.7609C71.9241 67.7609 72.9979 66.6777 72.9979 65.3496C72.9979 64.0121 71.9147 62.9383 70.5866 62.9383C69.2585 62.9383 68.1753 64.0121 68.1753 65.3496Z" fill="#9D4298"/>
<path d="M69.1079 65.18C69.1079 66.169 69.9085 66.9696 70.8975 66.9696C71.8865 66.9696 72.6872 66.169 72.6872 65.18C72.6872 64.191 71.8865 63.3904 70.8975 63.3904C69.9085 63.3904 69.1079 64.191 69.1079 65.18Z" fill="#AC68AA"/>
<path opacity="0.5" d="M70.5864 63.5882C70.5864 63.5882 70.6147 63.5882 70.6712 63.5882C70.7277 63.5882 70.8031 63.5976 70.8973 63.607C70.9914 63.6165 71.0951 63.6447 71.2081 63.673C71.2646 63.6918 71.3211 63.7107 71.3776 63.7295C71.4341 63.7483 71.4907 63.7766 71.5472 63.8049C71.6037 63.8331 71.6508 63.8708 71.7073 63.899C71.7544 63.9367 71.8109 63.965 71.858 64.0027C71.9051 64.0403 71.9428 64.078 71.9899 64.1157C72.037 64.1534 72.0652 64.191 72.1029 64.2193C72.1312 64.257 72.1688 64.2852 72.1971 64.3135C72.2253 64.3417 72.2442 64.37 72.263 64.3888C72.3007 64.4265 72.3195 64.4548 72.3195 64.4548C72.3195 64.4548 72.3007 64.4265 72.2819 64.3794C72.263 64.3512 72.2536 64.3229 72.2348 64.2946C72.2159 64.257 72.1877 64.2287 72.1594 64.1816C72.1312 64.1439 72.1029 64.0968 72.0558 64.0592C72.0181 64.0215 71.9804 63.9744 71.9334 63.9367C71.8863 63.899 71.8392 63.8519 71.7826 63.8237C71.7261 63.7954 71.6696 63.7483 71.6131 63.7201C71.5566 63.6918 71.4907 63.6636 71.4341 63.6447C71.3776 63.6165 71.3117 63.607 71.2552 63.5882C71.1987 63.5694 71.1327 63.5694 71.0762 63.56C71.0197 63.5505 70.9632 63.5505 70.9161 63.5505C70.8219 63.5505 70.7371 63.56 70.6806 63.5694C70.6241 63.5788 70.5864 63.5882 70.5864 63.5882Z" fill="white"/>
<path d="M63.9368 62.8723H57.4282V65.1706H63.9368V62.8723Z" fill="#799D3E"/>
<path d="M65.472 62.8723H58.9634V65.1706H65.472V62.8723Z" fill="#A0CA3A"/>
<path opacity="0.5" d="M65.2646 64.8503C65.2741 64.5583 65.2835 64.2758 65.2835 63.9838L65.2929 63.1172V63.0796H65.2552C64.7654 63.0701 64.2662 63.0701 63.7764 63.0701H63.0417H62.3071C61.8173 63.0701 61.3181 63.0796 60.8283 63.0796C60.5834 63.0796 60.3385 63.089 60.0936 63.089L59.3589 63.1078L60.0936 63.1266C60.3385 63.1361 60.5834 63.1361 60.8283 63.1361C61.3181 63.1455 61.8173 63.1455 62.3071 63.1455H63.0417H63.7764C64.2662 63.1455 64.7654 63.1455 65.2552 63.1361L65.2176 63.0984L65.227 63.9649C65.2552 64.2758 65.2552 64.5583 65.2646 64.8503Z" fill="white"/>
<path d="M62.6087 65.1612H56.1001V67.4594H62.6087V65.1612Z" fill="#6A160E"/>
<path d="M64.1438 65.1612H57.6353V67.4594H64.1438V65.1612Z" fill="#C63228"/>
<path opacity="0.5" d="M63.9369 67.158C63.9464 66.866 63.9558 66.5835 63.9558 66.2915L63.9652 65.4249V65.3872H63.9275C63.4377 65.3778 62.9385 65.3778 62.4487 65.3778H61.7046H60.9605C60.4707 65.3778 59.9715 65.3872 59.4817 65.3872C59.2368 65.3872 58.9919 65.3966 58.747 65.3966L58.0029 65.4155L58.747 65.4343C58.9919 65.4437 59.2368 65.4437 59.4817 65.4437C59.9715 65.4532 60.4707 65.4532 60.9605 65.4532H61.7046H62.4487C62.9385 65.4532 63.4377 65.4532 63.9275 65.4437L63.8899 65.4061L63.8993 66.2726C63.9181 66.5834 63.9181 66.8754 63.9369 67.158Z" fill="white"/>
<path d="M51.4468 63.1266L48.8848 60.9414V63.1266H51.4468Z" fill="#FCC294"/>
<path d="M50.166 63.1266L48.885 60.9414H47.604V63.1266H50.166Z" fill="#F5B01B"/>
<path d="M51.4468 63.1266L48.8848 60.9414V63.1266H51.4468Z" fill="#FEDA00"/>
<path opacity="0.9" d="M51.0417 62.9383C51.0417 62.9383 51.0134 62.9101 50.9663 62.863C50.9192 62.8159 50.8439 62.7405 50.7591 62.6557C50.6743 62.571 50.5707 62.4768 50.4577 62.3732C50.3447 62.2696 50.2222 62.1659 50.0998 62.0623C49.9773 61.9587 49.8549 61.8551 49.7324 61.7609C49.6194 61.6667 49.5064 61.582 49.4122 61.5066C49.318 61.4313 49.2332 61.3747 49.1767 61.3277C49.1202 61.29 49.0825 61.2617 49.0825 61.2617C49.0825 61.2617 49.1108 61.29 49.1579 61.3371C49.205 61.3842 49.2803 61.4595 49.3651 61.5443C49.4499 61.6291 49.5535 61.7233 49.6665 61.8269C49.7795 61.9305 49.902 62.0341 50.0244 62.1377C50.1469 62.2413 50.2693 62.3449 50.3918 62.4391C50.5048 62.5333 50.6272 62.6181 50.7214 62.6934C50.8156 62.7688 50.9004 62.8253 50.9569 62.8724C51.004 62.9101 51.0417 62.9383 51.0417 62.9383Z" fill="white"/>
<path d="M49.8269 63.1266H46.3701V66.5834H49.8269V63.1266Z" fill="#8C191C"/>
<path d="M52.0217 63.1266H48.5649V66.5834H52.0217V63.1266Z" fill="#EE3430"/>
<path opacity="0.5" d="M51.8425 66.3857C51.8519 66.122 51.8614 65.8677 51.8708 65.6039L51.8896 64.8221C51.899 64.5584 51.8896 64.3041 51.899 64.0404C51.899 63.7766 51.9084 63.5223 51.899 63.2586V63.2115H51.8519H51.1643C50.9383 63.2115 50.7028 63.2115 50.4767 63.2209L49.7892 63.2303C49.5631 63.2397 49.3276 63.2397 49.1016 63.2492C49.3276 63.2586 49.5631 63.268 49.7892 63.268L50.4767 63.2774C50.7122 63.2868 50.9383 63.2868 51.1643 63.2868H51.8519L51.8048 63.2397C51.8048 63.5035 51.8048 63.7578 51.8048 64.0215C51.8048 64.2853 51.8048 64.5396 51.8143 64.8033L51.8331 65.5851C51.8237 65.8677 51.8331 66.122 51.8425 66.3857Z" fill="white"/>
<path d="M70.9253 58.1911H66.8657V62.2507H70.9253V58.1911Z" fill="#1162AE"/>
<path opacity="0.5" d="M67.8363 58.3889L68.2508 58.3795L69.0702 58.3606L69.8897 58.3512C70.1628 58.3512 70.436 58.3512 70.7186 58.3512H70.7656V58.3983C70.7656 58.8504 70.7656 59.3025 70.7562 59.7546L70.7468 60.4328C70.7374 60.6589 70.7374 60.8849 70.728 61.111C70.7185 60.8849 70.7091 60.6589 70.7091 60.4328L70.6997 59.7546C70.6903 59.3214 70.6903 58.8787 70.6903 58.4454C70.4266 58.4454 70.1722 58.4454 69.9179 58.4454L69.0985 58.436L68.279 58.4171L67.8646 58.4077L67.4219 58.3983L67.8363 58.3889Z" fill="white"/>
<path d="M12.4802 51.4564C12.6309 52.2853 12.8476 53.1142 13.1302 53.9148C13.3091 54.4234 13.5163 54.9226 13.7424 55.4124C14.3452 56.7123 15.1176 57.9273 16.0124 59.0482C16.5775 59.7546 17.1992 60.4234 17.8491 61.0545C18.4331 61.6196 19.0548 62.1471 19.6953 62.6369C20.3075 63.1078 20.948 63.5505 21.6073 63.9555C22.6905 64.6243 23.8302 65.1988 25.0076 65.6792C26.7784 66.3951 28.6434 66.8943 30.546 67.1109C30.612 67.1203 30.6779 67.1298 30.7344 67.1298C31.4503 67.2051 32.1755 67.2522 32.9008 67.2522C36.075 67.2616 39.2493 66.5269 42.0561 65.0576C42.2163 63.8708 42.2728 62.5709 42.4329 61.3841C40.1535 61.6384 37.8364 61.0074 35.8772 59.8017C35.3592 59.4815 34.86 59.1235 34.3984 58.7374C34.3608 58.7091 34.3231 58.6714 34.2854 58.6432C33.4754 57.9367 32.7501 57.1361 32.119 56.2601C31.5445 55.4689 31.0452 54.6118 30.6214 53.7264C30.2729 53.0106 29.9809 52.2759 29.7266 51.5223C29.6135 51.1927 29.5099 50.8536 29.4063 50.5239C29.1049 49.4878 28.8506 48.4329 28.5774 47.378C28.3043 46.3136 28.0029 45.2587 27.5979 44.2414C27.5696 44.1755 27.5508 44.119 27.5225 44.053C27.1928 43.2524 26.7878 42.4706 26.2886 41.7548C25.375 40.4173 24.1693 39.3152 22.6623 38.7783C20.4205 37.9871 17.8114 38.6182 15.9653 40.1064C14.1097 41.5946 12.97 43.8458 12.5085 46.1817C12.16 47.9243 12.1694 49.7139 12.4802 51.4564Z" fill="#D34A27"/>
<path d="M30.7441 67.1392C31.46 67.2145 32.1853 67.2616 32.9105 67.2616C33.5133 64.6431 34.5212 62.1188 35.887 59.8111C35.3689 59.4909 34.8697 59.133 34.4082 58.7468C34.3705 58.7185 34.3328 58.6808 34.2951 58.6526C32.4207 61.1015 31.1963 64.078 30.7441 67.1392Z" fill="#761A14"/>
<path d="M21.6172 63.965C22.7004 64.6337 23.8401 65.2083 25.0175 65.6886C26.6187 62.0529 29.0677 58.7939 32.1289 56.2696C31.5543 55.4784 31.0551 54.6212 30.6312 53.7358C28.3612 54.8944 26.3456 56.5521 24.7255 58.5207C23.3786 60.1314 22.3236 61.9869 21.6172 63.965Z" fill="#761A14"/>
<path d="M16.0122 59.0482C16.5774 59.7546 17.199 60.4233 17.8489 61.0544C20.2979 56.3355 24.48 52.5302 29.4061 50.5239C29.1047 49.4878 28.8504 48.4329 28.5773 47.3779C23.0483 49.3465 18.4329 53.6981 16.0122 59.0482Z" fill="#761A14"/>
<path d="M12.4805 51.4564L13.1304 53.9148C16.2293 48.7814 21.6264 45.108 27.5227 44.0625C27.1931 43.2619 26.788 42.4801 26.2888 41.7642C20.6468 43.0452 15.5982 46.5585 12.4805 51.4564Z" fill="#761A14"/>
<g opacity="0.3">
<path opacity="0.3" d="M36.5652 60.1973C38.3737 61.1392 40.4176 61.6195 42.4333 61.3935C42.2732 62.5803 42.2166 63.8801 42.0565 65.0669C39.2496 66.5363 36.066 67.2616 32.9012 67.2616C32.1759 67.2616 31.4506 67.2239 30.7348 67.1391C30.6689 67.1297 30.6029 67.1297 30.5464 67.1203C28.6438 66.8942 26.7788 66.4044 25.008 65.6886C23.8306 65.2082 22.6909 64.6336 21.6077 63.9649C20.9484 63.5599 20.3079 63.1172 19.6956 62.6462C19.2153 62.2789 18.7537 61.8927 18.311 61.4877C20.1666 62.9476 22.3424 63.9649 24.7443 64.3417C29.0111 65.0387 33.8054 63.4374 36.5652 60.1973Z" fill="#010101"/>
</g>
<g opacity="0.1">
<path opacity="0.1" d="M15.5702 40.4455C15.6927 40.3325 15.8245 40.2194 15.9564 40.1064C16.4933 39.6731 17.0867 39.3152 17.7272 39.0421C17.5576 39.4753 17.4352 39.9274 17.3504 40.3984C16.4274 45.5224 17.7084 50.9854 21.6267 54.5647C24.0662 56.8818 27.7962 58.0497 30.9798 56.6086C31.3189 56.4391 31.6486 56.2507 31.95 56.0341C32.0065 56.1094 32.0536 56.1848 32.1101 56.2695C32.7412 57.1455 33.457 57.9461 34.2765 58.6526C34.3142 58.6902 34.3519 58.7185 34.3895 58.7468C34.4178 58.775 34.4461 58.7939 34.4743 58.8127C32.8166 59.6792 30.9704 60.1973 29.1337 60.3292C23.0961 60.8472 16.6723 57.3056 15.0428 51.042C14.1103 47.4721 14.1479 43.6197 15.5702 40.4455Z" fill="#010101"/>
</g>
<g opacity="0.2">
<path opacity="0.2" d="M12.4992 46.1817C12.9325 44.0153 13.9404 41.9243 15.5699 40.4455C14.1382 43.6197 14.1099 47.4721 15.0424 51.042C16.6719 57.3056 23.0957 60.8472 29.1522 60.3292C30.9889 60.1973 32.835 59.6792 34.4928 58.8127C34.9355 59.18 35.397 59.5097 35.8868 59.8111C36.1129 59.9524 36.3389 60.0748 36.5744 60.1973C33.8052 63.428 29.0203 65.0387 24.7535 64.3417C22.3422 63.9649 20.1758 62.9477 18.3202 61.4877C18.1601 61.3464 18.0094 61.2051 17.8587 61.0639C17.1994 60.4328 16.5777 59.764 16.0126 59.0482C15.1177 57.9273 14.3454 56.7122 13.7426 55.4124C13.5165 54.9226 13.3093 54.4234 13.1303 53.9148C12.8477 53.1142 12.6311 52.2947 12.4804 51.4564C12.1696 49.7139 12.1602 47.9242 12.4992 46.1817Z" fill="#010101"/>
</g>
<g opacity="0.2">
<path opacity="0.2" d="M23.2463 40.2854C24.4802 41.086 25.4127 42.2917 26.0343 43.6198C26.656 44.9479 26.9856 46.3984 27.1646 47.8584C27.1929 48.1127 27.2211 48.367 27.174 48.6213C27.1269 48.8662 26.9856 49.1111 26.7596 49.2335C26.3357 49.4596 25.8177 49.1582 25.488 48.8097C24.5838 47.8584 24.2541 46.5114 23.5006 45.4377C22.4645 43.94 20.7408 43.1017 19.3939 41.8867C19.0171 41.5476 18.6498 41.1426 18.5273 40.6433C18.094 38.7313 21.061 39.3247 22.0029 39.6638C22.4456 39.8239 22.8601 40.0311 23.2463 40.2854Z" fill="white"/>
</g>
<path d="M36.4328 61.0545C36.4422 61.2523 36.461 61.4406 36.4893 61.6384C36.6306 62.7122 36.9979 63.7389 37.6573 64.6055C38.326 65.4908 39.2208 66.1219 40.2193 66.5835C41.5944 67.224 43.1768 67.5442 44.6839 67.7703C45.0607 67.8268 45.4374 67.8833 45.8142 67.9304C49.092 68.3637 52.4452 68.505 55.6571 67.7891C55.9491 67.7232 56.2411 67.6478 56.5331 67.5725C57.8329 67.2145 59.161 66.6588 59.9899 65.5945C60.9695 64.3323 61.0825 62.618 61.0166 61.0168C60.7999 56.1848 59.2929 51.5129 57.7858 46.907C52.7372 45.5978 47.9523 45.2963 42.7436 45.3717C42.4045 47.67 41.2271 49.761 40.012 51.739C38.7876 53.717 37.4877 55.695 36.8284 57.9273C36.6777 58.436 36.5647 58.9634 36.4987 59.4909C36.4328 60.0184 36.4045 60.5364 36.4328 61.0545Z" fill="#D34A27"/>
<g opacity="0.2">
<path opacity="0.2" d="M47.2554 59.9713C47.2271 59.943 47.1989 59.9054 47.1895 59.8583C47.2271 59.896 47.246 59.9336 47.2554 59.9713Z" fill="#010101"/>
</g>
<g opacity="0.2">
<path opacity="0.2" d="M46.4267 60.3951C46.4173 60.3763 46.4079 60.3669 46.3984 60.348C46.4173 60.3574 46.4173 60.3763 46.4267 60.3951Z" fill="#010101"/>
</g>
<path d="M40.2194 66.5835C41.5946 67.224 43.177 67.5442 44.684 67.7703C45.0608 67.8268 45.4375 67.8833 45.8143 67.9304C49.0921 68.3637 52.4453 68.505 55.6572 67.7891C56.3637 67.3087 56.9759 66.7059 57.428 65.9806C58.6243 64.0686 58.5677 61.6479 58.3511 59.4061C58.0308 56.0341 57.3998 52.6056 55.6478 49.7139C54.753 48.2351 53.4532 46.8599 51.7483 46.5491C50.2978 46.2854 48.4234 46.1912 47.2837 47.1142C46.1346 48.0373 45.2963 49.2806 44.5051 50.5239C43.6573 51.8709 42.8567 53.2461 42.0844 54.6307C40.7563 57.0419 39.8144 60.9603 39.7484 63.7201C39.7296 64.8598 39.9085 65.8017 40.2194 66.5835Z" fill="#761A14"/>
<path d="M54.5174 62.5898C54.687 62.1471 54.6964 61.7232 54.7152 61.2523C54.7247 61.0733 54.9601 61.0545 55.0167 61.2146C55.1862 61.6856 55.092 62.2413 54.913 62.6934C54.8189 62.9383 54.4327 62.8441 54.5174 62.5898Z" fill="#62120F"/>
<path d="M53.6611 59.2931C53.6799 59.1424 53.8871 59.1707 53.9342 59.2931C54.0755 59.7076 54.0378 60.1974 54.0002 60.6306C53.9813 60.8944 53.5669 60.8944 53.5951 60.6306C53.6234 60.1974 53.5951 59.7358 53.6611 59.2931Z" fill="#62120F"/>
<path d="M53.2462 64.4359C53.3969 63.9461 53.51 63.4469 53.5571 62.9383C53.5759 62.731 53.8773 62.7216 53.8867 62.9383C53.9056 63.4846 53.8302 64.0309 53.6324 64.5489C53.5476 64.775 53.1709 64.6808 53.2462 64.4359Z" fill="#62120F"/>
<g opacity="0.3">
<path opacity="0.3" d="M40.003 51.739C41.2275 49.761 42.3955 47.67 42.7345 45.3717C47.9433 45.2963 52.7376 45.5978 57.7768 46.907C58.2195 48.2539 58.6528 49.6103 59.0672 50.9761C52.8035 51.2398 46.5869 52.4548 40.7565 55.0828C39.4002 55.6667 38.1004 56.4391 36.9795 57.4187C37.6765 55.3936 38.8727 53.5663 40.003 51.739Z" fill="#010101"/>
</g>
<g opacity="0.15">
<path opacity="0.15" d="M36.4895 59.4909C36.5554 58.954 36.6684 58.436 36.8191 57.9274C36.8662 57.7578 36.9228 57.5789 36.9887 57.4093C38.1096 56.4297 39.4094 55.648 40.7657 55.0734C46.5961 52.4361 52.8033 51.221 59.0764 50.9667C59.3025 51.739 59.5285 52.502 59.7263 53.2743C54.2821 53.2084 48.6683 54.4612 44.1754 57.8143C42.8474 58.8128 41.6794 60.5553 42.2634 62.2225C43.3466 65.133 46.6715 65.9618 49.582 66.4611C52.6903 66.9508 55.8928 67.1675 58.888 66.5647C58.1816 67.0262 57.3527 67.3276 56.5333 67.5537C56.2413 67.6384 55.9493 67.7044 55.6573 67.7703C52.4548 68.4862 49.1016 68.3449 45.8144 67.9116C45.4376 67.8645 45.0608 67.808 44.6841 67.7515C43.177 67.5254 41.5946 67.2052 40.2194 66.5647C39.221 66.1031 38.3262 65.472 37.6574 64.5867C36.9981 63.7201 36.6308 62.7028 36.4895 61.6196C36.4612 61.4218 36.4424 61.2335 36.433 61.0357C36.4047 60.5365 36.433 60.0184 36.4895 59.4909Z" fill="#010101"/>
</g>
<path d="M45.6452 48.188C45.8242 51.805 46.4364 55.403 47.482 58.8693C47.5667 59.1424 47.6421 59.4438 47.5102 59.6981C47.3783 59.943 46.9168 59.9807 46.8509 59.7076C47.0204 59.8865 46.8603 60.2162 46.6625 60.3481C46.4553 60.4799 46.1444 60.3857 46.0503 60.1597C46.2104 60.4046 45.8336 60.706 45.5416 60.6966C45.2496 60.6871 45.0142 60.4705 44.8069 60.2633C41.303 56.6746 39.4475 51.5318 39.8619 46.5303C41.8211 47.1048 43.6861 47.6135 45.6452 48.188Z" fill="#761A14"/>
<path d="M44.7029 51.7107C44.7499 51.5223 45.0419 51.5788 45.0325 51.7672C45.0325 52.2853 45.0702 52.7468 45.2303 53.246C45.2963 53.4721 44.9289 53.6228 44.8441 53.3967C44.6275 52.8787 44.5521 52.2664 44.7029 51.7107Z" fill="#62120F"/>
<path d="M43.3188 50.6558C43.4224 51.1173 43.4601 51.5977 43.5072 52.0687C43.5354 52.3512 43.0927 52.3418 43.0645 52.0593C43.0174 51.6071 42.9609 51.1456 42.9703 50.6935C42.9703 50.4957 43.2717 50.458 43.3188 50.6558Z" fill="#62120F"/>
<path d="M44.0628 53.6416C44.2041 54.2162 44.3925 54.7625 44.6656 55.29C44.7975 55.5443 44.4019 55.7609 44.27 55.5066C43.978 54.9509 43.7708 54.3575 43.6672 53.7358C43.6295 53.4909 44.0063 53.3873 44.0628 53.6416Z" fill="#62120F"/>
<g opacity="0.2">
<path opacity="0.2" d="M45.7676 55.874C44.8634 52.8787 42.7064 49.8929 39.8147 48.546C39.7865 47.8772 39.8053 47.199 39.8618 46.5303C41.821 47.1048 43.686 47.6135 45.6451 48.188C45.8241 51.805 46.4363 55.403 47.4819 58.8693C47.5666 59.1424 47.642 59.4438 47.5101 59.6981C47.3971 59.9054 47.058 59.9619 46.9167 59.8206C46.9073 59.7829 46.8885 59.7452 46.8508 59.7076C46.8602 59.7547 46.879 59.7923 46.9167 59.8206C46.9638 59.9995 46.832 60.2444 46.6624 60.3575C46.474 60.4799 46.1915 60.4046 46.0784 60.2162C46.069 60.1974 46.069 60.1879 46.0502 60.1691C46.0596 60.1879 46.069 60.1974 46.0784 60.2162C46.1632 60.4517 45.8147 60.7154 45.5415 60.706C45.2495 60.6966 45.0141 60.4799 44.8068 60.2727L44.7974 60.2633C45.7017 58.9635 46.3045 57.4376 45.7676 55.874Z" fill="#010101"/>
</g>
<g opacity="0.1">
<path opacity="0.1" d="M43.8741 55.3277C43.4408 53.0671 41.9808 50.458 39.871 49.3937C39.8427 49.1111 39.8333 48.8379 39.8145 48.5554C42.7061 49.9023 44.8537 52.8881 45.7673 55.8834C46.3042 57.4375 45.692 58.9729 44.7971 60.2539C44.1943 59.6416 43.648 58.9729 43.1394 58.2758C43.7705 57.447 44.1001 56.4485 43.8741 55.3277Z" fill="#010101"/>
</g>
<path d="M54.6217 46.3047C54.3485 49.9122 53.6233 53.4915 52.493 56.9295C52.4082 57.2026 52.314 57.504 52.4459 57.7583C52.5778 58.0127 53.0299 58.0597 53.1052 57.7866C52.9357 57.9561 53.077 58.2952 53.2748 58.4365C53.4726 58.5778 53.7928 58.493 53.887 58.267C53.7175 58.5024 54.0942 58.8227 54.3862 58.8227C54.6782 58.8227 54.9231 58.6155 55.1303 58.4083C58.7378 54.9138 60.7253 49.8275 60.4521 44.8165C58.4741 45.3346 56.5903 45.7867 54.6217 46.3047Z" fill="#761A14"/>
<path d="M55.469 49.8646C55.4219 49.6762 55.1393 49.7233 55.1299 49.9117C55.1204 50.4298 55.0639 50.8913 54.8944 51.3905C54.819 51.6166 55.1864 51.7767 55.2806 51.5506C55.5066 51.0232 55.6008 50.4203 55.469 49.8646Z" fill="#62120F"/>
<path d="M56.8821 48.8379C56.7691 49.29 56.722 49.7798 56.6561 50.2413C56.6184 50.5239 57.0611 50.5239 57.0988 50.2413C57.1553 49.7892 57.2306 49.3371 57.2306 48.885C57.2306 48.6872 56.9292 48.6401 56.8821 48.8379Z" fill="#62120F"/>
<path d="M56.0531 51.805C55.9024 52.3795 55.6857 52.9164 55.4031 53.4439C55.2619 53.6982 55.648 53.9243 55.7893 53.6699C56.1002 53.1236 56.3168 52.5302 56.4392 51.918C56.4863 51.6637 56.119 51.5507 56.0531 51.805Z" fill="#62120F"/>
<g opacity="0.2">
<path opacity="0.2" d="M54.2823 53.9901C55.2713 51.0231 57.5036 48.0938 60.4329 46.8316C60.48 46.1629 60.48 45.4847 60.4423 44.8065C58.4643 45.3246 56.5899 45.7861 54.6119 46.3042C54.3388 49.9117 53.6135 53.4909 52.4832 56.9289C52.3984 57.202 52.3042 57.5034 52.4361 57.7577C52.5397 57.965 52.8788 58.0403 53.0295 57.899C53.0389 57.8614 53.0578 57.8237 53.0955 57.786C53.086 57.8331 53.0578 57.8708 53.0295 57.899C52.973 58.078 53.1049 58.3229 53.265 58.4359C53.4534 58.5678 53.736 58.5019 53.8584 58.3135C53.8678 58.2946 53.8772 58.2852 53.8867 58.2664C53.8772 58.2852 53.8678 58.2946 53.8584 58.3135C53.7642 58.5395 54.1033 58.8221 54.3764 58.8221C54.6684 58.8221 54.9133 58.6149 55.1206 58.4077L55.13 58.3982C54.2728 57.0796 53.7077 55.5348 54.2823 53.9901Z" fill="#010101"/>
</g>
<g opacity="0.1">
<path opacity="0.1" d="M56.1946 53.491C56.6938 51.2492 58.2197 48.6778 60.3578 47.67C60.3861 47.3874 60.4143 47.1142 60.4332 46.8317C57.5038 48.1032 55.2715 51.0232 54.2825 53.9902C53.7079 55.5349 54.2731 57.0796 55.1302 58.3889C55.7519 57.786 56.317 57.1455 56.8351 56.458C56.2417 55.6197 55.9403 54.6118 56.1946 53.491Z" fill="#010101"/>
</g>
<path d="M56.1567 18.6504C57.061 19.6112 57.8993 20.6096 58.6811 21.6363C60.7062 24.283 62.3639 27.1276 63.7485 30.1794C64.097 30.9423 64.4173 31.7147 64.7281 32.4964C64.6904 32.4117 66.3388 30.8481 66.4706 30.6315C68.816 27.0805 70.2759 23.8215 70.8505 21.2407C71.086 20.214 71.9337 16.8419 70.21 16.6065C67.9023 16.2956 65.3121 16.5782 63.0327 16.9456C58.3043 17.6897 56.2698 18.7729 56.1567 18.6504Z" fill="#FBE0D8"/>
<path d="M58.6812 21.6263C60.7063 24.273 62.364 27.1176 63.7486 30.1694C65.8302 27.1364 68.0437 22.7848 68.4676 21.2118C68.5712 20.8445 68.6654 20.4395 68.5147 20.0816C68.3734 19.7425 68.0249 19.5164 67.6575 19.4316C67.2902 19.3469 66.9134 19.394 66.5461 19.4411C63.8428 19.8272 61.2337 20.6467 58.6812 21.6263Z" fill="#4A1610"/>
<g opacity="0.3">
<path opacity="0.3" d="M56.1567 18.6498C56.3451 18.8476 56.5241 19.0454 56.703 19.2432C57.6826 18.9041 59.5759 18.2919 62.5994 17.8115C64.8223 17.463 67.3466 17.1804 69.5978 17.4819C71.2744 17.7079 70.4455 21.0046 70.2194 22.003C69.6543 24.5085 68.2414 27.6921 65.9432 31.1583C65.8584 31.2902 65.1802 31.9496 64.7093 32.4299L64.7375 32.4864C64.6998 32.4017 66.3482 30.8381 66.48 30.6215C68.8254 27.0705 70.2854 23.8115 70.8599 21.2306C71.0954 20.204 71.9431 16.8319 70.2194 16.5965C67.9117 16.2856 65.3215 16.5682 63.0421 16.9355C58.3043 17.6891 56.2698 18.7723 56.1567 18.6498Z" fill="#010101"/>
</g>
<g opacity="0.3">
<path opacity="0.3" d="M58.6812 21.6262C59.4724 21.3248 60.2636 21.0328 61.0642 20.7691C61.9025 22.2573 63.061 23.3499 65.0202 23.1804C66.1222 23.1333 67.1772 22.7471 68.1285 22.1725C67.3279 24.1506 65.4911 27.6262 63.7486 30.1693C62.364 27.1176 60.7063 24.273 58.6812 21.6262Z" fill="#010101"/>
</g>
<path d="M37.2623 21.8711C36.5276 22.9637 35.8495 24.0752 35.2372 25.2149C33.6548 28.1442 32.4586 31.2149 31.5732 34.455C31.3566 35.2556 31.1493 36.0751 30.9704 36.8946C30.9892 36.8004 29.1242 35.5194 28.9547 35.331C26.0725 32.1944 24.1227 29.1992 23.1431 26.7502C22.7569 25.7706 21.3818 22.5681 23.0489 22.0689C25.2718 21.4002 27.8809 21.2777 30.1886 21.2683C34.9923 21.2683 37.1681 22.0124 37.2623 21.8711Z" fill="#FBE0D8"/>
<path d="M35.2469 25.2149C33.6645 28.1442 32.4682 31.2148 31.5828 34.455C29.0491 31.7894 26.1763 27.8334 25.5075 26.3546C25.3474 26.0061 25.1873 25.6199 25.2815 25.2431C25.3662 24.8852 25.6771 24.6026 26.0256 24.4707C26.3741 24.3389 26.7509 24.32 27.1276 24.3106C29.8591 24.2447 32.5624 24.6497 35.2469 25.2149Z" fill="#4A1610"/>
<g opacity="0.3">
<path opacity="0.3" d="M37.2623 21.8711C37.1116 22.0972 36.9609 22.3138 36.8196 22.5399C35.8024 22.3609 33.8338 22.0501 30.7726 22.0595C28.5214 22.0595 25.9877 22.182 23.8119 22.8413C22.1918 23.3311 23.5293 26.4488 23.9061 27.4001C24.8574 29.7926 26.76 32.7031 29.5669 35.7643C29.6705 35.8773 30.4429 36.4236 30.9892 36.8286L30.9704 36.8946C30.9892 36.8004 29.1242 35.5194 28.9547 35.331C26.0725 32.1944 24.1227 29.1992 23.1431 26.7502C22.7569 25.7706 21.3818 22.5681 23.0489 22.0689C25.2718 21.4002 27.8809 21.2777 30.1886 21.2683C34.9923 21.2683 37.1681 22.0124 37.2623 21.8711Z" fill="#010101"/>
</g>
<g opacity="0.3">
<path opacity="0.3" d="M35.2466 25.2149C34.4177 25.0359 33.5888 24.8758 32.76 24.744C32.1666 26.3452 31.187 27.6074 29.2278 27.7486C28.1352 27.8711 27.0237 27.6639 25.9971 27.2494C27.0991 29.0767 29.4633 32.2227 31.5826 34.455C32.468 31.2243 33.6548 28.1442 35.2466 25.2149Z" fill="#010101"/>
</g>
<path d="M29.3504 45.8992C29.8307 46.681 30.7538 47.0295 31.6298 47.3027C31.6392 47.3027 31.6486 47.3121 31.658 47.3121C31.9971 47.4157 32.3362 47.5193 32.6753 47.6135C34.7098 48.1881 36.7914 48.5931 38.8919 48.8474C39.231 48.8851 39.5795 48.9227 39.9186 48.9604C46.1446 49.5444 52.5119 48.7344 58.4082 46.6245C60.066 46.0311 61.6955 45.3341 63.2308 44.4769C64.3046 43.8835 65.3407 43.2148 66.3108 42.4518C66.8948 41.9903 67.4694 41.4723 67.9026 40.8789C68.2135 40.455 68.4584 39.984 68.5808 39.4754C68.8916 38.185 68.4207 36.8569 67.9497 35.623C66.4238 31.5822 64.832 27.4849 62.3925 23.8868C60.358 20.8916 57.6641 18.3013 54.2356 16.9827C50.0535 15.3908 45.1933 15.8241 41.2372 17.7739C40.0128 18.3767 38.8636 19.1114 37.8087 19.9402C30.735 25.5446 29.6047 35.0296 29.0019 43.4408C28.9548 44.2791 28.9077 45.1834 29.3504 45.8992Z" fill="#D34A27"/>
<path d="M57.9939 38.0155C58.0599 38.5712 58.2953 39.0798 58.5873 39.5602C59.7647 41.4911 61.7333 42.7909 63.2309 44.4769C64.3047 43.8835 65.3408 43.2148 66.311 42.4518C66.895 41.9903 67.4695 41.4723 67.9028 40.8789C66.5936 39.3435 65.03 38.0343 63.3063 36.9982C62.3267 36.4142 61.2529 35.915 60.1132 35.8962C59.5104 35.8867 58.8699 36.0374 58.4555 36.4707C58.0787 36.8757 57.9374 37.4691 57.9939 38.0155Z" fill="#FBE0D8"/>
<path d="M31.6294 47.3121C31.6388 47.3121 31.6482 47.3215 31.6577 47.3215C31.9967 47.4251 32.3358 47.5287 32.6749 47.6229C34.7094 48.1975 36.791 48.6025 38.8915 48.8568C40.2478 46.4644 41.51 44.0154 42.1599 41.3593C42.3483 40.6057 42.4519 39.7392 41.9904 39.1175C41.6042 38.5995 40.8978 38.4017 40.2573 38.477C39.6168 38.5524 39.0328 38.8538 38.4771 39.1834C35.3876 41.039 32.9481 43.9495 31.6294 47.3121Z" fill="#FBE0D8"/>
<path d="M49.3279 18.452C49.8648 18.8947 50.2227 19.5729 50.4959 20.1946C50.6089 20.4677 50.1945 20.6278 50.072 20.3641C49.7989 19.7519 49.4127 19.2715 49.0548 18.7158C48.9417 18.5368 49.1584 18.3108 49.3279 18.452Z" fill="#BE3926"/>
<path d="M46.2953 17.6326C46.6909 17.9528 46.9923 18.3673 47.2089 18.8288C47.3314 19.0925 46.9264 19.2432 46.7945 18.9889C46.5873 18.5839 46.3141 18.2354 46.0315 17.8869C45.8903 17.7173 46.1351 17.5007 46.2953 17.6326Z" fill="#BE3926"/>
<path d="M48.6218 21.6357C48.829 21.9842 49.0268 22.3421 49.2246 22.7C49.3659 22.9544 48.942 23.1145 48.8102 22.8602C48.6218 22.5211 48.4428 22.1726 48.2733 21.8241C48.1697 21.6263 48.4993 21.4379 48.6218 21.6357Z" fill="#BE3926"/>
<path d="M44.9484 19.6012C45.3064 20.0062 45.5983 20.5054 45.8998 20.9575C46.0599 21.2024 45.6925 21.4756 45.5324 21.2307C45.2216 20.7597 44.8731 20.2888 44.6376 19.7802C44.534 19.5729 44.8166 19.4505 44.9484 19.6012Z" fill="#BE3926"/>
<path d="M46.9923 24.3012C47.2843 24.8758 47.5292 25.4786 47.7835 26.0626C47.8965 26.3263 47.4821 26.4959 47.3691 26.2227C47.1148 25.6293 46.8416 25.0453 46.6344 24.4331C46.5496 24.1976 46.8793 24.0846 46.9923 24.3012Z" fill="#BE3926"/>
<path d="M49.8367 26.4959C50.0533 26.9763 50.157 27.532 50.2982 28.0406C50.3736 28.3138 49.9592 28.4739 49.8838 28.2007C49.7425 27.6733 49.5447 27.127 49.4882 26.5807C49.4694 26.3734 49.7519 26.3169 49.8367 26.4959Z" fill="#BE3926"/>
<path d="M46.3235 27.2023C46.6437 27.6544 46.8321 28.2478 47.0582 28.7565C47.1712 29.0202 46.7567 29.1897 46.6343 28.9166C46.4082 28.408 46.1068 27.8711 45.9938 27.3248C45.9655 27.1552 46.2293 27.0704 46.3235 27.2023Z" fill="#BE3926"/>
<path d="M48.5937 29.2557C48.8197 29.8774 48.9893 30.5273 49.1588 31.1678C49.2341 31.4409 48.8291 31.6011 48.7538 31.3279C48.5748 30.6686 48.3864 30.0092 48.264 29.3311C48.2263 29.1427 48.5277 29.0767 48.5937 29.2557Z" fill="#BE3926"/>
<path d="M47.7741 31.7235C47.9814 32.185 48.1509 32.6466 48.311 33.1175C48.3958 33.3718 48.0096 33.5225 47.9248 33.2682C47.7647 32.7784 47.614 32.2886 47.501 31.7894C47.4633 31.6293 47.7082 31.5822 47.7741 31.7235Z" fill="#BE3926"/>
<path d="M49.6578 33.5508C49.7991 33.9558 49.931 34.3703 50.0628 34.7847C50.1476 35.0485 49.7426 35.2086 49.6578 34.9449C49.5259 34.5304 49.4035 34.116 49.2905 33.7015C49.2245 33.4566 49.573 33.3059 49.6578 33.5508Z" fill="#BE3926"/>
<path d="M44.0815 22.5494C44.2981 23.0392 44.6372 23.6137 44.7031 24.1412C44.722 24.3013 44.5242 24.3578 44.43 24.2448C44.251 24.0376 44.1568 23.7644 44.0438 23.5195C43.9213 23.2464 43.7989 22.9732 43.6764 22.7001C43.5634 22.4458 43.9684 22.2856 44.0815 22.5494Z" fill="#BE3926"/>
<path d="M41.3407 19.0266C41.8022 19.4222 42.1978 19.9214 42.4239 20.4865C42.5087 20.6843 42.1978 20.8727 42.0848 20.6749C41.8022 20.1851 41.4914 19.7424 41.0675 19.3657C40.8509 19.1773 41.124 18.8382 41.3407 19.0266Z" fill="#BE3926"/>
<g opacity="0.1">
<path opacity="0.1" d="M33.3628 25.1113C34.5025 23.1804 35.9531 21.4284 37.8275 19.9402C38.873 19.1114 40.0315 18.3767 41.256 17.7738C43.0833 16.8696 45.1084 16.295 47.1618 16.0878C46.4083 16.653 45.7018 17.2935 45.0707 17.934C42.65 20.3641 41.0676 23.5477 41.435 27.014C42.0566 32.882 47.3973 38.2603 53.416 38.2886C58.4082 38.2509 63.3061 36.2164 66.8759 32.7973C67.1867 33.5791 67.4881 34.3703 67.7801 35.152C64.7849 39.1646 59.7457 41.7171 54.8289 42.2352C47.6422 43.0829 39.5794 41.1802 34.9829 34.8883C32.873 31.959 32.4963 28.3891 33.3628 25.1113Z" fill="#010101"/>
</g>
<g opacity="0.2">
<path opacity="0.2" d="M33.3626 25.1113C32.4961 28.3892 32.8728 31.959 34.9921 34.9072C39.5886 41.1897 47.6514 43.1018 54.8381 42.254C59.7549 41.736 64.7941 39.1834 67.7893 35.1709C67.8459 35.3216 67.9024 35.4723 67.9589 35.623C68.4204 36.8569 68.9008 38.1944 68.59 39.4754C68.5052 39.8428 68.3545 40.1818 68.1661 40.5021C65.4628 42.3482 62.4958 43.7799 59.2557 44.4675C49.2432 46.5115 37.4505 46.8976 29.3501 39.5696C29.8681 34.521 30.8383 29.3782 33.3626 25.1113Z" fill="#010101"/>
</g>
<g opacity="0.3">
<path opacity="0.3" d="M29.0112 43.4408C29.1054 42.1693 29.209 40.8694 29.3409 39.5602C37.4413 46.8882 49.234 46.502 59.2464 44.4581C62.4866 43.7799 65.4442 42.3482 68.1569 40.4927C68.0815 40.6245 67.9968 40.747 67.9026 40.8694C67.4693 41.4628 66.8947 41.9809 66.3108 42.4424C65.3406 43.2054 64.3139 43.8741 63.2307 44.4675C61.6954 45.3152 60.0659 46.0217 58.4081 46.6151C52.5118 48.7249 46.1445 49.535 39.9185 48.951C37.4695 48.7249 35.0394 48.2728 32.6752 47.6135C32.3361 47.5193 31.9971 47.4157 31.658 47.3121C30.7726 47.0389 29.8401 46.681 29.3503 45.8992C28.9076 45.1834 28.9547 44.2791 29.0112 43.4408Z" fill="#010101"/>
</g>
<g opacity="0.15">
<path opacity="0.15" d="M50.8823 17.4065C52.0409 17.5478 53.1429 17.9528 54.2073 18.4426C55.7237 19.149 57.1648 20.0532 58.3705 21.2118C59.5761 22.3703 60.5557 23.7926 61.102 25.375C61.2621 25.846 61.3846 26.4017 61.1397 26.835C60.876 27.3059 60.2637 27.4849 59.7268 27.3907C59.1994 27.2965 58.7284 26.9951 58.2763 26.6937C54.7441 24.3107 51.4004 21.6639 48.066 19.0266C47.4538 18.5368 47.256 17.9057 48.1131 17.6325C48.9985 17.3311 49.9593 17.284 50.8823 17.4065Z" fill="white"/>
</g>
<path d="M53.67 31.3562C53.8584 31.5445 54.0373 31.7706 54.1315 32.0249C54.2257 32.2792 54.2446 32.5712 54.1315 32.8161C53.9902 33.1364 53.6511 33.3342 53.3026 33.3813C52.9541 33.4284 52.6056 33.3342 52.2948 33.1835C51.7768 32.948 51.3246 32.5806 50.995 32.1191C50.6182 31.5916 50.4958 30.4614 51.3812 30.3766C52.1818 30.2824 53.1143 30.8099 53.67 31.3562Z" fill="#FBE0D8"/>
<path d="M51.3812 30.3672H51.3906C51.2681 30.7346 51.2775 31.1867 51.3906 31.5541C51.6731 32.4865 52.502 33.2306 53.4063 33.3531C53.3686 33.3625 53.3403 33.3719 53.3026 33.3719C52.9541 33.419 52.6056 33.3248 52.2948 33.1741C51.7768 32.9387 51.3246 32.5713 50.995 32.1098C50.6182 31.5823 50.4958 30.4614 51.3812 30.3672Z" fill="#EEC3BE"/>
<path d="M44.1098 32.543C43.9591 32.769 43.8367 33.0233 43.799 33.2871C43.7613 33.5602 43.799 33.8428 43.9685 34.0689C44.1758 34.3514 44.5431 34.4739 44.8916 34.4456C45.2401 34.4174 45.5604 34.2478 45.8429 34.0406C46.295 33.7015 46.6624 33.24 46.8885 32.7219C47.1428 32.1191 47.0297 30.9982 46.1443 31.0924C45.3343 31.1772 44.5337 31.8931 44.1098 32.543Z" fill="#FBE0D8"/>
<path d="M46.1444 31.0924H46.135C46.3328 31.4221 46.4176 31.8648 46.3799 32.2604C46.2951 33.2306 45.6452 34.1348 44.7881 34.4456C44.8258 34.4456 44.8634 34.4456 44.8917 34.4456C45.2402 34.4174 45.5604 34.2478 45.843 34.0406C46.2951 33.7015 46.6625 33.24 46.8885 32.7219C47.1429 32.1191 47.0204 30.9982 46.1444 31.0924Z" fill="#EEC3BE"/>
<path d="M52.0602 35.7266C52.032 35.8585 51.9566 36.0092 51.8342 36.0563C51.7211 36.1034 51.5893 36.0751 51.4856 36.0092C51.3915 35.9338 51.3161 35.8302 51.269 35.7172C51.1842 35.5194 51.1466 35.2933 51.1654 35.0673C51.1937 34.7847 51.4386 34.455 51.7494 34.6434C52.0602 34.8412 52.1356 35.3969 52.0602 35.7266Z" fill="#4A1610"/>
<g opacity="0.3">
<path opacity="0.3" d="M51.1652 35.0673C51.1746 34.9448 51.2311 34.8224 51.3065 34.7282C51.2217 35.218 51.5043 35.7361 51.9564 35.9527C51.9187 35.9904 51.881 36.028 51.8339 36.0469C51.7209 36.094 51.589 36.0657 51.4854 35.9998C51.3912 35.9244 51.3159 35.8208 51.2688 35.7078C51.1746 35.5194 51.1463 35.2934 51.1652 35.0673Z" fill="#010101"/>
</g>
<path d="M48.1413 36.2823C48.113 36.4142 48.0377 36.5649 47.9152 36.612C47.8022 36.6591 47.6703 36.6308 47.5667 36.5649C47.4725 36.4896 47.3972 36.386 47.3501 36.2729C47.2653 36.0751 47.2276 35.8491 47.2465 35.623C47.2747 35.3404 47.5196 35.0108 47.8304 35.1991C48.1507 35.3969 48.2166 35.9527 48.1413 36.2823Z" fill="#4A1610"/>
<g opacity="0.3">
<path opacity="0.3" d="M47.2465 35.6324C47.2559 35.51 47.3124 35.3875 47.3877 35.2933C47.303 35.7831 47.5855 36.3012 48.0377 36.5178C48 36.5555 47.9623 36.5932 47.9152 36.612C47.8022 36.6591 47.6703 36.6308 47.5667 36.5649C47.4725 36.4896 47.3972 36.3859 47.3501 36.2729C47.2653 36.0751 47.2276 35.8491 47.2465 35.6324Z" fill="#010101"/>
</g>
<path d="M52.5585 37.1678C53.6229 37.9119 54.4706 39.0422 54.8756 40.1065C55.1488 40.8129 55.2995 41.5665 55.2524 42.3106C55.064 45.2305 51.6072 46.1912 49.1771 45.9558C49.1394 45.9558 49.1111 45.9463 49.0735 45.9463C47.7548 45.7956 46.3325 45.2022 45.6449 44.006C44.9102 42.725 45.1928 41.218 45.8239 39.9558C46.4267 38.7596 47.3309 37.5822 48.5177 36.9134C49.3937 36.4236 50.4016 36.2729 51.3717 36.5838C51.4753 36.6214 51.5789 36.6497 51.6826 36.6968C51.984 36.8098 52.2854 36.9794 52.5585 37.1678Z" fill="#FBE0D8"/>
<g opacity="0.5">
<path opacity="0.5" d="M46.4458 38.882C46.9921 38.0814 47.6892 37.3656 48.5086 36.904C48.6405 36.8287 48.7818 36.7628 48.9136 36.7062C48.2637 37.2149 47.7551 37.893 47.529 38.6089C46.9733 40.4268 48.1507 42.141 49.8273 42.9605C51.4003 43.6293 53.4913 43.5727 54.4991 42.0469C54.7629 41.6795 54.9607 41.2651 55.102 40.8412C55.2244 41.3216 55.2809 41.8208 55.2433 42.32C55.1867 43.1677 54.8571 43.8459 54.3579 44.3828C53.9623 44.59 53.5384 44.7501 53.124 44.8726C50.854 45.5319 48.584 44.6842 47.1334 42.8286C46.248 41.6418 46.0691 40.1819 46.4458 38.882Z" fill="#EEC3BE"/>
</g>
<path d="M45.824 39.9464C46.0029 39.5884 46.2102 39.2211 46.4551 38.882C46.0783 40.1819 46.2573 41.6418 47.1521 42.8286C48.6026 44.6842 50.8632 45.5319 53.1426 44.8725C53.557 44.7501 53.9809 44.59 54.3765 44.3828C53.152 45.692 50.9197 46.1347 49.1866 45.9557C49.1489 45.9557 49.1207 45.9463 49.083 45.9463C47.7643 45.7956 46.342 45.2022 45.6544 44.006C44.9103 42.725 45.1835 41.2179 45.824 39.9464Z" fill="#EEC3BE"/>
<path d="M46.888 41.6324C47.2459 42.2729 47.9241 42.5178 48.6022 42.1882C49.2239 41.8868 49.6101 41.218 50.2506 40.9637C50.3071 40.9354 50.373 40.926 50.4295 40.9166C50.4201 40.4362 50.4295 39.9653 50.4013 39.4849C50.3636 38.9857 50.3071 38.4865 50.2223 37.9873C50.2035 37.8931 50.3542 37.8742 50.373 37.9684C50.4672 38.477 50.5237 38.9951 50.5614 39.5131C50.5897 39.9747 50.6179 40.4456 50.5708 40.9072C50.9947 40.8978 51.362 41.2086 51.767 41.3781C52.4735 41.6795 53.227 41.2839 53.5096 40.6058C53.5284 40.5681 53.5849 40.5869 53.5755 40.6246C53.4531 41.105 53.0857 41.4723 52.6053 41.5853C52.059 41.7266 51.6352 41.4817 51.1736 41.2368C50.9005 41.0861 50.6179 41.0014 50.3071 41.1238C50.0057 41.2463 49.7702 41.4912 49.5347 41.7078C49.1109 42.094 48.6305 42.499 48.0277 42.5273C47.4814 42.5461 47.001 42.1976 46.7561 41.7266C46.709 41.6324 46.8409 41.5571 46.888 41.6324Z" fill="#4A1610"/>
<path d="M51.1174 37.1018C51.2022 37.1301 51.2775 37.1584 51.3434 37.2149C51.4094 37.2714 51.4565 37.3467 51.4565 37.4315C51.4565 37.5069 51.4188 37.5634 51.3717 37.6199C51.1833 37.8648 50.8819 37.9967 50.5805 38.0626C50.053 38.1756 49.4879 38.1003 48.9981 37.8554C48.8945 37.7989 48.7815 37.7329 48.7344 37.6293C48.5366 37.2243 49.4502 37.0547 49.6951 37.0076C50.1661 36.9229 50.6653 36.9511 51.1174 37.1018Z" fill="#4A1610"/>
<g opacity="0.1">
<path opacity="0.1" d="M49.5067 37.0453C49.6669 37.2431 49.8835 37.4032 50.1755 37.488C50.5711 37.5728 51.0044 37.4597 51.3058 37.1866C51.3152 37.196 51.334 37.2054 51.3434 37.2148C51.3717 37.2337 51.3905 37.2619 51.4094 37.2902C50.6653 37.8271 49.648 37.8271 49.0923 37.1583C49.2336 37.1112 49.3843 37.0735 49.5067 37.0453Z" fill="#010101"/>
</g>
<g opacity="0.2">
<path opacity="0.2" d="M49.0919 37.1677C49.6477 37.8365 50.6743 37.8365 51.409 37.2996C51.4373 37.3373 51.4561 37.3938 51.4467 37.4409C51.4467 37.4691 51.4373 37.4974 51.4279 37.5257C51.004 37.8271 50.4294 37.9401 49.8831 37.9495C49.4028 37.9495 49.0354 37.6952 48.7905 37.3373C48.8753 37.2619 48.9789 37.2054 49.0919 37.1677Z" fill="#010101"/>
</g>
<g opacity="0.3">
<path opacity="0.3" d="M48.8003 37.3279C49.0452 37.6859 49.4126 37.9402 49.8929 37.9402C50.4392 37.9402 51.0138 37.8177 51.4377 37.5163C51.4188 37.554 51.4 37.5917 51.3717 37.6199C51.1834 37.8648 50.8819 37.9967 50.5805 38.0626C50.0531 38.1757 49.4879 38.1003 48.9981 37.8554C48.8945 37.7989 48.7815 37.733 48.7344 37.6294C48.6779 37.5069 48.7156 37.4127 48.8003 37.3279Z" fill="#010101"/>
</g>
<g opacity="0.3">
<path opacity="0.3" d="M50.5425 37.0548C50.6743 37.0736 50.8062 37.1018 50.9192 37.1584C50.9475 37.1772 50.9852 37.196 50.9757 37.2337C50.9757 37.262 50.9475 37.2808 50.9192 37.2902C50.8627 37.3185 50.7874 37.3279 50.7214 37.3279C50.4483 37.3467 50.1751 37.3185 49.9114 37.2337C49.8549 37.2149 49.7984 37.196 49.7607 37.1489C49.7513 37.1301 49.7324 37.1113 49.7324 37.0924C49.7324 37.0359 49.7889 37.0453 49.8266 37.0359C49.8831 37.0265 49.9396 37.0265 49.9962 37.0171C50.1092 37.0077 50.2222 37.0077 50.3447 37.0171C50.42 37.0359 50.4859 37.0453 50.5425 37.0548Z" fill="white"/>
</g>
<path d="M52.8417 42.9981C52.7381 43.1017 52.6251 43.1959 52.5121 43.2901C51.7397 43.8835 50.7507 44.1567 49.7805 44.1002C49.0458 44.0625 48.3112 43.8364 47.7178 43.4032C47.3975 43.1677 47.1149 42.8757 46.9077 42.546C48.6973 41.5382 51.1557 41.8207 52.8417 42.9981Z" fill="#EC1D24"/>
<path d="M46.5211 41.6041C46.5871 41.9338 46.7189 42.254 46.9073 42.546C48.6969 41.5382 51.1553 41.8208 52.8413 42.9981C53.4253 42.4142 53.8115 41.6324 53.8586 40.8035C53.8774 40.5398 53.8586 40.1253 53.4912 40.05C53.2558 39.9935 53.0297 40.05 52.7283 40.1347C52.5211 40.1913 52.2668 40.2666 51.9559 40.342C51.3249 40.4738 50.4206 40.5774 49.0172 40.455C48.9418 40.4456 48.8665 40.4362 48.7911 40.4267C48.518 40.3891 48.3107 40.3231 48.1224 40.2572C47.6797 40.0971 47.4536 39.9275 47.1522 40.0406C46.8602 40.1442 46.6436 40.4079 46.5494 40.6999C46.4552 40.9825 46.4646 41.3027 46.5211 41.6041Z" fill="#C42026"/>
<path d="M52.3801 41.1614C52.2953 41.1143 52.154 40.8223 52.041 40.5303C52.2577 40.4927 52.4649 40.4644 52.6721 40.4173C52.5873 40.8129 52.4649 41.2085 52.3801 41.1614Z" fill="white"/>
<path d="M52.7377 40.1347C52.7189 40.2289 52.7 40.3231 52.6718 40.4267C52.4645 40.4644 52.2479 40.502 52.0407 40.5397C52.0124 40.4738 51.9842 40.4079 51.9653 40.3419C52.2762 40.2666 52.5211 40.1912 52.7377 40.1347Z" fill="#EAE8E7"/>
<path d="M48.1226 40.2477C48.3015 40.3137 48.5182 40.3796 48.7913 40.4173C48.7725 40.4644 48.7442 40.5115 48.7254 40.568C48.537 40.5303 48.3486 40.4832 48.1697 40.4267C48.1508 40.3608 48.1414 40.3043 48.1226 40.2477Z" fill="#EAE8E7"/>
<path d="M48.7256 40.568C48.5938 40.8506 48.4337 41.1331 48.3866 41.1237C48.33 41.1049 48.2453 40.7658 48.1699 40.4267C48.3489 40.4832 48.5373 40.5303 48.7256 40.568Z" fill="white"/>
<g opacity="0.3">
<path opacity="0.3" d="M46.5212 41.6041C46.5871 41.9338 46.719 42.254 46.9073 42.546C47.124 42.8757 47.3971 43.1677 47.7174 43.4032C47.8775 43.5256 48.0565 43.6198 48.2354 43.714C48.113 43.6481 48 43.5821 47.8869 43.4974C47.5855 43.2807 47.3124 42.9981 47.1146 42.6779C46.9356 42.4047 46.8132 42.1033 46.7472 41.7831C46.6907 41.4911 46.6813 41.1897 46.7755 40.9071C46.8697 40.6245 47.0769 40.3796 47.35 40.276C47.6326 40.1724 47.8493 40.3325 48.2731 40.4832C48.4427 40.5398 48.6499 40.6057 48.9042 40.6434C48.9701 40.6528 49.0455 40.6622 49.1208 40.6716C50.4583 40.7941 51.3155 40.6999 51.9277 40.568C52.2291 40.5021 52.4646 40.4362 52.6624 40.3702C52.9544 40.2854 53.171 40.2384 53.3877 40.2854C53.7362 40.3608 53.7456 40.7564 53.7362 41.0107C53.7079 41.5005 53.5572 41.9809 53.3029 42.4047C53.6137 41.9244 53.8115 41.3686 53.8492 40.8035C53.868 40.5398 53.8492 40.1253 53.4819 40.05C53.2464 39.9935 53.0203 40.05 52.7189 40.1347C52.5117 40.1913 52.2574 40.2666 51.9466 40.342C51.3155 40.4738 50.4112 40.5774 49.0078 40.455C48.9324 40.4456 48.8571 40.4362 48.7817 40.4267C48.5086 40.3891 48.3014 40.3231 48.113 40.2572C47.6703 40.0971 47.4442 39.9275 47.1428 40.0406C46.8508 40.1442 46.6342 40.4079 46.54 40.6999C46.4552 40.9825 46.4646 41.3027 46.5212 41.6041Z" fill="#010101"/>
</g>
<path d="M54.8948 60.4144C54.9607 60.2354 55.0455 60.047 55.1303 59.8681C55.3563 59.4065 55.6766 58.9827 56.2041 58.9073C56.6468 58.8414 57.2119 59.0015 57.3343 59.4819C57.5981 59.0957 58.1256 58.9167 58.5682 59.0675C59.0109 59.2182 59.3218 59.6891 59.2841 60.1601C59.7456 59.6797 60.4992 59.6138 60.9324 60.1224C61.7896 61.1208 61.5729 64.3987 59.2182 66.6404C58.3328 67.4787 57.0706 68.317 55.799 68.1851C54.3768 68.0438 53.6515 66.7346 53.7834 65.4159C53.8587 64.5965 54.1036 63.7864 54.2637 62.9858C54.4333 62.1098 54.584 61.2338 54.8948 60.4144Z" fill="#761A14"/>
<path d="M56.1287 63.2021C57.0235 62.9666 57.956 63.3245 58.3798 64.1722C58.7566 64.9164 58.587 65.8206 58.0972 66.4705C57.7864 66.8849 57.3249 67.2052 56.8163 67.2805C55.9685 67.403 55.1114 66.8473 54.7346 66.1032C54.4426 65.5286 54.405 64.8222 54.7252 64.257C55.0172 63.7295 55.5541 63.3528 56.1287 63.2021Z" fill="#A12B24"/>
<g opacity="0.07">
<path opacity="0.07" d="M55.7419 63.3434C55.8643 63.2868 55.9962 63.2397 56.1281 63.2021C56.1563 63.1926 56.1752 63.1926 56.2034 63.1832C55.9868 63.3528 55.8078 63.5506 55.6948 63.8237C55.4216 64.549 55.5158 65.4532 56.2411 65.9995C56.9664 66.4516 57.7764 66.2727 58.4169 65.8206C58.4358 65.8017 58.4546 65.7829 58.4828 65.7641C58.3981 66.0184 58.2756 66.2633 58.1061 66.4705C58.0213 66.5835 57.9271 66.6777 57.8329 66.7719C56.8722 67.0168 55.7419 66.64 55.3463 65.7264C54.9601 64.8598 55.1956 63.9744 55.7419 63.3434Z" fill="#010101"/>
</g>
<g opacity="0.15">
<path opacity="0.15" d="M54.7155 64.257C54.9416 63.852 55.3183 63.5411 55.7422 63.3433C55.1959 63.9744 54.9604 64.8598 55.3277 65.7263C55.7328 66.64 56.863 67.0168 57.8144 66.7719C57.5318 67.0356 57.1833 67.224 56.8065 67.2805C55.9588 67.4029 55.1017 66.8472 54.7249 66.1031C54.4423 65.5285 54.3952 64.8221 54.7155 64.257Z" fill="#010101"/>
</g>
<path d="M60.989 61.1581C61.1491 61.7138 61.0455 62.392 60.4427 62.618C60.2543 62.6934 60.0282 62.6934 59.8493 62.6086C59.1617 62.2978 59.1993 61.1958 59.5761 60.6589C59.6891 60.4893 59.8775 60.3292 60.0659 60.2633C60.4992 60.1126 60.7723 60.5741 60.9042 60.9038C60.9324 60.9791 60.9607 61.0639 60.989 61.1581Z" fill="#A12B24"/>
<g opacity="0.15">
<path opacity="0.15" d="M59.3689 61.1016C59.3783 61.3842 59.4725 61.6668 59.6703 61.9305C59.9717 62.279 60.4332 62.3826 60.8571 62.2978C60.7629 62.4391 60.6216 62.5427 60.4426 62.6181C60.2543 62.6934 60.0282 62.6934 59.8492 62.6087C59.3123 62.3544 59.2182 61.6573 59.3689 61.1016Z" fill="#010101"/>
</g>
<g opacity="0.07">
<path opacity="0.07" d="M59.5669 60.6494C59.5952 60.6118 59.6235 60.5741 59.6517 60.5458C59.5198 60.7907 59.501 61.0733 59.6706 61.3841C60.0002 61.8551 60.5842 61.9775 61.0457 61.7515C61.0269 61.9493 60.9704 62.1377 60.8574 62.2978C60.4241 62.3826 59.9625 62.2789 59.6706 61.9304C59.4633 61.6667 59.3786 61.3841 59.3691 61.1016C59.4162 60.932 59.4822 60.7719 59.5669 60.6494Z" fill="#010101"/>
</g>
<path d="M58.9265 60.6024C58.9925 61.177 58.7947 61.8269 58.1636 61.9587C57.9658 61.9964 57.7491 61.9682 57.5796 61.8551C56.9485 61.4407 57.1463 60.3669 57.6079 59.8865C57.7491 59.7358 57.9564 59.604 58.1542 59.5663C58.6063 59.4815 58.8041 59.9807 58.8888 60.3292C58.8983 60.4234 58.9171 60.5176 58.9265 60.6024Z" fill="#A12B24"/>
<g opacity="0.15">
<path opacity="0.15" d="M57.3344 60.301C57.2967 60.5835 57.3438 60.8755 57.5134 61.1675C57.7583 61.5537 58.1915 61.7232 58.6342 61.7138C58.5212 61.8363 58.3611 61.921 58.1727 61.9681C57.9749 62.0058 57.7583 61.9776 57.5887 61.8645C57.0895 61.5349 57.0989 60.8284 57.3344 60.301Z" fill="#010101"/>
</g>
<g opacity="0.07">
<path opacity="0.07" d="M57.5981 59.8866C57.6264 59.8583 57.664 59.8206 57.7017 59.7924C57.5322 60.0184 57.4662 60.2916 57.5887 60.6212C57.843 61.1299 58.3987 61.3465 58.8979 61.1958C58.8508 61.3842 58.7661 61.5631 58.6342 61.7044C58.2009 61.7233 57.7582 61.5537 57.5133 61.1581C57.3532 60.8661 57.3061 60.5741 57.3344 60.2916C57.4097 60.1409 57.4945 59.9996 57.5981 59.8866Z" fill="#010101"/>
</g>
<path d="M57.0138 60.2916C57.0138 60.8661 56.7407 61.4878 56.1002 61.5537C55.893 61.5725 55.6857 61.516 55.5256 61.3842C54.9416 60.8944 55.2713 59.8489 55.7799 59.4344C55.9401 59.3026 56.1567 59.1989 56.3639 59.1801C56.816 59.1424 56.9667 59.6605 57.0044 60.0278C57.0138 60.1032 57.0138 60.1974 57.0138 60.2916Z" fill="#A12B24"/>
<g opacity="0.15">
<path opacity="0.15" d="M55.4691 59.8018C55.4032 60.0749 55.4126 60.3669 55.5445 60.6777C55.7423 61.0922 56.1567 61.3088 56.59 61.3465C56.4581 61.4501 56.298 61.5254 56.1002 61.5443C55.893 61.5631 55.6858 61.5066 55.5256 61.3747C55.0829 60.998 55.1771 60.301 55.4691 59.8018Z" fill="#010101"/>
</g>
<g opacity="0.07">
<path opacity="0.07" d="M55.7794 59.425C55.8171 59.3968 55.8453 59.3685 55.8924 59.3497C55.704 59.5569 55.6004 59.8206 55.6852 60.1597C55.883 60.6966 56.4105 60.9698 56.9191 60.8756C56.8532 61.0639 56.7401 61.2241 56.5894 61.3465C56.1562 61.3088 55.7323 61.0922 55.5439 60.6778C55.4215 60.3669 55.4026 60.0749 55.4686 59.8018C55.5533 59.6511 55.6664 59.5192 55.7794 59.425Z" fill="#010101"/>
</g>
<g opacity="0.3">
<path opacity="0.3" d="M53.7834 65.3968C53.8587 64.5773 54.1036 63.7673 54.2637 62.9666C54.4427 62.1095 54.584 61.2335 54.9042 60.4047C54.9702 60.2257 55.0549 60.0373 55.1397 59.8583C55.3658 59.3968 55.686 58.973 56.2135 58.8976C56.2512 58.8882 56.2983 58.8882 56.3359 58.8882C54.8006 61.4031 54 64.8505 56.1475 67.0828C56.5714 67.5443 57.146 67.7233 57.7394 67.7233C57.1365 68.0435 56.4678 68.2413 55.799 68.1754C54.3768 68.0247 53.6515 66.7249 53.7834 65.3968Z" fill="#010101"/>
</g>
<g opacity="0.15">
<path opacity="0.15" d="M56.3264 58.8881C56.7409 58.8693 57.2118 59.0388 57.3343 59.4815C57.598 59.0953 58.1255 58.9164 58.5682 59.0671C59.0109 59.2178 59.3217 59.6887 59.284 60.1597C59.7455 59.6793 60.4991 59.6134 60.9324 60.122C61.0548 60.2633 61.1584 60.4611 61.2338 60.6872C60.8664 60.7531 60.5179 60.8567 60.2071 60.9321C59.397 61.111 58.7565 60.301 58.0313 60.0278C56.8539 59.5757 56.4018 61.0263 56.3076 61.9305C56.2134 63.2868 56.2134 64.8221 57.2118 65.7264C57.9842 66.4987 58.8696 66.5082 59.6985 66.1125C59.5477 66.2915 59.3876 66.4611 59.2087 66.6306C58.7848 67.0356 58.2762 67.4312 57.7204 67.7232C57.127 67.7232 56.5525 67.5443 56.1286 67.0827C53.9905 64.8504 54.7911 61.403 56.3264 58.8881Z" fill="#010101"/>
</g>
<path d="M43.2714 59.4909C43.1678 59.3119 43.0642 59.1329 42.9417 58.954C42.6403 58.5113 42.2353 58.1063 41.6607 58.1063C41.1803 58.1063 40.6152 58.3606 40.5587 58.888C40.229 58.5207 39.6356 58.4077 39.1929 58.6431C38.7502 58.8692 38.4959 59.4155 38.6089 59.8959C38.0438 59.4626 37.2432 59.5097 36.8664 60.1125C36.1129 61.2899 36.8476 64.7185 39.6733 66.7059C40.7376 67.45 42.1882 68.1376 43.5163 67.7985C44.9857 67.4311 45.5508 65.9429 45.2117 64.5677C45.0045 63.72 44.6277 62.9006 44.3263 62.0811C44.0155 61.2051 43.7235 60.3103 43.2714 59.4909Z" fill="#761A14"/>
<path d="M42.4051 62.618C41.4255 62.505 40.5025 63.0325 40.1822 63.9838C39.8997 64.8221 40.2199 65.7546 40.8416 66.3574C41.2372 66.7436 41.7646 67.0073 42.3109 67.0073C43.2246 67.0073 44.044 66.2915 44.3172 65.4532C44.5338 64.8032 44.4679 64.0497 44.044 63.5034C43.6579 63.0042 43.0362 62.6934 42.4051 62.618Z" fill="#A12B24"/>
<g opacity="0.07">
<path opacity="0.07" d="M42.8291 62.7122C42.6878 62.6746 42.5465 62.6463 42.4052 62.6275C42.3769 62.6275 42.3487 62.6275 42.3299 62.618C42.5747 62.7593 42.8008 62.9477 42.9609 63.2114C43.3565 63.9273 43.4036 64.8975 42.7255 65.5851C42.0284 66.169 41.1525 66.1031 40.4084 65.7263C40.3801 65.7075 40.3613 65.6887 40.333 65.6698C40.4649 65.9241 40.6344 66.1596 40.8322 66.3574C40.9358 66.461 41.0489 66.5552 41.1713 66.64C42.2168 66.753 43.3471 66.1879 43.6297 65.1518C43.884 64.191 43.5072 63.2868 42.8291 62.7122Z" fill="#010101"/>
</g>
<g opacity="0.15">
<path opacity="0.15" d="M44.0533 63.5128C43.7519 63.1267 43.3092 62.8441 42.8383 62.7122C43.5165 63.2962 43.8932 64.191 43.6483 65.1612C43.3657 66.1879 42.2355 66.753 41.1899 66.6494C41.529 66.8754 41.9152 67.0262 42.3202 67.0262C43.2339 67.0262 44.0533 66.3103 44.3265 65.472C44.5431 64.8127 44.4772 64.0591 44.0533 63.5128Z" fill="#010101"/>
</g>
<path d="M36.9702 61.2146C36.8949 61.8174 37.1021 62.5144 37.7709 62.6651C37.9875 62.7122 38.2136 62.6745 38.3925 62.5615C39.0707 62.1282 38.8635 60.9791 38.3831 60.4705C38.2324 60.3103 38.0158 60.169 37.7991 60.1314C37.3187 60.0372 37.1021 60.5646 37.0173 60.9414C37.0079 61.0262 36.9891 61.1204 36.9702 61.2146Z" fill="#A12B24"/>
<g opacity="0.15">
<path opacity="0.15" d="M38.6751 60.9037C38.7128 61.2051 38.6563 61.5159 38.4868 61.8173C38.223 62.2318 37.7615 62.4107 37.2905 62.3825C37.413 62.5143 37.5731 62.6085 37.7803 62.6556C37.997 62.7027 38.223 62.6651 38.402 62.552C38.92 62.2224 38.92 61.4688 38.6751 60.9037Z" fill="#010101"/>
</g>
<g opacity="0.07">
<path opacity="0.07" d="M38.3924 60.461C38.3642 60.4233 38.3265 60.3951 38.2888 60.3668C38.4678 60.6023 38.5337 60.9037 38.4018 61.2522C38.1193 61.7985 37.5353 62.0152 37.0078 61.8456C37.0549 62.0528 37.1491 62.2412 37.2904 62.3919C37.7519 62.4108 38.2229 62.2318 38.4866 61.8268C38.6656 61.5159 38.7127 61.2051 38.675 60.9131C38.5996 60.7342 38.5054 60.5835 38.3924 60.461Z" fill="#010101"/>
</g>
<path d="M39.0615 60.3198C39.0804 60.932 39.3912 61.5914 40.0694 61.629C40.286 61.6385 40.5121 61.5725 40.6722 61.4312C41.275 60.8944 40.8982 59.7923 40.3425 59.3685C40.173 59.2366 39.9375 59.133 39.7209 59.1236C39.2311 59.1047 39.0992 59.6605 39.0709 60.0372C39.0615 60.122 39.0521 60.2162 39.0615 60.3198Z" fill="#A12B24"/>
<g opacity="0.15">
<path opacity="0.15" d="M40.6905 59.7546C40.7658 60.0466 40.7658 60.3575 40.6434 60.6871C40.4456 61.1298 40.0123 61.3841 39.5508 61.4312C39.6921 61.5443 39.871 61.6102 40.0782 61.6196C40.2949 61.629 40.5209 61.5631 40.6811 61.4218C41.1332 61.0168 41.0202 60.2727 40.6905 59.7546Z" fill="#010101"/>
</g>
<g opacity="0.07">
<path opacity="0.07" d="M40.3426 59.3591C40.305 59.3308 40.2673 59.3025 40.2202 59.2743C40.4274 59.4815 40.5404 59.7641 40.4651 60.1314C40.2673 60.7154 39.721 61.0168 39.1841 60.932C39.2689 61.1298 39.3819 61.2994 39.542 61.4218C40.0035 61.3747 40.4462 61.1204 40.6346 60.6777C40.7571 60.3481 40.7665 60.0278 40.6817 59.7452C40.5875 59.5945 40.4745 59.4627 40.3426 59.3591Z" fill="#010101"/>
</g>
<path d="M41.0202 59.6887C41.105 60.2915 41.4912 60.9132 42.1788 60.8755C42.3954 60.8661 42.612 60.7719 42.7533 60.6118C43.2902 60.0089 42.7816 58.9634 42.1882 58.5961C41.9998 58.483 41.7549 58.4077 41.5383 58.4171C41.0579 58.4548 40.9825 59.0199 40.9919 59.4061C41.0014 59.4909 41.0108 59.5945 41.0202 59.6887Z" fill="#A12B24"/>
<g opacity="0.15">
<path opacity="0.15" d="M42.5742 58.9446C42.6873 59.2272 42.7155 59.538 42.6307 59.8771C42.4895 60.3386 42.0844 60.64 41.6323 60.7436C41.783 60.8378 41.9714 60.8849 42.1786 60.8755C42.3953 60.8661 42.6119 60.7719 42.7532 60.6118C43.1676 60.1408 42.9604 59.4155 42.5742 58.9446Z" fill="#010101"/>
</g>
<g opacity="0.07">
<path opacity="0.07" d="M42.1884 58.5866C42.1508 58.5584 42.1037 58.5395 42.066 58.5207C42.3015 58.7091 42.4427 58.9728 42.4051 59.3401C42.2826 59.943 41.7646 60.3009 41.2183 60.2821C41.3219 60.4704 41.4632 60.6211 41.6327 60.7342C42.0848 60.6306 42.4898 60.3386 42.6311 59.8676C42.7159 59.5285 42.6876 59.2083 42.5746 58.9351C42.4616 58.7938 42.3297 58.6714 42.1884 58.5866Z" fill="#010101"/>
</g>
<g opacity="0.3">
<path opacity="0.3" d="M45.2215 64.5772C45.0142 63.7295 44.6375 62.91 44.3361 62.0906C44.0158 61.2146 43.7238 60.3198 43.2717 59.5003C43.1681 59.3214 43.0645 59.1424 42.942 58.9634C42.6406 58.5207 42.2356 58.1157 41.6611 58.1157C41.614 58.1157 41.5669 58.1157 41.5292 58.1251C43.5355 60.527 44.9106 64.0403 42.9891 66.7248C42.6124 67.2805 42.0378 67.5536 41.4067 67.6478C42.0943 67.8927 42.8196 67.9963 43.5166 67.8174C44.9954 67.4312 45.5511 65.943 45.2215 64.5772Z" fill="#010101"/>
</g>
<g opacity="0.15">
<path opacity="0.15" d="M41.5291 58.1157C41.0864 58.1534 40.6155 58.4077 40.559 58.8881C40.2293 58.5207 39.6359 58.4077 39.1932 58.6432C38.7505 58.8692 38.4962 59.4156 38.6092 59.8959C38.0441 59.4626 37.2434 59.5097 36.8667 60.1126C36.7537 60.2821 36.6783 60.4987 36.6406 60.7531C37.0362 60.7625 37.4224 60.819 37.7615 60.8567C38.6469 60.9226 39.1838 59.9713 39.909 59.5663C41.077 58.9069 41.774 60.3669 42.0095 61.2994C42.3109 62.7122 42.5464 64.3323 41.6422 65.4438C40.9451 66.3763 40.0221 66.527 39.0896 66.235C39.278 66.3951 39.4758 66.5552 39.683 66.6965C40.1916 67.0544 40.785 67.3935 41.4161 67.6196C42.0472 67.5348 42.6123 67.2522 42.9985 66.6965C44.9106 64.0215 43.5354 60.5176 41.5291 58.1157Z" fill="#010101"/>
</g>
<defs>
<linearGradient id="paint0_linear" x1="93.4005" y1="102.341" x2="26.265" y2="19.042" gradientUnits="userSpaceOnUse">
<stop stop-color="#B37CFF"/>
<stop offset="1" stop-color="#F895E7"/>
</linearGradient>
<linearGradient id="paint1_linear" x1="39.6735" y1="32.4968" x2="14.667" y2="24.0004" gradientUnits="userSpaceOnUse">
<stop stop-color="#A737D5"/>
<stop offset="1" stop-color="#EF497A"/>
</linearGradient>
<linearGradient id="paint2_linear" x1="23.1785" y1="54.7066" x2="2.92535" y2="16.393" gradientUnits="userSpaceOnUse">
<stop stop-color="#B37CFF"/>
<stop offset="1" stop-color="#F895E7"/>
</linearGradient>
</defs>
</svg>
