<?xml version="1.0" encoding="utf-8"?>
<!-- Generator: Adobe Illustrator 24.1.2, SVG Export Plug-In . SVG Version: 6.00 Build 0)  -->
<svg version="1.1" id="Layer_1" xmlns="http://www.w3.org/2000/svg" xmlns:xlink="http://www.w3.org/1999/xlink" x="0px" y="0px"
	 viewBox="0 0 3710 3710" style="enable-background:new 0 0 3710 3710;" xml:space="preserve">
<style type="text/css">
	.st0{display:none;}
	.st1{display:inline;}
	.st2{fill:#FFFFFF;}
	.st3{opacity:0.3;fill:url(#SVGID_1_);enable-background:new    ;}
	.st4{fill:url(#SVGID_2_);}
	.st5{opacity:0.26;fill:#FFFFFF;enable-background:new    ;}
	.st6{opacity:0.68;}
	.st7{fill:url(#SVGID_3_);}
	.st8{opacity:0.47;fill:#FFFFFF;enable-background:new    ;}
	.st9{opacity:0.3;}
	.st10{fill:url(#SVGID_4_);}
	.st11{fill:url(#SVGID_5_);}
	.st12{fill:url(#SVGID_6_);}
	.st13{fill:url(#SVGID_7_);}
	.st14{fill:url(#SVGID_8_);}
	.st15{fill:url(#SVGID_9_);}
	.st16{opacity:0.56;fill:#FFFFFF;enable-background:new    ;}
	.st17{fill:url(#SVGID_10_);}
	.st18{fill:url(#SVGID_11_);}
	.st19{fill:url(#SVGID_12_);}
	.st20{fill:url(#SVGID_13_);}
	.st21{fill:url(#SVGID_14_);}
	.st22{fill:url(#SVGID_15_);}
	.st23{fill:url(#SVGID_16_);}
	.st24{fill:url(#SVGID_17_);}
	.st25{fill:url(#SVGID_18_);}
	.st26{fill:url(#SVGID_19_);}
	.st27{fill:url(#SVGID_20_);}
	.st28{fill:url(#SVGID_21_);}
	.st29{fill:url(#SVGID_22_);}
	.st30{fill:url(#SVGID_23_);}
	.st31{fill:url(#SVGID_24_);}
	.st32{fill:url(#SVGID_25_);}
	.st33{fill:url(#SVGID_26_);}
	.st34{fill:#D44613;}
	.st35{fill:#77160C;}
	.st36{opacity:0.1;}
	.st37{opacity:0.2;}
	.st38{fill:#630E0A;}
	.st39{opacity:0.15;}
	.st40{fill:#FCE0D9;}
	.st41{fill:#4D0F05;}
	.st42{fill:#BF340A;}
	.st43{fill:#EFC3BD;}
	.st44{opacity:0.5;}
	.st45{fill:#ED0A0A;}
	.st46{fill:#C60000;}
	.st47{fill:#EAE8E8;}
	.st48{fill:#A02924;}
	.st49{opacity:7.000000e-02;}
</style>
<g id="Background" class="st0">
	<g class="st1">
		<g>
			<rect class="st2" width="3710" height="3710"/>
		</g>
	</g>
</g>
<g id="Illustration">
	<g>
		
			<linearGradient id="SVGID_1_" gradientUnits="userSpaceOnUse" x1="3437.23" y1="105.8076" x2="1520.5785" y2="2146.1133" gradientTransform="matrix(1 0 0 -1 0 3710)">
			<stop  offset="0" style="stop-color:#B37CFF"/>
			<stop  offset="1" style="stop-color:#F895E7"/>
		</linearGradient>
		<path class="st3" d="M2861.8,2785.6c-70.8,72.9-134.1,115.8-182.5,148.2c-472.7,315.6-1013.1,224.7-1180.2,193.6
			c-269.6-50.2-497.1-85.6-692.6-262.2C362.2,2463.8,383.8,1626.6,723.3,1108c40.3-61.5,379.2-563.9,920.7-634.7
			c13.3-1.7,23.1-2.7,31.8-3.6c83.8-8.9,602.9-55.7,1026.3,299c60.6,50.8,158.1,142.3,248.5,282
			C3281.2,1561.3,3282.3,2352.2,2861.8,2785.6z"/>
		<g>
			
				<linearGradient id="SVGID_2_" gradientUnits="userSpaceOnUse" x1="1160.0271" y1="2750.6057" x2="4020.1262" y2="-513.7454" gradientTransform="matrix(1 0 0 -1 0 3710)">
				<stop  offset="0" style="stop-color:#FDF53F"/>
				<stop  offset="0.7786" style="stop-color:#E57A58"/>
				<stop  offset="1" style="stop-color:#D93C65"/>
			</linearGradient>
			<path class="st4" d="M3115.3,1824.8c-28,636.9-608,1128.8-1295.5,1098.6s-1222.2-571-1194.2-1207.9
				c28-636.9,608-1128.8,1295.5-1098.6C2608.6,647.1,3143.2,1187.9,3115.3,1824.8z"/>
			<ellipse class="st5" cx="1803" cy="1686.9" rx="977.8" ry="923.7"/>
			<g class="st6">
				<path class="st2" d="M2190.9,1775.8c-0.1,101.9-3.9,203.8-11.8,305.4c-8.1,101.6-20.6,202.9-38.7,303.3
					c-18.4,100.2-41.9,199.9-77.5,295.9c-18,47.8-38.9,94.9-67.3,138.1c-14.3,21.4-30.5,41.9-50.6,58.9c-10,8.4-21.1,15.9-33.2,21.4
					c-12.1,5.4-25.4,8.9-38.9,9.1c-13.5,0.4-26.9-2.2-39.3-7.2c-12.4-4.9-23.7-12.1-34-20.2c-20.6-16.4-37.1-36.7-51.7-57.9
					c-28.9-42.8-50.1-89.9-68.3-137.6c-18.1-47.9-32.8-96.8-45.6-146.2c-12.7-49.4-23.4-99.3-32.7-149.5
					c-18.4-100.3-31-201.6-39.5-303.1c-8.5-101.6-12.8-203.5-13.4-305.4c-0.3-50.9,1.3-101.9,3.1-152.8c2-50.9,4.9-101.8,8.7-152.6
					c7.7-101.6,19.1-203,36-303.5c8.5-50.3,18.3-100.3,30.2-149.9c11.9-49.6,25.7-98.8,42.8-146.9c17.3-48,37.4-95.4,65.4-138.5
					c14.1-21.4,30.3-41.8,50.5-58.2c10.1-8.1,21.2-15.2,33.4-20c12.2-4.8,25.4-7.3,38.5-6.8c13.1,0.4,26.1,3.6,38,8.9
					c11.9,5.3,22.9,12.4,33,20.5c20.1,16.3,36.8,36.3,51.6,57.2c29.4,42.1,51.5,88.6,70.7,135.9c37.9,94.9,63.6,194.1,83.8,293.9
					c19.9,100,33.8,201.1,43,302.6C2186.2,1571.9,2190.6,1673.8,2190.9,1775.8z M2171.5,1775.8c0.3-101.4-3.6-202.8-11.9-303.8
					c-8.2-101-20.6-201.8-39.3-301.5c-18.7-99.5-42.9-198.4-79.1-293c-18.3-47.1-39.6-93.3-67.9-135.1
					c-14.2-20.7-30.2-40.4-49.4-56.4c-19-15.9-42.1-28.1-66.9-28.8c-12.3-0.4-24.6,2.1-36,6.8c-11.4,4.7-21.9,11.5-31.5,19.4
					c-19.2,16-34.7,36.1-48.2,57.2c-26.9,42.6-46.2,89.8-62.6,137.5c-16.3,47.9-29.3,96.9-40.4,146.3
					c-11.1,49.4-20.2,99.3-27.9,149.4c-30.6,200.6-40.4,403.8-39.7,606.6c-0.4,101.4,2.9,202.8,10.3,303.9
					c7.5,101.1,19,201.9,36.3,301.8c8.7,49.9,18.8,99.6,30.9,148.7c12.2,49.1,26.3,97.8,43.7,145.2c17.5,47.3,38,93.8,65.6,135.7
					c13.9,20.8,29.7,40.4,48.8,56c18.9,15.5,42.1,26.5,66.2,25.6c24.1-0.7,46.7-12.6,65.2-28.6c18.7-16.1,34.2-36,47.8-56.9
					c27.2-42.2,47.3-88.8,64.6-136.2c34.1-95.2,56.5-194.4,73.8-294.2c17.2-99.9,28.6-200.7,36.2-301.8
					C2168,1978.6,2171.6,1877.2,2171.5,1775.8z"/>
				<path class="st2" d="M2704.8,1775.8c-0.8,131.3-17.7,262.7-52.9,389.3c-35.9,126.3-90,247.8-163.3,356.9
					c-73.2,108.8-166.5,205.3-277.9,275.3c-55.7,34.8-115.8,62.7-178.8,81.6c-62.9,19-128.6,28.8-194.3,28.9
					c-65.7,0-131.4-9.8-194.4-28.6c-63-18.8-123.2-46.7-178.9-81.5c-111.6-69.9-205.1-166.4-278.5-275.2
					c-73.5-109.1-127.8-230.6-163.9-357c-17.7-63.3-31-127.9-39.7-193.1c-8.7-65.2-13-130.9-13.4-196.7
					c0.4-65.8,4.8-131.5,13.5-196.6c8.8-65.2,22.1-129.7,39.9-193c36.2-126.3,90.6-247.8,164.2-356.7
					c73.5-108.7,166.9-205,278.5-274.7c55.7-34.7,115.9-62.2,178.8-81.1c62.8-18.9,128.4-28.8,194-28.8c65.6,0.1,131.2,10,193.9,29
					c62.8,18.9,122.9,46.5,178.6,81.3c111.4,69.8,204.6,166.2,277.9,274.8c73.4,108.9,127.6,230.3,163.6,356.5
					C2686.9,1513.1,2704,1644.4,2704.8,1775.8z M2682.6,1775.8c-0.1-129.4-16.1-259-50.2-383.9c-34.2-124.8-85.7-245.3-156.7-353.7
					c-35.5-54.2-75.8-105.2-121-151.6c-45.2-46.3-95.1-88.3-149.8-123.2c-54.7-34.7-113.8-62.6-175.8-81.5
					c-62-18.9-126.7-28.8-191.5-29c-64.8,0.3-129.5,10.3-191.4,29.2c-62,18.9-121,46.9-175.7,81.6
					c-54.6,34.9-104.4,76.9-149.5,123.3c-45.1,46.5-85.3,97.5-120.7,151.7c-70.8,108.4-122.2,228.8-156.2,353.5
					c-17,62.4-29.2,126.1-37.5,190.1c-8.3,64.1-12.4,128.7-12.6,193.4c0.2,64.7,4.3,129.3,12.7,193.4
					c8.4,64.1,20.7,127.7,37.7,190.1c34.1,124.6,85.5,245,156.4,353.2c35.4,54.1,75.6,105.1,120.7,151.4
					c45.1,46.3,94.9,88.3,149.5,123c54.6,34.6,113.7,62.3,175.5,81.2c61.8,19,126.3,29,191,29.4c64.7-0.3,129.3-10.3,191.1-29.2
					c61.9-18.9,120.9-46.5,175.7-81.1c54.6-34.7,104.5-76.6,149.7-122.9c45.2-46.3,85.5-97.3,121-151.4
					c71.1-108.3,122.7-228.7,157-353.4C2666.3,2034.7,2682.4,1905.2,2682.6,1775.8z"/>
				<path class="st2" d="M828.5,1327.9c86.6-1.3,173.1-1.8,259.7-2.7l259.7-1.5c86.6-0.7,173.1-0.6,259.7-0.8l259.7-0.4l519.4,1.4
					l259.7,1.7c86.6,1,173.1,1.6,259.7,2.9c0.5,0,1,0.4,1,1c0,0.5-0.4,1-1,1c-86.6,1.3-173.1,1.9-259.7,2.9l-259.7,1.7l-519.4,1.4
					l-259.7-0.4c-86.6-0.2-173.1-0.1-259.7-0.8l-259.7-1.5c-86.6-0.9-173.1-1.4-259.7-2.7c-0.8,0-1.5-0.7-1.4-1.5
					C827,1328.6,827.7,1328,828.5,1327.9z"/>
				<path class="st2" d="M1129.8,893c61.5-1.3,122.9-1.8,184.4-2.7l184.4-1.5c61.5-0.7,122.9-0.6,184.4-0.8l184.4-0.5l184.4,0.5
					c61.5,0.3,122.9,0.1,184.4,0.8l184.4,1.7c61.5,1,122.9,1.6,184.4,2.9c0.5,0,1,0.5,1,1c0,0.5-0.4,1-1,1
					c-61.5,1.3-122.9,1.9-184.4,2.9l-184.4,1.7c-61.5,0.7-122.9,0.5-184.4,0.8l-184.4,0.5l-184.4-0.5c-61.5-0.2-122.9-0.1-184.4-0.8
					l-184.4-1.5c-61.5-0.9-122.9-1.4-184.4-2.7c-0.8,0-1.4-0.7-1.4-1.5C1128.3,893.6,1129,893,1129.8,893z"/>
				<path class="st2" d="M738.2,1762.9l282.3-2.7l282.3-1.5c94.1-0.7,188.2-0.6,282.3-0.8l282.3-0.4l564.5,1.4l282.3,1.7
					c94.1,1,188.2,1.6,282.3,2.9c0.5,0,1,0.4,1,1c0,0.5-0.4,1-1,1c-94.1,1.3-188.2,1.9-282.3,2.9l-282.3,1.7l-564.5,1.4l-282.3-0.4
					c-94.1-0.2-188.2-0.1-282.3-0.8l-282.3-1.5l-282.3-2.7c-0.8,0-1.5-0.7-1.5-1.5C736.8,1763.6,737.4,1762.9,738.2,1762.9z"/>
				<path class="st2" d="M828.5,2197.9c86.6-1.3,173.1-1.8,259.7-2.7l259.7-1.5c86.6-0.6,173.1-0.6,259.7-0.8l259.7-0.4l519.4,1.4
					l259.7,1.7c86.6,1,173.1,1.6,259.7,2.9c0.5,0,1,0.4,1,1c0,0.5-0.4,1-1,1c-86.6,1.3-173.1,1.9-259.7,2.9l-259.7,1.7l-519.4,1.4
					l-259.7-0.4c-86.6-0.2-173.1-0.1-259.7-0.8l-259.7-1.5c-86.6-0.9-173.1-1.4-259.7-2.7c-0.8,0-1.5-0.7-1.4-1.5
					C827,2198.6,827.7,2197.9,828.5,2197.9z"/>
				<path class="st2" d="M2642,2639.5h-1475c-2.8,0-5.1-2.3-5.1-5.1s2.3-5.1,5.1-5.1h1475c2.8,0,5.1,2.3,5.1,5.1
					C2647.1,2637.2,2644.8,2639.5,2642,2639.5z"/>
			</g>
		</g>
		<g>
			
				<linearGradient id="SVGID_3_" gradientUnits="userSpaceOnUse" x1="1467.532" y1="3195.5244" x2="1325.1611" y2="2117.5703" gradientTransform="matrix(1 0 0 -1 0 3710)">
				<stop  offset="0" style="stop-color:#A737D5"/>
				<stop  offset="1" style="stop-color:#EF497A"/>
			</linearGradient>
			<path class="st7" d="M1661.6,1846.1c36.7,196.4,61.3,348.8,76.9,453.1c1.1,7.5,8.1,12.8,15.6,11.9l0,0c9.9-1.2,17-10.2,15.9-20.1
				c-28.3-258.7-88.5-746.8-165.4-1014.6C1428.1,661.8,1123.8,978.3,945,642.3c-7.1-13.4-27.3-10.5-30.3,4.3
				c-27.4,134.9-76.5,535.8,260.9,703.1C1584.3,1552.3,1587.5,1449.2,1661.6,1846.1z"/>
			<path class="st8" d="M940.8,691.8c5.1,22.2,14.2,44.1,25.4,64.1c11.5,20,24.7,39,39.8,56.4c30.3,34.8,67.3,63.2,107.2,86.2
				c19.8,12,40.9,21.2,62.1,31.1l32.6,14.9c10.8,5.2,21.3,10.8,32,16.1c42.3,22.3,83.3,47.4,121.3,76.7
				c37.7,29.7,72.6,63,103.6,99.7l22.2,28.3c3.9,4.6,7,9.8,10.4,14.7l10,14.9l10,14.9l8.9,15.6c5.8,10.4,12,20.7,17.6,31.3
				l15.4,32.4c2.4,5.4,5.4,10.7,7.4,16.3l6.5,16.7c4.3,11.1,8.8,22.2,12.6,33.5l10.4,34.2l5.2,17.1l4.1,17.4l8.1,34.7
				c1.5,5.8,2.5,11.6,3.4,17.5l2.9,17.6l5.7,35.1c0.4,2.2-1.2,4.4-3.4,4.7c-2.2,0.3-4.2-1.1-4.7-3.2l-0.1-0.3l-7.3-34.6l-3.6-17.3
				c-1.1-5.8-2.3-11.5-4-17.2l-9.2-34l-4.6-17l-5.7-16.6l-11.4-33.2c-4.1-10.9-9-21.6-13.4-32.4l-6.7-16.2
				c-2.1-5.5-5.1-10.5-7.6-15.8l-15.7-31.3c-5.6-10.2-11.8-20.1-17.7-30.1l-9-15l-10-14.3l-10-14.3c-3.4-4.7-6.5-9.7-10.3-14
				l-22.1-27c-30.7-34.9-64.5-67-101.4-95.4c-37.3-27.9-77-52.5-118.4-74.1c-10.5-5.2-20.8-10.6-31.3-15.7l-31.9-14.5
				c-21.5-10.2-43.7-20.2-64.2-32.9c-41.4-24.7-79.5-56-109.7-94c-7.2-9.8-14.6-19.4-20.7-29.8c-3.3-5.1-6.5-10.2-9.2-15.7
				c-2.7-5.4-5.8-10.6-8.1-16.2c-5-11-9.4-22.3-13-33.8c-3.7-11.5-6.2-23.2-7.5-35.6c-0.2-1.9,1.2-3.7,3.1-3.8
				c1.8-0.2,3.4,1,3.8,2.7L940.8,691.8z"/>
		</g>
		<g>
			<g>
				<g class="st9">
					
						<linearGradient id="SVGID_4_" gradientUnits="userSpaceOnUse" x1="1469.5597" y1="2976.0208" x2="2040.5792" y2="2976.0208" gradientTransform="matrix(-0.998 6.330000e-02 -6.330000e-02 -0.998 4522.4292 3565.9739)">
						<stop  offset="0" style="stop-color:#B37CFF"/>
						<stop  offset="1" style="stop-color:#F895E7"/>
					</linearGradient>
					<path class="st10" d="M2868.6,914.7c-5.5-0.2-9.8-4.9-9.6-10.4c0.4-10.7,0.4-21.6-0.1-32.4c-0.2-5.5,3.9-10.1,9.4-10.4
						c0.1,0,0.1,0,0.2,0c5.5-0.2,10.2,4,10.4,9.6c0.5,11.3,0.5,22.8,0.1,34.1c-0.2,5.2-4.3,9.3-9.4,9.6
						C2869.3,914.7,2869,914.7,2868.6,914.7z M2853,819.5c-1.9-10.6-4.4-21.3-7.2-31.6c-1.4-5.3,1.7-10.8,7-12.3
						c5.4-1.4,10.8,1.7,12.3,7c3,10.9,5.5,22.1,7.6,33.3c1,5.4-2.6,10.7-8.1,11.7c-0.4,0.1-0.8,0.1-1.2,0.2
						C2858.5,828,2854,824.5,2853,819.5z M2828.5,738.2c-4.3-9.9-9-19.7-14.1-29.2c-2.6-4.9-0.8-10.9,4.1-13.5
						c4.9-2.6,10.9-0.8,13.6,4.1c5.4,10,10.3,20.3,14.8,30.8c2.2,5.1-0.2,11-5.3,13.2c-1.1,0.5-2.2,0.7-3.3,0.8
						C2834.2,744.5,2830.2,742.1,2828.5,738.2z M2786.4,664.3c-6.4-8.7-13.2-17.2-20.2-25.3c-3.6-4.2-3.2-10.5,1-14.1
						s10.5-3.2,14.1,1c7.4,8.5,14.6,17.5,21.3,26.7c3.3,4.5,2.3,10.7-2.2,14c-1.6,1.2-3.4,1.8-5.3,1.9
						C2791.8,668.6,2788.5,667.2,2786.4,664.3z M2728.9,601.8c-8.1-7.1-16.6-13.9-25.4-20.2c-4.5-3.3-5.4-9.5-2.2-14
						c3.3-4.5,9.5-5.4,14-2.2c9.2,6.7,18.1,13.9,26.7,21.3c4.2,3.6,4.6,10,1,14.1c-1.8,2.1-4.3,3.3-6.9,3.4
						C2733.6,604.4,2731,603.6,2728.9,601.8z M2659,553.5c-9.5-5.1-19.3-9.8-29.2-14.1c-5.1-2.2-7.4-8.1-5.2-13.2
						c2.2-5.1,8.1-7.4,13.2-5.2c10.4,4.5,20.7,9.5,30.7,14.9c4.9,2.6,6.7,8.7,4.1,13.6c-1.7,3.2-4.9,5-8.2,5.3
						C2662.6,554.8,2660.7,554.4,2659,553.5z M2287.3,548.8c-2.6-4.9-0.8-10.9,4.1-13.5c10-5.3,20.4-10.3,30.8-14.8
						c5.1-2.2,11,0.2,13.1,5.3s-0.2,11-5.3,13.1c-9.9,4.2-19.8,9-29.2,14c-1.3,0.7-2.7,1.1-4.1,1.2
						C2292.9,554.3,2289.2,552.4,2287.3,548.8z M2580.2,521.9c-10.4-2.9-21-5.3-31.6-7.3c-5.4-1-9-6.2-8-11.7c1-5.4,6.2-9,11.7-8
						c11.1,2.1,22.3,4.6,33.3,7.6c5.3,1.5,8.5,7,7,12.3c-1.2,4.2-4.9,7.1-9,7.3C2582.4,522.3,2581.3,522.2,2580.2,521.9z
						 M2367.5,514.6c-1.4-5.3,1.7-10.8,7.1-12.3c10.9-3,22.1-5.5,33.3-7.5c5.4-1,10.6,2.6,11.6,8.1s-2.6,10.6-8.1,11.6
						c-10.6,1.9-21.3,4.3-31.6,7.1c-0.7,0.2-1.3,0.3-2,0.3C2373.2,522.3,2368.8,519.3,2367.5,514.6z M2496.3,508.7
						c-10.8-0.5-21.6-0.5-32.4,0c-5.5,0.2-10.2-4-10.4-9.6c-0.2-5.5,3.9-10.1,9.4-10.4c0.1,0,0.1,0,0.2,0c11.3-0.5,22.8-0.5,34.1,0
						c5.5,0.2,9.8,4.9,9.6,10.4c-0.2,5.2-4.3,9.2-9.4,9.6C2497,508.7,2496.6,508.7,2496.3,508.7z"/>
					
						<linearGradient id="SVGID_5_" gradientUnits="userSpaceOnUse" x1="2068.3384" y1="3126.4089" x2="2101.6887" y2="3126.4089" gradientTransform="matrix(-0.998 6.330000e-02 -6.330000e-02 -0.998 4522.4292 3565.9739)">
						<stop  offset="0" style="stop-color:#B37CFF"/>
						<stop  offset="1" style="stop-color:#F895E7"/>
					</linearGradient>
					<path class="st11" d="M2238,592.6c2-0.1,3.9-0.8,5.6-2.2c4-3.2,8.2-6.4,12.4-9.5c4.5-3.3,5.4-9.5,2.2-14s-9.5-5.5-14-2.2
						c-4.4,3.2-8.8,6.6-13.1,9.9c-4.3,3.4-5.1,9.7-1.6,14.1C2231.6,591.5,2234.8,592.8,2238,592.6z"/>
				</g>
				<g class="st9">
					
						<linearGradient id="SVGID_6_" gradientUnits="userSpaceOnUse" x1="2241.4185" y1="2871.5759" x2="2264.2937" y2="2871.5759" gradientTransform="matrix(-0.998 6.330000e-02 -6.330000e-02 -0.998 4522.4292 3565.9739)">
						<stop  offset="0" style="stop-color:#B37CFF"/>
						<stop  offset="1" style="stop-color:#F895E7"/>
					</linearGradient>
					<path class="st12" d="M2092,860.7c4.8-0.3,8.8-4.1,9.3-9c0.5-5.1,1.1-10.3,1.8-15.5c0.8-5.5-3.1-10.5-8.6-11.3
						c-5.5-0.8-10.5,3.1-11.3,8.5c-0.7,5.4-1.4,10.9-1.9,16.3c-0.5,5.5,3.5,10.4,9,10.9C2091,860.7,2091.5,860.7,2092,860.7z"/>
					
						<linearGradient id="SVGID_7_" gradientUnits="userSpaceOnUse" x1="1681.0244" y1="2611.2847" x2="2269.1978" y2="2611.2847" gradientTransform="matrix(-0.998 6.330000e-02 -6.330000e-02 -0.998 4522.4292 3565.9739)">
						<stop  offset="0" style="stop-color:#B37CFF"/>
						<stop  offset="1" style="stop-color:#F895E7"/>
					</linearGradient>
					<path class="st13" d="M2484.7,1288.1c-5.5,0.1-10.1-4.3-10.1-9.9c-0.1-5.5,4.3-10.1,9.9-10.2c10.5-0.2,21.2-0.8,31.9-1.8
						c5.5-0.6,10.4,3.5,10.9,9s-3.5,10.4-9,10.9c-4.6,0.4-9.2,0.8-13.8,1.1C2497.9,1287.7,2491.2,1288,2484.7,1288.1z M2560,1269.8
						c-1.3-5.4,2.1-10.8,7.4-12.1c10.3-2.4,20.7-5.4,30.7-8.7c5.2-1.7,10.9,1.1,12.6,6.4c1.7,5.3-1.1,10.9-6.4,12.6
						c-10.6,3.5-21.5,6.5-32.3,9.1c-0.6,0.1-1.1,0.2-1.7,0.3C2565.6,1277.8,2561.2,1274.6,2560,1269.8z M2430.3,1285.1
						c-11.1-1.4-22.2-3.2-33.1-5.5c-5.4-1.1-8.9-6.4-7.7-11.9c1.1-5.4,6.4-8.9,11.9-7.7c10.4,2.2,21,3.9,31.5,5.2
						c5.5,0.7,9.4,5.7,8.7,11.2c-0.6,4.8-4.6,8.5-9.3,8.8C2431.5,1285.2,2430.9,1285.2,2430.3,1285.1z M2641.6,1243
						c-2.4-5-0.4-11,4.6-13.4c9.5-4.7,19-9.8,28.1-15.2c4.8-2.8,10.9-1.3,13.7,3.5s1.3,10.9-3.5,13.7c-9.6,5.7-19.5,11.1-29.5,16
						c-1.2,0.6-2.5,0.9-3.8,1C2647.3,1248.9,2643.4,1246.8,2641.6,1243z M2344.7,1264.7c-10.5-3.8-20.9-8-31.1-12.7
						c-5-2.3-7.2-8.2-4.9-13.3s8.2-7.2,13.3-4.9c9.6,4.4,19.6,8.5,29.5,12c5.2,1.9,7.9,7.6,6,12.8c-1.4,3.9-4.9,6.4-8.8,6.6
						C2347.4,1265.4,2346,1265.2,2344.7,1264.7z M2265.6,1226.1c-9.4-6-18.7-12.4-27.6-19.1c-4.4-3.3-5.3-9.6-1.9-14s9.6-5.3,14-1.9
						c8.4,6.4,17.3,12.5,26.2,18.2c4.7,3,6.1,9.2,3.1,13.8c-1.8,2.8-4.7,4.4-7.8,4.6C2269.6,1227.8,2267.5,1227.3,2265.6,1226.1z
						 M2196.9,1171.1c-7.9-7.9-15.6-16.2-22.8-24.7c-3.6-4.2-3.1-10.5,1.2-14.1s10.5-3.1,14.1,1.2c6.8,8.1,14.1,16,21.6,23.5
						c3.9,3.9,3.9,10.2,0,14.2c-1.8,1.8-4.1,2.8-6.4,2.9C2201.8,1174.2,2199,1173.2,2196.9,1171.1z M2141.8,1102.5
						c-6-9.4-11.6-19.2-16.8-29.1c-2.6-4.9-0.7-10.9,4.2-13.5c4.9-2.6,10.9-0.7,13.5,4.2c4.9,9.4,10.3,18.7,16,27.6
						c3,4.7,1.6,10.8-3.1,13.8c-1.5,0.9-3.1,1.4-4.7,1.5C2147.4,1107.3,2143.8,1105.7,2141.8,1102.5z M2103.1,1023.4
						c-3.8-10.5-7.1-21.3-10-32.1c-1.4-5.3,1.8-10.8,7.1-12.3c5.3-1.4,10.8,1.8,12.2,7.1c2.7,10.3,5.9,20.5,9.5,30.5
						c1.9,5.2-0.9,10.9-6.1,12.8c-0.9,0.3-1.8,0.5-2.7,0.6C2108.8,1030.3,2104.6,1027.7,2103.1,1023.4z M2082.7,937.8
						c-1-8.1-1.8-16.4-2.3-24.6c-0.2-3-0.3-5.9-0.5-8.9c-0.2-5.5,4-10.3,9.6-10.4c5.5-0.2,10.2,4.1,10.4,9.6
						c0.1,2.8,0.3,5.6,0.4,8.4c0.5,7.8,1.2,15.6,2.2,23.4c0.7,5.5-3.2,10.5-8.7,11.2c-0.2,0-0.4,0-0.6,0.1
						C2088,946.8,2083.4,943,2082.7,937.8z"/>
					
						<linearGradient id="SVGID_8_" gradientUnits="userSpaceOnUse" x1="1622.4045" y1="2487.3245" x2="1655.3333" y2="2487.3245" gradientTransform="matrix(-0.998 6.330000e-02 -6.330000e-02 -0.998 4522.4292 3565.9739)">
						<stop  offset="0" style="stop-color:#B37CFF"/>
						<stop  offset="1" style="stop-color:#F895E7"/>
					</linearGradient>
					<path class="st14" d="M2723.9,1202.5c2-0.1,3.9-0.8,5.6-2.2c4.2-3.4,8.5-6.9,12.6-10.5c4.2-3.6,4.6-10,1-14.1
						c-3.6-4.2-9.9-4.6-14.1-1c-3.9,3.4-7.9,6.8-12,10c-4.3,3.5-5,9.8-1.6,14.1C2717.6,1201.4,2720.8,1202.7,2723.9,1202.5z"/>
				</g>
				<g>
					
						<linearGradient id="SVGID_9_" gradientUnits="userSpaceOnUse" x1="1527.1149" y1="4105.4673" x2="3715.6086" y2="1161.235" gradientTransform="matrix(1 0 0 -1 0 3710)">
						<stop  offset="0" style="stop-color:#A737D5"/>
						<stop  offset="1" style="stop-color:#EF497A"/>
					</linearGradient>
					<path class="st15" d="M2742.8,1031.9c1.2-1.6,1.2-3.8,0-5.4l-33-46.4c10.1-24.6,16.4-51,18.2-78.3l50-27.1
						c1.8-1,2.7-2.9,2.4-4.9l-11.2-67.4c-0.3-2-1.9-3.5-3.8-3.8l-56.1-9.5c-10.5-25.3-25-48.2-42.5-68.2l16.2-54.6
						c0.6-1.9-0.1-4-1.8-5.1l-55.6-39.8c-1.6-1.2-3.8-1.2-5.4,0l-46.4,33c-24.6-10.1-51-16.4-78.3-18.2l-27.1-50
						c-0.9-1.8-2.9-2.7-4.9-2.4l-67.4,11.2c-2,0.3-3.5,1.9-3.9,3.8l-9.5,56.1c-25.3,10.5-48.2,25-68.2,42.5l-54.6-16.2
						c-1.9-0.6-4,0.1-5.1,1.8l-39.8,55.5c-1.2,1.6-1.2,3.8,0,5.4l33,46.4c-10.1,24.6-16.4,51-18.2,78.3l-50,27.1
						c-1.8,1-2.7,2.9-2.4,4.9l11.2,67.4c0.3,2,1.9,3.5,3.8,3.8l56.1,9.5c10.5,25.3,25,48.2,42.5,68.2L2275,1104
						c-0.6,1.9,0.1,4,1.8,5.1l55.6,39.8c1.6,1.2,3.8,1.2,5.4,0l46.4-33c24.6,10.1,51,16.4,78.3,18.2l27.1,50
						c0.9,1.8,2.9,2.7,4.9,2.4l67.4-11.2c2-0.3,3.5-1.9,3.9-3.8l9.5-56.1c25.3-10.5,48.2-25,68.2-42.5l54.6,16.2
						c1.9,0.6,4-0.1,5.1-1.8L2742.8,1031.9z"/>
					<path class="st16" d="M2473.3,953.6c-37.7-3.1-65.9-36.4-62.7-74.1c1.5-18.3,10.1-34.9,24.1-46.7c14-11.8,31.8-17.5,50.1-16
						c37.7,3.1,65.9,36.4,62.7,74.1c-2.9,34.3-30.6,60.7-64,62.8C2480.1,953.9,2476.7,953.9,2473.3,953.6z M2445,845
						c-10.7,9.1-17.3,21.8-18.4,35.8c-2.4,28.9,19.2,54.4,48.1,56.8c28.9,2.4,54.4-19.2,56.8-48.1c2.4-28.9-19.2-54.4-48.1-56.8
						c-2.6-0.2-5.2-0.2-7.8-0.1C2464.4,833.3,2453.7,837.6,2445,845z"/>
					<path class="st16" d="M2488.3,1052.8c5.7-0.4,11.5-1,17.2-2l0,0c1.8-0.3,3.6-0.6,5.4-1c8.9-1.8,17.6-4.2,26-7.4
						c0.1,0,0.2-0.1,0.3-0.1c0.3-0.1,0.6-0.2,1-0.4c0.6-0.2,1.3-0.5,1.9-0.7c1.7-0.7,2.6-2.3,2.5-4c0-0.4-0.1-0.8-0.3-1.2
						c-0.8-2.1-3.1-3.1-5.2-2.3c-10.6,4.2-21.7,7.3-33,9.1c-56.2,9.3-110.6-11.9-146.1-51.4c-19.8-22-33.7-49.7-38.9-80.9
						c-0.9-5.5-1.5-11-1.9-16.4c-2.3-36.8,8-73,29.8-103.4c25-34.9,62.1-58,104.5-65.1c87.5-14.5,170.5,44.9,185,132.3
						c0.9,5.4,1.5,10.8,1.9,16.2c1.5,23.5-2.2,47-10.8,69c-0.2,0.6-0.3,1.2-0.3,1.7c0.1,1.5,1,2.9,2.5,3.5c2.1,0.8,4.4-0.2,5.2-2.3
						c9.1-23,12.9-47.7,11.4-72.4c-0.4-5.7-1-11.4-1.9-17c-15.2-91.8-102.4-154.2-194.2-138.9c-44.5,7.4-83.4,31.6-109.7,68.3
						c-22.9,31.9-33.7,69.9-31.2,108.6c0.4,5.7,1,11.5,2,17.3c7.4,44.5,31.6,83.4,68.3,109.7
						C2411.6,1044.4,2449.6,1055.2,2488.3,1052.8z"/>
				</g>
			</g>
			<g>
				<g class="st9">
					
						<linearGradient id="SVGID_10_" gradientUnits="userSpaceOnUse" x1="1129.8772" y1="2500.4587" x2="1146.1464" y2="2500.4587" gradientTransform="matrix(-0.998 6.330000e-02 -6.330000e-02 -0.998 4522.4292 3565.9739)">
						<stop  offset="0" style="stop-color:#B37CFF"/>
						<stop  offset="1" style="stop-color:#F895E7"/>
					</linearGradient>
					<path class="st17" d="M3227.3,1156.3c2.7-0.2,5-2.1,5.6-4.8c1.2-5.1,2.2-10.3,3-15.5c0.6-3.4-1.7-6.6-5.1-7.1
						c-3.4-0.6-6.6,1.7-7.1,5.1c-0.8,4.9-1.8,9.9-2.9,14.8c-0.8,3.3,1.3,6.6,4.7,7.4C3226.2,1156.3,3226.8,1156.3,3227.3,1156.3z"/>
					
						<linearGradient id="SVGID_11_" gradientUnits="userSpaceOnUse" x1="1123.3055" y1="2683.3118" x2="1442.296" y2="2683.3118" gradientTransform="matrix(-0.998 6.330000e-02 -6.330000e-02 -0.998 4522.4292 3565.9739)">
						<stop  offset="0" style="stop-color:#B37CFF"/>
						<stop  offset="1" style="stop-color:#F895E7"/>
					</linearGradient>
					<path class="st18" d="M3232.9,1109.2c-3.4-0.1-6.1-3-5.9-6.4c0.3-8.6,0.2-17.3-0.3-25.9c-0.1-1.8-0.3-3.6-0.4-5.5
						c-0.3-3.4,2.2-6.4,5.6-6.7c3.2-0.1,6.4,2.2,6.7,5.6c0.2,1.9,0.3,3.8,0.4,5.7c0.6,9,0.7,18.2,0.3,27.2c-0.1,3.2-2.6,5.7-5.8,5.9
						C3233.3,1109.2,3233.1,1109.2,3232.9,1109.2z M3221.6,1040.3c-2.1-10.2-4.9-20.4-8.3-30.3c-1.1-3.2,0.6-6.7,3.9-7.8
						c3.2-1.1,6.8,0.6,7.9,3.8c3.5,10.3,6.5,21,8.7,31.7c0.7,3.3-1.4,6.6-4.8,7.3c-0.3,0.1-0.6,0.1-0.9,0.1
						C3225.1,1045.4,3222.3,1043.3,3221.6,1040.3z M3201.4,981c-4.6-9.4-9.8-18.6-15.5-27.3c-1.9-2.9-1.1-6.7,1.8-8.5
						c2.9-1.9,6.7-1.1,8.6,1.8c6,9.2,11.4,18.8,16.3,28.7c1.5,3.1,0.2,6.8-2.8,8.3c-0.8,0.4-1.5,0.6-2.3,0.6
						C3204.9,984.6,3202.5,983.3,3201.4,981z M3167.1,928.5c-6.7-8-14.1-15.6-21.7-22.7c-2.5-2.3-2.7-6.2-0.4-8.7
						c2.3-2.5,6.2-2.7,8.7-0.3c8,7.4,15.7,15.4,22.8,23.8c2.2,2.6,1.9,6.5-0.7,8.7c-1.1,0.9-2.3,1.4-3.6,1.4
						C3170.4,930.8,3168.4,930,3167.1,928.5z M3121.1,885.9c-8.5-6.1-17.4-11.7-26.6-16.7c-3-1.6-4.1-5.4-2.4-8.4
						c1.6-3,5.4-4.1,8.4-2.5c9.6,5.3,18.9,11.2,27.8,17.5c2.8,2,3.4,5.9,1.4,8.6c-1.1,1.6-2.9,2.5-4.6,2.6
						C3123.7,887.2,3122.3,886.8,3121.1,885.9z M3066.1,855.8c-9.7-3.8-19.7-7.1-29.8-9.7c-3.3-0.9-5.3-4.2-4.4-7.5
						c0.9-3.3,4.2-5.3,7.5-4.4c10.6,2.7,21.1,6.2,31.3,10.2c3.2,1.3,4.7,4.8,3.5,8c-0.9,2.3-3.1,3.8-5.4,3.9
						C3067.9,856.3,3067,856.2,3066.1,855.8z M3005.5,840.1c-10.3-1.3-20.9-2.1-31.3-2.1c-3.4,0-6.2-2.8-6.1-6.2
						c0-3.4,2.8-6.1,6.2-6.2c11,0.1,22,0.8,32.8,2.2c3.4,0.4,5.8,3.5,5.3,6.9c-0.4,3-2.8,5.2-5.7,5.4
						C3006.3,840.2,3005.9,840.2,3005.5,840.1z M2904.5,840.7c-0.8-3.3,1.2-6.7,4.5-7.5c9.2-2.2,18.6-4,28.1-5.3
						c1.4-0.2,2.9-0.4,4.3-0.5c3.4-0.5,6.5,2,6.9,5.4c0.4,3.4-2,6.5-5.4,6.8c-1.4,0.2-2.7,0.3-4.1,0.5c-9.1,1.2-18.1,2.9-26.8,5
						c-0.4,0.1-0.7,0.1-1.1,0.2C2907.9,845.6,2905.2,843.7,2904.5,840.7z"/>
				</g>
				<g class="st9">
					
						<linearGradient id="SVGID_12_" gradientUnits="userSpaceOnUse" x1="1265.6364" y1="2377.49" x2="1629.7246" y2="2377.49" gradientTransform="matrix(-0.998 6.330000e-02 -6.330000e-02 -0.998 4522.4292 3565.9739)">
						<stop  offset="0" style="stop-color:#B37CFF"/>
						<stop  offset="1" style="stop-color:#F895E7"/>
					</linearGradient>
					<path class="st19" d="M2985.6,1359.4c-10.8,0.5-21.6,0.4-32.4-0.3c-3.4-0.2-6-3.2-5.7-6.6s3.2-5.9,6.6-5.7
						c10.2,0.7,20.6,0.8,30.9,0.3c3.4-0.2,6.3,2.4,6.5,5.9C2991.7,1356.3,2989.1,1359.2,2985.6,1359.4
						C2985.7,1359.4,2985.6,1359.4,2985.6,1359.4z M3010.7,1350.8c-0.6-3.4,1.7-6.6,5-7.1c10.1-1.7,20.2-4.1,30.1-7.1
						c3.3-1,6.7,0.9,7.7,4.2c1,3.3-0.9,6.7-4.1,7.7c-10.3,3.1-20.9,5.6-31.5,7.4c-0.2,0-0.4,0.1-0.7,0.1
						C3014,1356.1,3011.2,1353.9,3010.7,1350.8z M2921.1,1354.8c-10.6-2.1-21.1-4.8-31.3-8.1c-3.3-1.1-5-4.6-4-7.8
						c1.1-3.3,4.5-5,7.8-4c9.7,3.2,19.8,5.8,29.9,7.8c3.4,0.7,5.5,3.9,4.9,7.3c-0.6,2.8-2.9,4.8-5.7,5
						C2922.2,1355,2921.7,1354.9,2921.1,1354.8z M3071.6,1334.1c-1.4-3.1,0.1-6.8,3.2-8.2c9.4-4.1,18.6-8.9,27.5-14.1
						c2.9-1.7,6.7-0.8,8.5,2.2c1.7,2.9,0.8,6.7-2.2,8.5c-9.3,5.5-18.9,10.5-28.8,14.8c-0.7,0.3-1.4,0.5-2.1,0.5
						C3075.1,1337.9,3072.7,1336.5,3071.6,1334.1z M2859.7,1334.8c-9.8-4.6-19.3-9.7-28.4-15.4c-2.9-1.8-3.8-5.6-2-8.5
						s5.6-3.8,8.5-2c8.7,5.4,17.8,10.4,27.1,14.7c3.1,1.4,4.4,5.1,3,8.2c-1,2.1-3,3.4-5.2,3.6
						C2861.7,1335.4,2860.7,1335.3,2859.7,1334.8z M2804.9,1300.6c-8.4-6.8-16.4-14.1-23.9-21.8c-2.4-2.4-2.3-6.4,0.1-8.7
						c2.4-2.4,6.4-2.3,8.7,0.1c7.1,7.3,14.8,14.3,22.8,20.8c2.7,2.1,3.1,6,0.9,8.7c-1.1,1.4-2.8,2.2-4.4,2.3
						C2807.6,1302.1,2806.1,1301.6,2804.9,1300.6z M2759.8,1254.3c-6.5-8.6-12.6-17.6-18-26.9c-1.7-2.9-0.7-6.7,2.2-8.5
						s6.7-0.7,8.5,2.2c5.2,8.8,10.9,17.5,17.2,25.7c2.1,2.7,1.5,6.6-1.2,8.7c-1,0.8-2.2,1.2-3.4,1.3
						C2763.1,1256.8,2761.1,1256,2759.8,1254.3z"/>
					
						<linearGradient id="SVGID_13_" gradientUnits="userSpaceOnUse" x1="1225.6139" y1="2354.7322" x2="1250.5106" y2="2354.7322" gradientTransform="matrix(-0.998 6.330000e-02 -6.330000e-02 -0.998 4522.4292 3565.9739)">
						<stop  offset="0" style="stop-color:#B37CFF"/>
						<stop  offset="1" style="stop-color:#F895E7"/>
					</linearGradient>
					<path class="st20" d="M3132.2,1305.4c1.2-0.1,2.4-0.5,3.4-1.3c4.2-3.2,8.3-6.6,12.2-10c2.6-2.2,2.8-6.2,0.6-8.7
						c-2.3-2.6-6.1-2.8-8.7-0.6c-3.7,3.3-7.7,6.5-11.6,9.6c-2.7,2.1-3.2,6-1.1,8.7C3128.2,1304.7,3130.2,1305.5,3132.2,1305.4z"/>
				</g>
				<g>
					
						<linearGradient id="SVGID_14_" gradientUnits="userSpaceOnUse" x1="1746.358" y1="4268.4351" x2="3934.8535" y2="1324.2006" gradientTransform="matrix(1 0 0 -1 0 3710)">
						<stop  offset="0" style="stop-color:#A737D5"/>
						<stop  offset="1" style="stop-color:#EF497A"/>
					</linearGradient>
					<path class="st21" d="M3148.6,1188.8c0.8-1.1,0.8-2.6,0-3.6l-22.1-31.1c6.8-16.4,11-34.1,12.2-52.4l33.5-18.1
						c1.2-0.6,1.8-1.9,1.6-3.3l-7.5-45.1c-0.2-1.3-1.3-2.3-2.6-2.6l-37.6-6.4c-7-16.9-16.7-32.3-28.4-45.6l10.9-36.5
						c0.4-1.3-0.1-2.7-1.2-3.4l-37.2-26.6c-1.1-0.8-2.6-0.8-3.6,0l-31.1,22.1c-16.4-6.8-34.1-11-52.4-12.2l-18.1-33.5
						c-0.6-1.2-1.9-1.8-3.3-1.6l-45.1,7.5c-1.3,0.2-2.4,1.3-2.6,2.6l-6.4,37.5c-16.9,7-32.3,16.7-45.6,28.5l-36.5-10.9
						c-1.3-0.4-2.7,0.1-3.4,1.2l-26.6,37.2c-0.8,1.1-0.8,2.5,0,3.6l22.1,31.1c-6.8,16.4-11,34.1-12.2,52.4l-33.5,18.1
						c-1.2,0.6-1.8,1.9-1.6,3.3l7.5,45.1c0.2,1.3,1.3,2.3,2.6,2.6l37.6,6.4c7,16.9,16.7,32.3,28.4,45.6l-10.9,36.5
						c-0.4,1.3,0.1,2.7,1.2,3.4l37.2,26.6c1.1,0.8,2.6,0.8,3.6,0l31.1-22.1c16.4,6.8,34.1,11,52.4,12.2l18.1,33.5
						c0.6,1.2,1.9,1.8,3.3,1.6l45.1-7.5c1.3-0.2,2.4-1.3,2.6-2.6l6.4-37.6c16.9-7,32.3-16.7,45.6-28.4l36.5,10.9
						c1.3,0.4,2.7-0.1,3.4-1.2L3148.6,1188.8z"/>
					<path class="st16" d="M2968.2,1137.2c-12.4-1-23.8-6.8-31.8-16.4c-8.1-9.5-11.9-21.6-10.9-34.1c2.1-25.7,24.8-44.8,50.5-42.7
						c25.7,2.1,44.9,24.8,42.7,50.5c-1,12.4-6.9,23.8-16.4,31.8c-7.8,6.6-17.2,10.3-27.2,11
						C2972.9,1137.5,2970.6,1137.4,2968.2,1137.2z M2937.8,1087.8c-0.8,9.2,2.1,18.1,8,25.1s14.3,11.3,23.4,12.1l0,0
						c9.2,0.8,18.1-2.1,25.1-8c7-5.9,11.3-14.3,12.1-23.4c1.6-18.9-12.5-35.6-31.4-37.1c-1.7-0.1-3.4-0.2-5.1-0.1
						C2953.2,1057.4,2939.3,1070.6,2937.8,1087.8z"/>
					<path class="st16" d="M2978.7,1206.3c3.9-0.3,7.8-0.7,11.8-1.3c7.8-1.3,15.5-3.4,22.9-6.2c0.3-0.1,0.7-0.3,1-0.4
						c2.6-1,4.1-3.5,3.9-6.1c0-0.6-0.2-1.3-0.4-1.9c-1.3-3.2-4.9-4.7-8-3.5c-6.9,2.7-14.1,4.7-21.4,5.9l0,0
						c-0.4,0.1-0.8,0.1-1.2,0.2c-17.3,2.7-34.7,1-50.8-4.8c-8.7-3.1-17.1-7.4-24.9-12.9c-0.1,0-0.1-0.1-0.2-0.1
						c-0.2-0.1-0.4-0.3-0.6-0.4c-22.6-16.2-37.6-40.2-42.1-67.6c-0.6-3.6-1-7.1-1.2-10.6c-1.5-23.8,5.2-47.3,19.3-67
						c16.2-22.6,40.2-37.6,67.6-42.1c27.4-4.5,55,1.9,77.6,18c22.6,16.2,37.6,40.2,42.1,67.6c0.6,3.5,1,7,1.2,10.5
						c1,15.2-1.4,30.5-7,44.6c-0.3,0.9-0.5,1.8-0.4,2.7c0.1,2.3,1.6,4.4,3.9,5.4c3.2,1.2,6.8-0.3,8-3.5c6.3-15.9,8.9-32.9,7.9-49.9
						c-0.3-3.9-0.7-7.8-1.3-11.8c-5.1-30.7-21.8-57.6-47.1-75.7c-25.3-18.1-56.1-25.3-86.8-20.2c-30.7,5.1-57.6,21.8-75.7,47.1
						c-15.8,22-23.2,48.3-21.6,74.9c0.3,4,0.7,7.9,1.4,11.9C2866.3,1168.5,2919.8,1210,2978.7,1206.3z"/>
				</g>
			</g>
		</g>
		<g>
			<g>
				<g>
					
						<linearGradient id="SVGID_15_" gradientUnits="userSpaceOnUse" x1="3181.5012" y1="1398.2305" x2="916.0449" y2="2246.1021" gradientTransform="matrix(1 0 0 -1 0 3710)">
						<stop  offset="0" style="stop-color:#53D8FF"/>
						<stop  offset="1" style="stop-color:#3840F7"/>
					</linearGradient>
					<path class="st22" d="M1807.9,1677.7c-199.5-189.2-536.9-352.8-833-353.2l-25.5,310.2c7.9-0.2,15.9-0.4,23.9-0.4
						c246.5,0,485.7,139,631.5,315.1c40.4-84.9,124-140.7,163.3-227L1807.9,1677.7z"/>
					
						<linearGradient id="SVGID_16_" gradientUnits="userSpaceOnUse" x1="3215.4832" y1="1489.035" x2="950.0273" y2="2336.9065" gradientTransform="matrix(1 0 0 -1 0 3710)">
						<stop  offset="0" style="stop-color:#53D8FF"/>
						<stop  offset="1" style="stop-color:#3840F7"/>
					</linearGradient>
					<polygon class="st23" points="1090,1208.1 610.8,1441 678.9,1491.9 1111.6,1491.9 1132.1,1221 					"/>
					<g>
						
							<linearGradient id="SVGID_17_" gradientUnits="userSpaceOnUse" x1="1958.7482" y1="1647.3112" x2="-110.2043" y2="2927.019" gradientTransform="matrix(1 0 0 -1 0 3710)">
							<stop  offset="0" style="stop-color:#53D8FF"/>
							<stop  offset="1" style="stop-color:#3840F7"/>
						</linearGradient>
						<path class="st24" d="M1090,1208.1l-46,606.1l-470.9-348.3c-3.2-2.3-2.7-7.2,0.8-8.9L1090,1208.1z"/>
						
							<linearGradient id="SVGID_18_" gradientUnits="userSpaceOnUse" x1="1996.0643" y1="1622.2451" x2="-150.8732" y2="2950.1882" gradientTransform="matrix(1 0 0 -1 0 3710)">
							<stop  offset="0" style="stop-color:#53D8FF"/>
							<stop  offset="1" style="stop-color:#3840F7"/>
						</linearGradient>
						<path class="st25" d="M1576,2106.2c44.6-101.2,127.3-305.2,198.6-388.1c-202.7-215.3-525.3-374.7-844.3-375.1l-25.5,310.2
							c7.9-0.2,15.9-0.4,23.9-0.4C1188.8,1652.8,1530.7,1838.8,1576,2106.2z"/>
					</g>
				</g>
				<g>
					<path class="st2" d="M1712,1739.1c-0.9,0-1.8-0.4-2.4-1.2c-56.1-68-140.8-135.2-245.1-194.3c-1.5-0.9-2.1-2.8-1.2-4.3
						c0.9-1.5,2.8-2.1,4.3-1.2c104.9,59.5,190.3,127.2,246.8,195.8c1.1,1.3,0.9,3.3-0.4,4.4
						C1713.5,1738.8,1712.7,1739.1,1712,1739.1z"/>
					<path class="st2" d="M1431.9,1525.3c-0.5,0-1-0.1-1.5-0.4c-63.9-33.8-130.6-62.6-198.1-85.6c-1.7-0.6-2.5-2.4-2-4s2.3-2.5,4-2
						c67.8,23.1,134.8,52,199,86c1.5,0.8,2.1,2.7,1.3,4.3C1434.1,1524.7,1433,1525.3,1431.9,1525.3z"/>
					<path class="st2" d="M1193.3,1426.6c-0.3,0-0.6,0-0.9-0.1c-40.7-12.3-80.3-22-117.6-28.6c-1.7-0.3-2.9-1.9-2.6-3.7
						c0.3-1.7,2-2.9,3.7-2.6c37.6,6.7,77.4,16.4,118.4,28.8c1.7,0.5,2.6,2.3,2.1,3.9C1195.9,1425.7,1194.7,1426.6,1193.3,1426.6z"/>
				</g>
			</g>
			<g>
				<g>
					
						<linearGradient id="SVGID_19_" gradientUnits="userSpaceOnUse" x1="1874.5374" y1="308.197" x2="1821.8595" y2="3477.2964" gradientTransform="matrix(1 0 0 -1 0 3710)">
						<stop  offset="0" style="stop-color:#53D8FF"/>
						<stop  offset="1" style="stop-color:#3840F7"/>
					</linearGradient>
					<polygon class="st26" points="1830.1,455.3 1774.4,449.7 1787.6,476.9 1530.7,920.5 1991.1,920.5 2092,950.2 2136,925.6 					
						"/>
					
						<linearGradient id="SVGID_20_" gradientUnits="userSpaceOnUse" x1="1880.4596" y1="-77.9253" x2="1819.0355" y2="3617.3535" gradientTransform="matrix(1 0 0 -1 0 3710)">
						<stop  offset="0" style="stop-color:#53D8FF"/>
						<stop  offset="1" style="stop-color:#3840F7"/>
					</linearGradient>
					<path class="st27" d="M1680.2,880.3v570.5c50.3,41.1,56.5,202.1,102.2,252.2c50.8-49.5,147.5-154,211.1-191.9V880.3H1680.2z"/>
					<g>
						
							<linearGradient id="SVGID_21_" gradientUnits="userSpaceOnUse" x1="1765.1787" y1="1800.974" x2="1840.3298" y2="4686.856" gradientTransform="matrix(1 0 0 -1 0 3710)">
							<stop  offset="0" style="stop-color:#53D8FF"/>
							<stop  offset="1" style="stop-color:#3840F7"/>
						</linearGradient>
						<path class="st28" d="M1494.1,950.7H2092l-314.9-501c-0.6-1-2.1-1-2.7,0l-285.2,492.4C1487,945.9,1489.7,950.7,1494.1,950.7z"
							/>
						
							<linearGradient id="SVGID_22_" gradientUnits="userSpaceOnUse" x1="1764.5702" y1="1797.4673" x2="1839.9791" y2="4693.252" gradientTransform="matrix(1 0 0 -1 0 3710)">
							<stop  offset="0" style="stop-color:#53D8FF"/>
							<stop  offset="1" style="stop-color:#3840F7"/>
						</linearGradient>
						<path class="st29" d="M1623.2,910.5v673.7c57,41.1,100.2,99.8,146,149.9c50.8-49.5,110.4-150.9,172.4-190.1V910.5H1623.2z"/>
					</g>
				</g>
				<path class="st2" d="M1626.6,938.8h-100.3c-2.5,0-4.7-1.3-5.9-3.4s-1.3-4.7-0.1-6.8l243.9-434.8c0.8-1.5,2.8-2.1,4.3-1.2
					c1.5,0.9,2.1,2.8,1.2,4.3l-243.9,434.8c-0.1,0.2-0.1,0.3,0,0.5c0.1,0.2,0.3,0.3,0.5,0.3h100.3c1.7,0,3.2,1.4,3.2,3.2
					C1629.7,937.3,1628.3,938.8,1626.6,938.8z"/>
			</g>
			<g>
				
					<linearGradient id="SVGID_23_" gradientUnits="userSpaceOnUse" x1="399.2392" y1="-566.4928" x2="2668.8835" y2="2165.0652" gradientTransform="matrix(1 0 0 -1 0 3710)">
					<stop  offset="0" style="stop-color:#53D8FF"/>
					<stop  offset="1" style="stop-color:#3840F7"/>
				</linearGradient>
				<path class="st30" d="M2700.5,1334.3c-459.5,0.6-852.9,258.2-1023,665.4l0,0c0,0,0,0.1,0,0.1c-0.2,0.4-0.3,0.8-0.5,1.1l0.2,0
					c-89.3,196.1-34.9,814.1-27.9,1154.5c0,0,352.8,19.8,352,5.8c-13.9-258-35.2-835.2,1.3-1051.9c11.6-68.6,41.4-133,86.5-186.6
					c145.7-173.3,366.2-283.8,613-283.8c8,0,15.9-0.1,23.9,0.1L2700.5,1334.3z"/>
				
					<linearGradient id="SVGID_24_" gradientUnits="userSpaceOnUse" x1="1438.7489" y1="850.1268" x2="3962.0002" y2="3395.5569" gradientTransform="matrix(1 0 0 -1 0 3710)">
					<stop  offset="0" style="stop-color:#53D8FF"/>
					<stop  offset="1" style="stop-color:#3840F7"/>
				</linearGradient>
				<path class="st31" d="M2635.5,1312.8c-0.3-3.9-3.6-6.9-7.6-6.9c-456.5,3.3-846.8,263.6-1016,677.8l0,0c0,0,0,0,0,0
					c-0.2,0.4-0.3,0.7-0.5,1.1l0.2,0c-86.9,194.4-24.3,822-14.8,1165.8c0.2,6.8,5.6,12.2,12.4,12.4c61.8,1.5,339.3,8.1,339.1,4.2
					c-14.7-282-50-835.7-11.6-1070.1c11.7-71.2,42-138,88-193.5c145.7-175.7,365.7-287.6,611.7-287.6c5.2,0,10.5,0,15.7,0
					c4.4,0.1,7.9-3.7,7.5-8.1L2635.5,1312.8z"/>
				
					<linearGradient id="SVGID_25_" gradientUnits="userSpaceOnUse" x1="958.4797" y1="-10.9256" x2="3161.4304" y2="2874.1587" gradientTransform="matrix(1 0 0 -1 0 3710)">
					<stop  offset="0" style="stop-color:#53D8FF"/>
					<stop  offset="1" style="stop-color:#3840F7"/>
				</linearGradient>
				<polygon class="st32" points="3010.5,1488.8 3011.7,1487.9 3000.3,1425.2 2999.3,1424.7 2999.1,1423.6 2997.9,1424.1 
					2534.7,1200.7 2566.6,1622 2558.6,1625.7 2521.2,1777 2568.8,1815.3 2580.6,1806.5 2580.6,1806.7 3010.1,1489.1 				"/>
				
					<linearGradient id="SVGID_26_" gradientUnits="userSpaceOnUse" x1="1442.0762" y1="1106.323" x2="3729.5457" y2="3413.8984" gradientTransform="matrix(1 0 0 -1 0 3710)">
					<stop  offset="0" style="stop-color:#53D8FF"/>
					<stop  offset="1" style="stop-color:#3840F7"/>
				</linearGradient>
				<polygon class="st33" points="2475.2,1170.9 2521.2,1777 2999.1,1423.6 				"/>
			</g>
		</g>
		<g>
			<g>
				<g>
					<path class="st34" d="M655.3,2738.7c4.3,23.9,10.5,47.5,18.6,70.4c5.1,14.6,11,29,17.5,43.1c17.4,37.3,39.5,72.3,65.3,104.4
						c16.3,20.4,34,39.6,52.8,57.7c16.8,16.1,34.6,31.3,53.1,45.5c17.6,13.5,35.9,26.1,54.9,37.8c31,19.2,63.7,35.8,97.5,49.4
						c50.9,20.7,104.4,34.8,158.9,41.2c1.8,0.2,3.7,0.4,5.5,0.6c20.7,2.3,41.4,3.4,62.2,3.4c91.1,0.2,182.2-20.8,262.9-62.9
						c4.5-34.1,6.2-71.4,10.8-105.5c-65.4,7.3-131.8-10.9-188.2-45.4c-14.9-9.1-29.2-19.4-42.5-30.6c-1.1-0.9-2.2-1.9-3.3-2.8
						c-23.4-20.3-44-43.3-62.1-68.4c-16.5-22.8-30.8-47.2-43-72.6c-9.9-20.5-18.5-41.7-25.8-63.2c-3.2-9.5-6.2-19.1-9.1-28.8
						c-8.8-29.8-16-60.1-23.9-90.2c-8-30.5-16.6-60.8-28.2-90.1c-0.7-1.8-1.4-3.6-2.2-5.4c-9.4-22.9-21.2-45.4-35.3-66
						c-26.3-38.3-60.8-69.9-104.2-85.3c-64.3-22.9-139.1-4.7-192.3,38.1c-53.2,42.8-86,107.4-99.3,174.4
						C646.1,2637.3,646.4,2688.7,655.3,2738.7z"/>
				</g>
				<g>
					<path class="st35" d="M1179.3,3188.9c20.7,2.3,41.4,3.4,62.2,3.4c17.2-75.1,46.1-147.5,85.4-213.8
						c-14.9-9.1-29.2-19.4-42.5-30.6c-1.1-0.9-2.2-1.9-3.3-2.8C1227.7,3015.6,1192.5,3100.9,1179.3,3188.9z"/>
				</g>
				<g>
					<path class="st35" d="M917.4,3097.6c31,19.2,63.7,35.8,97.5,49.4c45.9-104.3,116.4-197.8,204.2-270.4
						c-16.5-22.8-30.8-47.2-43-72.6c-65.1,33.3-123.1,80.8-169.6,137.2C968,2987.7,937.9,3040.9,917.4,3097.6z"/>
				</g>
				<g>
					<path class="st35" d="M756.7,2956.7c16.3,20.4,34,39.6,52.8,57.7c70.4-135.4,190.4-244.6,331.7-302.3
						c-8.8-29.8-16-60.1-23.9-90.2C958.7,2678.3,826.2,2802.9,756.7,2956.7z"/>
				</g>
				<g>
					<path class="st35" d="M655.3,2738.7l18.6,70.4c88.9-147.3,243.9-252.8,413.1-282.9c-9.4-22.9-21.2-45.4-35.3-66
						C889.7,2497.3,744.9,2598.2,655.3,2738.7z"/>
				</g>
				<g class="st9">
					<path d="M1346.6,2989.6c51.8,27.2,110.6,40.7,168.5,34.2c-4.5,34.1-6.2,71.4-10.8,105.5c-80.7,42.1-171.8,63.1-262.9,62.9
						c-20.8,0-41.5-1.2-62.2-3.4c-1.8-0.2-3.7-0.4-5.5-0.6c-54.6-6.4-108-20.5-158.9-41.2c-33.8-13.7-66.5-30.3-97.5-49.4
						c-18.9-11.7-37.2-24.3-54.9-37.8c-13.7-10.5-27-21.6-39.8-33.2c53.2,41.9,115.6,71.2,184.7,81.9
						C1129.7,3128.5,1267.2,3082.5,1346.6,2989.6z"/>
				</g>
				<g class="st36">
					<path d="M744,2422.7c3.6-3.3,7.3-6.5,11.2-9.6c15.4-12.4,32.5-22.7,50.8-30.5c-4.8,12.5-8.4,25.5-10.7,38.9
						c-26.6,147.1,10.3,303.9,122.8,406.5c70,66.6,177,100.1,268.4,58.6c9.8-4.8,19.2-10.3,27.9-16.5c1.6,2.2,3.1,4.4,4.7,6.6
						c18.1,25.1,38.7,48.1,62.1,68.4c1.1,1,2.2,1.9,3.3,2.8c0.8,0.7,1.6,1.3,2.4,2c-47.5,24.9-100.5,39.8-153.2,43.5
						c-173.7,14.8-358.1-86.9-404.8-266.5C702.2,2624.3,703.1,2513.9,744,2422.7z"/>
				</g>
				<g class="st37">
					<path d="M656,2587.5c12.3-62.1,41.5-122.2,88.1-164.8c-41,91.1-41.8,201.5-15.2,304.1c46.7,179.7,231.2,281.3,404.8,266.5
						c52.7-3.7,105.7-18.6,153.2-43.5c12.6,10.5,26,20.1,40,28.7c6.4,3.9,13,7.7,19.7,11.2c-79.4,92.9-216.9,138.9-339.2,118.9
						c-69.1-10.7-131.5-40-184.7-81.9c-4.5-4-8.9-8.1-13.2-12.3c-18.9-18.1-36.5-37.3-52.8-57.7c-25.7-32.2-47.8-67.1-65.3-104.4
						c-6.6-14-12.4-28.4-17.5-43.1c-8-22.9-14.3-46.5-18.6-70.4C646.4,2688.7,646.1,2637.3,656,2587.5z"/>
				</g>
				<g class="st37">
					<path class="st2" d="M964.4,2418.1c35.3,23,62.2,57.6,80.1,95.7c17.9,38.1,27.3,79.8,32.4,121.7c0.9,7.2,1.6,14.6,0.2,21.8
						c-1.4,7.1-5.4,14.1-11.9,17.5c-12.2,6.4-26.9-2.1-36.4-12.1c-25.8-27.3-35.5-66-56.9-96.8c-29.7-42.9-79.2-67-118-101.9
						c-10.9-9.8-21.5-21.3-24.8-35.7c-12.5-54.7,72.7-37.9,99.8-28C941.4,2404.9,953.3,2410.9,964.4,2418.1z"/>
				</g>
			</g>
			<g>
				<path class="st34" d="M1342.9,3014.2c0.3,5.6,0.8,11.2,1.5,16.8c4.1,30.8,14.7,60.2,33.5,85c19.2,25.4,44.8,43.5,73.4,56.8
					c39.4,18.3,84.9,27.5,128.2,34c10.7,1.6,21.5,3.1,32.3,4.5c94.2,12.4,190.3,16.4,282.4-4.1c8.4-1.9,16.8-4,25.2-6.3
					c37.4-10.3,75.3-26.3,99.2-56.9c28.2-36.1,31.5-85.5,29.4-131.3c-6.1-138.7-49.6-272.8-92.6-404.8
					c-144.8-37.5-282.2-46.2-431.7-43.9c-9.8,66.1-43.5,125.9-78.5,182.8c-35,56.9-72.5,113.6-91.3,177.6c-4.3,14.6-7.5,29.7-9.4,45
					C1342.6,2984.3,1342,2999.4,1342.9,3014.2z"/>
			</g>
			<g class="st37">
				<path d="M1653.4,2983.2c-0.8-0.8-1.5-1.8-1.8-3.1C1652.4,2980.9,1653,2982,1653.4,2983.2z"/>
			</g>
			<g class="st37">
				<path d="M1629.6,2995.1c-0.3-0.4-0.5-0.9-0.7-1.3C1629.2,2994.3,1629.4,2994.7,1629.6,2995.1z"/>
			</g>
			<g>
				<path class="st35" d="M1451.3,3172.8c39.4,18.3,84.9,27.5,128.2,34c10.7,1.6,21.5,3.1,32.3,4.5c94.2,12.4,190.3,16.4,282.4-4.1
					c20.3-13.8,37.9-31.2,50.9-51.9c34.4-54.9,32.8-124.3,26.6-188.8c-9.3-96.7-27.2-195.2-77.5-278.3
					c-25.7-42.3-63.1-81.9-111.8-90.8c-41.6-7.5-95.3-10.4-128.2,16.2c-32.9,26.5-57.1,62.1-79.6,97.9
					c-24.3,38.6-47.3,78.1-69.3,118c-38.2,69.2-65.3,181.7-67,260.8C1437.4,3123.4,1442.5,3150.5,1451.3,3172.8z"/>
			</g>
			<g>
				<path class="st38" d="M1861.8,3058.3c4.8-12.8,5.2-24.9,5.7-38.3c0.2-5,6.9-5.8,8.6-1.2c4.8,13.6,2.3,29.5-3,42.5
					C1870.4,3068.2,1859.2,3065.4,1861.8,3058.3z"/>
			</g>
			<g>
				<path class="st38" d="M1837.1,2963.7c0.6-4.2,6.6-3.4,7.7,0c4,12,2.9,26,1.8,38.4c-0.7,7.5-12.5,7.5-11.8,0
					C1836.1,2989.5,1835.2,2976.4,1837.1,2963.7z"/>
			</g>
			<g>
				<path class="st38" d="M1825.4,3111.1c4.4-14.2,7.6-28.3,8.8-43.1c0.5-6,9.2-6.2,9.4,0c0.6,15.7-1.6,31.4-7.3,46.1
					C1833.8,3120.9,1823.1,3118.3,1825.4,3111.1z"/>
			</g>
			<g class="st9">
				<path d="M1445.1,2746.8c35-56.9,68.7-116.7,78.5-182.8c149.6-2.2,286.9,6.5,431.7,43.9c12.6,38.7,25.3,77.6,37,116.7
					c-179.9,7.5-358.1,42.3-525.4,117.9c-38.9,16.7-76.2,39-108.4,67.1C1378.5,2851.6,1412.8,2799.3,1445.1,2746.8z"/>
			</g>
			<g class="st39">
				<path d="M1344.5,2969.4c1.9-15.3,5.1-30.4,9.4-45c1.5-5,3.1-9.9,4.8-14.8c32.2-28.1,69.5-50.4,108.4-67.1
					c167.4-75.6,345.6-110.4,525.4-117.9c6.6,22,12.9,44.1,18.8,66.3c-156.4-1.9-317.4,34.1-446.4,130.3
					c-38.2,28.6-71.6,78.8-54.9,126.5c31,83.5,126.5,107.4,210,121.7c89.3,14,181.1,20.3,267,2.9c-20.3,13.2-44.1,21.9-67.6,28.4
					c-8.3,2.3-16.8,4.4-25.2,6.3c-92,20.6-188.2,16.5-282.4,4.1c-10.8-1.4-21.6-2.9-32.3-4.5c-43.3-6.5-88.8-15.7-128.2-34
					c-28.7-13.3-54.2-31.4-73.4-56.8c-18.8-24.8-29.4-54.2-33.5-85c-0.7-5.6-1.2-11.1-1.5-16.8
					C1342,2999.4,1342.6,2984.3,1344.5,2969.4z"/>
			</g>
			<g>
				<g>
					<path class="st35" d="M1607.2,2644.8c5.1,103.8,22.8,206.9,52.7,306.5c2.3,7.8,4.7,16.6,0.8,23.7s-17,8.2-18.9,0.3
						c4.8,5,0.3,14.7-5.5,18.5s-14.8,1.1-17.6-5.4c4.6,7-6.3,15.7-14.7,15.4s-15.2-6.5-21-12.5c-100.6-103-153.8-250.6-142-394.1
						C1497.4,2613.8,1551,2628.3,1607.2,2644.8z"/>
				</g>
				<g>
					<path class="st38" d="M1580.1,2746.1c1.5-5.4,9.6-3.9,9.6,1.6c-0.1,14.9,1.2,28.2,5.7,42.5c2,6.4-8.6,10.7-11.2,4.4
						C1578,2779.5,1575.8,2762,1580.1,2746.1z"/>
				</g>
				<g>
					<path class="st38" d="M1540.2,2715.8c3,13.2,3.9,27.1,5.3,40.5c0.8,8.1-12,7.7-12.8-0.4c-1.3-12.9-3-26.1-2.6-39.1
						C1530.3,2711.1,1538.9,2710.1,1540.2,2715.8z"/>
				</g>
				<g>
					<path class="st38" d="M1561.8,2801.5c3.9,16.5,9.6,32.3,17.3,47.4c3.8,7.4-7.5,13.6-11.3,6.2c-8.4-16-14.2-33-17.2-50.9
						C1549.3,2797,1560,2794.1,1561.8,2801.5z"/>
				</g>
				<g class="st37">
					<path d="M1610.7,2865.6c-26-86-87.8-171.6-170.8-210.3c-0.7-19.3-0.3-38.7,1.2-58c56.3,16.5,109.8,31.1,166,47.6
						c5.1,103.8,22.8,206.9,52.7,306.5c2.3,7.8,4.7,16.6,0.8,23.7c-3.3,6-12.9,7.7-17.1,3.5c-0.3-1.2-0.9-2.3-1.8-3.2
						c0.3,1.3,0.9,2.3,1.8,3.2c1.4,5.2-2.5,12.2-7.3,15.3c-5.4,3.6-13.6,1.4-16.8-4c-0.2-0.4-0.4-0.9-0.7-1.3
						c0.3,0.4,0.5,0.9,0.7,1.3c2.6,6.7-7.5,14.4-15.3,14.1c-8.3-0.3-15.2-6.5-21-12.5c-0.1-0.1-0.2-0.2-0.3-0.3
						C1608.7,2954.1,1626.1,2910.3,1610.7,2865.6z"/>
				</g>
				<g class="st36">
					<path d="M1556.2,2849.8c-12.5-64.8-54.3-139.8-114.8-170.4c-0.7-8-1.2-16.1-1.5-24.1c83,38.7,144.7,124.3,170.8,210.3
						c15.4,44.7-2.1,88.5-27.8,125.5c-17.3-17.7-33.1-36.7-47.4-56.8C1553.4,2910.7,1562.8,2882.1,1556.2,2849.8z"/>
				</g>
			</g>
			<g>
				<g>
					<path class="st35" d="M1864.6,2590.9c-7.9,103.6-28.5,206.2-61.2,304.9c-2.6,7.7-5.1,16.4-1.4,23.7s16.8,8.7,18.9,0.8
						c-5,4.9-0.8,14.6,5,18.6s14.8,1.5,17.7-4.9c-4.8,6.8,5.9,15.9,14.2,15.8c8.4-0.1,15.3-6.1,21.3-11.9
						c103.4-100.2,160.7-246.3,152.8-390.1C1975.2,2562.9,1921.3,2576,1864.6,2590.9z"/>
				</g>
				<g>
					<path class="st38" d="M1888.9,2693c-1.3-5.5-9.5-4.1-9.6,1.3c-0.3,14.9-2,28.1-6.8,42.3c-2.2,6.4,8.3,10.9,11,4.7
						C1890.1,2726.4,1892.7,2708.9,1888.9,2693z"/>
				</g>
				<g>
					<path class="st38" d="M1929.6,2663.7c-3.4,13.1-4.7,26.9-6.4,40.4c-1.1,8.1,11.8,8.1,12.8,0c1.6-12.9,3.7-26,3.7-39
						C1939.7,2659.3,1931.1,2658,1929.6,2663.7z"/>
				</g>
				<g>
					<path class="st38" d="M1905.7,2748.8c-4.4,16.4-10.5,32-18.6,46.9c-4,7.3,7.1,13.8,11.2,6.5c8.8-15.8,15.2-32.6,18.6-50.4
						C1918.3,2744.6,1907.7,2741.5,1905.7,2748.8z"/>
				</g>
				<g class="st37">
					<path d="M1855,2811.5c28.4-85.2,92.5-169.1,176.5-205.5c1.3-19.3,1.4-38.7,0.4-58c-56.7,14.9-110.6,28-167.3,42.9
						c-7.9,103.6-28.5,206.2-61.2,304.9c-2.6,7.7-5.1,16.4-1.4,23.7c3.1,6.1,12.7,8,17,3.9c0.3-1.2,0.9-2.2,1.8-3.1
						c-0.3,1.3-1,2.3-1.8,3.1c-1.5,5.2,2.2,12.3,6.8,15.5c5.3,3.7,13.5,1.8,17-3.6c0.2-0.4,0.4-0.9,0.7-1.3
						c-0.3,0.4-0.5,0.9-0.7,1.3c-2.8,6.6,7.1,14.6,14.9,14.5c8.4-0.1,15.3-6.1,21.3-11.9c0.1-0.1,0.2-0.2,0.3-0.3
						C1854.6,2900.1,1838.4,2855.8,1855,2811.5z"/>
				</g>
				<g class="st36">
					<path d="M1909.9,2797.2c14.3-64.4,58.2-138.3,119.4-167.1c0.9-8,1.6-16,2.2-24.1c-84,36.4-148.1,120.3-176.5,205.5
						c-16.6,44.3-0.4,88.6,24.4,126.2c17.7-17.2,34.1-35.8,49-55.5C1911.1,2858.2,1902.5,2829.3,1909.9,2797.2z"/>
				</g>
			</g>
			<g>
				<g>
					<g>
						<path class="st40" d="M1908.6,1797.2c25.8,27.6,49.9,56.2,72.4,85.6c58.2,75.8,105.8,157.6,145.5,245.3
							c9.9,21.8,19.3,43.9,28.2,66.5c-1-2.6,46.1-47.4,50.1-53.4c67.4-101.9,109.2-195.6,125.8-269.4c6.6-29.4,31-126.4-18.4-133.1
							c-66.2-9-140.5-0.7-205.9,9.6C1970.4,1769.8,1911.9,1800.8,1908.6,1797.2z"/>
					</g>
					<g>
						<path class="st41" d="M1981.1,1882.8c58.2,75.8,105.8,157.6,145.5,245.3c59.7-87,123.4-212,135.5-257.1
							c2.9-10.7,5.7-22.2,1.4-32.4c-4.1-9.9-14.2-16.3-24.6-18.5c-10.4-2.3-21.3-1.1-31.9,0.3
							C2129.3,1831,2054.4,1854.6,1981.1,1882.8z"/>
					</g>
					<g class="st9">
						<path d="M1908.6,1797.2c5.3,5.6,10.5,11.3,15.6,17c28.1-9.6,82.5-27.3,169.1-41c63.8-10.1,136.3-18.1,200.7-9.4
							c48.2,6.5,24.4,101,17.9,129.7c-16.2,72-56.9,163.3-122.6,262.6c-2.5,3.7-21.8,22.6-35.4,36.6l0.7,1.7
							c-1-2.6,46.1-47.4,50.1-53.4c67.4-101.9,109.2-195.6,125.8-269.4c6.6-29.4,31-126.4-18.4-133.1c-66.2-9-140.5-0.7-205.9,9.6
							C1970.4,1769.8,1911.9,1800.8,1908.6,1797.2z"/>
					</g>
					<g class="st9">
						<path d="M1981.1,1882.8c22.7-8.7,45.5-17,68.5-24.6c24,42.7,57.4,74,113.6,69.3c31.5-1.4,62-12.4,89.2-28.8
							c-22.9,56.9-75.7,156.5-125.8,229.4C2086.9,2040.3,2039.2,1958.6,1981.1,1882.8z"/>
					</g>
				</g>
				<g>
					<g>
						<path class="st40" d="M1366.6,1889.8c-21.2,31.3-40.5,63.3-58.1,95.9c-45.5,84-79.7,172.3-105,265.1
							c-6.3,23.1-12.1,46.4-17.3,70.1c0.6-2.7-53-39.5-57.9-44.9c-82.6-90-138.6-175.9-166.7-246.2c-11.2-28-50.5-119.9-2.8-134.3
							c63.9-19.3,138.6-22.8,204.9-22.9C1301.3,1872.4,1363.9,1893.8,1366.6,1889.8z"/>
					</g>
					<g>
						<path class="st41" d="M1308.6,1985.7c-45.5,84-79.7,172.3-105,265.1c-72.7-76.5-155.2-189.9-174.3-232.5
							c-4.5-10.1-9.1-21.1-6.5-31.8c2.5-10.4,11.4-18.3,21.4-22.2c9.9-3.9,20.8-4.5,31.5-4.7
							C1154.1,1957.9,1231.7,1969.4,1308.6,1985.7z"/>
					</g>
					<g class="st9">
						<path d="M1366.6,1889.8c-4.3,6.4-8.6,12.8-12.7,19.3c-29.3-5.1-85.7-14-173.5-13.9c-64.6,0.1-137.4,3.6-199.7,22.3
							c-46.5,14-8.2,103.6,2.7,130.9c27.4,68.5,81.9,152.3,162.5,240c3,3.3,25.1,18.9,40.7,30.6l-0.4,1.8c0.6-2.7-53-39.5-57.9-44.9
							c-82.6-90-138.6-175.9-166.7-246.2c-11.2-28-50.5-119.9-2.8-134.3c63.9-19.3,138.6-22.8,204.9-22.9
							C1301.3,1872.4,1363.9,1893.8,1366.6,1889.8z"/>
					</g>
					<g class="st9">
						<path d="M1308.6,1985.7c-23.8-5-47.6-9.6-71.5-13.5c-17,46-45.1,82.1-101.3,86.3c-31.3,3.6-63.2-2.5-92.6-14.4
							c31.6,52.5,99.4,142.6,160.4,206.8C1228.9,2158,1263.1,2069.8,1308.6,1985.7z"/>
					</g>
				</g>
				<g>
					<path class="st34" d="M1139.5,2579.4c13.8,22.3,40.4,32.6,65.5,40.4c0.2,0.1,0.5,0.1,0.7,0.2c9.7,3,19.4,5.9,29.2,8.6
						c58.4,16.4,118.1,28.1,178.3,35.3c9.8,1.2,19.7,2.2,29.6,3.1c178.8,16.7,361.5-6.6,530.7-67.2c47.6-17,94.4-37.1,138.5-61.5
						c30.9-17.1,60.5-36.3,88.3-58.2c16.7-13.2,33.1-28,45.6-45.1c8.9-12.2,15.9-25.6,19.4-40.4c8.9-36.9-4.7-75.1-18.1-110.6
						c-43.8-116.1-89.4-233.5-159.4-336.7c-58.4-86.1-135.6-160.4-234.1-198c-120-45.8-259.6-33.2-372.9,22.7
						c-35.1,17.3-68.2,38.3-98.3,62.1c-202.9,161-235.3,433.2-252.7,674.4C1128.1,2532.8,1126.8,2558.8,1139.5,2579.4z"/>
				</g>
				<g>
					<path class="st40" d="M1961.6,2353c1.8,15.8,8.7,30.6,17,44.2c33.9,55.3,90.4,92.7,133.4,141.1c30.9-17.1,60.5-36.3,88.3-58.2
						c16.7-13.2,33.1-28,45.6-45.1c-37.5-43.9-82.3-81.8-132-111.3c-28.1-16.7-58.9-31.1-91.5-31.5c-17.3-0.3-35.6,4-47.6,16.5
						C1963.8,2320.2,1959.8,2337.2,1961.6,2353z"/>
				</g>
				<g>
					<path class="st40" d="M1205,2619.8c0.2,0.1,0.5,0.1,0.7,0.2c9.7,3,19.4,5.9,29.2,8.6c58.4,16.4,118.1,28.1,178.3,35.3
						c38.8-68.6,75.2-138.8,93.8-215.1c5.3-21.6,8.5-46.5-4.8-64.3c-11.1-14.8-31.3-20.5-49.6-18.4c-18.4,2.1-35.3,10.8-51.1,20.4
						C1312.6,2439.7,1242.6,2523.4,1205,2619.8z"/>
				</g>
				<g>
					<path class="st42" d="M1712.9,1791.7c15.3,12.6,25.8,32.2,33.4,50.1c3.3,7.7-8.7,12.4-12.1,4.8c-7.7-17.6-18.9-31.4-29.2-47.3
						C1701.8,1794.1,1707.9,1787.6,1712.9,1791.7z"/>
				</g>
				<g>
					<path class="st42" d="M1625.7,1767.9c11.4,9.1,19.9,21.2,26.3,34.2c3.7,7.5-8.2,11.9-11.9,4.7c-5.9-11.6-13.7-21.6-22-31.6
						C1614.2,1770.5,1621.1,1764.3,1625.7,1767.9z"/>
				</g>
				<g>
					<path class="st42" d="M1692.5,1883c6.1,10,11.7,20.4,17.3,30.7c4,7.3-8.1,12-12,4.7c-5.3-9.8-10.6-19.7-15.4-29.8
						C1679.5,1882.7,1689.1,1877.3,1692.5,1883z"/>
				</g>
				<g>
					<path class="st42" d="M1587,1824.4c10.4,11.6,18.6,25.8,27.2,38.8c4.7,7.1-5.9,14.9-10.6,7.8c-8.9-13.4-18.9-26.9-25.8-41.5
						C1575.1,1823.7,1583.2,1820.3,1587,1824.4z"/>
				</g>
				<g>
					<path class="st42" d="M1645.7,1959.3c8.5,16.4,15.5,33.7,22.8,50.6c3.3,7.6-8.7,12.3-12,4.7c-7.3-16.9-15-33.9-21.1-51.3
						C1633.2,1956.6,1642.5,1953.2,1645.7,1959.3z"/>
				</g>
				<g>
					<path class="st42" d="M1727.5,2022.4c6.3,13.7,9.3,29.7,13.2,44.3c2.1,7.8-9.7,12.5-11.8,4.6c-4.1-15-9.8-30.9-11.3-46.4
						C1716.9,2018.9,1725.1,2017.2,1727.5,2022.4z"/>
				</g>
				<g>
					<path class="st42" d="M1626.7,2042.8c9.3,13,14.7,30.1,21.1,44.6c3.3,7.6-8.7,12.3-12,4.7c-6.4-14.6-15-30.1-18.3-45.8
						C1616.3,2041.2,1623.8,2038.8,1626.7,2042.8z"/>
				</g>
				<g>
					<path class="st42" d="M1691.8,2101.6c6.6,17.9,11.4,36.5,16.2,54.9c2.1,7.7-9.6,12.4-11.7,4.6c-5.2-18.8-10.6-37.9-14.1-57.2
						C1681.3,2098.4,1689.9,2096.4,1691.8,2101.6z"/>
				</g>
				<g>
					<path class="st42" d="M1668.2,2172.5c5.9,13.2,10.8,26.4,15.4,40.1c2.5,7.3-8.7,11.7-11.1,4.4c-4.7-14.1-8.8-28.1-12.2-42.6
						C1659.2,2169.8,1666.4,2168.5,1668.2,2172.5z"/>
				</g>
				<g>
					<path class="st42" d="M1722.3,2225c4,11.7,7.8,23.6,11.5,35.4c2.4,7.6-9.2,12.2-11.6,4.6c-3.7-11.9-7.3-23.8-10.6-35.8
						C1709.7,2222.2,1719.9,2217.9,1722.3,2225z"/>
				</g>
				<g>
					<path class="st42" d="M1562.2,1909.1c6.2,14,15.9,30.4,17.9,45.8c0.6,4.6-5.3,6.3-7.9,3.1c-5-5.9-7.8-13.8-11.1-20.8
						c-3.6-7.8-7.1-15.6-10.6-23.4C1547.2,1906.3,1559,1901.7,1562.2,1909.1z"/>
				</g>
				<g>
					<path class="st42" d="M1483.7,1808c13.1,11.5,24.5,25.8,31.2,42c2.4,5.8-6.6,11.1-9.9,5.4c-8.2-14.1-17.1-26.6-29.3-37.5
						C1469.5,1812.5,1477.4,1802.6,1483.7,1808z"/>
				</g>
				<g class="st36">
					<path d="M1254.5,1982.6c32.7-55.4,74.4-105.8,128-148.3c30.1-23.9,63.2-44.8,98.3-62.1c52.4-25.8,110.4-42.4,169.6-48.3
						c-21.7,16.2-41.9,34.5-60,53.1c-69.4,69.8-114.9,161-104.4,260.7c17.9,168.5,171,322.7,343.9,323.6
						c143.2-1.1,283.8-59.6,386.4-157.5c8.9,22.5,17.5,45,26,67.6c-85.9,115.2-230.5,188.3-371.6,203.2
						c-206.2,24.3-437.7-30.4-569.6-210.8C1240.4,2179.1,1229.6,2076.7,1254.5,1982.6z"/>
				</g>
				<g class="st37">
					<path d="M1254.5,1982.6c-24.9,94.1-14.1,196.5,46.7,281.1c131.9,180.4,363.3,235.1,569.6,210.8c141.1-15,285.7-88,371.6-203.2
						c1.6,4.3,3.3,8.6,4.9,12.9c13.4,35.5,26.9,73.7,18.1,110.6c-2.5,10.5-6.8,20.3-12.2,29.5c-77.6,53.1-162.7,94.1-255.6,113.7
						c-287.4,58.7-625.8,69.8-858.2-140.6C1154.2,2252.9,1182.3,2105.2,1254.5,1982.6z"/>
				</g>
				<g class="st9">
					<path d="M1129.8,2508.7c2.6-36.6,5.6-73.9,9.5-111.4c232.4,210.4,570.8,199.2,858.2,140.6c92.9-19.6,178-60.6,255.6-113.7
						c-2.2,3.7-4.6,7.4-7.2,10.9c-12.5,17.1-28.9,31.9-45.6,45.1c-27.8,21.9-57.4,41.1-88.3,58.2c-44.2,24.4-90.9,44.5-138.5,61.5
						c-169.2,60.6-351.9,83.9-530.7,67.2c-70.3-6.6-139.9-19.3-207.9-38.4c-9.8-2.8-19.5-5.6-29.2-8.6
						c-25.3-7.9-52.3-18.1-66.2-40.6C1126.8,2558.8,1128.1,2532.8,1129.8,2508.7z"/>
				</g>
				<g class="st39">
					<path class="st2" d="M1757.3,1761.5c33.2,4.2,65,15.6,95.3,29.7c43.6,20.3,84.8,46.3,119.5,79.6c34.7,33.3,62.8,74,78.4,119.4
						c4.7,13.6,8.1,29.4,1,41.9c-7.6,13.5-25.3,18.6-40.5,16c-15.3-2.6-28.7-11.3-41.5-20c-101.3-68.2-197.1-144.2-292.8-220.1
						c-17.7-14-23.1-32.1,1.2-40.1C1703.3,1759.5,1730.9,1758.2,1757.3,1761.5z"/>
				</g>
				<g>
					<g>
						<path class="st40" d="M1837.3,2161.9c5.5,5.5,10.5,11.8,13.3,19.1s3.3,15.7,0,22.8c-4.1,9.1-13.8,14.8-23.7,16.1
							s-19.9-1.4-29-5.6c-14.8-6.7-27.8-17.4-37.2-30.7c-10.9-15.3-14.3-47.4,11.1-50.1C1794.8,2131.2,1821.6,2146.3,1837.3,2161.9z
							"/>
					</g>
					<g>
						<path class="st43" d="M1771.7,2133.6c0.1,0,0.3,0,0.4,0c-3.6,10.6-3.3,23.4,0,34.2c8.2,26.7,31.8,48.1,57.8,51.7
							c-1,0.2-2,0.4-3,0.6c-9.9,1.3-19.9-1.4-29-5.6c-14.8-6.7-27.8-17.4-37.2-30.7C1749.8,2168.5,1746.3,2136.3,1771.7,2133.6z"/>
					</g>
				</g>
				<g>
					<g>
						<path class="st40" d="M1563.1,2195.8c-4.3,6.6-7.8,13.7-9,21.5c-1.2,7.7,0.1,16.1,4.8,22.3c5.9,8,16.6,11.6,26.6,10.8
							s19.2-5.6,27.2-11.5c13.1-9.7,23.5-22.9,29.9-37.8c7.4-17.2,4.1-49.4-21.3-46.7C1598.2,2156.9,1575.2,2177.2,1563.1,2195.8z"
							/>
					</g>
					<g>
						<path class="st43" d="M1621.3,2154.4c-0.1,0-0.3,0-0.4,0.1c5.7,9.6,8.1,22.2,7.1,33.4c-2.4,27.8-21,53.7-45.7,62.6
							c1,0,2,0,3.1-0.1c9.9-0.8,19.2-5.6,27.2-11.5c13.1-9.7,23.5-22.9,29.9-37.8C1650.1,2183.9,1646.7,2151.7,1621.3,2154.4z"/>
					</g>
				</g>
				<g>
					<g>
						<path class="st41" d="M1791.1,2287.3c-0.9,3.9-2.9,8-6.6,9.6c-3.2,1.4-7.1,0.6-9.9-1.5c-2.8-2-4.8-5.1-6.2-8.3
							c-2.5-5.8-3.6-12.3-2.9-18.6c0.8-8.2,7.8-17.5,16.6-12.1C1791.3,2261.9,1793.3,2277.9,1791.1,2287.3z"/>
					</g>
					<g class="st9">
						<path d="M1765.5,2268.5c0.3-3.4,1.8-7,3.9-9.7c-2.5,14.1,5.8,29,18.6,35.2c-0.9,1.2-2.1,2.2-3.5,2.8c-3.2,1.4-7.1,0.6-9.9-1.5
							c-2.8-2-4.8-5.1-6.2-8.3C1765.9,2281.3,1764.8,2274.8,1765.5,2268.5z"/>
					</g>
				</g>
				<g>
					<g>
						<path class="st41" d="M1678.7,2303.3c-0.9,3.9-2.9,8-6.6,9.6c-3.2,1.4-7.1,0.6-9.9-1.5c-2.8-2-4.8-5.1-6.2-8.3
							c-2.5-5.8-3.6-12.3-2.9-18.6c0.8-8.2,7.8-17.5,16.6-12.1C1678.9,2278,1681,2293.9,1678.7,2303.3z"/>
					</g>
					<g class="st9">
						<path d="M1653.1,2284.6c0.3-3.4,1.8-7,3.9-9.7c-2.5,14.1,5.8,29,18.6,35.2c-0.9,1.2-2.1,2.2-3.5,2.8c-3.2,1.4-7.1,0.6-9.9-1.5
							c-2.8-2-4.8-5.1-6.2-8.3C1653.5,2297.3,1652.5,2290.9,1653.1,2284.6z"/>
					</g>
				</g>
				<g>
					<g>
						<path class="st40" d="M1805.5,2328.8c30.4,21.3,55,53.9,66.6,84.3c7.7,20.2,12.1,41.8,10.7,63.4
							c-5.5,83.8-104.5,111.5-174.4,104.5c-1-0.1-1.9-0.2-2.9-0.3c-37.9-4.3-78.7-21.4-98.4-55.8c-21.2-36.8-13.1-80.1,5-116.3
							c17.2-34.4,43.4-68.3,77.3-87.4c25.1-14.2,54.2-18.3,81.8-9.6c3,0.9,6,2,8.9,3.2C1789.1,2318.5,1797.6,2323.2,1805.5,2328.8z"
							/>
					</g>
					<g class="st44">
						<path class="st43" d="M1630.1,2377.9c15.7-22.9,35.6-43.4,59.3-56.8c3.8-2.2,7.8-4.1,11.7-5.7c-18.6,14.5-33.1,33.9-39.8,54.6
							c-16.1,52.1,17.9,101.3,66.1,125c45.2,19.2,105.1,17.7,134-26.2c7.6-10.6,13.4-22.3,17.3-34.7c3.4,13.9,5,28.1,4.1,42.4
							c-1.6,24.3-11.1,43.9-25.5,59.3c-11.4,5.9-23.4,10.4-35.3,14c-65.2,18.9-130.2-5.4-171.8-58.6
							C1624.5,2457.1,1619.3,2415.3,1630.1,2377.9z"/>
					</g>
					<g>
						<path class="st43" d="M1612.1,2408.5c5.2-10.4,11.2-20.7,18-30.6c-10.8,37.4-5.6,79.2,20.1,113.2
							c41.6,53.2,106.6,77.5,171.8,58.6c11.9-3.6,23.9-8.1,35.3-14c-35.1,37.6-99.3,50.2-148.9,45.2c-1-0.1-1.9-0.2-2.9-0.3
							c-37.9-4.3-78.7-21.4-98.4-55.8C1585.9,2488.1,1594,2444.8,1612.1,2408.5z"/>
					</g>
					<g>
						<path class="st41" d="M1642.8,2456.9c10.3,18.4,29.8,25.4,49.1,16.1c17.9-8.7,28.9-27.9,47.3-35.3c1.7-0.7,3.4-1.1,5.1-1.5
							c-0.4-13.7,0-27.4-0.9-41.1c-1-14.4-2.8-28.8-5.2-43.1c-0.5-2.8,3.9-3.2,4.4-0.5c2.7,14.6,4.4,29.4,5.3,44.2
							c0.8,13.2,1.5,26.8,0.4,40c12.3-0.3,22.7,8.6,34.3,13.5c20.3,8.6,41.8-2.6,50-22.2c0.4-1,2.2-0.6,1.9,0.6
							c-3.5,13.7-13.9,24.2-27.8,27.7c-15.7,3.9-27.8-2.9-41.1-10.1c-7.9-4.2-16-6.9-24.8-3.4c-8.6,3.5-15.5,10.5-22.2,16.6
							c-12.1,11-25.9,22.8-43.2,23.5c-15.8,0.6-29.4-9.5-36.6-23C1637.6,2456.9,1641.5,2454.7,1642.8,2456.9z"/>
					</g>
					<g>
						<g>
							<path class="st41" d="M1764.2,2326.9c2.3,0.8,4.6,1.6,6.5,3.2c1.9,1.5,3.3,3.8,3.2,6.3c-0.1,2-1.2,3.9-2.5,5.5
								c-5.5,6.9-14.1,10.7-22.7,12.6c-15.2,3.3-31.5,1.1-45.3-6c-3.1-1.6-6.1-3.5-7.7-6.6c-5.8-11.6,20.5-16.5,27.6-17.8
								C1736.9,2321.7,1751.1,2322.6,1764.2,2326.9z"/>
						</g>
						<g class="st36">
							<path d="M1718,2325.2c4.5,5.8,10.8,10.2,19.1,12.8c11.5,2.5,23.8-0.9,32.5-8.6c0.3,0.2,0.7,0.5,1,0.7c0.8,0.6,1.4,1.4,2,2.2
								c-21.2,15.4-50.5,15.4-66.6-3.7C1710.1,2327,1714.4,2325.9,1718,2325.2z"/>
						</g>
						<g class="st37">
							<path d="M1706.1,2328.6c16,19.2,45.3,19.1,66.6,3.7c0.8,1.2,1.2,2.6,1.2,4c0,0.8-0.3,1.6-0.6,2.4
								c-12.2,8.7-28.6,12-44.4,12.1c-13.7,0.1-24.3-7.2-31.2-17.5C1699.7,2331.4,1702.8,2329.8,1706.1,2328.6z"/>
						</g>
						<g class="st9">
							<path d="M1697.7,2333.3c7,10.3,17.5,17.6,31.2,17.5c15.8-0.1,32.2-3.4,44.4-12.1c-0.5,1.1-1.1,2.2-1.9,3.1
								c-5.5,6.9-14.1,10.7-22.7,12.6c-15.2,3.3-31.5,1.1-45.3-6c-3.1-1.6-6.1-3.5-7.7-6.6C1694,2338.5,1695.1,2335.6,1697.7,2333.3
								z"/>
						</g>
						<g class="st9">
							<path class="st2" d="M1747.8,2325.3c3.7,0.5,7.5,1.4,10.8,3.1c0.9,0.4,1.8,1.2,1.7,2.1c-0.1,0.8-0.8,1.3-1.6,1.6
								c-1.8,0.8-3.7,1-5.6,1.2c-7.8,0.6-15.8-0.3-23.3-2.6c-1.6-0.5-3.3-1.1-4.4-2.4c-0.4-0.5-0.7-1-0.7-1.6c0-1.5,1.7-1.5,2.8-1.6
								c1.7-0.2,3.3-0.3,5-0.4c3.3-0.2,6.6-0.2,9.9,0.1C1744.1,2324.9,1745.9,2325.1,1747.8,2325.3z"/>
						</g>
					</g>
				</g>
				<g>
					<g>
						<path class="st45" d="M1813.7,2496c-3,2.9-6.1,5.7-9.4,8.3c-22.1,17-50.6,24.8-78.4,23.4c-21.1-1.1-42.2-7.6-59.3-19.9
							c-9.2-6.6-17.2-15.1-23.3-24.6C1694.7,2454.1,1765.1,2462.2,1813.7,2496z"/>
					</g>
					<g>
						<path class="st46" d="M1632.2,2456.1c2,9.6,5.8,18.7,11.1,26.9c51.4-29,121.8-20.9,170.4,12.9c16.8-16.7,27.9-39.2,29.3-62.9
							c0.4-7.6-0.1-19.4-10.4-21.7c-6.7-1.5-13.2,0-21.9,2.5c-6.1,1.7-13.2,3.9-22.3,5.8c-18.2,3.9-44.1,6.9-84.4,3.1
							c-2.3-0.2-4.4-0.5-6.5-0.8c-7.7-1.2-13.9-3-19.1-4.8c-12.6-4.6-19.3-9.4-27.7-6.3c-8.3,3.1-14.6,10.6-17.4,19
							C1630.3,2438.2,1630.5,2447.4,1632.2,2456.1z"/>
					</g>
					<g>
						<path class="st2" d="M1800.4,2443.4c-2.4-1.3-6.4-9.8-9.8-18.1c6.1-1,12.2-2,18.2-3.1
							C1806.2,2433.3,1802.9,2444.8,1800.4,2443.4z"/>
					</g>
					<g>
						<path class="st47" d="M1810.6,2413.8c-0.5,2.6-1.1,5.5-1.8,8.4c-6,1.1-12.1,2.2-18.2,3.1c-0.8-1.9-1.6-3.8-2.3-5.6
							C1797.4,2417.7,1804.5,2415.5,1810.6,2413.8z"/>
					</g>
					<g>
						<path class="st47" d="M1678.3,2417.2c5.2,1.8,11.4,3.6,19.1,4.8c-0.6,1.4-1.3,2.8-2,4.3c-5.4-1.1-10.8-2.5-16-4.2
							C1679,2420.4,1678.6,2418.8,1678.3,2417.2z"/>
					</g>
					<g>
						<path class="st2" d="M1695.4,2426.3c-3.9,8.1-8.3,16.3-9.8,15.9c-1.6-0.4-4.1-10.4-6.2-20.1
							C1684.6,2423.8,1690,2425.1,1695.4,2426.3z"/>
					</g>
					<g class="st9">
						<path d="M1632.2,2456.1c2,9.6,5.8,18.7,11.1,26.9c6.1,9.6,14.1,18,23.3,24.6c4.7,3.4,9.7,6.4,15,8.9c-3.4-1.8-6.8-3.9-9.9-6.2
							c-8.8-6.3-16.4-14.3-22.2-23.5c-5-7.9-8.7-16.5-10.5-25.7c-1.7-8.3-1.9-17.1,0.9-25c2.7-8,8.7-15.2,16.6-18.1
							c8.1-3,14.4,1.7,26.4,6c4.9,1.7,10.8,3.5,18.2,4.6c1.9,0.3,4,0.6,6.2,0.8c38.4,3.5,63.1,0.7,80.5-3c8.6-1.8,15.4-3.9,21.2-5.6
							c8.3-2.4,14.5-3.8,20.9-2.3c9.9,2.3,10.4,13.5,9.9,20.7c-0.8,14.1-5.2,27.7-12.4,39.9c9-13.8,14.7-29.7,15.6-46.1
							c0.4-7.6-0.1-19.4-10.4-21.7c-6.7-1.5-13.2,0-21.9,2.5c-6.1,1.7-13.2,3.9-22.3,5.8c-18.2,3.9-44.1,6.9-84.4,3.1
							c-2.3-0.2-4.4-0.5-6.5-0.8c-7.7-1.2-13.9-3-19.1-4.8c-12.6-4.6-19.3-9.4-27.7-6.3c-8.3,3.1-14.6,10.6-17.4,19
							C1630.3,2438.2,1630.5,2447.4,1632.2,2456.1z"/>
					</g>
				</g>
			</g>
			<g>
				<g>
					<path class="st35" d="M1872.6,2995.8c2-5.3,4.2-10.5,6.7-15.6c6.4-13.1,15.6-25.3,30.8-27.7c12.8-2,28.8,2.6,32.4,16.6
						c7.4-11.2,22.8-16.3,35.4-12c12.7,4.4,21.6,17.9,20.5,31.3c13.3-13.8,34.9-15.6,47.4-1.1c24.6,28.6,18.4,122.8-49.2,187
						c-25.4,24.1-61.5,48-98.2,44.3c-40.8-4.1-61.5-41.6-58-79.6c2.2-23.4,9.2-46.8,13.8-69.8
						C1859.4,3044.4,1863.7,3019.4,1872.6,2995.8z"/>
				</g>
				<g>
					<g>
						<path class="st48" d="M1907.9,3075.8c25.7-6.9,52.4,3.6,64.6,27.7c10.8,21.3,5.9,47.4-8.2,66c-9,11.9-22.1,21.1-36.8,23.2
							c-24.4,3.6-48.9-12.4-59.7-33.8c-8.3-16.4-9.5-36.8-0.3-53C1876.1,3091,1891.4,3080.3,1907.9,3075.8z"/>
					</g>
					<g class="st49">
						<path d="M1896.9,3079.8c3.6-1.6,7.3-3,11-4c0.7-0.2,1.4-0.3,2.1-0.5c-6.1,4.8-11.3,10.6-14.6,18.4
							c-7.8,20.8-5.2,46.7,15.6,62.3c20.8,13,44.2,7.8,62.3-5.2c0.6-0.5,1.2-1.1,1.8-1.7c-2.4,7.3-6.1,14.3-10.7,20.4
							c-2.4,3.1-5,6.1-7.9,8.8c-27.5,7-59.9-3.7-71.4-30C1874.5,3123.5,1881.2,3098,1896.9,3079.8z"/>
					</g>
					<g class="st39">
						<path d="M1867.5,3106c6.6-11.6,17.3-20.6,29.4-26.2c-15.8,18.2-22.4,43.6-11.9,68.5c11.5,26.4,43.9,37,71.4,30
							c-8.1,7.5-18,12.9-28.8,14.5c-24.4,3.6-48.9-12.4-59.7-33.8C1859.6,3142.6,1858.3,3122.2,1867.5,3106z"/>
					</g>
				</g>
				<g>
					<g>
						<path class="st48" d="M2047.4,3017.1c4.5,15.9,1.6,35.3-15.7,41.8c-5.5,2.1-11.8,2.1-17.1-0.3c-19.8-9-18.7-40.4-7.9-55.9
							c3.3-4.8,8.6-9.4,14.2-11.4c12.3-4.4,20.3,8.8,24.1,18.5C2045.8,3012.1,2046.7,3014.5,2047.4,3017.1z"/>
					</g>
					<g class="st39">
						<path d="M2000.9,3015.5c0.3,8.1,2.9,16.2,8.7,23.7c8.5,10,21.8,12.9,34.1,10.5c-2.8,3.9-6.7,7.1-12,9.1
							c-5.5,2.1-11.8,2.1-17.1-0.3C1999.4,3051.6,1996.5,3031.5,2000.9,3015.5z"/>
					</g>
					<g class="st49">
						<path d="M2006.7,3002.6c0.7-1,1.5-2,2.4-3c-3.7,7.1-4.4,15.2,0.5,24c9.6,13.4,26.2,16.9,39.5,10.5c-0.5,5.7-2.2,11.1-5.4,15.6
							c-12.3,2.4-25.6-0.5-34.1-10.5c-5.9-7.5-8.5-15.6-8.7-23.7C2002.2,3010.7,2004.2,3006.2,2006.7,3002.6z"/>
					</g>
				</g>
				<g>
					<g>
						<path class="st48" d="M1988.3,3001.3c2,16.4-3.8,35.1-21.9,38.9c-5.7,1.2-12,0.3-16.8-2.9c-18.2-11.9-12.3-42.8,0.7-56.4
							c4-4.2,9.9-8,15.7-9.1c12.9-2.5,18.7,11.8,21,21.9C1987.5,2996.1,1988,2998.6,1988.3,3001.3z"/>
					</g>
					<g class="st39">
						<path d="M1942.6,2992.6c-1,8,0.4,16.4,5,24.8c6.9,11.2,19.6,16,32.1,15.6c-3.4,3.5-7.7,6-13.3,7.2c-5.7,1.2-12,0.3-16.8-2.9
							C1935.6,3028,1935.8,3007.7,1942.6,2992.6z"/>
					</g>
					<g class="st49">
						<path d="M1950.2,2980.8c0.9-0.9,1.8-1.8,2.8-2.6c-4.8,6.4-6.7,14.3-3.2,23.8c7.4,14.7,23.3,20.7,37.4,16.4
							c-1.4,5.5-3.9,10.6-7.7,14.6c-12.6,0.5-25.2-4.4-32.1-15.6c-4.6-8.3-6-16.7-5-24.8C1944.6,2988.1,1947.2,2983.9,1950.2,2980.8
							z"/>
					</g>
				</g>
				<g>
					<g>
						<path class="st48" d="M1933.4,2992.2c0.1,16.5-7.9,34.4-26.3,36.1c-5.8,0.5-11.9-1.1-16.4-4.9c-16.7-14-7.3-44,7.2-56
							c4.5-3.7,10.8-6.8,16.7-7.2c13.1-1,17.2,13.9,18.3,24.2C1933.2,2986.9,1933.4,2989.5,1933.4,2992.2z"/>
					</g>
					<g class="st39">
						<path d="M1889,2978.3c-1.9,7.9-1.5,16.3,2.1,25.2c5.6,11.9,17.6,18.2,30.1,19.2c-3.7,3.1-8.4,5.1-14,5.6
							c-5.8,0.5-11.9-1.1-16.4-4.9C1878,3012.6,1880.5,2992.5,1889,2978.3z"/>
					</g>
					<g class="st49">
						<path d="M1898,2967.4c1-0.8,2-1.6,3.1-2.3c-5.5,5.8-8.3,13.5-5.9,23.3c5.7,15.5,20.8,23.3,35.3,20.6c-2,5.3-5.1,10.1-9.3,13.6
							c-12.5-1-24.5-7.3-30.1-19.2c-3.7-8.8-4-17.3-2.1-25.2C1891.5,2974,1894.6,2970.2,1898,2967.4z"/>
					</g>
				</g>
				<g class="st9">
					<path d="M1840.5,3138.9c2.2-23.4,9.2-46.8,13.8-69.8c5-24.7,9.3-49.7,18.3-73.4c2-5.3,4.2-10.5,6.7-15.6
						c6.4-13.1,15.6-25.3,30.8-27.7c1.2-0.2,2.4-0.3,3.6-0.4c-44.1,72.1-67.1,171-5.4,235.1c12.3,13.3,28.6,18.5,45.7,18.4
						c-17.4,9.2-36.4,14.8-55.6,12.9C1857.7,3214.4,1837,3176.9,1840.5,3138.9z"/>
				</g>
				<g class="st39">
					<path d="M1913.7,2952.1c12-0.7,25.5,4.3,28.8,16.9c7.4-11.2,22.8-16.3,35.4-12c12.7,4.4,21.6,17.9,20.5,31.3
						c13.3-13.8,34.9-15.6,47.4-1.1c3.6,4.1,6.5,9.7,8.6,16.3c-10.4,1.9-20.6,4.7-29.4,7.1c-23.4,5.2-41.6-18.2-62.3-26
						c-33.8-13-46.7,28.6-49.3,54.5c-2.6,38.9-2.6,83.1,26,109.1c22.3,22.3,47.5,22.4,71.3,11.2c-4.3,5.1-9,10-14,14.8
						c-12.2,11.5-26.8,23-42.7,31.4c-17.2,0.1-33.5-5.1-45.7-18.4C1846.6,3123.1,1869.6,3024.2,1913.7,2952.1z"/>
				</g>
			</g>
			<g>
				<g>
					<path class="st35" d="M1539,2969.4c-2.9-5.2-6-10.4-9.4-15.4c-8.7-12.8-20.3-24.3-36.7-24.4c-13.7-0.1-29.9,7.2-31.6,22.5
						c-9.6-10.6-26.5-13.7-39.2-7.1s-19.9,22.1-16.8,36.1c-16.1-12.4-39.2-11-50.1,6.1c-21.6,33.9-0.5,132.1,80.6,189.3
						c30.5,21.5,72.2,41.1,110.2,31.5c42.3-10.6,58.4-53.3,48.8-92.7c-5.9-24.3-16.8-47.8-25.3-71.3
						C1560.4,3018.6,1552.1,2993,1539,2969.4z"/>
				</g>
				<g>
					<g>
						<path class="st48" d="M1514.2,3059.1c-28.1-3.3-54.6,11.9-63.8,39.1c-8.1,24.1,1.1,50.8,18.8,68.2
							c11.3,11.1,26.5,18.8,42.3,18.8c26.3,0,49.6-20.6,57.7-44.7c6.2-18.6,4.3-40.2-7.8-55.9
							C1550,3070.2,1532.3,3061.3,1514.2,3059.1z"/>
					</g>
					<g class="st49">
						<path d="M1526.4,3061.6c-4-1.2-8.1-2-12.2-2.5c-0.8-0.1-1.5-0.1-2.2-0.2c7.2,4.1,13.5,9.4,18.2,17.1
							c11.4,20.7,12.7,48.4-6.8,68c-19.9,16.9-45.3,15-66.4,4.1c-0.7-0.5-1.4-1-2.1-1.5c3.7,7.3,8.6,14.1,14.4,19.8
							c3,2.9,6.3,5.6,9.7,8c30,3.1,62.5-13.1,70.6-42.6C1556.7,3104.1,1545.8,3078.4,1526.4,3061.6z"/>
					</g>
					<g class="st39">
						<path d="M1561.3,3084.7c-8.7-11.2-21.3-19.1-35-23c19.4,16.7,30.3,42.5,23.1,70.2c-8.1,29.5-40.6,45.7-70.6,42.6
							c9.7,6.6,20.9,10.8,32.6,10.8c26.3,0,49.6-20.6,57.7-44.7C1575.3,3122,1573.5,3100.3,1561.3,3084.7z"/>
					</g>
				</g>
				<g>
					<g>
						<path class="st48" d="M1358.3,3018.8c-2.3,17.4,3.8,37.4,23,41.6c6.1,1.3,12.7,0.4,17.9-3c19.5-12.6,13.5-45.4-0.3-60
							c-4.3-4.5-10.5-8.6-16.7-9.8c-13.7-2.7-20,12.4-22.5,23.1C1359.1,3013.3,1358.6,3016,1358.3,3018.8z"/>
					</g>
					<g class="st39">
						<path d="M1407,3010c1,8.6-0.5,17.5-5.5,26.3c-7.5,11.8-20.9,16.9-34.3,16.3c3.6,3.7,8.2,6.5,14.1,7.8c6.1,1.3,12.7,0.4,17.9-3
							C1414.1,3047.7,1414,3026.1,1407,3010z"/>
					</g>
					<g class="st49">
						<path d="M1398.9,2997.3c-0.9-1-1.9-1.9-3-2.8c5,6.9,7,15.3,3.2,25.4c-8,15.6-25,21.8-40,17.1c1.4,5.9,4,11.3,8.1,15.6
							c13.4,0.6,26.8-4.5,34.3-16.3c5-8.8,6.5-17.7,5.5-26.3C1404.9,3005.1,1402.1,3000.7,1398.9,2997.3z"/>
					</g>
				</g>
				<g>
					<g>
						<path class="st48" d="M1418.1,2993c0.4,17.5,9.4,36.4,29.1,37.6c6.2,0.4,12.6-1.6,17.3-5.7c17.3-15.4,6.4-47-9.4-59.3
							c-4.9-3.8-11.7-6.9-18-7.1c-13.9-0.6-17.9,15.3-18.7,26.3C1418.1,2987.4,1418,2990.2,1418.1,2993z"/>
					</g>
					<g class="st39">
						<path d="M1464.9,2976.9c2.3,8.3,2.2,17.3-1.5,26.8c-5.6,12.8-18.1,19.9-31.4,21.3c4.1,3.1,9.1,5.2,15.1,5.5
							c6.2,0.4,12.6-1.6,17.3-5.7C1477.7,3013.1,1474.3,2991.8,1464.9,2976.9z"/>
					</g>
					<g class="st49">
						<path d="M1455,2965.6c-1.1-0.8-2.2-1.6-3.4-2.3c6,6,9.2,14.1,7,24.6c-5.6,16.6-21.4,25.4-36.9,23.1
							c2.3,5.6,5.7,10.6,10.3,14.1c13.3-1.4,25.8-8.5,31.4-21.3c3.6-9.5,3.7-18.5,1.5-26.8C1462,2972.4,1458.7,2968.4,1455,2965.6z"
							/>
					</g>
				</g>
				<g>
					<g>
						<path class="st48" d="M1474.4,2975c2.4,17.4,13.6,35,33.2,33.9c6.2-0.4,12.4-3,16.5-7.6c15.4-17.3,0.9-47.4-16.2-57.8
							c-5.3-3.2-12.4-5.5-18.7-5c-13.9,1-16,17.3-15.6,28.3C1473.8,2969.4,1474,2972.2,1474.4,2975z"/>
					</g>
					<g class="st39">
						<path d="M1519.1,2953.6c3.2,8,4.1,17,1.7,26.8c-4.1,13.4-15.7,21.9-28.7,24.8c4.4,2.6,9.6,4.1,15.6,3.7
							c6.2-0.4,12.4-3,16.5-7.6C1536,2988,1530.2,2967.2,1519.1,2953.6z"/>
					</g>
					<g class="st49">
						<path d="M1507.9,2943.5c-1.1-0.7-2.4-1.3-3.7-1.9c6.7,5.3,10.8,12.9,9.8,23.6c-3.6,17.2-18.3,27.7-34,27.2
							c2.9,5.3,6.9,9.9,11.9,12.9c13-3,24.7-11.5,28.7-24.8c2.5-9.9,1.6-18.8-1.7-26.8C1515.7,2949.4,1511.9,2945.9,1507.9,2943.5z"
							/>
					</g>
				</g>
				<g class="st9">
					<path d="M1594.8,3115.1c-5.9-24.3-16.8-47.8-25.3-71.3c-9.1-25.2-17.5-50.9-30.5-74.4c-2.9-5.2-6-10.4-9.4-15.4
						c-8.7-12.8-20.3-24.2-36.7-24.4c-1.3,0-2.6,0.1-3.9,0.2c57.6,69.1,97,169.7,41.9,246.7c-10.9,15.9-27.2,23.9-45.3,26.4
						c19.7,7,40.6,10,60.5,5C1588.3,3197.2,1604.4,3154.6,1594.8,3115.1z"/>
				</g>
				<g class="st39">
					<path d="M1489,2929.8c-12.7,1.1-26.2,8.4-27.7,22.3c-9.6-10.6-26.5-13.7-39.2-7.1s-19.9,22.1-16.8,36.1
						c-16.1-12.4-39.2-11-50.1,6.1c-3.1,4.9-5.3,11.2-6.6,18.5c11.3,0.4,22.5,1.8,32.1,3c25.4,1.9,40.9-25.5,61.6-36.9
						c33.5-18.9,53.6,22.9,60.3,49.8c8.7,40.6,15.5,87.1-10.5,118.8c-20,26.9-46.6,30.9-73.3,22.7c5.4,4.6,11,9.1,17,13.4
						c14.6,10.3,31.7,20.1,49.8,26.5c18.1-2.5,34.4-10.5,45.3-26.4C1586,3099.4,1546.6,2998.8,1489,2929.8z"/>
				</g>
			</g>
		</g>
	</g>
</g>
</svg>
