<svg width="80" height="80" viewBox="0 0 80 80" fill="none" xmlns="http://www.w3.org/2000/svg">
<path d="M78.0326 70.1047L41.1155 60.2473L40.3592 60.0294L33.7192 64.9004L34.796 67.118L72.0592 78.2956" fill="#BE612F"/>
<path d="M39.8597 34.2259L41.1159 60.2473L33.3351 66.5412L32.0532 39.1097" fill="#9D4B23"/>
<path d="M71.7902 77.9752L71.3928 47.9929L32.694 38.6354L31.3096 37.2382L37.847 34.1618C37.847 34.1618 39.1545 33.3927 41.0003 33.726C48.1274 35.0206 74.0206 39.7506 76.8919 40.5325C80.2888 41.4683 79.994 44.4806 79.994 44.4806L78.9429 68.8997C78.9429 68.8997 78.8788 70.4764 77.6098 72.5017C76.3408 74.527 73.1361 79.3083 73.1361 79.3083L71.7902 77.9752Z" fill="#CD6E28"/>
<path d="M35.5012 65.8105L41.4617 60.337C41.4617 60.337 41.3079 60.2729 41.1926 60.0935C41.1028 59.9525 41.0772 59.6961 41.0772 59.6961L34.7192 64.7081C34.7961 64.9901 34.9756 65.4259 35.5012 65.8105Z" fill="#B4542B"/>
<path d="M73.1361 79.3211C73.1361 79.3211 76.3407 74.5399 77.6097 72.5145C78.8788 70.4892 78.9429 68.9126 78.9429 68.9126L79.994 44.4934C79.994 44.4934 80.0709 43.6987 79.6863 42.7886L72.2773 48.6594L71.5723 61.7599L71.7902 77.9752L73.1361 79.3211Z" fill="#B55126"/>
<path d="M77.905 40.9299L71.0728 45.8906L72.5469 50.6719L79.9431 43.6987C79.8149 42.9167 79.3791 41.699 77.905 40.9299Z" fill="#C26228"/>
<path opacity="0.75" d="M62.5997 69.9124L62.2793 70.3995C62.0101 71.1301 62.8048 72.2454 64.3431 71.5403C65.6762 70.9251 68.445 68.387 69.15 67.7333L67.0221 67.1693L62.5997 69.9124Z" fill="url(#paint0_linear)"/>
<path opacity="0.75" d="M51.96 66.8103L51.7934 67.2846C51.6908 67.9512 52.2933 68.9638 53.7546 68.2844C54.9851 67.7204 57.395 65.4516 58.1128 64.785L56.0875 64.2466L51.96 66.8103Z" fill="url(#paint1_linear)"/>
<path opacity="0.75" d="M42.4232 64.1313L42.3335 64.4389C42.1156 65.1824 42.6155 66.1182 43.923 65.5157C44.9741 65.0286 47.3199 62.9392 48.2043 62.1316L46.4097 61.6573L42.4232 64.1313Z" fill="url(#paint2_linear)"/>
<path d="M61.9712 59.5808L62.266 70.6431C62.2788 71.0789 62.8941 71.5147 63.535 71.4506C64.1631 71.3865 64.4323 70.9892 64.4323 70.5533V59.5423" fill="#90451F"/>
<path d="M63.5221 71.4506C64.1502 71.3865 64.4194 70.9892 64.4194 70.5533V59.5423L63.4837 59.5551L63.6119 69.6817C63.6119 69.6817 63.7913 71.284 62.894 71.3481C63.0735 71.425 63.3042 71.4763 63.5221 71.4506Z" fill="#81351A"/>
<path opacity="0.48" d="M62.0347 62.1829L62.1116 65.3106C62.4577 65.631 63.5985 65.9899 64.4189 65.5797V62.8366L62.0347 62.1829Z" fill="#41220F"/>
<path d="M67.7009 65.8105C67.1753 67.9255 64.6116 69.092 61.9838 68.3998C59.3561 67.7076 57.6384 65.4259 58.1639 63.3109C58.6895 61.1959 61.2532 60.0294 63.881 60.7216C66.5088 61.4138 68.2264 63.6954 67.7009 65.8105Z" fill="#49A1DA"/>
<path d="M66.7524 64.4517C66.291 65.8233 64.4195 66.554 62.3173 66.0028C60.215 65.4516 58.7922 63.8621 59.1383 62.4649C59.4844 61.0549 61.4456 60.4652 63.5735 60.9138C66.3935 61.5163 67.2395 63.0289 66.7524 64.4517Z" fill="#34C4F3"/>
<path d="M64.3426 63.4005C64.2272 63.9261 63.535 64.2081 62.7915 64.0286C62.0609 63.8492 61.6763 63.2724 61.7917 62.7468C61.9071 62.2212 62.4967 61.9392 63.2274 62.1187C63.9708 62.2982 64.4707 62.875 64.3426 63.4005Z" fill="#506EB5"/>
<path opacity="0.63" d="M67.7007 65.8105C68.2263 63.6955 66.5214 61.4138 63.8808 60.7216C63.5604 60.6447 63.2527 60.5806 62.9451 60.5549L63.3296 63.9134C64.0603 65.2465 64.2526 68.0024 62.7656 68.5152C62.7528 68.528 62.7272 68.528 62.7144 68.5408C65.0729 68.8613 67.2264 67.7333 67.7007 65.8105Z" fill="#506EB5"/>
<path d="M67.8293 61.4779C67.4319 63.4263 64.9067 64.5415 62.1892 63.9519C59.4716 63.3622 57.6002 61.3113 57.9975 59.3501C58.3949 57.4017 60.9201 56.2865 63.6376 56.8761C66.3423 57.4529 68.2266 59.5167 67.8293 61.4779Z" fill="#F26722"/>
<path d="M67.4322 60.9779C67.0861 62.6443 64.8044 63.5545 62.3176 63.0289C59.8309 62.4905 58.1004 60.7088 58.4337 59.0424C58.7798 57.376 61.0614 56.453 63.5482 56.9914C66.035 57.5298 67.7655 59.3116 67.4322 60.9779Z" fill="#F6871F"/>
<path d="M66.6115 60.2217C66.3423 61.5548 64.4452 62.2598 62.3686 61.824C60.292 61.3753 58.8436 59.9397 59.1128 58.6065C59.3819 57.2734 61.2662 56.6197 63.3557 57.0042C65.8424 57.4657 66.8807 58.8885 66.6115 60.2217Z" fill="#FAA31A"/>
<path opacity="0.51" d="M67.8291 61.4779C68.1881 59.709 66.6755 57.8503 64.3553 57.0812L63.9067 58.5425C64.4323 59.491 65.0604 64.016 62.894 64.0672C65.3295 64.3364 67.4702 63.2597 67.8291 61.4779Z" fill="#F26322"/>
<path opacity="0.22" d="M57.7798 59.5039C57.7798 59.5167 57.7798 59.5295 57.7798 59.5551C58.1259 58.7989 58.8181 58.1579 60.6639 58.927C63.6506 60.1704 66.2143 59.4013 67.0475 58.5425C66.24 57.7606 65.1119 57.1453 63.7916 56.8633C60.8947 56.2352 58.2028 57.4145 57.7798 59.5039Z" fill="#010101"/>
<path d="M68.0603 55.7994C67.6373 57.8503 64.9967 59.004 62.1638 58.3887C59.3181 57.7734 57.3569 55.6199 57.7671 53.569C58.1773 51.518 60.8307 50.3643 63.6636 50.9796C66.5093 51.6077 68.4705 53.7612 68.0603 55.7994Z" fill="#D12026"/>
<path d="M67.7268 55.3251C67.3679 57.0684 64.9324 58.0169 62.2789 57.4401C59.6255 56.8633 57.754 54.9918 58.113 53.2485C58.4719 51.5052 60.9074 50.5566 63.5608 51.1334C66.227 51.7103 68.0857 53.5818 67.7268 55.3251Z" fill="#ED1C24"/>
<path d="M66.8425 54.1458C66.5733 55.4789 64.9326 56.3506 62.5355 55.9404C60.241 55.543 58.6387 53.9664 58.9079 52.6332C59.1771 51.3001 61.3819 50.5951 63.6636 51.0822C65.9196 51.5821 67.1117 52.8127 66.8425 54.1458Z" fill="#EE312D"/>
<path d="M64.5223 52.5691C64.4839 53.1587 63.7917 53.5946 62.9713 53.5305C62.1509 53.4792 61.5228 52.9537 61.5612 52.364C61.5997 51.7744 62.2919 51.3385 63.1123 51.4026C63.9327 51.4539 64.5608 51.9794 64.5223 52.5691Z" fill="#DA1F26"/>
<path opacity="0.53" d="M68.0606 55.7994C68.4708 53.7484 66.5096 51.5949 63.6639 50.9796C63.446 50.9283 63.2409 50.9027 63.023 50.8771L63.2793 53.2357C63.7408 54.5816 64.6381 57.5683 62.946 58.4912C62.9332 58.504 62.9204 58.504 62.9204 58.5169C65.4585 58.7861 67.676 57.6708 68.0606 55.7994Z" fill="#C42026"/>
<path d="M64.4065 52.1717L64.4321 51.9025V47.7109C63.5861 47.493 62.6504 47.2494 61.6377 46.993L61.8043 52.0435L61.8428 52.3511C61.9325 53.1074 64.2014 53.4023 64.4065 52.1717Z" fill="#90451F"/>
<path d="M64.4067 52.1718L64.4323 51.9026V47.711C64.0862 47.6212 63.7145 47.5315 63.3428 47.429L63.4069 52.9922C63.894 52.9281 64.317 52.6717 64.4067 52.1718Z" fill="#81351A"/>
<path opacity="0.48" d="M61.6377 46.993L61.7146 49.2106C61.7146 49.2106 62.1504 49.467 62.9964 49.6977C63.8425 49.9285 64.4321 49.9285 64.4321 49.9285V47.7109C63.5861 47.493 62.6504 47.2494 61.6377 46.993Z" fill="#41220F"/>
<path d="M51.46 59.0295L51.7932 67.5666C51.8061 67.9896 52.3701 68.2844 52.8828 68.2331C53.4212 68.1819 53.6776 67.8486 53.6647 67.4256C53.6647 67.4256 53.6135 63.657 53.5494 59.1961C53.5622 58.8885 51.46 59.0295 51.46 59.0295Z" fill="#90451F"/>
<path d="M52.8826 68.246C53.421 68.1947 53.6774 67.8614 53.6645 67.4384C53.6645 67.4384 53.6133 63.6698 53.5492 59.209C53.5492 59.0808 53.1903 59.0295 52.7672 59.0039L52.9211 67.2974C52.9211 67.2974 52.8313 68.0537 52.293 68.1563C52.4852 68.2332 52.6903 68.2588 52.8826 68.246Z" fill="#81351A"/>
<path opacity="0.48" d="M51.6909 65.0413L51.7806 67.1948C52.1139 67.5025 53.0112 67.7076 53.6778 67.3358C53.6778 67.0923 53.665 66.3488 53.6521 65.2464L51.6909 65.0413Z" fill="#41220F"/>
<path d="M56.485 64.0672C56.1389 65.7977 53.9085 66.7719 51.5115 66.2591C49.1144 65.7464 47.448 63.9262 47.8069 62.1957C48.153 60.4652 50.3834 59.491 52.7805 60.0037C55.1904 60.5293 56.8439 62.3495 56.485 64.0672Z" fill="#D12026"/>
<path d="M56.2154 63.6698C55.9206 65.1439 53.8568 65.9387 51.6136 65.4516C49.3704 64.9645 47.7937 63.3878 48.1013 61.9137C48.3962 60.4395 50.4599 59.6448 52.7032 60.1319C54.9464 60.619 56.5102 62.1957 56.2154 63.6698Z" fill="#ED1C24"/>
<path d="M55.4591 62.67C55.2283 63.798 53.8439 64.5286 51.8186 64.1825C49.883 63.8493 48.5243 62.5161 48.755 61.4009C48.9857 60.2729 50.8444 59.6833 52.7672 60.0935C54.69 60.5036 55.6898 61.5548 55.4591 62.67Z" fill="#EE312D"/>
<path opacity="0.53" d="M56.4845 64.0672C56.8306 62.3367 55.177 60.5165 52.78 60.0037C52.6005 59.9653 52.421 59.9396 52.2416 59.914L52.4595 61.9009C52.844 63.0289 53.6003 65.5669 52.1775 66.336C52.1647 66.336 52.1647 66.3489 52.1519 66.3489C54.2925 66.5924 56.164 65.6438 56.4845 64.0672Z" fill="#C42026"/>
<path d="M56.9461 60.4908C56.4847 62.3752 54.1132 63.3878 51.6649 62.7469C49.2166 62.106 47.6143 60.055 48.0758 58.1707C48.5372 56.2864 50.9086 55.2737 53.357 55.9147C55.8053 56.5556 57.4204 58.6065 56.9461 60.4908Z" fill="#12AE4B"/>
<path d="M56.0748 59.35C55.7543 60.6575 53.9341 61.4778 51.9344 60.9523C49.9347 60.4267 48.576 58.9398 48.8964 57.6323C49.2169 56.3248 51.0756 55.8505 53.1137 56.2095C55.8056 56.6837 56.408 58.0425 56.0748 59.35Z" fill="#49B749"/>
<path opacity="0.55" d="M56.9461 60.4908C57.3306 58.9398 56.3052 57.2734 54.5747 56.3761L53.2672 58.1963C53.6517 59.5294 53.6902 62.7212 51.9854 62.7981C54.3183 63.2852 56.5103 62.2982 56.9461 60.4908Z" fill="#0F8C44"/>
<path opacity="0.25" d="M53.3574 55.9147C50.9091 55.2737 48.5377 56.2864 48.0762 58.1707C48.0121 58.4143 47.9865 58.6706 47.9993 58.927C48.2685 58.3245 48.9735 57.94 50.6014 58.5424C53.3318 59.5551 55.857 58.9655 56.421 57.9913C55.7929 57.0427 54.7033 56.2608 53.3574 55.9147Z" fill="#010101"/>
<path d="M57.0748 55.9146C56.5621 58.004 54.0369 59.1449 51.4475 58.4655C48.8582 57.7861 47.179 55.5429 47.6917 53.4535C48.2045 51.3641 50.7297 50.2232 53.319 50.9026C55.9083 51.5948 57.5876 53.838 57.0748 55.9146Z" fill="#FCB316"/>
<path d="M55.8697 54.8507C55.4851 56.4145 53.5752 57.2734 51.6268 56.7478C49.6655 56.2351 48.3965 54.5559 48.7811 52.992C49.1656 51.4282 51.0499 50.6591 53.024 51.0949C55.2928 51.5948 56.2542 53.2868 55.8697 54.8507Z" fill="#FEEA00"/>
<path d="M53.8826 53.979C53.7544 54.5302 53.0366 54.8122 52.2803 54.62C51.524 54.4277 51.0113 53.8252 51.1523 53.2868C51.2804 52.7485 51.9983 52.4536 52.7546 52.6459C53.5109 52.8382 54.0108 53.4278 53.8826 53.979Z" fill="#F6871F"/>
<path opacity="0.65" d="M57.0752 55.9147C57.588 53.8253 55.9088 51.582 53.3194 50.9155C53.0887 50.8514 52.8708 50.8129 52.6529 50.7873L52.7811 54.5046C53.0759 55.325 53.5245 58.081 52.1914 58.6194C54.4987 58.9142 56.601 57.799 57.0752 55.9147Z" fill="#F8971D"/>
<path d="M53.5367 53.6715C53.4598 49.4286 53.3701 44.9806 53.3573 44.737C52.5625 44.596 51.6524 44.4294 50.8833 44.2884C50.8833 44.2884 51.396 52.6588 51.396 53.5818C51.4089 54.415 53.5495 54.5816 53.5367 53.6715Z" fill="#90451F"/>
<path d="M53.5367 53.6715C53.4598 49.4286 53.3701 44.9806 53.3572 44.737C53.0881 44.6857 52.7932 44.6345 52.5112 44.5832L52.7804 54.2611C53.2291 54.2227 53.5495 54.0176 53.5367 53.6715Z" fill="#81351A"/>
<path opacity="0.48" d="M50.8833 44.3012C50.8833 44.3012 50.9218 44.9037 50.973 45.8138C50.973 45.8138 51.3576 45.9676 52.1651 46.1086C52.9727 46.2496 53.3957 46.2624 53.3957 46.2624C53.3829 45.3908 53.3701 44.8139 53.3701 44.737C52.5625 44.6089 51.6652 44.4422 50.8833 44.3012Z" fill="#41220F"/>
<path d="M41.6157 51.7487L42.3207 64.785C42.3464 65.2208 42.795 65.5669 43.2693 65.5029C43.7436 65.4388 43.9615 65.067 43.9487 64.6312L43.4616 51.6333L41.6157 51.7487Z" fill="#90451F"/>
<path d="M43.2694 65.49C43.7436 65.4259 43.9615 65.0542 43.9487 64.6184L43.4616 51.6333L42.7438 51.6718L43.3078 64.362C43.3078 64.362 43.2053 65.2721 42.5259 65.2337C42.7182 65.4259 42.9873 65.5413 43.2694 65.49Z" fill="#81351A"/>
<path opacity="0.48" d="M41.9746 58.3758L42.0772 60.337C42.4361 60.6447 43.359 60.7344 43.782 60.3242L43.7051 58.363L41.9746 58.3758Z" fill="#41220F"/>
<path d="M47.358 58.9783C46.8453 61.0677 44.3201 62.2085 41.7307 61.5292C39.1414 60.8498 37.4622 58.6066 37.9749 56.5172C38.4877 54.4277 41.0129 53.2869 43.6022 53.9663C46.1915 54.6457 47.8708 56.8889 47.358 58.9783Z" fill="#FCB316"/>
<path d="M46.1529 57.9015C45.7683 59.4654 43.8584 60.3242 41.91 59.7987C39.9487 59.2859 38.6797 57.6067 39.0643 56.0429C39.4488 54.479 41.3331 53.7099 43.3072 54.1457C45.576 54.6457 46.5374 56.3377 46.1529 57.9015Z" fill="#FEEA00"/>
<path d="M44.1658 57.0298C44.0376 57.581 43.3198 57.863 42.5635 57.6707C41.8072 57.4785 41.2945 56.876 41.4355 56.3376C41.5636 55.7993 42.2815 55.5044 43.0378 55.6967C43.7941 55.889 44.294 56.4915 44.1658 57.0298Z" fill="#F6871F"/>
<path opacity="0.65" d="M47.3579 58.9783C47.8707 56.8889 46.1915 54.6456 43.6021 53.9791C43.3714 53.915 43.1535 53.8765 42.9356 53.8509L43.0638 57.5682C43.3586 58.3886 43.8072 61.1446 42.4741 61.683C44.7814 61.9778 46.8837 60.8626 47.3579 58.9783Z" fill="#F8971D"/>
<path d="M46.8455 55.1585C46.3712 57.0812 44.051 58.1323 41.6668 57.5042C39.2826 56.8761 37.7444 54.8124 38.2187 52.9024C38.6929 50.9796 41.0131 49.9285 43.3973 50.5566C45.7815 51.1719 47.3326 53.2357 46.8455 55.1585Z" fill="#3A53A4"/>
<path d="M45.8842 53.9021C45.3586 55.1199 43.8204 55.8634 41.9746 55.3891C40.1415 54.9148 38.911 53.4663 39.2314 52.1717C39.5519 50.877 41.2824 50.3002 43.141 50.6847C45.474 51.159 46.4482 52.6075 45.8842 53.9021Z" fill="#485DAA"/>
<path opacity="0.49" d="M46.8456 55.1584C47.307 53.2869 45.8457 51.2872 43.5769 50.6078L43.0257 51.8256C43.3718 52.8767 43.1795 57.4016 40.9619 57.2606C41.1926 57.3503 41.4234 57.4401 41.6797 57.5042C44.064 58.1195 46.3713 57.0683 46.8456 55.1584Z" fill="#30419A"/>
<path opacity="0.25" d="M38.2319 52.8895C38.6806 52.1076 39.7445 52.082 40.8469 52.505C42.9363 53.2997 45.0385 52.8639 45.7948 51.9025C45.1795 51.2872 44.3591 50.8001 43.3978 50.5438C41.0135 49.9285 38.7062 50.9796 38.2319 52.8895Z" fill="#010101"/>
<path d="M46.7169 49.7746C46.2298 51.7486 43.8456 52.8254 41.3973 52.1844C38.9489 51.5435 37.3595 49.4157 37.8466 47.4544C38.3337 45.4804 40.7179 44.4037 43.1662 45.0446C45.6145 45.6855 47.204 47.8134 46.7169 49.7746Z" fill="#49A1DA"/>
<path d="M45.8455 48.5184C45.4097 49.7874 43.6792 50.4668 41.718 49.9541C39.7567 49.4413 38.4364 47.9672 38.7697 46.6597C39.0902 45.3522 40.9232 44.7882 42.8973 45.2241C45.5122 45.7881 46.2942 47.1981 45.8455 48.5184Z" fill="#34C4F3"/>
<path d="M43.6016 47.5442C43.4862 48.0313 42.8453 48.3005 42.1659 48.1339C41.4866 47.9672 41.1276 47.4289 41.243 46.9418C41.3584 46.4546 41.8968 46.1855 42.5761 46.3521C43.2555 46.5187 43.717 47.0443 43.6016 47.5442Z" fill="#506EB5"/>
<path opacity="0.63" d="M46.7169 49.7746C47.204 47.8006 45.6145 45.6856 43.1662 45.0446C42.8714 44.9677 42.5766 44.9164 42.2946 44.8908L42.6535 48.0185C43.3329 49.2619 43.5123 51.8256 42.1279 52.2999C42.1151 52.2999 42.0895 52.3127 42.0767 52.3127C44.2686 52.6203 46.2811 51.5692 46.7169 49.7746Z" fill="#506EB5"/>
<path d="M43.3332 47.634C43.3588 47.3135 43.1153 42.2887 43.1153 42.2887C42.4231 42.1605 41.7437 42.0195 41.0771 41.9041C41.0771 41.9041 41.3848 47.4032 41.4361 47.7237C41.5514 48.3262 43.2819 48.3902 43.3332 47.634Z" fill="#90451F"/>
<path d="M43.3335 47.6339C43.3591 47.3135 43.1155 42.2886 43.1155 42.2886C42.8464 42.2374 42.59 42.1861 42.3208 42.1348L42.6284 48.1595C43.0002 48.121 43.3078 47.9544 43.3335 47.6339Z" fill="#81351A"/>
<path opacity="0.48" d="M41.0771 41.9041C41.0771 41.9041 41.1156 42.5579 41.1797 43.4295C41.1797 43.4295 41.5514 43.5705 42.1795 43.6987C42.8589 43.8269 43.1922 43.8525 43.1922 43.8525C43.1409 42.9809 43.1153 42.3015 43.1153 42.3015C42.4231 42.1605 41.7437 42.0323 41.0771 41.9041Z" fill="#41220F"/>
<path d="M32.1942 42.0579L32.9633 44.4165C33.3094 44.4165 38.5137 43.5192 40.2955 43.2116L40.1288 39.7378L34.4759 37.5971L32.0532 39.1097L32.1942 42.0579Z" fill="#883C1D"/>
<path d="M74.0462 49.6978C74.0462 49.6978 74.0462 46.1086 70.6237 45.3395C67.8421 44.7114 42.6026 39.0585 33.3092 36.969C31.1814 36.4948 30.22 38.0842 30.1431 39.2764C30.0277 40.9812 32.2197 65.6567 32.2197 65.6567C32.2197 65.6567 32.2197 67.541 34.6295 68.2973C37.77 69.2971 70.4955 79.7826 70.4955 79.7826C70.4955 79.7826 73.7258 80.8466 74.0462 76.7447C74.3795 72.6684 74.0462 49.6978 74.0462 49.6978ZM69.0727 76.578C69.0727 76.578 37.5778 66.836 36.1036 66.1694C34.6167 65.5029 34.6936 64.439 34.6936 64.439L33.0144 41.6734C33.0144 41.6734 33.0016 40.0327 34.386 40.3403C41.09 41.8272 67.7139 48.4544 68.7394 48.8646C69.9059 49.3388 70.0853 50.7873 70.0853 50.7873C70.0853 50.7873 70.4955 73.6554 70.5083 75.3731C70.5083 77.0779 69.0727 76.578 69.0727 76.578Z" fill="#E38E4C"/>
<path d="M14.2349 53.9662C14.4016 55.4532 14.4913 57.1196 14.6579 58.6065C14.0811 58.5809 13.5812 58.8116 13.1966 59.1577L10.5176 55.8506C11.5815 54.9917 12.8377 54.3252 14.2349 53.9662Z" fill="#D34A27"/>
<g opacity="0.15">
<path opacity="0.15" d="M14.2348 53.9662C14.2733 54.3252 14.3117 54.7097 14.3502 55.0943C13.6964 55.4404 13.094 55.889 12.5812 56.4787C12.2992 56.8119 12.0557 57.1452 11.8506 57.4913L10.5303 55.8506C11.5814 54.9917 12.8376 54.3252 14.2348 53.9662Z" fill="#010101"/>
</g>
<path d="M33.6157 63.2725C33.9234 61.8624 34.4617 60.5293 35.1668 59.3244C35.4231 58.8885 35.8718 57.9528 36.3076 57.7349C36.7306 57.5298 37.3459 57.8887 37.7689 58.0041C40.4736 58.7219 43.2552 59.0039 46.0368 58.8245C46.2547 58.8116 46.4854 58.7988 46.6905 58.8757C46.8956 58.9526 47.0879 59.1449 47.1135 59.4013C47.1392 59.6577 46.9341 59.9268 46.7162 59.8627C46.9597 59.773 47.2802 60.0294 47.3186 60.3114C47.3571 60.6062 47.1264 60.901 46.87 60.8882C47.1264 61.0805 47.2289 61.4651 47.1392 61.7983C47.0494 62.1444 46.8187 62.4136 46.5752 62.6187C45.8317 63.2596 44.896 63.5032 43.9858 63.657C40.6659 64.221 37.2562 63.939 34.0515 62.8238L33.6157 63.2725Z" fill="#761A14"/>
<g opacity="0.3">
<path opacity="0.3" d="M46.7168 59.85C46.7681 59.8243 46.8193 59.8243 46.8706 59.8372C46.8322 59.8628 46.7809 59.8628 46.7168 59.85Z" fill="#010101"/>
</g>
<g opacity="0.1">
<path opacity="0.1" d="M43.9091 58.8629C44.0501 59.35 44.2423 59.8242 44.5628 60.2857C45.1909 61.1574 46.1779 61.6445 47.1649 61.6957C47.1649 61.7342 47.1521 61.7598 47.1521 61.7983C47.0624 62.1444 46.8317 62.4136 46.5881 62.6187C46.524 62.6828 46.4471 62.734 46.383 62.7853C45.2678 62.6315 44.2039 62.0547 43.4091 61.042C42.8964 60.3498 42.5759 59.5935 42.3965 58.7988C42.8964 58.8372 43.3963 58.85 43.9091 58.8629Z" fill="#010101"/>
</g>
<g opacity="0.2">
<path opacity="0.2" d="M42.3968 58.786C42.5634 59.5808 42.8967 60.3499 43.4095 61.0292C44.1914 62.0419 45.2681 62.6187 46.3833 62.7726C45.7681 63.2212 45.0502 63.4519 44.3196 63.5929C43.4479 63.1571 42.6916 62.4777 42.1789 61.4907C41.7174 60.5934 41.4482 59.6449 41.397 58.6835C41.7174 58.7347 42.0507 58.7604 42.3968 58.786Z" fill="#010101"/>
</g>
<g opacity="0.3">
<path opacity="0.3" d="M35.1674 59.3244C35.4237 58.8885 35.8724 57.9528 36.3082 57.7349C36.7312 57.5298 37.3465 57.8887 37.7695 58.0041C38.9616 58.3245 40.1666 58.5553 41.3715 58.6963C41.4228 59.6577 41.692 60.6062 42.1534 61.5035C42.6662 62.4905 43.4224 63.1571 44.2941 63.6057C44.1915 63.6314 44.0762 63.6442 43.9736 63.6698C40.6537 64.2338 37.244 63.9518 34.0393 62.8366L33.6035 63.2853C33.924 61.8624 34.4495 60.5165 35.1674 59.3244Z" fill="#010101"/>
</g>
<path d="M37.8724 41.6221C41.1283 44.2243 44.6918 46.429 48.4476 48.1467C48.7425 48.2877 49.0629 48.4415 49.1783 48.7492C49.2937 49.0568 48.986 49.4927 48.704 49.3388C48.986 49.326 49.1526 49.7234 49.1142 50.0054C49.0757 50.2874 48.7681 50.4925 48.4989 50.4028C48.8322 50.4412 48.8066 51.018 48.5886 51.2616C48.3579 51.518 47.999 51.5564 47.6657 51.5821C41.9615 51.9538 36.1419 49.6593 32.1426 45.4805C34.091 44.1986 35.924 42.9296 37.8724 41.6221Z" fill="#761A14"/>
<path d="M40.2183 45.16C40.0901 44.9678 40.3465 44.7627 40.5131 44.9037C40.9617 45.301 41.3976 45.6215 41.9359 45.8651C42.1795 45.9804 42.0385 46.4162 41.7821 46.3265C41.1668 46.1214 40.59 45.724 40.2183 45.16Z" fill="#62120F"/>
<path d="M38.2701 45.583C38.7444 45.8394 39.1802 46.1855 39.6289 46.4931C39.8981 46.6854 39.552 47.0699 39.2828 46.8777C38.8598 46.57 38.4239 46.2752 38.0394 45.9163C37.8727 45.7753 38.065 45.4804 38.2701 45.583Z" fill="#62120F"/>
<path d="M41.4106 47.2109C42.0131 47.5314 42.6284 47.7749 43.2821 47.9416C43.6026 48.0185 43.5001 48.5312 43.1796 48.4543C42.4746 48.2877 41.8208 48.0185 41.2056 47.6339C40.9492 47.4673 41.1415 47.0699 41.4106 47.2109Z" fill="#62120F"/>
<g opacity="0.2">
<path opacity="0.2" d="M44.6021 47.4032C41.3462 45.9163 37.1674 45.5446 33.8602 47.0828C33.2578 46.5957 32.6938 46.0573 32.1426 45.5061C34.091 44.2115 35.924 42.9424 37.8724 41.6349C41.1283 44.2371 44.6918 46.4419 48.4476 48.1595C48.7425 48.3005 49.0629 48.4544 49.1783 48.762C49.268 49.0184 49.0757 49.3645 48.845 49.3901C48.8065 49.3645 48.7553 49.3516 48.704 49.3645C48.7553 49.3901 48.7937 49.4029 48.845 49.3901C49.0373 49.4798 49.1526 49.7875 49.1142 50.0182C49.0757 50.2746 48.8065 50.4797 48.563 50.4284C48.5502 50.4156 48.5245 50.4156 48.4989 50.4156C48.5245 50.4156 48.5374 50.4284 48.563 50.4284C48.8322 50.5309 48.7937 51.0437 48.5886 51.2744C48.3579 51.5308 47.999 51.5692 47.6657 51.5949H47.6529C47.2171 49.8259 46.3454 48.1083 44.6021 47.4032Z" fill="#010101"/>
</g>
<g opacity="0.1">
<path opacity="0.1" d="M42.718 48.6594C40.4492 47.3263 37.1035 46.6213 34.6168 47.6724C34.3604 47.4802 34.104 47.2751 33.8477 47.07C37.1548 45.5317 41.3336 45.9035 44.5895 47.3904C46.3328 48.1083 47.2045 49.8131 47.6403 51.5949C46.6661 51.659 45.6791 51.6461 44.7049 51.5436C44.4741 50.3771 43.8589 49.326 42.718 48.6594Z" fill="#010101"/>
</g>
<path d="M12.7607 58.0041C12.7735 58.2349 12.7863 58.4656 12.812 58.6963C12.953 59.9525 13.3375 61.1703 14.0682 62.1957C14.8117 63.2469 15.8115 64.0032 16.9395 64.58C18.4905 65.3619 20.2851 65.7721 22.0028 66.0797C22.4258 66.1567 22.8488 66.2207 23.2846 66.2977C25.3997 66.6309 27.5404 66.8488 29.6682 66.8488C31.2962 66.8488 32.9113 66.7078 34.488 66.3746C34.8212 66.3105 35.1545 66.2207 35.4878 66.1438C36.9747 65.7593 38.5001 65.1312 39.4743 63.9134C40.628 62.4649 40.7946 60.4524 40.7562 58.5809C40.628 52.9152 39.0129 47.4033 37.4234 41.9811C37.1029 41.8913 36.7825 41.8016 36.462 41.7119C31.0911 40.2762 25.9252 39.8404 20.3236 39.8148C19.8749 42.5066 18.4905 44.9165 17.0549 47.211C15.6192 49.5055 14.081 51.7872 13.2863 54.3765C13.1068 54.9662 12.9658 55.5814 12.8761 56.2095C12.7863 56.7736 12.7479 57.3888 12.7607 58.0041Z" fill="#D34A27"/>
<g opacity="0.2">
<path opacity="0.2" d="M25.1047 57.0043C25.0663 56.9658 25.0407 56.9274 25.0278 56.8761C25.0791 56.9146 25.0919 56.953 25.1047 57.0043Z" fill="#010101"/>
</g>
<g opacity="0.2">
<path opacity="0.2" d="M24.1565 57.4658C24.1437 57.4529 24.1309 57.4273 24.1309 57.4145C24.1437 57.4273 24.1437 57.4529 24.1565 57.4658Z" fill="#010101"/>
</g>
<path d="M28.2323 63.4519C28.3861 64.7979 28.745 65.8618 29.2193 66.7078C29.3603 66.7463 29.5013 66.7975 29.6552 66.8232C31.2831 66.8232 32.8982 66.6822 34.4749 66.3489C34.8082 66.2848 35.1414 66.1951 35.4747 66.1182C36.9617 65.7336 38.4871 65.1055 39.4613 63.8878C40.6149 62.4393 40.7816 60.4268 40.7431 58.5553C40.6149 52.8895 38.9998 47.3776 37.4103 41.9554C37.0898 41.8657 36.7694 41.7759 36.4489 41.6862C35.4875 41.8785 34.6031 42.2502 33.9878 42.9296C32.8469 44.1986 31.6164 42.1477 30.9242 43.7244C30.1935 45.4292 28.9758 50.5438 28.7066 52.4409C28.2323 55.9403 27.8478 60.2473 28.2323 63.4519Z" fill="#761A14"/>
<path d="M39.2439 61.4651C39.449 60.9524 39.4746 60.4525 39.5003 59.9141C39.5131 59.709 39.7823 59.6834 39.8464 59.8756C40.0258 60.4396 39.9105 61.0806 39.6925 61.6061C39.5772 61.8881 39.1285 61.7599 39.2439 61.4651Z" fill="#62120F"/>
<path d="M38.3339 57.5939C38.3596 57.4273 38.6031 57.4658 38.6416 57.6068C38.7826 58.1067 38.7313 58.6707 38.68 59.1834C38.6416 59.4911 38.1801 59.4783 38.2186 59.1706C38.2827 58.6451 38.257 58.1067 38.3339 57.5939Z" fill="#62120F"/>
<path d="M37.7443 63.5929C37.9366 63.0161 38.0648 62.4393 38.1289 61.8368C38.1545 61.5932 38.5006 61.5932 38.5006 61.8496C38.5135 62.4905 38.4109 63.1315 38.1674 63.7211C38.0776 64.0031 37.6546 63.8877 37.7443 63.5929Z" fill="#62120F"/>
<path d="M15.3248 58.3373C15.2479 58.8885 15.3248 59.3756 15.4146 59.914C15.453 60.1191 15.1966 60.2088 15.0941 60.0294C14.7993 59.5294 14.7608 58.8757 14.8634 58.3117C14.9146 58.0041 15.3761 58.0297 15.3248 58.3373Z" fill="#C03C27"/>
<path d="M17.0679 61.9009C17.0807 62.0675 16.8372 62.0932 16.7731 61.965C16.5167 61.5164 16.4398 60.9523 16.3885 60.4396C16.35 60.132 16.8115 60.0294 16.85 60.3371C16.8884 60.8626 17.0422 61.3754 17.0679 61.9009Z" fill="#C03C27"/>
<path d="M16.3114 55.9147C16.2601 56.5171 16.2473 57.1068 16.3242 57.7092C16.3498 57.9528 16.0166 58.0297 15.9525 57.7861C15.7986 57.1709 15.7602 56.5171 15.8499 55.8762C15.9012 55.5942 16.337 55.607 16.3114 55.9147Z" fill="#C03C27"/>
<g opacity="0.3">
<path opacity="0.3" d="M17.0422 47.1725C18.4778 44.878 19.8622 42.4682 20.3109 39.7763C26.2458 39.8148 31.6936 40.289 37.3978 41.9426C37.8721 43.5321 38.3336 45.1344 38.7694 46.7367C31.6295 46.8905 24.5281 48.1596 17.8241 51.095C16.2731 51.7359 14.7733 52.6204 13.4658 53.7356C14.3118 51.3898 15.7219 49.2876 17.0422 47.1725Z" fill="#010101"/>
</g>
<g opacity="0.15">
<path opacity="0.15" d="M12.8633 56.1711C12.953 55.543 13.094 54.9405 13.2735 54.338C13.3376 54.1329 13.4017 53.9407 13.4786 53.7356C14.7732 52.6204 16.273 51.7359 17.8368 51.095C24.5409 48.1595 31.6423 46.8905 38.7822 46.7367C39.0257 47.6468 39.2564 48.5441 39.4744 49.4542C33.2702 49.2363 26.861 50.5694 21.6567 54.3893C20.1185 55.5301 18.7469 57.5426 19.375 59.5039C20.5415 62.9392 24.2973 64.0031 27.6045 64.6569C31.1296 65.3106 34.77 65.6439 38.1925 65.003C37.3721 65.5285 36.4236 65.8618 35.4878 66.1054C35.1545 66.1951 34.8213 66.272 34.488 66.3361C30.8219 67.0924 27.002 66.8488 23.2847 66.2592C22.8617 66.1951 22.4258 66.1182 22.0028 66.0413C20.2852 65.7336 18.4906 65.3234 16.9395 64.5415C15.8115 63.9775 14.8117 63.2084 14.0682 62.1573C13.3376 61.1318 12.9402 59.9269 12.812 58.6578C12.7864 58.4271 12.7735 58.1964 12.7607 57.9656C12.7479 57.3888 12.7864 56.7735 12.8633 56.1711Z" fill="#010101"/>
</g>
<path d="M30.7189 45.5573C32.27 49.4926 34.2825 53.2227 36.718 56.6581C36.9103 56.9273 37.1153 57.2349 37.0641 57.5554C37.0128 57.8887 36.5385 58.1066 36.3591 57.8246C36.6026 57.9527 36.5642 58.3886 36.3975 58.6065C36.2309 58.8372 35.8591 58.85 35.6669 58.6321C35.9361 58.8372 35.6412 59.3243 35.3208 59.4269C35.0003 59.5294 34.667 59.3756 34.3722 59.2346C29.2576 56.6196 25.3224 51.6589 23.8867 45.9675C26.194 45.8393 28.3988 45.6855 30.7189 45.5573Z" fill="#761A14"/>
<path d="M31.0267 49.8258C31.0139 49.5951 31.3344 49.5438 31.4113 49.7618C31.6036 50.3386 31.8215 50.8257 32.1804 51.3256C32.3342 51.5435 32.0009 51.8512 31.8215 51.6461C31.3857 51.1461 31.078 50.4924 31.0267 49.8258Z" fill="#62120F"/>
<path d="M29.1426 49.1978C29.4246 49.6592 29.6425 50.1848 29.8733 50.6847C30.0143 50.9923 29.5272 51.1462 29.3862 50.8385C29.1683 50.3642 28.9375 49.8771 28.7709 49.3644C28.7068 49.1465 29.0144 48.9927 29.1426 49.1978Z" fill="#62120F"/>
<path d="M31.0658 52.2101C31.4247 52.7998 31.8477 53.3253 32.3348 53.7996C32.5784 54.0304 32.2323 54.4277 31.9887 54.197C31.4632 53.6971 31.0273 53.1202 30.6812 52.4665C30.5402 52.2101 30.912 51.9538 31.0658 52.2101Z" fill="#62120F"/>
<g opacity="0.2">
<path opacity="0.2" d="M33.7447 54.0175C31.6425 51.0564 28.2071 48.5953 24.5923 48.2235C24.3103 47.4929 24.0668 46.7366 23.8745 45.9675C26.1946 45.8393 28.3994 45.6855 30.7196 45.5573C32.2706 49.4926 34.2831 53.2227 36.7186 56.6581C36.9109 56.9273 37.116 57.2349 37.0647 57.5554C37.0262 57.8246 36.6801 58.0297 36.475 57.9143C36.4494 57.8758 36.4109 57.8374 36.3725 57.8117C36.3981 57.863 36.4366 57.8886 36.475 57.9143C36.5904 58.0937 36.5391 58.4142 36.4109 58.6065C36.2571 58.8116 35.9238 58.85 35.7316 58.6834C35.7187 58.6706 35.7059 58.6578 35.6931 58.6449C35.7059 58.6578 35.7187 58.6706 35.7316 58.6834C35.911 58.9013 35.6418 59.3371 35.347 59.4269C35.0266 59.5294 34.6933 59.3756 34.3984 59.2346C34.3984 59.2346 34.3856 59.2346 34.3856 59.2218C34.8215 57.4528 34.9112 55.5301 33.7447 54.0175Z" fill="#010101"/>
</g>
<g opacity="0.1">
<path opacity="0.1" d="M31.4882 54.1457C30.1679 51.8127 27.6171 49.4926 24.9508 49.1337C24.8227 48.8389 24.6945 48.5312 24.5791 48.2236C28.1939 48.5953 31.6292 51.0564 33.7315 54.0175C34.8979 55.5301 34.821 57.4528 34.3339 59.2346C33.4495 58.786 32.6163 58.2604 31.8087 57.6836C32.1804 56.5299 32.1676 55.2993 31.4882 54.1457Z" fill="#010101"/>
</g>
<path d="M17.1576 11.409C16.2731 12.6652 15.4655 13.9343 14.7349 15.2417C12.8249 18.613 11.3508 22.1637 10.2228 25.9195C9.94078 26.8552 9.68441 27.8038 9.44086 28.7524C9.4665 28.6498 7.38991 27.0732 7.19763 26.8424C4.03148 23.061 1.92925 19.4846 0.90378 16.5749C0.49359 15.4212 -0.942075 11.6141 0.967872 11.0886C3.53156 10.3835 6.49262 10.3451 9.1204 10.422C14.5811 10.6143 17.0422 11.5757 17.1576 11.409Z" fill="#FBE0D8"/>
<path d="M14.722 15.2418C12.812 18.613 11.3379 22.1637 10.2099 25.9195C7.42826 22.7021 4.30056 17.9593 3.59555 16.2031C3.42891 15.7801 3.26227 15.3315 3.37764 14.8957C3.493 14.4726 3.85192 14.165 4.24929 14.024C4.64666 13.883 5.08249 13.8702 5.5055 13.8702C8.6332 13.9086 11.6968 14.4726 14.722 15.2418Z" fill="#4A1610"/>
<g opacity="0.3">
<path opacity="0.3" d="M17.1578 11.409C16.9783 11.6654 16.7989 11.9218 16.6322 12.1781C15.4786 11.9346 13.2482 11.4987 9.77438 11.3834C7.21069 11.3065 4.32655 11.3449 1.82695 12.0243C-0.0317242 12.537 1.36549 16.2416 1.76286 17.3696C2.7627 20.2025 4.81365 23.6891 7.90289 27.3808C8.01826 27.5218 8.87709 28.1884 9.47956 28.6883L9.46674 28.7652C9.49238 28.6626 7.41579 27.086 7.22351 26.8552C4.05736 23.0738 1.95513 19.4975 0.929659 16.5877C0.519469 15.434 -0.916196 11.6269 0.993751 11.1014C3.55744 10.3964 6.5185 10.3579 9.14628 10.4348C14.5813 10.6143 17.0424 11.5757 17.1578 11.409Z" fill="#010101"/>
</g>
<g opacity="0.3">
<path opacity="0.3" d="M14.7219 15.2418C13.7862 14.9982 12.8505 14.7803 11.9019 14.6008C11.1712 16.4595 10.0048 17.8952 7.77435 17.9849C6.53096 18.0874 5.27475 17.8054 4.12109 17.2671C5.30039 19.4462 7.8769 23.2148 10.2099 25.9195C11.3507 22.1637 12.812 18.613 14.7219 15.2418Z" fill="#010101"/>
</g>
<path d="M35.3729 13.5625C34.4628 13.0242 33.5527 12.5499 32.6298 12.1269C30.2584 11.0373 27.8613 10.3323 25.3874 9.9221C24.7721 9.81956 24.1568 9.74264 23.5415 9.66573C23.6184 9.67855 24.2209 7.80706 24.3234 7.6276C26.0796 4.61527 27.8998 2.46177 29.4764 1.25684C30.1045 0.782556 32.1683 -0.871022 32.8092 0.59028C33.6681 2.53868 34.1936 4.91009 34.591 7.01232C35.4242 11.409 35.2576 13.4984 35.3729 13.5625Z" fill="#FBE0D8"/>
<path d="M32.6296 12.1269C30.2582 11.0373 27.8612 10.3323 25.3872 9.92208C26.8613 7.28148 29.2071 4.1666 30.1557 3.37186C30.3864 3.17958 30.63 2.98731 30.912 3.02576C31.1811 3.06422 31.4375 3.30777 31.5913 3.61541C31.7452 3.91023 31.8221 4.25633 31.899 4.60243C32.4117 7.08921 32.5912 9.60162 32.6296 12.1269Z" fill="#4A1610"/>
<g opacity="0.3">
<path opacity="0.3" d="M35.3729 13.5625C35.1935 13.4472 35.0012 13.3446 34.8217 13.2421C34.7705 12.2935 34.6679 10.4477 34.1424 7.65324C33.7578 5.58947 33.2451 3.29497 32.399 1.38502C31.7709 -0.0378237 29.7584 1.56448 29.1432 2.03876C27.5921 3.20524 25.8232 5.29465 24.1183 8.24289C24.0542 8.35825 23.7979 9.12736 23.5928 9.66573H23.5415C23.6184 9.67855 24.2209 7.80706 24.3234 7.6276C26.0796 4.61527 27.8998 2.46177 29.4764 1.25684C30.1045 0.782556 32.1683 -0.871022 32.8092 0.59028C33.6681 2.53868 34.1936 4.91009 34.591 7.01232C35.4242 11.409 35.2576 13.4984 35.3729 13.5625Z" fill="#010101"/>
</g>
<g opacity="0.3">
<path opacity="0.3" d="M32.63 12.1268C32.6172 11.3449 32.5915 10.5758 32.5403 9.79388C31.2969 9.44778 30.2201 8.71713 29.7843 6.93537C29.5023 5.94835 29.4767 4.91005 29.592 3.92303C28.4768 5.1536 26.631 7.70447 25.4004 9.92206C27.8615 10.3323 30.2714 11.0373 32.63 12.1268Z" fill="#010101"/>
</g>
<path d="M9.59507 46.3008C10.2745 47.1084 11.3256 47.3391 12.2998 47.4801C12.6715 47.5314 13.0432 47.5827 13.4278 47.6339C16.0299 47.9416 18.6577 47.98 21.247 47.7749C22.0802 47.7109 22.9263 47.6083 23.7466 47.4929C26.5539 47.0956 29.3227 46.3906 31.9889 45.4164C34.7577 44.4037 37.4239 43.0962 39.9363 41.5196C41.1413 40.7633 42.1667 39.9942 43.0127 39.225C45.9097 36.6229 46.948 34.0079 47.1275 31.7006C47.2685 29.8932 46.8839 28.2781 46.4224 26.9963C46.2686 26.5476 46.102 26.1502 45.9353 25.7913C45.0124 23.6635 42.3205 17.9208 39.0647 14.6649C36.1549 11.7423 32.9246 9.15299 29.0663 8.30698C26.5154 7.75578 23.9005 7.92242 21.4521 8.66589C19.3755 9.294 17.4271 10.3451 15.7479 11.7167C14.6071 12.6396 13.5688 13.7035 12.6587 14.8572C10.3514 17.8054 9.04388 21.2151 8.37732 24.8428C7.42876 29.9958 7.76204 35.5974 8.3645 40.9299C8.46705 41.8016 8.5696 42.6732 8.67215 43.532C8.82597 44.5191 8.97979 45.5574 9.59507 46.3008Z" fill="#D34A27"/>
<path d="M23.7593 47.4929C26.5665 47.0955 29.3353 46.3905 32.0015 45.4163C32.2194 42.3912 32.2964 39.2891 32.0272 36.046C31.9118 34.7386 31.6939 33.2388 30.9889 32.2261C30.3992 31.3929 29.6173 31.1366 29.002 31.3288C28.3867 31.5339 27.9125 32.1236 27.4894 32.7517C25.0796 36.3024 23.7593 41.5836 23.7593 47.4929Z" fill="#FBE0D8"/>
<path d="M32.3987 10.1015C32.8089 10.3195 33.2191 10.5502 33.6293 10.7937C33.9113 10.9604 33.6037 11.3834 33.3217 11.2167C32.9371 10.986 32.5525 10.7681 32.1808 10.5245C31.9501 10.3835 32.168 9.98618 32.3987 10.1015Z" fill="#BE3926"/>
<path d="M27.8611 9.94771C28.4507 10.1272 29.0275 10.4348 29.5916 10.704C29.8992 10.845 29.7069 11.3449 29.3993 11.2039C28.8225 10.9347 28.1944 10.6784 27.656 10.3194C27.4381 10.1784 27.6432 9.88362 27.8611 9.94771Z" fill="#BE3926"/>
<path d="M32.681 13.3446C33.3091 13.7292 33.9116 14.1778 34.5141 14.6008C34.7832 14.7931 34.4756 15.2161 34.2064 15.0238C33.6039 14.6008 32.9887 14.1778 32.4118 13.7035C32.1939 13.5113 32.4375 13.1908 32.681 13.3446Z" fill="#BE3926"/>
<path d="M36.7569 13.7549C37.2568 14.0882 37.6926 14.5881 38.1284 14.9983C38.3592 15.229 38.0644 15.6392 37.8336 15.4213C37.385 14.9854 36.8466 14.5624 36.4749 14.0625C36.3211 13.8574 36.5646 13.6267 36.7569 13.7549Z" fill="#BE3926"/>
<path d="M33.7827 16.639C34.3723 16.8953 34.9107 17.3568 35.4363 17.7285C35.7054 17.9208 35.3978 18.3438 35.1286 18.1516C34.6031 17.7798 33.9878 17.4337 33.5519 16.9594C33.4109 16.8056 33.616 16.5621 33.7827 16.639Z" fill="#BE3926"/>
<path d="M37.8082 16.6005C38.3978 17.0876 38.949 17.626 39.5002 18.1644C39.7309 18.3951 39.4361 18.8053 39.2054 18.5746C38.6414 18.0362 38.0517 17.485 37.539 16.8825C37.3852 16.7159 37.6287 16.4595 37.8082 16.6005Z" fill="#BE3926"/>
<path d="M37.6158 19.318C38.0901 19.6513 38.5387 19.9974 38.9746 20.3691C39.2053 20.5742 38.9233 20.9588 38.6926 20.7665C38.2439 20.382 37.8081 19.9846 37.3851 19.5616C37.2569 19.4206 37.4748 19.2155 37.6158 19.318Z" fill="#BE3926"/>
<path d="M39.9875 20.3435C40.308 20.728 40.6284 21.1126 40.9361 21.51C41.1412 21.7663 40.7823 22.1124 40.5772 21.8561C40.2695 21.4587 39.9619 21.0613 39.6542 20.664C39.4876 20.4332 39.7952 20.1128 39.9875 20.3435Z" fill="#BE3926"/>
<path d="M28.8094 13.4087C29.3094 13.7548 29.9887 14.1137 30.3733 14.6008C30.4886 14.7418 30.322 14.9341 30.1682 14.8828C29.8734 14.7803 29.617 14.5752 29.3606 14.4085C29.0786 14.2163 28.7966 14.024 28.5146 13.8317C28.2454 13.6394 28.5402 13.2292 28.8094 13.4087Z" fill="#BE3926"/>
<path d="M24.0409 11.6141C24.7203 11.7295 25.4125 11.973 25.9765 12.3961C26.1816 12.5499 25.9893 12.9216 25.7586 12.7934C25.1817 12.4858 24.6177 12.2422 23.9768 12.1269C23.6563 12.0756 23.7204 11.5629 24.0409 11.6141Z" fill="#BE3926"/>
<g opacity="0.1">
<path opacity="0.1" d="M12.4272 32.9953C19.2979 39.6224 29.3091 40.0839 37.6539 37.392C41.1149 36.3153 44.4605 34.3412 47.1524 31.7006C47.2934 29.8932 46.9088 28.2781 46.4473 26.9963C43.2684 29.9573 39.3203 32.0467 35.0902 32.9056C27.9247 34.2643 20.3746 28.9318 18.3237 21.8945C17.1059 17.7285 18.2724 13.4856 20.6054 9.94774C20.8874 9.51191 21.1822 9.0889 21.4898 8.66589C19.4133 9.294 17.4649 10.3451 15.7856 11.7167C14.6448 12.6396 13.6065 13.7035 12.6964 14.8572C10.3891 17.8054 9.0816 21.2151 8.41504 24.8428C8.82523 27.8551 10.1199 30.7264 12.4272 32.9953Z" fill="#010101"/>
</g>
<g opacity="0.2">
<path opacity="0.2" d="M8.38953 40.9299C19.2339 46.711 32.2062 43.7243 43.025 39.2251C45.9219 36.6229 46.9602 34.008 47.1397 31.7006C44.4478 34.3412 41.1022 36.3281 37.6412 37.392C29.2964 40.0839 19.2852 39.6224 12.4145 32.9953C10.1072 30.7264 8.81254 27.8551 8.40235 24.8428C7.45379 29.9958 7.79988 35.5974 8.38953 40.9299Z" fill="#010101"/>
</g>
<g opacity="0.3">
<path opacity="0.3" d="M9.59458 46.3008C10.274 47.1084 11.3251 47.3391 12.2993 47.4801C12.671 47.5314 13.0427 47.5827 13.4273 47.6339C16.0294 47.9416 18.6572 47.98 21.2465 47.7749C27.848 47.2494 34.2829 45.0831 39.9486 41.5195C41.1536 40.7633 42.1791 39.9941 43.0251 39.225C32.2063 43.7243 19.234 46.6982 8.38965 40.9299C8.4922 41.8015 8.59474 42.6732 8.69729 43.532C8.82548 44.5191 8.9793 45.5573 9.59458 46.3008Z" fill="#010101"/>
</g>
<g opacity="0.15">
<path opacity="0.15" d="M27.8098 8.78128C29.0404 8.87101 30.2325 9.22993 31.3862 9.69139C33.0398 10.358 34.6036 11.2552 35.9624 12.4345C37.3211 13.6138 38.4363 15.1008 39.1029 16.78C39.308 17.2799 39.4618 17.8696 39.2311 18.3695C38.9875 18.895 38.3466 19.1258 37.7698 19.0617C37.2057 18.9976 36.693 18.6899 36.1931 18.3951C32.3219 16.0365 28.6302 13.3703 24.9385 10.7169C24.2591 10.2298 24.0156 9.55039 24.9 9.19147C25.823 8.83256 26.8356 8.71719 27.8098 8.78128Z" fill="white"/>
</g>
<path d="M33.0907 21.3433C33.0138 21.6894 32.9625 22.0483 33.0266 22.4072C33.0907 22.7533 33.2701 23.0994 33.5521 23.2917C33.9111 23.548 34.411 23.5352 34.8212 23.3557C35.2185 23.1763 35.539 22.8302 35.7954 22.4585C36.2056 21.8432 36.4491 21.1253 36.5004 20.3819C36.5645 19.5359 35.9492 18.2027 34.9237 18.6898C33.988 19.1513 33.3214 20.3691 33.0907 21.3433Z" fill="#FBE0D8"/>
<path d="M34.9235 18.6899C34.9235 18.6899 34.9107 18.6899 34.9107 18.7027C35.2952 19.0232 35.5772 19.5359 35.6926 20.0358C36.0002 21.2664 35.6029 22.6636 34.7056 23.4071C34.744 23.3943 34.7953 23.3814 34.8338 23.3558C35.2311 23.1763 35.5516 22.8303 35.808 22.4585C36.2181 21.8432 36.4617 21.1254 36.513 20.3819C36.5514 19.5231 35.9361 18.19 34.9235 18.6899Z" fill="#EEC3BE"/>
<path d="M42.8586 16.5877C43.115 16.8056 43.3585 17.062 43.5124 17.3696C43.6662 17.6773 43.7175 18.049 43.6149 18.3823C43.4739 18.8053 43.0894 19.1001 42.6664 19.1898C42.2433 19.2924 41.8075 19.2155 41.3973 19.0745C40.7308 18.8437 40.1283 18.4207 39.6797 17.8824C39.1541 17.2543 38.8721 15.8442 39.9488 15.6263C40.9102 15.4084 42.128 15.9596 42.8586 16.5877Z" fill="#FBE0D8"/>
<path d="M39.9362 15.6135H39.949C39.8336 16.1006 39.9105 16.6646 40.09 17.126C40.5514 18.2669 41.6538 19.1129 42.7818 19.1642C42.7434 19.177 42.6921 19.1898 42.6537 19.2026C42.2307 19.3052 41.7948 19.2283 41.3846 19.0873C40.7181 18.8565 40.1156 18.4335 39.667 17.8951C39.1414 17.2414 38.8594 15.8442 39.9362 15.6135Z" fill="#EEC3BE"/>
<path d="M44.1659 23.0098C44.1659 23.0098 46.6271 23.2918 48.2037 27.1629C49.7932 31.0341 46.6655 37.61 42.9994 38.5457C39.3462 39.4815 37.6029 21.7792 44.1659 23.0098Z" fill="#FBE0D8"/>
<g opacity="0.5">
<path opacity="0.5" d="M41.4998 23.8429C42.1664 23.1379 43.0509 22.8046 44.1661 23.0097C44.1661 23.0097 44.9224 23.0994 45.8709 23.8429C45.8196 24.0736 45.7299 24.2787 45.5761 24.4197C42.8714 26.9834 41.5383 31.5724 45.1274 34.0207C45.8325 34.5335 46.5375 34.7001 47.2297 34.6617C46.9477 35.1744 46.64 35.6615 46.2939 36.0973C45.2044 36.3537 43.9994 36.2511 43.3457 35.3795C40.9743 32.2902 40.1795 27.6115 41.4998 23.8429Z" fill="#EEC3BE"/>
</g>
<path d="M41.4998 23.8429C40.1795 27.6115 40.9614 32.2902 43.3457 35.3795C43.9994 36.2511 45.2043 36.3409 46.2939 36.0973C45.3582 37.3279 44.2045 38.238 42.9996 38.5456C39.9616 39.3148 38.2439 27.2654 41.4998 23.8429Z" fill="#EEC3BE"/>
<path d="M42.2945 30.5854C42.4739 31.3033 43.0892 31.816 43.8327 31.6366C44.3454 31.5084 44.6915 31.0341 45.1145 30.7393C45.2684 30.6367 45.4222 30.5598 45.5888 30.5085C45.4991 29.5343 45.3709 28.573 45.1402 27.6116C44.8838 26.5861 44.5249 25.6119 44.1403 24.6249C44.1019 24.5095 44.2429 24.4454 44.307 24.548C45.294 26.2913 45.8452 28.432 45.9349 30.4573C45.9862 30.4573 46.0247 30.4573 46.0759 30.4701C46.5758 30.5342 47.2168 30.9444 47.6013 30.3932C47.6526 30.3163 47.7936 30.3547 47.768 30.4573C47.6782 30.9187 47.2168 31.0469 46.8066 31.0085C46.3579 30.9572 45.9862 30.7008 45.5376 30.9059C45.2171 31.0469 44.9864 31.3289 44.7172 31.5468C44.2429 31.9442 43.6917 32.1621 43.0764 31.9698C42.4868 31.7904 42.0509 31.2648 41.9484 30.6495C41.9099 30.4188 42.2432 30.3675 42.2945 30.5854Z" fill="#4A1610"/>
<path d="M43.4353 23.1892C43.9096 22.9713 44.4224 22.8559 44.9479 22.9713C45.3197 23.061 45.6786 23.3046 45.6786 23.6507C45.6914 24.5351 44.1916 25.1248 43.3969 25.2017C42.7816 25.253 41.6536 25.0735 42.0638 24.2916C42.3073 23.8173 42.9354 23.4199 43.4353 23.1892Z" fill="#4A1610"/>
<g opacity="0.1">
<path opacity="0.1" d="M43.2689 23.7789C44.0508 24.1506 44.9865 23.8942 45.4352 23.202C45.4608 23.2277 45.4993 23.2533 45.5249 23.2789C45.448 23.4712 45.3326 23.6507 45.2045 23.8173C44.6404 24.4198 43.8842 24.548 43.1663 24.2916C42.8715 24.2019 42.6279 24.048 42.4229 23.8429C42.5639 23.7148 42.7177 23.5994 42.8715 23.4968C42.9869 23.5994 43.115 23.7019 43.2689 23.7789Z" fill="#010101"/>
</g>
<g opacity="0.2">
<path opacity="0.2" d="M42.0635 24.2916C42.1404 24.1378 42.2686 23.9839 42.4224 23.8429C42.6275 24.048 42.871 24.2019 43.1659 24.2916C43.8837 24.5608 44.6272 24.4198 45.204 23.8173C45.3322 23.6507 45.4475 23.4712 45.5245 23.2789C45.627 23.3815 45.6783 23.5097 45.6783 23.6507C45.6783 23.7404 45.6655 23.8429 45.627 23.9327C44.8451 24.7402 43.6273 25.0607 42.448 24.6249C42.2942 24.5608 42.1532 24.4839 42.0122 24.3941C42.0378 24.3557 42.0507 24.3172 42.0635 24.2916Z" fill="#010101"/>
</g>
<g opacity="0.3">
<path opacity="0.3" d="M42.0252 24.3813C42.1534 24.4711 42.3072 24.548 42.461 24.6121C43.6403 25.0479 44.8581 24.7274 45.64 23.9199C45.3836 24.6505 44.1146 25.1248 43.3968 25.1889C42.8071 25.253 41.7432 25.0992 42.0252 24.3813Z" fill="#010101"/>
</g>
<g opacity="0.3">
<path opacity="0.3" d="M44.7428 23.0226C44.7941 23.0226 44.8582 23.0354 44.9095 23.061C44.9607 23.0867 45.012 23.1379 45.012 23.1892C45.0248 23.2661 44.9607 23.343 44.8966 23.3943C44.7556 23.4968 44.5762 23.5481 44.4095 23.5866C44.0763 23.6635 43.7174 23.7148 43.3841 23.625C43.3456 23.6122 43.2943 23.5994 43.2687 23.5609C43.2431 23.5225 43.2559 23.484 43.2687 23.4456C43.32 23.343 43.4482 23.3046 43.5507 23.2661C43.6789 23.2148 43.8071 23.1636 43.9353 23.1251C44.1916 23.0354 44.4608 22.9969 44.7428 23.0226Z" fill="#ECECEC"/>
</g>
<path d="M39.0254 24.4839C38.9869 24.6505 38.8588 24.7915 38.6921 24.8172C38.2947 24.8813 37.9999 24.3173 37.8974 24.0096C37.7948 23.7148 37.8974 23.3559 38.2691 23.3943C38.5896 23.42 38.8331 23.7404 38.9741 24.0224C39.0254 24.1634 39.0639 24.3301 39.0254 24.4839Z" fill="#4A1610"/>
<g opacity="0.3">
<path opacity="0.3" d="M38.4356 23.7276C38.3715 23.625 38.3074 23.5097 38.2305 23.3943C38.2433 23.3943 38.2433 23.3943 38.2561 23.3943C38.5766 23.4199 38.8201 23.7404 38.9611 24.0224C39.0252 24.1634 39.0637 24.3429 39.0252 24.4967C38.9868 24.6633 38.8586 24.8043 38.6919 24.83C38.6407 24.8428 38.5766 24.83 38.5253 24.8171C38.6278 24.471 38.6022 24.0865 38.4356 23.7276Z" fill="#010101"/>
</g>
<path d="M42.6152 22.2919C42.5768 22.4585 42.4486 22.5995 42.282 22.6252C41.8846 22.6892 41.5898 22.1252 41.4872 21.8176C41.3847 21.5228 41.4872 21.1639 41.859 21.2023C42.1794 21.2279 42.423 21.5484 42.564 21.8304C42.6281 21.9714 42.6537 22.1381 42.6152 22.2919Z" fill="#4A1610"/>
<g opacity="0.3">
<path opacity="0.3" d="M42.0254 21.5356C41.9613 21.433 41.8972 21.3176 41.8203 21.2023C41.8331 21.2023 41.8331 21.2023 41.8459 21.2023C42.1664 21.2279 42.41 21.5484 42.551 21.8304C42.6151 21.9714 42.6535 22.1508 42.6151 22.3047C42.5766 22.4713 42.4484 22.6123 42.2818 22.6379C42.2305 22.6508 42.1664 22.6379 42.1151 22.6251C42.2305 22.279 42.2049 21.9073 42.0254 21.5356Z" fill="#010101"/>
</g>
<path d="M25.5793 66.3873C25.6049 66.4001 25.6306 66.4001 25.6434 66.413C25.7331 66.4514 25.8229 66.4899 25.9126 66.5155C26.1049 66.5924 26.2971 66.6693 26.4894 66.7334C26.6561 66.7975 26.8227 66.8488 26.9893 66.9129C27.0791 66.9385 27.156 66.977 27.2457 67.0026H27.2585C27.3483 67.0282 27.438 67.0667 27.5277 67.0923C27.6174 67.118 27.7072 67.1436 27.7969 67.1821C27.8866 67.2077 27.9764 67.2333 28.0661 67.259C28.0789 67.259 28.0789 67.259 28.0917 67.259C28.284 67.3103 28.4763 67.3615 28.6686 67.4128C28.7711 67.4384 28.8736 67.4641 28.9634 67.4897C29.1685 67.541 29.3607 67.5794 29.5658 67.6307C29.5787 67.6307 29.5915 67.6307 29.5915 67.6435C29.8863 67.7076 30.1683 67.7589 30.4631 67.823C30.6682 67.8614 30.8605 67.8871 31.0656 67.9255C31.1681 67.9384 31.2707 67.9512 31.3732 67.964C31.4758 67.9768 31.5783 67.9896 31.6809 68.0024C31.886 68.0281 32.0911 68.0537 32.2962 68.0665C32.6807 68.105 33.0781 68.1306 33.4627 68.1563C36.5903 68.3101 39.7565 67.823 42.6791 66.6693C42.9355 66.5668 43.2175 66.4386 43.3585 66.195C43.4995 65.9515 43.4226 65.5541 43.1534 65.49C43.4482 65.4644 43.7046 65.1952 43.7302 64.8876C43.7302 64.8876 43.7302 64.8876 43.7302 64.8747C43.7302 64.8619 43.7302 64.8491 43.7302 64.8235C43.7302 64.4902 43.461 64.1954 43.1406 64.1569C43.1406 64.1569 43.1406 64.1569 43.1534 64.1569C43.2431 64.1185 43.3072 64.0672 43.3457 64.0031C43.3457 63.9903 43.3585 63.9775 43.3585 63.9775C43.3713 63.9518 43.3841 63.9262 43.3969 63.8877C43.3969 63.8749 43.4098 63.8493 43.4098 63.8365C43.4226 63.7595 43.4098 63.6955 43.3969 63.6314C43.3969 63.6185 43.3841 63.5929 43.3713 63.5801C43.32 63.4647 43.2047 63.3622 43.0508 63.3365C42.9227 63.3237 42.7945 63.2981 42.6663 63.2853C42.6278 63.2853 42.5894 63.2724 42.5637 63.2724C42.4356 63.2468 42.3074 63.234 42.1792 63.2084C42.0254 63.1827 41.8844 63.1571 41.7305 63.1314C41.6024 63.1058 41.487 63.093 41.3588 63.0673C41.3204 63.0545 41.2691 63.0545 41.2306 63.0417C41.1281 63.0161 41.0255 63.0033 40.923 62.9776C40.8845 62.9648 40.8461 62.9648 40.7948 62.952C40.6666 62.9263 40.5384 62.9007 40.4102 62.8751H40.3974C40.2692 62.8494 40.1282 62.811 40.0001 62.7853C39.8334 62.7469 39.6668 62.7084 39.5001 62.67C39.372 62.6443 39.2438 62.6059 39.1156 62.5674C39.1028 62.5674 39.0771 62.5546 39.0643 62.5546C38.9361 62.5162 38.8079 62.4905 38.6798 62.4521C38.6669 62.4521 38.6669 62.4521 38.6541 62.4392C38.5388 62.4008 38.4106 62.3752 38.2952 62.3367C38.1157 62.2854 37.9235 62.2213 37.744 62.1701C37.6158 62.1316 37.5005 62.0931 37.3723 62.0547C37.2825 62.0291 37.18 61.9906 37.0903 61.965C37.0005 61.9265 36.898 61.9009 36.8083 61.8624C36.7185 61.824 36.616 61.7983 36.5263 61.7599C36.3981 61.7086 36.2699 61.6701 36.1417 61.6189C36.1161 61.606 36.0776 61.5932 36.052 61.5804C35.9494 61.542 35.8597 61.5035 35.7571 61.465C35.6931 61.4394 35.6418 61.4138 35.5777 61.401C35.5521 61.3881 35.5264 61.3881 35.5136 61.3753C35.4367 61.3369 35.347 61.3112 35.2701 61.2728C35.129 61.2215 34.988 61.1574 34.8599 61.1061C34.7445 61.0549 34.6419 61.0164 34.5266 60.9651C34.3471 60.8882 34.1805 60.8113 34.001 60.7344C33.8857 60.6831 33.7831 60.6318 33.6677 60.5806C33.3601 60.4396 33.0653 60.2857 32.7576 60.1447C32.6551 60.0935 32.5397 60.0422 32.4372 59.9781C32.3987 59.9653 32.3731 59.9397 32.3346 59.9268C32.2449 59.8756 32.1552 59.8243 32.0526 59.7858C31.8091 59.6576 31.5655 59.5295 31.3348 59.3885C31.2835 59.3628 31.2194 59.3244 31.1681 59.2987C31.1425 59.2859 31.1169 59.2731 31.0912 59.2475C31.0143 59.1962 30.9246 59.1577 30.8477 59.1064C30.7067 59.0295 30.5657 58.9398 30.4247 58.8501C30.2965 58.7732 30.1683 58.6963 30.0529 58.6194C29.9376 58.5424 29.8094 58.4655 29.694 58.3886C29.6812 58.3886 29.6812 58.3758 29.6684 58.3758C27.861 57.2093 25.5024 57.5682 24.0924 59.2218C24.0667 59.2475 24.0411 59.2731 24.0155 59.3115C22.0414 61.5932 22.8233 65.208 25.5793 66.3873Z" fill="#761A14"/>
<g opacity="0.1">
<path opacity="0.1" d="M43.3843 63.9518C43.3459 64.0416 43.269 64.1313 43.1536 64.1697C43.1536 64.1697 43.1536 64.1697 43.1408 64.1697C43.4612 64.1954 43.7304 64.503 43.7304 64.8363C43.7304 64.8491 43.7304 64.8748 43.7304 64.8876C40.2053 64.3236 36.488 64.4389 33.9371 67.4128C33.732 67.6564 33.5654 67.9127 33.4628 68.1691C31.6426 68.0794 29.8352 67.7845 28.0791 67.2718C31.7836 63.6186 38.0262 63.4263 43.3843 63.9518Z" fill="#010101"/>
</g>
<g opacity="0.2">
<path opacity="0.2" d="M25.5793 66.3873C25.6049 66.4001 25.6306 66.4001 25.6434 66.413C25.7331 66.4514 25.8229 66.4899 25.9126 66.5155C26.1049 66.5924 26.2971 66.6693 26.4894 66.7334C26.6561 66.7975 26.8227 66.8488 26.9893 66.9129C27.0791 66.9385 27.156 66.977 27.2457 67.0026H27.2585C27.3483 67.0282 27.438 67.0667 27.5277 67.0923C27.6174 67.118 27.7072 67.1436 27.7969 67.1821C27.8866 67.2077 27.9764 67.2333 28.0661 67.259C31.7834 63.6057 38.026 63.4134 43.3841 63.939C43.3969 63.9262 43.3969 63.9134 43.3969 63.8877C43.3969 63.8749 43.4098 63.8493 43.4098 63.8365C43.4226 63.7595 43.4098 63.6955 43.3969 63.6314C43.3969 63.6185 43.3841 63.5929 43.3713 63.5801C43.32 63.4647 43.2047 63.3622 43.0508 63.3365C42.9227 63.3237 42.7945 63.2981 42.6663 63.2853C42.6278 63.2853 42.5894 63.2724 42.5637 63.2724C42.4356 63.2596 42.3074 63.234 42.1792 63.2084C42.0254 63.1827 41.8844 63.1571 41.7305 63.1314C41.6024 63.1058 41.487 63.093 41.3588 63.0673C41.3204 63.0545 41.2691 63.0545 41.2306 63.0417C41.1281 63.0161 41.0255 63.0033 40.923 62.9776C40.8845 62.9648 40.8461 62.9648 40.7948 62.952C40.6666 62.9263 40.5384 62.9007 40.4102 62.8751H40.3974C40.2692 62.8494 40.1282 62.811 40.0001 62.7853C39.8334 62.7469 39.6668 62.7084 39.5001 62.67C39.372 62.6443 39.2438 62.6059 39.1156 62.5674C39.1028 62.5674 39.0771 62.5546 39.0643 62.5546C38.9361 62.5162 38.8079 62.4905 38.6798 62.4521C38.6669 62.4521 38.6669 62.4521 38.6541 62.4392C38.5388 62.4008 38.4106 62.3752 38.2952 62.3367C38.1157 62.2854 37.9235 62.2213 37.744 62.1701C37.6158 62.1316 37.5005 62.0931 37.3723 62.0547C37.2825 62.0291 37.18 61.9906 37.0903 61.965C37.0005 61.9393 36.898 61.9009 36.8083 61.8624C36.7185 61.824 36.616 61.7983 36.5263 61.7599C36.3981 61.7086 36.2699 61.6701 36.1417 61.6189C36.1161 61.606 36.0776 61.5932 36.052 61.5804C35.9494 61.542 35.8597 61.5035 35.7571 61.465C35.6931 61.4394 35.6418 61.4138 35.5777 61.401C35.5521 61.3881 35.5264 61.3881 35.5136 61.3753C35.4367 61.3369 35.347 61.3112 35.2701 61.2728C35.129 61.2215 34.988 61.1574 34.8599 61.1061C34.7445 61.0549 34.6419 61.0164 34.5266 60.9651C34.3471 60.8882 34.1805 60.8113 34.001 60.7344C33.8857 60.6831 33.7831 60.6318 33.6677 60.5806C33.3601 60.4396 33.0653 60.2857 32.7576 60.1447C32.6551 60.0935 32.5397 60.0422 32.4372 59.9781C32.3987 59.9653 32.3731 59.9397 32.3346 59.9268C32.2449 59.8756 32.1552 59.8243 32.0526 59.7858C31.8091 59.6576 31.5655 59.5295 31.3348 59.3885C31.2835 59.3628 31.2194 59.3244 31.1681 59.2987C31.1425 59.2859 31.1169 59.2731 31.0912 59.2475C31.0143 59.1962 30.9246 59.1577 30.8477 59.1064C30.7067 59.0295 30.5657 58.9398 30.4247 58.8501C30.2965 58.7732 30.1683 58.6963 30.0529 58.6194C29.9376 58.5424 29.8094 58.4655 29.694 58.3886C29.6812 58.3886 29.6812 58.3758 29.6684 58.3758C27.861 57.2093 25.5024 57.5682 24.0924 59.2218C24.0667 59.2475 24.0411 59.2731 24.0155 59.3115C22.0414 61.5932 22.8233 65.208 25.5793 66.3873Z" fill="#010101"/>
</g>
<path d="M7.38943 60.619C7.53043 60.0422 7.74834 59.491 8.01753 58.9526C8.59436 57.7861 9.4532 56.7222 10.5299 55.8505L13.209 59.1577C13.1962 59.1705 13.1834 59.1833 13.1705 59.1961C12.6963 59.632 12.4399 60.2601 12.5168 60.8625C12.5553 61.1574 12.645 61.4265 12.786 61.6957C13.1449 62.3623 13.773 62.9391 14.478 63.3878C14.5421 63.4262 14.5934 63.4647 14.6575 63.5031C15.5676 64.0543 16.5802 64.4645 17.657 64.7209C19.2593 65.1054 20.977 65.1567 22.5921 64.8491C22.7844 64.8106 22.9638 64.7722 23.1561 64.7209C24.079 64.4902 24.9379 64.1569 25.7711 63.7595C27.399 62.9904 28.9116 62.0162 30.5011 61.183C30.5908 61.1317 30.6805 61.0933 30.7703 61.042C31.6547 60.5933 32.5905 60.196 33.539 59.8627C34.9106 59.3756 36.3335 59.0295 37.7948 58.8629C38.6151 58.7731 39.4483 58.7347 40.2815 58.7603C40.6405 58.7731 40.9994 58.7988 41.3583 58.85C44.4347 59.209 47.383 60.5805 48.9981 62.7981C50.2415 64.5286 50.6004 66.6437 50.203 68.6433C50.1261 69.1048 49.9979 69.5534 49.8313 70.0021C49.4852 70.9122 48.9853 71.771 48.37 72.5658C47.383 73.8476 46.1011 74.9756 44.6654 75.9114C44.1655 76.2447 43.64 76.5395 43.1016 76.8215C41.7044 77.5521 40.2046 78.1161 38.6408 78.5392C36.2053 79.2057 33.6031 79.4877 31.0394 79.4236C30.1165 79.398 29.1936 79.3211 28.2835 79.2185C26.1556 78.9494 24.0662 78.4622 22.0665 77.7829C20.4258 77.2317 18.8363 76.5523 17.3237 75.7704C15.4266 74.7962 13.6448 73.6425 12.0938 72.3094C11.094 71.4506 10.1967 70.502 9.4532 69.4637C9.29937 69.2458 9.14555 69.0279 8.99173 68.7971C7.85089 67.0154 7.1587 65.0157 7.10742 63.016C7.10742 62.2085 7.18433 61.4137 7.38943 60.619Z" fill="#D34A27"/>
<path d="M37.8076 58.8629C38.2691 61.6958 39.3843 64.503 41.2301 66.8231C43.076 69.1433 45.5371 71.1173 48.37 72.553C48.9853 71.7582 49.4852 70.8994 49.8313 69.9893C49.998 69.5535 50.1261 69.092 50.2287 68.6305C46.114 66.3232 42.935 62.7981 41.3711 58.8372C41.0122 58.7988 40.6533 58.7732 40.2944 58.7475C39.4612 58.7347 38.628 58.7732 37.8076 58.8629Z" fill="#761A14"/>
<path d="M32.1548 72.0402C33.6161 74.6296 35.885 76.8728 38.6409 78.5392C40.2048 78.1162 41.7046 77.5394 43.1018 76.8215C39.9869 74.9244 37.4232 72.3735 35.7696 69.4381C34.0904 66.477 33.3213 63.1443 33.5648 59.8627C32.6035 60.196 31.6805 60.5934 30.7961 61.042C29.809 64.7081 30.2449 68.669 32.1548 72.0402Z" fill="#761A14"/>
<path d="M21.0158 72.6427C21.0927 74.386 21.4516 76.1165 22.0797 77.7829C24.0794 78.4623 26.1688 78.9494 28.2966 79.2186C25.5791 74.4629 24.669 68.9638 25.7842 63.7595C24.951 64.1569 24.0922 64.4902 23.1693 64.7209C22.977 64.7722 22.7975 64.8106 22.6052 64.8491C21.4388 67.3102 20.8876 69.9765 21.0158 72.6427Z" fill="#761A14"/>
<path d="M9.00439 68.81C9.1454 69.0407 9.29922 69.2586 9.46586 69.4765C10.2221 70.502 11.1194 71.4506 12.1065 72.3222C13.3755 69.5278 15.2598 66.9256 17.6568 64.7209C16.5929 64.4645 15.5674 64.0543 14.6573 63.5031C14.5932 63.4647 14.542 63.4262 14.4779 63.3878C12.2346 64.8362 10.3503 66.6949 9.00439 68.81Z" fill="#761A14"/>
<path d="M7.12001 63.016C8.95305 62.3879 10.7989 61.9521 12.7858 61.6829C12.6448 61.4265 12.555 61.1445 12.5166 60.8497C12.4397 60.2601 12.696 59.6191 13.1575 59.1833C11.5039 58.7347 9.72215 58.6578 8.0173 58.9398C7.74812 59.4781 7.5302 60.0422 7.3892 60.6062C7.1841 61.4137 7.10719 62.2085 7.12001 63.016Z" fill="#761A14"/>
<g opacity="0.3">
<path opacity="0.3" d="M7.38943 60.619C7.53043 60.0422 7.74834 59.491 8.01753 58.9526C8.35081 58.2861 8.77382 57.6451 9.27374 57.0683C7.83807 63.0289 10.2351 69.5535 15.5163 72.4504C20.4386 75.1808 25.7454 76.6421 31.2317 76.2447C37.9229 75.7448 44.8962 73.6169 50.1005 69.1433C50.0236 69.4253 49.9338 69.7201 49.8313 69.9893C49.4852 70.8994 48.9853 71.7582 48.37 72.553C47.383 73.8348 46.1011 74.9628 44.6654 75.8986C44.1655 76.2319 43.64 76.5267 43.1016 76.8087C41.7044 77.5393 40.2046 78.1034 38.6408 78.5264C36.2053 79.1929 33.6031 79.4749 31.0394 79.4108C30.1165 79.3852 29.1936 79.3083 28.2835 79.2057C26.1556 78.9366 24.0662 78.4495 22.0665 77.7701C20.4258 77.2189 18.8363 76.5395 17.3237 75.7576C15.4266 74.7834 13.6448 73.6297 12.0938 72.2966C11.094 71.4378 10.1967 70.4892 9.4532 69.4509C9.29937 69.233 9.14555 69.0151 8.99173 68.7844C7.85089 67.0026 7.1587 65.0029 7.10742 63.0032C7.10742 62.2085 7.18433 61.4137 7.38943 60.619Z" fill="#010101"/>
</g>
<g opacity="0.15">
<path opacity="0.15" d="M9.27365 57.0555C9.64538 56.6196 10.0684 56.2094 10.5299 55.8377L11.8502 57.4785C9.46593 61.5035 11.7732 66.8231 15.5162 69.515C21.4768 73.7963 28.6808 73.7066 35.5899 72.6299C38.7176 72.2453 41.371 70.3866 43.6399 68.1434C45.6139 66.2847 46.7035 63.4006 46.6522 60.6318C47.588 61.2215 48.3955 61.9393 48.998 62.7853C50.2414 64.5158 50.6003 66.6308 50.2029 68.6305C50.1645 68.7971 50.126 68.9638 50.0876 69.1304C44.8961 73.6041 37.9229 75.7319 31.2188 76.2318C25.7197 76.6164 20.4257 75.1551 15.5034 72.4376C10.235 69.5406 7.83798 63.016 9.27365 57.0555Z" fill="#010101"/>
</g>
<g opacity="0.3">
<path opacity="0.3" d="M38.7435 61.1702C39.3716 61.1574 40.0126 61.2086 40.5766 61.4906C41.1406 61.7726 41.602 62.3367 41.6149 62.9776C41.6277 63.6057 41.2303 64.1697 40.7817 64.6183C39.6408 65.7848 38.1795 66.5539 36.6926 67.1692C34.4622 68.0921 32.1036 68.6946 29.7065 68.9638C28.5016 69.1048 27.271 69.1561 26.0789 68.951C24.8868 68.7459 23.7075 68.2716 22.7974 67.4512C22.4898 67.1692 21.9386 66.5411 22.259 66.0668C22.5026 65.7079 23.0666 65.9002 23.4127 65.9002C24.6689 65.8745 25.9636 65.4131 27.1428 64.9901C29.6296 64.0928 31.9754 62.8238 34.475 61.9777C35.8466 61.5291 37.2822 61.1958 38.7435 61.1702Z" fill="white"/>
</g>
<defs>
<linearGradient id="paint0_linear" x1="66.9531" y1="70.3922" x2="64.025" y2="68.2654" gradientUnits="userSpaceOnUse">
<stop stop-color="#924720"/>
<stop offset="0.1968" stop-color="#8E451F"/>
<stop offset="0.4355" stop-color="#823E1D"/>
<stop offset="0.6959" stop-color="#703318"/>
<stop offset="0.97" stop-color="#59250F"/>
<stop offset="1" stop-color="#56230E"/>
</linearGradient>
<linearGradient id="paint1_linear" x1="56.0938" y1="67.2176" x2="53.333" y2="65.2121" gradientUnits="userSpaceOnUse">
<stop stop-color="#924720"/>
<stop offset="0.1968" stop-color="#8E451F"/>
<stop offset="0.4355" stop-color="#823E1D"/>
<stop offset="0.6959" stop-color="#703318"/>
<stop offset="0.97" stop-color="#59250F"/>
<stop offset="1" stop-color="#56230E"/>
</linearGradient>
<linearGradient id="paint2_linear" x1="46.2717" y1="64.4698" x2="43.7179" y2="62.6148" gradientUnits="userSpaceOnUse">
<stop stop-color="#924720"/>
<stop offset="0.1968" stop-color="#8E451F"/>
<stop offset="0.4355" stop-color="#823E1D"/>
<stop offset="0.6959" stop-color="#703318"/>
<stop offset="0.97" stop-color="#59250F"/>
<stop offset="1" stop-color="#56230E"/>
</linearGradient>
</defs>
</svg>
