<?xml version="1.0" encoding="utf-8"?>
<!-- Generator: Adobe Illustrator 24.1.2, SVG Export Plug-In . SVG Version: 6.00 Build 0)  -->
<svg version="1.1" xmlns="http://www.w3.org/2000/svg" xmlns:xlink="http://www.w3.org/1999/xlink" x="0px" y="0px"
	 viewBox="0 0 3710 3710" style="enable-background:new 0 0 3710 3710;" xml:space="preserve">
<style type="text/css">
	.st0{opacity:0.3;fill:url(#SVGID_1_);}
	.st1{fill:url(#SVGID_2_);}
	.st2{opacity:0.6;fill:#FFFFFF;}
	.st3{fill:url(#SVGID_3_);}
	.st4{fill:url(#SVGID_4_);}
	.st5{opacity:0.43;fill:#FFFFFF;}
	.st6{fill:url(#SVGID_5_);}
	.st7{fill:url(#SVGID_6_);}
	.st8{fill:url(#SVGID_7_);}
	.st9{fill:url(#SVGID_8_);}
	.st10{fill:url(#SVGID_9_);}
	.st11{fill:url(#SVGID_10_);}
	.st12{fill:url(#SVGID_11_);}
	.st13{fill:url(#SVGID_12_);}
	.st14{fill:url(#SVGID_13_);}
	.st15{fill:#77160C;}
	.st16{fill:#630E0A;}
	.st17{opacity:0.2;}
	.st18{opacity:0.1;}
	.st19{fill:url(#SVGID_14_);}
	.st20{fill:#D44613;}
	.st21{opacity:0.15;}
	.st22{opacity:0.3;}
	.st23{fill:#C1380E;}
	.st24{fill:#FCE0D9;}
	.st25{fill:#4D0F05;}
	.st26{fill:#BF340A;}
	.st27{fill:#FFFFFF;}
	.st28{fill:#EFC3BD;}
	.st29{opacity:0.5;}
	.st30{fill:#ECECEC;}
</style>
<g id="Layer_3">
</g>
<g id="Illustration">
	<g>
		<linearGradient id="SVGID_1_" gradientUnits="userSpaceOnUse" x1="3555.7708" y1="4031.5652" x2="1103.6301" y2="986.1605">
			<stop  offset="0" style="stop-color:#B37CFF"/>
			<stop  offset="1" style="stop-color:#F895E7"/>
		</linearGradient>
		<path class="st0" d="M2872,2836.88c-55.82,59.64-108.64,98.1-150.37,128.49c-490.53,357.19-1070.96,253.07-1194.32,227.65
			c-182.16-37.55-534.27-110.13-788.85-413.94c-385.15-459.65-325.17-1183.82-26.43-1661.85c54.64-87.44,343.3-572.76,929.98-650.59
			c355.05-47.1,768.93,47.9,1068.65,302.73C3339.8,1304.29,3295.01,2384.93,2872,2836.88z"/>
		<g>
			<g>
				
					<linearGradient id="SVGID_2_" gradientUnits="userSpaceOnUse" x1="4090.3242" y1="-743.5872" x2="5454.4951" y2="-743.5872" gradientTransform="matrix(-0.9879 -0.1554 -0.1554 0.9879 5608.9063 3465.6252)">
					<stop  offset="0" style="stop-color:#A737D5"/>
					<stop  offset="1" style="stop-color:#EF497A"/>
				</linearGradient>
				<path class="st1" d="M467.4,1052.19c-1.57-14.9,13.69-25.83,27.33-19.65c208.85,94.68,1401.73,695.27,1039.21,1915.88
					C1533.94,2948.42,646.84,2755.19,467.4,1052.19z"/>
				<path class="st2" d="M601.79,1233.73c1.37-1.25,3.49-1.15,4.74,0.21c49.66,53.92,98.15,108.8,146.18,164.12
					c48,55.34,95.36,111.23,142.07,167.66c93.41,112.87,184.32,227.86,271.63,345.58c87.21,117.77,171.08,238.18,248.22,362.98
					c38.76,62.27,75.29,125.98,109.36,191.04c33.96,65.1,65.42,131.66,91.5,200.59c1.55,4.11-0.52,8.69-4.62,10.25
					c-4.11,1.55-8.69-0.52-10.25-4.62l-0.01-0.04l-0.01-0.03c-25.41-68.23-56.28-134.47-89.7-199.34
					c-33.52-64.84-69.55-128.46-107.86-190.72c-76.22-124.76-159.28-245.35-245.73-363.38
					c-86.56-117.98-176.76-233.31-269.49-346.56c-46.37-56.63-93.39-112.72-141.07-168.25c-47.69-55.51-95.89-110.64-145.16-164.7
					l-0.02-0.02C600.31,1237.12,600.41,1234.99,601.79,1233.73z"/>
			</g>
			<g>
				<linearGradient id="SVGID_3_" gradientUnits="userSpaceOnUse" x1="1536.4592" y1="662.6466" x2="1677.8187" y2="2914.3201">
					<stop  offset="0" style="stop-color:#CB236D"/>
					<stop  offset="1" style="stop-color:#4C246D"/>
				</linearGradient>
				<path class="st3" d="M1471.68,544.95c5.97-15.72,26.79-18.95,37.32-5.84c161.25,200.57,1052,1406.06,70.92,2445.11
					C1579.92,2984.22,789.21,2341.55,1471.68,544.95z"/>
				<path class="st2" d="M1529.64,798.46c13.71,81.11,25.72,162.42,37.04,243.85c11.28,81.43,21.62,163,31,244.67
					c9.38,81.68,17.81,163.47,25.27,245.35c7.42,81.89,13.58,163.9,18.7,245.97c9.94,164.16,15.13,328.74,11.3,493.34
					c-1.66,82.29-6.29,164.57-14.07,246.6c-7.9,82-19.05,163.86-36.7,244.61c-0.97,4.44-5.36,7.25-9.79,6.28
					c-4.44-0.97-7.25-5.36-6.28-9.79l0.01-0.04l0.01-0.04c17.84-79.78,29.32-161.02,37.57-242.52
					c8.13-81.54,13.15-163.45,15.19-245.47c4.61-164.04,0.23-328.33-8.91-492.28c-4.72-81.98-10.48-163.91-17.5-245.74
					c-7.05-81.83-15.08-163.58-24.07-245.23c-8.98-81.65-18.92-163.2-29.8-244.62c-10.91-81.41-22.54-162.77-35.83-243.78
					l-0.01-0.03c-0.31-1.9,0.98-3.69,2.87-4S1529.33,796.56,1529.64,798.46z"/>
			</g>
			<g>
				
					<linearGradient id="SVGID_4_" gradientUnits="userSpaceOnUse" x1="2913.5979" y1="2268.5579" x2="1286.5381" y2="4324.5713" gradientTransform="matrix(0.9477 -0.3191 0.3191 0.9477 -564.2337 27.4959)">
					<stop  offset="0" style="stop-color:#A737D5"/>
					<stop  offset="1" style="stop-color:#EF497A"/>
				</linearGradient>
				<path class="st4" d="M3070.45,1098.97c-1.46-17.62-25.62-21.59-32.56-5.33c-67.1,157.21-255.97,563.93-490.74,762.19
					c-382.26,322.8-682.53,888.83-508.6,1225.04C2038.54,3080.87,3228.98,3018.84,3070.45,1098.97z"/>
				<path class="st5" d="M3008.58,1327.7c-1.12,5.45-2.43,9.66-3.65,14.34l-3.89,13.67l-8.07,27.21
					c-5.51,18.09-11.31,36.09-17.11,54.09c-11.72,35.95-23.89,71.75-36.39,107.44c-25.16,71.32-52.32,141.92-80.5,212.12
					c-28.06,70.25-58.19,139.68-89.81,208.43c-31.66,68.72-64.31,137.03-99.18,204.23c-69.51,134.49-146.61,265.23-232.6,390.03
					c-43.72,61.88-89.08,122.65-137.87,180.67c-49.26,57.58-100.95,113.14-156.58,164.53c-1.52,1.4-3.89,1.31-5.29-0.21
					c-1.36-1.47-1.28-3.78,0.11-5.19c105.87-107.36,199.17-226.18,283.04-351.15c42.17-62.35,81.92-126.32,120.15-191.18
					c38.24-64.88,73.7-131.35,108.96-197.91c69.95-133.47,132.54-270.73,191.69-409.42c29.41-69.42,57.38-139.47,84.19-209.97
					c13.48-35.22,26.63-70.57,39.34-106.08l18.65-53.4l9.07-26.77l4.38-13.42c1.36-4.4,2.91-9.19,3.92-12.94l0.22-0.83
					c0.53-1.98,2.57-3.15,4.54-2.62C3007.81,1323.89,3008.97,1325.8,3008.58,1327.7z"/>
			</g>
			<g>
				
					<linearGradient id="SVGID_5_" gradientUnits="userSpaceOnUse" x1="1443.7963" y1="2120.4753" x2="-153.8367" y2="4139.3042" gradientTransform="matrix(0.732 -0.6813 0.6813 0.732 -347.4515 346.3477)">
					<stop  offset="0" style="stop-color:#B37CFF"/>
					<stop  offset="1" style="stop-color:#F895E7"/>
				</linearGradient>
				<path class="st6" d="M2227.66,721.31c-8.43-15.17-31.66-8.95-31.28,8.41c3.59,167.81-0.79,608.11-130.6,880.49
					c-211.36,443.49-250.92,1071.41,40.74,1301.81C2106.52,2912.02,3146.44,2374.77,2227.66,721.31z"/>
				<path class="st5" d="M2264.94,950.97c1.21,5.35,1.74,9.64,2.54,14.32l2.06,13.8l3.8,27.61c2.4,18.42,4.49,36.86,6.6,55.31
					c4.07,36.91,7.68,73.86,10.96,110.85c6.38,73.99,10.65,148.15,13.86,222.36c3.34,74.21,4.49,148.52,4.02,222.82
					c-0.51,74.3-2.07,148.62-6.08,222.86c-7.75,148.46-23.84,296.64-50.29,443.09c-14.09,73.06-30.09,145.79-50.28,217.43
					c-20.79,71.45-44.57,142.07-73.57,210.55c-0.81,1.9-3,2.79-4.91,1.99c-1.85-0.78-2.72-2.91-2.04-4.77
					c51.21-138.91,86.57-282.97,111.01-428.7c12.49-72.84,22.16-146.16,30.1-219.66c7.95-73.52,12.76-147.33,17.39-221.14
					c8.58-147.71,9.02-295.83,5.84-443.84c-1.77-74.01-5.08-148-9.61-221.91c-2.19-36.96-4.72-73.91-7.7-110.82l-4.9-55.32
					l-2.71-27.62l-1.5-13.78c-0.56-4.48-1.11-9.4-1.72-13.15l-0.14-0.85c-0.33-2.02,1.04-3.92,3.06-4.25
					C2262.67,947.81,2264.51,949.07,2264.94,950.97z"/>
			</g>
		</g>
		<g>
			<g>
				<linearGradient id="SVGID_6_" gradientUnits="userSpaceOnUse" x1="2573.8003" y1="1883.1676" x2="1740.9066" y2="2847.3049">
					<stop  offset="0" style="stop-color:#53D8FF"/>
					<stop  offset="1" style="stop-color:#3840F7"/>
				</linearGradient>
				<polygon class="st7" points="2158.2,2523.19 3242.71,1915.41 1483.18,2339.09 				"/>
				<linearGradient id="SVGID_7_" gradientUnits="userSpaceOnUse" x1="3961.7991" y1="1623.6118" x2="1378.6893" y2="2524.4453">
					<stop  offset="0" style="stop-color:#53D8FF"/>
					<stop  offset="1" style="stop-color:#3840F7"/>
				</linearGradient>
				<polygon class="st8" points="2366.34,1486.77 2160.9,2983.52 1779.44,2926.76 2255.6,1486.77 				"/>
				<linearGradient id="SVGID_8_" gradientUnits="userSpaceOnUse" x1="2534.0188" y1="1558.7786" x2="2130.1909" y2="2366.4324">
					<stop  offset="0" style="stop-color:#53D8FF"/>
					<stop  offset="1" style="stop-color:#3840F7"/>
				</linearGradient>
				<polygon class="st9" points="2961.29,1620.99 2399.56,1315.12 2111.65,1486.77 				"/>
				<linearGradient id="SVGID_9_" gradientUnits="userSpaceOnUse" x1="2863.6899" y1="973.7085" x2="2454.8149" y2="2069.0896">
					<stop  offset="0" style="stop-color:#53D8FF"/>
					<stop  offset="1" style="stop-color:#3840F7"/>
				</linearGradient>
				<polygon class="st10" points="2299.9,1575.36 2366.34,1448.01 2961.29,1620.99 				"/>
				<linearGradient id="SVGID_10_" gradientUnits="userSpaceOnUse" x1="2190.2683" y1="1416.5255" x2="1416.2528" y2="5032.2808">
					<stop  offset="0" style="stop-color:#53D8FF"/>
					<stop  offset="1" style="stop-color:#3840F7"/>
				</linearGradient>
				<polygon class="st11" points="2026.02,3141.27 2366.34,1448.01 2316.72,1386.46 2111.65,1486.77 1779.44,2378.2 				"/>
				<linearGradient id="SVGID_11_" gradientUnits="userSpaceOnUse" x1="1610.6261" y1="3910.1367" x2="1610.6261" y2="1631.347">
					<stop  offset="0" style="stop-color:#53D8FF"/>
					<stop  offset="1" style="stop-color:#3840F7"/>
				</linearGradient>
				<polygon class="st12" points="1369.88,3003.44 2026.02,3141.27 1964.66,2624.4 1195.23,2400.59 				"/>
				<linearGradient id="SVGID_12_" gradientUnits="userSpaceOnUse" x1="762.8231" y1="743.5485" x2="1590.668" y2="2979.7405">
					<stop  offset="0" style="stop-color:#53D8FF"/>
					<stop  offset="1" style="stop-color:#3840F7"/>
				</linearGradient>
				<path class="st13" d="M1507.97,2256.56c0-16.66-729.89-1664.69-729.89-1664.69l435.23,1868.96L1507.97,2256.56z"/>
				<linearGradient id="SVGID_13_" gradientUnits="userSpaceOnUse" x1="1769.2177" y1="2062.0759" x2="1567.2937" y2="2560.1548">
					<stop  offset="0" style="stop-color:#53D8FF"/>
					<stop  offset="1" style="stop-color:#3840F7"/>
				</linearGradient>
				<polygon class="st14" points="1889.13,2317.57 1411.82,2201.44 1195.23,2433.5 1424.1,2484.89 1964.66,2624.4 				"/>
				<g>
					<g>
						<path class="st15" d="M924.29,2083.78c97.38-22.81,191.96-57.52,280.98-103.11c6.97-3.57,14.88-7.3,22.32-4.86
							c7.44,2.45,10.73,14.69,3.56,17.82c3.92-5.45,13.82-2.87,18.46,1.98c4.64,4.85,3.6,13.87-2.02,17.54
							c5.78-5.59,15.96,3.24,17.14,11.19c1.18,7.95-3.51,15.49-8.16,22.05c-80.06,113.12-210.57,189.08-348.48,202.82
							C913.95,2193.1,918.43,2139.9,924.29,2083.78z"/>
					</g>
					<g>
						<path class="st16" d="M1024.91,2091.88c-5.39-0.44-5.33-8.42-0.18-9.34c14.15-2.51,26.47-6.02,39.24-12.72
							c5.75-3.02,11.63,6.24,6.05,9.82C1056.86,2088.08,1040.67,2093.15,1024.91,2091.88z"/>
					</g>
					<g>
						<path class="st16" d="M1003.06,2134.9c11.97-5.14,24.94-8.41,37.43-12.05c7.55-2.2,9.4,9.98,1.88,12.13
							c-12,3.42-24.19,7.34-36.54,9.28C1000.39,2145.12,997.9,2137.12,1003.06,2134.9z"/>
					</g>
					<g>
						<path class="st16" d="M1080.52,2099.61c14.96-6.61,28.88-14.66,41.92-24.57c6.37-4.84,14.18,4.72,7.85,9.65
							c-13.73,10.7-28.78,19.21-45.17,25.13C1078.41,2112.25,1073.85,2102.56,1080.52,2099.61z"/>
					</g>
					<g class="st17">
						<path d="M1132.67,2042.17c-76.88,39.58-147.23,112.89-169.48,198.17c-18.17,4.03-36.56,7.04-55.1,8.89
							c5.86-56.12,10.34-109.32,16.2-165.44c97.38-22.81,191.96-57.52,280.98-103.11c6.97-3.57,14.88-7.3,22.32-4.86
							c6.21,2.05,9.51,10.91,6.25,15.6c-1.05,0.49-1.98,1.22-2.7,2.22c1.18-0.51,2.05-1.29,2.7-2.22c4.68-2.2,11.98,0.24,15.76,4.2
							c4.3,4.5,3.71,12.57-0.88,16.65c-0.4,0.24-0.78,0.54-1.14,0.89c0.36-0.35,0.75-0.65,1.14-0.89c5.89-3.59,14.89,4.62,16,12.08
							c1.18,7.95-3.51,15.49-8.16,22.05c-0.08,0.11-0.16,0.22-0.24,0.33C1216.85,2028.74,1172.35,2019.84,1132.67,2042.17z"/>
					</g>
					<g class="st18">
						<path d="M1127.14,2096.49c-59.17,23.11-122.93,75.69-141.37,138.24c-7.48,2.05-15.01,3.92-22.58,5.6
							c22.24-85.28,92.6-158.59,169.48-198.17c39.67-22.32,84.18-13.42,123.65,4.57c-13.76,19.4-29.02,37.69-45.53,54.77
							C1185.35,2088.62,1156.59,2084.71,1127.14,2096.49z"/>
					</g>
				</g>
				<linearGradient id="SVGID_14_" gradientUnits="userSpaceOnUse" x1="1298.0334" y1="2216.7156" x2="2036.1757" y2="1875.6898">
					<stop  offset="0" style="stop-color:#53D8FF"/>
					<stop  offset="1" style="stop-color:#3840F7"/>
				</linearGradient>
				<polygon class="st19" points="725.19,1765.7 1195.23,2433.5 1964.66,2624.4 				"/>
			</g>
		</g>
	</g>
</g>
<g id="Background">
	<g>
		<g>
			<g>
				<path class="st20" d="M369.32,2520.62c3.95,35.01,6.35,74.36,10.31,109.37c-13.85-0.54-26.26,4.74-35.54,13.02l-64.85-78
					C304.79,2544.85,335.32,2529.27,369.32,2520.62z"/>
			</g>
			<g class="st21">
				<path d="M369.32,2520.62c0.97,8.6,1.85,17.47,2.68,26.46c-15.88,8.05-30.38,18.84-42.86,32.61
					c-6.81,7.73-12.69,15.76-17.72,24.01l-32.17-38.7C304.79,2544.85,335.32,2529.27,369.32,2520.62z"/>
			</g>
		</g>
		<g>
			<g>
				<path class="st15" d="M761.25,2836.21c33.18-7.4,67.28-9.3,100.21-5.79c11.94,1.28,36.66,1.67,45.76,8.94
					c8.83,7.06,7.43,24.27,9.41,34.75c12.61,66.48,35.7,130.47,68.42,189.35c2.61,4.69,5.32,9.49,5.86,14.88
					c0.54,5.39-1.61,11.59-6.73,14.69c-5.12,3.1-13.06,1.3-14.04-4c4.49,4.36,2.33,14.01-3.47,17.71
					c-5.81,3.7-14.47,1.62-16.89-4.06c-1.33,7.61-8.5,13.63-16.67,15.1c-8.17,1.47-16.3-0.75-23.43-3.97
					c-21.4-9.66-36.25-27.89-49.08-46.36c-46.5-66.94-75.86-144.81-85.29-226.24L761.25,2836.21z"/>
			</g>
			<g class="st22">
				<path d="M970.16,3089.03c0.94,0.92,1.58,2.08,1.96,3.36C971.12,3091.51,970.41,3090.39,970.16,3089.03z"/>
			</g>
			<g class="st18">
				<path d="M961.92,3017.36c-8.83,8.08-16.99,17.09-23.58,28.57c-12.07,22.7-12.13,49.13-2.94,71.27
					c-0.75,0.22-1.51,0.44-2.29,0.58c-8.17,1.47-16.3-0.75-23.43-3.97c-1.94-0.87-3.81-1.84-5.64-2.84
					c-8.33-25.92-7.18-55.21,6.26-82.68c9.32-18.13,22.26-32.99,37.45-44.82C952.14,2994.9,956.87,3006.2,961.92,3017.36z"/>
			</g>
			<g class="st17">
				<path d="M947.75,2983.46c-15.19,11.84-28.13,26.7-37.45,44.82c-13.44,27.47-14.59,56.76-6.26,82.68
					c-16.05-8.83-28.26-22.56-38.85-37.07c0.28-23.58,6.9-46.9,22.42-68.17c14.42-19.27,31.9-34.66,51.68-45.58
					C941.94,2967.98,944.78,2975.75,947.75,2983.46z"/>
			</g>
			<g class="st22">
				<path d="M861.46,2830.42c11.94,1.28,36.66,1.67,45.76,8.94c8.83,7.06,7.43,24.27,9.41,34.75c5.54,29.23,13.12,57.99,22.64,86.04
					c-19.78,10.91-37.25,26.3-51.68,45.58c-15.52,21.26-22.13,44.59-22.42,68.17c-1.56-2.14-3.09-4.29-4.59-6.45
					c-46.5-66.94-75.86-144.81-85.29-226.24l-14.06-5C794.43,2828.81,828.53,2826.91,861.46,2830.42z"/>
			</g>
		</g>
		<g>
			<g>
				<path class="st20" d="M333.51,2615.87c0.16,5.43,0.57,10.81,1.13,16.18c3.3,29.76,12.89,58.25,30.51,82.49
					c17.99,24.81,42.18,42.74,69.51,56.12c37.59,18.4,81.11,28.17,122.69,35.3c10.3,1.76,20.65,3.45,31,5.02
					c51.26,7.84,103.19,13.13,154.78,12.96c39.36-0.11,78.52-3.39,117.01-11.14c8.15-1.64,16.27-3.49,24.36-5.55
					c36.18-9.18,73.04-23.77,96.63-52.7c27.86-34.17,32.02-81.6,30.98-125.7c-3.07-133.63-42.13-263.48-80.87-391.41
					c-7.74-2.19-15.49-4.28-23.21-6.28c-130.18-33.94-255.45-43.98-391.34-44.82c-10.79,63.37-44.44,120.29-79.29,174.3
					c-34.86,54.02-72.07,107.8-91.5,169.06c-4.43,13.95-7.79,28.42-9.92,43.08C333.89,2587.09,333.01,2601.55,333.51,2615.87z"/>
			</g>
			<g class="st17">
				<path d="M632.94,2592.31c-0.8-0.79-1.41-1.79-1.72-3.04C632.08,2590.15,632.63,2591.19,632.94,2592.31z"/>
			</g>
			<g class="st17">
				<path d="M609.81,2603.34c-0.25-0.41-0.48-0.83-0.67-1.28C609.42,2602.48,609.64,2602.91,609.81,2603.34z"/>
			</g>
			<g>
				<path class="st15" d="M708.69,2744.37c3.88,31.58,12.42,56.67,23.95,76.7c3.47,1.04,6.97,1.99,10.49,2.86
					c39.36-0.11,78.52-3.39,117.01-11.14c8.15-1.64,16.27-3.49,24.36-5.55c36.18-9.18,73.04-23.77,96.63-52.7
					c27.86-34.17,32.02-81.6,30.98-125.7c-3.07-133.63-42.13-263.48-80.87-391.41c-7.74-2.19-15.49-4.28-23.21-6.28
					c-23.21,4.49-44.9,13.29-59.72,29.27c-27.65,29.84-57.67-18.34-74.17,18.83c-17.81,40.15-47.2,160.7-53.64,205.36
					C708.57,2567.28,699.41,2668.79,708.69,2744.37z"/>
			</g>
			<g>
				<path class="st16" d="M975.73,2697.71c4.84-12.18,5.46-23.81,6.29-36.7c0.31-4.82,6.8-5.44,8.27-0.94
					c4.32,13.17,1.56,28.4-3.77,40.86C983.72,2707.45,973.02,2704.52,975.73,2697.71z"/>
			</g>
			<g>
				<path class="st16" d="M953.84,2606.23c0.7-4.02,6.42-3.12,7.42,0.16c3.56,11.65,2.26,25.12,0.97,37.04
					c-0.78,7.2-12.17,6.97-11.3-0.24C952.4,2630.96,951.72,2618.33,953.84,2606.23z"/>
			</g>
			<g>
				<path class="st16" d="M939.54,2747.8c4.52-13.55,7.91-27.05,9.38-41.3c0.59-5.77,9.01-5.74,9.1,0.19
					c0.22,15.11-2.2,30.23-7.95,44.25C947.44,2757.34,937.26,2754.64,939.54,2747.8z"/>
			</g>
			<g>
				<path class="st23" d="M395.7,2623.68c-1.94,12.96,0.12,24.43,2.26,37.16c0.8,4.77-5.37,6.85-7.84,2.81
					c-7.22-11.84-8.01-27.29-5.66-40.64C385.7,2616.02,396.79,2616.43,395.7,2623.68z"/>
			</g>
			<g>
				<path class="st23" d="M437.91,2707.74c0.23,4.08-5.54,4.51-7.26,1.54c-6.13-10.53-7.94-23.94-9.41-35.84
					c-0.89-7.19,10.26-9.56,11.06-2.35C433.66,2683.34,437.2,2695.48,437.91,2707.74z"/>
			</g>
			<g>
				<path class="st23" d="M419.49,2566.64c-1.3,14.23-1.53,28.14,0.3,42.35c0.74,5.75-7.46,7.64-8.9,1.89
					c-3.66-14.66-4.77-29.93-2.36-44.89C409.62,2559.16,420.15,2559.46,419.49,2566.64z"/>
			</g>
			<g class="st22">
				<path d="M437.4,2360.63c34.85-54.02,68.51-110.93,79.29-174.3c143.96,0.89,275.98,12.08,414.55,51.1
					c11.36,37.5,22.73,75.18,33.23,113.06c-173.23,3.52-345.43,33.42-508.02,102.73c-37.77,15.25-74.15,36.01-105.69,62.34
					C371.13,2460.09,405.25,2410.46,437.4,2360.63z"/>
			</g>
			<g class="st21">
				<path d="M335.98,2572.77c2.13-14.66,5.49-29.13,9.92-43.08c1.51-4.76,3.16-9.45,4.87-14.12c31.54-26.34,67.92-47.1,105.69-62.34
					c162.59-69.31,334.79-99.22,508.02-102.73c5.91,21.34,11.53,42.74,16.71,64.22c-150.43-5.06-306.1,26.38-432.17,116.3
					c-37.33,26.78-70.51,74.33-55.41,120.6c28.15,81.02,119.53,105.93,199.62,121.42c85.62,15.3,173.86,23.21,256.91,8.21
					c-19.83,12.29-42.87,20.22-65.64,26c-8.09,2.06-16.21,3.91-24.36,5.55c-88.96,17.9-181.43,12-271.78-1.82
					c-10.35-1.58-20.7-3.27-31-5.02c-41.58-7.13-85.09-16.9-122.69-35.3c-27.33-13.38-51.52-31.31-69.51-56.11
					c-17.61-24.25-27.23-52.74-30.51-82.49c-0.58-5.37-0.97-10.75-1.13-16.18C333.02,2601.54,333.91,2587.09,335.98,2572.77z"/>
			</g>
		</g>
		<g>
			<g>
				<path class="st15" d="M840.47,2222.72c86.71,49.84,179.51,89.07,275.67,116.56c7.53,2.15,15.86,4.83,19.62,11.7
					c3.76,6.87-2.19,18.06-9.57,15.45c6.59-1.3,12.06,7.34,12.13,14.05c0.07,6.71-6.84,12.59-13.45,11.43
					c8.04-0.13,9.45,13.26,4.88,19.88c-4.57,6.62-13.14,8.92-21.02,10.54c-135.74,27.96-282.95-5.68-393.07-89.82
					C758.26,2295.52,797.87,2259.71,840.47,2222.72z"/>
			</g>
			<g>
				<path class="st16" d="M908.45,2297.35c-3.64-4,1.86-9.79,6.25-6.94c12.05,7.83,23.44,13.68,37.36,17.51
					c6.26,1.72,4.24,12.5-2.28,11.31C934.38,2316.4,919.09,2309.04,908.45,2297.35z"/>
			</g>
			<g>
				<path class="st16" d="M863.1,2313.85c12.25,4.42,23.96,10.89,35.57,16.76c7.01,3.55,0.05,13.72-6.91,10.15
					c-11.1-5.69-22.69-11.16-33.03-18.17C854.18,2319.5,857.82,2311.95,863.1,2313.85z"/>
			</g>
			<g>
				<path class="st16" d="M943.79,2340.97c15.44,5.39,31.11,9.02,47.4,10.68c7.96,0.81,7.13,13.13-0.86,12.41
					c-17.34-1.56-34.15-5.62-50.16-12.49C933.62,2348.76,936.9,2338.57,943.79,2340.97z"/>
			</g>
			<g class="st17">
				<path d="M1021.12,2334.63c-83.19-23.59-184.65-18.08-259.13,29.02c-16.03-9.46-31.52-19.83-46.32-31.14
					c42.6-36.99,82.21-72.79,124.82-109.79c86.71,49.84,179.51,89.07,275.67,116.56c7.53,2.15,15.86,4.83,19.62,11.7
					c3.14,5.74-0.5,14.46-6.09,15.67c-1.11-0.36-2.28-0.46-3.49-0.22c1.22,0.43,2.38,0.46,3.49,0.22c4.93,1.59,8.59,8.35,8.65,13.83
					c0.07,6.23-5.87,11.72-12.01,11.57c-0.45-0.09-0.93-0.14-1.44-0.13c0.51-0.01,0.99,0.04,1.44,0.13
					c6.75,1.4,7.72,13.54,3.44,19.75c-4.57,6.62-13.14,8.91-21.02,10.54c-0.13,0.03-0.27,0.05-0.4,0.08
					C1091.78,2382.31,1065.34,2345.42,1021.12,2334.63z"/>
			</g>
			<g class="st18">
				<path d="M979.98,2370.53c-59.01-23.53-141.49-28.66-197.67,4.44c-6.86-3.61-13.64-7.38-20.32-11.33
					c74.49-47.1,175.94-52.61,259.13-29.02c44.22,10.79,70.66,47.68,87.21,87.78c-23.3,4.78-46.94,7.71-70.67,8.91
					C1027.87,2404.54,1009.54,2382.04,979.98,2370.53z"/>
			</g>
		</g>
		<g>
			<g>
				<g>
					<path class="st24" d="M439.94,1517.43c-21.33,29.49-40.93,59.64-58.85,90.44c-46.39,79.42-82.03,163.21-109.33,251.76
						c-6.82,21.99-13.08,44.29-18.88,66.87c0.66-2.56-49.73-39.7-54.27-44.98c-76.69-89.16-127.82-173.56-152.62-242.09
						c-9.87-27.28-44.84-116.93,1.53-129.28c62.1-16.54,134.04-17.64,197.82-15.65C377.69,1498.64,437.22,1521.21,439.94,1517.43z"
						/>
				</g>
				<g>
					<path class="st25" d="M381.09,1607.87c-46.39,79.42-82.03,163.21-109.33,251.76c-67.5-75.85-143.35-187.54-160.38-229.11
						c-4.01-9.82-8.08-20.54-5.28-30.78c2.72-9.91,11.58-17.23,21.28-20.67c9.7-3.46,20.19-3.64,30.49-3.55
						C233.34,1576.25,307.64,1589.77,381.09,1607.87z"/>
				</g>
				<g class="st22">
					<path d="M439.94,1517.43c-4.36,6.02-8.65,12.08-12.83,18.16c-28.01-5.8-82.03-16.12-166.45-18.75
						c-62.17-1.95-132.3-0.87-192.82,15.25c-45.21,12.02-11.13,99.41-1.5,126.01c24.17,66.79,74.02,149.09,148.78,235.99
						c2.8,3.25,23.54,18.97,38.2,30.69l-0.45,1.73c0.66-2.56-49.73-39.7-54.27-44.98c-76.69-89.16-127.82-173.56-152.62-242.09
						c-9.87-27.28-44.84-116.93,1.53-129.28c62.1-16.54,134.04-17.64,197.82-15.65C377.69,1498.64,437.22,1521.21,439.94,1517.43z"
						/>
				</g>
				<g class="st22">
					<path d="M381.09,1607.87c-22.69-5.59-45.47-10.75-68.33-15.22c-17.75,43.7-45.9,77.58-100.15,79.85
						c-30.25,2.5-60.67-4.38-88.64-16.79c28.74,51.53,91.19,140.32,147.8,203.93C299.06,1771.09,334.7,1687.29,381.09,1607.87z"/>
				</g>
			</g>
			<g>
				<g>
					<path class="st24" d="M881.86,1568.19c-22.02-12.71-44.15-23.98-66.4-33.88c-57.41-25.64-115.73-42.37-175.6-52.01
						c-14.87-2.43-29.85-4.38-44.92-5.93c1.71,0.18,16.33-43.78,18.86-48c42.62-71.16,86.6-121.86,125.15-150.06
						c15.35-11.22,65.34-50.07,80.91-15.68c20.85,46.04,33.73,101.74,43.31,151.5C883.03,1517.42,879.04,1566.57,881.86,1568.19z"/>
				</g>
				<g>
					<path class="st25" d="M815.46,1534.31c-57.41-25.64-115.73-42.37-175.6-52.01c35.87-62.3,92.69-135.75,115.73-154.39
						c5.45-4.39,11.44-8.96,18.3-8.11c6.64,0.82,12.72,6.74,16.5,13.82c3.8,7.08,5.7,15.2,7.39,23.2
						C810.14,1415.5,814.3,1474.94,815.46,1534.31z"/>
				</g>
				<g class="st22">
					<path d="M881.86,1568.19c-4.49-2.6-9-5.14-13.5-7.59c-1.13-22.5-3.85-65.77-16.53-131.65c-9.32-48.51-21.89-102.8-42.21-147.68
						c-15.17-33.52-63.91,4.33-78.87,15.28c-37.57,27.48-80.46,76.91-121.99,146.28c-1.55,2.6-7.84,20.75-12.67,33.66l-1.16-0.12
						c1.71,0.18,16.33-43.78,18.86-48c42.62-71.16,86.6-121.86,125.15-150.06c15.35-11.22,65.34-50.07,80.91-15.68
						c20.85,46.04,33.73,101.74,43.31,151.5C883.03,1517.42,879.04,1566.57,881.86,1568.19z"/>
				</g>
				<g class="st22">
					<path d="M815.46,1534.31c-0.36-18.34-1.01-36.69-2.09-55.03c-30.27-8.08-56.18-25.5-66.8-67.32c-6.69-23.15-7.56-47.66-4.56-71
						c-27.27,29.03-72.07,89.1-102.16,141.34C699.73,1491.94,758.05,1508.67,815.46,1534.31z"/>
				</g>
			</g>
			<g>
				<path class="st20" d="M256.64,2340.02c16.39,19.06,41.99,24.43,65.67,27.83c9.1,1.29,18.18,2.47,27.28,3.52
					c63.24,7.26,126.8,8.26,189.76,3.34c20.35-1.59,40.62-3.81,60.78-6.64c68.13-9.49,135.2-25.94,199.99-48.9
					c67.14-23.78,131.84-54.56,192.81-91.89c29.25-17.9,53.96-36.01,74.73-54.18c70.13-61.27,95.6-122.91,99.91-177.47
					c3.38-42.5-6.06-80.7-17.21-111.05c-3.83-10.51-7.88-20.06-11.68-28.53c-22.48-50.21-87.72-185.5-166.54-262.47
					c-70.5-68.84-148.95-129.89-242.4-149.77c-61.74-13.13-125.36-9.12-184.84,8.54c-50.29,14.9-97.65,39.59-138.48,71.96
					c-27.6,21.89-52.77,46.9-74.78,74.18c-55.94,69.37-87.62,149.83-103.83,235.46c-22.99,121.59-14.79,253.66-0.33,379.43
					c2.39,20.68,4.94,41.19,7.53,61.45C237.98,2297.89,241.63,2322.61,256.64,2340.02z"/>
			</g>
			<g>
				<path class="st24" d="M600.13,2368.08c68.13-9.49,135.2-25.94,199.99-48.9c5.27-71.35,7.14-144.46,0.58-220.84
					c-2.65-30.89-8.13-66.16-25.34-89.92c-14.29-19.76-33.4-25.84-48.32-21.13c-14.93,4.76-26.41,18.65-36.78,33.55
					C632.29,2104.36,600.33,2228.85,600.13,2368.08z"/>
			</g>
			<g>
				<path class="st26" d="M809.71,1486.72c10.08,5.1,19.92,10.66,29.77,16.18c6.95,3.89-0.51,13.95-7.4,10
					c-9.33-5.35-18.69-10.68-27.79-16.43C798.95,1493.1,804,1483.83,809.71,1486.72z"/>
			</g>
			<g>
				<path class="st26" d="M699.64,1482.83c14.41,4.16,28.36,11.58,41.99,17.79c7.4,3.37,2.76,15.15-4.66,11.76
					c-14.1-6.43-29.2-12.28-42.23-20.73C689.57,1488.3,694.47,1481.33,699.64,1482.83z"/>
			</g>
			<g>
				<path class="st26" d="M816.44,1562.93c15.31,9.04,29.87,19.55,44.48,29.66c6.57,4.54-0.83,14.48-7.37,9.96
					c-14.6-10.1-29.55-20-43.39-31.14C804.77,1567.07,810.69,1559.53,816.44,1562.93z"/>
			</g>
			<g>
				<path class="st26" d="M915.39,1572.67c12.15,7.96,22.72,19.5,33.33,29.4c5.68,5.3-1.48,15.16-7.27,9.83
					c-11.02-10.15-23.82-20.21-32.98-32.11C904.94,1575.19,910.73,1569.61,915.39,1572.67z"/>
			</g>
			<g>
				<path class="st26" d="M843.48,1640.74c14.22,5.89,27.35,17.01,40.01,25.66c6.62,4.53-0.81,14.51-7.4,10
					c-12.71-8.68-27.62-16.87-38.33-28C834.25,1644.76,839.19,1638.96,843.48,1640.74z"/>
			</g>
			<g>
				<path class="st26" d="M940.9,1639.72c14.39,11.35,27.75,24.21,41.03,36.81c5.58,5.3-1.56,15.02-7.28,9.69
					c-13.76-12.82-27.84-25.75-40.39-39.78C930.66,1642.41,936.72,1636.43,940.9,1639.72z"/>
			</g>
			<g>
				<path class="st26" d="M936.34,1703.93c11.5,7.76,22.32,16.07,33.06,24.86c5.73,4.69-1.14,13.99-6.86,9.26
					c-11.03-9.11-21.53-18.42-31.67-28.5C927.58,1706.28,932.82,1701.56,936.34,1703.93z"/>
			</g>
			<g>
				<path class="st26" d="M993.9,1728.13c7.82,9.04,15.44,18.25,22.97,27.53c4.85,5.97-3.87,14.24-8.74,8.24
					c-7.55-9.3-15.01-18.67-22.27-28.19C981.65,1730.16,989.17,1722.66,993.9,1728.13z"/>
			</g>
			<g>
				<path class="st26" d="M722.68,1564.55c12.22,8.3,28.54,16.7,37.95,28.2c2.82,3.45-1.09,7.8-4.92,6.58
					c-7.13-2.28-13.42-7.23-19.65-11.31c-6.9-4.52-13.77-9.1-20.59-13.73C709.01,1569.9,716.25,1560.18,722.68,1564.55z"/>
			</g>
			<g>
				<path class="st26" d="M606.95,1522.15c16.56,2.67,33.17,8.5,46.86,18.36c4.88,3.52,0.32,12.43-5.27,9.48
					c-13.85-7.32-27.54-13.02-43.08-15.65C597.71,1533.02,599.12,1520.89,606.95,1522.15z"/>
			</g>
			<g class="st18">
				<path d="M325.27,2026.28c166.71,156.14,409.44,167.14,611.95,103.65c83.92-25.26,165.07-72.07,230.36-134.28
					c3.38-42.5-6.06-80.7-17.21-111.05c-77.12,69.68-172.88,119.14-275.63,139.31c-173.79,31.94-356.83-93.81-406.74-259.64
					c-29.52-98.09-1.12-198.35,55.36-281.56c6.74-10.14,13.94-20.32,21.55-30.33c-50.29,14.9-97.65,39.59-138.48,71.96
					c-27.6,21.89-52.77,46.9-74.78,74.18c-55.94,69.37-87.62,149.83-103.83,235.46C238,1905.1,269.3,1972.9,325.27,2026.28z"/>
			</g>
			<g class="st17">
				<path d="M227.5,2213.39c262.89,136.16,577.64,65.78,840.18-40.28c70.13-61.27,95.6-122.91,99.91-177.47
					c-65.29,62.21-146.44,109.02-230.36,134.28c-202.51,63.5-445.24,52.49-611.95-103.65c-55.96-53.38-87.26-121.18-97.44-192.32
					C204.83,1955.55,213.03,2087.62,227.5,2213.39z"/>
			</g>
			<g class="st22">
				<path d="M256.64,2340.02c16.39,19.06,41.99,24.43,65.67,27.83c9.1,1.29,18.18,2.47,27.28,3.52
					c63.24,7.26,126.8,8.26,189.76,3.34c160.1-12.54,316.3-63.39,453.59-147.42c29.25-17.9,53.96-36.01,74.73-54.18
					c-262.53,106.06-577.28,176.44-840.18,40.28c2.39,20.68,4.94,41.19,7.53,61.45C237.98,2297.89,241.63,2322.61,256.64,2340.02z"
					/>
			</g>
			<g class="st21">
				<path class="st27" d="M698.38,1455.44c29.81,1.97,58.85,10.49,86.64,21.45c39.98,15.78,78.13,36.86,110.85,64.73
					c32.72,27.87,59.92,62.72,76.26,102.48c4.9,11.93,8.75,25.79,3.11,37.39c-6.06,12.45-21.57,17.93-35.33,16.39
					c-13.76-1.54-26.19-8.62-38.11-15.67c-93.99-55.58-183.51-118.34-272.91-181.03c-16.49-11.56-22.34-27.45-1.01-35.88
					C650.1,1456.53,674.66,1453.88,698.38,1455.44z"/>
			</g>
			<g>
				<g>
					<path class="st24" d="M826.61,1751.7c-2,8.15-3.03,16.68-1.52,24.94c1.51,8.25,5.79,16.23,12.72,20.95
						c8.86,6.03,20.95,5.89,30.73,1.52c9.78-4.37,17.5-12.44,23.52-21.3c9.8-14.44,15.72-31.48,16.97-48.89
						c1.44-20.07-13.38-51.49-38.12-39.78C848.35,1699.8,832.28,1728.56,826.61,1751.7z"/>
				</g>
				<g>
					<path class="st28" d="M870.9,1689.13c-0.12,0.06-0.24,0.13-0.36,0.19c9.19,7.67,16.07,19.67,19.04,31.34
						c7.38,29.02-2.29,61.87-24.1,79.61c1.04-0.35,2.07-0.72,3.06-1.17c9.78-4.37,17.5-12.44,23.52-21.3
						c9.8-14.44,15.72-31.48,16.97-48.89C910.46,1708.84,895.65,1677.43,870.9,1689.13z"/>
				</g>
			</g>
			<g>
				<g>
					<path class="st24" d="M1063.54,1639.38c6.32,5.18,12.1,11.22,15.75,18.53c3.65,7.31,4.98,16.02,2.33,23.75
						c-3.38,9.87-12.88,16.82-23.05,19.14c-10.17,2.31-20.89,0.53-30.76-2.85c-16.07-5.52-30.63-15.34-41.77-28.16
						c-12.84-14.79-19.66-47.91,6.45-53.25C1016.28,1611.67,1045.6,1624.67,1063.54,1639.38z"/>
				</g>
				<g>
					<path class="st28" d="M992.49,1616.53c0.13-0.03,0.27-0.04,0.4-0.06c-2.68,11.34-1.03,24.71,3.48,35.53
						c11.2,26.91,37.92,46.85,65.27,47.92c-1.01,0.33-2.03,0.64-3.06,0.88c-10.17,2.31-20.89,0.53-30.76-2.85
						c-16.07-5.52-30.63-15.34-41.77-28.16C973.2,1654.99,966.38,1621.87,992.49,1616.53z"/>
				</g>
			</g>
			<g>
				<path class="st24" d="M1095.34,1791.06c0,0,59.56,6.58,98.06,97.89c38.51,91.31-37.3,246.43-126.27,268.31
					C978.16,2179.14,935.88,1761.88,1095.34,1791.06z"/>
			</g>
			<g class="st29">
				<path class="st28" d="M1030.62,1810.67c16.22-16.58,37.54-24.58,64.71-19.61c0,0,18.38,2.05,41.31,19.5
					c-1.35,5.39-3.47,10.14-7.15,13.61c-65.74,60.57-97.98,168.63-11.02,226.42c16.97,11.97,34.1,16.07,51.01,15.06
					c-6.76,12.05-14.32,23.48-22.56,33.94c-26.52,5.91-55.71,3.6-71.55-16.83C1017.67,2009.74,998.45,1899.37,1030.62,1810.67z"/>
			</g>
			<g>
				<path class="st28" d="M1030.62,1810.67c-32.17,88.7-12.95,199.07,44.76,272.09c15.84,20.43,45.03,22.75,71.55,16.83
					c-22.79,28.94-50.59,50.49-79.8,57.67C993.33,2175.41,951.65,1891.36,1030.62,1810.67z"/>
			</g>
			<g>
				<path class="st25" d="M1049.82,1969.59c4.3,16.85,19.35,29.06,37.37,24.65c12.58-3.08,20.74-14.34,31.06-21.3
					c3.67-2.47,7.49-4.33,11.51-5.42c-2.24-23.05-5.18-45.74-10.94-68.24c-6.18-24.12-15.07-47.22-24.29-70.3
					c-1.05-2.63,2.55-4.22,3.94-1.82c23.96,41.2,37.28,91.71,39.35,139.3c1.11,0.01,2.24,0.06,3.39,0.19
					c12.21,1.41,27.7,11.18,37.06-1.76c1.27-1.76,4.6-0.76,4.15,1.58c-2.06,10.9-13.39,14.01-23.25,12.86
					c-10.73-1.24-20.03-7.19-30.9-2.35c-7.64,3.4-13.5,10.04-19.91,15.21c-11.44,9.22-24.92,14.37-39.67,10.05
					c-14.42-4.23-24.75-16.59-27.23-31.26C1040.55,1965.53,1048.5,1964.38,1049.82,1969.59z"/>
			</g>
			<g>
				<g>
					<path class="st25" d="M1077.53,1795.09c11.44-5.23,23.97-7.86,36.65-5.08c9.08,1.99,17.72,7.87,17.84,16.13
						c0.3,20.93-36.08,34.78-55.5,36.48c-14.88,1.3-42.27-2.93-32.32-21.52C1050.14,1810,1065.42,1800.62,1077.53,1795.09z"/>
				</g>
				<g class="st18">
					<path d="M1073.41,1809.04c18.91,8.76,41.59,2.66,52.63-13.61c0.75,0.59,1.46,1.21,2.09,1.88c-2,4.44-4.63,8.72-7.88,12.69
						c-13.81,14.14-31.9,17.37-49.35,11.16c-7.18-2.12-13.13-5.84-17.96-10.64c3.29-2.95,7.06-5.66,10.94-8.1
						C1066.63,1804.95,1069.75,1807.2,1073.41,1809.04z"/>
				</g>
				<g class="st17">
					<path d="M1044.2,1821.09c2.01-3.75,5.09-7.3,8.75-10.57c4.83,4.79,10.78,8.52,17.96,10.64c17.45,6.22,35.54,2.98,49.35-11.16
						c3.25-3.97,5.88-8.25,7.88-12.69c2.34,2.48,3.83,5.45,3.88,8.82c0.03,2.26-0.39,4.43-1.14,6.52
						c-19.04,18.97-48.64,26.64-77.24,16.27c-3.75-1.51-7.24-3.38-10.46-5.57C1043.45,1822.62,1043.78,1821.87,1044.2,1821.09z"/>
				</g>
				<g class="st22">
					<path d="M1043.17,1823.35c3.22,2.19,6.71,4.07,10.46,5.57c28.6,10.37,58.21,2.71,77.24-16.27
						c-6.24,17.25-37.04,28.45-54.36,29.97C1062.26,1843.87,1036.55,1840.03,1043.17,1823.35z"/>
				</g>
				<g class="st22">
					<path class="st30" d="M1109.06,1791.07c1.39,0.07,2.81,0.19,4.07,0.76c1.27,0.58,2.36,1.7,2.55,3.08
						c0.26,1.95-1.31,3.66-2.93,4.79c-3.47,2.42-7.64,3.62-11.77,4.56c-8.16,1.86-16.73,2.88-24.88,0.96
						c-1.07-0.25-2.23-0.62-2.81-1.55c-0.53-0.84-0.43-1.95-0.01-2.85c1.13-2.41,4.42-3.32,6.69-4.33c2.99-1.34,6.09-2.43,9.26-3.28
						C1095.67,1791.47,1102.39,1790.75,1109.06,1791.07z"/>
				</g>
			</g>
			<g>
				<g>
					<path class="st25" d="M970.56,1825.68c-0.93,3.96-4.01,7.24-8.1,7.94c-9.72,1.65-16.82-11.64-19.43-19.15
						c-2.46-7.07,0.05-15.36,8.94-14.65c7.77,0.63,13.8,8.29,16.96,14.76C970.6,1818.01,971.43,1822,970.56,1825.68z"/>
				</g>
				<g class="st22">
					<path d="M956.19,1807.75c-1.68-2.57-3.25-5.26-4.87-7.93c0.21,0.01,0.42-0.01,0.64,0.01c7.77,0.63,13.8,8.29,16.96,14.76
						c1.67,3.42,2.5,7.42,1.63,11.09c-0.93,3.96-4.01,7.24-8.1,7.94c-1.36,0.23-2.67,0.14-3.92-0.15
						C960.99,1825.27,960.34,1816.44,956.19,1807.75z"/>
				</g>
			</g>
			<g>
				<g>
					<path class="st25" d="M1057.7,1774.03c-0.93,3.96-4.01,7.24-8.1,7.94c-9.72,1.65-16.82-11.64-19.43-19.15
						c-2.46-7.07,0.05-15.36,8.94-14.65c7.78,0.63,13.8,8.29,16.96,14.76C1057.74,1766.36,1058.56,1770.35,1057.7,1774.03z"/>
				</g>
				<g class="st22">
					<path d="M1043.33,1756.09c-1.68-2.57-3.25-5.26-4.87-7.93c0.21,0.01,0.42-0.01,0.64,0.01c7.77,0.63,13.8,8.29,16.96,14.76
						c1.67,3.42,2.5,7.42,1.63,11.09c-0.93,3.96-4.01,7.24-8.1,7.94c-1.36,0.23-2.67,0.14-3.92-0.15
						C1048.13,1773.62,1047.48,1764.79,1043.33,1756.09z"/>
				</g>
			</g>
		</g>
		<g>
			<g>
				<path class="st15" d="M562.18,2793.15c0.03,0.58,0.07,1.18,0.1,1.76c0.14,2.31,0.29,4.6,0.45,6.9
					c0.35,4.94,0.77,9.86,1.24,14.81c0.42,4.23,0.87,8.49,1.39,12.72c0.25,2.17,0.52,4.36,0.8,6.54c0.03,0.14,0.06,0.27,0.06,0.4
					c0.31,2.25,0.63,4.51,0.94,6.76c0.35,2.28,0.67,4.57,1.04,6.84c0.35,2.28,0.72,4.55,1.11,6.82c0.03,0.18,0.07,0.35,0.1,0.53
					c0.79,4.72,1.63,9.43,2.56,14.11c0.48,2.43,0.97,4.88,1.47,7.29c1.03,4.85,2.11,9.71,3.24,14.54c0.07,0.24,0.13,0.52,0.18,0.77
					c1.67,6.99,3.44,13.95,5.36,20.87c1.35,4.78,2.71,9.54,4.18,14.3c0.71,2.39,1.45,4.74,2.21,7.1c0.75,2.37,1.53,4.73,2.3,7.09
					c1.55,4.72,3.18,9.41,4.88,14.08c3.21,8.93,6.64,17.78,10.33,26.52c29.28,70.17,72.39,134.5,127.52,186.99
					c4.93,4.68,10.44,9.51,17.21,10.23c6.78,0.68,14.46-5.1,12.92-11.75c3.72,6.24,12.16,9.11,18.94,6.64c0.07,0,0.14-0.03,0.2-0.05
					c0.34-0.13,0.68-0.27,1-0.41c6.97-3.31,10.64-12.24,8.01-19.47c0.05,0.06,0.11,0.1,0.16,0.16c1.63,1.58,3.49,2.43,5.37,2.71
					c0.26,0.05,0.55,0.08,0.85,0.09c0.72,0.09,1.44,0.03,2.13-0.09c0.41-0.09,0.84-0.18,1.27-0.3c1.61-0.48,3.1-1.36,4.32-2.52
					c0.34-0.33,0.67-0.68,0.97-1.05c1.97-2.47,2.87-5.85,1.7-9.49c-0.98-3.02-1.95-6.07-2.89-9.11c-0.25-0.84-0.53-1.67-0.76-2.52
					c-0.95-3.06-1.86-6.1-2.76-9.16c-1.03-3.47-2.03-6.97-3-10.47c-0.81-2.89-1.6-5.81-2.39-8.71c-0.28-1.03-0.53-2.06-0.81-3.09
					c-0.64-2.46-1.28-4.93-1.9-7.4c-0.24-0.99-0.5-1.97-0.75-2.99c-0.76-3.08-1.51-6.14-2.23-9.24c-0.03-0.14-0.08-0.27-0.1-0.38
					c-0.75-3.18-1.48-6.38-2.16-9.59c-0.92-4.06-1.79-8.13-2.61-12.2c-0.64-3.1-1.26-6.19-1.85-9.29c-0.1-0.45-0.18-0.89-0.26-1.35
					c-0.62-3.16-1.18-6.32-1.75-9.48c-0.06-0.22-0.1-0.45-0.12-0.69c-0.55-2.99-1.05-5.98-1.56-8.98
					c-0.77-4.56-1.47-9.14-2.15-13.71c-0.47-3.1-0.92-6.2-1.32-9.32c-0.34-2.38-0.66-4.8-0.96-7.2c-0.3-2.4-0.59-4.8-0.89-7.2
					c-0.3-2.4-0.56-4.79-0.81-7.2c-0.36-3.26-0.71-6.55-1.01-9.84c-0.1-0.77-0.19-1.55-0.22-2.33c-0.27-2.51-0.48-5.02-0.7-7.54
					c-0.13-1.53-0.26-3.06-0.35-4.57c-0.06-0.59-0.11-1.17-0.14-1.75c-0.17-2.15-0.33-4.31-0.48-6.47
					c-0.26-3.62-0.48-7.24-0.66-10.86c-0.17-2.89-0.31-5.77-0.44-8.65c-0.2-4.63-0.39-9.27-0.49-13.89
					c-0.07-2.91-0.15-5.81-0.2-8.73c-0.13-8.11-0.14-16.22-0.04-24.3c0.06-2.88,0.1-5.76,0.18-8.65c0.02-0.97,0.05-1.89,0.08-2.84
					c0.06-2.51,0.14-5.01,0.25-7.52c0.23-6.6,0.56-13.22,0.97-19.81c0.1-1.52,0.2-3.04,0.3-4.53c0.04-0.73,0.09-1.47,0.15-2.2
					c0.16-2.31,0.32-4.61,0.51-6.91c0.31-3.89,0.63-7.79,1-11.66c0.34-3.56,0.68-7.1,1.08-10.63c0.36-3.37,0.75-6.73,1.14-10.09
					c0.02-0.26,0.05-0.49,0.09-0.72c6.21-51.45-26.14-99.58-75.99-113.71c-0.86-0.25-1.72-0.49-2.58-0.74
					C627.46,2667.31,558.84,2721.04,562.18,2793.15z"/>
			</g>
			<g class="st18">
				<path d="M799.18,3159.04c-2.46,0.1-4.99-0.71-7.14-2.8c-0.06-0.05-0.11-0.11-0.17-0.17c2.63,7.24-1.04,16.18-8,19.47
					c-0.39,0.18-0.79,0.34-1.19,0.49c-24.7-83.07-65.55-163.2-155.58-189.2c-7.39-2.17-14.37-3.05-21.02-2.92
					c-17.04-40.81-29.43-83.6-36.79-127.2C685.68,2901.42,754.61,3036.1,799.18,3159.04z"/>
			</g>
			<g class="st17">
				<path d="M562.18,2793.15c0.03,0.58,0.07,1.18,0.1,1.76c0.14,2.31,0.29,4.6,0.45,6.9c0.35,4.94,0.77,9.86,1.24,14.81
					c0.42,4.23,0.87,8.49,1.39,12.72c0.25,2.17,0.52,4.36,0.8,6.54c0.03,0.14,0.06,0.27,0.06,0.4c0.31,2.25,0.63,4.51,0.94,6.76
					c0.35,2.28,0.67,4.57,1.04,6.84c0.35,2.28,0.72,4.55,1.11,6.82c116.38,44.71,185.32,179.4,229.88,302.35
					c0.39-0.01,0.79-0.06,1.22-0.1c0.41-0.09,0.84-0.18,1.27-0.3c1.6-0.5,3.09-1.38,4.32-2.52c0.34-0.33,0.67-0.68,0.97-1.05
					c1.97-2.47,2.87-5.85,1.7-9.49c-0.98-3.02-1.95-6.07-2.89-9.11c-0.25-0.84-0.53-1.67-0.76-2.52c-0.97-3.05-1.86-6.1-2.76-9.16
					c-1.03-3.47-2.03-6.97-3-10.47c-0.81-2.89-1.6-5.81-2.39-8.71c-0.28-1.03-0.53-2.06-0.81-3.09c-0.64-2.46-1.28-4.93-1.9-7.4
					c-0.24-0.99-0.5-1.97-0.75-2.99c-0.76-3.08-1.51-6.14-2.23-9.24c-0.03-0.14-0.08-0.27-0.1-0.38c-0.75-3.18-1.48-6.38-2.16-9.59
					c-0.92-4.06-1.79-8.13-2.61-12.2c-0.64-3.1-1.26-6.19-1.85-9.29c-0.1-0.45-0.18-0.89-0.26-1.35c-0.61-3.14-1.21-6.31-1.75-9.48
					c-0.06-0.22-0.1-0.45-0.12-0.69c-0.55-2.99-1.05-5.98-1.56-8.98c-0.77-4.56-1.47-9.14-2.15-13.71c-0.47-3.1-0.92-6.2-1.32-9.32
					c-0.34-2.38-0.66-4.8-0.96-7.2c-0.32-2.39-0.61-4.79-0.89-7.2c-0.3-2.4-0.56-4.79-0.81-7.2c-0.36-3.26-0.71-6.55-1.01-9.84
					c-0.1-0.77-0.19-1.55-0.22-2.33c-0.27-2.51-0.48-5.02-0.7-7.54c-0.13-1.53-0.26-3.06-0.35-4.57c-0.06-0.59-0.11-1.17-0.14-1.75
					c-0.17-2.15-0.33-4.31-0.48-6.47c-0.26-3.62-0.48-7.24-0.66-10.86c-0.17-2.89-0.31-5.77-0.44-8.65
					c-0.2-4.63-0.39-9.27-0.49-13.89c-0.07-2.91-0.15-5.81-0.2-8.73c-0.13-8.11-0.14-16.22-0.04-24.3c0.06-2.88,0.1-5.76,0.18-8.65
					c0.02-0.97,0.05-1.89,0.08-2.84c0.06-2.51,0.14-5.01,0.25-7.52c0.23-6.6,0.56-13.22,0.97-19.81c0.1-1.52,0.2-3.04,0.3-4.53
					c0.04-0.73,0.09-1.47,0.15-2.2c0.16-2.31,0.32-4.61,0.51-6.91c0.31-3.89,0.63-7.79,1-11.66c0.34-3.56,0.68-7.1,1.08-10.63
					c0.36-3.37,0.73-6.72,1.14-10.09c0.02-0.26,0.05-0.49,0.09-0.72c6.21-51.45-26.14-99.58-75.99-113.71
					c-0.86-0.25-1.72-0.49-2.58-0.74C627.46,2667.31,558.84,2721.04,562.18,2793.15z"/>
			</g>
		</g>
		<g>
			<g>
				<path class="st20" d="M208.14,2667.31c3.25-12.43,7.98-24.64,14.04-36.4c13.04-25.34,32.28-48.6,56.24-67.49l59.86,72
					c-0.31,0.28-0.62,0.55-0.93,0.83c-10.3,9.66-16.07,23.4-14.37,36.31c0.82,6.33,2.95,12.35,6.07,18.06
					c7.91,14.53,22.22,26.96,38.01,36.83c1.3,0.81,2.61,1.6,3.93,2.38c20.25,11.95,43.06,20.84,67.02,26.48
					c35.83,8.43,74.25,9.61,110.59,2.85c4.25-0.78,8.46-1.67,12.64-2.68c20.62-4.94,39.94-12.25,58.61-20.82
					c36.38-16.65,70.19-38.06,105.89-56.03c2-1.01,4.02-2.02,6.05-3c19.86-9.72,40.64-18.42,62.05-25.73
					c30.66-10.47,62.65-18.08,95.24-21.71c18.44-2.06,37.08-2.84,55.77-2.15c8.05,0.3,16.11,0.91,24.13,1.82
					c68.84,7.76,134.98,37.58,171.11,86.03c27.97,37.52,36.01,83.55,27.08,127.1v0.01c-2.04,9.99-4.98,19.84-8.77,29.44
					c-7.81,19.76-18.97,38.43-32.73,55.8c-22.04,27.88-50.75,52.43-82.92,72.74c-11.3,7.15-23.04,13.78-35.15,19.92
					c-31.18,15.83-64.79,28.31-99.78,37.51c-54.66,14.37-112.7,20.72-170.1,19.16c-20.69-0.56-41.29-2.12-61.72-4.58
					c-47.61-5.72-94.31-16.4-139.16-31.11c-36.78-12.05-72.3-26.8-106.05-43.72c-42.34-21.23-82.44-46.22-117-75.35
					c-22.36-18.83-42.4-39.4-59.24-61.83c-3.56-4.74-6.97-9.57-10.21-14.49c-25.59-38.68-41.1-82.27-42.19-125.92
					C201.74,2702.07,203.63,2684.54,208.14,2667.31z"/>
			</g>
			<g>
				<path class="st15" d="M889.07,2629.2c10.25,61.57,35.25,122.67,76.67,173.32c41.34,50.53,96.46,93.34,159.92,124.74
					c13.76-17.37,24.92-36.04,32.73-55.8c3.79-9.6,6.74-19.45,8.77-29.44V2842c-92.25-50.31-163.36-126.78-198.19-213.13
					c-8.02-0.91-16.07-1.51-24.13-1.82C926.15,2626.36,907.52,2627.14,889.07,2629.2z"/>
			</g>
			<g>
				<path class="st15" d="M762.57,2916.01c32.62,56.32,83.46,105.23,145.25,141.41c34.99-9.2,68.6-21.68,99.78-37.51
					c-69.88-41.18-127.07-96.91-164.27-160.64c-37.66-64.49-54.72-136.96-49.49-208.36c-21.41,7.31-42.19,16.02-62.05,25.73
					C709.99,2756.33,720.01,2842.47,762.57,2916.01z"/>
			</g>
			<g>
				<path class="st15" d="M513.13,2929.05c1.75,37.94,9.84,75.64,23.71,111.83c44.85,14.7,91.55,25.39,139.16,31.11
					c-60.79-103.56-81.2-223.18-56.16-336.32c-18.67,8.56-37.99,15.87-58.61,20.82c-4.18,1.01-8.39,1.9-12.64,2.68
					C522.85,2813.05,510.43,2870.9,513.13,2929.05z"/>
			</g>
			<g>
				<path class="st15" d="M244.34,2845.5c3.25,4.92,6.65,9.75,10.21,14.49c16.85,22.43,36.89,43,59.24,61.83
					c28.29-60.9,70.67-117.4,124.21-165.5c-23.95-5.64-46.77-14.53-67.02-26.48c-1.32-0.78-2.63-1.57-3.93-2.38
					C316.68,2759.17,274.4,2799.69,244.34,2845.5z"/>
			</g>
			<g>
				<path class="st15" d="M202.16,2719.58c41.05-13.8,82.46-23.22,126.89-28.96c-3.12-5.71-5.25-11.73-6.07-18.06
					c-1.7-12.92,4.07-26.65,14.37-36.31c-36.96-9.72-77.02-11.42-115.17-5.33c-6.05,11.76-10.79,23.97-14.04,36.4
					C203.63,2684.54,201.74,2702.07,202.16,2719.58z"/>
			</g>
			<g class="st22">
				<path d="M208.14,2667.31c3.25-12.43,7.98-24.64,14.04-36.4c7.47-14.51,16.97-28.33,28.22-41.04
					c-32.11,129.68,21.42,271.56,139.81,334.84c110.26,59.37,229,91.18,351.98,82.69c149.92-10.84,305.97-57.11,422.32-154.46
					c-1.71,6.24-3.72,12.42-6.12,18.5c-7.81,19.76-18.97,38.43-32.73,55.8c-22.04,27.88-50.75,52.43-82.92,72.74
					c-11.3,7.15-23.04,13.78-35.15,19.92c-31.18,15.83-64.79,28.31-99.78,37.51c-54.66,14.37-112.7,20.72-170.1,19.16
					c-20.69-0.56-41.29-2.12-61.72-4.58c-47.61-5.72-94.31-16.4-139.16-31.11c-36.78-12.05-72.3-26.8-106.05-43.72
					c-42.34-21.23-82.44-46.22-117-75.35c-22.36-18.83-42.4-39.4-59.24-61.83c-3.56-4.74-6.97-9.57-10.21-14.49
					c-25.59-38.68-41.1-82.27-42.19-125.92C201.74,2702.07,203.63,2684.54,208.14,2667.31z"/>
			</g>
			<g class="st21">
				<path d="M250.4,2589.88c8.4-9.5,17.78-18.38,28.02-26.46l29.7,35.72c-53.35,87.52-1.78,203.45,82.09,261.97
					c133.58,93.3,294.73,91.18,449.52,67.85c69.97-8.48,129.34-48.77,180.23-97.54c44.21-40.53,68.5-103.11,67.53-163.43
					c20.86,12.83,38.89,28.53,52.6,46.91c27.97,37.52,36.01,83.55,27.08,127.1v0.01c-0.75,3.67-1.66,7.31-2.65,10.94
					c-116.35,97.35-272.4,143.62-422.32,154.46c-122.98,8.48-241.72-23.32-351.98-82.69
					C271.81,2861.44,218.29,2719.56,250.4,2589.88z"/>
			</g>
			<g class="st22">
				<path class="st27" d="M910.03,2679.36c13.97-0.26,28.4,0.78,40.93,6.97c12.53,6.18,22.84,18.49,23.16,32.46
					c0.31,13.79-8.74,25.98-18.51,35.71c-25.43,25.35-58.12,42.13-91.45,55.49c-50.06,20.06-102.85,33.27-156.45,39.17
					c-27,2.97-54.44,4.08-81.24-0.39c-26.8-4.46-53.07-14.77-73.59-32.58c-6.99-6.07-19.24-19.91-12.15-30.1
					c5.38-7.72,17.97-3.56,25.85-3.72c27.98-0.57,57.21-10.52,83.39-19.68c55.69-19.48,108.17-47.18,164.29-65.5
					C845.23,2687.09,877.35,2679.97,910.03,2679.36z"/>
			</g>
		</g>
	</g>
</g>
</svg>
