<?xml version="1.0" encoding="utf-8"?>
<!-- Generator: Adobe Illustrator 24.1.2, SVG Export Plug-In . SVG Version: 6.00 Build 0)  -->
<svg version="1.1" xmlns="http://www.w3.org/2000/svg" xmlns:xlink="http://www.w3.org/1999/xlink" x="0px" y="0px"
	 viewBox="0 0 3710 3710" style="enable-background:new 0 0 3710 3710;" xml:space="preserve">
<style type="text/css">
	.st0{fill:#FFFFFF;}
	.st1{opacity:0.3;fill:url(#SVGID_1_);}
	.st2{fill:url(#SVGID_2_);}
	.st3{fill:url(#SVGID_3_);}
	.st4{fill:url(#SVGID_4_);}
	.st5{fill:url(#SVGID_5_);}
	.st6{fill:url(#SVGID_6_);}
	.st7{fill:url(#SVGID_7_);}
	.st8{opacity:0.2;fill:#FFFFFF;}
	.st9{opacity:0.68;}
	.st10{fill:url(#SVGID_8_);}
	.st11{fill:url(#SVGID_9_);}
	.st12{opacity:0.6;fill:#FFFFFF;}
	.st13{opacity:0.6;}
	.st14{opacity:0.68;fill:#FFFFFF;}
	.st15{fill:url(#SVGID_10_);}
	.st16{fill:url(#SVGID_11_);}
	.st17{fill:url(#SVGID_12_);}
	.st18{fill:url(#SVGID_13_);}
	.st19{display:none;}
	.st20{display:inline;fill:url(#SVGID_14_);}
	.st21{display:inline;fill:url(#SVGID_15_);}
	.st22{display:inline;fill:url(#SVGID_16_);}
	.st23{display:inline;fill:url(#SVGID_17_);}
	.st24{display:inline;fill:url(#SVGID_18_);}
	.st25{display:inline;fill:url(#SVGID_19_);}
	.st26{display:inline;fill:url(#SVGID_20_);}
	.st27{display:inline;}
	.st28{fill:url(#SVGID_21_);}
	.st29{display:inline;fill:url(#SVGID_22_);}
	.st30{display:inline;fill:url(#SVGID_23_);}
	.st31{fill:url(#SVGID_24_);}
	.st32{fill:url(#SVGID_25_);}
	.st33{fill:url(#SVGID_26_);}
	.st34{fill:url(#SVGID_27_);}
	.st35{fill:url(#SVGID_28_);}
	.st36{display:inline;fill:url(#SVGID_29_);}
	.st37{fill:url(#SVGID_30_);}
	.st38{fill:url(#SVGID_31_);}
	.st39{fill:url(#SVGID_32_);}
	.st40{fill:url(#SVGID_33_);}
	.st41{fill:url(#SVGID_34_);}
	.st42{fill:url(#SVGID_35_);}
	.st43{fill:url(#SVGID_36_);}
	.st44{fill:url(#SVGID_37_);}
	.st45{fill:url(#SVGID_38_);}
	.st46{fill:url(#SVGID_39_);}
	.st47{fill:url(#SVGID_40_);}
	.st48{fill:url(#SVGID_41_);}
	.st49{fill:url(#SVGID_42_);}
	.st50{fill:#D44613;}
	.st51{opacity:0.15;}
	.st52{fill:#77160C;}
	.st53{opacity:0.3;}
	.st54{opacity:0.1;}
	.st55{opacity:0.2;}
	.st56{fill:#630E0A;}
	.st57{display:inline;opacity:0.2;}
	.st58{display:inline;opacity:0.1;}
	.st59{fill:#C1380E;}
	.st60{fill:#FCE0D9;}
	.st61{fill:#4D0F05;}
	.st62{fill:#BF340A;}
	.st63{fill:#EFC3BD;}
	.st64{opacity:0.5;}
	.st65{fill:#ECECEC;}
</style>
<g id="Background">
	<g>
		<g>
			<rect class="st0" width="3710" height="3710"/>
		</g>
	</g>
</g>
<g id="Illustration">
	<g>
		<linearGradient id="SVGID_1_" gradientUnits="userSpaceOnUse" x1="3464.1289" y1="3274.1064" x2="1387.0271" y2="1456.6437">
			<stop  offset="0" style="stop-color:#B37CFF"/>
			<stop  offset="1" style="stop-color:#F895E7"/>
		</linearGradient>
		<path class="st1" d="M3118.82,2326.16c-270.1,626.82-989.6,977.97-1613.55,883.25c-101.53-15.41-379.87-61.33-626.31-277.93
			c-474.4-416.97-575.86-1242.63-193.17-1824.5c278.53-423.49,777.82-663.56,1252.25-651.55c102.19,2.59,493.83,18.53,838.01,298.24
			c50.55,41.08,162.05,138.71,262.54,293.59C3274.57,1410.96,3294.85,1917.65,3118.82,2326.16z"/>
		<g>
			
				<linearGradient id="SVGID_2_" gradientUnits="userSpaceOnUse" x1="261.2319" y1="2650.3567" x2="1540.347" y2="2650.3567" gradientTransform="matrix(0.9295 0.3688 -0.3688 0.9295 1205.9015 -1342.7352)">
				<stop  offset="0" style="stop-color:#A737D5"/>
				<stop  offset="1" style="stop-color:#EF497A"/>
			</linearGradient>
			<path class="st2" d="M768.51,475.03c-3.12-14.3,14.17-24.09,24.98-14.22c109.82,100.17,374.55,401.06,317.41,934.44
				c-71.7,669.2,71,910.94,246.37,1057.11c0,0-238.89-66.47-392.15-311.64C588.84,1538.77,823.94,729.32,768.51,475.03z"/>
			<path class="st0" d="M853.99,682.48c14.63,74.17,27.8,148.59,38.22,223.39c10.81,74.73,19.36,149.75,25.55,224.93
				c5.9,75.2,10.4,150.49,11.68,225.87c1.63,75.37,0.01,150.72-1.87,226.36c-1.46,75.61-3.36,151.78,2.53,228.37
				c5.81,76.44,20.83,153.41,49.48,225.35c7.16,17.93,14.67,35.8,23.17,53.05c8.18,17.41,17.13,34.47,26.38,51.36
				c18.67,33.69,39.62,66.2,62.88,97.01c46.68,61.51,102.7,115.86,164.2,161.65c6.47,4.82,15.63,3.48,20.45-2.99
				c4.73-6.36,3.53-15.3-2.65-20.18l-0.04-0.03c-14.64-11.56-29.14-23.28-43.06-35.6c-7.06-6.05-13.84-12.4-20.73-18.62
				c-6.65-6.47-13.55-12.69-20-19.36c-26.21-26.25-50.55-54.3-72.7-84.02c-44.53-59.15-80.46-125.27-107.94-193.95
				c-13.36-34.51-24.15-69.94-32.18-106.08c-8-36.15-13.24-72.97-16.38-110.11c-6.29-74.33-5.03-149.74-4.11-225.36
				c0.82-75.64,1.12-151.65-1.7-227.56c-1.31-37.95-3.3-75.88-5.97-113.75c-1.23-18.94-2.82-37.86-4.38-56.77
				c-1.74-18.9-3.58-37.79-5.58-56.66c-8.13-75.46-18.56-150.64-31.35-225.39c-13.15-74.68-28.27-148.99-46.23-222.59
				c-0.51-2.1-2.63-3.39-4.74-2.88C854.86,678.41,853.59,680.44,853.99,682.48z"/>
		</g>
		<g>
			<g>
				
					<linearGradient id="SVGID_3_" gradientUnits="userSpaceOnUse" x1="-2839.6794" y1="-210.7629" x2="-1103.1907" y2="-210.7629" gradientTransform="matrix(0.2666 -0.9639 0.9639 0.2666 1434.7949 -242.8051)">
					<stop  offset="0" style="stop-color:#CE1567"/>
					<stop  offset="1" style="stop-color:#7A1DBC"/>
				</linearGradient>
				<path class="st3" d="M960.61,2532.35c-10.03,28.11-45.51,36.84-67.7,16.89C770.45,2439.13,452.38,2096.5,480.75,1528.7
					c23.96-479.48-8.61-741.74-31.65-859.78c-4.87-24.96,24.95-41.63,43.7-24.44C699.58,834.12,1324.01,1513.75,960.61,2532.35z"/>
				<path class="st0" d="M920.2,2532.78c-0.61,0.41-1.28,0.77-1.98,1.07c-5.93,2.49-12.76-0.3-15.26-6.23
					c-2.83-6.73-282.56-680.22-279.36-1348.41c0.03-6.43,5.27-11.62,11.71-11.6c6.44,0.03,11.63,5.27,11.6,11.71
					c-3.18,663.32,274.73,1332.59,277.53,1339.27C926.64,2523.81,924.74,2529.73,920.2,2532.78z"/>
			</g>
		</g>
		<g>
			<linearGradient id="SVGID_4_" gradientUnits="userSpaceOnUse" x1="1304.538" y1="925.3411" x2="3167.1086" y2="3522.5925">
				<stop  offset="0" style="stop-color:#53D8FF"/>
				<stop  offset="1" style="stop-color:#3840F7"/>
			</linearGradient>
			<path class="st4" d="M3183.82,1801.81c-29.01,660.75-630.7,1171.02-1343.92,1139.71S572.02,2349.18,601.03,1688.43
				c29.01-660.75,630.7-1171.02,1343.92-1139.71S3212.83,1141.06,3183.82,1801.81z"/>
			<linearGradient id="SVGID_5_" gradientUnits="userSpaceOnUse" x1="260.2145" y1="-444.0789" x2="2371.1255" y2="3105.1431">
				<stop  offset="0" style="stop-color:#53D8FF"/>
				<stop  offset="1" style="stop-color:#3840F7"/>
			</linearGradient>
			<path class="st5" d="M917.29,951.72c-28.37,45.55-50.25,96.83-46.14,150.34c4.76,61.96,36.11,119.97,37.72,182.09
				c2.73,105.35-78.6,193.53-103.96,295.81c-28.35,114.33,78.55,244.59,121.15,308.4c42.59,63.81,24.29-51.77,50.12-96.85
				c25.83-45.07,81.52,189.65,168.52,241.17c46.68,27.64,101.44,46.04,135.01,88.65c48.96,62.15,35.4,150.58,28.04,229.35
				c-7.35,78.77,3.66,174.78,74.61,209.8c41.77,20.62,94.87,13.64,132.57,41.01c66.2,48.07,34.58,152.86,60.81,230.35
				c28.53,84.27,85.09,85.38,172.61,103.25c87.52,17.87-11.03-174.41,29.97-241.6c21.55-35.32,54.45-63.43,71.44-101.15
				c23.57-52.32,16.93-122.21,62.66-156.88c34.28-25.98,81.97-18.96,124.98-19.33c43.01-0.38,95.32-19.04,100.2-61.78
				c4.33-37.92-33.63-68.15-70.77-76.94c-37.14-8.79-76.71-4.6-113.19-15.83c-104.33-32.12-152.99-178.11-261.93-184.94
				c-93.13-5.84-171.13,98.69-262.63,80.43c-51.01-10.18-85.93-55.36-123.8-91.02c-48.64-45.82-109.01-80.2-147.63-134.74
				c-38.62-54.53-45.19-141.7,9.75-179.74c40.81-28.26,98.8-16.79,139.12,12.17c40.32,28.96,67.78,71.92,97.39,111.76
				c9.15,12.3,19.49,25.06,34.13,29.64c39.37,12.32,68.1-43.07,58.68-83.23c-9.42-40.17-37.79-75.49-39.13-116.73
				c-2.35-72.67,75.91-118.78,144.56-142.73c68.65-23.95,149.57-52.49,169.75-122.35c7.13-24.67,5.26-51.82,16.14-75.09
				c36.06-77.1,226.34-115.59,180.86-160.29s-189.84-54.42-217.96-144.46c-10.06-32.23-20.43-74.84-54.05-77.96
				c-54.77-5.08-86.02,62.71-131.96,74.35c-21.81,5.52-23.91,42.57-23.06,88.12c0.62,33.06-25.68,60.37-58.74,60.99
				c-33.06,0.63-60.38-25.67-61.01-58.73c-0.23-12.27,1.92-24.68,6.96-37.05c8.84-21.68,25.64-39.02,42.58-55.18
				c70.66-67.47,281.49-141.59,237.34-170.31c-44.15-28.72-256.04-107.97-287.65-64.23s20.67,6.7,33.42,58.57
				c12.75,51.87-156.75,44.92-235.12,67.37c-12.94,3.71-27.29,7.32-39.41,1.45c-13.54-6.56-19.24-22.32-26.59-35.45
				c-39.36-70.32-170.28-24.68-170.28-24.68S942.64,911.02,917.29,951.72z"/>
			<linearGradient id="SVGID_6_" gradientUnits="userSpaceOnUse" x1="2533.1428" y1="-269.5876" x2="1167.2579" y2="1541.2463">
				<stop  offset="0" style="stop-color:#53D8FF"/>
				<stop  offset="1" style="stop-color:#3840F7"/>
			</linearGradient>
			<path class="st6" d="M1509.44,632.6c-19.03,35.47,37.56,34.9,43.19,74.76c50.94,5.55,71.87-74.77,122.25-84.14
				c28.43-5.29,56,15.08,71.45,39.53c15.45,24.45,22.66,53.15,35.75,78.94c29.34,57.78,89.93,98.44,154.51,103.7
				c14.05,1.15,29.54,0.25,40.11-9.07c30.7-27.06-13.22-77.89-1.81-117.19c13.04-44.91,77.8-38.1,121.57-54.57
				c12.07-4.54,104.92-29.32,106.42-42.13c2.65-22.71-40.43-37.17-88.62-49.57c-81.64-20.99-225.3-20.12-295.52-13.77
				C1725.33,567.54,1569.69,560.71,1509.44,632.6L1509.44,632.6z"/>
			<g>
				<linearGradient id="SVGID_7_" gradientUnits="userSpaceOnUse" x1="2412.5444" y1="2878.1367" x2="3329.5088" y2="358.5515">
					<stop  offset="0" style="stop-color:#53D8FF"/>
					<stop  offset="1" style="stop-color:#3840F7"/>
				</linearGradient>
				<path class="st7" d="M3067.34,2158.25c21.17-132.51,19.41-268.66-5.18-400.58c-6.56-35.19-21.92-77.14-57.35-82.21
					c-40.99-5.86-91.17,41.23-116.83,8.73c-11.33-14.34-6.81-35.23-0.39-52.34c16.92-45.14,43.41-86.66,77.21-121.03
					c21-21.35,45.02-40.28,61.19-65.48c34.58-53.91,10.31-132.69-38.64-173.99c-48.95-41.31-112.09,32.77-163.54,3.36
					c-51.45-29.41-53.05-100.74-62.72-159.21c-7.16-43.31-39.07-160.64-74.32-103.5c-35.25,57.14,47.02,284.61,139.61,393.65
					c11.17,13.15,23.5,27.88,22.56,45.11c-2.25,41.14-62.2,39.31-102.54,47.73c-49.92,10.43-126.44-16.31-84.22,70.68
					c22.27,45.88,128.66,108.68,100.07,139.39c-28.59,30.7-116.47,119.65-157.7,191.57c-41.24,71.93-61.22,161.49-30.12,238.35
					c31.1,76.86,124.6,129.93,200.92,97.55c35.72-15.15,74.66-46.66,107.87-26.58c30.07,18.18,25.63,61.82,24.15,96.93
					c-1.49,35.11,18.75,81.71,52.91,73.47c11.24-2.71,20.08-11.24,27.67-19.96C3035.99,2304.67,3055.79,2230.54,3067.34,2158.25z"/>
			</g>
			<ellipse class="st8" cx="1822.47" cy="1658.72" rx="1014.32" ry="958.21"/>
			<g class="st9">
				<path class="st0" d="M2253.2,1765.67c-0.31,211.15-14.74,422.72-51.79,630.87c-9.38,52-20.26,103.74-33.24,155
					c-13.01,51.23-28.04,102.01-46.44,151.66c-9.23,24.81-19.32,49.32-30.67,73.28c-11.36,23.95-23.98,47.37-38.63,69.59
					c-14.71,22.12-31.4,43.3-51.96,60.7c-10.28,8.64-21.55,16.3-33.94,21.91c-12.37,5.57-25.86,9.09-39.56,9.35
					c-13.68,0.41-27.38-2.29-39.99-7.37c-12.65-5.04-24.2-12.35-34.73-20.71c-21.05-16.86-38.1-37.8-53.08-59.74
					c-14.94-22.04-27.7-45.39-39.26-69.25c-11.5-23.89-21.73-48.35-31.06-73.12c-18.64-49.56-33.82-100.3-46.94-151.5
					c-13.1-51.22-24.09-102.94-33.56-154.92c-18.88-103.98-31.74-208.97-40.39-314.24c-8.59-105.29-12.85-210.91-13.31-316.54
					c-0.22-52.81,1.1-105.62,2.95-158.39c1.92-52.77,4.78-105.51,8.61-158.18c7.71-105.32,19.27-210.41,36.51-314.65
					c8.65-52.1,18.75-103.99,30.9-155.41c12.18-51.41,26.35-102.4,43.94-152.29c8.84-24.92,18.5-49.57,29.53-73.65
					c11.01-24.07,23.33-47.6,37.81-69.85c14.51-22.15,31.2-43.29,51.96-60.2c10.38-8.38,21.81-15.67,34.32-20.61
					c12.47-5,25.99-7.54,39.44-7.04c13.46,0.38,26.74,3.76,38.99,9.17c12.27,5.44,23.55,12.83,33.9,21.21
					c20.72,16.87,37.87,37.5,53.09,59.17c15.17,21.77,28.4,44.79,40.34,68.4c11.97,23.61,22.64,47.85,32.48,72.39
					c19.61,49.13,35.79,99.53,49.88,150.46c14.04,50.95,25.92,102.46,36.19,154.28C2236.16,1342.9,2252.65,1554.5,2253.2,1765.67z
					 M2240.42,1765.67c0.15-105.28-3.89-210.59-12.68-315.5c-8.7-104.91-21.87-209.51-41.42-312.95
					c-9.77-51.71-21.15-103.13-34.67-153.98c-13.57-50.82-29.23-101.13-48.29-150.13c-9.57-24.48-19.95-48.65-31.62-72.18
					c-11.64-23.53-24.55-46.46-39.34-68.1c-14.84-21.54-31.58-42.01-51.68-58.67c-10.05-8.28-20.95-15.56-32.77-20.92
					c-11.8-5.3-24.52-8.76-37.45-9.1c-12.92-0.42-25.83,2.17-37.79,7.07c-12,4.86-23.01,12-33.04,20.25
					c-20.07,16.64-36.32,37.56-50.44,59.55c-14.09,22.09-26.09,45.5-36.8,69.47c-10.72,23.97-20.1,48.54-28.67,73.39
					c-17.04,49.74-30.69,100.63-42.36,151.93c-11.65,51.32-21.24,103.1-29.4,155.1c-16.25,104.03-26.85,208.91-33.59,313.98
					c-6.79,105.09-9.28,210.42-9.1,315.71c-0.2,105.28,3.39,210.58,11.29,315.57c7.96,104.97,20.12,209.67,38.27,313.35
					c9.1,51.82,19.72,103.39,32.43,154.43c12.74,51.02,27.51,101.56,45.69,150.84c9.09,24.63,19.08,48.93,30.3,72.62
					c11.27,23.66,23.72,46.77,38.24,68.49c14.55,21.62,31.1,42.13,51.2,58.42c10.04,8.08,20.98,15.08,32.83,19.88
					c11.81,4.81,24.49,7.48,37.2,7.05c12.7-0.32,25.22-3.66,36.83-8.97c11.62-5.35,22.33-12.7,32.15-21.07
					c19.66-16.85,35.86-37.62,50.15-59.42c28.39-43.94,49.46-92.41,67.54-141.64c17.94-49.37,32.55-99.95,45.16-151
					c12.57-51.07,23.07-102.66,32.08-154.5c18.02-103.7,30.02-208.42,37.99-313.39C2236.73,1976.28,2240.45,1870.97,2240.42,1765.67
					z"/>
				<path class="st0" d="M2785.82,1765.67c-0.26,67.95-4.55,135.92-13.63,203.27c-9.09,67.34-22.59,134.11-40.82,199.59
					c-36.8,130.78-92.41,256.66-168.08,369.66c-37.84,56.44-80.72,109.56-128.66,157.74c-47.92,48.18-100.95,91.35-158.48,127.58
					c-57.53,36.15-119.67,65.18-184.76,84.89c-65.12,19.55-133.07,29.69-201.05,29.67c-67.98,0.07-135.95-10.01-201.1-29.52
					c-65.12-19.66-127.3-48.65-184.88-84.78c-57.57-36.19-110.67-79.34-158.65-127.5c-48.01-48.16-90.96-101.28-128.87-157.71
					c-75.79-113.01-131.49-238.94-168.44-369.77c-18.29-65.51-31.95-132.3-41.03-199.7c-9.04-67.41-13.29-135.43-13.51-203.42
					c0.25-67.99,4.54-136,13.61-203.41c9.12-67.39,22.81-134.17,41.14-199.65c37.02-130.79,92.8-256.65,168.63-369.56
					c37.92-56.4,80.88-109.46,128.88-157.57c47.98-48.1,101.05-91.21,158.61-127.32c57.57-36.05,119.73-64.87,184.76-84.52
					c65.05-19.53,132.93-29.65,200.84-29.63c67.91,0.03,135.77,10.2,200.8,29.77c65,19.7,127.12,48.56,184.64,84.64
					c57.51,36.13,110.52,79.28,158.43,127.39c47.94,48.13,90.83,101.2,128.68,157.6c75.71,112.91,131.39,238.71,168.26,369.45
					c18.26,65.46,31.79,132.21,40.92,199.55C2781.19,1629.76,2785.53,1697.72,2785.82,1765.67z M2771.17,1765.67
					c-0.04-67.32-4.07-134.67-12.85-201.43c-8.79-66.75-21.95-132.94-39.8-197.87c-35.69-129.75-89.55-255.01-163.7-367.6
					c-37.05-56.24-79.14-109.22-126.28-157.36c-47.15-48.08-99.27-91.46-156.16-127.61c-56.91-36.03-118.36-65.09-182.83-84.76
					c-64.5-19.5-131.8-29.66-199.2-29.77c-67.39,0.16-134.69,10.37-199.16,29.91c-64.44,19.72-125.85,48.82-182.71,84.88
					c-56.84,36.18-108.91,79.59-155.98,127.69c-47.07,48.16-89.1,101.15-126.08,157.39c-74.02,112.58-127.79,237.78-163.34,367.48
					c-35.42,129.85-52.58,264.5-52.55,399.05c0.04,134.55,17.27,269.18,52.77,398.99c35.62,129.66,89.46,254.79,163.52,367.28
					c36.99,56.19,79.02,109.14,126.09,157.24c47.08,48.04,99.12,91.42,155.95,127.5c56.85,35.98,118.24,64.92,182.59,84.63
					c64.37,19.56,131.58,29.81,198.9,30.02c67.32-0.15,134.54-10.36,198.95-29.87c64.38-19.67,125.82-48.56,182.71-84.51
					c56.88-36.06,108.98-79.4,156.12-127.43c47.14-48.08,89.23-101.03,126.29-157.22c74.19-112.49,128.13-237.67,163.89-367.38
					c17.88-64.91,31.07-131.08,39.9-197.82C2767.02,1900.34,2771.1,1832.99,2771.17,1765.67z"/>
				<path class="st0" d="M843.5,1301.66l269.41-1.77l269.41-1.02l538.83-0.81l538.83,0.9l269.41,1.1l269.41,1.92
					c0.36,0,0.64,0.29,0.64,0.65c0,0.35-0.29,0.64-0.64,0.64l-269.41,1.92l-269.41,1.1l-538.83,0.9l-538.83-0.81l-269.41-1.02
					l-269.41-1.77c-0.53,0-0.96-0.44-0.96-0.97C842.54,1302.09,842.97,1301.67,843.5,1301.66z"/>
				<path class="st0" d="M1156.05,850.42l191.28-1.78l191.28-1.01c63.76-0.43,127.52-0.38,191.27-0.51l191.28-0.3l382.55,0.89
					l191.27,1.1c63.76,0.65,127.52,1.04,191.28,1.92c0.36,0,0.64,0.3,0.64,0.65c-0.01,0.35-0.29,0.63-0.64,0.64
					c-63.76,0.88-127.52,1.27-191.28,1.92l-191.27,1.1l-382.55,0.9l-191.28-0.3c-63.76-0.14-127.52-0.09-191.27-0.52l-191.28-1.01
					l-191.28-1.78c-0.53-0.01-0.96-0.44-0.95-0.97C1155.1,850.85,1155.52,850.43,1156.05,850.42z"/>
				<path class="st0" d="M749.87,1752.91l292.82-1.77l292.82-1.02l585.64-0.81l585.64,0.89l292.82,1.1l292.82,1.92
					c0.36,0,0.64,0.29,0.64,0.65c0,0.36-0.29,0.64-0.64,0.64l-292.82,1.92l-292.82,1.1l-585.64,0.9l-585.64-0.81l-292.82-1.01
					l-292.82-1.77c-0.53,0-0.96-0.44-0.96-0.97C748.92,1753.34,749.35,1752.91,749.87,1752.91z"/>
				<path class="st0" d="M843.5,2204.15l269.41-1.77l269.41-1.02l538.83-0.81l538.83,0.9l269.41,1.1l269.41,1.92
					c0.36,0,0.64,0.3,0.64,0.65c0,0.35-0.29,0.64-0.64,0.64l-269.41,1.92l-269.41,1.1l-538.83,0.9l-538.83-0.81l-269.41-1.02
					l-269.41-1.77c-0.53,0-0.96-0.44-0.96-0.97C842.54,2204.58,842.97,2204.16,843.5,2204.15z"/>
				<path class="st0" d="M2724.8,2659.73H1194.6c-1.86,0-3.38-1.51-3.38-3.38c0-1.87,1.51-3.38,3.38-3.38h1530.2
					c1.86,0,3.38,1.51,3.38,3.38C2728.18,2658.22,2726.66,2659.73,2724.8,2659.73z"/>
			</g>
		</g>
		<g>
			<linearGradient id="SVGID_8_" gradientUnits="userSpaceOnUse" x1="1486.8868" y1="3498.4668" x2="2465.8254" y2="1250.2822">
				<stop  offset="0" style="stop-color:#CB236D"/>
				<stop  offset="1" style="stop-color:#4C246D"/>
			</linearGradient>
			<path class="st10" d="M1266.64,1375.29c0-77.61,62.92-140.53,140.53-140.53h1195.04c65.93,0,120.29,51.67,123.65,117.51
				l88.21,1732.59c2.62,51.53-37.94,94.99-89.52,95.93l-1369.67,24.89c-48.47,0.88-88.24-38.17-88.24-86.65V1375.29z"/>
			<path class="st0" d="M1555.06,3176.23c-0.01,0-0.03,0-0.04,0l-153.26-1.98c-51.25-0.66-92.94-42.9-92.94-94.15v-231.39
				c0-1.81,1.46-3.27,3.27-3.27c1.81,0,3.27,1.46,3.27,3.27v231.39c0,47.69,38.79,86.98,86.48,87.6l153.26,1.98
				c1.81,0.02,3.25,1.51,3.23,3.31C1558.31,3174.79,1556.85,3176.23,1555.06,3176.23z"/>
			<path class="st0" d="M1312.09,2780.3c-1.81,0-3.27-1.46-3.27-3.27v-37.47c0-1.81,1.46-3.27,3.27-3.27c1.81,0,3.27,1.46,3.27,3.27
				v37.47C1315.37,2778.84,1313.9,2780.3,1312.09,2780.3z"/>
			<g>
				<linearGradient id="SVGID_9_" gradientUnits="userSpaceOnUse" x1="1258.8539" y1="3627.7185" x2="2818.4033" y2="724.6605">
					<stop  offset="0" style="stop-color:#A737D5"/>
					<stop  offset="1" style="stop-color:#EF497A"/>
				</linearGradient>
				<path class="st11" d="M1364.55,1261.43c-0.15-24.83,21.69-44.05,46.3-40.71c163.19,22.13,724.38,90.58,1188.35,54.96
					c21.16-1.62,39.52,14.41,40.65,35.6l92.49,1740.31c1.27,23.86-16.95,44.27-40.81,45.68
					c-195.14,11.55-998.79,56.19-1285.44,26.17c-17.45-1.83-30.69-16.52-30.79-34.06L1364.55,1261.43z"/>
				<path class="st12" d="M1383.77,1305.04c-0.14-23.9,20.87-42.39,44.55-39.18c157.05,21.3,697.1,87.17,1143.61,52.89
					c20.36-1.56,38.03,13.87,39.12,34.26l89.01,1674.78c1.22,22.96-16.32,42.6-39.27,43.96
					c-187.79,11.11-961.18,54.07-1237.04,25.18c-16.79-1.76-29.53-15.89-29.63-32.77L1383.77,1305.04z"/>
				<g class="st13">
					<path class="st0" d="M1646.58,1813.92c-8.4-0.35-14.25,6.17-13,14.48l1.85,12.35c1.25,8.32,9.15,15.12,17.56,15.12h221.72
						c8.41,0,15.2-6.88,15.1-15.29l-0.02-1.22c-0.1-8.41-7.06-15.57-15.47-15.93L1646.58,1813.92z"/>
				</g>
				<g class="st13">
					<path class="st0" d="M2189.44,1813.01c-8.4-0.35-14.25,6.17-13,14.48l1.85,12.35c1.25,8.32,9.15,15.12,17.56,15.12h221.72
						c8.41,0,15.2-6.88,15.1-15.29l-0.02-1.22c-0.1-8.41-7.06-15.57-15.47-15.93L2189.44,1813.01z"/>
				</g>
				<path class="st14" d="M2526.07,2306.1h-992.64c-2.49,0-4.5-2.01-4.5-4.5v-33.04c0-2.49,2.01-4.5,4.5-4.5h992.64
					c2.49,0,4.5,2.01,4.5,4.5v33.04C2530.57,2304.08,2528.56,2306.1,2526.07,2306.1z"/>
				<path class="st14" d="M2266.96,2393.83h-733.53c-2.49,0-4.5-2.01-4.5-4.5v-33.04c0-2.49,2.01-4.5,4.5-4.5h733.53
					c2.49,0,4.5,2.01,4.5,4.5v33.04C2271.46,2391.82,2269.45,2393.83,2266.96,2393.83z"/>
				<path class="st14" d="M2527.9,2220.19h-992.64c-2.49,0-4.5-2.01-4.5-4.5v-33.04c0-2.49,2.01-4.5,4.5-4.5h992.64
					c2.49,0,4.5,2.01,4.5,4.5v33.04C2532.4,2218.18,2530.39,2220.19,2527.9,2220.19z"/>
				<path class="st14" d="M2521.57,2571.65h-992.64c-2.49,0-4.5-2.01-4.5-4.5v-33.04c0-2.49,2.01-4.5,4.5-4.5h992.64
					c2.49,0,4.5,2.01,4.5,4.5v33.04C2526.07,2569.63,2524.06,2571.65,2521.57,2571.65z"/>
				<path class="st14" d="M2275.96,2659.38h-747.03c-2.49,0-4.5-2.01-4.5-4.5v-33.04c0-2.49,2.01-4.5,4.5-4.5h747.03
					c2.49,0,4.5,2.01,4.5,4.5v33.04C2280.46,2657.37,2278.45,2659.38,2275.96,2659.38z"/>
				<path class="st14" d="M2523.4,2485.74h-992.64c-2.49,0-4.5-2.01-4.5-4.5v-33.04c0-2.49,2.01-4.5,4.5-4.5h992.64
					c2.49,0,4.5,2.01,4.5,4.5v33.04C2527.9,2483.73,2525.89,2485.74,2523.4,2485.74z"/>
				<path class="st14" d="M2523.4,2752.42h-992.64c-2.49,0-4.5-2.01-4.5-4.5v-33.04c0-2.49,2.01-4.5,4.5-4.5h992.64
					c2.49,0,4.5,2.01,4.5,4.5v33.04C2527.9,2750.4,2525.89,2752.42,2523.4,2752.42z"/>
				<path class="st14" d="M2518.76,1717.54h-992.64c-2.49,0-4.5-2.01-4.5-4.5V1680c0-2.49,2.01-4.5,4.5-4.5h992.64
					c2.49,0,4.5,2.01,4.5,4.5v33.04C2523.26,1715.53,2521.25,1717.54,2518.76,1717.54z"/>
				<path class="st14" d="M2343.29,1541.16h-649.93c-2.49,0-4.5-2.01-4.5-4.5v-33.04c0-2.49,2.01-4.5,4.5-4.5h649.93
					c2.49,0,4.5,2.01,4.5,4.5v33.04C2347.79,1539.15,2345.78,1541.16,2343.29,1541.16z"/>
				<path class="st14" d="M2520.59,1631.64h-992.64c-2.49,0-4.5-2.01-4.5-4.5v-33.04c0-2.49,2.01-4.5,4.5-4.5h992.64
					c2.49,0,4.5,2.01,4.5,4.5v33.04C2525.09,1629.62,2523.08,1631.64,2520.59,1631.64z"/>
				<g>
					<path class="st14" d="M1980.51,2028.27h-445.35c-2.49,0-4.5-2.01-4.5-4.5v-33.04c0-2.49,2.01-4.5,4.5-4.5h445.35
						c2.49,0,4.5,2.01,4.5,4.5v33.04C1985.01,2026.26,1982.99,2028.27,1980.51,2028.27z"/>
					<path class="st14" d="M1980.51,2108.69h-445.35c-2.49,0-4.5-2.01-4.5-4.5v-33.04c0-2.49,2.01-4.5,4.5-4.5h445.35
						c2.49,0,4.5,2.01,4.5,4.5v33.04C1985.01,2106.68,1982.99,2108.69,1980.51,2108.69z"/>
					<path class="st14" d="M1978.75,1947.85H1533.4c-2.49,0-4.5-2.01-4.5-4.5v-33.04c0-2.49,2.01-4.5,4.5-4.5h445.35
						c2.49,0,4.5,2.01,4.5,4.5v33.04C1983.25,1945.83,1981.24,1947.85,1978.75,1947.85z"/>
				</g>
				<g>
					<path class="st14" d="M2527.02,2030.1h-452.63c-2.49,0-4.5-2.01-4.5-4.5v-33.04c0-2.49,2.01-4.5,4.5-4.5h452.63
						c2.49,0,4.5,2.01,4.5,4.5v33.04C2531.52,2028.08,2529.51,2030.1,2527.02,2030.1z"/>
					<path class="st14" d="M2527.02,2110.52h-452.63c-2.49,0-4.5-2.01-4.5-4.5v-33.04c0-2.49,2.01-4.5,4.5-4.5h452.63
						c2.49,0,4.5,2.01,4.5,4.5v33.04C2531.52,2108.51,2529.51,2110.52,2527.02,2110.52z"/>
					<path class="st14" d="M2525.24,1949.68H2072.6c-2.49,0-4.5-2.01-4.5-4.5v-33.04c0-2.49,2.01-4.5,4.5-4.5h452.63
						c2.49,0,4.5,2.01,4.5,4.5v33.04C2529.74,1947.66,2527.72,1949.68,2525.24,1949.68z"/>
				</g>
			</g>
			<linearGradient id="SVGID_10_" gradientUnits="userSpaceOnUse" x1="2212.1414" y1="820.1476" x2="1662.4631" y2="1543.2363">
				<stop  offset="0" style="stop-color:#2B3582"/>
				<stop  offset="1" style="stop-color:#150E42"/>
			</linearGradient>
			<path class="st15" d="M2078.81,998.53c-43.17-30.03-80.7-29.44-107.12-21.64c-24.1,7.11-39.72,30.38-37.43,55.41l11.39,124.37
				l135.59,12.03C2081.24,1168.7,2163.47,1057.42,2078.81,998.53z M2019.18,1098.87c-18.67,0-33.81-15.14-33.81-33.81
				c0-18.67,15.14-33.81,33.81-33.81c18.67,0,33.81,15.14,33.81,33.81C2052.99,1083.73,2037.86,1098.87,2019.18,1098.87z"/>
			<path class="st0" d="M1959.2,1104.35c-1.67,0-3.1-1.27-3.25-2.97l-1.82-19.81c-0.17-1.8,1.16-3.39,2.96-3.56
				c1.84-0.17,3.39,1.16,3.56,2.96l1.81,19.81c0.17,1.8-1.16,3.39-2.96,3.56C1959.4,1104.35,1959.29,1104.35,1959.2,1104.35z
				 M1955.64,1065.54c-1.67,0-3.1-1.27-3.25-2.97l-1.38-15.04c-2.19-23.84,12.82-46.04,35.67-52.78
				c16.18-4.78,32.86-5.46,49.56-2.04c1.77,0.36,2.91,2.09,2.55,3.86c-0.36,1.77-2.08,2.9-3.86,2.55
				c-15.64-3.2-31.25-2.57-46.39,1.9c-19.86,5.86-32.9,25.17-31,45.91l1.38,15.04c0.17,1.8-1.16,3.39-2.96,3.56
				C1955.84,1065.53,1955.74,1065.54,1955.64,1065.54z"/>
			<linearGradient id="SVGID_11_" gradientUnits="userSpaceOnUse" x1="2272.4368" y1="865.9816" x2="1722.7581" y2="1589.0709">
				<stop  offset="0" style="stop-color:#2B3582"/>
				<stop  offset="1" style="stop-color:#150E42"/>
			</linearGradient>
			<path class="st16" d="M1760.59,1237.05v-62.53c0-21.59,17.89-38.87,39.46-38.14l431.12,14.77c19.13,0.66,34.63,15.76,35.77,34.87
				l3.6,60.08L1760.59,1237.05z"/>
			<path class="st0" d="M1921.35,1159.94h-18.54c-1.81,0-3.27-1.46-3.27-3.27c0-1.81,1.47-3.27,3.27-3.27h18.54
				c1.81,0,3.27,1.46,3.27,3.27C1924.62,1158.48,1923.15,1159.94,1921.35,1159.94z"/>
			<path class="st0" d="M1783.93,1217.41c-1.81,0-3.27-1.46-3.27-3.27v-25.3c0-19.55,15.9-35.44,35.45-35.44h68.16
				c1.81,0,3.27,1.46,3.27,3.27c0,1.81-1.47,3.27-3.27,3.27h-68.16c-15.94,0-28.9,12.97-28.9,28.9v25.3
				C1787.2,1215.95,1785.73,1217.41,1783.93,1217.41z"/>
			<linearGradient id="SVGID_12_" gradientUnits="userSpaceOnUse" x1="2009.4457" y1="685.7459" x2="2009.4457" y2="1623.4117">
				<stop  offset="0" style="stop-color:#CB236D"/>
				<stop  offset="1" style="stop-color:#4C246D"/>
			</linearGradient>
			<path class="st17" d="M1584.93,1252.84c1.04-21.65,18.9-38.67,40.58-38.68l753.9-0.02c27.11,0,50.28,19.51,54.91,46.22l0.64,3.69
				c5.06,29.26-17.46,56.02-47.15,56.02h-773.46c-17.77,0-31.93-14.86-31.08-32.61L1584.93,1252.84z"/>
			<g>
				<path class="st0" d="M1837.03,2998.02c3.09-39.48,16.48-78.19,37.5-112.15c10.56-16.96,22.98-32.84,37.2-47
					c3.65-3.44,7.2-6.99,10.94-10.34c3.84-3.23,7.59-6.58,11.52-9.71c4.02-3.02,8-6.1,12.13-8.97l6.3-4.16l3.15-2.08l1.58-1.04
					c0.57-0.36,1.34-0.81,2.02-1.18c11.07-6.11,26.97-6.4,37.7,4.39c2.61,2.59,4.44,5.7,5.79,8.76c0.62,1.54,1.22,3.09,1.58,4.61
					c0.46,1.54,0.71,3.03,0.97,4.53c0.95,5.98,0.68,11.54,0.12,16.91c-0.28,2.68-0.72,5.31-1.19,7.88l-1.44,7.24
					c-0.92,4.84-2,9.64-3.06,14.44c-2.12,9.61-4.53,19.16-7.05,28.67c-10.28,38-23.88,75.1-40.71,110.67l-6.44,13.27
					c-2.26,4.37-4.46,8.77-6.76,13.12l-3.49,6.5l-1.75,3.25l-1.92,3.39c-2.66,4.51-5.63,8.89-9.1,13.06
					c-3.48,4.15-7.41,8.14-12.31,11.49c-4.86,3.32-10.98,6.01-17.78,6.34c-1.68,0.17-3.36-0.01-5.04-0.19
					c-1.7-0.09-3.26-0.64-4.88-1.02c-3.21-0.87-6.26-2.42-8.93-4.32c-5.39-3.82-9.25-9.1-11.65-14.8
					c-2.31-5.63-3.33-11.5-3.37-17.21c-0.07-5.71,0.79-11.15,1.96-16.27c1.2-5.14,2.68-9.95,4.32-14.66l2.42-7.11l2.72-6.99
					c7.3-18.63,16.97-36.26,28.25-52.69c11.25-16.48,24.53-31.52,39.15-45.03l2.73-2.55l2.85-2.42l5.7-4.82
					c1.94-1.56,3.94-3.05,5.9-4.58c1.98-1.51,3.91-3.08,5.98-4.46c4.08-2.85,8.12-5.76,12.38-8.34l3.16-1.99l1.58-1
					c0.28-0.17,0.49-0.32,0.83-0.51l1.04-0.58c2.81-1.48,5.88-2.46,9.05-2.8c6.31-0.74,13.13,1.13,18.04,5.61
					c2.53,2.23,4.56,5.43,5.48,8.71c0.97,3.3,0.94,6.48,0.66,9.33c-0.3,2.87-0.92,5.5-1.57,7.98l-1.98,7.08l-3.94,14.03
					c-5.21,18.71-10.63,37.37-15.94,56.05l-0.01,0.04l-8.2-1.47c0.61-6.29,2.3-12.64,5.77-18.34c1.77-2.83,3.92-5.45,6.64-7.63
					c2.71-2.22,5.86-3.77,9.18-4.75c3.33-0.93,6.9-1.27,10.47-0.68c1.78,0.29,3.55,0.79,5.23,1.58c0.85,0.35,1.65,0.84,2.44,1.32
					l1.65,1.04c4.01,2.26,9.02,2.68,13.14,0.87c1.04-0.42,2-1.01,2.9-1.67c0.43-0.36,0.89-0.68,1.28-1.1l0.62-0.61l0.75-0.8
					l5.98-6.37l11.95-12.75l11.95-12.75l5.98-6.38c1.47-1.55,3.57-2.91,5.92-3.38c2.34-0.5,4.77-0.17,6.84,0.77
					c2.07,0.94,3.87,2.47,5.09,4.48c1.23,2,1.76,4.51,1.48,6.8c-0.03,0.59-0.16,1.14-0.31,1.67c-0.14,0.51-0.33,1.18-0.43,1.42
					l-0.72,2.01l-1.36,4.05c-1.76,5.42-3.24,10.92-4.48,16.48c-1.23,5.56-2.21,11.18-2.91,16.83c-0.08,0.7-0.19,1.44-0.24,2.09
					l-0.05,1.73c-0.07,0.58,0.03,1.14,0.11,1.7c0.11,0.55,0.06,1.14,0.27,1.66c0.48,2.2,1.64,4.16,3.08,5.88
					c1.44,1.75,3.43,3.03,5.51,3.91c1.04,0.51,2.17,0.7,3.27,0.99c1.13,0.1,2.26,0.27,3.38,0.13c2.23-0.18,4.45-0.76,6.34-2.02
					l0.74-0.42l0.66-0.55l1.35-1.1l3.09-3.02c8.22-8.08,16.09-16.51,23.56-25.3c14.91-17.58,28.25-36.49,39.8-56.44l4.23-7.54
					l2.04-3.81l1.02-1.9l0.26-0.48c0.01-0.05-0.01-0.03,0-0.03c0.04-0.01-0.03,0.05-0.01,0.1c-0.01,0.32,0.13,0.38,0.09,0.36
					c0,0,0.06,0.04,0.19,0.03c0.13-0.03,0.3-0.06,0.3-0.08c0,0,0,0-0.02,0l-0.37,0.37l-0.74,0.75c-0.5,0.49-0.98,1-1.45,1.51
					c-0.97,1.01-1.89,2.06-2.81,3.11c-3.65,4.24-6.97,8.77-9.9,13.55c-1.46,2.39-2.83,4.84-4.11,7.33
					c-0.63,1.25-1.25,2.51-1.83,3.78l-0.86,1.92l-0.42,0.96l-0.28,0.86c-1.66,4.51-1.69,9.49,0.38,13.77
					c2.01,4.25,5.69,7.87,10.15,9.49c2.18,0.97,4.56,1.17,6.89,1.23c2.33-0.22,4.68-0.6,6.84-1.71l1.64-0.75l1.85-1.08
					c1.23-0.73,2.48-1.42,3.69-2.18c2.45-1.48,4.86-3.01,7.25-4.58c19.08-12.6,36.17-28.22,50.38-46.11l0.01-0.01
					c1.44-1.81,4.06-2.11,5.87-0.67c1.81,1.44,2.11,4.07,0.67,5.87c-14.77,18.61-32.52,34.82-52.33,47.9
					c-2.48,1.63-4.98,3.22-7.52,4.76c-1.26,0.79-2.55,1.51-3.83,2.26l-1.93,1.12l-2.32,1.09c-3.06,1.52-6.55,2.19-10,2.44
					c-3.46-0.02-7-0.43-10.19-1.79c-6.51-2.42-11.78-7.52-14.73-13.78c-3.03-6.27-3.01-13.86-0.62-20.2l0.42-1.21l0.46-1.04
					l0.93-2.07c0.63-1.38,1.3-2.73,1.97-4.08c1.38-2.69,2.86-5.33,4.44-7.91c3.16-5.16,6.75-10.05,10.7-14.64
					c1-1.14,2-2.28,3.04-3.37c0.52-0.56,1.04-1.11,1.57-1.64l0.8-0.81l0.4-0.4c0.26-0.23,0.54-0.48,0.82-0.7
					c1.15-0.88,2.71-1.57,4.31-1.62c1.58-0.08,3.1,0.32,4.38,1.03c2.52,1.37,4.4,4.31,4.15,7.57c-0.08,0.76-0.22,1.56-0.5,2.21
					c-0.13,0.33-0.29,0.69-0.42,0.97l-0.26,0.49l-1.04,1.95l-2.09,3.89l-4.33,7.7c-11.8,20.39-25.44,39.7-40.67,57.67
					c-7.63,8.97-15.67,17.6-24.07,25.85l-3.16,3.09l-2.02,1.68l-1.03,0.82l-1.15,0.68c-2.99,1.94-6.58,2.96-10.12,3.22
					c-1.79,0.19-3.56-0.02-5.33-0.23c-1.73-0.39-3.47-0.76-5.08-1.51c-3.24-1.37-6.28-3.37-8.59-6.11c-2.31-2.7-4.14-5.92-4.93-9.44
					c-0.29-0.86-0.3-1.76-0.44-2.64c-0.12-0.89-0.24-1.77-0.17-2.65l0.1-2.64l0.26-2.25c0.73-5.91,1.75-11.79,3.04-17.6
					c1.3-5.81,2.85-11.57,4.68-17.24l1.42-4.24l0.75-2.1c0.17-0.43,0.13-0.48,0.19-0.67c0.06-0.16,0.11-0.32,0.09-0.47
					c0.07-0.59-0.03-1.08-0.32-1.58c-0.3-0.49-0.81-0.94-1.39-1.19c-1.24-0.49-2.16-0.31-3.21,0.71l-5.98,6.38l-11.95,12.75
					l-11.95,12.75l-5.98,6.38l-0.75,0.8l-0.94,0.92c-0.62,0.64-1.34,1.18-2.04,1.74c-1.44,1.06-2.99,2-4.65,2.68
					c-6.63,2.89-14.42,2.18-20.53-1.28l-2.05-1.28c-0.46-0.26-0.9-0.55-1.4-0.75c-0.96-0.46-2.02-0.75-3.11-0.93
					c-2.19-0.37-4.56-0.17-6.83,0.47c-4.6,1.29-8.37,4.42-11,8.73c-2.61,4.27-4.07,9.46-4.57,14.74l-8.2-1.47l0.01-0.04
					c4.7-18.85,9.29-37.73,14.09-56.55l3.57-14.12l1.76-7c0.53-2.23,0.94-4.36,1.1-6.33c0.15-1.96,0.05-3.74-0.42-5.1
					c-0.46-1.37-1.16-2.41-2.29-3.37c-2.36-2.04-5.75-2.94-9.05-2.45c-1.65,0.21-3.28,0.8-4.74,1.62l-0.54,0.32l-0.71,0.47
					l-1.48,0.99l-2.95,1.98c-3.99,2.55-7.76,5.43-11.57,8.24c-1.93,1.37-3.73,2.91-5.58,4.39c-1.83,1.5-3.69,2.97-5.49,4.49
					l-5.3,4.73l-2.65,2.35l-2.56,2.46c-13.68,13.06-26.06,27.52-36.45,43.31c-10.44,15.74-19.31,32.54-25.9,50.2l-2.46,6.62
					l-2.16,6.72c-1.49,4.48-2.78,8.99-3.72,13.32c-1.92,8.67-1.99,17,0.96,23.78c1.42,3.21,3.61,5.98,6.21,7.74
					c1.3,0.88,2.66,1.57,4.16,1.9c1.51,0.39,2.98,0.62,4.46,0.47c2.94-0.17,6.09-1.39,9.21-3.55c3.12-2.15,6.09-5.13,8.81-8.44
					c2.72-3.33,5.2-7.02,7.44-10.89l1.65-2.96l1.68-3.18l3.35-6.36c2.21-4.25,4.32-8.56,6.48-12.84l6.17-12.99
					c16.03-34.83,29.22-70.96,39.13-107.98c2.43-9.27,4.75-18.56,6.79-27.93c1.01-4.68,2.05-9.36,2.94-14.07l1.38-7.05
					c0.4-2.21,0.75-4.38,0.97-6.53c0.44-4.27,0.57-8.51-0.05-12.14c-0.6-3.64-1.79-6.56-3.47-8.2c-0.78-0.93-1.85-1.51-3.04-2.13
					c-1.34-0.49-2.7-1-4.2-1.06c-2.94-0.26-6.2,0.43-9.1,1.99c-0.39,0.21-0.67,0.37-1.13,0.65l-1.47,0.96l-2.94,1.91l-5.89,3.82
					c-3.87,2.63-7.55,5.54-11.37,8.24c-3.72,2.84-7.28,5.9-10.94,8.84c-3.55,3.06-6.94,6.32-10.42,9.47
					c-13.5,13.05-25.73,27.51-36.23,43.19c-21.1,31.29-35.63,67.19-42.06,104.87c-0.38,2.28-2.54,3.81-4.82,3.43
					C1838.35,3002.11,1836.87,3000.14,1837.03,2998.02z"/>
				<path class="st0" d="M2271.99,2870.93c-1.39,0-2.75-0.69-3.55-1.96c-1.23-1.96-0.63-4.54,1.32-5.76l41.76-26.16
					c1.96-1.23,4.54-0.64,5.76,1.32c1.23,1.96,0.63,4.54-1.32,5.76l-41.76,26.16C2273.52,2870.72,2272.75,2870.93,2271.99,2870.93z"
					/>
			</g>
		</g>
		<g>
			<linearGradient id="SVGID_13_" gradientUnits="userSpaceOnUse" x1="2909.0144" y1="2778.6965" x2="3261.4277" y2="2778.6965">
				<stop  offset="0" style="stop-color:#A737D5"/>
				<stop  offset="1" style="stop-color:#EF497A"/>
			</linearGradient>
			<path class="st18" d="M3247.54,2379.48c-0.1-5.6-4.37-10.1-9.62-10.1h-317.95c-5.31,0-10.96,4.64-10.96,10.31v792.37
				c0,4.23,2.25,8.29,5.05,11.28c2.81,2.99,6.95,4.66,10.91,4.65l321.44-0.94c4-0.01,7.91-1.74,10.71-4.79
				c2.8-3.05,4.37-7.19,4.3-11.46L3247.54,2379.48z"/>
			<g>
				<polygon class="st0" points="3064.94,2425.54 2960.93,2425.15 2960.97,2411.26 3064.87,2411.61 				"/>
				<polygon class="st0" points="3065.23,2476.72 2960.79,2476.21 2960.83,2462.2 3065.15,2462.68 				"/>
				<polygon class="st0" points="3065.52,2528.33 2960.65,2527.7 2960.69,2513.57 3065.44,2514.17 				"/>
				<polygon class="st0" points="3065.81,2580.37 2960.5,2579.6 2960.54,2565.36 3065.73,2566.09 				"/>
				<polygon class="st0" points="3066.1,2632.84 2960.36,2631.94 2960.4,2617.58 3066.02,2618.44 				"/>
				<polygon class="st0" points="3066.69,2739.1 2960.06,2737.94 2960.1,2723.33 3066.61,2724.46 				"/>
				<polygon class="st0" points="3067.6,2901.88 2959.61,2900.3 2959.65,2885.32 3067.51,2886.87 				"/>
				<polygon class="st0" points="3066.39,2685.75 2960.21,2684.72 2960.25,2670.24 3066.31,2671.23 				"/>
				<polygon class="st0" points="3066.99,2792.9 2959.91,2791.6 2959.95,2776.88 3066.91,2778.14 				"/>
				<polygon class="st0" points="3067.29,2847.16 2959.76,2845.72 2959.8,2830.87 3067.21,2832.27 				"/>
				<polygon class="st0" points="3067.9,2957.07 2959.45,2955.35 2959.5,2940.24 3067.82,2941.93 				"/>
				<polygon class="st0" points="3068.22,3012.74 2959.3,3010.86 2959.34,2995.63 3068.13,2997.46 				"/>
				<polygon class="st0" points="3068.53,3068.88 2959.14,3066.86 2959.19,3051.49 3068.44,3053.47 				"/>
				<polygon class="st0" points="3068.84,3125.51 2958.99,3123.33 2959.03,3107.83 3068.76,3109.97 				"/>
				<polygon class="st0" points="3201.31,2426.04 3096.65,2425.66 3096.53,2411.71 3201.08,2412.07 				"/>
				<polygon class="st0" points="3202.16,2477.39 3097.06,2476.88 3096.95,2462.82 3201.92,2463.3 				"/>
				<polygon class="st0" points="3203.01,2529.16 3097.48,2528.52 3097.37,2514.35 3202.78,2514.96 				"/>
				<polygon class="st0" points="3203.88,2581.37 3097.9,2580.6 3097.79,2566.31 3203.64,2567.04 				"/>
				<polygon class="st0" points="3204.75,2634.01 3098.33,2633.11 3098.21,2618.7 3204.51,2619.57 				"/>
				<polygon class="st0" points="3206.51,2740.62 3099.19,2739.45 3099.08,2724.8 3206.27,2725.93 				"/>
				<polygon class="st0" points="3209.21,2903.96 3100.52,2902.37 3100.39,2887.34 3208.96,2888.89 				"/>
				<polygon class="st0" points="3205.62,2687.09 3098.76,2686.06 3098.64,2671.53 3205.38,2672.53 				"/>
				<polygon class="st0" points="3207.4,2794.61 3099.63,2793.3 3099.51,2778.52 3207.16,2779.79 				"/>
				<polygon class="st0" points="3208.3,2849.05 3100.07,2847.6 3099.95,2832.7 3208.06,2834.11 				"/>
				<polygon class="st0" points="3210.13,2959.34 3100.97,2957.6 3100.84,2942.44 3209.87,2944.14 				"/>
				<polygon class="st0" points="3211.05,3015.19 3101.42,3013.31 3101.29,2998.02 3210.8,2999.86 				"/>
				<polygon class="st0" points="3211.98,3071.53 3101.87,3069.5 3101.75,3054.08 3211.73,3056.07 				"/>
				<polygon class="st0" points="3212.92,3128.36 3102.33,3126.17 3102.21,3110.62 3212.66,3112.76 				"/>
			</g>
		</g>
		<g class="st19">
			
				<linearGradient id="SVGID_14_" gradientUnits="userSpaceOnUse" x1="-120.8729" y1="2222.24" x2="-303.4851" y2="2222.24" gradientTransform="matrix(-1 0 0 1 967.5685 0)">
				<stop  offset="0" style="stop-color:#F9B776"/>
				<stop  offset="1" style="stop-color:#F47960"/>
			</linearGradient>
			<path class="st20" d="M1271.05,2184.83c0,0-67.83,156.52-109.57,135.65c-41.74-20.87-73.05-193.05-73.05-193.05
				S1218.88,2096.13,1271.05,2184.83z"/>
			
				<linearGradient id="SVGID_15_" gradientUnits="userSpaceOnUse" x1="2530.4307" y1="2876.9719" x2="2534.3352" y2="3306.4382" gradientTransform="matrix(1 0 0 1 -1410.7297 0)">
				<stop  offset="0" style="stop-color:#CB236D"/>
				<stop  offset="1" style="stop-color:#4C246D"/>
			</linearGradient>
			<path class="st21" d="M1034.9,3156.15c0,0-5.67,32.1-8.45,63.88c-1.09,12.42,8.49,23.2,20.94,23.72
				c42.32,1.76,132.83,5.19,165.31,3.74c4.88-0.22,8.07-5.22,6.27-9.76c-1.51-3.81-4.44-6.88-8.16-8.59l-149.52-68.72
				L1034.9,3156.15z"/>
			
				<linearGradient id="SVGID_16_" gradientUnits="userSpaceOnUse" x1="2440.9805" y1="3156.0198" x2="2489.614" y2="3156.0198" gradientTransform="matrix(1 0 0 1 -1410.7297 0)">
				<stop  offset="0" style="stop-color:#F9B776"/>
				<stop  offset="1" style="stop-color:#F47960"/>
			</linearGradient>
			<path class="st22" d="M1030.25,3137.29l4.56,38.4c0,0,26.19,12.19,44.08-1.54l-10.85-42.79L1030.25,3137.29z"/>
			
				<linearGradient id="SVGID_17_" gradientUnits="userSpaceOnUse" x1="2386.0295" y1="3341.0696" x2="2419.2224" y2="2450.4094" gradientTransform="matrix(1 0 0 1 -1410.7297 0)">
				<stop  offset="0" style="stop-color:#2B3582"/>
				<stop  offset="1" style="stop-color:#150E42"/>
			</linearGradient>
			<path class="st23" d="M1033.67,2415.43c-1.97,10.03-10.56,500.37,41.85,720.11c0.85,3.58-0.96,7.28-4.38,8.68
				c-8.04,3.28-23.8,8.04-42.69,8.67c-5.85,0.2-11.09-3.6-12.74-9.22c-14.98-50.98-86.78-306.42-96.14-550.43
				c-10.47-272.66,0-9.28,0-9.28l6.14-168.54L1033.67,2415.43z"/>
			
				<linearGradient id="SVGID_18_" gradientUnits="userSpaceOnUse" x1="2291.3586" y1="2879.1472" x2="2295.2632" y2="3308.6118" gradientTransform="matrix(1 0 0 1 -1410.7297 0)">
				<stop  offset="0" style="stop-color:#CB236D"/>
				<stop  offset="1" style="stop-color:#4C246D"/>
			</linearGradient>
			<path class="st24" d="M862.9,3172.9c0,0-9.03,16.21-17.76,59.27c-1.58,7.78,3.86,15.22,11.75,16
				c13.97,1.37,35.48,3.14,52.71,3.02c7.94-0.05,14.14-6.97,13.18-14.86c-1.91-15.72-7.85-41.51-26.22-61.61L862.9,3172.9z"/>
			
				<linearGradient id="SVGID_19_" gradientUnits="userSpaceOnUse" x1="2265.7056" y1="3153.5259" x2="2307.6958" y2="3153.5259" gradientTransform="matrix(1 0 0 1 -1410.7297 0)">
				<stop  offset="0" style="stop-color:#F9B776"/>
				<stop  offset="1" style="stop-color:#F47960"/>
			</linearGradient>
			<path class="st25" d="M854.98,3123.51l10.64,58.07c0,0,10.53,7.83,31.35,2.15l-5.08-62.47L854.98,3123.51z"/>
			
				<linearGradient id="SVGID_20_" gradientUnits="userSpaceOnUse" x1="2303.9385" y1="3338.0107" x2="2337.1313" y2="2447.3523" gradientTransform="matrix(1 0 0 1 -1410.7297 0)">
				<stop  offset="0" style="stop-color:#2B3582"/>
				<stop  offset="1" style="stop-color:#150E42"/>
			</linearGradient>
			<path class="st26" d="M826.22,2430.48c-42.87,258.71,9.3,639.42,26.89,713.93c1.08,4.56,4.76,8.06,9.38,8.82
				c7.85,1.3,20.78,2.36,33.53-1.34c4.39-1.28,7.48-5.24,7.66-9.81c2.36-60.24-1.89-430.07,38.05-576.23
				c2.03-7.41,6.55-13.87,12.81-18.32l77.53-55.11l5.94-89.09L826.22,2430.48z"/>
			<g class="st27">
				
					<linearGradient id="SVGID_21_" gradientUnits="userSpaceOnUse" x1="116.9591" y1="2115.0737" x2="-318.4756" y2="2444.1814" gradientTransform="matrix(-1 0 0 1 967.5685 0)">
					<stop  offset="0" style="stop-color:#FDF53F"/>
					<stop  offset="1" style="stop-color:#D93C65"/>
				</linearGradient>
				<path class="st28" d="M1104.09,1950.04C947.57,1934.39,829.16,1974,829.16,1974c-38.29,223.44-6.7,481.16-6.7,481.16
					c99.46,26.08,211.65-15.95,211.65-15.95c16.53-93.39,93.65-356.23,93.65-356.23C1190.53,2075.2,1143.53,1953.99,1104.09,1950.04
					z"/>
			</g>
			
				<linearGradient id="SVGID_22_" gradientUnits="userSpaceOnUse" x1="126.7716" y1="2128.0562" x2="-308.6646" y2="2457.1648" gradientTransform="matrix(-1 0 0 1 967.5685 0)">
				<stop  offset="0" style="stop-color:#FDF53F"/>
				<stop  offset="1" style="stop-color:#D93C65"/>
			</linearGradient>
			<path class="st29" d="M878.43,2098.4L829.16,1974c0,0-119.99,81.53-139.73,184.9c22.67,1.67,63.93,7.57,104.31,27.96
				C802.62,2138.05,878.43,2098.4,878.43,2098.4z"/>
			
				<linearGradient id="SVGID_23_" gradientUnits="userSpaceOnUse" x1="2098.7441" y1="2239.168" x2="2422.2881" y2="2239.168" gradientTransform="matrix(1 0 0 1 -1410.7297 0)">
				<stop  offset="0" style="stop-color:#F9B776"/>
				<stop  offset="1" style="stop-color:#F47960"/>
			</linearGradient>
			<path class="st30" d="M993.73,2215.45c0,0-141.84,75.94-187.3,10.92c-9.44-13.5-14.7-29.97-12.38-42.76
				c-40.38-20.39-81.95-23.04-104.62-24.71c-5.95,31.16,7.63,64.31,25.94,97.81c79.63,145.66,296.18-8.05,296.18-8.05
				L993.73,2215.45z"/>
			<g class="st27">
				
					<linearGradient id="SVGID_24_" gradientUnits="userSpaceOnUse" x1="-71.7494" y1="1928.5505" x2="-209.405" y2="2251.5125" gradientTransform="matrix(-1 0 0 1 967.5685 0)">
					<stop  offset="0" style="stop-color:#2B3582"/>
					<stop  offset="1" style="stop-color:#150E42"/>
				</linearGradient>
				<path class="st31" d="M977.54,2311.77l73.53-256.77c0.84-2.91,3.32-5.04,6.33-5.39c13.32-1.55,51.92-5.92,96.49-9.69
					c53.69-4.54,116.03-8.22,153.29-5.09c5.3,0.44,8.5,6.05,6.14,10.81c-21.19,42.86-108.33,217.21-151.97,274.32
					c-1.45,1.89-3.68,3-6.06,2.98l-170.59-1.59C979.73,2321.31,976.18,2316.54,977.54,2311.77z"/>
				
					<linearGradient id="SVGID_25_" gradientUnits="userSpaceOnUse" x1="2625.6619" y1="1902.0656" x2="2588.8398" y2="2063.761" gradientTransform="matrix(1 0 0 1 -1410.7297 0)">
					<stop  offset="0" style="stop-color:#2B3582"/>
					<stop  offset="1" style="stop-color:#150E42"/>
				</linearGradient>
				<path class="st32" d="M1161.52,2017.66l53.31-8.88c2.84-0.47,5.16,2.24,4.26,4.97l-5.28,15.99c-0.46,1.39-1.67,2.4-3.13,2.59
					l-51.3,6.85c-2.65,0.35-4.84-2.06-4.23-4.67l3.27-13.96C1158.78,2019.06,1160,2017.91,1161.52,2017.66z"/>
				
					<linearGradient id="SVGID_26_" gradientUnits="userSpaceOnUse" x1="2606.3911" y1="1969.8927" x2="2588.781" y2="2075.5542" gradientTransform="matrix(1 0 0 1 -1410.7297 0)">
					<stop  offset="0" style="stop-color:#2B3582"/>
					<stop  offset="1" style="stop-color:#150E42"/>
				</linearGradient>
				<path class="st33" d="M1121.61,2062.79l4.39-22.88c0.44-2.29,2.33-4.03,4.66-4.26l107.67-10.93c3.62-0.37,6.53,2.95,5.68,6.5
					l-6.85,28.5c-0.55,2.28-2.53,3.93-4.88,4.05l-105.22,5.3C1123.64,2069.24,1120.96,2066.15,1121.61,2062.79z"/>
				
					<linearGradient id="SVGID_27_" gradientUnits="userSpaceOnUse" x1="2398.9431" y1="2206.2" x2="2496.9009" y2="2206.2" gradientTransform="matrix(1 0 0 1 -1410.7297 0)">
					<stop  offset="0" style="stop-color:#F9B776"/>
					<stop  offset="1" style="stop-color:#F47960"/>
				</linearGradient>
				<path class="st34" d="M995.31,2249.73c0,0-10.24-42.12-6.11-57.06c4.13-14.94,12.14-34.15,38.82-29.88
					c26.68,4.27,58.16,15.51,58.16,15.51s-1.59,19.46-21.87,13.18l12.58,9.73c0,0-1.8,15.58-18.93,7.26l11.7,12.9
					c0,0-7.36,12.8-19.96,4.59C1037.09,2217.76,1031.04,2254.81,995.31,2249.73z"/>
				
					<linearGradient id="SVGID_28_" gradientUnits="userSpaceOnUse" x1="-412.9668" y1="1282.4404" x2="-315.0047" y2="1282.4404" gradientTransform="matrix(-0.8472 -0.5312 -0.5312 0.8472 1629.1906 848.1048)">
					<stop  offset="0" style="stop-color:#F9B776"/>
					<stop  offset="1" style="stop-color:#F47960"/>
				</linearGradient>
				<path class="st35" d="M1268.69,2187.07c0,0,31.05-30.24,35.49-45.09c4.44-14.85,7.86-35.38-17.01-45.94
					c-24.87-10.56-57.51-17.75-57.51-17.75s-8.99,17.33,11.53,22.79l-15.82,1.56c0,0-6.75,14.16,12.18,16.2l-16.76,4.72
					c0,0-0.57,14.75,14.47,14.49S1235.71,2172.38,1268.69,2187.07z"/>
			</g>
			
				<linearGradient id="SVGID_29_" gradientUnits="userSpaceOnUse" x1="2354.5146" y1="1912.74" x2="2478.8298" y2="1912.74" gradientTransform="matrix(1 0 0 1 -1410.7297 0)">
				<stop  offset="0" style="stop-color:#F9B776"/>
				<stop  offset="1" style="stop-color:#F47960"/>
			</linearGradient>
			<path class="st36" d="M984.9,1845.69l-40.88,118.21c-0.68,1.96,0.13,4.13,1.94,5.13c11.14,6.16,51.29,23.97,99.66-6.7
				c5.04-3.19,8.47-8.41,9.24-14.32l13.24-102.31H984.9z"/>
			<g class="st27">
				
					<linearGradient id="SVGID_30_" gradientUnits="userSpaceOnUse" x1="-3709.0715" y1="223.8" x2="-3755.5264" y2="70.5809" gradientTransform="matrix(0.746 -0.6659 0.6659 0.746 3715.6057 -803.1727)">
					<stop  offset="0" style="stop-color:#F9B776"/>
					<stop  offset="1" style="stop-color:#F47960"/>
				</linearGradient>
				<path class="st37" d="M1073.84,1736.23c0,0,44.88,84.49,39.13,118.62c-5.75,34.13-61.38,31.68-109.96,3.96l-33.94-91.23
					L1073.84,1736.23z"/>
				
					<linearGradient id="SVGID_31_" gradientUnits="userSpaceOnUse" x1="-3750.9836" y1="-43.1624" x2="-3712.1243" y2="178.4798" gradientTransform="matrix(0.746 -0.6659 0.6659 0.746 3715.6057 -803.1727)">
					<stop  offset="0" style="stop-color:#2B3582"/>
					<stop  offset="1" style="stop-color:#150E42"/>
				</linearGradient>
				<path class="st38" d="M1005.16,1814.01c1.97-0.87,2.7-3.29,1.52-5.1c-3.6-5.49-10.34-16.7-12.49-26.51
					c0,0-8.07-5.17,20.54-12.01c28.61-6.85,71.27-17.48,80.23-41.82c8.74-23.74-14.23-83.44-50.87-35.87
					c-1.39,1.81-4.13,1.85-5.52,0.04c-6.01-7.82-21.8-24.05-43.73-14.21c-20.52,9.21-22.83,24.24-22.55,31.82
					c0.08,2.23-1.91,3.96-4.1,3.54c-10.37-1.98-35.27-3.68-46.89,21.86c-9.57,21.04-3.35,32.95,2.31,38.77
					c1.84,1.89,1.03,4.99-1.49,5.77c-6.82,2.09-15.62,7.87-14.74,23.84c1.22,22.09,25.91,20.14,32.94,19.13
					c1.15-0.16,2.31,0.23,3.09,1.09c6.03,6.67,33.19,34.99,62.58,38.41c2.55,0.3,4.52-2.22,3.68-4.64l-12.72-36.98
					c-0.59-1.72,0.23-3.6,1.89-4.34L1005.16,1814.01z"/>
				
					<linearGradient id="SVGID_32_" gradientUnits="userSpaceOnUse" x1="-3756.5605" y1="223.0858" x2="-3798.3562" y2="85.2336" gradientTransform="matrix(0.746 -0.6659 0.6659 0.746 3715.6057 -803.1727)">
					<stop  offset="0" style="stop-color:#F9B776"/>
					<stop  offset="1" style="stop-color:#F47960"/>
				</linearGradient>
				<path class="st39" d="M1010.27,1819.26c0,0-31.96-21.93-34.29-3.46c-2.34,18.47,28.78,26.75,44.19,19.86L1010.27,1819.26z"/>
			</g>
		</g>
		<g class="st19">
			<g class="st27">
				<linearGradient id="SVGID_33_" gradientUnits="userSpaceOnUse" x1="2675.6782" y1="1996.0377" x2="2674.0088" y2="2093.7083">
					<stop  offset="0" style="stop-color:#41A362"/>
					<stop  offset="1" style="stop-color:#204F2E"/>
				</linearGradient>
				<path class="st40" d="M2549.08,2098.79l-4.05-54.03c-1.51-20.09,13.14-37.76,33.17-40.03c45.82-5.19,126.78-11.78,189.59-2.94
					c20.75,2.92,36.11,20.81,36.11,41.77v55.23h-55.88l1.88-28.25c1.52-22.83-15.4-42.75-38.18-44.84
					c-23.83-2.18-56-3.03-90.76,1.97c-22.03,3.17-36.56,24.6-31.16,46.2l6.23,24.91H2549.08z"/>
				
					<linearGradient id="SVGID_34_" gradientUnits="userSpaceOnUse" x1="2435.2241" y1="3077.1204" x2="2831.7073" y2="2364.6902" gradientTransform="matrix(0.9995 0.0326 -0.0326 0.9995 89.2385 -51.3102)">
					<stop  offset="0" style="stop-color:#41A362"/>
					<stop  offset="1" style="stop-color:#204F2E"/>
				</linearGradient>
				<polygon class="st41" points="2988.81,3162.04 2388.3,3149.32 2345.57,2231.12 3020.43,2191.52 				"/>
				
					<linearGradient id="SVGID_35_" gradientUnits="userSpaceOnUse" x1="2692.9539" y1="1911.1177" x2="2668.1711" y2="2134.1619" gradientTransform="matrix(0.9995 0.0326 -0.0326 0.9995 89.2385 -51.3102)">
					<stop  offset="0" style="stop-color:#41A362"/>
					<stop  offset="1" style="stop-color:#204F2E"/>
				</linearGradient>
				<path class="st42" d="M3021.02,2173.38l-674.5,28.69l74.04-92.73c14.02-17.56,37.18-28.2,62.2-28.59l407.23-6.28
					c14-0.22,27.5,4.67,37.12,13.43L3021.02,2173.38z"/>
				
					<linearGradient id="SVGID_36_" gradientUnits="userSpaceOnUse" x1="2632.3013" y1="3587.7427" x2="2739.2458" y2="2874.7805" gradientTransform="matrix(0.9995 0.0326 -0.0326 0.9995 89.2385 -51.3102)">
					<stop  offset="0" style="stop-color:#41A362"/>
					<stop  offset="1" style="stop-color:#204F2E"/>
				</linearGradient>
				<path class="st43" d="M2388.3,3149.32l600.51,12.72l-108.96,82.1c-8.38,6.32-18.47,9.74-28.83,9.77l-345.75,1.09
					c-13.63,0.04-26.65-5.78-35.96-16.07L2388.3,3149.32z"/>
				
					<linearGradient id="SVGID_37_" gradientUnits="userSpaceOnUse" x1="2261.5581" y1="2175.0471" x2="3070.7932" y2="2175.0471" gradientTransform="matrix(0.9995 0.0326 -0.0326 0.9995 89.2385 -51.3102)">
					<stop  offset="0" style="stop-color:#41A362"/>
					<stop  offset="1" style="stop-color:#204F2E"/>
				</linearGradient>
				<path class="st44" d="M2278.43,2232.97l16.13-48.26c4.04-12.1,19.1-20.67,36.91-21.01l694.71-13.22
					c19.52-0.37,36.9,9.21,41.08,22.66l18.82,60.47c5.38,17.27-12.92,33.33-38.03,33.36l-729.67,1.02
					C2292.23,2268.02,2272.49,2250.73,2278.43,2232.97z"/>
				<linearGradient id="SVGID_38_" gradientUnits="userSpaceOnUse" x1="2537.8643" y1="1959.4594" x2="2443.0613" y2="2812.6851">
					<stop  offset="0" style="stop-color:#41A362"/>
					<stop  offset="1" style="stop-color:#204F2E"/>
				</linearGradient>
				<path class="st45" d="M2469.28,3129.24L2469.28,3129.24c-5.37,0-9.8-4.23-10.04-9.59l-34.86-771.18
					c-0.26-5.72,4.31-10.5,10.04-10.5l0,0c5.37,0,9.8,4.23,10.04,9.59l34.86,771.18C2479.57,3124.46,2475,3129.24,2469.28,3129.24z"
					/>
				
					<linearGradient id="SVGID_39_" gradientUnits="userSpaceOnUse" x1="2635.6277" y1="1945.8152" x2="2540.8247" y2="2799.0425" gradientTransform="matrix(0.9999 0.0143 -0.0143 0.9999 39.7376 -22.5448)">
					<stop  offset="0" style="stop-color:#41A362"/>
					<stop  offset="1" style="stop-color:#204F2E"/>
				</linearGradient>
				<path class="st46" d="M2561.96,3129.45L2561.96,3129.45c-5.37-0.08-9.73-4.37-9.9-9.74l-23.8-771.6
					c-0.18-5.72,4.46-10.44,10.19-10.36l0,0c5.37,0.08,9.73,4.37,9.9,9.74l23.8,771.6
					C2572.32,3124.81,2567.68,3129.53,2561.96,3129.45z"/>
				
					<linearGradient id="SVGID_40_" gradientUnits="userSpaceOnUse" x1="277.8805" y1="1959.4595" x2="183.0775" y2="2812.6851" gradientTransform="matrix(-1 0 0 1 3116.5273 0)">
					<stop  offset="0" style="stop-color:#41A362"/>
					<stop  offset="1" style="stop-color:#204F2E"/>
				</linearGradient>
				<path class="st47" d="M2907.23,3129.24L2907.23,3129.24c5.37,0,9.8-4.23,10.04-9.59l34.86-771.18
					c0.26-5.72-4.31-10.5-10.04-10.5l0,0c-5.37,0-9.8,4.23-10.04,9.59l-34.86,771.18
					C2896.94,3124.46,2901.51,3129.24,2907.23,3129.24z"/>
				
					<linearGradient id="SVGID_41_" gradientUnits="userSpaceOnUse" x1="375.8798" y1="1978.1328" x2="281.0767" y2="2831.3601" gradientTransform="matrix(-0.9999 0.0143 0.0143 0.9999 3076.7898 -22.5448)">
					<stop  offset="0" style="stop-color:#41A362"/>
					<stop  offset="1" style="stop-color:#204F2E"/>
				</linearGradient>
				<path class="st48" d="M2814.56,3129.45L2814.56,3129.45c5.37-0.08,9.73-4.37,9.9-9.74l23.8-771.6
					c0.18-5.72-4.46-10.44-10.19-10.36l0,0c-5.37,0.08-9.73,4.37-9.9,9.74l-23.8,771.6
					C2804.19,3124.81,2808.83,3129.53,2814.56,3129.45z"/>
				<linearGradient id="SVGID_42_" gradientUnits="userSpaceOnUse" x1="2766.1741" y1="1972.2676" x2="2672.2554" y2="2817.5356">
					<stop  offset="0" style="stop-color:#41A362"/>
					<stop  offset="1" style="stop-color:#204F2E"/>
				</linearGradient>
				<path class="st49" d="M2680.96,3129.24L2680.96,3129.24c-3.7,0-6.71-3-6.71-6.71v-766.69c0-3.7,3-6.71,6.71-6.71l0,0
					c3.7,0,6.71,3,6.71,6.71v766.69C2687.67,3126.23,2684.66,3129.24,2680.96,3129.24z"/>
			</g>
			<g class="st27">
				<path class="st0" d="M2765.26,2677.83l84.26,155.1l63.05-112.5c6.99-12.47,7.21-27.64,0.57-40.3l-38.81-74.13
					c-3.23-6.17-12.09-6.07-15.19,0.16l-26.9,54.12l-56.16-0.48C2766.79,2659.73,2760.82,2669.66,2765.26,2677.83z"/>
				<path class="st0" d="M2900.17,2742.57l-12.96,8.88c-12.55,8.6-27.44,13.14-42.66,13.01l-117.24-1l0.23-26.82
					c0.03-3.38-4.45-4.59-6.13-1.66l-54.67,95.47l53.55,95.59c1.61,2.87,5.97,1.85,6.14-1.43l1.65-31.76l54.52,0.46
					c21.83,0.19,41.99-11.68,52.42-30.87L2900.17,2742.57z"/>
				<path class="st0" d="M2630.75,2625.1l92.19-150.52l-128.95,1.65c-14.3,0.18-27.54,7.58-35.19,19.66l-44.79,70.68
					c-3.73,5.88,0.78,13.51,7.73,13.07l60.32-3.76l27.67,48.87C2614.31,2632.83,2625.9,2633.02,2630.75,2625.1z"/>
				<path class="st0" d="M2649.42,2765.3l-176.45-4.58l65.9,110.85c7.31,12.29,20.33,20.06,34.62,20.65l83.6,3.45
					c6.96,0.29,11.3-7.43,7.46-13.23l-33.42-50.36l28.49-48.4C2664.33,2775.67,2658.71,2765.54,2649.42,2765.3z"/>
				<path class="st0" d="M2525.9,2849.76l-1.21-15.67c-1.17-15.17,2.34-30.33,10.06-43.45l59.49-101.04l23.12,13.61
					c2.91,1.71,6.2-1.56,4.5-4.48l-55.34-95.08l-109.56-1.42c-3.29-0.04-4.59,4.24-1.83,6.03l26.68,17.31l-27.66,46.98
					c-11.08,18.82-10.88,42.21,0.52,60.83L2525.9,2849.76z"/>
				<path class="st0" d="M2932.14,2486.24c0.26,0.26,0.52,0.53,0.78,0.79L2932.14,2486.24z"/>
				<path class="st0" d="M2932.14,2486.24c0.26,0.53,0.52,1.05,0.77,1.58L2932.14,2486.24z"/>
				<path class="st0" d="M2619.36,2475.9l14.17,6.79c13.72,6.57,25.1,17.2,32.59,30.44l57.76,102.03l-23.34,13.21
					c-2.94,1.66-1.75,6.15,1.63,6.14l110.01-0.39l56.01-94.17c1.68-2.83-1.38-6.1-4.31-4.6l-28.33,14.45l-26.86-47.45
					c-10.76-19-31.11-30.52-52.94-29.96L2619.36,2475.9z"/>
			</g>
		</g>
	</g>
	<g>
		<g>
			<g>
				<path class="st50" d="M800.96,2742.33c3.73,33.05,5.99,70.18,9.73,103.23c-13.08-0.51-24.79,4.48-33.54,12.29l-61.21-73.62
					C740.06,2765.2,768.86,2750.49,800.96,2742.33z"/>
			</g>
			<g class="st51">
				<path d="M800.96,2742.33c0.92,8.12,1.74,16.48,2.53,24.97c-14.99,7.59-28.67,17.78-40.45,30.78
					c-6.43,7.29-11.98,14.87-16.73,22.66l-30.37-36.52C740.06,2765.2,768.86,2750.49,800.96,2742.33z"/>
			</g>
		</g>
		<g>
			<g>
				<path class="st52" d="M1244.49,2949.43c7.1-31.29,19.25-61.14,35.56-87.81c5.91-9.67,16.24-30.6,26.12-35.42
					c9.59-4.68,23.7,3.47,33.45,6.01c61.8,16.11,125.71,22.27,189.15,18.15c5.05-0.33,10.24-0.7,15.06,1.01
					c4.82,1.72,9.24,6.05,9.81,11.67c0.58,5.62-4.17,11.66-9.09,10.36c5.53-2.07,12.89,3.67,13.7,10.12
					c0.81,6.45-4.46,13-10.29,12.77c5.95,4.21,8.19,12.76,6.14,20.32c-2.05,7.56-7.22,13.6-12.85,18.38
					c-16.89,14.35-38.43,19.65-59.38,23.13c-75.88,12.62-154.17,6.19-227.44-18.67L1244.49,2949.43z"/>
			</g>
			<g class="st53">
				<path d="M1544.55,2873.4c1.16-0.44,2.41-0.51,3.66-0.32C1547.05,2873.59,1545.81,2873.74,1544.55,2873.4z"/>
			</g>
			<g class="st54">
				<path d="M1480.08,2851.47c3.32,10.8,7.71,21.39,14.85,31.65c14.49,19.47,37,30.2,59.61,31.31c-0.12,0.73-0.24,1.47-0.43,2.18
					c-2.05,7.56-7.22,13.6-12.85,18.38c-1.53,1.3-3.1,2.51-4.7,3.66c-25.48-3.36-49.99-16.18-68-38.75
					c-11.69-15.27-19.14-32.31-23.1-50.05C1456.97,2850.74,1468.52,2851.26,1480.08,2851.47z"/>
			</g>
			<g class="st55">
				<path d="M1445.45,2849.86c3.96,17.74,11.41,34.78,23.1,50.05c18,22.56,42.52,35.38,68,38.75
					c-14.02,10.12-30.66,14.98-47.32,18.16c-20-9.77-37.22-24.84-49.09-46.66c-10.61-20.09-16.68-41.21-17.99-62.5
					C1429.9,2848.55,1437.67,2849.27,1445.45,2849.86z"/>
			</g>
			<g class="st53">
				<path d="M1280.04,2861.62c5.91-9.67,16.24-30.6,26.12-35.42c9.59-4.68,23.7,3.47,33.45,6.01c27.18,7.08,54.76,12.24,82.54,15.45
					c1.31,21.28,7.38,42.4,17.99,62.5c11.87,21.83,29.09,36.89,49.09,46.66c-2.45,0.47-4.91,0.9-7.36,1.31
					c-75.88,12.62-154.17,6.19-227.44-18.67l-9.94,9.97C1251.58,2918.14,1263.73,2888.29,1280.04,2861.62z"/>
			</g>
		</g>
		<g class="st19">
			<g class="st27">
				<path class="st52" d="M1341.97,2467.88c74.46,58.02,156,106.95,242.24,145.33c6.75,3.01,14.19,6.61,16.79,13.52
					c2.61,6.92-4.43,16.59-10.99,13.17c6.33-0.35,10.3,8.45,9.48,14.74c-0.82,6.28-8.05,10.86-14.08,8.91
					c7.53,0.94,7.08,13.64,1.93,19.22c-5.14,5.58-13.46,6.6-21.03,7.07c-130.55,8.21-263.68-42.67-355.48-135.84
					C1255.53,2525.05,1297.27,2496.83,1341.97,2467.88z"/>
			</g>
			<g class="st27">
				<path class="st56" d="M1395.65,2546.6c-2.87-4.22,3.03-8.91,6.75-5.66c10.23,8.91,20.1,15.88,32.6,21.29
					c5.62,2.44,2.31,12.24-3.62,10.26C1417.36,2567.82,1404.04,2558.93,1395.65,2546.6z"/>
			</g>
			<g class="st27">
				<path class="st56" d="M1351.09,2556.03c10.87,5.75,20.96,13.34,31.03,20.36c6.09,4.24-1.76,12.82-7.8,8.57
					c-9.62-6.79-19.73-13.42-28.46-21.34C1342,2560.13,1346.4,2553.55,1351.09,2556.03z"/>
			</g>
			<g class="st27">
				<path class="st56" d="M1422.91,2592.03c13.72,7.08,27.88,12.53,42.88,16.24c7.33,1.81,4.93,13.21-2.44,11.48
					c-16-3.75-31.17-9.76-45.22-18.29C1412.38,2597.97,1416.79,2588.87,1422.91,2592.03z"/>
			</g>
			<g class="st57">
				<path d="M1496.02,2596.31c-74.63-33.03-170.18-41.28-246-7.09c-13.73-10.96-26.84-22.69-39.18-35.22
					c44.7-28.95,86.44-57.18,131.14-86.12c74.46,58.02,156,106.95,242.24,145.33c6.75,3.01,14.19,6.61,16.79,13.52
					c2.18,5.78-2.38,13.45-7.76,13.84c-0.99-0.48-2.07-0.73-3.23-0.67c1.08,0.56,2.17,0.74,3.23,0.67
					c4.39,2.14,6.92,8.94,6.25,14.07c-0.76,5.83-7.04,10.18-12.75,9.22c-0.41-0.15-0.85-0.25-1.33-0.31
					c0.48,0.06,0.92,0.17,1.33,0.31c6.13,2.2,5.42,13.68,0.6,18.91c-5.14,5.58-13.46,6.6-21.03,7.07c-0.13,0.01-0.26,0.01-0.39,0.02
					C1555.76,2650.2,1535.92,2612.23,1496.02,2596.31z"/>
			</g>
			<g class="st58">
				<path d="M1452.83,2624.43c-52.04-29.78-128.45-45.47-185.32-21.95c-5.94-4.28-11.77-8.7-17.49-13.27
					c75.83-34.19,171.37-25.94,246,7.09c39.91,15.92,59.74,53.89,69.91,93.55c-22.41,1.39-44.89,1.01-67.22-1
					C1493.1,2662.54,1478.94,2639.09,1452.83,2624.43z"/>
			</g>
		</g>
		<g>
			<g>
				<path class="st50" d="M767.16,2832.23c0.15,5.12,0.54,10.2,1.06,15.27c3.11,28.09,12.17,54.97,28.79,77.86
					c16.98,23.41,39.81,40.34,65.61,52.96c35.48,17.36,76.55,26.59,115.79,33.32c9.72,1.66,19.49,3.25,29.26,4.74
					c48.38,7.4,97.39,12.39,146.08,12.23c37.15-0.1,74.11-3.2,110.43-10.52c7.69-1.55,15.36-3.3,22.99-5.24
					c34.14-8.67,68.94-22.44,91.21-49.74c26.3-32.25,30.22-77.02,29.24-118.64c-2.9-126.13-39.77-248.68-76.33-369.43
					c-7.31-2.06-14.62-4.04-21.91-5.93c-122.87-32.04-241.1-41.51-369.36-42.3c-10.18,59.81-41.94,113.53-74.84,164.51
					c-32.9,50.98-68.02,101.74-86.36,159.56c-4.18,13.16-7.36,26.82-9.36,40.66C767.52,2805.07,766.69,2818.71,767.16,2832.23z"/>
			</g>
			<g class="st55">
				<path d="M1049.77,2810c-0.75-0.75-1.34-1.69-1.62-2.87C1048.96,2807.96,1049.48,2808.94,1049.77,2810z"/>
			</g>
			<g class="st55">
				<path d="M1027.94,2820.41c-0.24-0.39-0.46-0.79-0.64-1.21C1027.57,2819.6,1027.78,2820,1027.94,2820.41z"/>
			</g>
			<g>
				<path class="st52" d="M1121.27,2953.52c3.66,29.81,11.73,53.49,22.6,72.39c3.27,0.98,6.57,1.87,9.9,2.7
					c37.15-0.1,74.11-3.2,110.43-10.52c7.69-1.55,15.36-3.3,22.99-5.24c34.14-8.67,68.94-22.44,91.21-49.74
					c26.3-32.25,30.22-77.02,29.24-118.64c-2.9-126.13-39.77-248.68-76.33-369.43c-7.31-2.06-14.62-4.04-21.91-5.93
					c-21.91,4.24-42.38,12.55-56.37,27.63c-26.1,28.16-54.43-17.31-70.01,17.77c-16.81,37.9-44.54,151.67-50.62,193.83
					C1121.15,2786.37,1112.5,2882.18,1121.27,2953.52z"/>
			</g>
			<g>
				<path class="st56" d="M1373.3,2909.47c4.57-11.49,5.16-22.47,5.93-34.64c0.29-4.55,6.41-5.13,7.81-0.89
					c4.08,12.43,1.48,26.81-3.56,38.56C1380.84,2918.67,1370.75,2915.9,1373.3,2909.47z"/>
			</g>
			<g>
				<path class="st56" d="M1352.64,2823.13c0.66-3.8,6.06-2.95,7.01,0.15c3.36,11,2.14,23.71,0.92,34.96
					c-0.74,6.8-11.49,6.57-10.67-0.23C1351.28,2846.47,1350.65,2834.55,1352.64,2823.13z"/>
			</g>
			<g>
				<path class="st56" d="M1339.15,2956.76c4.26-12.79,7.47-25.53,8.86-38.98c0.56-5.44,8.5-5.41,8.59,0.18
					c0.21,14.26-2.07,28.53-7.51,41.76C1346.61,2965.76,1337,2963.21,1339.15,2956.76z"/>
			</g>
			<g>
				<path class="st59" d="M825.86,2839.6c-1.83,12.24,0.11,23.05,2.13,35.07c0.76,4.5-5.07,6.46-7.4,2.65
					c-6.81-11.17-7.56-25.76-5.34-38.36C816.42,2832.37,826.88,2832.76,825.86,2839.6z"/>
			</g>
			<g>
				<path class="st59" d="M865.69,2918.94c0.22,3.85-5.23,4.25-6.85,1.46c-5.78-9.94-7.49-22.59-8.88-33.82
					c-0.84-6.79,9.68-9.02,10.44-2.22C861.69,2895.91,865.03,2907.37,865.69,2918.94z"/>
			</g>
			<g>
				<path class="st59" d="M848.31,2785.77c-1.23,13.43-1.44,26.56,0.28,39.97c0.7,5.43-7.04,7.21-8.4,1.78
					c-3.46-13.83-4.5-28.25-2.23-42.37C839,2778.71,848.93,2778.99,848.31,2785.77z"/>
			</g>
			<g class="st53">
				<path d="M865.21,2591.33c32.9-50.98,64.66-104.7,74.84-164.51c135.87,0.84,260.48,11.4,391.27,48.23
					c10.72,35.4,21.46,70.95,31.36,106.71c-163.5,3.32-326.03,31.55-479.48,96.96c-35.65,14.39-69.99,33.98-99.75,58.84
					C802.66,2685.2,834.87,2638.35,865.21,2591.33z"/>
			</g>
			<g class="st51">
				<path d="M769.49,2791.55c2.01-13.84,5.18-27.5,9.36-40.66c1.42-4.49,2.98-8.92,4.6-13.33c29.76-24.86,64.1-44.45,99.75-58.84
					c153.46-65.42,315.99-93.65,479.48-96.96c5.58,20.14,10.88,40.34,15.77,60.61c-141.98-4.78-288.91,24.9-407.9,109.77
					c-35.24,25.28-66.55,70.15-52.3,113.83c26.57,76.47,112.82,99.98,188.41,114.6c80.81,14.44,164.09,21.9,242.48,7.75
					c-18.72,11.6-40.46,19.08-61.95,24.54c-7.63,1.94-15.3,3.69-22.99,5.24c-83.96,16.89-171.24,11.33-256.52-1.71
					c-9.77-1.49-19.54-3.08-29.26-4.74c-39.24-6.73-80.31-15.95-115.79-33.32c-25.8-12.63-48.62-29.55-65.61-52.96
					c-16.63-22.89-25.7-49.77-28.8-77.86c-0.54-5.06-0.91-10.15-1.06-15.27C766.7,2818.71,767.53,2805.06,769.49,2791.55z"/>
			</g>
		</g>
		<g>
			<g>
				<path class="st52" d="M1204.57,2510.06c71.56,61.55,150.65,114.36,234.93,156.87c6.6,3.33,13.85,7.29,16.12,14.32
					c2.27,7.03-5.23,16.36-11.61,12.63c6.34-0.04,9.88,8.94,8.76,15.18c-1.12,6.24-8.57,10.46-14.5,8.22
					c7.48,1.3,6.41,13.96,1,19.29c-5.41,5.33-13.76,5.94-21.35,6.05c-130.79,1.89-261.31-55.36-348.5-152.87
					C1115.46,2562.99,1158.52,2536.81,1204.57,2510.06z"/>
			</g>
			<g>
				<path class="st56" d="M1254.37,2591.28c-2.67-4.35,3.46-8.75,7.02-5.33c9.78,9.4,19.31,16.83,31.53,22.84
					c5.5,2.71,1.72,12.34-4.12,10.08C1275.04,2613.53,1262.16,2604,1254.37,2591.28z"/>
			</g>
			<g>
				<path class="st56" d="M1209.41,2598.55c10.58,6.27,20.29,14.34,30.01,21.84c5.87,4.53-2.38,12.72-8.2,8.18
					c-9.28-7.24-19.06-14.36-27.4-22.69C1200.14,2602.2,1204.85,2595.85,1209.41,2598.55z"/>
			</g>
			<g>
				<path class="st56" d="M1279.41,2637.98c13.36,7.73,27.25,13.87,42.05,18.29c7.23,2.16,4.29,13.43-2.99,11.35
					c-15.8-4.51-30.66-11.25-44.29-20.46C1268.6,2643.4,1273.45,2634.53,1279.41,2637.98z"/>
			</g>
			<g class="st55">
				<path d="M1352.22,2645.79c-72.95-36.6-167.98-49.46-245.37-18.98c-13.18-11.61-25.71-23.96-37.43-37.07
					c46.05-26.75,89.11-52.93,135.15-79.68c71.56,61.56,150.65,114.36,234.93,156.87c6.6,3.33,13.85,7.28,16.12,14.32
					c1.9,5.88-3.03,13.32-8.42,13.45c-0.96-0.53-2.03-0.83-3.19-0.82c1.05,0.61,2.13,0.85,3.19,0.82c4.29,2.35,6.48,9.26,5.57,14.36
					c-1.04,5.78-7.52,9.83-13.18,8.6c-0.4-0.17-0.84-0.3-1.31-0.38c0.47,0.08,0.91,0.21,1.31,0.38c6.01,2.49,4.76,13.92-0.31,18.91
					c-5.41,5.33-13.76,5.94-21.35,6.05c-0.13,0-0.26,0-0.39,0C1409.29,2702.5,1391.31,2663.62,1352.22,2645.79z"/>
			</g>
			<g class="st54">
				<path d="M1307.73,2671.79c-50.54-32.26-126.1-51.62-184.05-30.88c-5.72-4.56-11.34-9.26-16.83-14.1
					c77.39-30.48,172.43-17.62,245.37,18.98c39.09,17.83,57.06,56.71,65.31,96.82c-22.45,0.3-44.88-1.16-67.09-4.25
					C1346.11,2711.8,1333.09,2687.69,1307.73,2671.79z"/>
			</g>
		</g>
		<g>
			<g>
				<g>
					<path class="st60" d="M867.61,1795.49c-20.13,27.84-38.63,56.29-55.55,85.36c-43.78,74.95-77.42,154.04-103.18,237.62
						c-6.44,20.75-12.35,41.8-17.82,63.12c0.62-2.42-46.94-37.47-51.23-42.46c-72.38-84.15-120.64-163.81-144.05-228.49
						c-9.32-25.75-42.32-110.36,1.44-122.01c58.61-15.61,126.51-16.65,186.7-14.77C808.86,1777.76,865.04,1799.06,867.61,1795.49z"
						/>
				</g>
				<g>
					<path class="st61" d="M812.07,1880.85c-43.78,74.95-77.42,154.04-103.18,237.62c-63.71-71.59-135.3-177.01-151.37-216.24
						c-3.79-9.27-7.63-19.39-4.98-29.05c2.57-9.35,10.93-16.27,20.08-19.51c9.15-3.26,19.06-3.44,28.78-3.35
						C672.62,1851,742.74,1863.76,812.07,1880.85z"/>
				</g>
				<g class="st53">
					<path d="M867.61,1795.49c-4.12,5.68-8.17,11.4-12.11,17.14c-26.44-5.48-77.42-15.22-157.1-17.7
						c-58.68-1.84-124.86-0.82-181.98,14.39c-42.67,11.35-10.51,93.83-1.42,118.93c22.82,63.04,69.87,140.71,140.42,222.73
						c2.64,3.07,22.22,17.9,36.06,28.97l-0.42,1.63c0.62-2.42-46.94-37.47-51.23-42.46c-72.38-84.15-120.64-163.81-144.05-228.49
						c-9.32-25.75-42.32-110.36,1.44-122.01c58.61-15.61,126.51-16.65,186.7-14.77C808.86,1777.76,865.04,1799.06,867.61,1795.49z"
						/>
				</g>
				<g class="st53">
					<path d="M812.07,1880.85c-21.42-5.28-42.91-10.14-64.49-14.37c-16.75,41.24-43.32,73.22-94.53,75.36
						c-28.55,2.36-57.26-4.13-83.66-15.85c27.12,48.63,86.07,132.44,139.5,192.47C734.65,2034.9,768.29,1955.81,812.07,1880.85z"/>
				</g>
			</g>
			<g>
				<g>
					<path class="st60" d="M1284.71,1843.4c-20.78-11.99-41.67-22.64-62.67-31.98c-54.19-24.2-109.23-39.99-165.74-49.08
						c-14.04-2.29-28.17-4.13-42.4-5.6c1.62,0.17,15.41-41.32,17.8-45.3c40.22-67.16,81.74-115.02,118.12-141.63
						c14.48-10.59,61.67-47.25,76.36-14.8c19.68,43.46,31.84,96.03,40.87,142.99C1285.81,1795.48,1282.05,1841.87,1284.71,1843.4z"
						/>
				</g>
				<g>
					<path class="st61" d="M1222.04,1811.42c-54.19-24.2-109.23-39.99-165.74-49.08c33.86-58.8,87.48-128.12,109.23-145.72
						c5.14-4.15,10.8-8.45,17.28-7.66c6.27,0.77,12,6.36,15.57,13.04c3.59,6.68,5.38,14.34,6.97,21.9
						C1217.01,1699.28,1220.95,1755.38,1222.04,1811.42z"/>
				</g>
				<g class="st53">
					<path d="M1284.71,1843.4c-4.24-2.45-8.49-4.85-12.74-7.16c-1.07-21.24-3.64-62.08-15.6-124.25
						c-8.8-45.79-20.66-97.03-39.84-139.38c-14.32-31.64-60.32,4.09-74.44,14.42c-35.46,25.94-75.94,72.59-115.14,138.06
						c-1.47,2.45-7.4,19.58-11.96,31.77l-1.09-0.11c1.62,0.17,15.41-41.32,17.8-45.3c40.22-67.16,81.74-115.02,118.12-141.63
						c14.48-10.59,61.67-47.25,76.36-14.8c19.68,43.46,31.84,96.03,40.87,142.99C1285.81,1795.48,1282.05,1841.87,1284.71,1843.4z"
						/>
				</g>
				<g class="st53">
					<path d="M1222.04,1811.42c-0.34-17.31-0.95-34.63-1.97-51.93c-28.57-7.62-53.03-24.07-63.04-63.54
						c-6.31-21.85-7.13-44.99-4.3-67.01c-25.74,27.4-68.02,84.09-96.42,133.4C1112.81,1771.43,1167.85,1787.22,1222.04,1811.42z"/>
				</g>
			</g>
			<g>
				<path class="st50" d="M694.6,2571.87c15.47,17.99,39.63,23.05,61.98,26.27c8.59,1.22,17.16,2.33,25.75,3.32
					c59.69,6.85,119.68,7.79,179.1,3.15c19.2-1.5,38.34-3.59,57.37-6.26c64.3-8.96,127.61-24.48,188.76-46.15
					c63.37-22.45,124.43-51.49,181.98-86.72c27.61-16.89,50.93-33.99,70.54-51.14c66.19-57.83,90.23-116.01,94.3-167.5
					c3.19-40.11-5.72-76.17-16.24-104.82c-3.62-9.92-7.44-18.93-11.03-26.93c-21.22-47.39-82.79-175.08-157.19-247.72
					c-66.54-64.97-140.58-122.59-228.78-141.35c-58.28-12.39-118.32-8.61-174.46,8.06c-47.46,14.06-92.16,37.36-130.7,67.91
					c-26.05,20.66-49.8,44.27-70.58,70.02c-52.79,65.48-82.7,141.41-98,222.23c-21.7,114.76-13.96,239.41-0.31,358.12
					c2.25,19.52,4.66,38.88,7.11,58C677,2532.11,680.44,2555.44,694.6,2571.87z"/>
			</g>
			<g>
				<path class="st60" d="M1018.8,2598.35c64.3-8.96,127.61-24.48,188.76-46.15c4.98-67.34,6.74-136.34,0.55-208.43
					c-2.5-29.16-7.68-62.45-23.91-84.87c-13.49-18.65-31.52-24.39-45.6-19.94c-14.09,4.49-24.93,17.6-34.71,31.66
					C1049.15,2349.46,1018.99,2466.95,1018.8,2598.35z"/>
			</g>
			<g>
				<path class="st62" d="M1216.61,1766.5c9.51,4.81,18.8,10.06,28.1,15.27c6.56,3.68-0.48,13.16-6.99,9.44
					c-8.81-5.05-17.64-10.08-26.23-15.5C1206.45,1772.53,1211.22,1763.78,1216.61,1766.5z"/>
			</g>
			<g>
				<path class="st62" d="M1112.72,1762.83c13.6,3.92,26.77,10.93,39.63,16.79c6.98,3.18,2.6,14.3-4.4,11.1
					c-13.31-6.07-27.56-11.59-39.86-19.57C1103.22,1767.99,1107.84,1761.42,1112.72,1762.83z"/>
			</g>
			<g>
				<path class="st62" d="M1222.97,1838.43c14.45,8.53,28.19,18.45,41.98,28c6.2,4.29-0.78,13.67-6.96,9.4
					c-13.78-9.53-27.89-18.88-40.95-29.39C1211.95,1842.34,1217.53,1835.23,1222.97,1838.43z"/>
			</g>
			<g>
				<path class="st62" d="M1316.36,1847.63c11.47,7.52,21.45,18.4,31.46,27.75c5.36,5-1.39,14.31-6.86,9.27
					c-10.4-9.58-22.48-19.07-31.12-30.31C1306.49,1850.01,1311.96,1844.74,1316.36,1847.63z"/>
			</g>
			<g>
				<path class="st62" d="M1248.48,1911.88c13.42,5.56,25.81,16.06,37.76,24.22c6.25,4.27-0.76,13.69-6.99,9.44
					c-11.99-8.19-26.07-15.92-36.18-26.43C1239.77,1915.67,1244.43,1910.2,1248.48,1911.88z"/>
			</g>
			<g>
				<path class="st62" d="M1340.43,1910.91c13.58,10.71,26.19,22.85,38.72,34.75c5.27,5-1.47,14.17-6.87,9.15
					c-12.99-12.1-26.28-24.3-38.12-37.55C1330.77,1913.45,1336.49,1907.8,1340.43,1910.91z"/>
			</g>
			<g>
				<path class="st62" d="M1336.13,1971.52c10.86,7.32,21.06,15.16,31.2,23.47c5.41,4.43-1.07,13.2-6.47,8.74
					c-10.41-8.6-20.32-17.38-29.89-26.9C1327.86,1973.73,1332.81,1969.28,1336.13,1971.52z"/>
			</g>
			<g>
				<path class="st62" d="M1390.45,1994.35c7.38,8.54,14.57,17.22,21.68,25.98c4.58,5.64-3.65,13.44-8.25,7.77
					c-7.13-8.78-14.16-17.62-21.02-26.61C1378.89,1996.27,1385.99,1989.19,1390.45,1994.35z"/>
			</g>
			<g>
				<path class="st62" d="M1134.47,1839.96c11.53,7.83,26.93,15.76,35.81,26.62c2.66,3.26-1.03,7.36-4.64,6.21
					c-6.73-2.15-12.67-6.82-18.54-10.67c-6.51-4.27-12.99-8.59-19.44-12.96C1121.57,1845.01,1128.4,1835.84,1134.47,1839.96z"/>
			</g>
			<g>
				<path class="st62" d="M1025.24,1799.95c15.63,2.52,31.31,8.02,44.23,17.33c4.61,3.32,0.3,11.73-4.97,8.94
					c-13.08-6.91-25.99-12.29-40.66-14.77C1016.51,1810.21,1017.85,1798.75,1025.24,1799.95z"/>
			</g>
			<g class="st54">
				<path d="M759.38,2275.75c157.34,147.37,386.44,157.75,577.58,97.82c79.21-23.84,155.8-68.02,217.42-126.74
					c3.19-40.11-5.72-76.17-16.24-104.82c-72.79,65.77-163.17,112.44-260.14,131.49c-164.03,30.15-336.79-88.54-383.9-245.06
					c-27.86-92.58-1.05-187.21,52.25-265.75c6.36-9.57,13.16-19.18,20.34-28.63c-47.46,14.06-92.16,37.36-130.7,67.91
					c-26.05,20.66-49.8,44.27-70.58,70.02c-52.79,65.48-82.7,141.41-98,222.23C677.02,2161.38,706.56,2225.38,759.38,2275.75z"/>
			</g>
			<g class="st55">
				<path d="M667.1,2452.36c248.13,128.51,545.2,62.08,792.98-38.02c66.19-57.83,90.23-116.01,94.3-167.5
					c-61.62,58.72-138.22,102.9-217.42,126.74c-191.13,59.93-420.24,49.55-577.58-97.82c-52.82-50.38-82.36-114.37-91.97-181.51
					C645.71,2209,653.45,2333.65,667.1,2452.36z"/>
			</g>
			<g class="st53">
				<path d="M694.6,2571.87c15.47,17.99,39.63,23.05,61.98,26.27c8.59,1.22,17.16,2.33,25.75,3.32
					c59.69,6.85,119.68,7.79,179.1,3.15c151.11-11.83,298.54-59.83,428.12-139.14c27.61-16.89,50.93-33.99,70.54-51.14
					c-247.79,100.1-544.86,166.53-792.98,38.02c2.25,19.52,4.66,38.88,7.11,58C677,2532.11,680.44,2555.44,694.6,2571.87z"/>
			</g>
			<g class="st51">
				<path class="st0" d="M1111.54,1736.98c28.13,1.86,55.54,9.9,81.77,20.25c37.74,14.89,73.74,34.79,104.63,61.09
					c30.88,26.31,56.56,59.2,71.98,96.72c4.63,11.26,8.26,24.34,2.93,35.29c-5.72,11.75-20.36,16.92-33.35,15.47
					c-12.99-1.45-24.72-8.14-35.97-14.79c-88.71-52.46-173.2-111.69-257.58-170.86c-15.56-10.91-21.08-25.91-0.95-33.86
					C1065.96,1738.01,1089.15,1735.51,1111.54,1736.98z"/>
			</g>
			<g>
				<g>
					<path class="st60" d="M1232.56,2016.6c-1.89,7.69-2.86,15.75-1.44,23.54c1.42,7.79,5.46,15.32,12.01,19.78
						c8.36,5.69,19.77,5.56,29.01,1.43c9.23-4.13,16.51-11.74,22.2-20.11c9.25-13.63,14.84-29.72,16.01-46.14
						c1.36-18.94-12.63-48.59-35.98-37.54C1253.08,1967.62,1237.91,1994.76,1232.56,2016.6z"/>
				</g>
				<g>
					<path class="st63" d="M1274.37,1957.55c-0.12,0.06-0.23,0.13-0.34,0.18c8.67,7.24,15.17,18.57,17.97,29.58
						c6.97,27.39-2.16,58.4-22.74,75.14c0.98-0.33,1.95-0.68,2.89-1.1c9.23-4.13,16.51-11.74,22.2-20.11
						c9.25-13.63,14.84-29.72,16.01-46.14C1311.71,1976.15,1297.72,1946.5,1274.37,1957.55z"/>
				</g>
			</g>
			<g>
				<g>
					<path class="st60" d="M1456.18,1910.59c5.96,4.89,11.42,10.59,14.87,17.49c3.44,6.9,4.7,15.12,2.2,22.42
						c-3.19,9.32-12.15,15.88-21.75,18.06c-9.6,2.18-19.72,0.5-29.03-2.69c-15.16-5.21-28.91-14.48-39.43-26.58
						c-12.12-13.96-18.56-45.22,6.09-50.26C1411.58,1884.43,1439.25,1896.71,1456.18,1910.59z"/>
				</g>
				<g>
					<path class="st63" d="M1389.12,1889.02c0.12-0.03,0.25-0.03,0.37-0.06c-2.53,10.7-0.97,23.32,3.28,33.53
						c10.57,25.4,35.79,44.21,61.61,45.23c-0.96,0.31-1.92,0.61-2.89,0.83c-9.6,2.18-19.72,0.5-29.03-2.69
						c-15.16-5.21-28.91-14.48-39.43-26.58C1370.92,1925.32,1364.48,1894.06,1389.12,1889.02z"/>
				</g>
			</g>
			<g>
				<path class="st60" d="M1486.2,2053.75c0,0,56.21,6.21,92.56,92.39c36.35,86.18-35.21,232.59-119.18,253.24
					C1375.6,2420.03,1335.69,2026.21,1486.2,2053.75z"/>
			</g>
			<g class="st64">
				<path class="st63" d="M1425.12,2072.26c15.31-15.65,35.43-23.2,61.08-18.51c0,0,17.35,1.94,38.99,18.4
					c-1.27,5.09-3.28,9.57-6.75,12.84c-62.04,57.17-92.48,159.16-10.4,213.71c16.02,11.3,32.19,15.16,48.15,14.21
					c-6.38,11.38-13.52,22.17-21.29,32.03c-25.03,5.58-52.58,3.4-67.53-15.89C1412.89,2260.15,1394.75,2155.98,1425.12,2072.26z"/>
			</g>
			<g>
				<path class="st63" d="M1425.12,2072.26c-30.37,83.72-12.22,187.89,42.24,256.8c14.95,19.29,42.5,21.47,67.53,15.89
					c-21.51,27.31-47.75,47.65-75.32,54.43C1389.91,2416.51,1350.58,2148.42,1425.12,2072.26z"/>
			</g>
			<g>
				<path class="st61" d="M1443.24,2222.26c4.05,15.9,18.26,27.43,35.27,23.26c11.87-2.91,19.57-13.54,29.31-20.11
					c3.46-2.34,7.07-4.09,10.86-5.11c-2.11-21.76-4.89-43.17-10.32-64.41c-5.83-22.76-14.22-44.56-22.93-66.35
					c-0.99-2.48,2.41-3.98,3.72-1.72c22.62,38.89,35.19,86.56,37.14,131.47c1.05,0.01,2.11,0.06,3.2,0.18
					c11.52,1.33,26.14,10.55,34.98-1.66c1.2-1.66,4.34-0.72,3.92,1.49c-1.95,10.28-12.63,13.22-21.95,12.14
					c-10.13-1.17-18.91-6.79-29.17-2.22c-7.21,3.21-12.74,9.48-18.79,14.36c-10.8,8.7-23.52,13.57-37.44,9.48
					c-13.61-3.99-23.36-15.66-25.7-29.51C1434.48,2218.42,1441.98,2217.34,1443.24,2222.26z"/>
			</g>
			<g>
				<g>
					<path class="st61" d="M1469.39,2057.55c10.8-4.94,22.62-7.42,34.59-4.79c8.57,1.88,16.73,7.43,16.84,15.22
						c0.28,19.75-34.06,32.83-52.38,34.43c-14.04,1.23-39.89-2.76-30.5-20.32C1443.53,2071.62,1457.96,2062.78,1469.39,2057.55z"/>
				</g>
				<g class="st54">
					<path d="M1465.5,2070.72c17.84,8.27,39.25,2.51,49.67-12.85c0.71,0.56,1.38,1.15,1.98,1.78c-1.89,4.19-4.37,8.23-7.44,11.98
						c-13.03,13.34-30.11,16.4-46.57,10.53c-6.78-2-12.39-5.52-16.95-10.04c3.11-2.78,6.66-5.34,10.33-7.64
						C1459.1,2066.86,1462.05,2068.98,1465.5,2070.72z"/>
				</g>
				<g class="st55">
					<path d="M1437.93,2082.1c1.89-3.54,4.81-6.89,8.26-9.98c4.56,4.52,10.17,8.04,16.95,10.04c16.47,5.87,33.54,2.81,46.57-10.53
						c3.06-3.75,5.55-7.79,7.44-11.98c2.21,2.34,3.62,5.14,3.66,8.33c0.03,2.13-0.36,4.18-1.08,6.15
						c-17.97,17.91-45.91,25.14-72.91,15.35c-3.54-1.42-6.83-3.19-9.88-5.26C1437.23,2083.54,1437.54,2082.83,1437.93,2082.1z"/>
				</g>
				<g class="st53">
					<path d="M1436.95,2084.22c3.04,2.06,6.34,3.84,9.88,5.26c26.99,9.79,54.94,2.56,72.91-15.35
						c-5.89,16.29-34.96,26.85-51.3,28.28C1454.98,2103.59,1430.71,2099.97,1436.95,2084.22z"/>
				</g>
				<g class="st53">
					<path class="st65" d="M1499.14,2053.76c1.31,0.06,2.65,0.18,3.85,0.72c1.19,0.54,2.23,1.6,2.41,2.9
						c0.25,1.84-1.24,3.46-2.76,4.52c-3.28,2.29-7.21,3.42-11.11,4.31c-7.7,1.76-15.79,2.71-23.48,0.91
						c-1.01-0.24-2.1-0.59-2.65-1.47c-0.5-0.79-0.41-1.84-0.01-2.69c1.06-2.28,4.17-3.13,6.32-4.09c2.82-1.26,5.75-2.3,8.74-3.1
						C1486.51,2054.13,1492.85,2053.46,1499.14,2053.76z"/>
				</g>
			</g>
			<g>
				<g>
					<path class="st61" d="M1368.43,2086.43c-0.88,3.74-3.78,6.84-7.65,7.49c-9.17,1.56-15.88-10.99-18.34-18.07
						c-2.32-6.67,0.04-14.5,8.44-13.82c7.34,0.59,13.02,7.82,16.01,13.93C1368.46,2079.19,1369.24,2082.96,1368.43,2086.43z"/>
				</g>
				<g class="st53">
					<path d="M1354.87,2069.5c-1.59-2.42-3.07-4.96-4.59-7.49c0.2,0.01,0.39,0,0.6,0.01c7.34,0.59,13.02,7.82,16.01,13.93
						c1.58,3.23,2.36,7,1.54,10.47c-0.88,3.74-3.78,6.84-7.65,7.49c-1.29,0.22-2.52,0.14-3.7-0.15
						C1359.4,2086.04,1358.78,2077.71,1354.87,2069.5z"/>
				</g>
			</g>
			<g>
				<g>
					<path class="st61" d="M1450.67,2037.67c-0.88,3.74-3.78,6.84-7.65,7.49c-9.18,1.56-15.88-10.99-18.34-18.07
						c-2.32-6.67,0.04-14.5,8.44-13.83c7.34,0.59,13.02,7.82,16.01,13.93C1450.71,2030.43,1451.49,2034.2,1450.67,2037.67z"/>
				</g>
				<g class="st53">
					<path d="M1437.11,2020.74c-1.59-2.42-3.07-4.96-4.59-7.48c0.2,0.01,0.39-0.01,0.6,0.01c7.34,0.59,13.02,7.82,16.01,13.93
						c1.58,3.23,2.36,7,1.54,10.47c-0.88,3.74-3.78,6.84-7.65,7.49c-1.29,0.22-2.52,0.14-3.7-0.15
						C1441.64,2037.29,1441.03,2028.95,1437.11,2020.74z"/>
				</g>
			</g>
		</g>
		<g>
			<g>
				<path class="st52" d="M1060.43,3018.84c0.51,0.21,1.03,0.42,1.54,0.63c2.03,0.82,4.04,1.61,6.07,2.41
					c4.36,1.7,8.72,3.33,13.13,4.92c3.77,1.35,7.59,2.69,11.41,3.96c1.95,0.66,3.93,1.32,5.91,1.96c0.13,0.03,0.26,0.06,0.36,0.11
					c2.04,0.64,4.1,1.29,6.15,1.93c2.09,0.63,4.17,1.27,6.26,1.88c2.09,0.63,4.17,1.23,6.26,1.81c0.16,0.05,0.33,0.09,0.49,0.13
					c4.34,1.23,8.7,2.42,13.07,3.52c2.26,0.57,4.55,1.15,6.81,1.7c4.55,1.08,9.13,2.12,13.71,3.12c0.24,0.04,0.49,0.1,0.73,0.16
					c6.64,1.4,13.29,2.7,19.96,3.86c4.62,0.78,9.24,1.54,13.88,2.22c2.32,0.36,4.63,0.67,6.95,0.99c2.33,0.32,4.65,0.61,6.98,0.91
					c4.65,0.59,9.31,1.09,13.98,1.53c8.92,0.87,17.85,1.52,26.8,1.91c71.69,3.38,143.98-7.4,211.02-33.21
					c5.99-2.32,12.33-5.06,15.68-10.55c3.32-5.5,1.49-14.39-4.8-15.77c6.83-0.65,12.69-6.69,13.32-13.47
					c0.03-0.06,0.03-0.13,0.04-0.19c0.02-0.35,0.05-0.69,0.05-1.02c-0.01-7.28-6.14-14.02-13.38-14.7c0.07-0.02,0.13-0.06,0.2-0.07
					c2.01-0.75,3.49-1.99,4.48-3.49c0.15-0.21,0.29-0.44,0.42-0.69c0.37-0.58,0.61-1.22,0.78-1.86c0.09-0.38,0.19-0.79,0.26-1.2
					c0.24-1.57,0.09-3.19-0.41-4.7c-0.14-0.42-0.31-0.85-0.5-1.25c-1.31-2.68-3.83-4.81-7.41-5.28c-2.97-0.38-5.97-0.79-8.93-1.22
					c-0.82-0.12-1.64-0.22-2.45-0.37c-2.99-0.43-5.96-0.88-8.93-1.35c-3.38-0.52-6.77-1.09-10.14-1.67
					c-2.79-0.48-5.6-0.98-8.39-1.48c-0.99-0.18-1.97-0.38-2.96-0.56c-2.36-0.45-4.72-0.9-7.08-1.37c-0.94-0.2-1.89-0.37-2.85-0.57
					c-2.93-0.6-5.85-1.19-8.78-1.84c-0.13-0.03-0.26-0.04-0.36-0.07c-3.02-0.65-6.04-1.32-9.05-2.03c-3.83-0.86-7.66-1.76-11.46-2.7
					c-2.91-0.71-5.79-1.43-8.67-2.18c-0.43-0.09-0.83-0.21-1.26-0.33c-2.95-0.75-5.87-1.54-8.79-2.34c-0.21-0.04-0.43-0.1-0.64-0.18
					c-2.77-0.74-5.52-1.52-8.29-2.3c-4.2-1.19-8.39-2.44-12.56-3.71c-2.83-0.85-5.66-1.73-8.49-2.64c-2.17-0.67-4.36-1.37-6.53-2.09
					c-2.17-0.72-4.33-1.44-6.5-2.15c-2.17-0.72-4.31-1.46-6.47-2.22c-2.93-1.01-5.88-2.04-8.8-3.12c-0.7-0.22-1.4-0.47-2.08-0.75
					c-2.25-0.79-4.47-1.62-6.72-2.45c-1.35-0.51-2.71-1.02-4.04-1.55c-0.53-0.19-1.04-0.38-1.55-0.59
					c-1.91-0.72-3.81-1.46-5.71-2.21c-3.19-1.25-6.37-2.51-9.53-3.82c-2.54-1.03-5.05-2.07-7.56-3.12c-4.03-1.7-8.06-3.42-12.04-5.2
					c-2.51-1.11-5.02-2.22-7.52-3.36c-6.97-3.16-13.89-6.43-20.74-9.79c-2.44-1.21-4.87-2.41-7.31-3.64
					c-0.82-0.41-1.6-0.81-2.39-1.21c-2.12-1.06-4.22-2.14-6.31-3.25c-5.54-2.87-11.04-5.82-16.5-8.84c-1.26-0.7-2.51-1.39-3.74-2.09
					c-0.61-0.32-1.21-0.67-1.82-1.02c-1.9-1.07-3.81-2.14-5.69-3.23c-3.2-1.83-6.39-3.69-9.54-5.56c-2.9-1.73-5.78-3.45-8.63-5.22
					c-2.73-1.67-5.44-3.36-8.14-5.05c-0.21-0.12-0.4-0.25-0.58-0.37c-41.37-26.08-95.5-17.94-127.7,18.87
					c-0.57,0.63-1.11,1.27-1.68,1.9C979.47,2912.3,997.57,2992.55,1060.43,3018.84z"/>
			</g>
			<g class="st54">
				<path d="M1468.29,2964.54c-0.91,2.14-2.62,3.97-5.27,4.96c-0.07,0.03-0.14,0.05-0.21,0.08c7.23,0.68,13.38,7.43,13.38,14.69
					c0,0.41-0.03,0.81-0.06,1.21c-80.84-12.5-165.69-10.03-224.25,56.25c-4.84,5.43-8.41,11.02-10.99,16.75
					c-41.69-1.96-83.2-8.68-123.36-20.02C1202.69,2957.24,1345.41,2952.87,1468.29,2964.54z"/>
			</g>
			<g class="st55">
				<path d="M1060.43,3018.84c0.51,0.21,1.03,0.42,1.54,0.63c2.03,0.82,4.04,1.61,6.07,2.41c4.36,1.7,8.72,3.33,13.13,4.92
					c3.77,1.35,7.59,2.69,11.41,3.96c1.95,0.66,3.93,1.32,5.91,1.96c0.13,0.03,0.26,0.06,0.36,0.11c2.04,0.64,4.1,1.29,6.15,1.93
					c2.09,0.63,4.17,1.27,6.26,1.88c2.09,0.63,4.17,1.23,6.26,1.81c85.16-81.2,227.91-85.58,350.78-73.9
					c0.15-0.34,0.27-0.7,0.4-1.08c0.09-0.38,0.19-0.79,0.26-1.2c0.22-1.57,0.07-3.19-0.41-4.7c-0.14-0.42-0.31-0.85-0.5-1.25
					c-1.31-2.68-3.83-4.81-7.41-5.28c-2.97-0.38-5.97-0.79-8.93-1.22c-0.82-0.12-1.64-0.22-2.45-0.37
					c-2.99-0.41-5.96-0.88-8.93-1.35c-3.38-0.52-6.77-1.09-10.14-1.67c-2.79-0.48-5.6-0.98-8.39-1.48
					c-0.99-0.18-1.97-0.38-2.96-0.56c-2.36-0.45-4.72-0.9-7.08-1.37c-0.94-0.2-1.89-0.37-2.85-0.57c-2.93-0.6-5.85-1.19-8.78-1.84
					c-0.13-0.03-0.26-0.04-0.36-0.07c-3.02-0.65-6.04-1.32-9.05-2.03c-3.83-0.86-7.66-1.76-11.46-2.7
					c-2.91-0.71-5.79-1.43-8.67-2.18c-0.43-0.09-0.83-0.21-1.26-0.33c-2.93-0.75-5.87-1.52-8.79-2.34c-0.21-0.04-0.43-0.1-0.64-0.18
					c-2.77-0.74-5.52-1.52-8.29-2.3c-4.2-1.19-8.39-2.44-12.56-3.71c-2.83-0.85-5.66-1.73-8.49-2.64c-2.17-0.67-4.36-1.37-6.53-2.09
					c-2.17-0.7-4.33-1.41-6.5-2.15c-2.17-0.72-4.31-1.46-6.47-2.22c-2.93-1.01-5.88-2.04-8.8-3.12c-0.7-0.22-1.4-0.47-2.08-0.75
					c-2.25-0.79-4.47-1.62-6.72-2.45c-1.35-0.51-2.71-1.02-4.04-1.55c-0.53-0.19-1.04-0.38-1.55-0.59
					c-1.91-0.72-3.81-1.46-5.71-2.21c-3.19-1.25-6.37-2.51-9.53-3.82c-2.54-1.03-5.05-2.07-7.56-3.12c-4.03-1.7-8.06-3.42-12.04-5.2
					c-2.51-1.11-5.02-2.22-7.52-3.36c-6.97-3.16-13.89-6.43-20.74-9.79c-2.44-1.21-4.87-2.41-7.31-3.64
					c-0.82-0.41-1.6-0.81-2.39-1.21c-2.12-1.06-4.22-2.14-6.31-3.25c-5.54-2.87-11.04-5.82-16.5-8.84c-1.26-0.7-2.51-1.39-3.74-2.09
					c-0.61-0.32-1.21-0.67-1.82-1.02c-1.9-1.07-3.81-2.14-5.69-3.23c-3.2-1.83-6.39-3.69-9.54-5.56c-2.9-1.73-5.78-3.45-8.63-5.22
					c-2.73-1.67-5.44-3.34-8.14-5.05c-0.21-0.12-0.4-0.25-0.58-0.37c-41.37-26.08-95.5-17.94-127.7,18.87
					c-0.57,0.63-1.11,1.27-1.68,1.9C979.47,2912.3,997.57,2992.55,1060.43,3018.84z"/>
			</g>
		</g>
		<g>
			<g>
				<path class="st50" d="M644.07,2890.46c3.32-12.71,8.16-25.19,14.36-37.22c13.34-25.92,33.01-49.69,57.51-69.02l61.21,73.62
					c-0.32,0.28-0.64,0.56-0.95,0.85c-10.53,9.88-16.44,23.92-14.7,37.13c0.84,6.47,3.01,12.63,6.21,18.47
					c8.09,14.86,22.72,27.56,38.87,37.66c1.33,0.83,2.67,1.64,4.02,2.43c20.71,12.22,44.04,21.31,68.53,27.08
					c36.64,8.62,75.92,9.83,113.08,2.92c4.34-0.8,8.65-1.71,12.92-2.74c21.08-5.06,40.84-12.53,59.93-21.29
					c37.2-17.02,71.78-38.91,108.28-57.3c2.05-1.03,4.11-2.06,6.19-3.07c20.31-9.94,41.56-18.84,63.45-26.31
					c31.35-10.7,64.06-18.48,97.38-22.2c18.86-2.11,37.92-2.9,57.03-2.2c8.24,0.31,16.47,0.93,24.67,1.86
					c70.4,7.93,138.03,38.43,174.97,87.97c28.6,38.37,36.82,85.44,27.69,129.97v0.01c-2.08,10.22-5.1,20.28-8.97,30.1
					c-7.98,20.21-19.4,39.3-33.47,57.06c-22.54,28.51-51.89,53.61-84.79,74.38c-11.56,7.31-23.56,14.09-35.94,20.37
					c-31.89,16.19-66.25,28.95-102.03,38.35c-55.9,14.7-115.24,21.18-173.93,19.59c-21.16-0.58-42.22-2.17-63.11-4.69
					c-48.68-5.85-96.43-16.77-142.3-31.81c-37.61-12.32-73.93-27.4-108.44-44.71c-43.3-21.71-84.3-47.26-119.63-77.05
					c-22.86-19.25-43.35-40.29-60.58-63.22c-3.64-4.85-7.12-9.79-10.44-14.81c-26.16-39.55-42.03-84.12-43.14-128.76
					C637.52,2926,639.46,2908.07,644.07,2890.46z"/>
			</g>
			<g>
				<path class="st52" d="M1340.36,2851.48c10.48,62.96,36.05,125.44,78.4,177.22c42.28,51.66,98.64,95.44,163.53,127.55
					c14.07-17.76,25.48-36.85,33.47-57.06c3.88-9.82,6.89-19.88,8.97-30.1v-0.01c-94.33-51.44-167.04-129.64-202.66-217.94
					c-8.2-0.93-16.44-1.55-24.67-1.86C1378.28,2848.58,1359.22,2849.38,1340.36,2851.48z"/>
			</g>
			<g>
				<path class="st52" d="M1211,3144.76c33.36,57.59,85.34,107.61,148.52,144.6c35.78-9.4,70.14-22.17,102.03-38.35
					c-71.45-42.11-129.93-99.1-167.98-164.27c-38.51-65.95-55.95-140.05-50.6-213.06c-21.89,7.47-43.14,16.38-63.45,26.31
					C1157.24,2981.48,1167.49,3069.57,1211,3144.76z"/>
			</g>
			<g>
				<path class="st52" d="M955.94,3158.1c1.79,38.8,10.07,77.34,24.24,114.36c45.87,15.04,93.61,25.96,142.3,31.81
					c-62.16-105.9-83.03-228.21-57.42-343.91c-19.09,8.76-38.85,16.23-59.93,21.29c-4.27,1.03-8.58,1.95-12.92,2.74
					C965.88,3039.48,953.18,3098.64,955.94,3158.1z"/>
			</g>
			<g>
				<path class="st52" d="M681.09,3072.66c3.32,5.03,6.8,9.96,10.44,14.81c17.23,22.94,37.72,43.97,60.58,63.22
					c28.93-62.28,72.26-120.05,127.01-169.23c-24.49-5.76-47.82-14.86-68.53-27.08c-1.35-0.8-2.69-1.61-4.02-2.43
					C755.05,2984.38,711.83,3025.82,681.09,3072.66z"/>
			</g>
			<g>
				<path class="st52" d="M637.95,2943.91c41.97-14.11,84.32-23.75,129.75-29.61c-3.19-5.84-5.37-12-6.21-18.47
					c-1.74-13.21,4.16-27.26,14.7-37.13c-37.79-9.94-78.76-11.67-117.77-5.45c-6.19,12.03-11.04,24.51-14.36,37.22
					C639.46,2908.07,637.52,2926,637.95,2943.91z"/>
			</g>
			<g class="st53">
				<path d="M644.07,2890.46c3.32-12.71,8.16-25.19,14.36-37.22c7.63-14.84,17.35-28.96,28.86-41.96
					c-32.84,132.61,21.9,277.69,142.96,342.39c112.75,60.71,234.16,93.23,359.92,84.56c153.3-11.08,312.87-58.39,431.85-157.94
					c-1.74,6.38-3.81,12.7-6.26,18.91c-7.98,20.21-19.4,39.3-33.47,57.06c-22.54,28.51-51.9,53.61-84.79,74.38
					c-11.56,7.31-23.56,14.09-35.94,20.37c-31.89,16.19-66.25,28.95-102.03,38.35c-55.9,14.7-115.24,21.18-173.93,19.59
					c-21.16-0.57-42.22-2.17-63.11-4.69c-48.68-5.85-96.43-16.77-142.3-31.81c-37.61-12.32-73.93-27.4-108.44-44.71
					c-43.3-21.71-84.3-47.26-119.63-77.05c-22.86-19.25-43.35-40.29-60.58-63.22c-3.64-4.85-7.12-9.79-10.44-14.81
					c-26.16-39.55-42.03-84.12-43.14-128.76C637.52,2926,639.46,2908.07,644.07,2890.46z"/>
			</g>
			<g class="st51">
				<path d="M687.28,2811.28c8.59-9.71,18.18-18.79,28.65-27.05l30.37,36.52c-54.55,89.49-1.82,208.04,83.94,267.87
					c136.6,95.4,301.38,93.23,459.66,69.38c71.55-8.67,132.26-49.87,184.3-99.74c45.21-41.44,70.05-105.43,69.05-167.12
					c21.33,13.12,39.77,29.17,53.79,47.97c28.6,38.37,36.82,85.44,27.69,129.97v0.01c-0.76,3.75-1.7,7.48-2.71,11.19
					c-118.98,99.55-278.54,146.86-431.85,157.94c-125.75,8.67-247.17-23.85-359.92-84.56
					C709.18,3088.96,654.44,2943.88,687.28,2811.28z"/>
			</g>
			<g class="st53">
				<path class="st0" d="M1361.79,2902.78c14.29-0.26,29.04,0.8,41.86,7.12c12.82,6.32,23.36,18.9,23.68,33.19
					c0.32,14.1-8.94,26.56-18.93,36.52c-26,25.92-59.43,43.08-93.51,56.74c-51.19,20.51-105.17,34.02-159.98,40.05
					c-27.61,3.04-55.67,4.17-83.07-0.39c-27.4-4.56-54.26-15.1-75.25-33.31c-7.15-6.2-19.68-20.36-12.42-30.78
					c5.5-7.9,18.38-3.64,26.43-3.8c28.61-0.58,58.5-10.76,85.27-20.12c56.95-19.92,110.61-48.24,168-66.97
					C1295.53,2910.68,1328.38,2903.4,1361.79,2902.78z"/>
			</g>
		</g>
	</g>
</g>
</svg>
