<?xml version="1.0" encoding="utf-8"?>
<!-- Generator: Adobe Illustrator 24.1.2, SVG Export Plug-In . SVG Version: 6.00 Build 0)  -->
<svg version="1.1" xmlns="http://www.w3.org/2000/svg" xmlns:xlink="http://www.w3.org/1999/xlink" x="0px" y="0px"
	 viewBox="0 0 3710 3710" style="enable-background:new 0 0 3710 3710;" xml:space="preserve">
<style type="text/css">
	.st0{opacity:0.3;fill:url(#SVGID_1_);}
	.st1{fill:url(#SVGID_2_);}
	.st2{opacity:0.43;fill:#FFFFFF;}
	.st3{fill:url(#SVGID_3_);}
	.st4{opacity:0.45;fill:#FFFFFF;}
	.st5{fill:url(#SVGID_4_);}
	.st6{fill:url(#SVGID_5_);}
	.st7{fill:#FFFFFF;}
	.st8{fill:url(#SVGID_6_);}
	.st9{opacity:0.3;fill:#FFFFFF;}
	.st10{fill:url(#SVGID_7_);}
	.st11{opacity:0.78;fill:#FFFFFF;}
	.st12{fill:url(#SVGID_8_);}
	.st13{fill:url(#SVGID_9_);}
	.st14{fill:url(#SVGID_10_);}
	.st15{opacity:0.49;fill:url(#SVGID_11_);}
	.st16{opacity:0.49;fill:url(#SVGID_12_);}
	.st17{opacity:0.49;fill:url(#SVGID_13_);}
	.st18{opacity:0.49;fill:url(#SVGID_14_);}
	.st19{opacity:0.49;fill:url(#SVGID_15_);}
	.st20{opacity:0.49;fill:url(#SVGID_16_);}
	.st21{opacity:0.49;fill:url(#SVGID_17_);}
	.st22{opacity:0.49;fill:url(#SVGID_18_);}
	.st23{opacity:0.49;fill:url(#SVGID_19_);}
	.st24{opacity:0.49;fill:url(#SVGID_20_);}
	.st25{opacity:0.49;fill:url(#SVGID_21_);}
	.st26{opacity:0.49;fill:url(#SVGID_22_);}
	.st27{opacity:0.49;fill:url(#SVGID_23_);}
	.st28{opacity:0.49;fill:url(#SVGID_24_);}
	.st29{fill:url(#SVGID_25_);}
	.st30{fill:url(#SVGID_26_);}
	.st31{fill:url(#SVGID_27_);}
	.st32{fill:url(#SVGID_28_);}
	.st33{fill:url(#SVGID_29_);}
	.st34{fill:url(#SVGID_30_);}
	.st35{fill:url(#SVGID_31_);}
	.st36{opacity:0.75;fill:url(#SVGID_32_);}
	.st37{fill:url(#SVGID_33_);}
	.st38{fill:url(#SVGID_34_);}
	.st39{fill:url(#SVGID_35_);}
	.st40{fill:url(#SVGID_36_);}
	.st41{fill:url(#SVGID_37_);}
	.st42{fill:url(#SVGID_38_);}
	.st43{opacity:0.96;fill:#FFFFFF;}
	.st44{fill:url(#SVGID_39_);}
	.st45{display:none;}
	.st46{display:inline;fill:url(#SVGID_40_);}
	.st47{display:inline;fill:url(#SVGID_41_);}
	.st48{display:inline;fill:url(#SVGID_42_);}
	.st49{display:inline;fill:#FFFFFF;}
	.st50{fill:#77160C;}
	.st51{fill:#630E0A;}
	.st52{opacity:0.2;}
	.st53{opacity:0.1;}
	.st54{fill:#D44613;}
	.st55{opacity:0.3;}
	.st56{opacity:0.07;}
	.st57{opacity:0.15;}
	.st58{fill:#C1380E;}
	.st59{fill:#FCE0D9;}
	.st60{fill:#4D0F05;}
	.st61{fill:#BF340A;}
	.st62{fill:#EFC3BD;}
	.st63{opacity:0.5;}
	.st64{fill:#ECECEC;}
	.st65{fill:url(#SVGID_43_);}
	.st66{fill:url(#SVGID_44_);}
	.st67{fill:url(#SVGID_45_);}
</style>
<g id="Background">
</g>
<g id="Illustration">
	<g>
		<linearGradient id="SVGID_1_" gradientUnits="userSpaceOnUse" x1="3322.9402" y1="4068.6099" x2="832.4857" y2="975.6215">
			<stop  offset="0" style="stop-color:#B37CFF"/>
			<stop  offset="1" style="stop-color:#F895E7"/>
		</linearGradient>
		<path class="st0" d="M2640.83,2846.75c-57.37,60.11-111.65,98.87-154.54,129.5c-504.15,360-1100.69,255.06-1227.47,229.43
			c-187.22-37.84-549.1-110.99-810.74-417.2c-395.84-463.26-334.2-1193.12-27.16-1674.91c56.16-88.13,352.82-577.26,955.79-655.7
			c364.91-47.47,790.27,48.27,1098.31,305.11C3121.62,1302.11,3075.59,2391.24,2640.83,2846.75z"/>
		<g>
			<g>
				
					<linearGradient id="SVGID_2_" gradientUnits="userSpaceOnUse" x1="5148.1885" y1="-2142.9167" x2="6128.8887" y2="-2142.9167" gradientTransform="matrix(-0.9468 -0.322 -0.322 0.9468 5610.2285 5346.3047)">
					<stop  offset="0" style="stop-color:#A737D5"/>
					<stop  offset="1" style="stop-color:#EF497A"/>
				</linearGradient>
				<path class="st1" d="M868.17,461.2c8.18-13.87,31.82-6.45,31.84,10.02c0.22,159.19,14.74,577.79,152.3,844.97
					c223.99,435.02,278.41,1034.14-11.38,1234.16C1040.94,2550.35-23.44,1972.63,868.17,461.2z"/>
				<path class="st2" d="M841.93,679.1c-0.6,3.71-1.07,8.41-1.58,12.72l-1.31,13.22l-2.3,26.51c-1.45,17.68-2.78,35.38-3.99,53.08
					c-2.41,35.41-4.21,70.87-5.78,106.32c-3.09,70.92-4.89,141.89-5.08,212.85c-0.13,70.96,0.87,141.92,3.5,212.82
					c2.68,70.89,6.78,141.72,12.8,212.39c6.38,70.63,13.66,141.17,23.3,211.42c9.96,70.19,21.99,140.07,36.18,209.51
					c14.58,69.35,31.37,138.26,51.5,206.23l15.87,50.74c2.74,8.42,5.12,16.98,8.17,25.3l8.89,25.05c11.33,33.62,25,66.33,37.9,99.4
					l0.05,0.11c0.54,1.39-0.14,2.96-1.53,3.49c-1.36,0.53-2.88-0.12-3.46-1.44l-21.29-48.97l-5.27-12.27
					c-1.78-4.09-3.24-8.29-4.87-12.43l-9.57-24.94l-9.57-24.94c-3.27-8.29-5.88-16.8-8.85-25.2c-5.69-16.87-11.72-33.65-17.15-50.61
					c-21.3-68-39.25-137-55-206.49c-7.32-34.86-14.6-69.74-20.56-104.86c-3.14-17.53-6.38-35.05-8.95-52.67l-8.17-52.79
					c-9.91-70.54-18.11-141.31-23.88-212.28c-5.73-70.98-9.53-142.08-11.9-213.22c-0.47-17.79-1.14-35.57-1.45-53.36l-0.85-53.37
					l0-53.38c0.07-17.79,0.41-35.58,0.6-53.37c1.23-71.15,3.72-142.27,8.14-213.28c2.36-35.5,4.94-70.97,8.13-106.4
					c1.63-17.71,3.28-35.42,5.21-53.11l3.09-26.52l1.71-13.25c0.69-4.49,1.11-8.64,2.18-13.66c0.31-1.44,1.73-2.37,3.17-2.06
					c1.4,0.3,2.31,1.64,2.08,3.04L841.93,679.1z"/>
			</g>
			<g>
				<linearGradient id="SVGID_3_" gradientUnits="userSpaceOnUse" x1="824.2509" y1="2668.5452" x2="344.5961" y2="1133.6477">
					<stop  offset="0" style="stop-color:#B37CFF"/>
					<stop  offset="1" style="stop-color:#F895E7"/>
				</linearGradient>
				<path class="st3" d="M964.52,3138.97c0,0,126.85-251.85-6.34-664.41C834.6,2091.77,512.86,1184.62,531.7,801.03
					c0.83-16.99-22.24-25.73-30.11-11.36c-84.38,154.17-263.24,560.27-182.9,1119.55C422.29,2630.44,964.52,3138.97,964.52,3138.97z
					"/>
				<path class="st4" d="M480.91,1137.34c-3.24,9.82-5.88,19.85-8.28,29.91c-1.24,5.02-2.29,10.1-3.43,15.14l-3.07,15.21
					c-3.97,20.3-7.14,40.76-9.59,61.28c-5.16,41.03-7.3,82.37-8.06,123.66c-0.72,41.3,0.67,82.61,3.55,123.8
					c2.92,41.18,7.23,82.26,13.35,123.09c11.94,81.69,29.46,162.53,51.59,242.07l8.34,29.82l9.03,29.62
					c5.82,19.81,12.55,39.34,18.98,58.95c13.2,39.18,26.83,78.35,40.63,117.38c27.74,78.05,56.51,155.74,85.96,233.19
					c14.71,38.73,29.74,77.34,44.83,115.94l45.34,115.8c15.2,38.58,30.33,77.2,45.13,115.97c14.77,38.78,29.5,77.61,43.03,116.9
					c13.55,39.28,26.42,78.85,37.13,119.08c5.31,20.12,10.13,40.39,14.05,60.86c3.74,20.5,6.72,41.14,8.45,61.92
					c0.11,1.35-0.89,2.54-2.25,2.66c-1.33,0.11-2.49-0.85-2.65-2.16l0-0.03c-2.42-20.49-6.06-40.81-10.45-60.97
					c-4.55-20.13-9.71-40.12-15.5-59.94c-11.62-39.64-25.38-78.66-39.85-117.43c-28.96-77.53-60.8-154.06-91.92-230.92
					c-62.87-153.47-123.75-307.99-179.15-464.51c-13.8-39.16-27.68-78.23-40.67-117.73c-6.38-19.81-13.05-39.53-18.81-59.55
					l-8.94-29.92l-8.24-30.12c-5.71-20.02-10.39-40.33-15.47-60.52c-2.44-10.12-4.53-20.33-6.82-30.48
					c-2.23-10.17-4.56-20.32-6.45-30.56l-5.99-30.65l-5.32-30.78l-2.6-15.4l-2.27-15.45c-1.45-10.31-3.18-20.58-4.35-30.93
					c-10.51-82.61-15.15-166.07-11.52-249.27l0.71-15.59c0.24-5.19,0.72-10.38,1.06-15.57l1.17-15.56l1.47-15.54
					c0.87-10.36,2.31-20.68,3.45-31.01c1.46-10.3,2.69-20.62,4.44-30.88c6.51-41.03,15.14-81.92,29.38-120.98
					c0.06-0.16,0.23-0.24,0.39-0.18C480.88,1137,480.96,1137.19,480.91,1137.34z"/>
			</g>
		</g>
		<g>
			<g>
				<g>
					
						<linearGradient id="SVGID_4_" gradientUnits="userSpaceOnUse" x1="15521.665" y1="2405.5327" x2="14622.4238" y2="2988.4658" gradientTransform="matrix(1 0 0 1 -14575.248 0)">
						<stop  offset="0" style="stop-color:#53D8FF"/>
						<stop  offset="1" style="stop-color:#3840F7"/>
					</linearGradient>
					<path class="st5" d="M1309.91,2570.42l-999.26,0v-153.26l999.26,0C1288.52,2417.16,1288.52,2570.42,1309.91,2570.42z"/>
					
						<linearGradient id="SVGID_5_" gradientUnits="userSpaceOnUse" x1="-4161.3862" y1="2387.8267" x2="-2759.1687" y2="2619.4431" gradientTransform="matrix(-1 0 0 1 -2712.9404 0)">
						<stop  offset="0" style="stop-color:#53D8FF"/>
						<stop  offset="1" style="stop-color:#3840F7"/>
					</linearGradient>
					<path class="st6" d="M310.65,2532.06v-70.14c0-24.72,19.75-44.77,44.11-44.77h950.94c19.16,0,34.69-11.9,34.69-26.58
						c0-4.46-4.72-8.08-10.54-8.08H290.53c-23.83,0-61.68,28.72-61.68,64.14v97.96c0,33.4,36.74,60.47,59.21,60.47h1036.31
						c8.84,0,16.01-5.49,16.01-12.27c0-12.36-13.08-22.39-29.22-22.39H348.43C327.56,2570.42,310.65,2553.24,310.65,2532.06z"/>
				</g>
				<path class="st7" d="M1275.31,2451.97H338.36c-1.86,0-3.37-1.51-3.37-3.37s1.51-3.37,3.37-3.37h936.94
					c1.86,0,3.37,1.51,3.37,3.37S1277.16,2451.97,1275.31,2451.97z"/>
				<path class="st7" d="M1275.31,2474.72H338.36c-1.86,0-3.37-1.51-3.37-3.37s1.51-3.37,3.37-3.37h936.94
					c1.86,0,3.37,1.51,3.37,3.37S1277.16,2474.72,1275.31,2474.72z"/>
				<path class="st7" d="M1275.31,2497.47H338.36c-1.86,0-3.37-1.51-3.37-3.37s1.51-3.37,3.37-3.37h936.94
					c1.86,0,3.37,1.51,3.37,3.37S1277.16,2497.47,1275.31,2497.47z"/>
				<path class="st7" d="M1275.31,2520.21H338.36c-1.86,0-3.37-1.51-3.37-3.37s1.51-3.37,3.37-3.37h936.94
					c1.86,0,3.37,1.51,3.37,3.37S1277.16,2520.21,1275.31,2520.21z"/>
				<path class="st7" d="M1275.31,2542.96H338.36c-1.86,0-3.37-1.51-3.37-3.37s1.51-3.37,3.37-3.37h936.94
					c1.86,0,3.37,1.51,3.37,3.37S1277.16,2542.96,1275.31,2542.96z"/>
			</g>
			<g>
				
					<linearGradient id="SVGID_6_" gradientUnits="userSpaceOnUse" x1="2044.7891" y1="2999.6331" x2="261.3502" y2="3060.2012" gradientTransform="matrix(1 0 0 1 -417.5325 0)">
					<stop  offset="0" style="stop-color:#53D8FF"/>
					<stop  offset="1" style="stop-color:#3840F7"/>
				</linearGradient>
				<path class="st8" d="M1442.51,3146.08H211.75c-8.83,0-16-7.16-16-16v-206.56c0-8.83,7.16-16,16-16h1230.76c8.83,0,16,7.16,16,16
					v206.56C1458.5,3138.92,1451.34,3146.08,1442.51,3146.08z"/>
				<path class="st9" d="M430.03,3118.67h-85.8c-3.18,0-5.76-2.58-5.76-5.76v-172.19c0-3.18,2.58-5.76,5.76-5.76h85.8
					c3.18,0,5.76,2.58,5.76,5.76v172.19C435.79,3116.09,433.21,3118.67,430.03,3118.67z"/>
				<path class="st9" d="M539.8,3118.67h-58.44c-3.18,0-5.76-2.58-5.76-5.76v-172.19c0-3.18,2.58-5.76,5.76-5.76h58.44
					c3.18,0,5.76,2.58,5.76,5.76v172.19C545.57,3116.09,542.99,3118.67,539.8,3118.67z"/>
			</g>
			<g>
				
					<linearGradient id="SVGID_7_" gradientUnits="userSpaceOnUse" x1="-3382.1802" y1="2269.5901" x2="-4611.5264" y2="3043.6997" gradientTransform="matrix(-1 0 0 1 -3314.7795 0)">
					<stop  offset="0" style="stop-color:#B37CFF"/>
					<stop  offset="1" style="stop-color:#F895E7"/>
				</linearGradient>
				<path class="st10" d="M1449.68,2627.41v51.61c0,8.86-5.16,17.28-14.14,23.08l-8.87,5.73c-7.29,4.7-5.76,13.43,2.91,16.58l0,0
					c5.72,2.08,6.78,7.82,2.04,10.98l-11.18,7.44c-7.32,4.87-7.33,13.4-0.03,18.28l8.03,5.37c6.93,4.63,6.73,12.78-0.42,17.22
					l-8.62,5.36c-5.99,3.72-6.99,10.29-2.27,14.92l4.75,4.66c3.4,3.34,5.25,7.42,5.25,11.61v81.51H257.3v-279.25L1449.68,2627.41z"
					/>
				<path class="st11" d="M297.82,2687.18h1110.85c2.42,0,4.38-1.46,4.38-3.27c0-1.81-1.96-3.27-4.38-3.27H297.82
					c-2.42,0-4.38,1.46-4.38,3.27C293.44,2685.72,295.4,2687.18,297.82,2687.18z"/>
				<path class="st11" d="M297.82,2735.79h1084.56c2.42,0,4.38-1.46,4.38-3.27c0-1.81-1.96-3.27-4.38-3.27H297.82
					c-2.42,0-4.38,1.46-4.38,3.27C293.44,2734.33,295.4,2735.79,297.82,2735.79z"/>
				<path class="st11" d="M297.82,2771.57H1368.9c2.42,0,4.38-1.46,4.38-3.27c0-1.81-1.96-3.27-4.38-3.27H297.82
					c-2.42,0-4.38,1.46-4.38,3.27C293.44,2770.11,295.4,2771.57,297.82,2771.57z"/>
				
					<linearGradient id="SVGID_8_" gradientUnits="userSpaceOnUse" x1="-4808.9053" y1="2761.2922" x2="-3483.7639" y2="2761.2922" gradientTransform="matrix(-1 0 0 1 -3314.7795 0)">
					<stop  offset="0" style="stop-color:#A737D5"/>
					<stop  offset="1" style="stop-color:#EF497A"/>
				</linearGradient>
				<path class="st12" d="M236.08,2604.71h1239.19c9.44,0,17.87,5.15,18.77,12.16c1.03,8.04-7.42,14.81-17.99,14.81H327.01
					c-20.18,0-37.62,10.54-41.81,25.27c-18.79,66-17.37,134.7,0.33,205.6c4.11,16.44,23.38,28.36,45.79,28.36h1121.24
					c9.44,0,17.87,5.15,18.77,12.16c1.03,8.04-7.42,14.81-17.99,14.81H244.29c-28.91,0-53.8-15.4-58.95-36.62
					c-20.88-86.01-22.71-168.56-0.02-246.66c5.09-17.51,26.07-29.9,50.08-29.9H236.08z"/>
			</g>
		</g>
		<g>
			<g>
				
					<linearGradient id="SVGID_9_" gradientUnits="userSpaceOnUse" x1="-4183.8726" y1="1793.7751" x2="-3498.2644" y2="4999.2202" gradientTransform="matrix(-1 0 0 1 -2741.1384 0)">
					<stop  offset="0" style="stop-color:#FDF53F"/>
					<stop  offset="1" style="stop-color:#D93C65"/>
				</linearGradient>
				<path class="st13" d="M641.53,3168.12h1337.57c6.6,0,12-5.4,12-12V1669.59c0-6.6-5.4-12-12-12H641.53c-6.6,0-12,5.4-12,12
					v1486.53C629.53,3162.72,634.93,3168.12,641.53,3168.12z"/>
				
					<linearGradient id="SVGID_10_" gradientUnits="userSpaceOnUse" x1="-4096.2324" y1="1777.0459" x2="-3412.759" y2="4972.5093" gradientTransform="matrix(-1 0 0 1 -2741.1384 0)">
					<stop  offset="0" style="stop-color:#FDF53F"/>
					<stop  offset="1" style="stop-color:#D93C65"/>
				</linearGradient>
				<polygon class="st14" points="2089.14,1904.57 1286.69,573.21 560,1934.94 				"/>
				<g>
					
						<linearGradient id="SVGID_11_" gradientUnits="userSpaceOnUse" x1="-4430.2905" y1="1692.5206" x2="-3332.7827" y2="3582.4133" gradientTransform="matrix(-1 0 0 1 -2741.1384 0)">
						<stop  offset="0" style="stop-color:#FDF53F"/>
						<stop  offset="1" style="stop-color:#D93C65"/>
					</linearGradient>
					<path class="st15" d="M829.27,3044.42h197.62c6.6,0,12-5.4,12-12v-58.7c0-6.6-5.4-12-12-12H829.27c-6.6,0-12,5.4-12,12v58.7
						C817.27,3039.02,822.67,3044.42,829.27,3044.42z"/>
					
						<linearGradient id="SVGID_12_" gradientUnits="userSpaceOnUse" x1="-4396.6909" y1="1662.0148" x2="-3299.1836" y2="3551.9065" gradientTransform="matrix(-1 0 0 1 -2741.1384 0)">
						<stop  offset="0" style="stop-color:#FDF53F"/>
						<stop  offset="1" style="stop-color:#D93C65"/>
					</linearGradient>
					<path class="st16" d="M718.46,3146.87h197.62c6.6,0,12-5.4,12-12v-58.7c0-6.6-5.4-12-12-12H718.46c-6.6,0-12,5.4-12,12v58.7
						C706.46,3141.47,711.86,3146.87,718.46,3146.87z"/>
					
						<linearGradient id="SVGID_13_" gradientUnits="userSpaceOnUse" x1="-4264.3096" y1="1596.3379" x2="-3166.8018" y2="3486.2305" gradientTransform="matrix(-1 0 0 1 -2741.1384 0)">
						<stop  offset="0" style="stop-color:#FDF53F"/>
						<stop  offset="1" style="stop-color:#D93C65"/>
					</linearGradient>
					<path class="st17" d="M664.75,2945.73h197.62c6.6,0,12-5.4,12-12v-58.7c0-6.6-5.4-12-12-12H664.75c-6.6,0-12,5.4-12,12v58.7
						C652.75,2940.33,658.15,2945.73,664.75,2945.73z"/>
					
						<linearGradient id="SVGID_14_" gradientUnits="userSpaceOnUse" x1="-4299.0835" y1="1627.361" x2="-3201.5764" y2="3517.2527" gradientTransform="matrix(-1 0 0 1 -2741.1384 0)">
						<stop  offset="0" style="stop-color:#FDF53F"/>
						<stop  offset="1" style="stop-color:#D93C65"/>
					</linearGradient>
					<path class="st18" d="M775.56,2845.81h197.62c6.6,0,12-5.4,12-12v-58.7c0-6.6-5.4-12-12-12H775.56c-6.6,0-12,5.4-12,12v58.7
						C763.56,2840.41,768.96,2845.81,775.56,2845.81z"/>
					
						<linearGradient id="SVGID_15_" gradientUnits="userSpaceOnUse" x1="-4159.8979" y1="1558.2192" x2="-3062.3906" y2="3448.1111" gradientTransform="matrix(-1 0 0 1 -2741.1384 0)">
						<stop  offset="0" style="stop-color:#FDF53F"/>
						<stop  offset="1" style="stop-color:#D93C65"/>
					</linearGradient>
					<path class="st19" d="M718.46,2635.32h197.62c6.6,0,12-5.4,12-12v-58.7c0-6.6-5.4-12-12-12H718.46c-6.6,0-12,5.4-12,12v58.7
						C706.46,2629.92,711.86,2635.32,718.46,2635.32z"/>
					
						<linearGradient id="SVGID_16_" gradientUnits="userSpaceOnUse" x1="-4043.1799" y1="1502.3488" x2="-2945.6724" y2="3392.2415" gradientTransform="matrix(-1 0 0 1 -2741.1384 0)">
						<stop  offset="0" style="stop-color:#FDF53F"/>
						<stop  offset="1" style="stop-color:#D93C65"/>
					</linearGradient>
					<path class="st20" d="M685.4,2435.39h197.62c6.6,0,12-5.4,12-12v-58.7c0-6.6-5.4-12-12-12H685.4c-6.6,0-12,5.4-12,12v58.7
						C673.4,2429.99,678.8,2435.39,685.4,2435.39z"/>
					
						<linearGradient id="SVGID_17_" gradientUnits="userSpaceOnUse" x1="-3956.2056" y1="1527.6227" x2="-2922.2524" y2="3308.0757" gradientTransform="matrix(-1 0 0 1 -2741.1384 0)">
						<stop  offset="0" style="stop-color:#FDF53F"/>
						<stop  offset="1" style="stop-color:#D93C65"/>
					</linearGradient>
					<path class="st21" d="M741.47,2251.52h154.46c6.6,0,12-5.4,12-12v-58.7c0-6.6-5.4-12-12-12H741.47c-6.6,0-12,5.4-12,12v58.7
						C729.47,2246.12,734.87,2251.52,741.47,2251.52z"/>
					
						<linearGradient id="SVGID_18_" gradientUnits="userSpaceOnUse" x1="-3878.2827" y1="1423.8226" x2="-2780.7751" y2="3313.7153" gradientTransform="matrix(-1 0 0 1 -2741.1384 0)">
						<stop  offset="0" style="stop-color:#FDF53F"/>
						<stop  offset="1" style="stop-color:#D93C65"/>
					</linearGradient>
					<path class="st22" d="M641.53,2148.46h197.62c6.6,0,12-5.4,12-12v-58.7c0-6.6-5.4-12-12-12H641.53c-6.6,0-12,5.4-12,12v58.7
						C629.53,2143.06,634.93,2148.46,641.53,2148.46z"/>
					
						<linearGradient id="SVGID_19_" gradientUnits="userSpaceOnUse" x1="-4215.8159" y1="1676.3324" x2="-3186.1677" y2="3449.3723" gradientTransform="matrix(-1 0 0 1 -2741.1384 0)">
						<stop  offset="0" style="stop-color:#FDF53F"/>
						<stop  offset="1" style="stop-color:#D93C65"/>
					</linearGradient>
					<path class="st23" d="M629.53,2961.44h135.15c13.9,0,25.28,11.37,25.28,25.28v32.15c0,13.9-11.37,25.28-25.28,25.28H629.53
						V2961.44z"/>
					
						<linearGradient id="SVGID_20_" gradientUnits="userSpaceOnUse" x1="-4102.0767" y1="1610.2865" x2="-3072.4343" y2="3383.3157" gradientTransform="matrix(-1 0 0 1 -2741.1384 0)">
						<stop  offset="0" style="stop-color:#FDF53F"/>
						<stop  offset="1" style="stop-color:#D93C65"/>
					</linearGradient>
					<path class="st24" d="M629.53,2664.95c1.46-0.26,2.96-0.43,4.49-0.43h171.07c13.9,0,25.28,11.38,25.28,25.28v32.15
						c0,13.9-11.37,25.28-25.28,25.28H634.02c-1.53,0-3.03-0.16-4.49-0.43V2664.95z"/>
					
						<linearGradient id="SVGID_21_" gradientUnits="userSpaceOnUse" x1="-4011.2285" y1="1557.5291" x2="-2981.5864" y2="3330.5586" gradientTransform="matrix(-1 0 0 1 -2741.1384 0)">
						<stop  offset="0" style="stop-color:#FDF53F"/>
						<stop  offset="1" style="stop-color:#D93C65"/>
					</linearGradient>
					<path class="st25" d="M629.53,2455.76c1.46-0.27,2.96-0.43,4.49-0.43h171.07c13.9,0,25.28,11.37,25.28,25.28v32.15
						c0,13.9-11.37,25.28-25.28,25.28H634.02c-1.53,0-3.03-0.16-4.49-0.43V2455.76z"/>
					
						<linearGradient id="SVGID_22_" gradientUnits="userSpaceOnUse" x1="-3909.5571" y1="1498.4849" x2="-2879.9094" y2="3271.5234" gradientTransform="matrix(-1 0 0 1 -2741.1384 0)">
						<stop  offset="0" style="stop-color:#FDF53F"/>
						<stop  offset="1" style="stop-color:#D93C65"/>
					</linearGradient>
					<path class="st26" d="M629.53,2256.22h135.15c13.9,0,25.28,11.38,25.28,25.28v32.15c0,13.9-11.37,25.28-25.28,25.28H629.53
						V2256.22z"/>
					
						<linearGradient id="SVGID_23_" gradientUnits="userSpaceOnUse" x1="-3842.5938" y1="1459.5967" x2="-2812.947" y2="3232.634" gradientTransform="matrix(-1 0 0 1 -2741.1384 0)">
						<stop  offset="0" style="stop-color:#FDF53F"/>
						<stop  offset="1" style="stop-color:#D93C65"/>
					</linearGradient>
					<path class="st27" d="M629.35,2164.6h62.82c13.9,0,25.28,11.37,25.28,25.28v32.15c0,13.9-11.37,25.28-25.28,25.28h-62.82
						V2164.6z"/>
					
						<linearGradient id="SVGID_24_" gradientUnits="userSpaceOnUse" x1="-3801.4946" y1="1435.7297" x2="-2771.8479" y2="3208.7668" gradientTransform="matrix(-1 0 0 1 -2741.1384 0)">
						<stop  offset="0" style="stop-color:#FDF53F"/>
						<stop  offset="1" style="stop-color:#D93C65"/>
					</linearGradient>
					<path class="st28" d="M631.46,1989.71H792c13.9,0,25.28,8.9,25.28,19.77v25.15c0,10.88-11.37,19.77-25.28,19.77H631.46V1989.71
						z"/>
				</g>
			</g>
			<g>
				<g>
					<circle class="st7" cx="1310.32" cy="1214.37" r="117.89"/>
					<g>
						
							<linearGradient id="SVGID_25_" gradientUnits="userSpaceOnUse" x1="-3654.7424" y1="859.0463" x2="-4165.1279" y2="1316.1742" gradientTransform="matrix(-1 0 0 1 -2741.1384 0)">
							<stop  offset="0" style="stop-color:#FDF53F"/>
							<stop  offset="1" style="stop-color:#D93C65"/>
						</linearGradient>
						<circle class="st29" cx="1310.32" cy="1214.37" r="91.04"/>
						<path class="st7" d="M1310.32,1315.51c-27.01,0-52.41-10.52-71.52-29.62l0,0c-19.1-19.1-29.62-44.5-29.62-71.51
							s10.52-52.41,29.62-71.51c19.1-19.11,44.5-29.62,71.52-29.62c27.02,0,52.41,10.52,71.52,29.62
							c19.1,19.1,29.62,44.5,29.62,71.51s-10.52,52.41-29.62,71.51C1362.73,1304.99,1337.34,1315.51,1310.32,1315.51z
							 M1310.32,1133.42c-21.62,0-41.95,8.42-57.24,23.71c-15.29,15.29-23.71,35.61-23.71,57.23s8.42,41.95,23.71,57.23l0,0
							c15.29,15.29,35.62,23.71,57.24,23.71s41.95-8.42,57.23-23.71c15.29-15.29,23.71-35.61,23.71-57.23s-8.42-41.95-23.71-57.23
							C1352.27,1141.84,1331.94,1133.42,1310.32,1133.42z"/>
					</g>
				</g>
				<g>
					
						<linearGradient id="SVGID_26_" gradientUnits="userSpaceOnUse" x1="-4507.8359" y1="2536.3662" x2="-3292.9924" y2="3396.7749" gradientTransform="matrix(-1 0 0 1 -2741.1384 0)">
						<stop  offset="0" style="stop-color:#CB236D"/>
						<stop  offset="1" style="stop-color:#4C246D"/>
					</linearGradient>
					<path class="st30" d="M1118.2,3176.14h390.68v-603.21c0-33.7-27.32-61.01-61.01-61.01h-274.62c-30.4,0-55.05,24.65-55.05,55.05
						V3176.14z"/>
					<linearGradient id="SVGID_27_" gradientUnits="userSpaceOnUse" x1="1598.5846" y1="2352.7661" x2="1437.0165" y2="2948.5493">
						<stop  offset="0" style="stop-color:#FDF53F"/>
						<stop  offset="1" style="stop-color:#D93C65"/>
					</linearGradient>
					<circle class="st31" cx="1460.06" cy="2863.57" r="19.54"/>
				</g>
				<g>
					<g>
						<g>
							
								<linearGradient id="SVGID_28_" gradientUnits="userSpaceOnUse" x1="-4219.936" y1="1413.7739" x2="-3607.4731" y2="2727.4629" gradientTransform="matrix(-1 0 0 1 -2741.1384 0)">
								<stop  offset="0" style="stop-color:#FDF53F"/>
								<stop  offset="1" style="stop-color:#D93C65"/>
							</linearGradient>
							<polygon class="st32" points="946.65,2413.95 1222.92,2413.95 1222.92,2103.86 946.65,2103.86 							"/>
							<path class="st7" d="M1233.01,2424.05H936.56v-330.29h296.46V2424.05z M956.75,2403.85h256.06v-289.89H956.75V2403.85z"/>
						</g>
						<g>
							
								<rect x="1069.76" y="2107.1" transform="matrix(1 -7.638511e-03 7.638511e-03 1 -17.2495 8.3145)" class="st7" width="20.2" height="310.49"/>
							
								<rect x="951.09" y="2225.49" transform="matrix(1 -7.812803e-03 7.812803e-03 1 -17.4331 8.5482)" class="st7" width="268.62" height="20.2"/>
							<path class="st7" d="M937.71,2429.4h294.15c2.52,0,4.59-2.07,4.59-4.59v-21.72c0-2.52-2.06-4.59-4.59-4.59H937.71
								c-2.52,0-4.59,2.06-4.59,4.59v21.72C933.12,2427.33,935.19,2429.4,937.71,2429.4z"/>
						</g>
					</g>
					<g>
						<g>
							
								<linearGradient id="SVGID_29_" gradientUnits="userSpaceOnUse" x1="-4211.7334" y1="980.5065" x2="-3599.2703" y2="2294.1953" gradientTransform="matrix(-1 0 0 1 -2741.1384 0)">
								<stop  offset="0" style="stop-color:#FDF53F"/>
								<stop  offset="1" style="stop-color:#D93C65"/>
							</linearGradient>
							<polygon class="st33" points="938.45,1980.68 1214.71,1980.68 1214.71,1670.59 938.45,1670.59 							"/>
							<path class="st7" d="M1224.81,1990.78H928.35v-330.29h296.46V1990.78z M948.55,1970.58h256.06v-289.89H948.55V1970.58z"/>
						</g>
						<g>
							
								<rect x="1061.56" y="1673.83" transform="matrix(1 -7.643986e-03 7.643986e-03 1 -13.9502 8.2452)" class="st7" width="20.2" height="310.49"/>
							
								<rect x="942.88" y="1792.23" transform="matrix(1 -7.812803e-03 7.812803e-03 1 -14.0483 8.4709)" class="st7" width="268.61" height="20.2"/>
							<path class="st7" d="M929.51,1996.13h294.15c2.52,0,4.59-2.07,4.59-4.59v-21.72c0-2.52-2.06-4.59-4.59-4.59H929.51
								c-2.52,0-4.59,2.06-4.59,4.59v21.72C924.92,1994.06,926.98,1996.13,929.51,1996.13z"/>
						</g>
					</g>
					<g>
						<g>
							
								<linearGradient id="SVGID_30_" gradientUnits="userSpaceOnUse" x1="-4672.5396" y1="1409.3141" x2="-4060.0767" y2="2723.0029" gradientTransform="matrix(-1 0 0 1 -2741.1384 0)">
								<stop  offset="0" style="stop-color:#FDF53F"/>
								<stop  offset="1" style="stop-color:#D93C65"/>
							</linearGradient>
							<polygon class="st34" points="1399.26,2409.49 1675.52,2409.49 1675.52,2099.4 1399.26,2099.4 							"/>
							<path class="st7" d="M1685.62,2419.59h-296.46V2089.3h296.46V2419.59z M1409.36,2399.39h256.06V2109.5h-256.06V2399.39z"/>
						</g>
						<g>
							
								<rect x="1522.36" y="2102.64" transform="matrix(1 -7.638833e-03 7.638833e-03 1 -17.2029 11.7721)" class="st7" width="20.2" height="310.49"/>
							
								<rect x="1403.69" y="2221.04" transform="matrix(1 -7.812803e-03 7.812803e-03 1 -17.3845 12.0842)" class="st7" width="268.61" height="20.2"/>
							<path class="st7" d="M1390.31,2424.94h294.15c2.52,0,4.59-2.06,4.59-4.59l0-21.72c0-2.52-2.07-4.59-4.59-4.59h-294.15
								c-2.52,0-4.59,2.06-4.59,4.59v21.72C1385.72,2422.87,1387.79,2424.94,1390.31,2424.94z"/>
						</g>
					</g>
					<g>
						<g>
							
								<linearGradient id="SVGID_31_" gradientUnits="userSpaceOnUse" x1="-4664.3369" y1="976.0466" x2="-4051.8738" y2="2289.7354" gradientTransform="matrix(-1 0 0 1 -2741.1384 0)">
								<stop  offset="0" style="stop-color:#FDF53F"/>
								<stop  offset="1" style="stop-color:#D93C65"/>
							</linearGradient>
							<polygon class="st35" points="1391.05,1976.22 1667.32,1976.22 1667.32,1666.13 1391.05,1666.13 							"/>
							<path class="st7" d="M1677.41,1986.32h-296.46v-330.29h296.46V1986.32z M1401.15,1966.12h256.06v-289.89h-256.06V1966.12z"/>
						</g>
						<g>
							
								<rect x="1514.16" y="1669.37" transform="matrix(1 -7.638833e-03 7.638833e-03 1 -13.8935 11.6968)" class="st7" width="20.2" height="310.49"/>
							
								<rect x="1395.49" y="1787.77" transform="matrix(1 -7.812764e-03 7.812764e-03 1 -13.9996 12.0068)" class="st7" width="268.62" height="20.2"/>
							<path class="st7" d="M1382.11,1991.67h294.15c2.52,0,4.59-2.07,4.59-4.59v-21.72c0-2.52-2.07-4.59-4.59-4.59h-294.15
								c-2.52,0-4.59,2.07-4.59,4.59v21.72C1377.52,1989.6,1379.59,1991.67,1382.11,1991.67z"/>
						</g>
					</g>
				</g>
			</g>
			<g>
				
					<linearGradient id="SVGID_32_" gradientUnits="userSpaceOnUse" x1="-3231.7288" y1="2121.9546" x2="-5175.8286" y2="623.931" gradientTransform="matrix(-1 0 0 1 -2741.1384 0)">
					<stop  offset="0" style="stop-color:#FDF53F"/>
					<stop  offset="1" style="stop-color:#D93C65"/>
				</linearGradient>
				<path class="st36" d="M1278.29,529.9l800.44,1357.01c4.57,7.76-1.08,17.53-10.08,17.44l-58.45-0.62
					c-36.13-0.38-69.41-19.69-87.68-50.86L1320.14,825.03c-4.43-7.56-15.33-7.64-19.87-0.14l-666.7,1102
					c-2.44,4.03-7.08,6.18-11.74,5.43h0c-42.81-6.92-66.29-53.71-46.25-92.17l682.5-1309.71
					C1262.27,522.38,1273.68,522.08,1278.29,529.9z"/>
				
					<linearGradient id="SVGID_33_" gradientUnits="userSpaceOnUse" x1="7754.6958" y1="4067.7483" x2="9610.4658" y2="5382.0908" gradientTransform="matrix(0.866 -0.5 0.517 0.8955 -7955.8823 1400.527)">
					<stop  offset="0" style="stop-color:#CB236D"/>
					<stop  offset="1" style="stop-color:#4C246D"/>
				</linearGradient>
				<path class="st37" d="M2190.19,1968.89l-87.45,50.49c-3.33,1.93-7.64,0.77-9.56-2.56L1251.89,559.67
					c-1.92-3.33-0.77-7.64,2.56-9.56l87.45-50.49c3.33-1.93,7.64-0.77,9.56,2.56l841.28,1457.15
					C2194.68,1962.66,2193.53,1966.96,2190.19,1968.89z"/>
				
					<linearGradient id="SVGID_34_" gradientUnits="userSpaceOnUse" x1="-3672.876" y1="-1279.6486" x2="-3587.6619" y2="7810.3916" gradientTransform="matrix(-1 0 0 1 -2741.1384 0)">
					<stop  offset="0" style="stop-color:#CB236D"/>
					<stop  offset="1" style="stop-color:#4C246D"/>
				</linearGradient>
				<path class="st38" d="M434.17,1955.69l798.18-1382.48l0,0l0-0.01l35.36-61.25c1.06-1.83,2.46-3.34,4.07-4.51l29.78-49.66
					c6.06-10.1,20.77-9.87,26.51,0.42l55.59,99.7l-14.66,1.48c0.62,3.34,0.12,6.91-1.7,10.06L533.75,2013.18
					c-4.06,7.02-13.12,9.45-20.14,5.4l-74.04-42.75C432.54,1971.78,430.11,1962.71,434.17,1955.69z"/>
			</g>
		</g>
		<g>
			
				<linearGradient id="SVGID_35_" gradientUnits="userSpaceOnUse" x1="-1499.3883" y1="12.7221" x2="-1676.1042" y2="2441.3015" gradientTransform="matrix(1 0 0 1 3461.2798 0)">
				<stop  offset="0" style="stop-color:#A737D5"/>
				<stop  offset="1" style="stop-color:#EF497A"/>
			</linearGradient>
			<path class="st39" d="M1696.7,3188.37c-1.21,0-2.43-0.07-3.65-0.21c-17.38-1.99-29.85-17.7-27.85-35.08l198.83-1730.24
				c2-17.37,17.73-29.82,35.08-27.85c17.38,2,29.85,17.7,27.85,35.09l-198.83,1730.24
				C1726.27,3176.46,1712.57,3188.37,1696.7,3188.37z"/>
			
				<linearGradient id="SVGID_36_" gradientUnits="userSpaceOnUse" x1="-703.949" y1="70.6022" x2="-880.6646" y2="2499.1772" gradientTransform="matrix(1 0 0 1 3461.2798 0)">
				<stop  offset="0" style="stop-color:#A737D5"/>
				<stop  offset="1" style="stop-color:#EF497A"/>
			</linearGradient>
			<path class="st40" d="M2789.66,3188.38c-14.5,0-27.57-10.01-30.88-24.75l-387.95-1730.24c-3.82-17.07,6.91-34.01,23.98-37.84
				c17.03-3.8,34.01,6.91,37.84,23.98l387.94,1730.24c3.83,17.07-6.91,34.01-23.98,37.84
				C2794.29,3188.12,2791.96,3188.38,2789.66,3188.38z"/>
			
				<linearGradient id="SVGID_37_" gradientUnits="userSpaceOnUse" x1="-1131.01" y1="39.5263" x2="-1307.7257" y2="2468.1025" gradientTransform="matrix(1 0 0 1 3461.2798 0)">
				<stop  offset="0" style="stop-color:#A737D5"/>
				<stop  offset="1" style="stop-color:#EF497A"/>
			</linearGradient>
			<path class="st41" d="M2134.52,3188.37c-17.49,0-31.68-14.18-31.68-31.67v-853.9c0-17.49,14.18-31.67,31.68-31.67
				c17.49,0,31.68,14.18,31.68,31.67v853.9C2166.19,3174.19,2152.01,3188.37,2134.52,3188.37z"/>
			
				<linearGradient id="SVGID_38_" gradientUnits="userSpaceOnUse" x1="-483.7963" y1="838.3183" x2="-2534.748" y2="3657.3916" gradientTransform="matrix(1 0 0 1 3461.2798 0)">
				<stop  offset="0" style="stop-color:#53D8FF"/>
				<stop  offset="1" style="stop-color:#3840F7"/>
			</linearGradient>
			<path class="st42" d="M1555.19,1172.41c-32.18,0.75-57.12,28.38-54.58,60.47l111.36,1402.69c2.36,29.67,27.49,52.32,57.24,51.6
				l1163.12-28.37c33.91-0.83,59.32-31.35,53.99-64.84l-222.67-1398.67c-4.41-27.7-28.61-47.87-56.65-47.22L1555.19,1172.41z"/>
			<path class="st43" d="M1543.4,1271.49c-2.55-32.09,22.39-59.72,54.58-60.47l975.38-22.58c28.04-0.65,52.24,19.53,56.65,47.22
				l210.11,1319.81c5.33,33.5-20.08,64.02-53.99,64.84l-1080.4,26.35c-29.75,0.73-54.88-21.93-57.24-51.6L1543.4,1271.49z"/>
			<g>
				<linearGradient id="SVGID_39_" gradientUnits="userSpaceOnUse" x1="1814.8566" y1="1866.1318" x2="2404.1917" y2="1866.1318">
					<stop  offset="0" style="stop-color:#CB236D"/>
					<stop  offset="1" style="stop-color:#4C246D"/>
				</linearGradient>
				<path class="st44" d="M2403.19,2185.47c8.51,77.29-37.35,134.49-127.52,144.42c-90.18,9.93-147.38-35.93-155.88-113.23
					l-41.12-373.59l-12.88,1.42c0,0-44.44,70.08-121.73,78.59c-64.41,7.09-121.61-38.77-128.7-103.18
					c-5.67-51.53,40.19-108.73,40.19-108.73l182.72-235.24c0,0,45.15-63.64,135.32-73.57c90.18-9.93,147.38,35.93,155.88,113.23
					L2403.19,2185.47z"/>
			</g>
		</g>
		<g class="st45">
			<linearGradient id="SVGID_40_" gradientUnits="userSpaceOnUse" x1="2409.7144" y1="1319.5935" x2="2602.8125" y2="1126.4952">
				<stop  offset="0" style="stop-color:#2B3582"/>
				<stop  offset="1" style="stop-color:#150E42"/>
			</linearGradient>
			<path class="st46" d="M2361.62,1038.86l-35.79,93.86c0,0,34.12,150.37,200.99,198.42c166.87,48.05,233.83-33.88,233.83-33.88
				l42.3-137.63L2361.62,1038.86z"/>
			<linearGradient id="SVGID_41_" gradientUnits="userSpaceOnUse" x1="2567.0869" y1="1199.9299" x2="2756.3228" y2="338.7131">
				<stop  offset="0" style="stop-color:#2B3582"/>
				<stop  offset="1" style="stop-color:#150E42"/>
			</linearGradient>
			<path class="st47" d="M2618.69,894.65l-335.82,87.27c-17.29,4.49-22.58,26.45-9.23,38.32c65.15,57.88,213.15,192.64,268.7,270.32
				c5.94,8.31,16.78,11.49,26.29,7.76l340.64-133.53c15.41-6.04,19.14-26.15,6.91-37.3c-64.49-58.81-228.65-206.11-282.44-231.47
				C2629.05,893.8,2623.72,893.34,2618.69,894.65z"/>
			
				<linearGradient id="SVGID_42_" gradientUnits="userSpaceOnUse" x1="2779.6682" y1="1502.8795" x2="2736.0886" y2="1226.874" gradientTransform="matrix(1 -9.500000e-03 9.500000e-03 1 -24.9307 56.9446)">
				<stop  offset="0" style="stop-color:#2B3582"/>
				<stop  offset="1" style="stop-color:#150E42"/>
			</linearGradient>
			<path class="st48" d="M2608.21,1067.08c0,0,175.97,115.7,189.06,141.62c13.09,25.92-16.44,142.07-16.44,142.07
				c26.17,99.27,28.3,206.58-20.12,261.78c0,0-55.93-130.95-28.82-185.19c27.12-54.24,37.59-76.48,37.59-76.48
				s25.17-123.94,18.29-141.86C2787.77,1209.03,2592.96,1073.91,2608.21,1067.08z"/>
			<path class="st49" d="M2329.52,1011.51l167.19,172.45l41.8,43.11l10.45,10.78l5.2,5.35c1.52,1.57,3.25,2.91,5.08,4.11
				c7.35,4.75,16.81,6.07,25.27,3.32l114.7-35.6c1.72-0.54,3.55,0.43,4.09,2.15c0.53,1.71-0.41,3.52-2.11,4.08l-114.17,37.25
				c-10.58,3.62-22.86,2.17-32.42-3.84c-2.38-1.51-4.64-3.22-6.65-5.22l-5.34-5.34l-10.6-10.62l-42.42-42.5l-169.66-170.02
				c-2.63-2.63-2.62-6.89,0.01-9.52c2.63-2.63,6.89-2.62,9.52,0.01C2329.46,1011.46,2329.5,1011.49,2329.52,1011.51z"/>
			<path class="st49" d="M2768.89,1412.82c-0.68,0.64-1.9,2.1-2.83,3.33c-1,1.28-1.9,2.73-2.86,4.08l-2.58,4.41
				c-0.81,1.51-1.53,3.09-2.31,4.63c-1.55,3.09-2.69,6.42-4,9.66c-0.99,3.38-2.24,6.68-3.04,10.13c-0.74,3.47-1.74,6.89-2.28,10.42
				l-1.61,10.61l-0.85,10.76c-0.38,3.59-0.15,7.22-0.26,10.83c-0.29,7.24,0.48,14.48,0.84,21.75c0.64,7.25,1.71,14.48,2.63,21.72
				c1.39,7.18,2.63,14.4,4.15,21.56l5.32,21.37l0.03,0.12c0.31,1.26-0.45,2.52-1.71,2.84c-1.21,0.3-2.45-0.41-2.81-1.59l-6.45-21.34
				c-1.9-7.19-3.53-14.46-5.31-21.71c-1.31-7.34-2.76-14.68-3.79-22.1c-0.75-7.46-1.9-14.89-1.99-22.44
				c-0.08-3.77-0.49-7.53-0.29-11.31l0.34-11.36l1.14-11.36c0.4-3.79,1.28-7.54,1.9-11.32c0.69-3.77,1.86-7.48,2.78-11.23
				c1.25-3.67,2.35-7.41,3.92-11.01c0.79-1.8,1.52-3.62,2.37-5.4l2.76-5.29c1.08-1.72,2.06-3.46,3.24-5.16
				c1.24-1.75,2.26-3.24,4.14-5.26c2.54-2.72,6.81-2.86,9.52-0.32c2.72,2.54,2.86,6.8,0.32,9.52c-0.09,0.1-0.18,0.19-0.27,0.28
				L2768.89,1412.82z"/>
			<path class="st49" d="M2774.32,1457.42l-0.58,29.63l-0.42,31.43l-0.65,62.88c-0.01,2.02-1.67,3.65-3.69,3.63
				c-1.96-0.01-3.55-1.58-3.63-3.52l-2.42-62.86l-1.12-31.45l-0.49-15.75l-0.21-7.9l-0.07-4.01l-0.02-2.02
				c0.02-1.04,0.12-2.38,0.29-3.54c0.51-3.59,3.83-6.08,7.41-5.57c3.32,0.47,5.71,3.35,5.64,6.62L2774.32,1457.42z"/>
		</g>
	</g>
	<g>
		<g>
			<g>
				<path class="st50" d="M2694.7,2533.09c-58.79,74.03-126.62,140.88-201.51,198.57c-5.86,4.52-12.25,9.78-13.16,17.12
					c-0.91,7.35,8.23,15.1,13.8,10.23c-6.24,1.15-8.03,10.65-5.75,16.58s10.4,8.67,15.81,5.35c-7.11,2.69-3.67,14.94,2.65,19.16
					c6.32,4.22,14.65,3.25,22.14,1.92c129-22.79,246.59-103.7,313.98-216.04C2792.32,2568.36,2745.03,2550.73,2694.7,2533.09z"/>
			</g>
			<g>
				<path class="st51" d="M2661.02,2622.37c1.8-4.79-5.05-7.96-7.91-3.92c-7.85,11.09-15.82,20.19-26.71,28.41
					c-4.9,3.7,0.64,12.46,5.95,9.14C2644.89,2648.15,2655.75,2636.35,2661.02,2622.37z"/>
			</g>
			<g>
				<path class="st51" d="M2706.61,2621.05c-9.22,8.16-17.25,17.93-25.4,27.13c-4.92,5.56,4.74,12.07,9.61,6.5
					c7.77-8.87,16.04-17.72,22.67-27.49C2716.42,2622.89,2710.59,2617.53,2706.61,2621.05z"/>
			</g>
			<g>
				<path class="st51" d="M2645.19,2673.02c-11.69,10.12-24.19,18.77-37.91,25.92c-6.71,3.49-1.69,14.02,5.08,10.6
					c14.69-7.42,28.04-16.85,39.71-28.47C2656.85,2676.31,2650.4,2668.5,2645.19,2673.02z"/>
			</g>
			<g class="st52">
				<path d="M2575.05,2694.42c64.85-49.75,155.91-80.3,237.77-64.91c10.78-13.9,20.77-28.41,29.83-43.52
					c-50.33-17.64-97.62-35.27-147.95-52.91c-58.79,74.03-126.62,140.88-201.51,198.57c-5.86,4.52-12.25,9.78-13.16,17.12
					c-0.76,6.14,5.49,12.53,10.81,11.64c0.85-0.7,1.84-1.2,2.98-1.41c-0.92,0.8-1.94,1.23-2.98,1.41
					c-3.77,3.12-4.63,10.33-2.77,15.17c2.11,5.49,9.25,8.25,14.59,5.97c0.37-0.24,0.77-0.45,1.22-0.62
					c-0.45,0.17-0.85,0.38-1.22,0.62c-5.44,3.58-2.05,14.59,3.87,18.55c6.32,4.22,14.65,3.25,22.14,1.92
					c0.13-0.02,0.25-0.05,0.38-0.07C2529.61,2760.96,2539.96,2719.33,2575.05,2694.42z"/>
			</g>
			<g class="st53">
				<path d="M2623.71,2711.61c43.63-41.26,114.3-74.54,175.21-65.06c4.77-5.57,9.41-11.25,13.9-17.04
					c-81.87-15.4-172.92,15.16-237.77,64.91c-35.09,24.91-45.44,66.54-45.99,107.54c22.14-3.93,43.93-9.6,65.19-16.82
					C2593.5,2758.2,2601.76,2732.04,2623.71,2711.61z"/>
			</g>
		</g>
		<g>
			<g>
				<path class="st54" d="M3998.46,2914.18c-0.32,15.29-1.96,30.44-4.77,45.33l0,0.02c-7.36,39.11-22.92,76.53-44.7,110.39
					c-27.79,43.3-65.71,80.77-109.64,108.37l-0.02,0c-8.26,5.23-16.75,10.11-25.43,14.58c-31.36,16.23-64.74,27.86-99.13,35.27
					c-61.08,13.16-125.37,12.97-187.32,1.5c-19.27-3.55-38.3-8.22-56.96-13.91c-3.28-1-6.54-2.03-9.78-3.08
					c-46.36-15.11-90.4-36.14-131.9-61.59c-17.94-10.98-35.4-22.81-52.37-35.33c-35.47-26.19-68.79-55.41-99.75-86.57
					c1.3-63.99,5.75-142.38,10.72-206.23c38.43,27.51,83.1,45.97,129.7,54.77c24.84,4.7,50.22,6.67,75.48,5.81
					c31.15-1.08,62.14-6.45,91.7-16.29c2.93-0.97,5.86-1.98,8.76-3.04c24.7-9.05,48.12-20.95,70.9-34.09
					c20.81-11.96,41.09-24.95,61.37-37.74c2.51-1.57,5.03-3.17,7.54-4.74c20.51-12.83,41.34-25.4,62.87-36.39
					c20.6-10.52,41.85-19.56,64.09-26.02c1.75-0.51,3.51-1.01,5.28-1.48l0.02,0c29.88-7.99,61.78-10.76,92.03-5.88
					c17.31,2.79,34.07,8.09,49.62,16.35C3969.75,2767.66,3999.99,2843.44,3998.46,2914.18z"/>
			</g>
			<g>
				<path class="st50" d="M3392.6,2883.53c0.43,92.25-22.31,184.75-63.78,267.54c-17.94-10.98-35.4-22.81-52.37-35.33
					c33.54-74.1,47.79-157.01,40.67-238.03C3341.96,2882.41,3367.34,2884.38,3392.6,2883.53z"/>
			</g>
			<g>
				<path class="st50" d="M3527.45,3229.64c-19.27-3.55-38.3-8.22-56.96-13.91c-3.28-1-6.54-2.03-9.78-3.08
					c45.48-108.25,54.05-232.03,23.59-345.43c2.93-0.97,5.86-1.98,8.76-3.04c24.7-9.05,48.12-20.95,70.9-34.09
					C3599.68,2960.34,3584.53,3106.02,3527.45,3229.64z"/>
			</g>
			<g>
				<path class="st50" d="M3839.35,3178.29l-0.02,0c-8.26,5.23-16.75,10.11-25.43,14.58c-31.36,16.23-64.74,27.86-99.13,35.27
					c15.71-75.95,16.5-154.99,1.95-231.2c-14.21-74.28-42.94-145.72-83.85-209.32c20.51-12.83,41.34-25.4,62.87-36.39
					c56.73,58.23,100.71,129.23,124.62,206.47C3842.35,3028.75,3848.64,3104.52,3839.35,3178.29z"/>
			</g>
			<g>
				<path class="st50" d="M3993.69,2959.51l0,0.02c-7.36,39.11-22.92,76.53-44.7,110.39c-10.87-57.94-29.47-114.41-55.34-167.38
					c-32.38-66.24-76.11-126.92-128.51-178.8c29.88-7.99,61.78-10.76,92.03-5.88c39.05,44.9,71.92,95.38,98.97,149.5
					C3970.99,2897.06,3983.53,2927.9,3993.69,2959.51z"/>
			</g>
			<g class="st52">
				<path d="M3515.95,3015.92c-51.53-33.27-91.77-79.75-118.14-132.67c-1.74,0.09-3.47,0.21-5.21,0.27
					c-25.26,0.86-50.64-1.11-75.48-5.81c-12.02-2.27-23.91-5.19-35.59-8.74c32.38,96.27,92.52,179.78,194.65,228.31
					c98.75,46.36,201.18,67.28,309.57,64.6c32.9-0.63,64.92-5.65,95.51-14.48c26.25-22.46,49.25-48.67,67.75-77.49
					c21.77-33.85,37.34-71.27,44.7-110.39l0-0.02c0.52-2.74,0.98-5.49,1.42-8.24C3867.25,3070.13,3669.82,3114.88,3515.95,3015.92z"
					/>
			</g>
			<g class="st53">
				<path d="M3940.91,2759.28c2.17,52.97-10.64,106.02-42.68,152.95c-54.67,78.7-154.54,103.5-244.77,79.25
					c-69.53-19.5-123.83-68.12-155.31-129.24c-1.7,0.65-3.38,1.32-5.09,1.95c-2.9,1.07-5.83,2.08-8.76,3.04
					c-27.92,9.29-57.1,14.55-86.49,16.02c26.37,52.92,66.61,99.4,118.14,132.67c153.87,98.95,351.3,54.21,479.16-64.66
					c1.94-12.23,3.09-24.61,3.35-37.08C3999.68,2857.72,3980.64,2798.08,3940.91,2759.28z"/>
			</g>
			<g class="st55">
				<path d="M3785.74,3161.89c-108.39,2.68-210.81-18.24-309.57-64.6c-102.13-48.53-162.27-132.04-194.65-228.31
					c-33.63-10.2-65.59-25.61-94.1-46.03c-4.97,63.84-9.42,142.24-10.72,206.23c30.96,31.16,64.28,60.39,99.75,86.57
					c16.97,12.52,34.43,24.35,52.37,35.33c41.5,25.45,85.54,46.48,131.9,61.59c3.24,1.05,6.5,2.08,9.78,3.08
					c18.65,5.69,37.68,10.35,56.96,13.91c61.95,11.47,126.25,11.66,187.32-1.5c34.39-7.41,67.77-19.04,99.13-35.27
					c8.68-4.48,17.16-9.35,25.43-14.58l0.02,0c14.7-9.23,28.7-19.59,41.89-30.88C3850.66,3156.24,3818.64,3161.25,3785.74,3161.89z"
					/>
			</g>
			<g class="st52">
				<path class="st7" d="M3810.05,2749.92c-35.15,7.7-67.37,25.07-98.17,43.66s-60.91,38.73-94.01,52.82
					c-8.16,3.48-17.09,7.07-21.59,14.72c-5.73,9.74-1.59,23.1,7.05,30.39c8.64,7.29,20.55,9.49,31.85,9.25
					c25.28-0.54,49.07-11.79,70.82-24.7c21.74-12.91,42.55-27.81,66.13-36.94c37.27-14.42,78.8-13.41,117.03-25.06
					c23.13-7.04,52.32-38.19,19.34-54.25C3878.35,2745.14,3842.42,2742.83,3810.05,2749.92z"/>
			</g>
		</g>
		<g>
			<g>
				<path class="st50" d="M3171.92,2837.76c1.19,4.96,2.37,9.94,3.51,14.92c11.54,50.79,19.83,102.27,19.47,154.23
					c-0.5,71.53-18.54,144.76-62.22,201.4c-5.87,7.61-12.36,15.04-20.8,19.59c-8.44,4.55-19.33,4.63-27.58-0.29
					c-1.91,5.67-7.07,10.11-12.95,11.14c-5.88,1.04-11.71-2.46-15.43-7.15c-0.13,6.34-7.07,11.07-13.38,10.32
					c-6.29-0.74-11.48-5.67-14.31-11.35c-2.81-5.7-3.71-12.11-4.64-18.39c-6.36-42.86-16.25-85.04-27.2-126.98
					c-4.62-17.78-9.44-35.49-14.25-53.21c48.93-66.24,98.3-129.24,147.2-195.5c8.69-11.77,18.21-25.77,28.31-36.97
					C3163.53,2811.88,3168.37,2824.68,3171.92,2837.76z"/>
			</g>
			<g>
				<path class="st51" d="M3116.49,3160.1c-3.41,6.3-6.7,12.67-9.98,19.04c-2.74,5.32-7.12,11.61-6.68,17.79
					c0.2,2.76,3.11,4,5.38,2.69c5.36-3.08,8.13-10.39,11.01-15.63c3.46-6.28,6.9-12.56,10.23-18.91
					C3129.8,3158.71,3119.9,3153.8,3116.49,3160.1z"/>
			</g>
			<g>
				<path class="st51" d="M3134.41,3093.55c-2.22,12.75-4.91,25.4-7.13,38.14c-0.85,4.89,6.61,8.04,8.58,2.99
					c4.89-12.53,7.84-25.49,9.66-38.8C3146.49,3088.71,3135.67,3086.29,3134.41,3093.55z"/>
			</g>
			<g>
				<path class="st51" d="M3096.2,3116.98c-0.5,7.23-1.53,14.41-3.06,21.48c-1.36,6.25-3.84,12.37-4.11,18.78
					c-0.15,3.61,4.8,4.81,6.95,2.41c9.49-10.59,11.27-29.7,11.66-43.27C3107.86,3108.9,3096.71,3109.81,3096.2,3116.98z"/>
			</g>
			<g class="st56">
				<path d="M3171.51,3138.35c-37.32-44.42-111.33-55.68-172.77-44c2.74,10.67,5.39,21.37,7.93,32.08
					c53.73-10.61,111.4,6.68,139.84,61c0.09,0.19,0.16,0.39,0.25,0.58C3156.64,3172.32,3164.86,3155.68,3171.51,3138.35z"/>
			</g>
			<g class="st57">
				<path d="M3157.66,2799.53c-10.1,11.19-19.62,25.19-28.31,36.97c-48.9,66.26-98.27,129.25-147.2,195.5
					c4.8,17.72,9.63,35.43,14.25,53.21c0.8,3.05,1.57,6.1,2.36,9.15c61.44-11.68,135.45-0.42,172.77,44
					c15.94-41.51,23.08-86.81,23.39-131.44c0.36-51.96-7.93-103.44-19.47-154.23c-1.13-4.98-2.31-9.96-3.51-14.92
					C3168.37,2824.68,3163.53,2811.88,3157.66,2799.53z"/>
			</g>
		</g>
		<g>
			<g>
				<path class="st50" d="M2927.45,2935.42c-2.66,4.35-5.34,8.72-8.06,13.04c-27.7,44.11-58.18,86.41-95.13,122.94
					c-50.87,50.29-115.36,89.4-186.29,98.65c-9.53,1.24-19.37,1.91-28.56-0.82c-9.19-2.74-16.96-10.37-19.33-19.68
					c-5.36,2.67-12.15,2.17-17.03-1.26c-4.9-3.41-6.56-10.01-5.87-15.96c-4.57,4.39-12.82,2.85-16.76-2.15
					c-3.93-4.97-4.12-12.12-2.12-18.14c2.03-6.02,5.92-11.19,9.7-16.3c25.76-34.83,48.56-71.68,70.42-109.11
					c9.29-15.85,18.38-31.79,27.49-47.73c81.42-12.34,160.87-22.08,242.28-34.45c14.47-2.2,31.1-5.38,46.15-6.18
					C2939.78,2911.17,2934.17,2923.65,2927.45,2935.42z"/>
			</g>
			<g>
				<path class="st51" d="M2660.56,3124.49c-6.87,2.06-13.69,4.24-20.51,6.43c-5.7,1.83-13.24,3.19-17.29,7.88
					c-1.81,2.09-0.62,5.03,1.91,5.71c5.97,1.6,13.1-1.61,18.83-3.29c6.88-2.01,13.76-4.02,20.6-6.17
					C2670.96,3132.9,2667.42,3122.43,2660.56,3124.49z"/>
			</g>
			<g>
				<path class="st51" d="M2720.24,3090.02c-10.57,7.46-21.42,14.51-31.99,21.97c-4.05,2.86-1,10.36,3.96,8.18
					c12.31-5.42,23.55-12.5,34.24-20.65C2732.21,3095.13,2726.26,3085.77,2720.24,3090.02z"/>
			</g>
			<g>
				<path class="st51" d="M2676.64,3079.63c-5.46,4.76-11.25,9.12-17.34,13.05c-5.37,3.47-11.45,6.04-16.17,10.39
					c-2.66,2.45,0,6.79,3.22,6.61c14.2-0.79,28.95-13.07,38.82-22.4C2690.6,3082.14,2682.06,3074.9,2676.64,3079.63z"/>
			</g>
			<g class="st56">
				<path d="M2714.87,3147.94c4.95-57.8-39.5-118.05-91.24-153.16c-5.6,9.49-11.27,18.94-17.04,28.32
					c45.54,30.43,74.15,83.4,55.93,141.94c-0.07,0.2-0.16,0.39-0.23,0.59C2680.35,3161.49,2697.92,3155.51,2714.87,3147.94z"/>
			</g>
			<g class="st57">
				<path d="M2944.34,2898.28c-15.05,0.79-31.68,3.98-46.15,6.18c-81.41,12.37-160.86,22.11-242.28,34.45
					c-9.11,15.94-18.2,31.88-27.49,47.73c-1.59,2.72-3.2,5.43-4.8,8.14c51.74,35.12,96.19,95.36,91.24,153.16
					c40.6-18.14,77.65-45.16,109.39-76.54c36.95-36.53,67.44-78.84,95.13-122.94c2.71-4.32,5.4-8.69,8.06-13.04
					C2934.17,2923.65,2939.78,2911.17,2944.34,2898.28z"/>
			</g>
		</g>
		<g>
			<path class="st54" d="M3273.87,2878.66c-0.26,5.12-0.76,10.21-1.39,15.27c-3.71,28.05-13.35,54.79-30.49,77.35
				c-17.5,23.08-40.71,39.54-66.81,51.64c-35.89,16.63-77.22,24.99-116.65,30.9c-9.77,1.46-19.59,2.84-29.4,4.13
				c-48.6,6.38-97.78,10.34-146.53,9.14c-37.2-0.89-74.13-4.78-110.35-12.88c-7.67-1.72-15.31-3.63-22.91-5.73
				c-34-9.4-68.55-23.93-90.27-51.75c-25.64-32.85-28.62-77.76-26.75-119.41c5.58-126.22,45.1-248.15,84.27-368.27
				c7.36-1.91,14.72-3.73,22.06-5.47c123.71-29.47,242.29-36.44,370.73-34.5c8.92,60.11,39.59,114.56,71.44,166.31
				c31.86,51.75,65.95,103.32,83.08,161.6c3.91,13.27,6.8,27.01,8.51,40.91C3274.09,2851.45,3274.63,2865.13,3273.87,2878.66z"/>
		</g>
		<g class="st52">
			<path d="M2991.38,2850.39c0.77-0.73,1.37-1.66,1.68-2.84C2992.23,2848.36,2991.69,2849.33,2991.38,2850.39z"/>
		</g>
		<g class="st52">
			<path d="M3013.02,2861.28c0.25-0.38,0.47-0.78,0.66-1.2C3013.4,2860.47,3013.18,2860.87,3013.02,2861.28z"/>
		</g>
		<g>
			<path class="st50" d="M2916.74,2992.57c-4.3,29.77-12.88,53.31-24.17,72c-3.3,0.91-6.62,1.74-9.97,2.5
				c-37.2-0.89-74.13-4.78-110.35-12.88c-7.67-1.72-15.31-3.63-22.91-5.73c-34-9.4-68.55-23.93-90.27-51.75
				c-25.64-32.85-28.62-77.76-26.75-119.41c5.58-126.22,45.1-248.15,84.27-368.27c7.36-1.91,14.72-3.73,22.06-5.47
				c21.84,4.71,42.17,13.46,55.85,28.86c25.54,28.75,41.91,64.32,56.76,99.78c16.02,38.3,30.73,77.15,44.49,116.28
				C2919.65,2816.31,2927.03,2921.32,2916.74,2992.57z"/>
		</g>
		<g>
			<path class="st51" d="M2665.32,2943.11c-4.33-11.61-4.69-22.61-5.2-34.81c-0.19-4.56-6.31-5.27-7.8-1.06
				c-4.35,12.36-2.05,26.81,2.75,38.69C2657.57,2952.16,2667.74,2949.6,2665.32,2943.11z"/>
		</g>
		<g>
			<path class="st51" d="M2687.84,2857.1c-0.58-3.82-6-3.08-7.02,0c-3.6,10.94-2.64,23.69-1.66,34.98c0.59,6.82,11.36,6.83,10.69,0
				C2688.71,2880.5,2689.6,2868.58,2687.84,2857.1z"/>
		</g>
		<g>
			<path class="st51" d="M2698.51,2991.18c-4-12.9-6.94-25.72-8.04-39.21c-0.45-5.46-8.4-5.6-8.6,0
				c-0.51,14.27,1.47,28.61,6.63,41.97C2690.86,3000.04,2700.53,2997.69,2698.51,2991.18z"/>
		</g>
		<g>
			<path class="st58" d="M3214.94,2884.79c1.57,12.29-0.6,23.08-2.88,35.07c-0.85,4.49,4.94,6.58,7.35,2.81
				c7.06-11.04,8.12-25.63,6.16-38.29C3224.55,2877.75,3214.07,2877.92,3214.94,2884.79z"/>
		</g>
		<g>
			<path class="st58" d="M3173.37,2963.38c-0.3,3.85,5.14,4.37,6.83,1.6c6-9.83,7.98-22.46,9.61-33.68c0.98-6.78-9.5-9.24-10.4-2.44
				C3177.87,2940.41,3174.28,2951.81,3173.37,2963.38z"/>
		</g>
		<g>
			<path class="st58" d="M3193.61,2830.41c0.94,13.47,0.88,26.63-1.13,40.01c-0.81,5.42,6.9,7.37,8.37,1.96
				c3.76-13.78,5.1-28.19,3.13-42.38C3203.08,2823.54,3193.13,2823.61,3193.61,2830.41z"/>
		</g>
		<g class="st55">
			<path d="M3180.81,2635.37c-31.85-51.74-62.52-106.2-71.44-166.31c-136.06-2.04-261.05,5.88-392.79,39.98
				c-11.48,35.22-22.99,70.59-33.67,106.18c163.63,6.8,325.77,38.51,478.03,107.28c35.39,15.16,69.35,35.51,98.63,61.04
				C3241.45,2730.69,3210.2,2683.09,3180.81,2635.37z"/>
		</g>
		<g class="st57">
			<path d="M3272.41,2837.87c-1.72-13.9-4.6-27.64-8.51-40.91c-1.33-4.53-2.8-9-4.32-13.45c-29.27-25.52-63.24-45.87-98.63-61.04
				c-152.26-68.76-314.4-100.48-478.03-107.28c-6.02,20.04-11.75,40.16-17.08,60.35c142.26-1.77,288.74,31.07,406.08,118.58
				c34.74,26.06,65.14,71.66,49.94,115.09c-28.23,76-115.09,97.71-191.09,110.74c-81.22,12.74-164.77,18.44-242.95,2.61
				c18.5,12.01,40.11,19.97,61.51,25.88c7.6,2.11,15.24,4.02,22.91,5.73c83.71,18.7,171.22,14.98,256.88,3.73
				c9.81-1.28,19.63-2.67,29.4-4.13c39.43-5.91,80.76-14.27,116.65-30.9c26.1-12.09,49.31-28.55,66.81-51.64
				c17.13-22.56,26.79-49.29,30.49-77.35c0.65-5.06,1.13-10.14,1.39-15.27C3274.62,2865.13,3274.08,2851.45,3272.41,2837.87z"/>
		</g>
		<g>
			<g>
				<path class="st50" d="M2833.29,2542.88c-7.22,94.26-25.96,187.63-55.66,277.38c-2.33,7.03-4.67,14.96-1.31,21.55
					c3.36,6.59,15.27,7.9,17.16,0.74c-4.52,4.45-0.68,13.33,4.52,16.96c5.21,3.63,13.48,1.36,16.09-4.42
					c-4.38,6.21,5.33,14.44,12.93,14.39c7.6-0.05,13.96-5.52,19.42-10.81c94.09-91.15,146.16-224.05,139.03-354.86
					C2933.9,2517.4,2884.86,2529.29,2833.29,2542.88z"/>
			</g>
			<g>
				<path class="st51" d="M2855.4,2635.7c-1.19-4.97-8.64-3.76-8.75,1.18c-0.29,13.58-1.79,25.59-6.21,38.5
					c-1.99,5.81,7.51,9.97,10.05,4.24C2856.48,2666.09,2858.88,2650.23,2855.4,2635.7z"/>
			</g>
			<g>
				<path class="st51" d="M2892.43,2609.06c-3.07,11.93-4.25,24.51-5.84,36.71c-0.96,7.37,10.69,7.34,11.6,0
					c1.46-11.7,3.36-23.66,3.38-35.47C2901.59,2605.09,2893.75,2603.92,2892.43,2609.06z"/>
			</g>
			<g>
				<path class="st51" d="M2870.67,2686.52c-4.01,14.93-9.52,29.1-16.88,42.71c-3.6,6.65,6.46,12.56,10.15,5.93
					c8.01-14.37,13.78-29.66,16.94-45.83C2882.17,2682.72,2872.46,2679.86,2870.67,2686.52z"/>
			</g>
			<g class="st52">
				<path d="M2824.56,2743.55c25.85-77.54,84.15-153.87,160.59-186.98c1.14-17.55,1.29-35.17,0.33-52.76
					c-51.57,13.59-100.62,25.48-152.19,39.07c-7.22,94.26-25.96,187.63-55.66,277.38c-2.33,7.03-4.67,14.96-1.31,21.55
					c2.81,5.51,11.57,7.31,15.48,3.58c0.31-1.05,0.85-2.02,1.68-2.84c-0.31,1.18-0.91,2.11-1.68,2.84
					c-1.38,4.69,1.96,11.15,6.21,14.12c4.83,3.37,12.28,1.65,15.43-3.23c0.17-0.41,0.39-0.8,0.66-1.2c-0.28,0.39-0.5,0.79-0.66,1.2
					c-2.5,6.02,6.47,13.24,13.6,13.19c7.6-0.05,13.96-5.52,19.42-10.81c0.09-0.09,0.18-0.18,0.28-0.28
					C2824.2,2824.13,2809.45,2783.84,2824.56,2743.55z"/>
			</g>
			<g class="st53">
				<path d="M2874.5,2730.52c13.03-58.62,52.91-125.78,108.68-152.05c0.83-7.28,1.49-14.58,1.97-21.9
					c-76.44,33.12-134.74,109.44-160.59,186.98c-15.11,40.29-0.36,80.57,22.16,114.84c16.13-15.66,31.01-32.56,44.57-50.46
					C2875.58,2786.04,2867.76,2759.74,2874.5,2730.52z"/>
			</g>
		</g>
		<g>
			<g>
				<g>
					<path class="st59" d="M3032.6,1770.07c27.34,20.88,53.29,42.83,77.91,65.83c63.62,59.24,118.71,125.38,167.54,198.09
						c12.16,18.04,23.91,36.52,35.31,55.38c-1.3-2.14,34.2-49.48,36.87-55.5c45.12-101.59,68.41-191.92,72.19-260.7
						c1.5-27.38,8.73-118.05-36.6-116.59c-60.71,1.94-126.13,20.55-183.31,39.73C3083.82,1736.1,3036.1,1772.75,3032.6,1770.07z"/>
				</g>
				<g>
					<path class="st60" d="M3110.51,1835.9c63.62,59.24,118.71,125.38,167.54,198.09c40.44-87.05,78.66-208.81,82.75-251.07
						c0.95-9.98,1.72-20.79-3.61-29.29c-5.16-8.23-15.18-12.44-24.89-12.91c-9.72-0.49-19.27,2.2-28.56,5.09
						C3235.62,1767.02,3172.05,1799.5,3110.51,1835.9z"/>
				</g>
				<g class="st55">
					<path d="M3032.6,1770.07c5.59,4.26,11.12,8.57,16.56,12.94c23.77-12.89,69.85-36.94,145.55-62.32
						c55.74-18.7,119.51-36.83,178.68-38.73c44.19-1.43,37.16,86.95,35.69,113.65c-3.68,67.04-26.38,155.11-70.38,254.13
						c-1.65,3.71-16.14,23.58-26.22,38.19l0.88,1.45c-1.3-2.14,34.2-49.48,36.87-55.5c45.12-101.59,68.41-191.92,72.19-260.7
						c1.5-27.38,8.73-118.05-36.6-116.59c-60.71,1.94-126.13,20.55-183.31,39.73C3083.82,1736.1,3036.1,1772.75,3032.6,1770.07z"/>
				</g>
				<g class="st55">
					<path d="M3110.51,1835.9c19.02-11.25,38.23-22.11,57.7-32.39c27.97,34.71,62.68,57.72,112.4,44.99
						c28.06-5.98,53.72-20.49,75.66-39.35c-11.97,54.47-44.32,151.85-78.22,224.85C3229.22,1961.28,3174.13,1895.14,3110.51,1835.9z
						"/>
				</g>
			</g>
			<g>
				<g>
					<path class="st59" d="M2646.43,1936.41c16.46-17.5,33.42-33.73,50.87-48.75c44.98-38.85,93.21-69.88,144.77-94.91
						c12.8-6.25,25.82-12.09,39.04-17.61c-1.5,0.63-26.71-35.18-30.15-38.31c-57.96-52.8-111.59-86.71-154.15-101.73
						c-16.95-5.98-72.78-27.52-77.5,7.85c-6.33,47.35-2.81,101.28,2.08,148.93C2631.54,1890.77,2648.54,1934.17,2646.43,1936.41z"/>
				</g>
				<g>
					<path class="st60" d="M2697.3,1887.65c44.98-38.85,93.21-69.88,144.77-94.91c-49.44-46.61-120.88-97.62-146.82-108.21
						c-6.13-2.49-12.8-4.99-18.78-2.36c-5.79,2.55-9.67,9.56-11.17,17c-1.51,7.44-1.02,15.31-0.36,23.01
						C2669.76,1778.66,2682.18,1833.59,2697.3,1887.65z"/>
				</g>
				<g class="st55">
					<path d="M2646.43,1936.41c3.36-3.58,6.75-7.1,10.15-10.54c-5.11-20.67-14.43-60.58-20.91-123.66
						c-4.78-46.45-8.19-99.01-2.03-145.16c4.6-34.47,59.02-13.49,75.55-7.66c41.49,14.64,93.78,47.7,150.27,99.17
						c2.11,1.93,12.75,16.64,20.64,27.01l1.01-0.43c-1.5,0.63-26.71-35.18-30.15-38.31c-57.96-52.8-111.59-86.71-154.15-101.73
						c-16.95-5.98-72.78-27.52-77.5,7.85c-6.33,47.35-2.81,101.28,2.08,148.93C2631.54,1890.77,2648.54,1934.17,2646.43,1936.41z"/>
				</g>
				<g class="st55">
					<path d="M2697.3,1887.65c-4.67-16.7-9.09-33.49-13.1-50.37c25.2-15.56,43.9-38.39,42.12-79.13
						c-0.25-22.78-6.14-45.2-15.22-65.5c32.59,18.85,89.51,61.01,130.97,100.1C2790.51,1817.77,2742.28,1848.8,2697.3,1887.65z"/>
				</g>
			</g>
			<g>
				<path class="st54" d="M3422.61,2464.68c-9.64,21.71-31.36,33.55-51.85,43.08c-7.88,3.65-15.79,7.19-23.73,10.62
					c-55.26,23.8-112.52,42.02-170.85,54.72c-18.85,4.1-37.8,7.62-56.83,10.55c-64.25,9.97-129.44,13.35-194.34,10.23
					c-67.25-3.24-134.19-13.46-199.55-30.64c-31.36-8.23-58.65-17.89-82.41-28.68c-80.17-36.35-120.01-85.21-138.78-133.41
					c-14.64-37.54-16.5-74.7-14.68-105.21c0.61-10.55,1.67-20.3,2.8-29.01c6.67-51.57,28.86-191.8,79.24-282.94
					c45.06-81.52,99.43-158.15,178.6-201.6c52.31-28.71,110.98-42.41,169.63-42.63c49.57-0.22,99.17,9.23,144.94,27.4
					c30.94,12.29,60.54,28.08,87.9,46.77c69.53,47.55,120.12,111.74,158.12,184.83c53.94,103.79,82.49,225.57,103.66,343.35
					c3.47,19.37,6.75,38.63,9.92,57.67C3428.02,2421.47,3431.45,2444.83,3422.61,2464.68z"/>
			</g>
			<g>
				<path class="st59" d="M3119.35,2583.65c-64.25,9.97-129.44,13.35-194.34,10.23c-24.21-63.15-45.82-128.81-60.69-199.73
					c-6.01-28.68-10.66-62.1-1.56-88.29c7.56-21.78,23.19-32.48,37.98-32.29c14.81,0.24,28.99,9.68,42.43,20.35
					C3018.4,2353.72,3081.24,2457.69,3119.35,2583.65z"/>
			</g>
			<g>
				<path class="st61" d="M2689.55,1843.01c-7.73,7.36-15.13,15.08-22.54,22.76c-5.23,5.42,4.26,12.48,9.42,7.03
					c6.99-7.38,14.01-14.76,20.68-22.44C2701.02,1845.85,2693.92,1838.84,2689.55,1843.01z"/>
			</g>
			<g>
				<path class="st61" d="M2788.11,1809.5c-11.91,7.69-22.52,18.21-33.16,27.54c-5.78,5.07,1.63,14.46,7.42,9.38
					c11.01-9.66,23.08-19.07,32.57-30.27C2798.72,1811.7,2792.39,1806.74,2788.11,1809.5z"/>
			</g>
			<g>
				<path class="st61" d="M2704.21,1913.82c-11.4,12.35-21.71,25.83-32.18,38.97c-4.71,5.9,4.69,12.88,9.38,7
					c10.46-13.12,21.3-26.15,30.79-40C2715.91,1914.39,2708.5,1909.18,2704.21,1913.82z"/>
			</g>
			<g>
				<path class="st61" d="M2617.3,1949.6c-8.83,10.52-15.26,23.84-22.16,35.69c-3.7,6.35,5.47,13.32,9.26,6.91
					c7.21-12.19,16.05-24.78,21.1-38.05C2627.45,1949.03,2620.69,1945.56,2617.3,1949.6z"/>
			</g>
			<g>
				<path class="st61" d="M2700.94,1991.62c-11.27,9.21-20.12,22.85-29.22,34.13c-4.76,5.9,4.68,12.91,9.42,7.03
					c9.14-11.32,20.41-22.79,27.07-35.79C2710.39,1992.74,2704.34,1988.84,2700.94,1991.62z"/>
			</g>
			<g>
				<path class="st61" d="M2612.48,2017.23c-9.93,14.19-18.52,29.47-27.11,44.5c-3.61,6.32,5.5,13.17,9.23,6.79
					c8.96-15.35,18.19-30.89,25.72-47.01C2622.48,2016.88,2615.36,2013.11,2612.48,2017.23z"/>
			</g>
			<g>
				<path class="st61" d="M2634.1,2074.11c-8.3,10.16-15.82,20.62-23.15,31.51c-3.91,5.81,4.84,12.35,8.73,6.52
					c7.5-11.25,14.47-22.54,20.9-34.43C2642.67,2073.85,2636.64,2071.01,2634.1,2074.11z"/>
			</g>
			<g>
				<path class="st61" d="M2588.6,2111.69c-4.61,10.31-9,20.72-13.29,31.18c-2.76,6.73,7.38,11.84,10.15,5.07
					c4.3-10.47,8.5-20.99,12.47-31.59C2600.24,2110.2,2591.38,2105.46,2588.6,2111.69z"/>
			</g>
			<g>
				<path class="st61" d="M2789.52,1889.75c-8.8,10.84-21.28,22.89-26.66,35.87c-1.61,3.89,3.11,6.76,6.24,4.62
					c5.84-4,10.18-10.2,14.7-15.59c5.01-5.97,9.98-11.99,14.9-18.04C2803.35,1890.86,2794.15,1884.04,2789.52,1889.75z"/>
			</g>
			<g>
				<path class="st61" d="M2882.72,1819.84c-14.26,6.93-27.71,16.73-37.41,29.39c-3.46,4.52,3.09,11.34,7.35,7.14
					c10.55-10.4,21.38-19.29,34.73-25.9C2894.05,1827.16,2889.46,1816.56,2882.72,1819.84z"/>
			</g>
			<g class="st53">
				<path d="M3275.02,2199.4c-108.35,186.74-325.06,262.83-525.66,260.53c-82.84,0-169.05-20.26-245.09-58.78
					c-14.64-37.54-16.5-74.7-14.68-105.21c88.79,42.06,188.94,60.73,287.43,51.01c166.01-18.44,297.42-182.12,297.42-345.82
					c0-96.82-53.03-179.84-126.81-239.77c-8.86-7.34-18.15-14.59-27.77-21.58c49.57-0.22,99.17,9.23,144.94,27.4
					c30.94,12.29,60.54,28.08,87.9,46.77c69.53,47.55,120.12,111.74,158.12,184.83C3320.99,2065.94,3311.13,2135.84,3275.02,2199.4z
					"/>
			</g>
			<g class="st52">
				<path d="M3414.49,2342.13c-200.86,194.86-504.92,216.9-771.44,192.43c-80.17-36.35-120.01-85.21-138.78-133.41
					c76.04,38.52,162.25,58.78,245.09,58.78c200.6,2.3,417.31-73.79,525.66-260.53c36.11-63.56,45.97-133.46,35.81-200.62
					C3364.77,2102.57,3393.32,2224.35,3414.49,2342.13z"/>
			</g>
			<g class="st55">
				<path d="M3422.61,2464.68c-9.64,21.71-31.36,33.55-51.85,43.08c-7.88,3.65-15.79,7.19-23.73,10.62
					c-55.26,23.8-112.52,42.02-170.85,54.72c-148.33,32.27-303.57,28.79-450.72-9.86c-31.36-8.23-58.65-17.89-82.41-28.68
					c266.52,24.47,570.59,2.43,771.44-192.43c3.47,19.37,6.75,38.63,9.92,57.67C3428.02,2421.47,3431.45,2444.83,3422.61,2464.68z"
					/>
			</g>
			<g class="st57">
				<path class="st7" d="M2781.79,1784.37c-26.44,9.9-50.41,25.53-72.57,43.02c-31.89,25.17-60.68,54.64-82.7,88.79
					c-22.02,34.14-37.15,73.1-41.11,113.53c-1.19,12.14-0.9,25.73,7.37,34.69c8.87,9.62,24.41,10.35,36.44,5.21
					c12.03-5.14,21.36-14.94,30.23-24.56c69.93-75.91,133.86-157.11,197.7-238.21c11.78-14.96,12.74-30.93-8.86-32.75
					C2825.79,1772.19,2802.84,1776.49,2781.79,1784.37z"/>
			</g>
			<g>
				<g>
					<path class="st59" d="M2706.69,2092.01c2.17,6.77,3.54,13.93,2.75,21c-0.79,7.07-3.94,14.07-9.53,18.47
						c-7.14,5.62-17.37,6.21-25.9,3.09c-8.53-3.12-15.53-9.49-21.14-16.63c-9.14-11.63-15.14-25.7-17.22-40.35
						c-2.4-16.89,8.29-44.32,29.9-35.88C2685.25,2049.41,2700.54,2072.78,2706.69,2092.01z"/>
				</g>
				<g>
					<path class="st62" d="M2665.56,2041.71c0.11,0.04,0.21,0.1,0.32,0.14c-7.32,7.02-12.44,17.58-14.26,27.62
						c-4.54,24.98,5.57,52.18,25.06,65.9c-0.9-0.24-1.79-0.49-2.66-0.81c-8.53-3.12-15.53-9.49-21.14-16.63
						c-9.14-11.63-15.14-25.7-17.22-40.35C2633.26,2060.7,2643.94,2033.26,2665.56,2041.71z"/>
				</g>
			</g>
			<g>
				<g>
					<path class="st59" d="M2509.41,2037.27c-4.31,6.41-7.9,13.45-9.21,21.06c-1.31,7.61-0.14,15.86,4.36,22.13
						c5.75,8.01,16.24,11.72,26.07,11.04c9.84-0.68,19.06-5.21,27.06-10.96c13.04-9.37,23.55-22.23,30.14-36.87
						c7.6-16.88,4.74-48.72-20.34-46.44C2544.63,1999.31,2521.64,2019.07,2509.41,2037.27z"/>
				</g>
				<g>
					<path class="st62" d="M2567.5,1997.23c-0.13,0.01-0.25,0.04-0.38,0.05c5.51,9.54,7.66,22.08,6.53,33.1
						c-2.81,27.41-21.56,52.73-46.03,61.16c1.01,0.02,2.01,0.03,3.01-0.04c9.84-0.68,19.06-5.21,27.06-10.96
						c13.04-9.37,23.55-22.23,30.14-36.87C2595.44,2026.79,2592.58,1994.95,2567.5,1997.23z"/>
				</g>
			</g>
			<g>
				<g>
					<path class="st60" d="M2604.35,2182.58c0.51,3.63,1.93,7.48,5.13,9.27c2.77,1.55,6.35,1.13,9.09-0.47
						c2.75-1.6,4.76-4.21,6.31-6.98c2.82-5.03,4.31-10.78,4.31-16.54c-0.01-7.47-5.53-16.52-13.99-12.47
						C2606.39,2159.61,2603.14,2173.89,2604.35,2182.58z"/>
				</g>
				<g class="st55">
					<path d="M2629.2,2167.85c0-3.12-0.98-6.51-2.73-9.11c1.02,13.03-7.78,25.75-19.93,30.27c0.75,1.16,1.71,2.15,2.94,2.84
						c2.77,1.55,6.35,1.13,9.09-0.47c2.75-1.6,4.76-4.21,6.31-6.98C2627.71,2179.37,2629.2,2173.61,2629.2,2167.85z"/>
				</g>
			</g>
			<g>
				<g>
					<path class="st60" d="M2526.74,2164.84c0.51,3.63,1.93,7.48,5.13,9.27c2.77,1.55,6.35,1.13,9.09-0.47
						c2.75-1.6,4.76-4.21,6.31-6.98c2.82-5.03,4.31-10.78,4.31-16.54c-0.01-7.47-5.53-16.52-13.99-12.47
						C2528.77,2141.86,2525.52,2156.15,2526.74,2164.84z"/>
				</g>
				<g class="st55">
					<path d="M2551.58,2150.11c0-3.12-0.98-6.51-2.73-9.11c1.02,13.03-7.78,25.75-19.93,30.27c0.75,1.16,1.71,2.15,2.94,2.84
						c2.77,1.55,6.35,1.13,9.09-0.47c2.75-1.6,4.76-4.21,6.31-6.98C2550.09,2161.63,2551.59,2155.87,2551.58,2150.11z"/>
				</g>
			</g>
			<g>
				<path class="st59" d="M2510.14,2195.96c0,0-52.11,22.18-62.09,115.32c-9.98,93.14,100.9,212.89,187.39,208.46
					C2721.93,2515.3,2646.53,2126.11,2510.14,2195.96z"/>
			</g>
			<g class="st63">
				<path class="st62" d="M2574.06,2196.08c-19.2-10.59-40.67-12.02-63.92-0.12c0,0-16.07,6.87-32.08,28.9
					c2.69,4.51,5.91,8.23,10.18,10.37c76,36.91,134.63,125.94,71.66,201.94c-12.1,15.46-26.49,23.83-42.07,27.53
					c9.4,9.07,19.36,17.35,29.66,24.57c25.62-1.87,51.4-11.92,60.18-34.73C2640.02,2372.74,2627.35,2267.6,2574.06,2196.08z"/>
			</g>
			<g>
				<path class="st62" d="M2574.06,2196.08c53.29,71.52,65.96,176.66,33.61,258.47c-8.77,22.81-34.56,32.86-60.18,34.73
					c28.52,19.98,59.54,31.92,87.94,30.46C2707.19,2516.06,2667.53,2247.6,2574.06,2196.08z"/>
			</g>
			<g>
				<path class="st60" d="M2593.65,2334.64c1.49,15.24-7.33,29.87-23.58,31.61c-11.34,1.22-21.48-5.67-32.11-8.35
					c-3.78-0.95-7.5-1.35-11.16-1.04c-5.05-19.77-9.41-39.44-11.37-59.81c-2.11-21.83-1.65-43.63-0.93-65.51
					c0.08-2.49-3.38-2.73-3.81-0.33c-7.51,41.31-3.42,87.14,9.11,127.18c-0.92,0.34-1.84,0.72-2.75,1.17
					c-9.69,4.82-19.6,17.55-31.23,9.64c-1.58-1.07-4.04,0.74-2.97,2.55c4.97,8.41,15.28,7.59,23.12,3.69
					c8.52-4.24,14.44-11.96,24.9-11.2c7.35,0.53,14.19,4.28,21.05,6.64c12.24,4.21,24.95,4.44,35.87-3.55
					c10.68-7.82,15.53-21.16,13.19-34.05C2600.12,2328.49,2593.19,2329.93,2593.65,2334.64z"/>
			</g>
			<g>
				<g>
					<path class="st60" d="M2527.36,2194.75c-11.78-1.62-23.83-0.59-34.56,5.39c-7.67,4.28-13.9,11.95-11.75,19.46
						c5.43,19.02,42.14,21.65,60.17,17.9c13.82-2.88,37.46-14.17,23.39-28.29C2556.22,2200.79,2539.83,2196.47,2527.36,2194.75z"/>
				</g>
				<g class="st53">
					<path d="M2534.89,2206.27c-14.73,13.08-36.92,13.73-51.35,2.02c-0.52,0.74-0.99,1.5-1.38,2.27c3.02,3.47,6.57,6.63,10.59,9.34
						c16.35,9.03,33.61,7.03,47.7-3.34c5.93-3.87,10.29-8.87,13.36-14.52c-3.78-1.77-7.93-3.2-12.11-4.35
						C2539.91,2200.72,2537.7,2203.6,2534.89,2206.27z"/>
				</g>
				<g class="st52">
					<path d="M2564.61,2209.21c-2.84-2.85-6.6-5.22-10.8-7.18c-3.07,5.65-7.43,10.65-13.36,14.52c-14.1,10.38-31.35,12.38-47.7,3.34
						c-4.02-2.71-7.57-5.87-10.59-9.34c-1.45,2.88-1.98,5.97-1.11,9.04c0.59,2.05,1.56,3.9,2.81,5.59
						c22.4,11.99,51.29,10.86,74.35-6.32c2.98-2.38,5.63-5.03,7.95-7.89C2565.7,2210.39,2565.2,2209.81,2564.61,2209.21z"/>
				</g>
				<g class="st55">
					<path d="M2566.16,2210.97c-2.32,2.86-4.97,5.51-7.95,7.89c-23.06,17.18-51.95,18.31-74.35,6.32
						c10.35,13.92,41.28,15.66,57.36,12.32C2554.47,2234.75,2576.7,2224.27,2566.16,2210.97z"/>
				</g>
				<g class="st55">
					<path class="st64" d="M2497.73,2199.71c-1.24,0.44-2.49,0.93-3.48,1.8c-0.99,0.87-1.68,2.18-1.47,3.48
						c0.3,1.84,2.18,2.96,3.95,3.54c3.81,1.25,7.91,1.2,11.9,0.92c7.9-0.54,15.92-1.95,22.78-5.91c0.9-0.52,1.85-1.17,2.12-2.17
						c0.25-0.9-0.14-1.89-0.77-2.59c-1.68-1.88-4.91-1.8-7.24-2.1c-3.07-0.39-6.18-0.54-9.27-0.45
						C2509.95,2196.42,2503.68,2197.6,2497.73,2199.71z"/>
				</g>
			</g>
		</g>
	</g>
	<g>
		<linearGradient id="SVGID_43_" gradientUnits="userSpaceOnUse" x1="2850.5344" y1="1961.3777" x2="3043.6328" y2="1768.2794">
			<stop  offset="0" style="stop-color:#2B3582"/>
			<stop  offset="1" style="stop-color:#150E42"/>
		</linearGradient>
		<path class="st65" d="M2802.44,1680.65l-35.79,93.86c0,0,34.12,150.37,200.99,198.42c166.87,48.05,233.83-33.88,233.83-33.88
			l42.3-137.63L2802.44,1680.65z"/>
		<linearGradient id="SVGID_44_" gradientUnits="userSpaceOnUse" x1="3007.9072" y1="1841.7141" x2="3197.1428" y2="980.4973">
			<stop  offset="0" style="stop-color:#2B3582"/>
			<stop  offset="1" style="stop-color:#150E42"/>
		</linearGradient>
		<path class="st66" d="M3059.51,1536.44l-335.82,87.27c-17.29,4.49-22.58,26.45-9.23,38.32c65.15,57.88,213.15,192.64,268.7,270.32
			c5.94,8.31,16.78,11.49,26.29,7.76l340.64-133.53c15.41-6.04,19.14-26.15,6.91-37.3c-64.49-58.81-228.65-206.11-282.44-231.47
			C3069.87,1535.59,3064.54,1535.13,3059.51,1536.44z"/>
		
			<linearGradient id="SVGID_45_" gradientUnits="userSpaceOnUse" x1="3214.3523" y1="2148.7932" x2="3170.7727" y2="1872.7877" gradientTransform="matrix(1 -9.500000e-03 9.500000e-03 1 -24.9307 56.9446)">
			<stop  offset="0" style="stop-color:#2B3582"/>
			<stop  offset="1" style="stop-color:#150E42"/>
		</linearGradient>
		<path class="st67" d="M3049.03,1708.87c0,0,175.97,115.7,189.06,141.62c13.09,25.92-16.44,142.07-16.44,142.07
			c26.17,99.27,28.3,206.58-20.12,261.78c0,0-55.93-130.95-28.82-185.19c27.12-54.24,37.59-76.48,37.59-76.48
			s25.17-123.94,18.29-141.86C3228.59,1850.81,3033.78,1715.7,3049.03,1708.87z"/>
		<path class="st7" d="M2770.34,1653.3l167.19,172.45l41.8,43.11l10.45,10.78l5.2,5.35c1.52,1.57,3.25,2.91,5.08,4.11
			c7.35,4.75,16.81,6.07,25.27,3.32l114.7-35.6c1.72-0.54,3.55,0.43,4.09,2.15c0.53,1.71-0.41,3.52-2.11,4.08l-114.17,37.25
			c-10.58,3.62-22.86,2.17-32.42-3.84c-2.38-1.51-4.64-3.22-6.65-5.22l-5.34-5.34l-10.6-10.62l-42.42-42.5l-169.66-170.02
			c-2.63-2.63-2.62-6.89,0.01-9.52c2.63-2.63,6.89-2.62,9.52,0.01C2770.28,1653.24,2770.32,1653.28,2770.34,1653.3z"/>
		<path class="st7" d="M3209.71,2054.61c-0.68,0.64-1.9,2.1-2.83,3.33c-1,1.28-1.9,2.73-2.86,4.08l-2.58,4.41
			c-0.81,1.51-1.53,3.09-2.31,4.63c-1.55,3.09-2.69,6.42-4,9.66c-0.99,3.38-2.24,6.68-3.04,10.13c-0.74,3.47-1.74,6.89-2.28,10.42
			l-1.61,10.61l-0.85,10.76c-0.38,3.59-0.15,7.22-0.26,10.83c-0.29,7.24,0.48,14.48,0.84,21.75c0.64,7.25,1.71,14.48,2.63,21.72
			c1.39,7.18,2.63,14.4,4.15,21.56l5.32,21.37l0.03,0.12c0.31,1.26-0.45,2.52-1.71,2.84c-1.21,0.3-2.44-0.41-2.81-1.59l-6.45-21.34
			c-1.9-7.19-3.53-14.46-5.31-21.71c-1.31-7.34-2.76-14.68-3.79-22.1c-0.75-7.46-1.9-14.89-1.99-22.44
			c-0.08-3.77-0.49-7.53-0.29-11.31l0.34-11.36l1.15-11.36c0.4-3.79,1.28-7.54,1.9-11.32c0.69-3.77,1.86-7.48,2.78-11.23
			c1.25-3.67,2.35-7.41,3.92-11.01c0.79-1.8,1.52-3.62,2.37-5.4l2.76-5.29c1.08-1.72,2.06-3.46,3.24-5.16
			c1.24-1.75,2.26-3.24,4.14-5.26c2.54-2.72,6.81-2.86,9.52-0.32c2.72,2.54,2.86,6.8,0.32,9.52c-0.09,0.1-0.18,0.19-0.27,0.28
			L3209.71,2054.61z"/>
		<path class="st7" d="M3215.14,2099.2l-0.58,29.63l-0.42,31.43l-0.65,62.88c-0.01,2.02-1.67,3.65-3.69,3.63
			c-1.96-0.01-3.55-1.58-3.63-3.52l-2.42-62.86l-1.12-31.45l-0.49-15.75l-0.21-7.9l-0.07-4.01l-0.02-2.02
			c0.02-1.04,0.12-2.38,0.29-3.54c0.51-3.59,3.83-6.08,7.41-5.57c3.32,0.47,5.71,3.35,5.64,6.62L3215.14,2099.2z"/>
	</g>
</g>
</svg>
